%TF.GenerationSoftware,KiCad,Pcbnew,8.0.3*%
%TF.CreationDate,2024-08-26T23:53:33+05:30*%
%TF.ProjectId,Scout_Board,53636f75-745f-4426-9f61-72642e6b6963,rev?*%
%TF.SameCoordinates,Original*%
%TF.FileFunction,Copper,L2,Bot*%
%TF.FilePolarity,Positive*%
%FSLAX46Y46*%
G04 Gerber Fmt 4.6, Leading zero omitted, Abs format (unit mm)*
G04 Created by KiCad (PCBNEW 8.0.3) date 2024-08-26 23:53:33*
%MOMM*%
%LPD*%
G01*
G04 APERTURE LIST*
%TA.AperFunction,ComponentPad*%
%ADD10C,1.244600*%
%TD*%
%TA.AperFunction,ComponentPad*%
%ADD11R,1.700000X1.700000*%
%TD*%
%TA.AperFunction,ComponentPad*%
%ADD12O,1.700000X1.700000*%
%TD*%
%TA.AperFunction,ComponentPad*%
%ADD13R,1.530000X1.530000*%
%TD*%
%TA.AperFunction,ComponentPad*%
%ADD14C,1.530000*%
%TD*%
%TA.AperFunction,ComponentPad*%
%ADD15R,2.800000X2.800000*%
%TD*%
%TA.AperFunction,ComponentPad*%
%ADD16C,2.800000*%
%TD*%
%TA.AperFunction,ComponentPad*%
%ADD17C,1.320800*%
%TD*%
%TA.AperFunction,ComponentPad*%
%ADD18O,4.560000X2.280000*%
%TD*%
%TA.AperFunction,ComponentPad*%
%ADD19O,2.025000X4.050000*%
%TD*%
%TA.AperFunction,ComponentPad*%
%ADD20O,4.050000X2.025000*%
%TD*%
%TA.AperFunction,ComponentPad*%
%ADD21C,0.630000*%
%TD*%
%TA.AperFunction,SMDPad,CuDef*%
%ADD22R,2.600000X3.300000*%
%TD*%
%TA.AperFunction,ViaPad*%
%ADD23C,0.800000*%
%TD*%
%TA.AperFunction,Conductor*%
%ADD24C,0.250000*%
%TD*%
G04 APERTURE END LIST*
D10*
%TO.P,Conn11,1,Pin_1*%
%TO.N,+3.3V*%
X211859999Y-147320000D03*
%TO.P,Conn11,2,Pin_2*%
%TO.N,Button5*%
X213360000Y-147320000D03*
%TD*%
%TO.P,Conn12,1,Pin_1*%
%TO.N,+3.3V*%
X211859999Y-139700000D03*
%TO.P,Conn12,2,Pin_2*%
%TO.N,Button6*%
X213360000Y-139700000D03*
%TD*%
D11*
%TO.P,J6,1,Pin_1*%
%TO.N,GND*%
X222270000Y-154970000D03*
D12*
%TO.P,J6,2,Pin_2*%
X219730000Y-154970000D03*
%TO.P,J6,3,Pin_3*%
X222270000Y-157510000D03*
%TO.P,J6,4,Pin_4*%
X219730000Y-157510000D03*
%TO.P,J6,5,Pin_5*%
X222270000Y-160050000D03*
%TO.P,J6,6,Pin_6*%
X219730000Y-160050000D03*
%TO.P,J6,7,Pin_7*%
X222270000Y-162590000D03*
%TO.P,J6,8,Pin_8*%
X219730000Y-162590000D03*
%TO.P,J6,9,Pin_9*%
X222270000Y-165130000D03*
%TO.P,J6,10,Pin_10*%
X219730000Y-165130000D03*
%TD*%
D13*
%TO.P,U2,J1_1,3V3*%
%TO.N,+3.3V*%
X162014500Y-156970000D03*
D14*
%TO.P,U2,J1_2,3V3*%
X162014500Y-154430000D03*
%TO.P,U2,J1_3,RST*%
%TO.N,unconnected-(U2-RST-PadJ1_3)*%
X162014500Y-151890000D03*
%TO.P,U2,J1_4,GPIO4*%
%TO.N,Conn3*%
X162014500Y-149350000D03*
%TO.P,U2,J1_5,GPIO5*%
%TO.N,Conn4*%
X162014500Y-146810000D03*
%TO.P,U2,J1_6,GPIO6*%
%TO.N,Sw2*%
X162014500Y-144270000D03*
%TO.P,U2,J1_7,GPIO7*%
%TO.N,FlipButton*%
X162014500Y-141730000D03*
%TO.P,U2,J1_8,GPIO15*%
%TO.N,Sw1*%
X162014500Y-139190000D03*
%TO.P,U2,J1_9,GPIO16*%
%TO.N,TxD*%
X162014500Y-136650000D03*
%TO.P,U2,J1_10,GPIO17*%
%TO.N,RxD*%
X162014500Y-134110000D03*
%TO.P,U2,J1_11,GPIO18*%
%TO.N,CaptureButton*%
X162014500Y-131570000D03*
%TO.P,U2,J1_12,GPIO8*%
%TO.N,SBC_Power*%
X162014500Y-129030000D03*
%TO.P,U2,J1_13,GPIO3*%
%TO.N,Conn2*%
X162014500Y-126490000D03*
%TO.P,U2,J1_14,GPIO46*%
%TO.N,unconnected-(U2-GPIO46-PadJ1_14)*%
X162014500Y-123950000D03*
%TO.P,U2,J1_15,GPIO9*%
%TO.N,Button3*%
X162014500Y-121410000D03*
%TO.P,U2,J1_16,GPIO10*%
%TO.N,Button4*%
X162014500Y-118870000D03*
%TO.P,U2,J1_17,GPIO11*%
%TO.N,Button5*%
X162014500Y-116330000D03*
%TO.P,U2,J1_18,GPIO12*%
%TO.N,Button6*%
X162014500Y-113790000D03*
%TO.P,U2,J1_19,GPIO13*%
%TO.N,TopLightsLV*%
X162014500Y-111250000D03*
%TO.P,U2,J1_20,GPIO14*%
%TO.N,BottomLightsLV*%
X162014500Y-108710000D03*
%TO.P,U2,J1_21,5V0*%
%TO.N,+5V*%
X162014500Y-106170000D03*
%TO.P,U2,J1_22,GND*%
%TO.N,GND*%
X162014500Y-103630000D03*
%TO.P,U2,J3_1,GND*%
X139154500Y-156970000D03*
%TO.P,U2,J3_2,U0TXD/GPIO43*%
%TO.N,unconnected-(U2-U0TXD{slash}GPIO43-PadJ3_2)*%
X139154500Y-154430000D03*
%TO.P,U2,J3_3,U0RXD/GPIO44*%
%TO.N,unconnected-(U2-U0RXD{slash}GPIO44-PadJ3_3)*%
X139154500Y-151890000D03*
%TO.P,U2,J3_4,GPIO1*%
%TO.N,unconnected-(U2-GPIO1-PadJ3_4)*%
X139154500Y-149350000D03*
%TO.P,U2,J3_5,GPIO2*%
%TO.N,Conn1*%
X139154500Y-146810000D03*
%TO.P,U2,J3_6,MTMS/GPIO42*%
%TO.N,unconnected-(U2-MTMS{slash}GPIO42-PadJ3_6)*%
X139154500Y-144270000D03*
%TO.P,U2,J3_7,MTDI/GPIO41*%
%TO.N,unconnected-(U2-MTDI{slash}GPIO41-PadJ3_7)*%
X139154500Y-141730000D03*
%TO.P,U2,J3_8,MTDO/GPIO40*%
%TO.N,unconnected-(U2-MTDO{slash}GPIO40-PadJ3_8)*%
X139154500Y-139190000D03*
%TO.P,U2,J3_9,MTCK/GPIO39*%
%TO.N,unconnected-(U2-MTCK{slash}GPIO39-PadJ3_9)*%
X139154500Y-136650000D03*
%TO.P,U2,J3_10,GPIO38*%
%TO.N,unconnected-(U2-GPIO38-PadJ3_10)*%
X139154500Y-134110000D03*
%TO.P,U2,J3_11,GPIO37*%
%TO.N,unconnected-(U2-GPIO37-PadJ3_11)*%
X139154500Y-131570000D03*
%TO.P,U2,J3_12,GPIO36*%
%TO.N,unconnected-(U2-GPIO36-PadJ3_12)*%
X139154500Y-129030000D03*
%TO.P,U2,J3_13,GPIO35*%
%TO.N,IN2*%
X139154500Y-126490000D03*
%TO.P,U2,J3_14,GPIO0*%
%TO.N,unconnected-(U2-GPIO0-PadJ3_14)*%
X139154500Y-123950000D03*
%TO.P,U2,J3_15,GPIO45*%
%TO.N,unconnected-(U2-GPIO45-PadJ3_15)*%
X139154500Y-121410000D03*
%TO.P,U2,J3_16,GPIO48*%
%TO.N,unconnected-(U2-GPIO48-PadJ3_16)*%
X139154500Y-118870000D03*
%TO.P,U2,J3_17,GPIO47*%
%TO.N,unconnected-(U2-GPIO47-PadJ3_17)*%
X139154500Y-116330000D03*
%TO.P,U2,J3_18,GPIO21*%
%TO.N,IN1*%
X139154500Y-113790000D03*
%TO.P,U2,J3_19,USB_D+/GPIO20*%
%TO.N,unconnected-(U2-USB_D+{slash}GPIO20-PadJ3_19)*%
X139154500Y-111250000D03*
%TO.P,U2,J3_20,USB_D-/GPIO19*%
%TO.N,unconnected-(U2-USB_D-{slash}GPIO19-PadJ3_20)*%
X139154500Y-108710000D03*
%TO.P,U2,J3_21,GND*%
%TO.N,GND*%
X139154500Y-106170000D03*
%TO.P,U2,J3_22,GND*%
X139154500Y-103630000D03*
%TD*%
D11*
%TO.P,J5,1,Pin_1*%
%TO.N,+5V*%
X229870000Y-155194000D03*
D12*
%TO.P,J5,2,Pin_2*%
X227330000Y-155194000D03*
%TO.P,J5,3,Pin_3*%
X229870000Y-157734000D03*
%TO.P,J5,4,Pin_4*%
X227330000Y-157734000D03*
%TO.P,J5,5,Pin_5*%
X229870000Y-160274000D03*
%TO.P,J5,6,Pin_6*%
X227330000Y-160274000D03*
%TO.P,J5,7,Pin_7*%
X229870000Y-162814000D03*
%TO.P,J5,8,Pin_8*%
X227330000Y-162814000D03*
%TO.P,J5,9,Pin_9*%
X229870000Y-165354000D03*
%TO.P,J5,10,Pin_10*%
X227330000Y-165354000D03*
%TD*%
D10*
%TO.P,Conn10,1,Pin_1*%
%TO.N,+3.3V*%
X211859999Y-154940000D03*
%TO.P,Conn10,2,Pin_2*%
%TO.N,Button4*%
X213360000Y-154940000D03*
%TD*%
%TO.P,Conn4,1,Pin_1*%
%TO.N,+12V*%
X203200000Y-134088001D03*
%TO.P,Conn4,2,Pin_2*%
%TO.N,Net-(Conn4-Pin_2)*%
X204700001Y-134088001D03*
%TD*%
%TO.P,Conn9,1,Pin_1*%
%TO.N,+3.3V*%
X211859999Y-162560000D03*
%TO.P,Conn9,2,Pin_2*%
%TO.N,Button3*%
X213360000Y-162560000D03*
%TD*%
D11*
%TO.P,J1,1,Pin_1*%
%TO.N,SBC_Power*%
X172466000Y-148844000D03*
%TD*%
D10*
%TO.P,Conn1,1,Pin_1*%
%TO.N,OUT1*%
X203200000Y-127000000D03*
%TO.P,Conn1,2,Pin_2*%
%TO.N,OUT2*%
X204700001Y-127000000D03*
%TD*%
%TO.P,Conn6,1,Pin_1*%
%TO.N,+3.3V*%
X203200000Y-149328001D03*
%TO.P,Conn6,2,Pin_2*%
%TO.N,FlipButton*%
X204700001Y-149328001D03*
%TD*%
D15*
%TO.P,J4,1,Pin_1*%
%TO.N,+5VA*%
X180928000Y-97282000D03*
D16*
%TO.P,J4,2,Pin_2*%
%TO.N,GND*%
X185928000Y-97282000D03*
%TD*%
D17*
%TO.P,Conn7,1,VCC*%
%TO.N,+3.3V*%
X194818000Y-155194000D03*
%TO.P,Conn7,2,RXD*%
%TO.N,RxD*%
X193318001Y-155194000D03*
%TO.P,Conn7,3,TXD*%
%TO.N,TxD*%
X191817999Y-155194000D03*
%TO.P,Conn7,4,GND*%
%TO.N,GND*%
X190317999Y-155194000D03*
%TD*%
D10*
%TO.P,Conn8,1,Pin_1*%
%TO.N,+3.3V*%
X219479999Y-144780000D03*
%TO.P,Conn8,2,Pin_2*%
%TO.N,CaptureButton*%
X220980000Y-144780000D03*
%TD*%
D11*
%TO.P,J2,1,Pin_1*%
%TO.N,Conn1*%
X171958000Y-154432000D03*
D12*
%TO.P,J2,2,Pin_2*%
%TO.N,Conn2*%
X174498000Y-154432000D03*
%TO.P,J2,3,Pin_3*%
%TO.N,Conn3*%
X177038000Y-154432000D03*
%TO.P,J2,4,Pin_4*%
%TO.N,Conn4*%
X179578000Y-154432000D03*
%TD*%
D10*
%TO.P,Conn2,1,Pin_1*%
%TO.N,+3.3V*%
X203200000Y-164568001D03*
%TO.P,Conn2,2,Pin_2*%
%TO.N,Sw2*%
X204700001Y-164568001D03*
%TD*%
D18*
%TO.P,J3,1*%
%TO.N,+12V*%
X226568000Y-98706000D03*
D19*
%TO.P,J3,2*%
%TO.N,GND*%
X221768000Y-95706000D03*
D20*
%TO.P,J3,3*%
X226568000Y-92456000D03*
%TD*%
D10*
%TO.P,Conn3,1,Pin_1*%
%TO.N,+3.3V*%
X203200000Y-156948001D03*
%TO.P,Conn3,2,Pin_2*%
%TO.N,Sw1*%
X204700001Y-156948001D03*
%TD*%
D21*
%TO.P,U1,9*%
%TO.N,GND*%
X168768000Y-92934000D03*
X168768000Y-94234000D03*
X168768000Y-95534000D03*
D22*
X169418000Y-94234000D03*
D21*
X170068000Y-92934000D03*
X170068000Y-94234000D03*
X170068000Y-95534000D03*
%TD*%
D10*
%TO.P,Conn5,1,Pin_1*%
%TO.N,+12V*%
X203200000Y-141708001D03*
%TO.P,Conn5,2,Pin_2*%
%TO.N,Net-(Conn5-Pin_2)*%
X204700001Y-141708001D03*
%TD*%
D23*
%TO.N,GND*%
X137922000Y-100076000D03*
%TO.N,OUT1*%
X174498000Y-94996000D03*
%TO.N,OUT2*%
X174498000Y-92456000D03*
%TO.N,+3.3V*%
X170298214Y-122912962D03*
X189230000Y-161544000D03*
X175006000Y-161290000D03*
X167132000Y-160782000D03*
X182118000Y-161544000D03*
X180340000Y-124968000D03*
X156464000Y-160782000D03*
X174752000Y-122174000D03*
X147828000Y-160020000D03*
%TO.N,Sw1*%
X151130000Y-156972000D03*
X155702000Y-142748000D03*
%TO.N,Net-(Conn4-Pin_2)*%
X189484000Y-109728000D03*
%TO.N,Net-(Conn5-Pin_2)*%
X175260000Y-116078000D03*
%TO.N,FlipButton*%
X153416000Y-164084000D03*
%TO.N,RxD*%
X172720000Y-134874000D03*
%TO.N,TxD*%
X174248653Y-137409347D03*
%TO.N,CaptureButton*%
X163830000Y-163359000D03*
X160020000Y-157734000D03*
%TO.N,Button3*%
X170434000Y-160528000D03*
X174244000Y-164809000D03*
%TO.N,Button4*%
X181610000Y-166624000D03*
X178562000Y-162306000D03*
%TO.N,Button5*%
X188976000Y-167640000D03*
%TO.N,Button6*%
X197104000Y-153416000D03*
%TO.N,TopLightsLV*%
X179324000Y-121666000D03*
%TD*%
D24*
%TO.N,GND*%
X139154500Y-101308500D02*
X137922000Y-100076000D01*
X139154500Y-103630000D02*
X139154500Y-101308500D01*
%TO.N,OUT1*%
X203200000Y-101346000D02*
X199390000Y-97536000D01*
X196850000Y-94996000D02*
X174498000Y-94996000D01*
X199390000Y-97536000D02*
X196850000Y-94996000D01*
X203200000Y-127000000D02*
X203200000Y-101346000D01*
%TO.N,OUT2*%
X176022000Y-93980000D02*
X174498000Y-92456000D01*
X204700001Y-101830001D02*
X196850000Y-93980000D01*
X204700001Y-127000000D02*
X204700001Y-101830001D01*
X196850000Y-93980000D02*
X176022000Y-93980000D01*
%TO.N,Sw1*%
X151130000Y-162823305D02*
X156671695Y-168365000D01*
X213752385Y-146372700D02*
X215207300Y-147827615D01*
X215207300Y-163325177D02*
X210167477Y-168365000D01*
X159260000Y-139190000D02*
X155702000Y-142748000D01*
X162014500Y-139190000D02*
X159260000Y-139190000D01*
X208994987Y-146372700D02*
X213752385Y-146372700D01*
X210167477Y-168365000D02*
X156671695Y-168365000D01*
X207518000Y-147849687D02*
X208994987Y-146372700D01*
X207518000Y-154130002D02*
X207518000Y-147849687D01*
X215207300Y-147827615D02*
X215207300Y-163325177D01*
X151130000Y-156972000D02*
X151130000Y-162823305D01*
X204700001Y-156948001D02*
X207518000Y-154130002D01*
%TO.N,Net-(Conn4-Pin_2)*%
X196342000Y-110998000D02*
X190754000Y-110998000D01*
X204700001Y-134088001D02*
X204700001Y-130532001D01*
X196342000Y-115062000D02*
X196342000Y-110998000D01*
X203962000Y-129794000D02*
X200914000Y-126746000D01*
X200914000Y-126746000D02*
X200914000Y-119634000D01*
X200914000Y-119634000D02*
X196342000Y-115062000D01*
X190754000Y-110998000D02*
X189484000Y-109728000D01*
X204700001Y-130532001D02*
X203962000Y-129794000D01*
%TO.N,Net-(Conn5-Pin_2)*%
X175260000Y-116078000D02*
X196342000Y-116078000D01*
X200152000Y-137160000D02*
X204700001Y-141708001D01*
X196342000Y-116078000D02*
X200152000Y-119888000D01*
X200152000Y-119888000D02*
X200152000Y-137160000D01*
%TO.N,FlipButton*%
X154432000Y-165100000D02*
X155448000Y-164084000D01*
X153416000Y-150328500D02*
X162014500Y-141730000D01*
X153416000Y-164084000D02*
X154432000Y-165100000D01*
X188962701Y-165065301D02*
X204700001Y-149328001D01*
X153416000Y-164084000D02*
X153416000Y-150328500D01*
X174544305Y-164084000D02*
X175525606Y-165065301D01*
X155448000Y-164084000D02*
X174544305Y-164084000D01*
X175525606Y-165065301D02*
X188962701Y-165065301D01*
%TO.N,RxD*%
X171956000Y-134110000D02*
X162014500Y-134110000D01*
X172720000Y-134874000D02*
X171956000Y-134110000D01*
%TO.N,TxD*%
X173489306Y-136650000D02*
X162014500Y-136650000D01*
X174248653Y-137409347D02*
X173489306Y-136650000D01*
%TO.N,CaptureButton*%
X164105000Y-163634000D02*
X174730701Y-163634000D01*
X207678316Y-143510000D02*
X219710000Y-143510000D01*
X202252700Y-148935616D02*
X207678316Y-143510000D01*
X187381086Y-164592000D02*
X202252700Y-149720386D01*
X202252700Y-149720386D02*
X202252700Y-148935616D01*
X175688701Y-164592000D02*
X187381086Y-164592000D01*
X160020000Y-159549000D02*
X163830000Y-163359000D01*
X174730701Y-163634000D02*
X175688701Y-164592000D01*
X163830000Y-163359000D02*
X164105000Y-163634000D01*
X219710000Y-143510000D02*
X220980000Y-144780000D01*
X160020000Y-157734000D02*
X160020000Y-159549000D01*
%TO.N,Button3*%
X174950301Y-165515301D02*
X210404699Y-165515301D01*
X181926802Y-156655198D02*
X181926802Y-141322302D01*
X181926802Y-141322302D02*
X162014500Y-121410000D01*
X210404699Y-165515301D02*
X213360000Y-162560000D01*
X170434000Y-160528000D02*
X170471000Y-160565000D01*
X174244000Y-164809000D02*
X174950301Y-165515301D01*
X170471000Y-160565000D02*
X178017000Y-160565000D01*
X178017000Y-160565000D02*
X181926802Y-156655198D01*
%TO.N,Button4*%
X214307300Y-155887300D02*
X213360000Y-154940000D01*
X162014500Y-118870000D02*
X162014500Y-119850500D01*
X179578000Y-160528000D02*
X179578000Y-161290000D01*
X162014500Y-119850500D02*
X182843000Y-140679000D01*
X181610000Y-166624000D02*
X210635685Y-166624000D01*
X214307300Y-162952385D02*
X214307300Y-155887300D01*
X182843000Y-140679000D02*
X182843000Y-157263000D01*
X179578000Y-161290000D02*
X178562000Y-162306000D01*
X210635685Y-166624000D02*
X214307300Y-162952385D01*
X182843000Y-157263000D02*
X179578000Y-160528000D01*
%TO.N,Button5*%
X214757300Y-163138781D02*
X214757300Y-148717300D01*
X210256081Y-167640000D02*
X214757300Y-163138781D01*
X188976000Y-167640000D02*
X210256081Y-167640000D01*
X214757300Y-148717300D02*
X213360000Y-147320000D01*
%TO.N,Button6*%
X163104500Y-118400500D02*
X163104500Y-114880000D01*
X197104000Y-153416000D02*
X197104000Y-152400000D01*
X197104000Y-152400000D02*
X163104500Y-118400500D01*
X212412700Y-140647300D02*
X213360000Y-139700000D01*
X197104000Y-153116314D02*
X209573014Y-140647300D01*
X163104500Y-114880000D02*
X162014500Y-113790000D01*
X209573014Y-140647300D02*
X212412700Y-140647300D01*
X197104000Y-153416000D02*
X197104000Y-153116314D01*
%TO.N,Conn3*%
X172117000Y-150019000D02*
X171291000Y-150019000D01*
X177038000Y-154432000D02*
X176530000Y-154432000D01*
X171291000Y-149350000D02*
X162014500Y-149350000D01*
X171291000Y-150019000D02*
X171291000Y-149350000D01*
X176530000Y-154432000D02*
X172117000Y-150019000D01*
%TO.N,Conn4*%
X172782000Y-146810000D02*
X162014500Y-146810000D01*
X179578000Y-154178000D02*
X173641000Y-148241000D01*
X173641000Y-147669000D02*
X172782000Y-146810000D01*
X173641000Y-148241000D02*
X173641000Y-147669000D01*
X179578000Y-154432000D02*
X179578000Y-154178000D01*
%TO.N,TopLightsLV*%
X162014500Y-111250000D02*
X168908000Y-111250000D01*
X168908000Y-111250000D02*
X179324000Y-121666000D01*
%TD*%
%TA.AperFunction,Conductor*%
%TO.N,+3.3V*%
G36*
X163302769Y-119483447D02*
G01*
X163305595Y-119486185D01*
X196442181Y-152622771D01*
X196475666Y-152684094D01*
X196478500Y-152710452D01*
X196478500Y-152717312D01*
X196458815Y-152784351D01*
X196446650Y-152800284D01*
X196371466Y-152883784D01*
X196276821Y-153047715D01*
X196276818Y-153047722D01*
X196218824Y-153226210D01*
X196218326Y-153227744D01*
X196198540Y-153416000D01*
X196218326Y-153604256D01*
X196218327Y-153604259D01*
X196276818Y-153784277D01*
X196276821Y-153784284D01*
X196371467Y-153948216D01*
X196483034Y-154072123D01*
X196498129Y-154088888D01*
X196651265Y-154200148D01*
X196656893Y-154203397D01*
X196656176Y-154204638D01*
X196703721Y-154245047D01*
X196724045Y-154311895D01*
X196705003Y-154379120D01*
X196687732Y-154400762D01*
X187158315Y-163930181D01*
X187096992Y-163963666D01*
X187070634Y-163966500D01*
X175999154Y-163966500D01*
X175932115Y-163946815D01*
X175911473Y-163930181D01*
X175223629Y-163242338D01*
X175223626Y-163242334D01*
X175223626Y-163242335D01*
X175216559Y-163235268D01*
X175216559Y-163235267D01*
X175129434Y-163148142D01*
X175129433Y-163148141D01*
X175129432Y-163148140D01*
X175078080Y-163113828D01*
X175078077Y-163113824D01*
X175026993Y-163079692D01*
X175026992Y-163079691D01*
X175026987Y-163079688D01*
X175026984Y-163079686D01*
X175026981Y-163079685D01*
X174946493Y-163046347D01*
X174913154Y-163032537D01*
X174903128Y-163030543D01*
X174852730Y-163020518D01*
X174792311Y-163008500D01*
X174792308Y-163008500D01*
X174792307Y-163008500D01*
X164739038Y-163008500D01*
X164671999Y-162988815D01*
X164631651Y-162946500D01*
X164596093Y-162884912D01*
X164562533Y-162826784D01*
X164435871Y-162686112D01*
X164435870Y-162686111D01*
X164282734Y-162574851D01*
X164282729Y-162574848D01*
X164109807Y-162497857D01*
X164109802Y-162497855D01*
X163964001Y-162466865D01*
X163924646Y-162458500D01*
X163924645Y-162458500D01*
X163865453Y-162458500D01*
X163798414Y-162438815D01*
X163777772Y-162422181D01*
X160681819Y-159326228D01*
X160648334Y-159264905D01*
X160645500Y-159238547D01*
X160645500Y-158432687D01*
X160665185Y-158365648D01*
X160677350Y-158349715D01*
X160695891Y-158329122D01*
X160752533Y-158266216D01*
X160847179Y-158102284D01*
X160905674Y-157922256D01*
X160925460Y-157734000D01*
X160905674Y-157545744D01*
X160847179Y-157365716D01*
X160752533Y-157201784D01*
X160625871Y-157061112D01*
X160625870Y-157061111D01*
X160472734Y-156949851D01*
X160472729Y-156949848D01*
X160299807Y-156872857D01*
X160299802Y-156872855D01*
X160154001Y-156841865D01*
X160114646Y-156833500D01*
X159925354Y-156833500D01*
X159892897Y-156840398D01*
X159740197Y-156872855D01*
X159740192Y-156872857D01*
X159567270Y-156949848D01*
X159567265Y-156949851D01*
X159414129Y-157061111D01*
X159287466Y-157201785D01*
X159192821Y-157365715D01*
X159192818Y-157365722D01*
X159149645Y-157498596D01*
X159134326Y-157545744D01*
X159114540Y-157734000D01*
X159134326Y-157922256D01*
X159134327Y-157922259D01*
X159192818Y-158102277D01*
X159192821Y-158102284D01*
X159287467Y-158266216D01*
X159330772Y-158314310D01*
X159362650Y-158349715D01*
X159392880Y-158412706D01*
X159394500Y-158432687D01*
X159394500Y-159610611D01*
X159418535Y-159731444D01*
X159418540Y-159731461D01*
X159465685Y-159845281D01*
X159465690Y-159845290D01*
X159481006Y-159868211D01*
X159481007Y-159868212D01*
X159534140Y-159947731D01*
X159534141Y-159947732D01*
X159534142Y-159947733D01*
X159621267Y-160034858D01*
X159621268Y-160034858D01*
X159628335Y-160041925D01*
X159628334Y-160041925D01*
X159628338Y-160041928D01*
X162833228Y-163246819D01*
X162866713Y-163308142D01*
X162861729Y-163377834D01*
X162819857Y-163433767D01*
X162754393Y-163458184D01*
X162745547Y-163458500D01*
X155386389Y-163458500D01*
X155325971Y-163470518D01*
X155265548Y-163482537D01*
X155265546Y-163482537D01*
X155265545Y-163482538D01*
X155265543Y-163482538D01*
X155243112Y-163491830D01*
X155151713Y-163529688D01*
X155151708Y-163529690D01*
X155049272Y-163598138D01*
X155049264Y-163598144D01*
X154528298Y-164119111D01*
X154466975Y-164152596D01*
X154397283Y-164147612D01*
X154341350Y-164105740D01*
X154317297Y-164044394D01*
X154301674Y-163895744D01*
X154243179Y-163715716D01*
X154148533Y-163551784D01*
X154073350Y-163468284D01*
X154043120Y-163405292D01*
X154041500Y-163385312D01*
X154041500Y-150638951D01*
X154061185Y-150571912D01*
X154077814Y-150551275D01*
X160540184Y-144088904D01*
X160601507Y-144055420D01*
X160671199Y-144060404D01*
X160727132Y-144102276D01*
X160751549Y-144167740D01*
X160751393Y-144187393D01*
X160744166Y-144269998D01*
X160744166Y-144270001D01*
X160763464Y-144490585D01*
X160763465Y-144490592D01*
X160820775Y-144704475D01*
X160820779Y-144704486D01*
X160855992Y-144780000D01*
X160914358Y-144905167D01*
X161041368Y-145086555D01*
X161197945Y-145243132D01*
X161379333Y-145370142D01*
X161386775Y-145373612D01*
X161502591Y-145427618D01*
X161555031Y-145473790D01*
X161574183Y-145540983D01*
X161553967Y-145607865D01*
X161502591Y-145652382D01*
X161379336Y-145709856D01*
X161379334Y-145709857D01*
X161197944Y-145836868D01*
X161041368Y-145993444D01*
X160914357Y-146174834D01*
X160914356Y-146174836D01*
X160820779Y-146375513D01*
X160820775Y-146375524D01*
X160763465Y-146589407D01*
X160763464Y-146589414D01*
X160744166Y-146809998D01*
X160744166Y-146810001D01*
X160763464Y-147030585D01*
X160763465Y-147030592D01*
X160820775Y-147244475D01*
X160820779Y-147244486D01*
X160880573Y-147372714D01*
X160914358Y-147445167D01*
X161041368Y-147626555D01*
X161197945Y-147783132D01*
X161379333Y-147910142D01*
X161386775Y-147913612D01*
X161502591Y-147967618D01*
X161555031Y-148013790D01*
X161574183Y-148080983D01*
X161553967Y-148147865D01*
X161502591Y-148192382D01*
X161379336Y-148249856D01*
X161379334Y-148249857D01*
X161197944Y-148376868D01*
X161041368Y-148533444D01*
X160914357Y-148714834D01*
X160914356Y-148714836D01*
X160820779Y-148915513D01*
X160820775Y-148915524D01*
X160763465Y-149129407D01*
X160763464Y-149129414D01*
X160744166Y-149349998D01*
X160744166Y-149350001D01*
X160763464Y-149570585D01*
X160763465Y-149570592D01*
X160820775Y-149784475D01*
X160820779Y-149784486D01*
X160891587Y-149936335D01*
X160914358Y-149985167D01*
X161041368Y-150166555D01*
X161197945Y-150323132D01*
X161379333Y-150450142D01*
X161434546Y-150475888D01*
X161502591Y-150507618D01*
X161555031Y-150553790D01*
X161574183Y-150620983D01*
X161553967Y-150687865D01*
X161502591Y-150732382D01*
X161379336Y-150789856D01*
X161379334Y-150789857D01*
X161197944Y-150916868D01*
X161041368Y-151073444D01*
X160914357Y-151254834D01*
X160914356Y-151254836D01*
X160820779Y-151455513D01*
X160820775Y-151455524D01*
X160763465Y-151669407D01*
X160763464Y-151669414D01*
X160744166Y-151889998D01*
X160744166Y-151890001D01*
X160763464Y-152110585D01*
X160763465Y-152110592D01*
X160820775Y-152324475D01*
X160820779Y-152324486D01*
X160914356Y-152525163D01*
X160914358Y-152525167D01*
X161041368Y-152706555D01*
X161197945Y-152863132D01*
X161379333Y-152990142D01*
X161500072Y-153046443D01*
X161580013Y-153083720D01*
X161580015Y-153083720D01*
X161580020Y-153083723D01*
X161793909Y-153141035D01*
X161951474Y-153154820D01*
X162014498Y-153160334D01*
X162014500Y-153160334D01*
X162014502Y-153160334D01*
X162069647Y-153155509D01*
X162235091Y-153141035D01*
X162448980Y-153083723D01*
X162649667Y-152990142D01*
X162831055Y-152863132D01*
X162987632Y-152706555D01*
X163114642Y-152525167D01*
X163208223Y-152324480D01*
X163265535Y-152110591D01*
X163284834Y-151890000D01*
X163265535Y-151669409D01*
X163208223Y-151455520D01*
X163114642Y-151254833D01*
X162987632Y-151073445D01*
X162831055Y-150916868D01*
X162649667Y-150789858D01*
X162526407Y-150732381D01*
X162473968Y-150686210D01*
X162454816Y-150619017D01*
X162475031Y-150552136D01*
X162526408Y-150507618D01*
X162532333Y-150504855D01*
X162649667Y-150450142D01*
X162831055Y-150323132D01*
X162987632Y-150166555D01*
X163084387Y-150028374D01*
X163138963Y-149984751D01*
X163185961Y-149975500D01*
X170542829Y-149975500D01*
X170609868Y-149995185D01*
X170655623Y-150047989D01*
X170664446Y-150075309D01*
X170689535Y-150201444D01*
X170689538Y-150201454D01*
X170736687Y-150315283D01*
X170736692Y-150315292D01*
X170805141Y-150417732D01*
X170805144Y-150417736D01*
X170892263Y-150504855D01*
X170892267Y-150504858D01*
X170994707Y-150573307D01*
X170994713Y-150573310D01*
X170994714Y-150573311D01*
X171108548Y-150620463D01*
X171201567Y-150638965D01*
X171229389Y-150644499D01*
X171229393Y-150644500D01*
X171229394Y-150644500D01*
X171352606Y-150644500D01*
X171806548Y-150644500D01*
X171873587Y-150664185D01*
X171894229Y-150680819D01*
X174148385Y-152934976D01*
X174181870Y-152996299D01*
X174176886Y-153065991D01*
X174135014Y-153121924D01*
X174092798Y-153142432D01*
X174034342Y-153158095D01*
X174034335Y-153158098D01*
X173820171Y-153257964D01*
X173820169Y-153257965D01*
X173626600Y-153393503D01*
X173504673Y-153515430D01*
X173443350Y-153548914D01*
X173373658Y-153543930D01*
X173317725Y-153502058D01*
X173300810Y-153471081D01*
X173251797Y-153339671D01*
X173251793Y-153339664D01*
X173165547Y-153224455D01*
X173165544Y-153224452D01*
X173050335Y-153138206D01*
X173050328Y-153138202D01*
X172915482Y-153087908D01*
X172915483Y-153087908D01*
X172855883Y-153081501D01*
X172855881Y-153081500D01*
X172855873Y-153081500D01*
X172855864Y-153081500D01*
X171060129Y-153081500D01*
X171060123Y-153081501D01*
X171000516Y-153087908D01*
X170865671Y-153138202D01*
X170865664Y-153138206D01*
X170750455Y-153224452D01*
X170750452Y-153224455D01*
X170664206Y-153339664D01*
X170664202Y-153339671D01*
X170613908Y-153474517D01*
X170607501Y-153534116D01*
X170607500Y-153534135D01*
X170607500Y-155329870D01*
X170607501Y-155329876D01*
X170613908Y-155389483D01*
X170664202Y-155524328D01*
X170664206Y-155524335D01*
X170750452Y-155639544D01*
X170750455Y-155639547D01*
X170865664Y-155725793D01*
X170865671Y-155725797D01*
X171000517Y-155776091D01*
X171000516Y-155776091D01*
X171007444Y-155776835D01*
X171060127Y-155782500D01*
X172855872Y-155782499D01*
X172915483Y-155776091D01*
X173050331Y-155725796D01*
X173165546Y-155639546D01*
X173251796Y-155524331D01*
X173300810Y-155392916D01*
X173342681Y-155336984D01*
X173408145Y-155312566D01*
X173476418Y-155327417D01*
X173504673Y-155348569D01*
X173626599Y-155470495D01*
X173716739Y-155533612D01*
X173820165Y-155606032D01*
X173820167Y-155606033D01*
X173820170Y-155606035D01*
X174034337Y-155705903D01*
X174262592Y-155767063D01*
X174439034Y-155782500D01*
X174497999Y-155787659D01*
X174498000Y-155787659D01*
X174498001Y-155787659D01*
X174556966Y-155782500D01*
X174733408Y-155767063D01*
X174961663Y-155705903D01*
X175175830Y-155606035D01*
X175369401Y-155470495D01*
X175536495Y-155303401D01*
X175666425Y-155117842D01*
X175721002Y-155074217D01*
X175790500Y-155067023D01*
X175852855Y-155098546D01*
X175869575Y-155117842D01*
X175999500Y-155303395D01*
X175999505Y-155303401D01*
X176166599Y-155470495D01*
X176256739Y-155533612D01*
X176360165Y-155606032D01*
X176360167Y-155606033D01*
X176360170Y-155606035D01*
X176574337Y-155705903D01*
X176802592Y-155767063D01*
X176979034Y-155782500D01*
X177037999Y-155787659D01*
X177038000Y-155787659D01*
X177038001Y-155787659D01*
X177096966Y-155782500D01*
X177273408Y-155767063D01*
X177501663Y-155705903D01*
X177715830Y-155606035D01*
X177909401Y-155470495D01*
X178076495Y-155303401D01*
X178206425Y-155117842D01*
X178261002Y-155074217D01*
X178330500Y-155067023D01*
X178392855Y-155098546D01*
X178409575Y-155117842D01*
X178539500Y-155303395D01*
X178539505Y-155303401D01*
X178706599Y-155470495D01*
X178796739Y-155533612D01*
X178900165Y-155606032D01*
X178900167Y-155606033D01*
X178900170Y-155606035D01*
X179114337Y-155705903D01*
X179342592Y-155767063D01*
X179519034Y-155782500D01*
X179577999Y-155787659D01*
X179578000Y-155787659D01*
X179578001Y-155787659D01*
X179636966Y-155782500D01*
X179813408Y-155767063D01*
X180041663Y-155705903D01*
X180255830Y-155606035D01*
X180449401Y-155470495D01*
X180616495Y-155303401D01*
X180752035Y-155109830D01*
X180851903Y-154895663D01*
X180913063Y-154667408D01*
X180933659Y-154432000D01*
X180913063Y-154196592D01*
X180851903Y-153968337D01*
X180752035Y-153754171D01*
X180711372Y-153696097D01*
X180616494Y-153560597D01*
X180449402Y-153393506D01*
X180449395Y-153393501D01*
X180447778Y-153392369D01*
X180372518Y-153339671D01*
X180255834Y-153257967D01*
X180255830Y-153257965D01*
X180205743Y-153234609D01*
X180041663Y-153158097D01*
X180041659Y-153158096D01*
X180041655Y-153158094D01*
X179813413Y-153096938D01*
X179813403Y-153096936D01*
X179578001Y-153076341D01*
X179577998Y-153076341D01*
X179435995Y-153088764D01*
X179367495Y-153074997D01*
X179337507Y-153052917D01*
X174302819Y-148018229D01*
X174269334Y-147956906D01*
X174266500Y-147930548D01*
X174266500Y-147607394D01*
X174260483Y-147577147D01*
X174259742Y-147573420D01*
X174255124Y-147550204D01*
X174242463Y-147486548D01*
X174195311Y-147372714D01*
X174189372Y-147363826D01*
X174174626Y-147341756D01*
X174126861Y-147270271D01*
X174126860Y-147270269D01*
X174101066Y-147244475D01*
X174039733Y-147183142D01*
X174039732Y-147183141D01*
X173274927Y-146418337D01*
X173274925Y-146418334D01*
X173274925Y-146418335D01*
X173267858Y-146411268D01*
X173267858Y-146411267D01*
X173180733Y-146324142D01*
X173180732Y-146324141D01*
X173180731Y-146324140D01*
X173129509Y-146289915D01*
X173078287Y-146255689D01*
X173078286Y-146255688D01*
X173078283Y-146255686D01*
X173078280Y-146255685D01*
X172997792Y-146222347D01*
X172964453Y-146208537D01*
X172954427Y-146206543D01*
X172904029Y-146196518D01*
X172843610Y-146184500D01*
X172843607Y-146184500D01*
X172843606Y-146184500D01*
X163185961Y-146184500D01*
X163118922Y-146164815D01*
X163084387Y-146131625D01*
X162987632Y-145993445D01*
X162831055Y-145836868D01*
X162649667Y-145709858D01*
X162585320Y-145679853D01*
X162526408Y-145652382D01*
X162473968Y-145606210D01*
X162454816Y-145539017D01*
X162475031Y-145472136D01*
X162526408Y-145427618D01*
X162649667Y-145370142D01*
X162831055Y-145243132D01*
X162987632Y-145086555D01*
X163114642Y-144905167D01*
X163208223Y-144704480D01*
X163265535Y-144490591D01*
X163284834Y-144270000D01*
X163265535Y-144049409D01*
X163208223Y-143835520D01*
X163114642Y-143634833D01*
X162987632Y-143453445D01*
X162831055Y-143296868D01*
X162649667Y-143169858D01*
X162526407Y-143112381D01*
X162473968Y-143066210D01*
X162454816Y-142999017D01*
X162475031Y-142932136D01*
X162526408Y-142887618D01*
X162533095Y-142884500D01*
X162649667Y-142830142D01*
X162831055Y-142703132D01*
X162987632Y-142546555D01*
X163114642Y-142365167D01*
X163208223Y-142164480D01*
X163265535Y-141950591D01*
X163284834Y-141730000D01*
X163265535Y-141509409D01*
X163208223Y-141295520D01*
X163191984Y-141260696D01*
X163132513Y-141133158D01*
X163114642Y-141094833D01*
X162987632Y-140913445D01*
X162831055Y-140756868D01*
X162649667Y-140629858D01*
X162585320Y-140599853D01*
X162526408Y-140572382D01*
X162473968Y-140526210D01*
X162454816Y-140459017D01*
X162475031Y-140392136D01*
X162526408Y-140347618D01*
X162649667Y-140290142D01*
X162831055Y-140163132D01*
X162987632Y-140006555D01*
X163114642Y-139825167D01*
X163208223Y-139624480D01*
X163265535Y-139410591D01*
X163284834Y-139190000D01*
X163265535Y-138969409D01*
X163208223Y-138755520D01*
X163114642Y-138554833D01*
X162987632Y-138373445D01*
X162831055Y-138216868D01*
X162649667Y-138089858D01*
X162526407Y-138032381D01*
X162473968Y-137986210D01*
X162454816Y-137919017D01*
X162475031Y-137852136D01*
X162526408Y-137807618D01*
X162649667Y-137750142D01*
X162831055Y-137623132D01*
X162987632Y-137466555D01*
X163084387Y-137328374D01*
X163138963Y-137284751D01*
X163185961Y-137275500D01*
X173178854Y-137275500D01*
X173245893Y-137295185D01*
X173266535Y-137311819D01*
X173309691Y-137354975D01*
X173343176Y-137416298D01*
X173345331Y-137429694D01*
X173352792Y-137500685D01*
X173362979Y-137597603D01*
X173362980Y-137597606D01*
X173421471Y-137777624D01*
X173421474Y-137777631D01*
X173516120Y-137941563D01*
X173557811Y-137987865D01*
X173642782Y-138082235D01*
X173795918Y-138193495D01*
X173795923Y-138193498D01*
X173968845Y-138270489D01*
X173968850Y-138270491D01*
X174154007Y-138309847D01*
X174154008Y-138309847D01*
X174343297Y-138309847D01*
X174343299Y-138309847D01*
X174528456Y-138270491D01*
X174701383Y-138193498D01*
X174854524Y-138082235D01*
X174981186Y-137941563D01*
X175075832Y-137777631D01*
X175134327Y-137597603D01*
X175154113Y-137409347D01*
X175134327Y-137221091D01*
X175075832Y-137041063D01*
X174981186Y-136877131D01*
X174854524Y-136736459D01*
X174854523Y-136736458D01*
X174701387Y-136625198D01*
X174701382Y-136625195D01*
X174528460Y-136548204D01*
X174528455Y-136548202D01*
X174382654Y-136517212D01*
X174343299Y-136508847D01*
X174343298Y-136508847D01*
X174284105Y-136508847D01*
X174217066Y-136489162D01*
X174196424Y-136472528D01*
X173979504Y-136255608D01*
X173979484Y-136255586D01*
X173888039Y-136164141D01*
X173836815Y-136129915D01*
X173785593Y-136095689D01*
X173785592Y-136095688D01*
X173785589Y-136095686D01*
X173785586Y-136095685D01*
X173705098Y-136062347D01*
X173671759Y-136048537D01*
X173661733Y-136046543D01*
X173611335Y-136036518D01*
X173550916Y-136024500D01*
X173550913Y-136024500D01*
X173550912Y-136024500D01*
X163185961Y-136024500D01*
X163118922Y-136004815D01*
X163084387Y-135971625D01*
X162987632Y-135833445D01*
X162831055Y-135676868D01*
X162649667Y-135549858D01*
X162526407Y-135492381D01*
X162473968Y-135446210D01*
X162454816Y-135379017D01*
X162475031Y-135312136D01*
X162526408Y-135267618D01*
X162649667Y-135210142D01*
X162831055Y-135083132D01*
X162987632Y-134926555D01*
X163084387Y-134788374D01*
X163138963Y-134744751D01*
X163185961Y-134735500D01*
X171645548Y-134735500D01*
X171712587Y-134755185D01*
X171733229Y-134771819D01*
X171781038Y-134819628D01*
X171814523Y-134880951D01*
X171816678Y-134894347D01*
X171824139Y-134965338D01*
X171834326Y-135062256D01*
X171834327Y-135062259D01*
X171892818Y-135242277D01*
X171892821Y-135242284D01*
X171987467Y-135406216D01*
X172114129Y-135546888D01*
X172267265Y-135658148D01*
X172267270Y-135658151D01*
X172440192Y-135735142D01*
X172440197Y-135735144D01*
X172625354Y-135774500D01*
X172625355Y-135774500D01*
X172814644Y-135774500D01*
X172814646Y-135774500D01*
X172999803Y-135735144D01*
X173172730Y-135658151D01*
X173325871Y-135546888D01*
X173452533Y-135406216D01*
X173547179Y-135242284D01*
X173605674Y-135062256D01*
X173625460Y-134874000D01*
X173605674Y-134685744D01*
X173547179Y-134505716D01*
X173452533Y-134341784D01*
X173325871Y-134201112D01*
X173325870Y-134201111D01*
X173172734Y-134089851D01*
X173172729Y-134089848D01*
X172999807Y-134012857D01*
X172999802Y-134012855D01*
X172854001Y-133981865D01*
X172814646Y-133973500D01*
X172814645Y-133973500D01*
X172755452Y-133973500D01*
X172688413Y-133953815D01*
X172667771Y-133937181D01*
X172446198Y-133715608D01*
X172446178Y-133715586D01*
X172354733Y-133624141D01*
X172303509Y-133589915D01*
X172252287Y-133555689D01*
X172252286Y-133555688D01*
X172252283Y-133555686D01*
X172252280Y-133555685D01*
X172171792Y-133522347D01*
X172138454Y-133508538D01*
X172138455Y-133508538D01*
X172138452Y-133508537D01*
X172138448Y-133508536D01*
X172138444Y-133508535D01*
X172067332Y-133494390D01*
X172067331Y-133494390D01*
X172017611Y-133484500D01*
X172017607Y-133484500D01*
X172017606Y-133484500D01*
X163185961Y-133484500D01*
X163118922Y-133464815D01*
X163084387Y-133431625D01*
X162987632Y-133293445D01*
X162831055Y-133136868D01*
X162649667Y-133009858D01*
X162526407Y-132952381D01*
X162473968Y-132906210D01*
X162454816Y-132839017D01*
X162475031Y-132772136D01*
X162526408Y-132727618D01*
X162649667Y-132670142D01*
X162831055Y-132543132D01*
X162987632Y-132386555D01*
X163114642Y-132205167D01*
X163208223Y-132004480D01*
X163265535Y-131790591D01*
X163284834Y-131570000D01*
X163265535Y-131349409D01*
X163208223Y-131135520D01*
X163114642Y-130934833D01*
X162987632Y-130753445D01*
X162831055Y-130596868D01*
X162649667Y-130469858D01*
X162526407Y-130412381D01*
X162473968Y-130366210D01*
X162454816Y-130299017D01*
X162475031Y-130232136D01*
X162526408Y-130187618D01*
X162533118Y-130184489D01*
X162649667Y-130130142D01*
X162831055Y-130003132D01*
X162987632Y-129846555D01*
X163114642Y-129665167D01*
X163208223Y-129464480D01*
X163265535Y-129250591D01*
X163284834Y-129030000D01*
X163265535Y-128809409D01*
X163208223Y-128595520D01*
X163114642Y-128394833D01*
X162987632Y-128213445D01*
X162831055Y-128056868D01*
X162649667Y-127929858D01*
X162585320Y-127899853D01*
X162526408Y-127872382D01*
X162473968Y-127826210D01*
X162454816Y-127759017D01*
X162475031Y-127692136D01*
X162526408Y-127647618D01*
X162649667Y-127590142D01*
X162831055Y-127463132D01*
X162987632Y-127306555D01*
X163114642Y-127125167D01*
X163208223Y-126924480D01*
X163265535Y-126710591D01*
X163284834Y-126490000D01*
X163265535Y-126269409D01*
X163208223Y-126055520D01*
X163114642Y-125854833D01*
X162987632Y-125673445D01*
X162831055Y-125516868D01*
X162649667Y-125389858D01*
X162526407Y-125332381D01*
X162473968Y-125286210D01*
X162454816Y-125219017D01*
X162475031Y-125152136D01*
X162526408Y-125107618D01*
X162649667Y-125050142D01*
X162831055Y-124923132D01*
X162987632Y-124766555D01*
X163114642Y-124585167D01*
X163208223Y-124384480D01*
X163265535Y-124170591D01*
X163284834Y-123950000D01*
X163277607Y-123867394D01*
X163291374Y-123798894D01*
X163339989Y-123748711D01*
X163408017Y-123732778D01*
X163473861Y-123756153D01*
X163488816Y-123768906D01*
X181264983Y-141545073D01*
X181298468Y-141606396D01*
X181301302Y-141632754D01*
X181301302Y-156344746D01*
X181281617Y-156411785D01*
X181264983Y-156432427D01*
X177794229Y-159903181D01*
X177732906Y-159936666D01*
X177706548Y-159939500D01*
X171171063Y-159939500D01*
X171104024Y-159919815D01*
X171078914Y-159898473D01*
X171039871Y-159855112D01*
X171039864Y-159855106D01*
X170886734Y-159743851D01*
X170886729Y-159743848D01*
X170713807Y-159666857D01*
X170713802Y-159666855D01*
X170548796Y-159631783D01*
X170528646Y-159627500D01*
X170339354Y-159627500D01*
X170319204Y-159631783D01*
X170154197Y-159666855D01*
X170154192Y-159666857D01*
X169981270Y-159743848D01*
X169981265Y-159743851D01*
X169828129Y-159855111D01*
X169701466Y-159995785D01*
X169606821Y-160159715D01*
X169606818Y-160159722D01*
X169565979Y-160285413D01*
X169548326Y-160339744D01*
X169528540Y-160528000D01*
X169548326Y-160716256D01*
X169548327Y-160716259D01*
X169606818Y-160896277D01*
X169606821Y-160896284D01*
X169701467Y-161060216D01*
X169828129Y-161200888D01*
X169981265Y-161312148D01*
X169981270Y-161312151D01*
X170154192Y-161389142D01*
X170154197Y-161389144D01*
X170339354Y-161428500D01*
X170339355Y-161428500D01*
X170528644Y-161428500D01*
X170528646Y-161428500D01*
X170713803Y-161389144D01*
X170886730Y-161312151D01*
X170940614Y-161273002D01*
X171021574Y-161214182D01*
X171087380Y-161190702D01*
X171094459Y-161190500D01*
X178078607Y-161190500D01*
X178139029Y-161178481D01*
X178199452Y-161166463D01*
X178250300Y-161145401D01*
X178313286Y-161119312D01*
X178368659Y-161082312D01*
X178368660Y-161082312D01*
X178401731Y-161060214D01*
X178415733Y-161050858D01*
X178502858Y-160963733D01*
X178502859Y-160963730D01*
X178509925Y-160956665D01*
X178509927Y-160956661D01*
X178740820Y-160725769D01*
X178802142Y-160692285D01*
X178871834Y-160697269D01*
X178927767Y-160739141D01*
X178952184Y-160804605D01*
X178952500Y-160813451D01*
X178952500Y-160979548D01*
X178932815Y-161046587D01*
X178916181Y-161067229D01*
X178614229Y-161369181D01*
X178552906Y-161402666D01*
X178526548Y-161405500D01*
X178467354Y-161405500D01*
X178434897Y-161412398D01*
X178282197Y-161444855D01*
X178282192Y-161444857D01*
X178109270Y-161521848D01*
X178109265Y-161521851D01*
X177956129Y-161633111D01*
X177829466Y-161773785D01*
X177734821Y-161937715D01*
X177734818Y-161937722D01*
X177676327Y-162117740D01*
X177676326Y-162117744D01*
X177656540Y-162306000D01*
X177676326Y-162494256D01*
X177676327Y-162494259D01*
X177734818Y-162674277D01*
X177734821Y-162674284D01*
X177829467Y-162838216D01*
X177876800Y-162890784D01*
X177956129Y-162978888D01*
X178109265Y-163090148D01*
X178109270Y-163090151D01*
X178282192Y-163167142D01*
X178282197Y-163167144D01*
X178467354Y-163206500D01*
X178467355Y-163206500D01*
X178656644Y-163206500D01*
X178656646Y-163206500D01*
X178841803Y-163167144D01*
X179014730Y-163090151D01*
X179167871Y-162978888D01*
X179294533Y-162838216D01*
X179389179Y-162674284D01*
X179447674Y-162494256D01*
X179465321Y-162326345D01*
X179491905Y-162261732D01*
X179500952Y-162251636D01*
X179976729Y-161775860D01*
X179976733Y-161775858D01*
X180063858Y-161688733D01*
X180119473Y-161605500D01*
X180132312Y-161586286D01*
X180165652Y-161505792D01*
X180165653Y-161505791D01*
X180179460Y-161472460D01*
X180179460Y-161472457D01*
X180179463Y-161472452D01*
X180184952Y-161444855D01*
X180192780Y-161405503D01*
X180192780Y-161405500D01*
X180203500Y-161351607D01*
X180203500Y-161228393D01*
X180203500Y-160838451D01*
X180223185Y-160771412D01*
X180239814Y-160750775D01*
X183241729Y-157748860D01*
X183241733Y-157748858D01*
X183328858Y-157661733D01*
X183397311Y-157559286D01*
X183444463Y-157445452D01*
X183453347Y-157400786D01*
X183465383Y-157340283D01*
X183468499Y-157324610D01*
X183468500Y-157324607D01*
X183468500Y-155193999D01*
X189152126Y-155193999D01*
X189152126Y-155194000D01*
X189171976Y-155408228D01*
X189230854Y-155615159D01*
X189230859Y-155615172D01*
X189326750Y-155807746D01*
X189326752Y-155807749D01*
X189326754Y-155807753D01*
X189326757Y-155807757D01*
X189326759Y-155807760D01*
X189360986Y-155853084D01*
X189456408Y-155979444D01*
X189456411Y-155979446D01*
X189456413Y-155979449D01*
X189615401Y-156124385D01*
X189615403Y-156124386D01*
X189615404Y-156124387D01*
X189798325Y-156237647D01*
X189998943Y-156315367D01*
X190210426Y-156354900D01*
X190210428Y-156354900D01*
X190425570Y-156354900D01*
X190425572Y-156354900D01*
X190637055Y-156315367D01*
X190837673Y-156237647D01*
X191002722Y-156135452D01*
X191070082Y-156116897D01*
X191133275Y-156135452D01*
X191298325Y-156237647D01*
X191498943Y-156315367D01*
X191710426Y-156354900D01*
X191710428Y-156354900D01*
X191925570Y-156354900D01*
X191925572Y-156354900D01*
X192137055Y-156315367D01*
X192337673Y-156237647D01*
X192502724Y-156135451D01*
X192570083Y-156116896D01*
X192633275Y-156135451D01*
X192798327Y-156237647D01*
X192998945Y-156315367D01*
X193210428Y-156354900D01*
X193210430Y-156354900D01*
X193425572Y-156354900D01*
X193425574Y-156354900D01*
X193637057Y-156315367D01*
X193837675Y-156237647D01*
X194020596Y-156124387D01*
X194179592Y-155979444D01*
X194309246Y-155807753D01*
X194405145Y-155615162D01*
X194464023Y-155408229D01*
X194483874Y-155194000D01*
X194464023Y-154979771D01*
X194405145Y-154772838D01*
X194385211Y-154732806D01*
X194309249Y-154580253D01*
X194309248Y-154580252D01*
X194309246Y-154580247D01*
X194179592Y-154408556D01*
X194179588Y-154408552D01*
X194179586Y-154408550D01*
X194020598Y-154263614D01*
X193980812Y-154238979D01*
X193837675Y-154150353D01*
X193637057Y-154072633D01*
X193425574Y-154033100D01*
X193210428Y-154033100D01*
X192998945Y-154072633D01*
X192872076Y-154121782D01*
X192798329Y-154150352D01*
X192798323Y-154150354D01*
X192633277Y-154252547D01*
X192565917Y-154271102D01*
X192502723Y-154252547D01*
X192337676Y-154150354D01*
X192337670Y-154150352D01*
X192137055Y-154072633D01*
X191925572Y-154033100D01*
X191710426Y-154033100D01*
X191498943Y-154072633D01*
X191372074Y-154121782D01*
X191298327Y-154150352D01*
X191298321Y-154150354D01*
X191133276Y-154252546D01*
X191065915Y-154271101D01*
X191002722Y-154252546D01*
X190837676Y-154150354D01*
X190837670Y-154150352D01*
X190637055Y-154072633D01*
X190425572Y-154033100D01*
X190210426Y-154033100D01*
X189998943Y-154072633D01*
X189872074Y-154121782D01*
X189798327Y-154150352D01*
X189798326Y-154150352D01*
X189615401Y-154263614D01*
X189456413Y-154408550D01*
X189456406Y-154408558D01*
X189326759Y-154580239D01*
X189326750Y-154580253D01*
X189230859Y-154772827D01*
X189230854Y-154772840D01*
X189171976Y-154979771D01*
X189152126Y-155193999D01*
X183468500Y-155193999D01*
X183468500Y-140617395D01*
X183468500Y-140617394D01*
X183462194Y-140585693D01*
X183444463Y-140496549D01*
X183437179Y-140478965D01*
X183397311Y-140382714D01*
X183397309Y-140382712D01*
X183397309Y-140382710D01*
X183328858Y-140280267D01*
X183328855Y-140280263D01*
X183238637Y-140190045D01*
X183238606Y-140190016D01*
X162949069Y-119900479D01*
X162915584Y-119839156D01*
X162920568Y-119769464D01*
X162949068Y-119725117D01*
X162987632Y-119686555D01*
X163114642Y-119505167D01*
X163114644Y-119505162D01*
X163116339Y-119502742D01*
X163170916Y-119459118D01*
X163240415Y-119451925D01*
X163302769Y-119483447D01*
G37*
%TD.AperFunction*%
%TA.AperFunction,Conductor*%
G36*
X237873039Y-89475685D02*
G01*
X237918794Y-89528489D01*
X237930000Y-89580000D01*
X237930000Y-169332000D01*
X237910315Y-169399039D01*
X237857511Y-169444794D01*
X237806000Y-169456000D01*
X135554000Y-169456000D01*
X135486961Y-169436315D01*
X135441206Y-169383511D01*
X135430000Y-169332000D01*
X135430000Y-166331919D01*
X136932562Y-166331919D01*
X136932562Y-166580081D01*
X136948900Y-166677992D01*
X136973408Y-166824862D01*
X137053984Y-167059572D01*
X137053989Y-167059582D01*
X137172094Y-167277822D01*
X137172100Y-167277831D01*
X137324517Y-167473656D01*
X137324520Y-167473660D01*
X137324522Y-167473662D01*
X137324523Y-167473663D01*
X137507102Y-167641739D01*
X137507104Y-167641740D01*
X137656186Y-167739141D01*
X137714855Y-167777471D01*
X137942116Y-167877157D01*
X138182685Y-167938077D01*
X138265123Y-167944908D01*
X138429994Y-167958571D01*
X138430000Y-167958571D01*
X138430006Y-167958571D01*
X138578389Y-167946274D01*
X138677315Y-167938077D01*
X138917884Y-167877157D01*
X139145145Y-167777471D01*
X139352898Y-167641739D01*
X139535477Y-167473663D01*
X139687902Y-167277828D01*
X139806014Y-167059576D01*
X139886592Y-166824859D01*
X139927438Y-166580081D01*
X139930000Y-166456000D01*
X139927438Y-166331919D01*
X139886592Y-166087141D01*
X139806014Y-165852424D01*
X139748322Y-165745819D01*
X139687905Y-165634177D01*
X139687899Y-165634168D01*
X139535482Y-165438343D01*
X139535479Y-165438339D01*
X139456260Y-165365413D01*
X139352898Y-165270261D01*
X139352895Y-165270259D01*
X139145146Y-165134529D01*
X138917884Y-165034843D01*
X138677311Y-164973922D01*
X138430006Y-164953430D01*
X138429994Y-164953430D01*
X138182688Y-164973922D01*
X137942115Y-165034843D01*
X137714853Y-165134529D01*
X137507104Y-165270259D01*
X137507100Y-165270262D01*
X137324520Y-165438339D01*
X137324517Y-165438343D01*
X137172100Y-165634168D01*
X137172094Y-165634177D01*
X137053989Y-165852417D01*
X137053984Y-165852427D01*
X136973408Y-166087137D01*
X136950337Y-166225396D01*
X136932562Y-166331919D01*
X135430000Y-166331919D01*
X135430000Y-100076000D01*
X137016540Y-100076000D01*
X137036326Y-100264256D01*
X137036327Y-100264259D01*
X137094818Y-100444277D01*
X137094821Y-100444284D01*
X137189467Y-100608216D01*
X137316129Y-100748888D01*
X137469265Y-100860148D01*
X137469270Y-100860151D01*
X137642192Y-100937142D01*
X137642197Y-100937144D01*
X137827354Y-100976500D01*
X137886548Y-100976500D01*
X137953587Y-100996185D01*
X137974229Y-101012819D01*
X138492681Y-101531271D01*
X138526166Y-101592594D01*
X138529000Y-101618952D01*
X138529000Y-102458538D01*
X138509315Y-102525577D01*
X138476124Y-102560112D01*
X138337952Y-102656862D01*
X138337941Y-102656871D01*
X138181368Y-102813444D01*
X138054357Y-102994834D01*
X138054356Y-102994836D01*
X137960779Y-103195513D01*
X137960775Y-103195524D01*
X137903465Y-103409407D01*
X137903464Y-103409414D01*
X137884166Y-103629998D01*
X137884166Y-103630001D01*
X137903464Y-103850585D01*
X137903465Y-103850592D01*
X137960775Y-104064475D01*
X137960779Y-104064486D01*
X138054356Y-104265163D01*
X138054358Y-104265167D01*
X138181368Y-104446555D01*
X138337945Y-104603132D01*
X138519333Y-104730142D01*
X138581328Y-104759050D01*
X138642591Y-104787618D01*
X138695031Y-104833790D01*
X138714183Y-104900983D01*
X138693967Y-104967865D01*
X138642591Y-105012382D01*
X138519336Y-105069856D01*
X138519334Y-105069857D01*
X138337944Y-105196868D01*
X138181368Y-105353444D01*
X138054357Y-105534834D01*
X138054356Y-105534836D01*
X137960779Y-105735513D01*
X137960775Y-105735524D01*
X137903465Y-105949407D01*
X137903464Y-105949414D01*
X137884166Y-106169998D01*
X137884166Y-106170001D01*
X137903464Y-106390585D01*
X137903465Y-106390592D01*
X137960775Y-106604475D01*
X137960779Y-106604486D01*
X138054356Y-106805163D01*
X138054358Y-106805167D01*
X138181368Y-106986555D01*
X138337945Y-107143132D01*
X138519333Y-107270142D01*
X138581328Y-107299050D01*
X138642591Y-107327618D01*
X138695031Y-107373790D01*
X138714183Y-107440983D01*
X138693967Y-107507865D01*
X138642591Y-107552382D01*
X138519336Y-107609856D01*
X138519334Y-107609857D01*
X138337944Y-107736868D01*
X138181368Y-107893444D01*
X138054357Y-108074834D01*
X138054356Y-108074836D01*
X137960779Y-108275513D01*
X137960775Y-108275524D01*
X137903465Y-108489407D01*
X137903464Y-108489414D01*
X137884166Y-108709998D01*
X137884166Y-108710001D01*
X137903464Y-108930585D01*
X137903465Y-108930592D01*
X137960775Y-109144475D01*
X137960779Y-109144486D01*
X138054356Y-109345163D01*
X138054358Y-109345167D01*
X138181368Y-109526555D01*
X138337945Y-109683132D01*
X138519333Y-109810142D01*
X138581328Y-109839050D01*
X138642591Y-109867618D01*
X138695031Y-109913790D01*
X138714183Y-109980983D01*
X138693967Y-110047865D01*
X138642591Y-110092382D01*
X138519336Y-110149856D01*
X138519334Y-110149857D01*
X138337944Y-110276868D01*
X138181368Y-110433444D01*
X138054357Y-110614834D01*
X138054356Y-110614836D01*
X137960779Y-110815513D01*
X137960775Y-110815524D01*
X137903465Y-111029407D01*
X137903464Y-111029414D01*
X137884166Y-111249998D01*
X137884166Y-111250001D01*
X137903464Y-111470585D01*
X137903465Y-111470592D01*
X137960775Y-111684475D01*
X137960779Y-111684486D01*
X137990163Y-111747500D01*
X138054358Y-111885167D01*
X138181368Y-112066555D01*
X138337945Y-112223132D01*
X138519333Y-112350142D01*
X138581328Y-112379050D01*
X138642591Y-112407618D01*
X138695031Y-112453790D01*
X138714183Y-112520983D01*
X138693967Y-112587865D01*
X138642591Y-112632382D01*
X138519336Y-112689856D01*
X138519334Y-112689857D01*
X138337944Y-112816868D01*
X138181368Y-112973444D01*
X138054357Y-113154834D01*
X138054356Y-113154836D01*
X137960779Y-113355513D01*
X137960775Y-113355524D01*
X137903465Y-113569407D01*
X137903464Y-113569414D01*
X137884166Y-113789998D01*
X137884166Y-113790001D01*
X137903464Y-114010585D01*
X137903465Y-114010592D01*
X137960775Y-114224475D01*
X137960779Y-114224486D01*
X138039891Y-114394142D01*
X138054358Y-114425167D01*
X138181368Y-114606555D01*
X138337945Y-114763132D01*
X138519333Y-114890142D01*
X138581328Y-114919050D01*
X138642591Y-114947618D01*
X138695031Y-114993790D01*
X138714183Y-115060983D01*
X138693967Y-115127865D01*
X138642591Y-115172382D01*
X138519336Y-115229856D01*
X138519334Y-115229857D01*
X138337944Y-115356868D01*
X138181368Y-115513444D01*
X138054357Y-115694834D01*
X138054356Y-115694836D01*
X137960779Y-115895513D01*
X137960775Y-115895524D01*
X137903465Y-116109407D01*
X137903464Y-116109414D01*
X137884166Y-116329998D01*
X137884166Y-116330001D01*
X137903464Y-116550585D01*
X137903465Y-116550592D01*
X137960775Y-116764475D01*
X137960779Y-116764486D01*
X138042223Y-116939144D01*
X138054358Y-116965167D01*
X138181368Y-117146555D01*
X138337945Y-117303132D01*
X138519333Y-117430142D01*
X138581328Y-117459050D01*
X138642591Y-117487618D01*
X138695031Y-117533790D01*
X138714183Y-117600983D01*
X138693967Y-117667865D01*
X138642591Y-117712382D01*
X138519336Y-117769856D01*
X138519334Y-117769857D01*
X138337944Y-117896868D01*
X138181368Y-118053444D01*
X138054357Y-118234834D01*
X138054356Y-118234836D01*
X137960779Y-118435513D01*
X137960775Y-118435524D01*
X137903465Y-118649407D01*
X137903464Y-118649414D01*
X137884166Y-118869998D01*
X137884166Y-118870001D01*
X137903464Y-119090585D01*
X137903465Y-119090592D01*
X137960775Y-119304475D01*
X137960779Y-119304486D01*
X138053227Y-119502742D01*
X138054358Y-119505167D01*
X138181368Y-119686555D01*
X138337945Y-119843132D01*
X138519333Y-119970142D01*
X138581328Y-119999050D01*
X138642591Y-120027618D01*
X138695031Y-120073790D01*
X138714183Y-120140983D01*
X138693967Y-120207865D01*
X138642591Y-120252382D01*
X138519336Y-120309856D01*
X138519334Y-120309857D01*
X138337944Y-120436868D01*
X138181368Y-120593444D01*
X138054357Y-120774834D01*
X138054356Y-120774836D01*
X137960779Y-120975513D01*
X137960775Y-120975524D01*
X137903465Y-121189407D01*
X137903464Y-121189414D01*
X137884166Y-121409998D01*
X137884166Y-121410001D01*
X137903464Y-121630585D01*
X137903465Y-121630592D01*
X137960775Y-121844475D01*
X137960779Y-121844486D01*
X138049280Y-122034277D01*
X138054358Y-122045167D01*
X138181368Y-122226555D01*
X138337945Y-122383132D01*
X138519333Y-122510142D01*
X138581328Y-122539050D01*
X138642591Y-122567618D01*
X138695031Y-122613790D01*
X138714183Y-122680983D01*
X138693967Y-122747865D01*
X138642591Y-122792382D01*
X138519336Y-122849856D01*
X138519334Y-122849857D01*
X138337944Y-122976868D01*
X138181368Y-123133444D01*
X138054357Y-123314834D01*
X138054356Y-123314836D01*
X137960779Y-123515513D01*
X137960775Y-123515524D01*
X137903465Y-123729407D01*
X137903464Y-123729414D01*
X137884166Y-123949998D01*
X137884166Y-123950001D01*
X137903464Y-124170585D01*
X137903465Y-124170592D01*
X137960775Y-124384475D01*
X137960779Y-124384486D01*
X138054356Y-124585163D01*
X138054358Y-124585167D01*
X138181368Y-124766555D01*
X138337945Y-124923132D01*
X138519333Y-125050142D01*
X138581328Y-125079050D01*
X138642591Y-125107618D01*
X138695031Y-125153790D01*
X138714183Y-125220983D01*
X138693967Y-125287865D01*
X138642591Y-125332382D01*
X138519336Y-125389856D01*
X138519334Y-125389857D01*
X138337944Y-125516868D01*
X138181368Y-125673444D01*
X138054357Y-125854834D01*
X138054356Y-125854836D01*
X137960779Y-126055513D01*
X137960775Y-126055524D01*
X137903465Y-126269407D01*
X137903464Y-126269414D01*
X137884166Y-126489998D01*
X137884166Y-126490001D01*
X137903464Y-126710585D01*
X137903465Y-126710592D01*
X137960775Y-126924475D01*
X137960779Y-126924486D01*
X138054356Y-127125163D01*
X138054358Y-127125167D01*
X138181368Y-127306555D01*
X138337945Y-127463132D01*
X138519333Y-127590142D01*
X138526775Y-127593612D01*
X138642591Y-127647618D01*
X138695031Y-127693790D01*
X138714183Y-127760983D01*
X138693967Y-127827865D01*
X138642591Y-127872382D01*
X138519336Y-127929856D01*
X138519334Y-127929857D01*
X138337944Y-128056868D01*
X138181368Y-128213444D01*
X138054357Y-128394834D01*
X138054356Y-128394836D01*
X137960779Y-128595513D01*
X137960775Y-128595524D01*
X137903465Y-128809407D01*
X137903464Y-128809414D01*
X137884166Y-129029998D01*
X137884166Y-129030001D01*
X137903464Y-129250585D01*
X137903465Y-129250592D01*
X137960775Y-129464475D01*
X137960779Y-129464486D01*
X138054356Y-129665163D01*
X138054358Y-129665167D01*
X138181368Y-129846555D01*
X138337945Y-130003132D01*
X138519333Y-130130142D01*
X138581328Y-130159050D01*
X138642591Y-130187618D01*
X138695031Y-130233790D01*
X138714183Y-130300983D01*
X138693967Y-130367865D01*
X138642591Y-130412382D01*
X138519336Y-130469856D01*
X138519334Y-130469857D01*
X138337944Y-130596868D01*
X138181368Y-130753444D01*
X138054357Y-130934834D01*
X138054356Y-130934836D01*
X137960779Y-131135513D01*
X137960775Y-131135524D01*
X137903465Y-131349407D01*
X137903464Y-131349414D01*
X137884166Y-131569998D01*
X137884166Y-131570001D01*
X137903464Y-131790585D01*
X137903465Y-131790592D01*
X137960775Y-132004475D01*
X137960779Y-132004486D01*
X138054356Y-132205163D01*
X138054358Y-132205167D01*
X138181368Y-132386555D01*
X138337945Y-132543132D01*
X138519333Y-132670142D01*
X138581328Y-132699050D01*
X138642591Y-132727618D01*
X138695031Y-132773790D01*
X138714183Y-132840983D01*
X138693967Y-132907865D01*
X138642591Y-132952382D01*
X138519336Y-133009856D01*
X138519334Y-133009857D01*
X138337944Y-133136868D01*
X138181368Y-133293444D01*
X138054357Y-133474834D01*
X138054356Y-133474836D01*
X137960779Y-133675513D01*
X137960775Y-133675524D01*
X137903465Y-133889407D01*
X137903464Y-133889414D01*
X137884166Y-134109998D01*
X137884166Y-134110001D01*
X137903464Y-134330585D01*
X137903465Y-134330592D01*
X137960775Y-134544475D01*
X137960779Y-134544486D01*
X138026647Y-134685740D01*
X138054358Y-134745167D01*
X138181368Y-134926555D01*
X138337945Y-135083132D01*
X138519333Y-135210142D01*
X138581328Y-135239050D01*
X138642591Y-135267618D01*
X138695031Y-135313790D01*
X138714183Y-135380983D01*
X138693967Y-135447865D01*
X138642591Y-135492382D01*
X138519336Y-135549856D01*
X138519334Y-135549857D01*
X138337944Y-135676868D01*
X138181368Y-135833444D01*
X138054357Y-136014834D01*
X138054356Y-136014836D01*
X137960779Y-136215513D01*
X137960775Y-136215524D01*
X137903465Y-136429407D01*
X137903464Y-136429414D01*
X137884166Y-136649998D01*
X137884166Y-136650001D01*
X137903464Y-136870585D01*
X137903465Y-136870592D01*
X137960775Y-137084475D01*
X137960779Y-137084486D01*
X138024477Y-137221087D01*
X138054358Y-137285167D01*
X138181368Y-137466555D01*
X138337945Y-137623132D01*
X138519333Y-137750142D01*
X138578269Y-137777624D01*
X138642591Y-137807618D01*
X138695031Y-137853790D01*
X138714183Y-137920983D01*
X138693967Y-137987865D01*
X138642591Y-138032382D01*
X138519336Y-138089856D01*
X138519334Y-138089857D01*
X138337944Y-138216868D01*
X138181368Y-138373444D01*
X138054357Y-138554834D01*
X138054356Y-138554836D01*
X137960779Y-138755513D01*
X137960775Y-138755524D01*
X137903465Y-138969407D01*
X137903464Y-138969414D01*
X137884166Y-139189998D01*
X137884166Y-139190001D01*
X137903464Y-139410585D01*
X137903465Y-139410592D01*
X137960775Y-139624475D01*
X137960779Y-139624486D01*
X137995992Y-139700000D01*
X138054358Y-139825167D01*
X138181368Y-140006555D01*
X138337945Y-140163132D01*
X138519333Y-140290142D01*
X138526775Y-140293612D01*
X138642591Y-140347618D01*
X138695031Y-140393790D01*
X138714183Y-140460983D01*
X138693967Y-140527865D01*
X138642591Y-140572382D01*
X138519336Y-140629856D01*
X138519334Y-140629857D01*
X138337944Y-140756868D01*
X138181368Y-140913444D01*
X138054357Y-141094834D01*
X138054356Y-141094836D01*
X137960779Y-141295513D01*
X137960775Y-141295524D01*
X137903465Y-141509407D01*
X137903464Y-141509414D01*
X137884166Y-141729998D01*
X137884166Y-141730001D01*
X137903464Y-141950585D01*
X137903465Y-141950592D01*
X137960775Y-142164475D01*
X137960779Y-142164486D01*
X138054356Y-142365163D01*
X138054358Y-142365167D01*
X138181368Y-142546555D01*
X138337945Y-142703132D01*
X138519333Y-142830142D01*
X138581328Y-142859050D01*
X138642591Y-142887618D01*
X138695031Y-142933790D01*
X138714183Y-143000983D01*
X138693967Y-143067865D01*
X138642591Y-143112382D01*
X138519336Y-143169856D01*
X138519334Y-143169857D01*
X138337944Y-143296868D01*
X138181368Y-143453444D01*
X138054357Y-143634834D01*
X138054356Y-143634836D01*
X137960779Y-143835513D01*
X137960775Y-143835524D01*
X137903465Y-144049407D01*
X137903464Y-144049414D01*
X137884166Y-144269998D01*
X137884166Y-144270001D01*
X137903464Y-144490585D01*
X137903465Y-144490592D01*
X137960775Y-144704475D01*
X137960779Y-144704486D01*
X137995992Y-144780000D01*
X138054358Y-144905167D01*
X138181368Y-145086555D01*
X138337945Y-145243132D01*
X138519333Y-145370142D01*
X138526775Y-145373612D01*
X138642591Y-145427618D01*
X138695031Y-145473790D01*
X138714183Y-145540983D01*
X138693967Y-145607865D01*
X138642591Y-145652382D01*
X138519336Y-145709856D01*
X138519334Y-145709857D01*
X138337944Y-145836868D01*
X138181368Y-145993444D01*
X138054357Y-146174834D01*
X138054356Y-146174836D01*
X137960779Y-146375513D01*
X137960775Y-146375524D01*
X137903465Y-146589407D01*
X137903464Y-146589414D01*
X137884166Y-146809998D01*
X137884166Y-146810001D01*
X137903464Y-147030585D01*
X137903465Y-147030592D01*
X137960775Y-147244475D01*
X137960779Y-147244486D01*
X138020573Y-147372714D01*
X138054358Y-147445167D01*
X138181368Y-147626555D01*
X138337945Y-147783132D01*
X138519333Y-147910142D01*
X138526775Y-147913612D01*
X138642591Y-147967618D01*
X138695031Y-148013790D01*
X138714183Y-148080983D01*
X138693967Y-148147865D01*
X138642591Y-148192382D01*
X138519336Y-148249856D01*
X138519334Y-148249857D01*
X138337944Y-148376868D01*
X138181368Y-148533444D01*
X138054357Y-148714834D01*
X138054356Y-148714836D01*
X137960779Y-148915513D01*
X137960775Y-148915524D01*
X137903465Y-149129407D01*
X137903464Y-149129414D01*
X137884166Y-149349998D01*
X137884166Y-149350001D01*
X137903464Y-149570585D01*
X137903465Y-149570592D01*
X137960775Y-149784475D01*
X137960779Y-149784486D01*
X138031587Y-149936335D01*
X138054358Y-149985167D01*
X138181368Y-150166555D01*
X138337945Y-150323132D01*
X138519333Y-150450142D01*
X138574546Y-150475888D01*
X138642591Y-150507618D01*
X138695031Y-150553790D01*
X138714183Y-150620983D01*
X138693967Y-150687865D01*
X138642591Y-150732382D01*
X138519336Y-150789856D01*
X138519334Y-150789857D01*
X138337944Y-150916868D01*
X138181368Y-151073444D01*
X138054357Y-151254834D01*
X138054356Y-151254836D01*
X137960779Y-151455513D01*
X137960775Y-151455524D01*
X137903465Y-151669407D01*
X137903464Y-151669414D01*
X137884166Y-151889998D01*
X137884166Y-151890001D01*
X137903464Y-152110585D01*
X137903465Y-152110592D01*
X137960775Y-152324475D01*
X137960779Y-152324486D01*
X138054356Y-152525163D01*
X138054358Y-152525167D01*
X138181368Y-152706555D01*
X138337945Y-152863132D01*
X138519333Y-152990142D01*
X138581328Y-153019050D01*
X138642591Y-153047618D01*
X138695031Y-153093790D01*
X138714183Y-153160983D01*
X138693967Y-153227865D01*
X138642591Y-153272382D01*
X138519336Y-153329856D01*
X138519334Y-153329857D01*
X138337944Y-153456868D01*
X138181368Y-153613444D01*
X138054357Y-153794834D01*
X138054356Y-153794836D01*
X137960779Y-153995513D01*
X137960775Y-153995524D01*
X137903465Y-154209407D01*
X137903464Y-154209414D01*
X137884166Y-154429998D01*
X137884166Y-154430001D01*
X137903464Y-154650585D01*
X137903465Y-154650592D01*
X137960775Y-154864475D01*
X137960779Y-154864486D01*
X138054356Y-155065163D01*
X138054358Y-155065167D01*
X138181368Y-155246555D01*
X138337945Y-155403132D01*
X138519333Y-155530142D01*
X138526775Y-155533612D01*
X138642591Y-155587618D01*
X138695031Y-155633790D01*
X138714183Y-155700983D01*
X138693967Y-155767865D01*
X138642591Y-155812382D01*
X138519336Y-155869856D01*
X138519334Y-155869857D01*
X138337944Y-155996868D01*
X138181368Y-156153444D01*
X138054357Y-156334834D01*
X138054356Y-156334836D01*
X137960779Y-156535513D01*
X137960775Y-156535524D01*
X137903465Y-156749407D01*
X137903464Y-156749414D01*
X137884166Y-156969998D01*
X137884166Y-156970001D01*
X137903464Y-157190585D01*
X137903465Y-157190592D01*
X137960775Y-157404475D01*
X137960779Y-157404486D01*
X138032966Y-157559292D01*
X138054358Y-157605167D01*
X138181368Y-157786555D01*
X138337945Y-157943132D01*
X138519333Y-158070142D01*
X138640072Y-158126443D01*
X138720013Y-158163720D01*
X138720015Y-158163720D01*
X138720020Y-158163723D01*
X138933909Y-158221035D01*
X139091474Y-158234820D01*
X139154498Y-158240334D01*
X139154500Y-158240334D01*
X139154502Y-158240334D01*
X139209647Y-158235509D01*
X139375091Y-158221035D01*
X139588980Y-158163723D01*
X139789667Y-158070142D01*
X139971055Y-157943132D01*
X140127632Y-157786555D01*
X140254642Y-157605167D01*
X140348223Y-157404480D01*
X140405535Y-157190591D01*
X140424659Y-156972000D01*
X150224540Y-156972000D01*
X150244326Y-157160256D01*
X150244327Y-157160259D01*
X150302818Y-157340277D01*
X150302820Y-157340281D01*
X150302821Y-157340284D01*
X150397467Y-157504216D01*
X150431133Y-157541605D01*
X150472650Y-157587715D01*
X150502880Y-157650706D01*
X150504500Y-157670687D01*
X150504500Y-162884911D01*
X150505667Y-162890779D01*
X150505667Y-162890784D01*
X150528534Y-163005746D01*
X150528536Y-163005753D01*
X150528537Y-163005757D01*
X150531948Y-163013991D01*
X150548381Y-163053664D01*
X150575688Y-163119591D01*
X150575688Y-163119592D01*
X150591519Y-163143284D01*
X150607462Y-163167142D01*
X150607463Y-163167145D01*
X150644138Y-163222033D01*
X150644144Y-163222041D01*
X150735586Y-163313483D01*
X150735608Y-163313503D01*
X156182711Y-168760606D01*
X156182740Y-168760637D01*
X156272958Y-168850855D01*
X156272962Y-168850858D01*
X156375402Y-168919307D01*
X156375406Y-168919309D01*
X156375409Y-168919311D01*
X156489243Y-168966463D01*
X156549666Y-168978481D01*
X156610088Y-168990500D01*
X210229084Y-168990500D01*
X210289506Y-168978481D01*
X210349929Y-168966463D01*
X210349932Y-168966461D01*
X210349935Y-168966461D01*
X210383264Y-168952654D01*
X210383263Y-168952654D01*
X210383269Y-168952652D01*
X210463763Y-168919312D01*
X210514986Y-168885084D01*
X210566210Y-168850858D01*
X210653335Y-168763733D01*
X210653336Y-168763731D01*
X210660402Y-168756665D01*
X210660405Y-168756661D01*
X215606029Y-163811037D01*
X215606033Y-163811035D01*
X215693158Y-163723910D01*
X215739011Y-163655286D01*
X215761612Y-163621463D01*
X215808763Y-163507628D01*
X215808949Y-163506696D01*
X215817958Y-163461402D01*
X215827961Y-163411114D01*
X215832800Y-163386784D01*
X215832800Y-154969999D01*
X218374341Y-154969999D01*
X218374341Y-154970000D01*
X218394936Y-155205403D01*
X218394938Y-155205413D01*
X218456094Y-155433655D01*
X218456096Y-155433659D01*
X218456097Y-155433663D01*
X218502703Y-155533610D01*
X218555965Y-155647830D01*
X218555967Y-155647834D01*
X218639453Y-155767063D01*
X218690420Y-155839852D01*
X218691501Y-155841395D01*
X218691506Y-155841402D01*
X218858597Y-156008493D01*
X218858603Y-156008498D01*
X219044158Y-156138425D01*
X219087783Y-156193002D01*
X219094977Y-156262500D01*
X219063454Y-156324855D01*
X219044158Y-156341575D01*
X218858597Y-156471505D01*
X218691505Y-156638597D01*
X218555965Y-156832169D01*
X218555964Y-156832171D01*
X218456098Y-157046335D01*
X218456094Y-157046344D01*
X218394938Y-157274586D01*
X218394936Y-157274596D01*
X218374341Y-157509999D01*
X218374341Y-157510000D01*
X218394936Y-157745403D01*
X218394938Y-157745413D01*
X218456094Y-157973655D01*
X218456096Y-157973659D01*
X218456097Y-157973663D01*
X218516071Y-158102277D01*
X218555965Y-158187830D01*
X218555967Y-158187834D01*
X218664281Y-158342521D01*
X218691501Y-158381396D01*
X218691506Y-158381402D01*
X218858597Y-158548493D01*
X218858603Y-158548498D01*
X219044158Y-158678425D01*
X219087783Y-158733002D01*
X219094977Y-158802500D01*
X219063454Y-158864855D01*
X219044158Y-158881575D01*
X218858597Y-159011505D01*
X218691505Y-159178597D01*
X218555965Y-159372169D01*
X218555964Y-159372171D01*
X218456098Y-159586335D01*
X218456094Y-159586344D01*
X218394938Y-159814586D01*
X218394936Y-159814596D01*
X218374341Y-160049999D01*
X218374341Y-160050000D01*
X218394936Y-160285403D01*
X218394938Y-160285413D01*
X218456094Y-160513655D01*
X218456096Y-160513659D01*
X218456097Y-160513663D01*
X218536004Y-160685023D01*
X218555965Y-160727830D01*
X218555967Y-160727834D01*
X218633423Y-160838451D01*
X218691501Y-160921396D01*
X218691506Y-160921402D01*
X218858597Y-161088493D01*
X218858603Y-161088498D01*
X219044158Y-161218425D01*
X219087783Y-161273002D01*
X219094977Y-161342500D01*
X219063454Y-161404855D01*
X219044158Y-161421575D01*
X218858597Y-161551505D01*
X218691505Y-161718597D01*
X218555965Y-161912169D01*
X218555964Y-161912171D01*
X218456098Y-162126335D01*
X218456094Y-162126344D01*
X218394938Y-162354586D01*
X218394936Y-162354596D01*
X218374341Y-162589999D01*
X218374341Y-162590000D01*
X218394936Y-162825403D01*
X218394938Y-162825413D01*
X218456094Y-163053655D01*
X218456096Y-163053659D01*
X218456097Y-163053663D01*
X218544078Y-163242338D01*
X218555965Y-163267830D01*
X218555967Y-163267834D01*
X218639783Y-163387534D01*
X218691501Y-163461396D01*
X218691506Y-163461402D01*
X218858597Y-163628493D01*
X218858603Y-163628498D01*
X219044158Y-163758425D01*
X219087783Y-163813002D01*
X219094977Y-163882500D01*
X219063454Y-163944855D01*
X219044158Y-163961575D01*
X218858597Y-164091505D01*
X218691505Y-164258597D01*
X218555965Y-164452169D01*
X218555964Y-164452171D01*
X218456098Y-164666335D01*
X218456094Y-164666344D01*
X218394938Y-164894586D01*
X218394936Y-164894596D01*
X218374341Y-165129999D01*
X218374341Y-165130000D01*
X218394936Y-165365403D01*
X218394938Y-165365413D01*
X218456094Y-165593655D01*
X218456096Y-165593659D01*
X218456097Y-165593663D01*
X218474985Y-165634168D01*
X218555965Y-165807830D01*
X218555967Y-165807834D01*
X218587185Y-165852417D01*
X218691505Y-166001401D01*
X218858599Y-166168495D01*
X218922573Y-166213290D01*
X219052165Y-166304032D01*
X219052167Y-166304033D01*
X219052170Y-166304035D01*
X219266337Y-166403903D01*
X219494592Y-166465063D01*
X219682918Y-166481539D01*
X219729999Y-166485659D01*
X219730000Y-166485659D01*
X219730001Y-166485659D01*
X219769234Y-166482226D01*
X219965408Y-166465063D01*
X220193663Y-166403903D01*
X220407830Y-166304035D01*
X220601401Y-166168495D01*
X220768495Y-166001401D01*
X220897150Y-165817663D01*
X220898425Y-165815842D01*
X220953002Y-165772217D01*
X221022500Y-165765023D01*
X221084855Y-165796546D01*
X221101575Y-165815842D01*
X221231500Y-166001395D01*
X221231505Y-166001401D01*
X221398599Y-166168495D01*
X221462573Y-166213290D01*
X221592165Y-166304032D01*
X221592167Y-166304033D01*
X221592170Y-166304035D01*
X221806337Y-166403903D01*
X222034592Y-166465063D01*
X222222918Y-166481539D01*
X222269999Y-166485659D01*
X222270000Y-166485659D01*
X222270001Y-166485659D01*
X222309234Y-166482226D01*
X222505408Y-166465063D01*
X222733663Y-166403903D01*
X222947830Y-166304035D01*
X223141401Y-166168495D01*
X223308495Y-166001401D01*
X223444035Y-165807830D01*
X223543903Y-165593663D01*
X223605063Y-165365408D01*
X223625659Y-165130000D01*
X223605063Y-164894592D01*
X223546538Y-164676171D01*
X223543905Y-164666344D01*
X223543904Y-164666343D01*
X223543903Y-164666337D01*
X223444035Y-164452171D01*
X223438425Y-164444158D01*
X223308494Y-164258597D01*
X223141402Y-164091506D01*
X223141396Y-164091501D01*
X222955842Y-163961575D01*
X222912217Y-163906998D01*
X222905023Y-163837500D01*
X222936546Y-163775145D01*
X222955842Y-163758425D01*
X223016828Y-163715722D01*
X223141401Y-163628495D01*
X223308495Y-163461401D01*
X223444035Y-163267830D01*
X223543903Y-163053663D01*
X223605063Y-162825408D01*
X223625659Y-162590000D01*
X223605063Y-162354592D01*
X223546538Y-162136171D01*
X223543905Y-162126344D01*
X223543904Y-162126343D01*
X223543903Y-162126337D01*
X223444035Y-161912171D01*
X223438425Y-161904158D01*
X223308494Y-161718597D01*
X223141402Y-161551506D01*
X223141396Y-161551501D01*
X222955842Y-161421575D01*
X222912217Y-161366998D01*
X222905023Y-161297500D01*
X222936546Y-161235145D01*
X222955842Y-161218425D01*
X223030051Y-161166463D01*
X223141401Y-161088495D01*
X223308495Y-160921401D01*
X223444035Y-160727830D01*
X223543903Y-160513663D01*
X223605063Y-160285408D01*
X223625659Y-160050000D01*
X223605063Y-159814592D01*
X223546538Y-159596171D01*
X223543905Y-159586344D01*
X223543904Y-159586343D01*
X223543903Y-159586337D01*
X223444035Y-159372171D01*
X223438425Y-159364158D01*
X223308494Y-159178597D01*
X223141402Y-159011506D01*
X223141396Y-159011501D01*
X222955842Y-158881575D01*
X222912217Y-158826998D01*
X222905023Y-158757500D01*
X222936546Y-158695145D01*
X222955842Y-158678425D01*
X223060139Y-158605395D01*
X223141401Y-158548495D01*
X223308495Y-158381401D01*
X223444035Y-158187830D01*
X223543903Y-157973663D01*
X223605063Y-157745408D01*
X223625659Y-157510000D01*
X223605063Y-157274592D01*
X223546538Y-157056171D01*
X223543905Y-157046344D01*
X223543904Y-157046343D01*
X223543903Y-157046337D01*
X223444035Y-156832171D01*
X223438424Y-156824158D01*
X223308496Y-156638600D01*
X223248577Y-156578681D01*
X223186567Y-156516671D01*
X223153084Y-156455351D01*
X223158068Y-156385659D01*
X223199939Y-156329725D01*
X223230915Y-156312810D01*
X223362331Y-156263796D01*
X223477546Y-156177546D01*
X223563796Y-156062331D01*
X223614091Y-155927483D01*
X223620500Y-155867873D01*
X223620500Y-155193999D01*
X225974341Y-155193999D01*
X225974341Y-155194000D01*
X225994936Y-155429403D01*
X225994938Y-155429413D01*
X226056094Y-155657655D01*
X226056096Y-155657659D01*
X226056097Y-155657663D01*
X226138137Y-155833598D01*
X226155965Y-155871830D01*
X226155967Y-155871834D01*
X226251659Y-156008495D01*
X226289355Y-156062331D01*
X226291501Y-156065395D01*
X226291506Y-156065402D01*
X226458597Y-156232493D01*
X226458603Y-156232498D01*
X226644158Y-156362425D01*
X226687783Y-156417002D01*
X226694977Y-156486500D01*
X226663454Y-156548855D01*
X226644158Y-156565575D01*
X226458597Y-156695505D01*
X226291505Y-156862597D01*
X226155965Y-157056169D01*
X226155964Y-157056171D01*
X226056098Y-157270335D01*
X226056094Y-157270344D01*
X225994938Y-157498586D01*
X225994936Y-157498596D01*
X225974341Y-157733999D01*
X225974341Y-157734000D01*
X225994936Y-157969403D01*
X225994938Y-157969413D01*
X226056094Y-158197655D01*
X226056096Y-158197659D01*
X226056097Y-158197663D01*
X226150703Y-158400546D01*
X226155965Y-158411830D01*
X226155967Y-158411834D01*
X226251659Y-158548495D01*
X226291501Y-158605396D01*
X226291506Y-158605402D01*
X226458597Y-158772493D01*
X226458603Y-158772498D01*
X226644158Y-158902425D01*
X226687783Y-158957002D01*
X226694977Y-159026500D01*
X226663454Y-159088855D01*
X226644158Y-159105575D01*
X226458597Y-159235505D01*
X226291505Y-159402597D01*
X226155965Y-159596169D01*
X226155964Y-159596171D01*
X226056098Y-159810335D01*
X226056094Y-159810344D01*
X225994938Y-160038586D01*
X225994936Y-160038596D01*
X225974341Y-160273999D01*
X225974341Y-160274000D01*
X225994936Y-160509403D01*
X225994938Y-160509413D01*
X226056094Y-160737655D01*
X226056096Y-160737659D01*
X226056097Y-160737663D01*
X226136004Y-160909023D01*
X226155965Y-160951830D01*
X226155967Y-160951834D01*
X226251659Y-161088495D01*
X226291504Y-161145399D01*
X226291505Y-161145401D01*
X226458597Y-161312493D01*
X226458603Y-161312498D01*
X226644158Y-161442425D01*
X226687783Y-161497002D01*
X226694977Y-161566500D01*
X226663454Y-161628855D01*
X226644158Y-161645575D01*
X226458597Y-161775505D01*
X226291505Y-161942597D01*
X226155965Y-162136169D01*
X226155964Y-162136171D01*
X226056098Y-162350335D01*
X226056094Y-162350344D01*
X225994938Y-162578586D01*
X225994936Y-162578596D01*
X225974341Y-162813999D01*
X225974341Y-162814000D01*
X225994936Y-163049403D01*
X225994938Y-163049413D01*
X226056094Y-163277655D01*
X226056096Y-163277659D01*
X226056097Y-163277663D01*
X226155965Y-163491830D01*
X226291501Y-163685396D01*
X226291506Y-163685402D01*
X226458597Y-163852493D01*
X226458603Y-163852498D01*
X226644158Y-163982425D01*
X226687783Y-164037002D01*
X226694977Y-164106500D01*
X226663454Y-164168855D01*
X226644158Y-164185575D01*
X226458597Y-164315505D01*
X226291505Y-164482597D01*
X226155965Y-164676169D01*
X226155964Y-164676171D01*
X226094025Y-164809000D01*
X226057669Y-164886967D01*
X226056098Y-164890335D01*
X226056094Y-164890344D01*
X225994938Y-165118586D01*
X225994936Y-165118596D01*
X225974341Y-165353999D01*
X225974341Y-165354000D01*
X225994936Y-165589403D01*
X225994938Y-165589413D01*
X226056094Y-165817655D01*
X226056096Y-165817659D01*
X226056097Y-165817663D01*
X226072308Y-165852427D01*
X226155965Y-166031830D01*
X226155967Y-166031834D01*
X226251659Y-166168495D01*
X226291505Y-166225401D01*
X226458599Y-166392495D01*
X226520359Y-166435740D01*
X226652165Y-166528032D01*
X226652167Y-166528033D01*
X226652170Y-166528035D01*
X226866337Y-166627903D01*
X227094592Y-166689063D01*
X227282918Y-166705539D01*
X227329999Y-166709659D01*
X227330000Y-166709659D01*
X227330001Y-166709659D01*
X227369234Y-166706226D01*
X227565408Y-166689063D01*
X227793663Y-166627903D01*
X228007830Y-166528035D01*
X228201401Y-166392495D01*
X228368495Y-166225401D01*
X228498425Y-166039842D01*
X228553002Y-165996217D01*
X228622500Y-165989023D01*
X228684855Y-166020546D01*
X228701575Y-166039842D01*
X228831500Y-166225395D01*
X228831505Y-166225401D01*
X228998599Y-166392495D01*
X229060359Y-166435740D01*
X229192165Y-166528032D01*
X229192167Y-166528033D01*
X229192170Y-166528035D01*
X229406337Y-166627903D01*
X229634592Y-166689063D01*
X229822918Y-166705539D01*
X229869999Y-166709659D01*
X229870000Y-166709659D01*
X229870001Y-166709659D01*
X229909234Y-166706226D01*
X230105408Y-166689063D01*
X230333663Y-166627903D01*
X230547830Y-166528035D01*
X230741401Y-166392495D01*
X230801977Y-166331919D01*
X233432562Y-166331919D01*
X233432562Y-166580081D01*
X233448900Y-166677992D01*
X233473408Y-166824862D01*
X233553984Y-167059572D01*
X233553989Y-167059582D01*
X233672094Y-167277822D01*
X233672100Y-167277831D01*
X233824517Y-167473656D01*
X233824520Y-167473660D01*
X233824522Y-167473662D01*
X233824523Y-167473663D01*
X234007102Y-167641739D01*
X234007104Y-167641740D01*
X234156186Y-167739141D01*
X234214855Y-167777471D01*
X234442116Y-167877157D01*
X234682685Y-167938077D01*
X234765123Y-167944908D01*
X234929994Y-167958571D01*
X234930000Y-167958571D01*
X234930006Y-167958571D01*
X235078389Y-167946274D01*
X235177315Y-167938077D01*
X235417884Y-167877157D01*
X235645145Y-167777471D01*
X235852898Y-167641739D01*
X236035477Y-167473663D01*
X236187902Y-167277828D01*
X236306014Y-167059576D01*
X236386592Y-166824859D01*
X236427438Y-166580081D01*
X236430000Y-166456000D01*
X236427438Y-166331919D01*
X236386592Y-166087141D01*
X236306014Y-165852424D01*
X236248322Y-165745819D01*
X236187905Y-165634177D01*
X236187899Y-165634168D01*
X236035482Y-165438343D01*
X236035479Y-165438339D01*
X235956260Y-165365413D01*
X235852898Y-165270261D01*
X235852895Y-165270259D01*
X235645146Y-165134529D01*
X235417884Y-165034843D01*
X235177311Y-164973922D01*
X234930006Y-164953430D01*
X234929994Y-164953430D01*
X234682688Y-164973922D01*
X234442115Y-165034843D01*
X234214853Y-165134529D01*
X234007104Y-165270259D01*
X234007100Y-165270262D01*
X233824520Y-165438339D01*
X233824517Y-165438343D01*
X233672100Y-165634168D01*
X233672094Y-165634177D01*
X233553989Y-165852417D01*
X233553984Y-165852427D01*
X233473408Y-166087137D01*
X233450337Y-166225396D01*
X233432562Y-166331919D01*
X230801977Y-166331919D01*
X230908495Y-166225401D01*
X231044035Y-166031830D01*
X231143903Y-165817663D01*
X231205063Y-165589408D01*
X231225659Y-165354000D01*
X231205063Y-165118592D01*
X231143903Y-164890337D01*
X231044035Y-164676171D01*
X231038425Y-164668158D01*
X230908494Y-164482597D01*
X230741402Y-164315506D01*
X230741396Y-164315501D01*
X230555842Y-164185575D01*
X230512217Y-164130998D01*
X230505023Y-164061500D01*
X230536546Y-163999145D01*
X230555842Y-163982425D01*
X230578585Y-163966500D01*
X230741401Y-163852495D01*
X230908495Y-163685401D01*
X231044035Y-163491830D01*
X231143903Y-163277663D01*
X231205063Y-163049408D01*
X231225659Y-162814000D01*
X231205063Y-162578592D01*
X231144565Y-162352806D01*
X231143905Y-162350344D01*
X231143904Y-162350343D01*
X231143903Y-162350337D01*
X231044035Y-162136171D01*
X231038425Y-162128158D01*
X230908494Y-161942597D01*
X230741402Y-161775506D01*
X230741396Y-161775501D01*
X230555842Y-161645575D01*
X230512217Y-161590998D01*
X230505023Y-161521500D01*
X230536546Y-161459145D01*
X230555842Y-161442425D01*
X230609497Y-161404855D01*
X230741401Y-161312495D01*
X230908495Y-161145401D01*
X231044035Y-160951830D01*
X231143903Y-160737663D01*
X231205063Y-160509408D01*
X231225659Y-160274000D01*
X231205063Y-160038592D01*
X231143903Y-159810337D01*
X231044035Y-159596171D01*
X231038425Y-159588158D01*
X230908494Y-159402597D01*
X230741402Y-159235506D01*
X230741396Y-159235501D01*
X230555842Y-159105575D01*
X230512217Y-159050998D01*
X230505023Y-158981500D01*
X230536546Y-158919145D01*
X230555842Y-158902425D01*
X230609497Y-158864855D01*
X230741401Y-158772495D01*
X230908495Y-158605401D01*
X231044035Y-158411830D01*
X231143903Y-158197663D01*
X231205063Y-157969408D01*
X231225659Y-157734000D01*
X231205063Y-157498592D01*
X231143903Y-157270337D01*
X231044035Y-157056171D01*
X231038424Y-157048158D01*
X230908496Y-156862600D01*
X230870054Y-156824158D01*
X230786567Y-156740671D01*
X230753084Y-156679351D01*
X230758068Y-156609659D01*
X230799939Y-156553725D01*
X230830915Y-156536810D01*
X230962331Y-156487796D01*
X231077546Y-156401546D01*
X231163796Y-156286331D01*
X231214091Y-156151483D01*
X231220500Y-156091873D01*
X231220499Y-154296128D01*
X231214091Y-154236517D01*
X231212810Y-154233083D01*
X231163797Y-154101671D01*
X231163793Y-154101664D01*
X231077547Y-153986455D01*
X231077544Y-153986452D01*
X230962335Y-153900206D01*
X230962328Y-153900202D01*
X230827482Y-153849908D01*
X230827483Y-153849908D01*
X230767883Y-153843501D01*
X230767881Y-153843500D01*
X230767873Y-153843500D01*
X230767864Y-153843500D01*
X228972129Y-153843500D01*
X228972123Y-153843501D01*
X228912516Y-153849908D01*
X228777671Y-153900202D01*
X228777664Y-153900206D01*
X228662455Y-153986452D01*
X228662452Y-153986455D01*
X228576206Y-154101664D01*
X228576203Y-154101669D01*
X228527189Y-154233083D01*
X228485317Y-154289016D01*
X228419853Y-154313433D01*
X228351580Y-154298581D01*
X228323326Y-154277430D01*
X228201402Y-154155506D01*
X228201395Y-154155501D01*
X228194044Y-154150354D01*
X228124518Y-154101671D01*
X228007834Y-154019967D01*
X228007830Y-154019965D01*
X227991856Y-154012516D01*
X227793663Y-153920097D01*
X227793659Y-153920096D01*
X227793655Y-153920094D01*
X227565413Y-153858938D01*
X227565403Y-153858936D01*
X227330001Y-153838341D01*
X227329999Y-153838341D01*
X227094596Y-153858936D01*
X227094586Y-153858938D01*
X226866344Y-153920094D01*
X226866335Y-153920098D01*
X226652171Y-154019964D01*
X226652169Y-154019965D01*
X226458597Y-154155505D01*
X226291505Y-154322597D01*
X226155965Y-154516169D01*
X226155964Y-154516171D01*
X226056098Y-154730335D01*
X226056094Y-154730344D01*
X225994938Y-154958586D01*
X225994936Y-154958596D01*
X225974341Y-155193999D01*
X223620500Y-155193999D01*
X223620499Y-154072128D01*
X223614091Y-154012517D01*
X223612810Y-154009083D01*
X223563797Y-153877671D01*
X223563793Y-153877664D01*
X223477547Y-153762455D01*
X223477544Y-153762452D01*
X223362335Y-153676206D01*
X223362328Y-153676202D01*
X223227482Y-153625908D01*
X223227483Y-153625908D01*
X223167883Y-153619501D01*
X223167881Y-153619500D01*
X223167873Y-153619500D01*
X223167864Y-153619500D01*
X221372129Y-153619500D01*
X221372123Y-153619501D01*
X221312516Y-153625908D01*
X221177671Y-153676202D01*
X221177664Y-153676206D01*
X221062455Y-153762452D01*
X221062452Y-153762455D01*
X220976206Y-153877664D01*
X220976203Y-153877669D01*
X220927189Y-154009083D01*
X220885317Y-154065016D01*
X220819853Y-154089433D01*
X220751580Y-154074581D01*
X220723326Y-154053430D01*
X220601402Y-153931506D01*
X220601395Y-153931501D01*
X220600115Y-153930605D01*
X220524518Y-153877671D01*
X220407834Y-153795967D01*
X220407830Y-153795965D01*
X220382765Y-153784277D01*
X220193663Y-153696097D01*
X220193659Y-153696096D01*
X220193655Y-153696094D01*
X219965413Y-153634938D01*
X219965403Y-153634936D01*
X219730001Y-153614341D01*
X219729999Y-153614341D01*
X219494596Y-153634936D01*
X219494586Y-153634938D01*
X219266344Y-153696094D01*
X219266335Y-153696098D01*
X219052171Y-153795964D01*
X219052169Y-153795965D01*
X218858597Y-153931505D01*
X218691505Y-154098597D01*
X218555965Y-154292169D01*
X218555964Y-154292171D01*
X218456098Y-154506335D01*
X218456094Y-154506344D01*
X218394938Y-154734586D01*
X218394936Y-154734596D01*
X218374341Y-154969999D01*
X215832800Y-154969999D01*
X215832800Y-147895356D01*
X215832801Y-147895335D01*
X215832801Y-147766006D01*
X215808765Y-147645172D01*
X215808763Y-147645168D01*
X215808763Y-147645164D01*
X215806432Y-147639537D01*
X215770754Y-147553401D01*
X215761612Y-147531330D01*
X215761610Y-147531327D01*
X215761608Y-147531323D01*
X215693158Y-147428882D01*
X215693155Y-147428878D01*
X214245313Y-145981038D01*
X214245310Y-145981034D01*
X214245310Y-145981035D01*
X214238243Y-145973968D01*
X214238243Y-145973967D01*
X214151118Y-145886842D01*
X214151117Y-145886841D01*
X214151116Y-145886840D01*
X214099894Y-145852615D01*
X214048671Y-145818388D01*
X214048668Y-145818386D01*
X214048665Y-145818385D01*
X213968177Y-145785047D01*
X213934838Y-145771237D01*
X213924812Y-145769243D01*
X213874414Y-145759218D01*
X213813995Y-145747200D01*
X213813992Y-145747200D01*
X213813991Y-145747200D01*
X209056594Y-145747200D01*
X208933380Y-145747200D01*
X208933376Y-145747200D01*
X208872958Y-145759218D01*
X208835246Y-145766719D01*
X208812537Y-145771236D01*
X208812535Y-145771237D01*
X208779194Y-145785047D01*
X208698706Y-145818384D01*
X208698692Y-145818392D01*
X208596259Y-145886838D01*
X208596251Y-145886844D01*
X207673098Y-146809998D01*
X207119270Y-147363826D01*
X207119267Y-147363829D01*
X207075703Y-147407392D01*
X207032140Y-147450955D01*
X207008361Y-147486545D01*
X207008359Y-147486548D01*
X206963689Y-147553399D01*
X206963685Y-147553405D01*
X206916540Y-147667225D01*
X206916535Y-147667241D01*
X206899051Y-147755144D01*
X206899051Y-147755145D01*
X206892500Y-147788078D01*
X206892500Y-153819549D01*
X206872815Y-153886588D01*
X206856181Y-153907230D01*
X204963297Y-155800113D01*
X204901974Y-155833598D01*
X204852832Y-155834321D01*
X204804044Y-155825201D01*
X204595958Y-155825201D01*
X204391416Y-155863437D01*
X204391413Y-155863437D01*
X204391413Y-155863438D01*
X204197384Y-155938604D01*
X204197378Y-155938607D01*
X204020465Y-156048147D01*
X204020463Y-156048149D01*
X203866692Y-156188329D01*
X203866689Y-156188332D01*
X203741289Y-156354388D01*
X203741284Y-156354396D01*
X203648537Y-156540657D01*
X203641447Y-156565575D01*
X203604481Y-156695501D01*
X203591590Y-156740807D01*
X203572391Y-156948000D01*
X203572391Y-156948001D01*
X203591590Y-157155194D01*
X203591590Y-157155196D01*
X203591591Y-157155199D01*
X203644250Y-157340277D01*
X203648537Y-157355344D01*
X203741284Y-157541605D01*
X203741289Y-157541613D01*
X203744406Y-157545740D01*
X203831999Y-157661733D01*
X203866689Y-157707669D01*
X203866692Y-157707672D01*
X204020463Y-157847852D01*
X204020465Y-157847854D01*
X204197378Y-157957394D01*
X204197384Y-157957397D01*
X204238489Y-157973321D01*
X204391416Y-158032565D01*
X204595958Y-158070801D01*
X204595960Y-158070801D01*
X204804042Y-158070801D01*
X204804044Y-158070801D01*
X205008586Y-158032565D01*
X205202620Y-157957396D01*
X205379538Y-157847853D01*
X205533315Y-157707667D01*
X205658714Y-157541611D01*
X205751466Y-157355341D01*
X205808411Y-157155199D01*
X205827611Y-156948001D01*
X205812372Y-156783550D01*
X205825787Y-156714981D01*
X205848159Y-156684431D01*
X208003857Y-154528736D01*
X208004036Y-154528469D01*
X208072311Y-154426288D01*
X208119463Y-154312454D01*
X208143500Y-154191608D01*
X208143500Y-148160139D01*
X208163185Y-148093100D01*
X208179819Y-148072458D01*
X209217758Y-147034519D01*
X209279081Y-147001034D01*
X209305439Y-146998200D01*
X212126188Y-146998200D01*
X212193227Y-147017885D01*
X212238982Y-147070689D01*
X212249659Y-147133642D01*
X212232390Y-147320000D01*
X212251589Y-147527193D01*
X212251589Y-147527195D01*
X212251590Y-147527198D01*
X212308535Y-147727340D01*
X212308536Y-147727343D01*
X212401283Y-147913604D01*
X212401288Y-147913612D01*
X212526688Y-148079668D01*
X212526691Y-148079671D01*
X212680462Y-148219851D01*
X212680464Y-148219853D01*
X212857377Y-148329393D01*
X212857383Y-148329396D01*
X212898488Y-148345320D01*
X213051415Y-148404564D01*
X213255957Y-148442800D01*
X213255959Y-148442800D01*
X213464041Y-148442800D01*
X213464043Y-148442800D01*
X213512831Y-148433679D01*
X213582341Y-148440708D01*
X213623296Y-148467886D01*
X214095481Y-148940071D01*
X214128966Y-149001394D01*
X214131800Y-149027752D01*
X214131800Y-153874652D01*
X214112115Y-153941691D01*
X214059311Y-153987446D01*
X213990153Y-153997390D01*
X213942523Y-153980079D01*
X213862622Y-153930606D01*
X213862616Y-153930603D01*
X213708531Y-153870911D01*
X213668585Y-153855436D01*
X213464043Y-153817200D01*
X213255957Y-153817200D01*
X213051415Y-153855436D01*
X213051412Y-153855436D01*
X213051412Y-153855437D01*
X212857383Y-153930603D01*
X212857377Y-153930606D01*
X212680464Y-154040146D01*
X212680462Y-154040148D01*
X212526691Y-154180328D01*
X212526688Y-154180331D01*
X212401288Y-154346387D01*
X212401283Y-154346395D01*
X212308536Y-154532656D01*
X212251589Y-154732806D01*
X212232390Y-154939999D01*
X212232390Y-154940000D01*
X212251589Y-155147193D01*
X212251589Y-155147195D01*
X212251590Y-155147198D01*
X212308535Y-155347340D01*
X212308536Y-155347343D01*
X212401283Y-155533604D01*
X212401288Y-155533612D01*
X212462495Y-155614663D01*
X212487544Y-155647834D01*
X212526688Y-155699668D01*
X212526691Y-155699671D01*
X212680462Y-155839851D01*
X212680464Y-155839853D01*
X212857377Y-155949393D01*
X212857383Y-155949396D01*
X212898488Y-155965320D01*
X213051415Y-156024564D01*
X213255957Y-156062800D01*
X213255959Y-156062800D01*
X213464044Y-156062800D01*
X213464044Y-156062799D01*
X213512827Y-156053680D01*
X213582342Y-156060709D01*
X213623293Y-156087885D01*
X213645479Y-156110070D01*
X213678966Y-156171392D01*
X213681800Y-156197753D01*
X213681800Y-161328578D01*
X213662115Y-161395617D01*
X213609311Y-161441372D01*
X213540153Y-161451316D01*
X213535016Y-161450467D01*
X213486361Y-161441372D01*
X213464043Y-161437200D01*
X213255957Y-161437200D01*
X213051415Y-161475436D01*
X213051412Y-161475436D01*
X213051412Y-161475437D01*
X212857383Y-161550603D01*
X212857377Y-161550606D01*
X212680464Y-161660146D01*
X212680462Y-161660148D01*
X212526691Y-161800328D01*
X212526688Y-161800331D01*
X212401288Y-161966387D01*
X212401283Y-161966395D01*
X212308536Y-162152656D01*
X212251589Y-162352806D01*
X212232390Y-162559999D01*
X212232390Y-162560000D01*
X212247628Y-162724448D01*
X212234213Y-162793018D01*
X212211838Y-162823570D01*
X210181928Y-164853482D01*
X210120605Y-164886967D01*
X210094247Y-164889801D01*
X205933813Y-164889801D01*
X205866774Y-164870116D01*
X205821019Y-164817312D01*
X205810342Y-164754359D01*
X205816807Y-164684598D01*
X205827611Y-164568001D01*
X205808411Y-164360803D01*
X205751466Y-164160661D01*
X205744968Y-164147612D01*
X205658717Y-163974396D01*
X205658712Y-163974388D01*
X205599320Y-163895740D01*
X205533315Y-163808335D01*
X205533312Y-163808332D01*
X205533309Y-163808329D01*
X205379538Y-163668149D01*
X205379536Y-163668147D01*
X205202623Y-163558607D01*
X205202617Y-163558604D01*
X205030251Y-163491830D01*
X205008586Y-163483437D01*
X204804044Y-163445201D01*
X204595958Y-163445201D01*
X204391416Y-163483437D01*
X204391413Y-163483437D01*
X204391413Y-163483438D01*
X204197384Y-163558604D01*
X204197378Y-163558607D01*
X204020465Y-163668147D01*
X204020463Y-163668149D01*
X203866692Y-163808329D01*
X203866689Y-163808332D01*
X203741289Y-163974388D01*
X203741284Y-163974396D01*
X203648537Y-164160657D01*
X203641447Y-164185575D01*
X203604481Y-164315501D01*
X203591590Y-164360807D01*
X203572391Y-164568000D01*
X203572391Y-164568001D01*
X203583195Y-164684598D01*
X203589660Y-164754359D01*
X203576245Y-164822929D01*
X203527888Y-164873361D01*
X203466189Y-164889801D01*
X190322153Y-164889801D01*
X190255114Y-164870116D01*
X190209359Y-164817312D01*
X190199415Y-164748154D01*
X190228440Y-164684598D01*
X190234472Y-164678120D01*
X193767197Y-161145395D01*
X204436704Y-150475886D01*
X204498025Y-150442403D01*
X204547166Y-150441680D01*
X204595958Y-150450801D01*
X204595960Y-150450801D01*
X204804042Y-150450801D01*
X204804044Y-150450801D01*
X205008586Y-150412565D01*
X205202620Y-150337396D01*
X205379538Y-150227853D01*
X205533315Y-150087667D01*
X205658714Y-149921611D01*
X205751466Y-149735341D01*
X205808411Y-149535199D01*
X205827611Y-149328001D01*
X205808411Y-149120803D01*
X205751466Y-148920661D01*
X205748903Y-148915513D01*
X205658717Y-148734396D01*
X205658712Y-148734388D01*
X205608230Y-148667539D01*
X205533315Y-148568335D01*
X205533312Y-148568332D01*
X205533309Y-148568329D01*
X205379538Y-148428149D01*
X205379536Y-148428147D01*
X205202623Y-148318607D01*
X205202617Y-148318604D01*
X205049693Y-148259362D01*
X205008586Y-148243437D01*
X204804044Y-148205201D01*
X204595958Y-148205201D01*
X204391416Y-148243437D01*
X204391413Y-148243437D01*
X204391413Y-148243438D01*
X204197384Y-148318604D01*
X204197378Y-148318607D01*
X204020465Y-148428147D01*
X204020463Y-148428149D01*
X203866692Y-148568329D01*
X203866689Y-148568332D01*
X203741289Y-148734388D01*
X203741284Y-148734396D01*
X203648537Y-148920657D01*
X203591590Y-149120807D01*
X203572391Y-149328000D01*
X203572391Y-149328001D01*
X203587629Y-149492449D01*
X203574214Y-149561019D01*
X203551839Y-149591571D01*
X203021732Y-150121678D01*
X202960409Y-150155163D01*
X202890717Y-150150179D01*
X202834784Y-150108307D01*
X202810367Y-150042843D01*
X202819489Y-149986546D01*
X202854163Y-149902838D01*
X202866136Y-149842643D01*
X202867348Y-149836552D01*
X202867348Y-149836549D01*
X202878200Y-149781993D01*
X202878200Y-149658779D01*
X202878200Y-149246068D01*
X202897885Y-149179029D01*
X202914519Y-149158387D01*
X207901088Y-144171819D01*
X207962411Y-144138334D01*
X207988769Y-144135500D01*
X219399548Y-144135500D01*
X219466587Y-144155185D01*
X219487229Y-144171819D01*
X219831838Y-144516428D01*
X219865323Y-144577751D01*
X219867628Y-144615550D01*
X219852390Y-144779999D01*
X219852390Y-144780000D01*
X219871589Y-144987193D01*
X219871589Y-144987195D01*
X219871590Y-144987198D01*
X219928535Y-145187340D01*
X219928536Y-145187343D01*
X220021283Y-145373604D01*
X220021288Y-145373612D01*
X220146688Y-145539668D01*
X220146691Y-145539671D01*
X220300462Y-145679851D01*
X220300464Y-145679853D01*
X220477377Y-145789393D01*
X220477383Y-145789396D01*
X220518488Y-145805320D01*
X220671415Y-145864564D01*
X220875957Y-145902800D01*
X220875959Y-145902800D01*
X221084041Y-145902800D01*
X221084043Y-145902800D01*
X221288585Y-145864564D01*
X221482619Y-145789395D01*
X221659537Y-145679852D01*
X221813314Y-145539666D01*
X221938713Y-145373610D01*
X222031465Y-145187340D01*
X222088410Y-144987198D01*
X222107610Y-144780000D01*
X222088410Y-144572802D01*
X222031465Y-144372660D01*
X221980345Y-144269998D01*
X221938716Y-144186395D01*
X221938711Y-144186387D01*
X221843573Y-144060404D01*
X221813314Y-144020334D01*
X221813311Y-144020331D01*
X221813308Y-144020328D01*
X221659537Y-143880148D01*
X221659535Y-143880146D01*
X221482622Y-143770606D01*
X221482616Y-143770603D01*
X221329692Y-143711361D01*
X221288585Y-143695436D01*
X221084043Y-143657200D01*
X220875957Y-143657200D01*
X220875956Y-143657200D01*
X220827166Y-143666320D01*
X220757651Y-143659288D01*
X220716702Y-143632112D01*
X220200198Y-143115608D01*
X220200178Y-143115586D01*
X220108735Y-143024143D01*
X220071131Y-142999017D01*
X220044219Y-142981035D01*
X220044220Y-142981035D01*
X220044218Y-142981033D01*
X220006290Y-142955690D01*
X220006281Y-142955685D01*
X219912575Y-142916872D01*
X219892455Y-142908538D01*
X219892453Y-142908537D01*
X219892452Y-142908537D01*
X219832029Y-142896518D01*
X219771610Y-142884500D01*
X219771607Y-142884500D01*
X219771606Y-142884500D01*
X208519767Y-142884500D01*
X208452728Y-142864815D01*
X208406973Y-142812011D01*
X208397029Y-142742853D01*
X208426054Y-142679297D01*
X208432086Y-142672819D01*
X209795786Y-141309119D01*
X209857109Y-141275634D01*
X209883467Y-141272800D01*
X212474308Y-141272800D01*
X212474308Y-141272799D01*
X212535159Y-141260696D01*
X212535161Y-141260696D01*
X212565360Y-141254688D01*
X212595152Y-141248763D01*
X212632456Y-141233311D01*
X212708986Y-141201612D01*
X212708989Y-141201609D01*
X212708991Y-141201609D01*
X212763991Y-141164858D01*
X212763993Y-141164856D01*
X212811433Y-141133158D01*
X212898558Y-141046033D01*
X212898558Y-141046031D01*
X212908766Y-141035824D01*
X212908768Y-141035821D01*
X213096703Y-140847885D01*
X213158024Y-140814402D01*
X213207165Y-140813679D01*
X213255957Y-140822800D01*
X213255959Y-140822800D01*
X213464041Y-140822800D01*
X213464043Y-140822800D01*
X213668585Y-140784564D01*
X213862619Y-140709395D01*
X214039537Y-140599852D01*
X214193314Y-140459666D01*
X214318713Y-140293610D01*
X214411465Y-140107340D01*
X214468410Y-139907198D01*
X214487610Y-139700000D01*
X214468410Y-139492802D01*
X214411465Y-139292660D01*
X214360345Y-139189998D01*
X214318716Y-139106395D01*
X214318711Y-139106387D01*
X214215270Y-138969409D01*
X214193314Y-138940334D01*
X214193311Y-138940331D01*
X214193308Y-138940328D01*
X214039537Y-138800148D01*
X214039535Y-138800146D01*
X213862622Y-138690606D01*
X213862616Y-138690603D01*
X213709692Y-138631361D01*
X213668585Y-138615436D01*
X213464043Y-138577200D01*
X213255957Y-138577200D01*
X213051415Y-138615436D01*
X213051412Y-138615436D01*
X213051412Y-138615437D01*
X212857383Y-138690603D01*
X212857377Y-138690606D01*
X212680464Y-138800146D01*
X212680462Y-138800148D01*
X212526691Y-138940328D01*
X212526688Y-138940331D01*
X212401288Y-139106387D01*
X212401283Y-139106395D01*
X212308536Y-139292656D01*
X212251589Y-139492806D01*
X212232390Y-139699999D01*
X212232390Y-139700000D01*
X212247628Y-139864448D01*
X212234213Y-139933018D01*
X212211840Y-139963568D01*
X212189930Y-139985479D01*
X212128608Y-140018966D01*
X212102247Y-140021800D01*
X209640755Y-140021800D01*
X209640735Y-140021799D01*
X209634621Y-140021799D01*
X209511408Y-140021799D01*
X209410611Y-140041848D01*
X209410606Y-140041848D01*
X209390563Y-140045836D01*
X209390561Y-140045836D01*
X209343411Y-140065367D01*
X209276733Y-140092985D01*
X209276731Y-140092986D01*
X209174280Y-140161441D01*
X209174277Y-140161444D01*
X197549837Y-151785885D01*
X197488514Y-151819370D01*
X197418822Y-151814386D01*
X197374475Y-151785885D01*
X163766319Y-118177729D01*
X163732834Y-118116406D01*
X163730000Y-118090048D01*
X163730000Y-114818396D01*
X163730000Y-114818394D01*
X163705963Y-114697548D01*
X163705961Y-114697543D01*
X163686462Y-114650468D01*
X163686447Y-114650435D01*
X163686432Y-114650397D01*
X163658812Y-114583715D01*
X163641756Y-114558190D01*
X163590358Y-114481267D01*
X163590356Y-114481264D01*
X163500137Y-114391045D01*
X163500106Y-114391016D01*
X163285335Y-114176245D01*
X163251850Y-114114922D01*
X163253240Y-114056472D01*
X163265535Y-114010591D01*
X163284834Y-113790000D01*
X163265535Y-113569409D01*
X163208223Y-113355520D01*
X163114642Y-113154833D01*
X162987632Y-112973445D01*
X162831055Y-112816868D01*
X162649667Y-112689858D01*
X162526407Y-112632381D01*
X162473968Y-112586210D01*
X162454816Y-112519017D01*
X162475031Y-112452136D01*
X162526408Y-112407618D01*
X162649667Y-112350142D01*
X162831055Y-112223132D01*
X162987632Y-112066555D01*
X163084387Y-111928374D01*
X163138963Y-111884751D01*
X163185961Y-111875500D01*
X168597548Y-111875500D01*
X168664587Y-111895185D01*
X168685229Y-111911819D01*
X178385038Y-121611629D01*
X178418523Y-121672952D01*
X178420678Y-121686348D01*
X178428968Y-121765227D01*
X178438326Y-121854256D01*
X178438327Y-121854259D01*
X178496818Y-122034277D01*
X178496821Y-122034284D01*
X178591467Y-122198216D01*
X178616984Y-122226555D01*
X178718129Y-122338888D01*
X178871265Y-122450148D01*
X178871270Y-122450151D01*
X179044192Y-122527142D01*
X179044197Y-122527144D01*
X179229354Y-122566500D01*
X179229355Y-122566500D01*
X179418644Y-122566500D01*
X179418646Y-122566500D01*
X179603803Y-122527144D01*
X179776730Y-122450151D01*
X179929871Y-122338888D01*
X180056533Y-122198216D01*
X180151179Y-122034284D01*
X180209674Y-121854256D01*
X180229460Y-121666000D01*
X180209674Y-121477744D01*
X180151179Y-121297716D01*
X180056533Y-121133784D01*
X179929871Y-120993112D01*
X179929870Y-120993111D01*
X179776734Y-120881851D01*
X179776729Y-120881848D01*
X179603807Y-120804857D01*
X179603802Y-120804855D01*
X179458001Y-120773865D01*
X179418646Y-120765500D01*
X179418645Y-120765500D01*
X179359453Y-120765500D01*
X179292414Y-120745815D01*
X179271772Y-120729181D01*
X177633176Y-119090585D01*
X175627198Y-117084608D01*
X175593714Y-117023286D01*
X175598698Y-116953594D01*
X175640570Y-116897661D01*
X175664437Y-116883652D01*
X175712730Y-116862151D01*
X175865871Y-116750888D01*
X175868788Y-116747647D01*
X175871600Y-116744526D01*
X175931087Y-116707879D01*
X175963748Y-116703500D01*
X196031548Y-116703500D01*
X196098587Y-116723185D01*
X196119229Y-116739819D01*
X199490181Y-120110771D01*
X199523666Y-120172094D01*
X199526500Y-120198452D01*
X199526500Y-137221610D01*
X199550535Y-137342444D01*
X199550538Y-137342454D01*
X199564347Y-137375792D01*
X199564347Y-137375793D01*
X199597685Y-137456280D01*
X199597690Y-137456289D01*
X199631914Y-137507507D01*
X199631915Y-137507509D01*
X199666140Y-137558731D01*
X199666141Y-137558732D01*
X199666142Y-137558733D01*
X199753267Y-137645858D01*
X199753268Y-137645858D01*
X199760335Y-137652925D01*
X199760334Y-137652925D01*
X199760338Y-137652928D01*
X202653776Y-140546367D01*
X202687261Y-140607690D01*
X202682277Y-140677382D01*
X202640405Y-140733315D01*
X202631374Y-140739474D01*
X202520463Y-140808148D01*
X202520462Y-140808149D01*
X202366691Y-140948329D01*
X202366688Y-140948332D01*
X202241288Y-141114388D01*
X202241283Y-141114396D01*
X202148536Y-141300657D01*
X202091589Y-141500807D01*
X202072390Y-141708000D01*
X202072390Y-141708001D01*
X202091589Y-141915194D01*
X202091589Y-141915196D01*
X202091590Y-141915199D01*
X202137089Y-142075111D01*
X202148536Y-142115344D01*
X202241283Y-142301605D01*
X202241288Y-142301613D01*
X202366688Y-142467669D01*
X202366691Y-142467672D01*
X202520462Y-142607852D01*
X202520464Y-142607854D01*
X202697377Y-142717394D01*
X202697383Y-142717397D01*
X202727629Y-142729114D01*
X202891415Y-142792565D01*
X203095957Y-142830801D01*
X203095959Y-142830801D01*
X203304041Y-142830801D01*
X203304043Y-142830801D01*
X203508585Y-142792565D01*
X203702619Y-142717396D01*
X203774613Y-142672819D01*
X203884412Y-142604835D01*
X203885838Y-142607139D01*
X203940346Y-142586402D01*
X204008714Y-142600808D01*
X204015419Y-142605109D01*
X204015589Y-142604835D01*
X204197378Y-142717394D01*
X204197384Y-142717397D01*
X204227630Y-142729114D01*
X204391416Y-142792565D01*
X204595958Y-142830801D01*
X204595960Y-142830801D01*
X204804042Y-142830801D01*
X204804044Y-142830801D01*
X205008586Y-142792565D01*
X205202620Y-142717396D01*
X205379538Y-142607853D01*
X205533315Y-142467667D01*
X205658714Y-142301611D01*
X205751466Y-142115341D01*
X205808411Y-141915199D01*
X205827611Y-141708001D01*
X205808411Y-141500803D01*
X205751466Y-141300661D01*
X205725623Y-141248761D01*
X205658717Y-141114396D01*
X205658712Y-141114388D01*
X205599379Y-141035818D01*
X205533315Y-140948335D01*
X205533312Y-140948332D01*
X205533309Y-140948329D01*
X205379538Y-140808149D01*
X205379536Y-140808147D01*
X205202623Y-140698607D01*
X205202617Y-140698604D01*
X205049693Y-140639362D01*
X205008586Y-140623437D01*
X204804044Y-140585201D01*
X204595958Y-140585201D01*
X204572729Y-140589543D01*
X204547169Y-140594321D01*
X204477654Y-140587289D01*
X204436704Y-140560113D01*
X200813819Y-136937228D01*
X200780334Y-136875905D01*
X200777500Y-136849547D01*
X200777500Y-127793452D01*
X200797185Y-127726413D01*
X200849989Y-127680658D01*
X200919147Y-127670714D01*
X200982703Y-127699739D01*
X200989181Y-127705771D01*
X204038182Y-130754772D01*
X204071667Y-130816095D01*
X204074501Y-130842453D01*
X204074501Y-133085622D01*
X204054816Y-133152661D01*
X204023786Y-133183288D01*
X204024915Y-133184787D01*
X204024603Y-133185022D01*
X204020444Y-133186587D01*
X204016171Y-133190805D01*
X204015982Y-133190923D01*
X204014638Y-133188771D01*
X203959211Y-133209632D01*
X203890895Y-133194982D01*
X203884570Y-133190910D01*
X203884412Y-133191167D01*
X203702622Y-133078607D01*
X203702616Y-133078604D01*
X203549692Y-133019362D01*
X203508585Y-133003437D01*
X203304043Y-132965201D01*
X203095957Y-132965201D01*
X202891415Y-133003437D01*
X202891412Y-133003437D01*
X202891412Y-133003438D01*
X202697383Y-133078604D01*
X202697377Y-133078607D01*
X202520464Y-133188147D01*
X202520462Y-133188149D01*
X202366691Y-133328329D01*
X202366688Y-133328332D01*
X202241288Y-133494388D01*
X202241283Y-133494396D01*
X202148536Y-133680657D01*
X202091589Y-133880807D01*
X202072390Y-134088000D01*
X202072390Y-134088001D01*
X202091589Y-134295194D01*
X202091589Y-134295196D01*
X202091590Y-134295199D01*
X202101660Y-134330591D01*
X202148536Y-134495344D01*
X202241283Y-134681605D01*
X202241288Y-134681613D01*
X202366688Y-134847669D01*
X202366691Y-134847672D01*
X202520462Y-134987852D01*
X202520464Y-134987854D01*
X202697377Y-135097394D01*
X202697383Y-135097397D01*
X202738488Y-135113321D01*
X202891415Y-135172565D01*
X203095957Y-135210801D01*
X203095959Y-135210801D01*
X203304041Y-135210801D01*
X203304043Y-135210801D01*
X203508585Y-135172565D01*
X203702619Y-135097396D01*
X203759372Y-135062256D01*
X203884412Y-134984835D01*
X203885838Y-134987139D01*
X203940346Y-134966402D01*
X204008714Y-134980808D01*
X204015419Y-134985109D01*
X204015589Y-134984835D01*
X204197378Y-135097394D01*
X204197384Y-135097397D01*
X204238489Y-135113321D01*
X204391416Y-135172565D01*
X204595958Y-135210801D01*
X204595960Y-135210801D01*
X204804042Y-135210801D01*
X204804044Y-135210801D01*
X205008586Y-135172565D01*
X205202620Y-135097396D01*
X205379538Y-134987853D01*
X205533315Y-134847667D01*
X205658714Y-134681611D01*
X205751466Y-134495341D01*
X205808411Y-134295199D01*
X205827611Y-134088001D01*
X205808411Y-133880803D01*
X205751466Y-133680661D01*
X205689237Y-133555689D01*
X205658717Y-133494396D01*
X205658712Y-133494388D01*
X205611315Y-133431624D01*
X205533315Y-133328335D01*
X205533312Y-133328332D01*
X205533309Y-133328329D01*
X205379540Y-133188150D01*
X205374969Y-133184699D01*
X205376543Y-133182614D01*
X205337390Y-133138605D01*
X205325501Y-133085623D01*
X205325501Y-130470394D01*
X205325500Y-130470390D01*
X205305107Y-130367865D01*
X205301464Y-130349549D01*
X205280802Y-130299666D01*
X205254313Y-130235715D01*
X205220085Y-130184491D01*
X205185859Y-130133268D01*
X205185857Y-130133265D01*
X205095638Y-130043046D01*
X205095607Y-130043017D01*
X203361994Y-128309404D01*
X203328509Y-128248081D01*
X203333493Y-128178389D01*
X203375365Y-128122456D01*
X203426885Y-128099836D01*
X203508585Y-128084564D01*
X203702619Y-128009395D01*
X203831076Y-127929858D01*
X203884412Y-127896834D01*
X203885838Y-127899138D01*
X203940346Y-127878401D01*
X204008714Y-127892807D01*
X204015419Y-127897108D01*
X204015589Y-127896834D01*
X204197378Y-128009393D01*
X204197384Y-128009396D01*
X204238489Y-128025320D01*
X204391416Y-128084564D01*
X204595958Y-128122800D01*
X204595960Y-128122800D01*
X204804042Y-128122800D01*
X204804044Y-128122800D01*
X205008586Y-128084564D01*
X205202620Y-128009395D01*
X205379538Y-127899852D01*
X205533315Y-127759666D01*
X205658714Y-127593610D01*
X205751466Y-127407340D01*
X205808411Y-127207198D01*
X205827611Y-127000000D01*
X205808411Y-126792802D01*
X205751466Y-126592660D01*
X205700346Y-126489998D01*
X205658717Y-126406395D01*
X205658712Y-126406387D01*
X205555271Y-126269409D01*
X205533315Y-126240334D01*
X205533312Y-126240331D01*
X205533309Y-126240328D01*
X205379540Y-126100149D01*
X205374969Y-126096698D01*
X205376543Y-126094613D01*
X205337390Y-126050604D01*
X205325501Y-125997622D01*
X205325501Y-101768397D01*
X205325501Y-101768395D01*
X205301464Y-101647549D01*
X205294234Y-101630094D01*
X205281963Y-101600469D01*
X205281948Y-101600436D01*
X205281933Y-101600398D01*
X205254313Y-101533716D01*
X205225738Y-101490951D01*
X205225738Y-101490950D01*
X205185862Y-101431272D01*
X205185856Y-101431264D01*
X205095638Y-101341046D01*
X205095607Y-101341017D01*
X202331474Y-98576884D01*
X223787500Y-98576884D01*
X223787500Y-98835115D01*
X223827893Y-99090151D01*
X223907690Y-99335738D01*
X224013695Y-99543784D01*
X224024918Y-99565810D01*
X224176696Y-99774714D01*
X224359286Y-99957304D01*
X224568190Y-100109082D01*
X224676893Y-100164468D01*
X224798261Y-100226309D01*
X224798263Y-100226309D01*
X224798266Y-100226311D01*
X224915048Y-100264256D01*
X225043848Y-100306106D01*
X225298885Y-100346500D01*
X225298890Y-100346500D01*
X227837115Y-100346500D01*
X228092151Y-100306106D01*
X228337734Y-100226311D01*
X228567810Y-100109082D01*
X228776714Y-99957304D01*
X228959304Y-99774714D01*
X229111082Y-99565810D01*
X229228311Y-99335734D01*
X229308106Y-99090151D01*
X229316121Y-99039544D01*
X229348500Y-98835115D01*
X229348500Y-98576884D01*
X229308106Y-98321848D01*
X229228309Y-98076261D01*
X229166468Y-97954893D01*
X229111082Y-97846190D01*
X228959304Y-97637286D01*
X228776714Y-97454696D01*
X228567810Y-97302918D01*
X228526752Y-97281998D01*
X228337738Y-97185690D01*
X228092151Y-97105893D01*
X227837115Y-97065500D01*
X227837110Y-97065500D01*
X225298890Y-97065500D01*
X225298885Y-97065500D01*
X225043848Y-97105893D01*
X224798261Y-97185690D01*
X224568189Y-97302918D01*
X224449002Y-97389512D01*
X224359286Y-97454696D01*
X224359284Y-97454698D01*
X224359283Y-97454698D01*
X224176698Y-97637283D01*
X224176698Y-97637284D01*
X224176696Y-97637286D01*
X224128113Y-97704155D01*
X224024918Y-97846189D01*
X223907690Y-98076261D01*
X223827893Y-98321848D01*
X223787500Y-98576884D01*
X202331474Y-98576884D01*
X198329015Y-94574425D01*
X220255000Y-94574425D01*
X220255000Y-96837574D01*
X220292256Y-97072796D01*
X220365846Y-97299287D01*
X220365847Y-97299290D01*
X220473967Y-97511485D01*
X220613949Y-97704153D01*
X220782347Y-97872551D01*
X220975015Y-98012533D01*
X221079090Y-98065561D01*
X221187209Y-98120652D01*
X221187212Y-98120653D01*
X221300457Y-98157448D01*
X221413705Y-98194244D01*
X221648924Y-98231500D01*
X221648925Y-98231500D01*
X221887075Y-98231500D01*
X221887076Y-98231500D01*
X222122295Y-98194244D01*
X222348790Y-98120652D01*
X222560985Y-98012533D01*
X222753653Y-97872551D01*
X222922051Y-97704153D01*
X223062033Y-97511485D01*
X223170152Y-97299290D01*
X223243744Y-97072795D01*
X223281000Y-96837576D01*
X223281000Y-94574424D01*
X223243744Y-94339205D01*
X223177348Y-94134856D01*
X223170153Y-94112712D01*
X223170152Y-94112709D01*
X223062032Y-93900514D01*
X223031254Y-93858152D01*
X222922051Y-93707847D01*
X222753653Y-93539449D01*
X222560985Y-93399467D01*
X222515292Y-93376185D01*
X222348790Y-93291347D01*
X222348787Y-93291346D01*
X222122296Y-93217756D01*
X222004685Y-93199128D01*
X221887076Y-93180500D01*
X221648924Y-93180500D01*
X221570517Y-93192918D01*
X221413703Y-93217756D01*
X221187212Y-93291346D01*
X221187209Y-93291347D01*
X220975014Y-93399467D01*
X220904185Y-93450928D01*
X220782347Y-93539449D01*
X220782345Y-93539451D01*
X220782344Y-93539451D01*
X220613951Y-93707844D01*
X220613951Y-93707845D01*
X220613949Y-93707847D01*
X220583300Y-93750032D01*
X220473967Y-93900514D01*
X220365847Y-94112709D01*
X220365846Y-94112712D01*
X220292256Y-94339203D01*
X220255000Y-94574425D01*
X198329015Y-94574425D01*
X197340198Y-93585608D01*
X197340178Y-93585586D01*
X197248733Y-93494141D01*
X197184059Y-93450928D01*
X197146286Y-93425688D01*
X197146287Y-93425688D01*
X197146285Y-93425687D01*
X197106039Y-93409017D01*
X197065792Y-93392347D01*
X197032452Y-93378537D01*
X197032448Y-93378536D01*
X197032444Y-93378535D01*
X196930364Y-93358230D01*
X196930363Y-93358230D01*
X196911611Y-93354500D01*
X196911607Y-93354500D01*
X196911606Y-93354500D01*
X176332453Y-93354500D01*
X176265414Y-93334815D01*
X176244772Y-93318181D01*
X175436960Y-92510369D01*
X175403475Y-92449046D01*
X175401323Y-92435668D01*
X175390945Y-92336924D01*
X224042500Y-92336924D01*
X224042500Y-92575076D01*
X224043293Y-92580081D01*
X224079756Y-92810296D01*
X224153346Y-93036787D01*
X224153347Y-93036790D01*
X224200274Y-93128888D01*
X224261467Y-93248985D01*
X224401449Y-93441653D01*
X224569847Y-93610051D01*
X224762515Y-93750033D01*
X224816365Y-93777471D01*
X224974709Y-93858152D01*
X224974712Y-93858153D01*
X225087957Y-93894948D01*
X225201205Y-93931744D01*
X225436424Y-93969000D01*
X225436425Y-93969000D01*
X227699575Y-93969000D01*
X227699576Y-93969000D01*
X227934795Y-93931744D01*
X228161290Y-93858152D01*
X228373485Y-93750033D01*
X228566153Y-93610051D01*
X228734551Y-93441653D01*
X228874533Y-93248985D01*
X228982652Y-93036790D01*
X229056244Y-92810295D01*
X229093500Y-92575076D01*
X229093500Y-92336924D01*
X229092707Y-92331920D01*
X233432562Y-92331920D01*
X233432562Y-92580079D01*
X233473408Y-92824862D01*
X233553984Y-93059572D01*
X233553989Y-93059582D01*
X233672094Y-93277822D01*
X233672100Y-93277831D01*
X233824517Y-93473656D01*
X233824520Y-93473660D01*
X233824522Y-93473662D01*
X233824523Y-93473663D01*
X234007102Y-93641739D01*
X234007104Y-93641740D01*
X234172856Y-93750032D01*
X234214855Y-93777471D01*
X234442116Y-93877157D01*
X234682685Y-93938077D01*
X234765123Y-93944908D01*
X234929994Y-93958571D01*
X234930000Y-93958571D01*
X234930006Y-93958571D01*
X235078389Y-93946274D01*
X235177315Y-93938077D01*
X235417884Y-93877157D01*
X235645145Y-93777471D01*
X235852898Y-93641739D01*
X236035477Y-93473663D01*
X236187902Y-93277828D01*
X236306014Y-93059576D01*
X236386592Y-92824859D01*
X236427438Y-92580081D01*
X236430000Y-92456000D01*
X236427438Y-92331919D01*
X236386592Y-92087141D01*
X236306014Y-91852424D01*
X236208291Y-91671848D01*
X236187905Y-91634177D01*
X236187899Y-91634168D01*
X236035482Y-91438343D01*
X236035479Y-91438339D01*
X235852899Y-91270262D01*
X235852895Y-91270259D01*
X235645146Y-91134529D01*
X235417884Y-91034843D01*
X235177311Y-90973922D01*
X234930006Y-90953430D01*
X234929994Y-90953430D01*
X234682688Y-90973922D01*
X234442115Y-91034843D01*
X234214853Y-91134529D01*
X234007104Y-91270259D01*
X234007100Y-91270262D01*
X233824520Y-91438339D01*
X233824517Y-91438343D01*
X233672100Y-91634168D01*
X233672094Y-91634177D01*
X233553989Y-91852417D01*
X233553984Y-91852427D01*
X233473408Y-92087137D01*
X233432562Y-92331920D01*
X229092707Y-92331920D01*
X229056244Y-92101705D01*
X228982652Y-91875210D01*
X228982652Y-91875209D01*
X228879034Y-91671849D01*
X228874533Y-91663015D01*
X228734551Y-91470347D01*
X228566153Y-91301949D01*
X228373485Y-91161967D01*
X228161290Y-91053847D01*
X228161287Y-91053846D01*
X227934796Y-90980256D01*
X227817185Y-90961628D01*
X227699576Y-90943000D01*
X225436424Y-90943000D01*
X225370573Y-90953430D01*
X225201203Y-90980256D01*
X224974712Y-91053846D01*
X224974709Y-91053847D01*
X224762514Y-91161967D01*
X224652590Y-91241832D01*
X224569847Y-91301949D01*
X224569845Y-91301951D01*
X224569844Y-91301951D01*
X224401451Y-91470344D01*
X224401451Y-91470345D01*
X224401449Y-91470347D01*
X224341332Y-91553090D01*
X224261467Y-91663014D01*
X224153347Y-91875209D01*
X224153346Y-91875212D01*
X224079756Y-92101703D01*
X224059997Y-92226454D01*
X224042500Y-92336924D01*
X175390945Y-92336924D01*
X175383674Y-92267744D01*
X175325179Y-92087716D01*
X175230533Y-91923784D01*
X175103871Y-91783112D01*
X175103870Y-91783111D01*
X174950734Y-91671851D01*
X174950729Y-91671848D01*
X174777807Y-91594857D01*
X174777802Y-91594855D01*
X174632001Y-91563865D01*
X174592646Y-91555500D01*
X174403354Y-91555500D01*
X174370897Y-91562398D01*
X174218197Y-91594855D01*
X174218192Y-91594857D01*
X174045270Y-91671848D01*
X174045265Y-91671851D01*
X173892129Y-91783111D01*
X173765466Y-91923785D01*
X173670821Y-92087715D01*
X173670818Y-92087722D01*
X173612327Y-92267740D01*
X173612326Y-92267744D01*
X173592540Y-92456000D01*
X173612326Y-92644256D01*
X173612327Y-92644259D01*
X173670818Y-92824277D01*
X173670821Y-92824284D01*
X173765467Y-92988216D01*
X173892129Y-93128888D01*
X174045265Y-93240148D01*
X174045270Y-93240151D01*
X174218192Y-93317142D01*
X174218197Y-93317144D01*
X174403354Y-93356500D01*
X174462548Y-93356500D01*
X174529587Y-93376185D01*
X174550229Y-93392819D01*
X175316228Y-94158819D01*
X175349713Y-94220142D01*
X175344729Y-94289834D01*
X175302857Y-94345767D01*
X175237393Y-94370184D01*
X175228547Y-94370500D01*
X175201748Y-94370500D01*
X175134709Y-94350815D01*
X175109600Y-94329474D01*
X175103873Y-94323114D01*
X175103869Y-94323110D01*
X174950734Y-94211851D01*
X174950729Y-94211848D01*
X174777807Y-94134857D01*
X174777802Y-94134855D01*
X174632001Y-94103865D01*
X174592646Y-94095500D01*
X174403354Y-94095500D01*
X174370897Y-94102398D01*
X174218197Y-94134855D01*
X174218192Y-94134857D01*
X174045270Y-94211848D01*
X174045265Y-94211851D01*
X173892129Y-94323111D01*
X173765466Y-94463785D01*
X173670821Y-94627715D01*
X173670818Y-94627722D01*
X173612327Y-94807740D01*
X173612326Y-94807744D01*
X173592540Y-94996000D01*
X173612326Y-95184256D01*
X173612327Y-95184259D01*
X173670818Y-95364277D01*
X173670821Y-95364284D01*
X173765467Y-95528216D01*
X173865820Y-95639669D01*
X173892129Y-95668888D01*
X174045265Y-95780148D01*
X174045270Y-95780151D01*
X174218192Y-95857142D01*
X174218197Y-95857144D01*
X174403354Y-95896500D01*
X174403355Y-95896500D01*
X174592644Y-95896500D01*
X174592646Y-95896500D01*
X174777803Y-95857144D01*
X174950730Y-95780151D01*
X175103871Y-95668888D01*
X175106788Y-95665647D01*
X175109600Y-95662526D01*
X175169087Y-95625879D01*
X175201748Y-95621500D01*
X178913351Y-95621500D01*
X178980390Y-95641185D01*
X179026145Y-95693989D01*
X179036089Y-95763147D01*
X179034028Y-95774016D01*
X179033908Y-95774523D01*
X179033303Y-95780151D01*
X179027501Y-95834123D01*
X179027500Y-95834135D01*
X179027500Y-98729870D01*
X179027501Y-98729876D01*
X179033908Y-98789483D01*
X179084202Y-98924328D01*
X179084206Y-98924335D01*
X179170452Y-99039544D01*
X179170455Y-99039547D01*
X179285664Y-99125793D01*
X179285671Y-99125797D01*
X179420517Y-99176091D01*
X179420516Y-99176091D01*
X179427444Y-99176835D01*
X179480127Y-99182500D01*
X182375872Y-99182499D01*
X182435483Y-99176091D01*
X182570331Y-99125796D01*
X182685546Y-99039546D01*
X182771796Y-98924331D01*
X182822091Y-98789483D01*
X182828500Y-98729873D01*
X182828499Y-95834128D01*
X182822091Y-95774517D01*
X182822088Y-95774510D01*
X182821974Y-95774024D01*
X182821995Y-95773625D01*
X182821262Y-95766804D01*
X182822366Y-95766685D01*
X182825710Y-95704254D01*
X182866573Y-95647580D01*
X182931589Y-95621994D01*
X182942649Y-95621500D01*
X184602305Y-95621500D01*
X184669344Y-95641185D01*
X184715099Y-95693989D01*
X184725043Y-95763147D01*
X184696018Y-95826703D01*
X184683505Y-95839215D01*
X184680255Y-95842030D01*
X184488038Y-96034247D01*
X184488028Y-96034259D01*
X184325110Y-96251891D01*
X184325109Y-96251892D01*
X184194830Y-96490480D01*
X184147326Y-96617843D01*
X184099825Y-96745199D01*
X184099824Y-96745202D01*
X184099823Y-96745206D01*
X184042040Y-97010832D01*
X184042039Y-97010839D01*
X184022645Y-97281998D01*
X184022645Y-97282001D01*
X184042039Y-97553160D01*
X184042040Y-97553167D01*
X184099823Y-97818793D01*
X184099825Y-97818801D01*
X184172083Y-98012532D01*
X184194830Y-98073519D01*
X184325109Y-98312107D01*
X184325110Y-98312108D01*
X184325113Y-98312113D01*
X184488029Y-98529742D01*
X184488033Y-98529746D01*
X184488038Y-98529752D01*
X184680247Y-98721961D01*
X184680253Y-98721966D01*
X184680258Y-98721971D01*
X184897887Y-98884887D01*
X184897891Y-98884889D01*
X184897892Y-98884890D01*
X185136481Y-99015169D01*
X185136480Y-99015169D01*
X185136484Y-99015170D01*
X185136487Y-99015172D01*
X185391199Y-99110175D01*
X185656840Y-99167961D01*
X185908605Y-99185967D01*
X185927999Y-99187355D01*
X185928000Y-99187355D01*
X185928001Y-99187355D01*
X185946100Y-99186060D01*
X186199160Y-99167961D01*
X186464801Y-99110175D01*
X186719513Y-99015172D01*
X186719517Y-99015169D01*
X186719519Y-99015169D01*
X186885882Y-98924328D01*
X186958113Y-98884887D01*
X187175742Y-98721971D01*
X187367971Y-98529742D01*
X187530887Y-98312113D01*
X187659669Y-98076266D01*
X187661169Y-98073519D01*
X187661169Y-98073517D01*
X187661172Y-98073513D01*
X187756175Y-97818801D01*
X187813961Y-97553160D01*
X187833355Y-97282000D01*
X187813961Y-97010840D01*
X187756175Y-96745199D01*
X187661172Y-96490487D01*
X187661170Y-96490484D01*
X187661169Y-96490480D01*
X187530890Y-96251892D01*
X187530889Y-96251891D01*
X187530887Y-96251887D01*
X187367971Y-96034258D01*
X187367966Y-96034253D01*
X187367961Y-96034247D01*
X187175744Y-95842030D01*
X187172495Y-95839215D01*
X187134719Y-95780438D01*
X187134717Y-95710569D01*
X187172490Y-95651789D01*
X187236044Y-95622763D01*
X187253695Y-95621500D01*
X196539548Y-95621500D01*
X196606587Y-95641185D01*
X196627228Y-95657818D01*
X197980241Y-97010832D01*
X198998331Y-98028922D01*
X198998337Y-98028927D01*
X202538181Y-101568771D01*
X202571666Y-101630094D01*
X202574500Y-101656452D01*
X202574500Y-125997622D01*
X202554815Y-126064661D01*
X202523889Y-126095185D01*
X202525032Y-126096698D01*
X202520460Y-126100149D01*
X202366691Y-126240328D01*
X202366688Y-126240331D01*
X202241288Y-126406387D01*
X202241283Y-126406395D01*
X202148535Y-126592658D01*
X202148532Y-126592664D01*
X202094800Y-126781516D01*
X202057521Y-126840610D01*
X201994211Y-126870167D01*
X201924972Y-126860805D01*
X201887853Y-126835263D01*
X201575819Y-126523229D01*
X201542334Y-126461906D01*
X201539500Y-126435548D01*
X201539500Y-119572393D01*
X201539499Y-119572389D01*
X201525646Y-119502742D01*
X201515463Y-119451548D01*
X201468311Y-119337714D01*
X201468310Y-119337713D01*
X201468307Y-119337707D01*
X201399859Y-119235268D01*
X201399858Y-119235267D01*
X201312733Y-119148142D01*
X201312732Y-119148141D01*
X197003819Y-114839228D01*
X196970334Y-114777905D01*
X196967500Y-114751547D01*
X196967500Y-110936393D01*
X196967499Y-110936389D01*
X196951974Y-110858338D01*
X196943463Y-110815548D01*
X196896311Y-110701714D01*
X196896310Y-110701713D01*
X196896307Y-110701707D01*
X196827858Y-110599267D01*
X196827855Y-110599263D01*
X196740736Y-110512144D01*
X196740732Y-110512141D01*
X196638292Y-110443692D01*
X196638283Y-110443687D01*
X196524454Y-110396538D01*
X196524455Y-110396538D01*
X196524452Y-110396537D01*
X196524448Y-110396536D01*
X196524444Y-110396535D01*
X196403610Y-110372500D01*
X196403606Y-110372500D01*
X191064452Y-110372500D01*
X190997413Y-110352815D01*
X190976771Y-110336181D01*
X190422960Y-109782370D01*
X190389475Y-109721047D01*
X190387323Y-109707671D01*
X190369674Y-109539744D01*
X190311179Y-109359716D01*
X190216533Y-109195784D01*
X190089871Y-109055112D01*
X190089870Y-109055111D01*
X189936734Y-108943851D01*
X189936729Y-108943848D01*
X189763807Y-108866857D01*
X189763802Y-108866855D01*
X189618001Y-108835865D01*
X189578646Y-108827500D01*
X189389354Y-108827500D01*
X189356897Y-108834398D01*
X189204197Y-108866855D01*
X189204192Y-108866857D01*
X189031270Y-108943848D01*
X189031265Y-108943851D01*
X188878129Y-109055111D01*
X188751466Y-109195785D01*
X188656821Y-109359715D01*
X188656818Y-109359722D01*
X188602611Y-109526555D01*
X188598326Y-109539744D01*
X188578540Y-109728000D01*
X188598326Y-109916256D01*
X188598327Y-109916259D01*
X188656818Y-110096277D01*
X188656821Y-110096284D01*
X188751467Y-110260216D01*
X188834844Y-110352815D01*
X188878129Y-110400888D01*
X189031265Y-110512148D01*
X189031270Y-110512151D01*
X189204192Y-110589142D01*
X189204197Y-110589144D01*
X189389354Y-110628500D01*
X189448548Y-110628500D01*
X189515587Y-110648185D01*
X189536229Y-110664819D01*
X190265016Y-111393606D01*
X190265045Y-111393637D01*
X190355263Y-111483855D01*
X190355267Y-111483858D01*
X190457707Y-111552307D01*
X190457713Y-111552310D01*
X190457714Y-111552311D01*
X190571548Y-111599463D01*
X190631971Y-111611481D01*
X190692393Y-111623500D01*
X190692394Y-111623500D01*
X195592500Y-111623500D01*
X195659539Y-111643185D01*
X195705294Y-111695989D01*
X195716500Y-111747500D01*
X195716500Y-115123611D01*
X195740535Y-115244444D01*
X195740540Y-115244461D01*
X195755695Y-115281048D01*
X195763164Y-115350517D01*
X195731889Y-115412996D01*
X195671800Y-115448648D01*
X195641134Y-115452500D01*
X175963748Y-115452500D01*
X175896709Y-115432815D01*
X175871600Y-115411474D01*
X175865873Y-115405114D01*
X175865869Y-115405110D01*
X175712734Y-115293851D01*
X175712729Y-115293848D01*
X175539807Y-115216857D01*
X175539802Y-115216855D01*
X175394001Y-115185865D01*
X175354646Y-115177500D01*
X175165354Y-115177500D01*
X175132897Y-115184398D01*
X174980197Y-115216855D01*
X174980192Y-115216857D01*
X174807270Y-115293848D01*
X174807265Y-115293851D01*
X174654129Y-115405111D01*
X174527465Y-115545785D01*
X174447547Y-115684208D01*
X174396980Y-115732424D01*
X174328373Y-115745646D01*
X174263508Y-115719678D01*
X174252479Y-115709889D01*
X169400928Y-110858338D01*
X169400925Y-110858334D01*
X169400925Y-110858335D01*
X169393858Y-110851268D01*
X169393858Y-110851267D01*
X169306733Y-110764142D01*
X169306732Y-110764141D01*
X169306731Y-110764140D01*
X169255509Y-110729915D01*
X169213304Y-110701714D01*
X169204286Y-110695688D01*
X169204283Y-110695686D01*
X169204280Y-110695685D01*
X169123792Y-110662347D01*
X169090453Y-110648537D01*
X169080427Y-110646543D01*
X169030029Y-110636518D01*
X168969610Y-110624500D01*
X168969607Y-110624500D01*
X168969606Y-110624500D01*
X163185961Y-110624500D01*
X163118922Y-110604815D01*
X163084387Y-110571625D01*
X162987632Y-110433445D01*
X162831055Y-110276868D01*
X162649667Y-110149858D01*
X162526407Y-110092381D01*
X162473968Y-110046210D01*
X162454816Y-109979017D01*
X162475031Y-109912136D01*
X162526408Y-109867618D01*
X162649667Y-109810142D01*
X162831055Y-109683132D01*
X162987632Y-109526555D01*
X163114642Y-109345167D01*
X163208223Y-109144480D01*
X163265535Y-108930591D01*
X163284834Y-108710000D01*
X163265535Y-108489409D01*
X163208223Y-108275520D01*
X163114642Y-108074833D01*
X162987632Y-107893445D01*
X162831055Y-107736868D01*
X162649667Y-107609858D01*
X162526407Y-107552381D01*
X162473968Y-107506210D01*
X162454816Y-107439017D01*
X162475031Y-107372136D01*
X162526408Y-107327618D01*
X162649667Y-107270142D01*
X162831055Y-107143132D01*
X162987632Y-106986555D01*
X163114642Y-106805167D01*
X163208223Y-106604480D01*
X163265535Y-106390591D01*
X163284834Y-106170000D01*
X163265535Y-105949409D01*
X163208223Y-105735520D01*
X163114642Y-105534833D01*
X162987632Y-105353445D01*
X162831055Y-105196868D01*
X162649667Y-105069858D01*
X162526407Y-105012381D01*
X162473968Y-104966210D01*
X162454816Y-104899017D01*
X162475031Y-104832136D01*
X162526408Y-104787618D01*
X162649667Y-104730142D01*
X162831055Y-104603132D01*
X162987632Y-104446555D01*
X163114642Y-104265167D01*
X163208223Y-104064480D01*
X163265535Y-103850591D01*
X163284834Y-103630000D01*
X163265535Y-103409409D01*
X163208223Y-103195520D01*
X163114642Y-102994833D01*
X162987632Y-102813445D01*
X162831055Y-102656868D01*
X162649667Y-102529858D01*
X162649663Y-102529856D01*
X162448986Y-102436279D01*
X162448975Y-102436275D01*
X162235092Y-102378965D01*
X162235085Y-102378964D01*
X162014502Y-102359666D01*
X162014498Y-102359666D01*
X161793914Y-102378964D01*
X161793907Y-102378965D01*
X161580024Y-102436275D01*
X161580013Y-102436279D01*
X161379336Y-102529856D01*
X161379334Y-102529857D01*
X161197944Y-102656868D01*
X161041368Y-102813444D01*
X160914357Y-102994834D01*
X160914356Y-102994836D01*
X160820779Y-103195513D01*
X160820775Y-103195524D01*
X160763465Y-103409407D01*
X160763464Y-103409414D01*
X160744166Y-103629998D01*
X160744166Y-103630001D01*
X160763464Y-103850585D01*
X160763465Y-103850592D01*
X160820775Y-104064475D01*
X160820779Y-104064486D01*
X160914356Y-104265163D01*
X160914358Y-104265167D01*
X161041368Y-104446555D01*
X161197945Y-104603132D01*
X161379333Y-104730142D01*
X161441328Y-104759050D01*
X161502591Y-104787618D01*
X161555031Y-104833790D01*
X161574183Y-104900983D01*
X161553967Y-104967865D01*
X161502591Y-105012382D01*
X161379336Y-105069856D01*
X161379334Y-105069857D01*
X161197944Y-105196868D01*
X161041368Y-105353444D01*
X160914357Y-105534834D01*
X160914356Y-105534836D01*
X160820779Y-105735513D01*
X160820775Y-105735524D01*
X160763465Y-105949407D01*
X160763464Y-105949414D01*
X160744166Y-106169998D01*
X160744166Y-106170001D01*
X160763464Y-106390585D01*
X160763465Y-106390592D01*
X160820775Y-106604475D01*
X160820779Y-106604486D01*
X160914356Y-106805163D01*
X160914358Y-106805167D01*
X161041368Y-106986555D01*
X161197945Y-107143132D01*
X161379333Y-107270142D01*
X161441328Y-107299050D01*
X161502591Y-107327618D01*
X161555031Y-107373790D01*
X161574183Y-107440983D01*
X161553967Y-107507865D01*
X161502591Y-107552382D01*
X161379336Y-107609856D01*
X161379334Y-107609857D01*
X161197944Y-107736868D01*
X161041368Y-107893444D01*
X160914357Y-108074834D01*
X160914356Y-108074836D01*
X160820779Y-108275513D01*
X160820775Y-108275524D01*
X160763465Y-108489407D01*
X160763464Y-108489414D01*
X160744166Y-108709998D01*
X160744166Y-108710001D01*
X160763464Y-108930585D01*
X160763465Y-108930592D01*
X160820775Y-109144475D01*
X160820779Y-109144486D01*
X160914356Y-109345163D01*
X160914358Y-109345167D01*
X161041368Y-109526555D01*
X161197945Y-109683132D01*
X161379333Y-109810142D01*
X161441328Y-109839050D01*
X161502591Y-109867618D01*
X161555031Y-109913790D01*
X161574183Y-109980983D01*
X161553967Y-110047865D01*
X161502591Y-110092382D01*
X161379336Y-110149856D01*
X161379334Y-110149857D01*
X161197944Y-110276868D01*
X161041368Y-110433444D01*
X160914357Y-110614834D01*
X160914356Y-110614836D01*
X160820779Y-110815513D01*
X160820775Y-110815524D01*
X160763465Y-111029407D01*
X160763464Y-111029414D01*
X160744166Y-111249998D01*
X160744166Y-111250001D01*
X160763464Y-111470585D01*
X160763465Y-111470592D01*
X160820775Y-111684475D01*
X160820779Y-111684486D01*
X160850163Y-111747500D01*
X160914358Y-111885167D01*
X161041368Y-112066555D01*
X161197945Y-112223132D01*
X161379333Y-112350142D01*
X161441328Y-112379050D01*
X161502591Y-112407618D01*
X161555031Y-112453790D01*
X161574183Y-112520983D01*
X161553967Y-112587865D01*
X161502591Y-112632382D01*
X161379336Y-112689856D01*
X161379334Y-112689857D01*
X161197944Y-112816868D01*
X161041368Y-112973444D01*
X160914357Y-113154834D01*
X160914356Y-113154836D01*
X160820779Y-113355513D01*
X160820775Y-113355524D01*
X160763465Y-113569407D01*
X160763464Y-113569414D01*
X160744166Y-113789998D01*
X160744166Y-113790001D01*
X160763464Y-114010585D01*
X160763465Y-114010592D01*
X160820775Y-114224475D01*
X160820779Y-114224486D01*
X160899891Y-114394142D01*
X160914358Y-114425167D01*
X161041368Y-114606555D01*
X161197945Y-114763132D01*
X161379333Y-114890142D01*
X161441328Y-114919050D01*
X161502591Y-114947618D01*
X161555031Y-114993790D01*
X161574183Y-115060983D01*
X161553967Y-115127865D01*
X161502591Y-115172382D01*
X161379336Y-115229856D01*
X161379334Y-115229857D01*
X161197944Y-115356868D01*
X161041368Y-115513444D01*
X160914357Y-115694834D01*
X160914356Y-115694836D01*
X160820779Y-115895513D01*
X160820775Y-115895524D01*
X160763465Y-116109407D01*
X160763464Y-116109414D01*
X160744166Y-116329998D01*
X160744166Y-116330001D01*
X160763464Y-116550585D01*
X160763465Y-116550592D01*
X160820775Y-116764475D01*
X160820779Y-116764486D01*
X160902223Y-116939144D01*
X160914358Y-116965167D01*
X161041368Y-117146555D01*
X161197945Y-117303132D01*
X161379333Y-117430142D01*
X161441328Y-117459050D01*
X161502591Y-117487618D01*
X161555031Y-117533790D01*
X161574183Y-117600983D01*
X161553967Y-117667865D01*
X161502591Y-117712382D01*
X161379336Y-117769856D01*
X161379334Y-117769857D01*
X161197944Y-117896868D01*
X161041368Y-118053444D01*
X160914357Y-118234834D01*
X160914356Y-118234836D01*
X160820779Y-118435513D01*
X160820775Y-118435524D01*
X160763465Y-118649407D01*
X160763464Y-118649414D01*
X160744166Y-118869998D01*
X160744166Y-118870001D01*
X160763464Y-119090585D01*
X160763465Y-119090592D01*
X160820775Y-119304475D01*
X160820779Y-119304486D01*
X160913227Y-119502742D01*
X160914358Y-119505167D01*
X160961431Y-119572394D01*
X161041368Y-119686555D01*
X161197941Y-119843128D01*
X161197951Y-119843137D01*
X161363205Y-119958850D01*
X161406830Y-120013427D01*
X161411027Y-120027287D01*
X161411286Y-120027209D01*
X161413034Y-120032945D01*
X161458285Y-120142193D01*
X161465753Y-120211662D01*
X161434477Y-120274141D01*
X161396130Y-120302025D01*
X161379334Y-120309857D01*
X161197944Y-120436868D01*
X161041368Y-120593444D01*
X160914357Y-120774834D01*
X160914356Y-120774836D01*
X160820779Y-120975513D01*
X160820775Y-120975524D01*
X160763465Y-121189407D01*
X160763464Y-121189414D01*
X160744166Y-121409998D01*
X160744166Y-121410001D01*
X160763464Y-121630585D01*
X160763465Y-121630592D01*
X160820775Y-121844475D01*
X160820779Y-121844486D01*
X160909280Y-122034277D01*
X160914358Y-122045167D01*
X161041368Y-122226555D01*
X161197945Y-122383132D01*
X161379333Y-122510142D01*
X161441328Y-122539050D01*
X161502591Y-122567618D01*
X161555031Y-122613790D01*
X161574183Y-122680983D01*
X161553967Y-122747865D01*
X161502591Y-122792382D01*
X161379336Y-122849856D01*
X161379334Y-122849857D01*
X161197944Y-122976868D01*
X161041368Y-123133444D01*
X160914357Y-123314834D01*
X160914356Y-123314836D01*
X160820779Y-123515513D01*
X160820775Y-123515524D01*
X160763465Y-123729407D01*
X160763464Y-123729414D01*
X160744166Y-123949998D01*
X160744166Y-123950001D01*
X160763464Y-124170585D01*
X160763465Y-124170592D01*
X160820775Y-124384475D01*
X160820779Y-124384486D01*
X160914356Y-124585163D01*
X160914358Y-124585167D01*
X161041368Y-124766555D01*
X161197945Y-124923132D01*
X161379333Y-125050142D01*
X161441328Y-125079050D01*
X161502591Y-125107618D01*
X161555031Y-125153790D01*
X161574183Y-125220983D01*
X161553967Y-125287865D01*
X161502591Y-125332382D01*
X161379336Y-125389856D01*
X161379334Y-125389857D01*
X161197944Y-125516868D01*
X161041368Y-125673444D01*
X160914357Y-125854834D01*
X160914356Y-125854836D01*
X160820779Y-126055513D01*
X160820775Y-126055524D01*
X160763465Y-126269407D01*
X160763464Y-126269414D01*
X160744166Y-126489998D01*
X160744166Y-126490001D01*
X160763464Y-126710585D01*
X160763465Y-126710592D01*
X160820775Y-126924475D01*
X160820779Y-126924486D01*
X160914356Y-127125163D01*
X160914358Y-127125167D01*
X161041368Y-127306555D01*
X161197945Y-127463132D01*
X161379333Y-127590142D01*
X161386775Y-127593612D01*
X161502591Y-127647618D01*
X161555031Y-127693790D01*
X161574183Y-127760983D01*
X161553967Y-127827865D01*
X161502591Y-127872382D01*
X161379336Y-127929856D01*
X161379334Y-127929857D01*
X161197944Y-128056868D01*
X161041368Y-128213444D01*
X160914357Y-128394834D01*
X160914356Y-128394836D01*
X160820779Y-128595513D01*
X160820775Y-128595524D01*
X160763465Y-128809407D01*
X160763464Y-128809414D01*
X160744166Y-129029998D01*
X160744166Y-129030001D01*
X160763464Y-129250585D01*
X160763465Y-129250592D01*
X160820775Y-129464475D01*
X160820779Y-129464486D01*
X160914356Y-129665163D01*
X160914358Y-129665167D01*
X161041368Y-129846555D01*
X161197945Y-130003132D01*
X161379333Y-130130142D01*
X161441328Y-130159050D01*
X161502591Y-130187618D01*
X161555031Y-130233790D01*
X161574183Y-130300983D01*
X161553967Y-130367865D01*
X161502591Y-130412382D01*
X161379336Y-130469856D01*
X161379334Y-130469857D01*
X161197944Y-130596868D01*
X161041368Y-130753444D01*
X160914357Y-130934834D01*
X160914356Y-130934836D01*
X160820779Y-131135513D01*
X160820775Y-131135524D01*
X160763465Y-131349407D01*
X160763464Y-131349414D01*
X160744166Y-131569998D01*
X160744166Y-131570001D01*
X160763464Y-131790585D01*
X160763465Y-131790592D01*
X160820775Y-132004475D01*
X160820779Y-132004486D01*
X160914356Y-132205163D01*
X160914358Y-132205167D01*
X161041368Y-132386555D01*
X161197945Y-132543132D01*
X161379333Y-132670142D01*
X161441328Y-132699050D01*
X161502591Y-132727618D01*
X161555031Y-132773790D01*
X161574183Y-132840983D01*
X161553967Y-132907865D01*
X161502591Y-132952382D01*
X161379336Y-133009856D01*
X161379334Y-133009857D01*
X161197944Y-133136868D01*
X161041368Y-133293444D01*
X160914357Y-133474834D01*
X160914356Y-133474836D01*
X160820779Y-133675513D01*
X160820775Y-133675524D01*
X160763465Y-133889407D01*
X160763464Y-133889414D01*
X160744166Y-134109998D01*
X160744166Y-134110001D01*
X160763464Y-134330585D01*
X160763465Y-134330592D01*
X160820775Y-134544475D01*
X160820779Y-134544486D01*
X160886647Y-134685740D01*
X160914358Y-134745167D01*
X161041368Y-134926555D01*
X161197945Y-135083132D01*
X161379333Y-135210142D01*
X161441328Y-135239050D01*
X161502591Y-135267618D01*
X161555031Y-135313790D01*
X161574183Y-135380983D01*
X161553967Y-135447865D01*
X161502591Y-135492382D01*
X161379336Y-135549856D01*
X161379334Y-135549857D01*
X161197944Y-135676868D01*
X161041368Y-135833444D01*
X160914357Y-136014834D01*
X160914356Y-136014836D01*
X160820779Y-136215513D01*
X160820775Y-136215524D01*
X160763465Y-136429407D01*
X160763464Y-136429414D01*
X160744166Y-136649998D01*
X160744166Y-136650001D01*
X160763464Y-136870585D01*
X160763465Y-136870592D01*
X160820775Y-137084475D01*
X160820779Y-137084486D01*
X160884477Y-137221087D01*
X160914358Y-137285167D01*
X161041368Y-137466555D01*
X161197945Y-137623132D01*
X161379333Y-137750142D01*
X161438269Y-137777624D01*
X161502591Y-137807618D01*
X161555031Y-137853790D01*
X161574183Y-137920983D01*
X161553967Y-137987865D01*
X161502591Y-138032382D01*
X161379336Y-138089856D01*
X161379334Y-138089857D01*
X161197944Y-138216868D01*
X161041368Y-138373444D01*
X160987291Y-138450673D01*
X160944612Y-138511625D01*
X160890037Y-138555249D01*
X160843039Y-138564500D01*
X159198389Y-138564500D01*
X159137971Y-138576518D01*
X159077548Y-138588537D01*
X159077543Y-138588538D01*
X159043546Y-138602620D01*
X159030397Y-138608067D01*
X159012607Y-138615436D01*
X158963713Y-138635688D01*
X158953557Y-138642475D01*
X158953449Y-138642547D01*
X158861268Y-138704140D01*
X158817705Y-138747703D01*
X158774142Y-138791267D01*
X158774139Y-138791270D01*
X155754229Y-141811181D01*
X155692906Y-141844666D01*
X155666548Y-141847500D01*
X155607354Y-141847500D01*
X155574897Y-141854398D01*
X155422197Y-141886855D01*
X155422192Y-141886857D01*
X155249270Y-141963848D01*
X155249265Y-141963851D01*
X155096129Y-142075111D01*
X154969466Y-142215785D01*
X154874821Y-142379715D01*
X154874818Y-142379722D01*
X154846242Y-142467672D01*
X154816326Y-142559744D01*
X154796540Y-142748000D01*
X154816326Y-142936256D01*
X154816327Y-142936259D01*
X154874818Y-143116277D01*
X154874821Y-143116284D01*
X154969467Y-143280216D01*
X154984461Y-143296868D01*
X155096129Y-143420888D01*
X155249265Y-143532148D01*
X155249270Y-143532151D01*
X155422192Y-143609142D01*
X155422197Y-143609144D01*
X155607354Y-143648500D01*
X155607355Y-143648500D01*
X155796644Y-143648500D01*
X155796646Y-143648500D01*
X155981803Y-143609144D01*
X156154730Y-143532151D01*
X156307871Y-143420888D01*
X156434533Y-143280216D01*
X156529179Y-143116284D01*
X156587674Y-142936256D01*
X156605321Y-142768345D01*
X156631905Y-142703732D01*
X156640952Y-142693636D01*
X159482771Y-139851819D01*
X159544094Y-139818334D01*
X159570452Y-139815500D01*
X160843039Y-139815500D01*
X160910078Y-139835185D01*
X160944612Y-139868374D01*
X161041368Y-140006555D01*
X161197945Y-140163132D01*
X161379333Y-140290142D01*
X161386775Y-140293612D01*
X161502591Y-140347618D01*
X161555031Y-140393790D01*
X161574183Y-140460983D01*
X161553967Y-140527865D01*
X161502591Y-140572382D01*
X161379336Y-140629856D01*
X161379334Y-140629857D01*
X161197944Y-140756868D01*
X161041368Y-140913444D01*
X160914357Y-141094834D01*
X160914356Y-141094836D01*
X160820779Y-141295513D01*
X160820775Y-141295524D01*
X160763465Y-141509407D01*
X160763464Y-141509414D01*
X160744166Y-141729998D01*
X160744166Y-141730000D01*
X160763464Y-141950585D01*
X160763465Y-141950589D01*
X160763465Y-141950593D01*
X160775758Y-141996470D01*
X160774095Y-142066320D01*
X160743664Y-142116244D01*
X156878875Y-145981034D01*
X153017270Y-149842639D01*
X153017267Y-149842642D01*
X152973704Y-149886204D01*
X152930142Y-149929766D01*
X152925758Y-149936328D01*
X152899584Y-149975500D01*
X152886431Y-149995185D01*
X152861684Y-150032220D01*
X152828347Y-150112707D01*
X152824631Y-150121678D01*
X152814537Y-150146045D01*
X152814535Y-150146053D01*
X152790500Y-150266889D01*
X152790500Y-163299853D01*
X152770815Y-163366892D01*
X152718011Y-163412647D01*
X152648853Y-163422591D01*
X152585297Y-163393566D01*
X152578819Y-163387534D01*
X151791819Y-162600534D01*
X151758334Y-162539211D01*
X151755500Y-162512853D01*
X151755500Y-157670687D01*
X151775185Y-157603648D01*
X151787350Y-157587715D01*
X151812950Y-157559283D01*
X151862533Y-157504216D01*
X151957179Y-157340284D01*
X152015674Y-157160256D01*
X152035460Y-156972000D01*
X152015674Y-156783744D01*
X151957179Y-156603716D01*
X151862533Y-156439784D01*
X151735871Y-156299112D01*
X151735870Y-156299111D01*
X151582734Y-156187851D01*
X151582729Y-156187848D01*
X151409807Y-156110857D01*
X151409802Y-156110855D01*
X151250917Y-156077084D01*
X151224646Y-156071500D01*
X151035354Y-156071500D01*
X151009083Y-156077084D01*
X150850197Y-156110855D01*
X150850192Y-156110857D01*
X150677270Y-156187848D01*
X150677265Y-156187851D01*
X150524129Y-156299111D01*
X150397466Y-156439785D01*
X150302821Y-156603715D01*
X150302818Y-156603722D01*
X150244327Y-156783740D01*
X150244326Y-156783744D01*
X150224540Y-156972000D01*
X140424659Y-156972000D01*
X140424834Y-156970000D01*
X140405535Y-156749409D01*
X140348223Y-156535520D01*
X140254642Y-156334833D01*
X140127632Y-156153445D01*
X139971055Y-155996868D01*
X139789667Y-155869858D01*
X139725320Y-155839853D01*
X139666408Y-155812382D01*
X139613968Y-155766210D01*
X139594816Y-155699017D01*
X139615031Y-155632136D01*
X139666408Y-155587618D01*
X139789667Y-155530142D01*
X139971055Y-155403132D01*
X140127632Y-155246555D01*
X140254642Y-155065167D01*
X140348223Y-154864480D01*
X140405535Y-154650591D01*
X140424834Y-154430000D01*
X140422957Y-154408550D01*
X140415438Y-154322599D01*
X140405535Y-154209409D01*
X140348223Y-153995520D01*
X140343995Y-153986454D01*
X140280324Y-153849909D01*
X140254642Y-153794833D01*
X140127632Y-153613445D01*
X139971055Y-153456868D01*
X139789667Y-153329858D01*
X139666407Y-153272381D01*
X139613968Y-153226210D01*
X139594816Y-153159017D01*
X139615031Y-153092136D01*
X139666408Y-153047618D01*
X139789667Y-152990142D01*
X139971055Y-152863132D01*
X140127632Y-152706555D01*
X140254642Y-152525167D01*
X140348223Y-152324480D01*
X140405535Y-152110591D01*
X140424834Y-151890000D01*
X140405535Y-151669409D01*
X140348223Y-151455520D01*
X140254642Y-151254833D01*
X140127632Y-151073445D01*
X139971055Y-150916868D01*
X139789667Y-150789858D01*
X139666407Y-150732381D01*
X139613968Y-150686210D01*
X139594816Y-150619017D01*
X139615031Y-150552136D01*
X139666408Y-150507618D01*
X139672333Y-150504855D01*
X139789667Y-150450142D01*
X139971055Y-150323132D01*
X140127632Y-150166555D01*
X140254642Y-149985167D01*
X140348223Y-149784480D01*
X140405535Y-149570591D01*
X140424834Y-149350000D01*
X140405535Y-149129409D01*
X140348223Y-148915520D01*
X140254642Y-148714833D01*
X140127632Y-148533445D01*
X139971055Y-148376868D01*
X139789667Y-148249858D01*
X139725320Y-148219853D01*
X139666408Y-148192382D01*
X139613968Y-148146210D01*
X139594816Y-148079017D01*
X139615031Y-148012136D01*
X139666408Y-147967618D01*
X139689380Y-147956906D01*
X139789667Y-147910142D01*
X139971055Y-147783132D01*
X140127632Y-147626555D01*
X140254642Y-147445167D01*
X140348223Y-147244480D01*
X140405535Y-147030591D01*
X140424834Y-146810000D01*
X140405535Y-146589409D01*
X140348223Y-146375520D01*
X140254642Y-146174833D01*
X140127632Y-145993445D01*
X139971055Y-145836868D01*
X139789667Y-145709858D01*
X139725320Y-145679853D01*
X139666408Y-145652382D01*
X139613968Y-145606210D01*
X139594816Y-145539017D01*
X139615031Y-145472136D01*
X139666408Y-145427618D01*
X139789667Y-145370142D01*
X139971055Y-145243132D01*
X140127632Y-145086555D01*
X140254642Y-144905167D01*
X140348223Y-144704480D01*
X140405535Y-144490591D01*
X140424834Y-144270000D01*
X140405535Y-144049409D01*
X140348223Y-143835520D01*
X140254642Y-143634833D01*
X140127632Y-143453445D01*
X139971055Y-143296868D01*
X139789667Y-143169858D01*
X139666407Y-143112381D01*
X139613968Y-143066210D01*
X139594816Y-142999017D01*
X139615031Y-142932136D01*
X139666408Y-142887618D01*
X139673095Y-142884500D01*
X139789667Y-142830142D01*
X139971055Y-142703132D01*
X140127632Y-142546555D01*
X140254642Y-142365167D01*
X140348223Y-142164480D01*
X140405535Y-141950591D01*
X140424834Y-141730000D01*
X140405535Y-141509409D01*
X140348223Y-141295520D01*
X140331984Y-141260696D01*
X140272513Y-141133158D01*
X140254642Y-141094833D01*
X140127632Y-140913445D01*
X139971055Y-140756868D01*
X139789667Y-140629858D01*
X139725320Y-140599853D01*
X139666408Y-140572382D01*
X139613968Y-140526210D01*
X139594816Y-140459017D01*
X139615031Y-140392136D01*
X139666408Y-140347618D01*
X139789667Y-140290142D01*
X139971055Y-140163132D01*
X140127632Y-140006555D01*
X140254642Y-139825167D01*
X140348223Y-139624480D01*
X140405535Y-139410591D01*
X140424834Y-139190000D01*
X140405535Y-138969409D01*
X140348223Y-138755520D01*
X140254642Y-138554833D01*
X140127632Y-138373445D01*
X139971055Y-138216868D01*
X139789667Y-138089858D01*
X139666407Y-138032381D01*
X139613968Y-137986210D01*
X139594816Y-137919017D01*
X139615031Y-137852136D01*
X139666408Y-137807618D01*
X139789667Y-137750142D01*
X139971055Y-137623132D01*
X140127632Y-137466555D01*
X140254642Y-137285167D01*
X140348223Y-137084480D01*
X140405535Y-136870591D01*
X140424834Y-136650000D01*
X140405535Y-136429409D01*
X140348223Y-136215520D01*
X140254642Y-136014833D01*
X140127632Y-135833445D01*
X139971055Y-135676868D01*
X139789667Y-135549858D01*
X139666407Y-135492381D01*
X139613968Y-135446210D01*
X139594816Y-135379017D01*
X139615031Y-135312136D01*
X139666408Y-135267618D01*
X139789667Y-135210142D01*
X139971055Y-135083132D01*
X140127632Y-134926555D01*
X140254642Y-134745167D01*
X140348223Y-134544480D01*
X140405535Y-134330591D01*
X140424834Y-134110000D01*
X140405535Y-133889409D01*
X140348223Y-133675520D01*
X140254642Y-133474833D01*
X140127632Y-133293445D01*
X139971055Y-133136868D01*
X139789667Y-133009858D01*
X139666407Y-132952381D01*
X139613968Y-132906210D01*
X139594816Y-132839017D01*
X139615031Y-132772136D01*
X139666408Y-132727618D01*
X139789667Y-132670142D01*
X139971055Y-132543132D01*
X140127632Y-132386555D01*
X140254642Y-132205167D01*
X140348223Y-132004480D01*
X140405535Y-131790591D01*
X140424834Y-131570000D01*
X140405535Y-131349409D01*
X140348223Y-131135520D01*
X140254642Y-130934833D01*
X140127632Y-130753445D01*
X139971055Y-130596868D01*
X139789667Y-130469858D01*
X139666407Y-130412381D01*
X139613968Y-130366210D01*
X139594816Y-130299017D01*
X139615031Y-130232136D01*
X139666408Y-130187618D01*
X139673118Y-130184489D01*
X139789667Y-130130142D01*
X139971055Y-130003132D01*
X140127632Y-129846555D01*
X140254642Y-129665167D01*
X140348223Y-129464480D01*
X140405535Y-129250591D01*
X140424834Y-129030000D01*
X140405535Y-128809409D01*
X140348223Y-128595520D01*
X140254642Y-128394833D01*
X140127632Y-128213445D01*
X139971055Y-128056868D01*
X139789667Y-127929858D01*
X139725320Y-127899853D01*
X139666408Y-127872382D01*
X139613968Y-127826210D01*
X139594816Y-127759017D01*
X139615031Y-127692136D01*
X139666408Y-127647618D01*
X139789667Y-127590142D01*
X139971055Y-127463132D01*
X140127632Y-127306555D01*
X140254642Y-127125167D01*
X140348223Y-126924480D01*
X140405535Y-126710591D01*
X140424834Y-126490000D01*
X140405535Y-126269409D01*
X140348223Y-126055520D01*
X140254642Y-125854833D01*
X140127632Y-125673445D01*
X139971055Y-125516868D01*
X139789667Y-125389858D01*
X139666407Y-125332381D01*
X139613968Y-125286210D01*
X139594816Y-125219017D01*
X139615031Y-125152136D01*
X139666408Y-125107618D01*
X139789667Y-125050142D01*
X139971055Y-124923132D01*
X140127632Y-124766555D01*
X140254642Y-124585167D01*
X140348223Y-124384480D01*
X140405535Y-124170591D01*
X140424834Y-123950000D01*
X140405535Y-123729409D01*
X140348223Y-123515520D01*
X140254642Y-123314833D01*
X140127632Y-123133445D01*
X139971055Y-122976868D01*
X139789667Y-122849858D01*
X139666407Y-122792381D01*
X139613968Y-122746210D01*
X139594816Y-122679017D01*
X139615031Y-122612136D01*
X139666408Y-122567618D01*
X139668806Y-122566500D01*
X139789667Y-122510142D01*
X139971055Y-122383132D01*
X140127632Y-122226555D01*
X140254642Y-122045167D01*
X140348223Y-121844480D01*
X140405535Y-121630591D01*
X140424834Y-121410000D01*
X140405535Y-121189409D01*
X140348223Y-120975520D01*
X140254642Y-120774833D01*
X140127632Y-120593445D01*
X139971055Y-120436868D01*
X139789667Y-120309858D01*
X139666407Y-120252381D01*
X139613968Y-120206210D01*
X139594816Y-120139017D01*
X139615031Y-120072136D01*
X139666408Y-120027618D01*
X139696841Y-120013427D01*
X139789667Y-119970142D01*
X139971055Y-119843132D01*
X140127632Y-119686555D01*
X140254642Y-119505167D01*
X140348223Y-119304480D01*
X140405535Y-119090591D01*
X140424834Y-118870000D01*
X140405535Y-118649409D01*
X140348223Y-118435520D01*
X140254642Y-118234833D01*
X140127632Y-118053445D01*
X139971055Y-117896868D01*
X139789667Y-117769858D01*
X139666407Y-117712381D01*
X139613968Y-117666210D01*
X139594816Y-117599017D01*
X139615031Y-117532136D01*
X139666408Y-117487618D01*
X139789667Y-117430142D01*
X139971055Y-117303132D01*
X140127632Y-117146555D01*
X140254642Y-116965167D01*
X140348223Y-116764480D01*
X140405535Y-116550591D01*
X140424834Y-116330000D01*
X140405535Y-116109409D01*
X140348223Y-115895520D01*
X140325113Y-115845961D01*
X140266227Y-115719678D01*
X140254642Y-115694833D01*
X140127632Y-115513445D01*
X139971055Y-115356868D01*
X139789667Y-115229858D01*
X139666407Y-115172381D01*
X139613968Y-115126210D01*
X139594816Y-115059017D01*
X139615031Y-114992136D01*
X139666408Y-114947618D01*
X139789667Y-114890142D01*
X139971055Y-114763132D01*
X140127632Y-114606555D01*
X140254642Y-114425167D01*
X140348223Y-114224480D01*
X140405535Y-114010591D01*
X140424834Y-113790000D01*
X140405535Y-113569409D01*
X140348223Y-113355520D01*
X140254642Y-113154833D01*
X140127632Y-112973445D01*
X139971055Y-112816868D01*
X139789667Y-112689858D01*
X139666407Y-112632381D01*
X139613968Y-112586210D01*
X139594816Y-112519017D01*
X139615031Y-112452136D01*
X139666408Y-112407618D01*
X139789667Y-112350142D01*
X139971055Y-112223132D01*
X140127632Y-112066555D01*
X140254642Y-111885167D01*
X140348223Y-111684480D01*
X140405535Y-111470591D01*
X140424834Y-111250000D01*
X140405535Y-111029409D01*
X140348223Y-110815520D01*
X140254642Y-110614833D01*
X140127632Y-110433445D01*
X139971055Y-110276868D01*
X139789667Y-110149858D01*
X139666407Y-110092381D01*
X139613968Y-110046210D01*
X139594816Y-109979017D01*
X139615031Y-109912136D01*
X139666408Y-109867618D01*
X139789667Y-109810142D01*
X139971055Y-109683132D01*
X140127632Y-109526555D01*
X140254642Y-109345167D01*
X140348223Y-109144480D01*
X140405535Y-108930591D01*
X140424834Y-108710000D01*
X140405535Y-108489409D01*
X140348223Y-108275520D01*
X140254642Y-108074833D01*
X140127632Y-107893445D01*
X139971055Y-107736868D01*
X139789667Y-107609858D01*
X139666407Y-107552381D01*
X139613968Y-107506210D01*
X139594816Y-107439017D01*
X139615031Y-107372136D01*
X139666408Y-107327618D01*
X139789667Y-107270142D01*
X139971055Y-107143132D01*
X140127632Y-106986555D01*
X140254642Y-106805167D01*
X140348223Y-106604480D01*
X140405535Y-106390591D01*
X140424834Y-106170000D01*
X140405535Y-105949409D01*
X140348223Y-105735520D01*
X140254642Y-105534833D01*
X140127632Y-105353445D01*
X139971055Y-105196868D01*
X139789667Y-105069858D01*
X139666407Y-105012381D01*
X139613968Y-104966210D01*
X139594816Y-104899017D01*
X139615031Y-104832136D01*
X139666408Y-104787618D01*
X139789667Y-104730142D01*
X139971055Y-104603132D01*
X140127632Y-104446555D01*
X140254642Y-104265167D01*
X140348223Y-104064480D01*
X140405535Y-103850591D01*
X140424834Y-103630000D01*
X140405535Y-103409409D01*
X140348223Y-103195520D01*
X140254642Y-102994833D01*
X140127632Y-102813445D01*
X139971055Y-102656868D01*
X139971050Y-102656864D01*
X139971047Y-102656862D01*
X139832876Y-102560112D01*
X139789251Y-102505535D01*
X139780000Y-102458538D01*
X139780000Y-101246893D01*
X139779999Y-101246889D01*
X139755964Y-101126055D01*
X139755963Y-101126048D01*
X139708811Y-101012214D01*
X139708810Y-101012213D01*
X139708807Y-101012207D01*
X139640358Y-100909767D01*
X139640355Y-100909763D01*
X139550137Y-100819545D01*
X139550106Y-100819516D01*
X138860960Y-100130370D01*
X138827475Y-100069047D01*
X138825323Y-100055671D01*
X138807674Y-99887744D01*
X138749179Y-99707716D01*
X138654533Y-99543784D01*
X138527871Y-99403112D01*
X138527870Y-99403111D01*
X138374734Y-99291851D01*
X138374729Y-99291848D01*
X138201807Y-99214857D01*
X138201802Y-99214855D01*
X138019426Y-99176091D01*
X138016646Y-99175500D01*
X137827354Y-99175500D01*
X137824574Y-99176091D01*
X137642197Y-99214855D01*
X137642192Y-99214857D01*
X137469270Y-99291848D01*
X137469265Y-99291851D01*
X137316129Y-99403111D01*
X137189466Y-99543785D01*
X137094821Y-99707715D01*
X137094818Y-99707722D01*
X137036327Y-99887740D01*
X137036326Y-99887744D01*
X137016540Y-100076000D01*
X135430000Y-100076000D01*
X135430000Y-92331920D01*
X136932562Y-92331920D01*
X136932562Y-92580079D01*
X136973408Y-92824862D01*
X137053984Y-93059572D01*
X137053989Y-93059582D01*
X137172094Y-93277822D01*
X137172100Y-93277831D01*
X137324517Y-93473656D01*
X137324520Y-93473660D01*
X137324522Y-93473662D01*
X137324523Y-93473663D01*
X137507102Y-93641739D01*
X137507104Y-93641740D01*
X137672856Y-93750032D01*
X137714855Y-93777471D01*
X137942116Y-93877157D01*
X138182685Y-93938077D01*
X138265123Y-93944908D01*
X138429994Y-93958571D01*
X138430000Y-93958571D01*
X138430006Y-93958571D01*
X138578389Y-93946274D01*
X138677315Y-93938077D01*
X138917884Y-93877157D01*
X139145145Y-93777471D01*
X139352898Y-93641739D01*
X139535477Y-93473663D01*
X139687902Y-93277828D01*
X139806014Y-93059576D01*
X139886592Y-92824859D01*
X139927438Y-92580081D01*
X139928345Y-92536135D01*
X167617500Y-92536135D01*
X167617500Y-95931870D01*
X167617501Y-95931876D01*
X167623908Y-95991483D01*
X167674202Y-96126328D01*
X167674206Y-96126335D01*
X167760452Y-96241544D01*
X167760455Y-96241547D01*
X167875664Y-96327793D01*
X167875671Y-96327797D01*
X168010517Y-96378091D01*
X168010516Y-96378091D01*
X168017444Y-96378835D01*
X168070127Y-96384500D01*
X170765872Y-96384499D01*
X170825483Y-96378091D01*
X170960331Y-96327796D01*
X171075546Y-96241546D01*
X171161796Y-96126331D01*
X171212091Y-95991483D01*
X171218500Y-95931873D01*
X171218499Y-92536128D01*
X171212091Y-92476517D01*
X171196848Y-92435649D01*
X171161797Y-92341671D01*
X171161793Y-92341664D01*
X171075547Y-92226455D01*
X171075544Y-92226452D01*
X170960335Y-92140206D01*
X170960328Y-92140202D01*
X170825482Y-92089908D01*
X170825483Y-92089908D01*
X170765883Y-92083501D01*
X170765881Y-92083500D01*
X170765873Y-92083500D01*
X170765864Y-92083500D01*
X168070129Y-92083500D01*
X168070123Y-92083501D01*
X168010516Y-92089908D01*
X167875671Y-92140202D01*
X167875664Y-92140206D01*
X167760455Y-92226452D01*
X167760452Y-92226455D01*
X167674206Y-92341664D01*
X167674202Y-92341671D01*
X167623908Y-92476517D01*
X167620269Y-92510369D01*
X167617501Y-92536123D01*
X167617500Y-92536135D01*
X139928345Y-92536135D01*
X139930000Y-92456000D01*
X139927438Y-92331919D01*
X139886592Y-92087141D01*
X139806014Y-91852424D01*
X139708291Y-91671848D01*
X139687905Y-91634177D01*
X139687899Y-91634168D01*
X139535482Y-91438343D01*
X139535479Y-91438339D01*
X139352899Y-91270262D01*
X139352895Y-91270259D01*
X139145146Y-91134529D01*
X138917884Y-91034843D01*
X138677311Y-90973922D01*
X138430006Y-90953430D01*
X138429994Y-90953430D01*
X138182688Y-90973922D01*
X137942115Y-91034843D01*
X137714853Y-91134529D01*
X137507104Y-91270259D01*
X137507100Y-91270262D01*
X137324520Y-91438339D01*
X137324517Y-91438343D01*
X137172100Y-91634168D01*
X137172094Y-91634177D01*
X137053989Y-91852417D01*
X137053984Y-91852427D01*
X136973408Y-92087137D01*
X136932562Y-92331920D01*
X135430000Y-92331920D01*
X135430000Y-89580000D01*
X135449685Y-89512961D01*
X135502489Y-89467206D01*
X135554000Y-89456000D01*
X237806000Y-89456000D01*
X237873039Y-89475685D01*
G37*
%TD.AperFunction*%
%TD*%
M02*
