%TF.GenerationSoftware,KiCad,Pcbnew,8.0.3*%
%TF.CreationDate,2024-08-26T23:53:34+05:30*%
%TF.ProjectId,Scout_Board,53636f75-745f-4426-9f61-72642e6b6963,rev?*%
%TF.SameCoordinates,Original*%
%TF.FileFunction,Soldermask,Bot*%
%TF.FilePolarity,Negative*%
%FSLAX46Y46*%
G04 Gerber Fmt 4.6, Leading zero omitted, Abs format (unit mm)*
G04 Created by KiCad (PCBNEW 8.0.3) date 2024-08-26 23:53:34*
%MOMM*%
%LPD*%
G01*
G04 APERTURE LIST*
G04 Aperture macros list*
%AMRoundRect*
0 Rectangle with rounded corners*
0 $1 Rounding radius*
0 $2 $3 $4 $5 $6 $7 $8 $9 X,Y pos of 4 corners*
0 Add a 4 corners polygon primitive as box body*
4,1,4,$2,$3,$4,$5,$6,$7,$8,$9,$2,$3,0*
0 Add four circle primitives for the rounded corners*
1,1,$1+$1,$2,$3*
1,1,$1+$1,$4,$5*
1,1,$1+$1,$6,$7*
1,1,$1+$1,$8,$9*
0 Add four rect primitives between the rounded corners*
20,1,$1+$1,$2,$3,$4,$5,0*
20,1,$1+$1,$4,$5,$6,$7,0*
20,1,$1+$1,$6,$7,$8,$9,0*
20,1,$1+$1,$8,$9,$2,$3,0*%
G04 Aperture macros list end*
%ADD10C,1.244600*%
%ADD11R,1.700000X1.700000*%
%ADD12O,1.700000X1.700000*%
%ADD13RoundRect,0.102000X0.765000X0.765000X-0.765000X0.765000X-0.765000X-0.765000X0.765000X-0.765000X0*%
%ADD14C,1.734000*%
%ADD15R,2.800000X2.800000*%
%ADD16C,2.800000*%
%ADD17C,1.320800*%
%ADD18O,4.764000X2.484000*%
%ADD19O,2.229000X4.254000*%
%ADD20O,4.254000X2.229000*%
%ADD21C,0.770000*%
G04 APERTURE END LIST*
D10*
%TO.C,Conn11*%
X211859999Y-147320000D03*
X213360000Y-147320000D03*
%TD*%
%TO.C,Conn12*%
X211859999Y-139700000D03*
X213360000Y-139700000D03*
%TD*%
D11*
%TO.C,J6*%
X222270000Y-154970000D03*
D12*
X219730000Y-154970000D03*
X222270000Y-157510000D03*
X219730000Y-157510000D03*
X222270000Y-160050000D03*
X219730000Y-160050000D03*
X222270000Y-162590000D03*
X219730000Y-162590000D03*
X222270000Y-165130000D03*
X219730000Y-165130000D03*
%TD*%
D13*
%TO.C,U2*%
X162014500Y-156970000D03*
D14*
X162014500Y-154430000D03*
X162014500Y-151890000D03*
X162014500Y-149350000D03*
X162014500Y-146810000D03*
X162014500Y-144270000D03*
X162014500Y-141730000D03*
X162014500Y-139190000D03*
X162014500Y-136650000D03*
X162014500Y-134110000D03*
X162014500Y-131570000D03*
X162014500Y-129030000D03*
X162014500Y-126490000D03*
X162014500Y-123950000D03*
X162014500Y-121410000D03*
X162014500Y-118870000D03*
X162014500Y-116330000D03*
X162014500Y-113790000D03*
X162014500Y-111250000D03*
X162014500Y-108710000D03*
X162014500Y-106170000D03*
X162014500Y-103630000D03*
X139154500Y-156970000D03*
X139154500Y-154430000D03*
X139154500Y-151890000D03*
X139154500Y-149350000D03*
X139154500Y-146810000D03*
X139154500Y-144270000D03*
X139154500Y-141730000D03*
X139154500Y-139190000D03*
X139154500Y-136650000D03*
X139154500Y-134110000D03*
X139154500Y-131570000D03*
X139154500Y-129030000D03*
X139154500Y-126490000D03*
X139154500Y-123950000D03*
X139154500Y-121410000D03*
X139154500Y-118870000D03*
X139154500Y-116330000D03*
X139154500Y-113790000D03*
X139154500Y-111250000D03*
X139154500Y-108710000D03*
X139154500Y-106170000D03*
X139154500Y-103630000D03*
%TD*%
D11*
%TO.C,J5*%
X229870000Y-155194000D03*
D12*
X227330000Y-155194000D03*
X229870000Y-157734000D03*
X227330000Y-157734000D03*
X229870000Y-160274000D03*
X227330000Y-160274000D03*
X229870000Y-162814000D03*
X227330000Y-162814000D03*
X229870000Y-165354000D03*
X227330000Y-165354000D03*
%TD*%
D10*
%TO.C,Conn10*%
X211859999Y-154940000D03*
X213360000Y-154940000D03*
%TD*%
%TO.C,Conn4*%
X203200000Y-134088001D03*
X204700001Y-134088001D03*
%TD*%
%TO.C,Conn9*%
X211859999Y-162560000D03*
X213360000Y-162560000D03*
%TD*%
D11*
%TO.C,J1*%
X172466000Y-148844000D03*
%TD*%
D10*
%TO.C,Conn1*%
X203200000Y-127000000D03*
X204700001Y-127000000D03*
%TD*%
%TO.C,Conn6*%
X203200000Y-149328001D03*
X204700001Y-149328001D03*
%TD*%
D15*
%TO.C,J4*%
X180928000Y-97282000D03*
D16*
X185928000Y-97282000D03*
%TD*%
D17*
%TO.C,Conn7*%
X194818000Y-155194000D03*
X193318001Y-155194000D03*
X191817999Y-155194000D03*
X190317999Y-155194000D03*
%TD*%
D10*
%TO.C,Conn8*%
X219479999Y-144780000D03*
X220980000Y-144780000D03*
%TD*%
D11*
%TO.C,J2*%
X171958000Y-154432000D03*
D12*
X174498000Y-154432000D03*
X177038000Y-154432000D03*
X179578000Y-154432000D03*
%TD*%
D10*
%TO.C,Conn2*%
X203200000Y-164568001D03*
X204700001Y-164568001D03*
%TD*%
D18*
%TO.C,J3*%
X226568000Y-98706000D03*
D19*
X221768000Y-95706000D03*
D20*
X226568000Y-92456000D03*
%TD*%
D10*
%TO.C,Conn3*%
X203200000Y-156948001D03*
X204700001Y-156948001D03*
%TD*%
D21*
%TO.C,U1*%
X168768000Y-92934000D03*
X168768000Y-94234000D03*
X168768000Y-95534000D03*
X170068000Y-92934000D03*
X170068000Y-94234000D03*
X170068000Y-95534000D03*
%TD*%
D10*
%TO.C,Conn5*%
X203200000Y-141708001D03*
X204700001Y-141708001D03*
%TD*%
M02*
