M48
; DRILL file {KiCad 8.0.5} date 2024-10-09T10:19:22-0400
; FORMAT={-:-/ absolute / metric / decimal}
; #@! TF.CreationDate,2024-10-09T10:19:22-04:00
; #@! TF.GenerationSoftware,Kicad,Pcbnew,8.0.5
; #@! TF.FileFunction,Plated,1,4,PTH
FMAT,2
METRIC
; #@! TA.AperFunction,Plated,PTH,ViaDrill
T1C0.400
; #@! TA.AperFunction,Plated,PTH,ComponentDrill
T2C0.800
; #@! TA.AperFunction,Plated,PTH,ComponentDrill
T3C1.000
; #@! TA.AperFunction,Plated,PTH,ComponentDrill
T4C1.020
; #@! TA.AperFunction,Plated,PTH,ComponentDrill
T5C1.100
; #@! TA.AperFunction,Plated,PTH,ComponentDrill
T6C1.168
%
G90
G05
T1
X187.198Y-146.558
X214.63Y-164.084
X216.324Y-170.547
X218.694Y-169.418
X222.25Y-170.644
X224.558Y-170.498
X227.96Y-171.406
X230.124Y-171.45
X230.378Y-152.654
X235.458Y-152.146
T2
X247.65Y-171.44
X247.65Y-184.14
X250.19Y-171.44
X250.19Y-184.14
X252.73Y-171.44
X252.73Y-184.14
X255.27Y-171.44
X255.27Y-184.14
X257.81Y-171.44
X257.81Y-184.14
X260.35Y-171.44
X260.35Y-184.14
X262.89Y-171.44
X262.89Y-184.14
X265.43Y-171.44
X265.43Y-184.14
T3
X170.18Y-138.684
X170.18Y-141.224
X170.18Y-143.764
X170.18Y-146.304
X177.8Y-134.5
X177.8Y-137.04
X177.8Y-182.88
X177.8Y-185.42
X177.84Y-144.78
X180.34Y-134.5
X180.34Y-137.04
X180.34Y-144.78
X180.34Y-182.88
X180.34Y-185.42
X182.88Y-134.5
X182.88Y-137.04
X182.88Y-182.88
X182.88Y-185.42
X185.42Y-134.5
X185.42Y-137.04
X185.42Y-182.88
X185.42Y-185.42
X187.96Y-134.5
X187.96Y-137.04
X187.96Y-182.88
X187.96Y-185.42
X190.5Y-134.5
X190.5Y-137.04
X190.5Y-182.88
X190.5Y-185.42
X193.04Y-134.5
X193.04Y-137.04
X193.04Y-182.88
X193.04Y-185.42
X195.58Y-134.5
X195.58Y-137.04
X195.58Y-182.88
X195.58Y-185.42
X195.62Y-144.78
X198.12Y-134.5
X198.12Y-137.04
X198.12Y-144.78
X198.12Y-182.88
X198.12Y-185.42
X200.66Y-134.5
X200.66Y-137.04
X200.66Y-182.88
X200.66Y-185.42
X203.2Y-134.5
X203.2Y-137.04
X203.2Y-182.88
X203.2Y-185.42
X205.74Y-134.5
X205.74Y-137.04
X205.74Y-182.88
X205.74Y-185.42
X208.28Y-134.5
X208.28Y-137.04
X208.28Y-182.88
X208.28Y-185.42
X210.82Y-134.5
X210.82Y-137.04
X210.82Y-182.88
X210.82Y-185.42
X213.36Y-134.5
X213.36Y-137.04
X213.36Y-182.88
X213.36Y-185.42
X215.9Y-134.5
X215.9Y-137.04
X215.9Y-182.88
X215.9Y-185.42
X218.44Y-134.5
X218.44Y-137.04
X218.44Y-182.88
X218.44Y-185.42
X220.98Y-134.5
X220.98Y-137.04
X220.98Y-182.88
X220.98Y-185.42
X223.52Y-134.5
X223.52Y-137.04
X223.52Y-182.88
X223.52Y-185.42
X226.06Y-134.5
X226.06Y-137.04
X226.06Y-182.88
X226.06Y-185.42
X228.6Y-134.5
X228.6Y-137.04
X228.6Y-182.88
X228.6Y-185.42
X231.14Y-134.5
X231.14Y-137.04
X231.14Y-182.88
X231.14Y-185.42
X233.68Y-134.5
X233.68Y-137.04
X233.68Y-144.78
X233.68Y-147.32
X233.68Y-182.88
X233.68Y-185.42
X236.22Y-134.5
X236.22Y-137.04
X236.22Y-144.78
X236.22Y-147.32
X238.76Y-134.5
X238.76Y-137.04
X238.76Y-144.78
X238.76Y-147.32
X241.3Y-144.78
X241.3Y-147.32
X243.84Y-144.78
X243.84Y-147.32
X246.38Y-144.78
X246.38Y-147.32
X248.92Y-144.78
X248.92Y-147.32
T4
X177.8Y-154.94
X177.8Y-177.8
X180.34Y-154.94
X180.34Y-177.8
X182.88Y-154.94
X182.88Y-177.8
X185.42Y-154.94
X185.42Y-177.8
X187.96Y-154.94
X187.96Y-177.8
X190.5Y-154.94
X190.5Y-177.8
X193.04Y-154.94
X193.04Y-177.8
X195.58Y-154.94
X195.58Y-177.8
X198.12Y-154.94
X198.12Y-177.8
X200.66Y-154.94
X200.66Y-177.8
X203.2Y-154.94
X203.2Y-177.8
X205.74Y-154.94
X205.74Y-177.8
X208.28Y-154.94
X208.28Y-177.8
X210.82Y-154.94
X210.82Y-177.8
X213.36Y-154.94
X213.36Y-177.8
X215.9Y-154.94
X215.9Y-177.8
X218.44Y-154.94
X218.44Y-177.8
X220.98Y-154.94
X220.98Y-177.8
X223.52Y-154.94
X223.52Y-177.8
X226.06Y-154.94
X226.06Y-177.8
X228.6Y-154.94
X228.6Y-177.8
X231.14Y-154.94
X231.14Y-177.8
T5
X170.434Y-130.556
X170.434Y-133.056
X245.618Y-130.302
X245.618Y-132.802
X245.618Y-135.302
X245.618Y-137.802
T6
X254.0Y-132.08
X254.0Y-134.62
X254.0Y-137.16
M30
