%TF.GenerationSoftware,KiCad,Pcbnew,8.0.5*%
%TF.CreationDate,2024-10-09T10:19:28-04:00*%
%TF.ProjectId,Scout_Board,53636f75-745f-4426-9f61-72642e6b6963,rev?*%
%TF.SameCoordinates,Original*%
%TF.FileFunction,Legend,Top*%
%TF.FilePolarity,Positive*%
%FSLAX46Y46*%
G04 Gerber Fmt 4.6, Leading zero omitted, Abs format (unit mm)*
G04 Created by KiCad (PCBNEW 8.0.5) date 2024-10-09 10:19:28*
%MOMM*%
%LPD*%
G01*
G04 APERTURE LIST*
%ADD10C,0.150000*%
%ADD11C,0.120000*%
%ADD12C,0.100000*%
%ADD13C,0.152400*%
%ADD14C,0.508000*%
%ADD15C,0.127000*%
%ADD16C,0.200000*%
G04 APERTURE END LIST*
D10*
X172247160Y-145777057D02*
X172294779Y-145729438D01*
X172294779Y-145729438D02*
X172390017Y-145681819D01*
X172390017Y-145681819D02*
X172628112Y-145681819D01*
X172628112Y-145681819D02*
X172723350Y-145729438D01*
X172723350Y-145729438D02*
X172770969Y-145777057D01*
X172770969Y-145777057D02*
X172818588Y-145872295D01*
X172818588Y-145872295D02*
X172818588Y-145967533D01*
X172818588Y-145967533D02*
X172770969Y-146110390D01*
X172770969Y-146110390D02*
X172199541Y-146681819D01*
X172199541Y-146681819D02*
X172818588Y-146681819D01*
X173151922Y-145681819D02*
X173770969Y-145681819D01*
X173770969Y-145681819D02*
X173437636Y-146062771D01*
X173437636Y-146062771D02*
X173580493Y-146062771D01*
X173580493Y-146062771D02*
X173675731Y-146110390D01*
X173675731Y-146110390D02*
X173723350Y-146158009D01*
X173723350Y-146158009D02*
X173770969Y-146253247D01*
X173770969Y-146253247D02*
X173770969Y-146491342D01*
X173770969Y-146491342D02*
X173723350Y-146586580D01*
X173723350Y-146586580D02*
X173675731Y-146634200D01*
X173675731Y-146634200D02*
X173580493Y-146681819D01*
X173580493Y-146681819D02*
X173294779Y-146681819D01*
X173294779Y-146681819D02*
X173199541Y-146634200D01*
X173199541Y-146634200D02*
X173151922Y-146586580D01*
X251510969Y-133997819D02*
X251034779Y-133997819D01*
X251034779Y-133997819D02*
X250987160Y-134474009D01*
X250987160Y-134474009D02*
X251034779Y-134426390D01*
X251034779Y-134426390D02*
X251130017Y-134378771D01*
X251130017Y-134378771D02*
X251368112Y-134378771D01*
X251368112Y-134378771D02*
X251463350Y-134426390D01*
X251463350Y-134426390D02*
X251510969Y-134474009D01*
X251510969Y-134474009D02*
X251558588Y-134569247D01*
X251558588Y-134569247D02*
X251558588Y-134807342D01*
X251558588Y-134807342D02*
X251510969Y-134902580D01*
X251510969Y-134902580D02*
X251463350Y-134950200D01*
X251463350Y-134950200D02*
X251368112Y-134997819D01*
X251368112Y-134997819D02*
X251130017Y-134997819D01*
X251130017Y-134997819D02*
X251034779Y-134950200D01*
X251034779Y-134950200D02*
X250987160Y-134902580D01*
X251844303Y-133997819D02*
X252177636Y-134997819D01*
X252177636Y-134997819D02*
X252510969Y-133997819D01*
X250796588Y-131505438D02*
X250701350Y-131457819D01*
X250701350Y-131457819D02*
X250558493Y-131457819D01*
X250558493Y-131457819D02*
X250415636Y-131505438D01*
X250415636Y-131505438D02*
X250320398Y-131600676D01*
X250320398Y-131600676D02*
X250272779Y-131695914D01*
X250272779Y-131695914D02*
X250225160Y-131886390D01*
X250225160Y-131886390D02*
X250225160Y-132029247D01*
X250225160Y-132029247D02*
X250272779Y-132219723D01*
X250272779Y-132219723D02*
X250320398Y-132314961D01*
X250320398Y-132314961D02*
X250415636Y-132410200D01*
X250415636Y-132410200D02*
X250558493Y-132457819D01*
X250558493Y-132457819D02*
X250653731Y-132457819D01*
X250653731Y-132457819D02*
X250796588Y-132410200D01*
X250796588Y-132410200D02*
X250844207Y-132362580D01*
X250844207Y-132362580D02*
X250844207Y-132029247D01*
X250844207Y-132029247D02*
X250653731Y-132029247D01*
X251272779Y-131791152D02*
X251272779Y-132457819D01*
X251272779Y-131886390D02*
X251320398Y-131838771D01*
X251320398Y-131838771D02*
X251415636Y-131791152D01*
X251415636Y-131791152D02*
X251558493Y-131791152D01*
X251558493Y-131791152D02*
X251653731Y-131838771D01*
X251653731Y-131838771D02*
X251701350Y-131934009D01*
X251701350Y-131934009D02*
X251701350Y-132457819D01*
X252606112Y-132457819D02*
X252606112Y-131457819D01*
X252606112Y-132410200D02*
X252510874Y-132457819D01*
X252510874Y-132457819D02*
X252320398Y-132457819D01*
X252320398Y-132457819D02*
X252225160Y-132410200D01*
X252225160Y-132410200D02*
X252177541Y-132362580D01*
X252177541Y-132362580D02*
X252129922Y-132267342D01*
X252129922Y-132267342D02*
X252129922Y-131981628D01*
X252129922Y-131981628D02*
X252177541Y-131886390D01*
X252177541Y-131886390D02*
X252225160Y-131838771D01*
X252225160Y-131838771D02*
X252320398Y-131791152D01*
X252320398Y-131791152D02*
X252510874Y-131791152D01*
X252510874Y-131791152D02*
X252606112Y-131838771D01*
X172247160Y-140697057D02*
X172294779Y-140649438D01*
X172294779Y-140649438D02*
X172390017Y-140601819D01*
X172390017Y-140601819D02*
X172628112Y-140601819D01*
X172628112Y-140601819D02*
X172723350Y-140649438D01*
X172723350Y-140649438D02*
X172770969Y-140697057D01*
X172770969Y-140697057D02*
X172818588Y-140792295D01*
X172818588Y-140792295D02*
X172818588Y-140887533D01*
X172818588Y-140887533D02*
X172770969Y-141030390D01*
X172770969Y-141030390D02*
X172199541Y-141601819D01*
X172199541Y-141601819D02*
X172818588Y-141601819D01*
X173151922Y-140601819D02*
X173770969Y-140601819D01*
X173770969Y-140601819D02*
X173437636Y-140982771D01*
X173437636Y-140982771D02*
X173580493Y-140982771D01*
X173580493Y-140982771D02*
X173675731Y-141030390D01*
X173675731Y-141030390D02*
X173723350Y-141078009D01*
X173723350Y-141078009D02*
X173770969Y-141173247D01*
X173770969Y-141173247D02*
X173770969Y-141411342D01*
X173770969Y-141411342D02*
X173723350Y-141506580D01*
X173723350Y-141506580D02*
X173675731Y-141554200D01*
X173675731Y-141554200D02*
X173580493Y-141601819D01*
X173580493Y-141601819D02*
X173294779Y-141601819D01*
X173294779Y-141601819D02*
X173199541Y-141554200D01*
X173199541Y-141554200D02*
X173151922Y-141506580D01*
X172247160Y-138157057D02*
X172294779Y-138109438D01*
X172294779Y-138109438D02*
X172390017Y-138061819D01*
X172390017Y-138061819D02*
X172628112Y-138061819D01*
X172628112Y-138061819D02*
X172723350Y-138109438D01*
X172723350Y-138109438D02*
X172770969Y-138157057D01*
X172770969Y-138157057D02*
X172818588Y-138252295D01*
X172818588Y-138252295D02*
X172818588Y-138347533D01*
X172818588Y-138347533D02*
X172770969Y-138490390D01*
X172770969Y-138490390D02*
X172199541Y-139061819D01*
X172199541Y-139061819D02*
X172818588Y-139061819D01*
X173151922Y-138061819D02*
X173770969Y-138061819D01*
X173770969Y-138061819D02*
X173437636Y-138442771D01*
X173437636Y-138442771D02*
X173580493Y-138442771D01*
X173580493Y-138442771D02*
X173675731Y-138490390D01*
X173675731Y-138490390D02*
X173723350Y-138538009D01*
X173723350Y-138538009D02*
X173770969Y-138633247D01*
X173770969Y-138633247D02*
X173770969Y-138871342D01*
X173770969Y-138871342D02*
X173723350Y-138966580D01*
X173723350Y-138966580D02*
X173675731Y-139014200D01*
X173675731Y-139014200D02*
X173580493Y-139061819D01*
X173580493Y-139061819D02*
X173294779Y-139061819D01*
X173294779Y-139061819D02*
X173199541Y-139014200D01*
X173199541Y-139014200D02*
X173151922Y-138966580D01*
X250796588Y-137537819D02*
X250225160Y-137537819D01*
X250510874Y-137537819D02*
X250510874Y-136537819D01*
X250510874Y-136537819D02*
X250415636Y-136680676D01*
X250415636Y-136680676D02*
X250320398Y-136775914D01*
X250320398Y-136775914D02*
X250225160Y-136823533D01*
X251177541Y-136633057D02*
X251225160Y-136585438D01*
X251225160Y-136585438D02*
X251320398Y-136537819D01*
X251320398Y-136537819D02*
X251558493Y-136537819D01*
X251558493Y-136537819D02*
X251653731Y-136585438D01*
X251653731Y-136585438D02*
X251701350Y-136633057D01*
X251701350Y-136633057D02*
X251748969Y-136728295D01*
X251748969Y-136728295D02*
X251748969Y-136823533D01*
X251748969Y-136823533D02*
X251701350Y-136966390D01*
X251701350Y-136966390D02*
X251129922Y-137537819D01*
X251129922Y-137537819D02*
X251748969Y-137537819D01*
X252034684Y-136537819D02*
X252368017Y-137537819D01*
X252368017Y-137537819D02*
X252701350Y-136537819D01*
X172247160Y-143237057D02*
X172294779Y-143189438D01*
X172294779Y-143189438D02*
X172390017Y-143141819D01*
X172390017Y-143141819D02*
X172628112Y-143141819D01*
X172628112Y-143141819D02*
X172723350Y-143189438D01*
X172723350Y-143189438D02*
X172770969Y-143237057D01*
X172770969Y-143237057D02*
X172818588Y-143332295D01*
X172818588Y-143332295D02*
X172818588Y-143427533D01*
X172818588Y-143427533D02*
X172770969Y-143570390D01*
X172770969Y-143570390D02*
X172199541Y-144141819D01*
X172199541Y-144141819D02*
X172818588Y-144141819D01*
X173151922Y-143141819D02*
X173770969Y-143141819D01*
X173770969Y-143141819D02*
X173437636Y-143522771D01*
X173437636Y-143522771D02*
X173580493Y-143522771D01*
X173580493Y-143522771D02*
X173675731Y-143570390D01*
X173675731Y-143570390D02*
X173723350Y-143618009D01*
X173723350Y-143618009D02*
X173770969Y-143713247D01*
X173770969Y-143713247D02*
X173770969Y-143951342D01*
X173770969Y-143951342D02*
X173723350Y-144046580D01*
X173723350Y-144046580D02*
X173675731Y-144094200D01*
X173675731Y-144094200D02*
X173580493Y-144141819D01*
X173580493Y-144141819D02*
X173294779Y-144141819D01*
X173294779Y-144141819D02*
X173199541Y-144094200D01*
X173199541Y-144094200D02*
X173151922Y-144046580D01*
X169846666Y-135368819D02*
X169846666Y-136083104D01*
X169846666Y-136083104D02*
X169799047Y-136225961D01*
X169799047Y-136225961D02*
X169703809Y-136321200D01*
X169703809Y-136321200D02*
X169560952Y-136368819D01*
X169560952Y-136368819D02*
X169465714Y-136368819D01*
X170846666Y-136368819D02*
X170275238Y-136368819D01*
X170560952Y-136368819D02*
X170560952Y-135368819D01*
X170560952Y-135368819D02*
X170465714Y-135511676D01*
X170465714Y-135511676D02*
X170370476Y-135606914D01*
X170370476Y-135606914D02*
X170275238Y-135654533D01*
X230044666Y-148302819D02*
X230044666Y-149017104D01*
X230044666Y-149017104D02*
X229997047Y-149159961D01*
X229997047Y-149159961D02*
X229901809Y-149255200D01*
X229901809Y-149255200D02*
X229758952Y-149302819D01*
X229758952Y-149302819D02*
X229663714Y-149302819D01*
X230473238Y-148398057D02*
X230520857Y-148350438D01*
X230520857Y-148350438D02*
X230616095Y-148302819D01*
X230616095Y-148302819D02*
X230854190Y-148302819D01*
X230854190Y-148302819D02*
X230949428Y-148350438D01*
X230949428Y-148350438D02*
X230997047Y-148398057D01*
X230997047Y-148398057D02*
X231044666Y-148493295D01*
X231044666Y-148493295D02*
X231044666Y-148588533D01*
X231044666Y-148588533D02*
X230997047Y-148731390D01*
X230997047Y-148731390D02*
X230425619Y-149302819D01*
X230425619Y-149302819D02*
X231044666Y-149302819D01*
X244564819Y-178551904D02*
X245374342Y-178551904D01*
X245374342Y-178551904D02*
X245469580Y-178504285D01*
X245469580Y-178504285D02*
X245517200Y-178456666D01*
X245517200Y-178456666D02*
X245564819Y-178361428D01*
X245564819Y-178361428D02*
X245564819Y-178170952D01*
X245564819Y-178170952D02*
X245517200Y-178075714D01*
X245517200Y-178075714D02*
X245469580Y-178028095D01*
X245469580Y-178028095D02*
X245374342Y-177980476D01*
X245374342Y-177980476D02*
X244564819Y-177980476D01*
X244660057Y-177551904D02*
X244612438Y-177504285D01*
X244612438Y-177504285D02*
X244564819Y-177409047D01*
X244564819Y-177409047D02*
X244564819Y-177170952D01*
X244564819Y-177170952D02*
X244612438Y-177075714D01*
X244612438Y-177075714D02*
X244660057Y-177028095D01*
X244660057Y-177028095D02*
X244755295Y-176980476D01*
X244755295Y-176980476D02*
X244850533Y-176980476D01*
X244850533Y-176980476D02*
X244993390Y-177028095D01*
X244993390Y-177028095D02*
X245564819Y-177599523D01*
X245564819Y-177599523D02*
X245564819Y-176980476D01*
X173888819Y-132689333D02*
X174603104Y-132689333D01*
X174603104Y-132689333D02*
X174745961Y-132736952D01*
X174745961Y-132736952D02*
X174841200Y-132832190D01*
X174841200Y-132832190D02*
X174888819Y-132975047D01*
X174888819Y-132975047D02*
X174888819Y-133070285D01*
X173888819Y-132308380D02*
X173888819Y-131641714D01*
X173888819Y-131641714D02*
X174888819Y-132070285D01*
X166478819Y-133012189D02*
X165478819Y-133012189D01*
X165574057Y-132583618D02*
X165526438Y-132535999D01*
X165526438Y-132535999D02*
X165478819Y-132440761D01*
X165478819Y-132440761D02*
X165478819Y-132202666D01*
X165478819Y-132202666D02*
X165526438Y-132107428D01*
X165526438Y-132107428D02*
X165574057Y-132059809D01*
X165574057Y-132059809D02*
X165669295Y-132012190D01*
X165669295Y-132012190D02*
X165764533Y-132012190D01*
X165764533Y-132012190D02*
X165907390Y-132059809D01*
X165907390Y-132059809D02*
X166478819Y-132631237D01*
X166478819Y-132631237D02*
X166478819Y-132012190D01*
X166383580Y-131012190D02*
X166431200Y-131059809D01*
X166431200Y-131059809D02*
X166478819Y-131202666D01*
X166478819Y-131202666D02*
X166478819Y-131297904D01*
X166478819Y-131297904D02*
X166431200Y-131440761D01*
X166431200Y-131440761D02*
X166335961Y-131535999D01*
X166335961Y-131535999D02*
X166240723Y-131583618D01*
X166240723Y-131583618D02*
X166050247Y-131631237D01*
X166050247Y-131631237D02*
X165907390Y-131631237D01*
X165907390Y-131631237D02*
X165716914Y-131583618D01*
X165716914Y-131583618D02*
X165621676Y-131535999D01*
X165621676Y-131535999D02*
X165526438Y-131440761D01*
X165526438Y-131440761D02*
X165478819Y-131297904D01*
X165478819Y-131297904D02*
X165478819Y-131202666D01*
X165478819Y-131202666D02*
X165526438Y-131059809D01*
X165526438Y-131059809D02*
X165574057Y-131012190D01*
X254545180Y-134286666D02*
X253830895Y-134286666D01*
X253830895Y-134286666D02*
X253688038Y-134239047D01*
X253688038Y-134239047D02*
X253592800Y-134143809D01*
X253592800Y-134143809D02*
X253545180Y-134000952D01*
X253545180Y-134000952D02*
X253545180Y-133905714D01*
X254545180Y-134667619D02*
X254545180Y-135286666D01*
X254545180Y-135286666D02*
X254164228Y-134953333D01*
X254164228Y-134953333D02*
X254164228Y-135096190D01*
X254164228Y-135096190D02*
X254116609Y-135191428D01*
X254116609Y-135191428D02*
X254068990Y-135239047D01*
X254068990Y-135239047D02*
X253973752Y-135286666D01*
X253973752Y-135286666D02*
X253735657Y-135286666D01*
X253735657Y-135286666D02*
X253640419Y-135239047D01*
X253640419Y-135239047D02*
X253592800Y-135191428D01*
X253592800Y-135191428D02*
X253545180Y-135096190D01*
X253545180Y-135096190D02*
X253545180Y-134810476D01*
X253545180Y-134810476D02*
X253592800Y-134715238D01*
X253592800Y-134715238D02*
X253640419Y-134667619D01*
X174484819Y-184959523D02*
X175199104Y-184959523D01*
X175199104Y-184959523D02*
X175341961Y-185007142D01*
X175341961Y-185007142D02*
X175437200Y-185102380D01*
X175437200Y-185102380D02*
X175484819Y-185245237D01*
X175484819Y-185245237D02*
X175484819Y-185340475D01*
X175484819Y-183959523D02*
X175484819Y-184530951D01*
X175484819Y-184245237D02*
X174484819Y-184245237D01*
X174484819Y-184245237D02*
X174627676Y-184340475D01*
X174627676Y-184340475D02*
X174722914Y-184435713D01*
X174722914Y-184435713D02*
X174770533Y-184530951D01*
X175484819Y-183007142D02*
X175484819Y-183578570D01*
X175484819Y-183292856D02*
X174484819Y-183292856D01*
X174484819Y-183292856D02*
X174627676Y-183388094D01*
X174627676Y-183388094D02*
X174722914Y-183483332D01*
X174722914Y-183483332D02*
X174770533Y-183578570D01*
X174315998Y-149965580D02*
X174268379Y-150013200D01*
X174268379Y-150013200D02*
X174125522Y-150060819D01*
X174125522Y-150060819D02*
X174030284Y-150060819D01*
X174030284Y-150060819D02*
X173887427Y-150013200D01*
X173887427Y-150013200D02*
X173792189Y-149917961D01*
X173792189Y-149917961D02*
X173744570Y-149822723D01*
X173744570Y-149822723D02*
X173696951Y-149632247D01*
X173696951Y-149632247D02*
X173696951Y-149489390D01*
X173696951Y-149489390D02*
X173744570Y-149298914D01*
X173744570Y-149298914D02*
X173792189Y-149203676D01*
X173792189Y-149203676D02*
X173887427Y-149108438D01*
X173887427Y-149108438D02*
X174030284Y-149060819D01*
X174030284Y-149060819D02*
X174125522Y-149060819D01*
X174125522Y-149060819D02*
X174268379Y-149108438D01*
X174268379Y-149108438D02*
X174315998Y-149156057D01*
X175173141Y-150060819D02*
X175173141Y-149537009D01*
X175173141Y-149537009D02*
X175125522Y-149441771D01*
X175125522Y-149441771D02*
X175030284Y-149394152D01*
X175030284Y-149394152D02*
X174839808Y-149394152D01*
X174839808Y-149394152D02*
X174744570Y-149441771D01*
X175173141Y-150013200D02*
X175077903Y-150060819D01*
X175077903Y-150060819D02*
X174839808Y-150060819D01*
X174839808Y-150060819D02*
X174744570Y-150013200D01*
X174744570Y-150013200D02*
X174696951Y-149917961D01*
X174696951Y-149917961D02*
X174696951Y-149822723D01*
X174696951Y-149822723D02*
X174744570Y-149727485D01*
X174744570Y-149727485D02*
X174839808Y-149679866D01*
X174839808Y-149679866D02*
X175077903Y-149679866D01*
X175077903Y-149679866D02*
X175173141Y-149632247D01*
X175649332Y-149394152D02*
X175649332Y-150394152D01*
X175649332Y-149441771D02*
X175744570Y-149394152D01*
X175744570Y-149394152D02*
X175935046Y-149394152D01*
X175935046Y-149394152D02*
X176030284Y-149441771D01*
X176030284Y-149441771D02*
X176077903Y-149489390D01*
X176077903Y-149489390D02*
X176125522Y-149584628D01*
X176125522Y-149584628D02*
X176125522Y-149870342D01*
X176125522Y-149870342D02*
X176077903Y-149965580D01*
X176077903Y-149965580D02*
X176030284Y-150013200D01*
X176030284Y-150013200D02*
X175935046Y-150060819D01*
X175935046Y-150060819D02*
X175744570Y-150060819D01*
X175744570Y-150060819D02*
X175649332Y-150013200D01*
X176411237Y-149394152D02*
X176792189Y-149394152D01*
X176554094Y-149060819D02*
X176554094Y-149917961D01*
X176554094Y-149917961D02*
X176601713Y-150013200D01*
X176601713Y-150013200D02*
X176696951Y-150060819D01*
X176696951Y-150060819D02*
X176792189Y-150060819D01*
X177554094Y-149394152D02*
X177554094Y-150060819D01*
X177125523Y-149394152D02*
X177125523Y-149917961D01*
X177125523Y-149917961D02*
X177173142Y-150013200D01*
X177173142Y-150013200D02*
X177268380Y-150060819D01*
X177268380Y-150060819D02*
X177411237Y-150060819D01*
X177411237Y-150060819D02*
X177506475Y-150013200D01*
X177506475Y-150013200D02*
X177554094Y-149965580D01*
X178030285Y-150060819D02*
X178030285Y-149394152D01*
X178030285Y-149584628D02*
X178077904Y-149489390D01*
X178077904Y-149489390D02*
X178125523Y-149441771D01*
X178125523Y-149441771D02*
X178220761Y-149394152D01*
X178220761Y-149394152D02*
X178315999Y-149394152D01*
X179030285Y-150013200D02*
X178935047Y-150060819D01*
X178935047Y-150060819D02*
X178744571Y-150060819D01*
X178744571Y-150060819D02*
X178649333Y-150013200D01*
X178649333Y-150013200D02*
X178601714Y-149917961D01*
X178601714Y-149917961D02*
X178601714Y-149537009D01*
X178601714Y-149537009D02*
X178649333Y-149441771D01*
X178649333Y-149441771D02*
X178744571Y-149394152D01*
X178744571Y-149394152D02*
X178935047Y-149394152D01*
X178935047Y-149394152D02*
X179030285Y-149441771D01*
X179030285Y-149441771D02*
X179077904Y-149537009D01*
X179077904Y-149537009D02*
X179077904Y-149632247D01*
X179077904Y-149632247D02*
X178601714Y-149727485D01*
X179839809Y-149537009D02*
X179982666Y-149584628D01*
X179982666Y-149584628D02*
X180030285Y-149632247D01*
X180030285Y-149632247D02*
X180077904Y-149727485D01*
X180077904Y-149727485D02*
X180077904Y-149870342D01*
X180077904Y-149870342D02*
X180030285Y-149965580D01*
X180030285Y-149965580D02*
X179982666Y-150013200D01*
X179982666Y-150013200D02*
X179887428Y-150060819D01*
X179887428Y-150060819D02*
X179506476Y-150060819D01*
X179506476Y-150060819D02*
X179506476Y-149060819D01*
X179506476Y-149060819D02*
X179839809Y-149060819D01*
X179839809Y-149060819D02*
X179935047Y-149108438D01*
X179935047Y-149108438D02*
X179982666Y-149156057D01*
X179982666Y-149156057D02*
X180030285Y-149251295D01*
X180030285Y-149251295D02*
X180030285Y-149346533D01*
X180030285Y-149346533D02*
X179982666Y-149441771D01*
X179982666Y-149441771D02*
X179935047Y-149489390D01*
X179935047Y-149489390D02*
X179839809Y-149537009D01*
X179839809Y-149537009D02*
X179506476Y-149537009D01*
X180935047Y-149394152D02*
X180935047Y-150060819D01*
X180506476Y-149394152D02*
X180506476Y-149917961D01*
X180506476Y-149917961D02*
X180554095Y-150013200D01*
X180554095Y-150013200D02*
X180649333Y-150060819D01*
X180649333Y-150060819D02*
X180792190Y-150060819D01*
X180792190Y-150060819D02*
X180887428Y-150013200D01*
X180887428Y-150013200D02*
X180935047Y-149965580D01*
X181268381Y-149394152D02*
X181649333Y-149394152D01*
X181411238Y-149060819D02*
X181411238Y-149917961D01*
X181411238Y-149917961D02*
X181458857Y-150013200D01*
X181458857Y-150013200D02*
X181554095Y-150060819D01*
X181554095Y-150060819D02*
X181649333Y-150060819D01*
X181839810Y-149394152D02*
X182220762Y-149394152D01*
X181982667Y-149060819D02*
X181982667Y-149917961D01*
X181982667Y-149917961D02*
X182030286Y-150013200D01*
X182030286Y-150013200D02*
X182125524Y-150060819D01*
X182125524Y-150060819D02*
X182220762Y-150060819D01*
X182696953Y-150060819D02*
X182601715Y-150013200D01*
X182601715Y-150013200D02*
X182554096Y-149965580D01*
X182554096Y-149965580D02*
X182506477Y-149870342D01*
X182506477Y-149870342D02*
X182506477Y-149584628D01*
X182506477Y-149584628D02*
X182554096Y-149489390D01*
X182554096Y-149489390D02*
X182601715Y-149441771D01*
X182601715Y-149441771D02*
X182696953Y-149394152D01*
X182696953Y-149394152D02*
X182839810Y-149394152D01*
X182839810Y-149394152D02*
X182935048Y-149441771D01*
X182935048Y-149441771D02*
X182982667Y-149489390D01*
X182982667Y-149489390D02*
X183030286Y-149584628D01*
X183030286Y-149584628D02*
X183030286Y-149870342D01*
X183030286Y-149870342D02*
X182982667Y-149965580D01*
X182982667Y-149965580D02*
X182935048Y-150013200D01*
X182935048Y-150013200D02*
X182839810Y-150060819D01*
X182839810Y-150060819D02*
X182696953Y-150060819D01*
X183458858Y-149394152D02*
X183458858Y-150060819D01*
X183458858Y-149489390D02*
X183506477Y-149441771D01*
X183506477Y-149441771D02*
X183601715Y-149394152D01*
X183601715Y-149394152D02*
X183744572Y-149394152D01*
X183744572Y-149394152D02*
X183839810Y-149441771D01*
X183839810Y-149441771D02*
X183887429Y-149537009D01*
X183887429Y-149537009D02*
X183887429Y-150060819D01*
X241172819Y-134735333D02*
X241887104Y-134735333D01*
X241887104Y-134735333D02*
X242029961Y-134782952D01*
X242029961Y-134782952D02*
X242125200Y-134878190D01*
X242125200Y-134878190D02*
X242172819Y-135021047D01*
X242172819Y-135021047D02*
X242172819Y-135116285D01*
X241601390Y-134116285D02*
X241553771Y-134211523D01*
X241553771Y-134211523D02*
X241506152Y-134259142D01*
X241506152Y-134259142D02*
X241410914Y-134306761D01*
X241410914Y-134306761D02*
X241363295Y-134306761D01*
X241363295Y-134306761D02*
X241268057Y-134259142D01*
X241268057Y-134259142D02*
X241220438Y-134211523D01*
X241220438Y-134211523D02*
X241172819Y-134116285D01*
X241172819Y-134116285D02*
X241172819Y-133925809D01*
X241172819Y-133925809D02*
X241220438Y-133830571D01*
X241220438Y-133830571D02*
X241268057Y-133782952D01*
X241268057Y-133782952D02*
X241363295Y-133735333D01*
X241363295Y-133735333D02*
X241410914Y-133735333D01*
X241410914Y-133735333D02*
X241506152Y-133782952D01*
X241506152Y-133782952D02*
X241553771Y-133830571D01*
X241553771Y-133830571D02*
X241601390Y-133925809D01*
X241601390Y-133925809D02*
X241601390Y-134116285D01*
X241601390Y-134116285D02*
X241649009Y-134211523D01*
X241649009Y-134211523D02*
X241696628Y-134259142D01*
X241696628Y-134259142D02*
X241791866Y-134306761D01*
X241791866Y-134306761D02*
X241982342Y-134306761D01*
X241982342Y-134306761D02*
X242077580Y-134259142D01*
X242077580Y-134259142D02*
X242125200Y-134211523D01*
X242125200Y-134211523D02*
X242172819Y-134116285D01*
X242172819Y-134116285D02*
X242172819Y-133925809D01*
X242172819Y-133925809D02*
X242125200Y-133830571D01*
X242125200Y-133830571D02*
X242077580Y-133782952D01*
X242077580Y-133782952D02*
X241982342Y-133735333D01*
X241982342Y-133735333D02*
X241791866Y-133735333D01*
X241791866Y-133735333D02*
X241696628Y-133782952D01*
X241696628Y-133782952D02*
X241649009Y-133830571D01*
X241649009Y-133830571D02*
X241601390Y-133925809D01*
X242215200Y-137675808D02*
X242262819Y-137532951D01*
X242262819Y-137532951D02*
X242262819Y-137294856D01*
X242262819Y-137294856D02*
X242215200Y-137199618D01*
X242215200Y-137199618D02*
X242167580Y-137151999D01*
X242167580Y-137151999D02*
X242072342Y-137104380D01*
X242072342Y-137104380D02*
X241977104Y-137104380D01*
X241977104Y-137104380D02*
X241881866Y-137151999D01*
X241881866Y-137151999D02*
X241834247Y-137199618D01*
X241834247Y-137199618D02*
X241786628Y-137294856D01*
X241786628Y-137294856D02*
X241739009Y-137485332D01*
X241739009Y-137485332D02*
X241691390Y-137580570D01*
X241691390Y-137580570D02*
X241643771Y-137628189D01*
X241643771Y-137628189D02*
X241548533Y-137675808D01*
X241548533Y-137675808D02*
X241453295Y-137675808D01*
X241453295Y-137675808D02*
X241358057Y-137628189D01*
X241358057Y-137628189D02*
X241310438Y-137580570D01*
X241310438Y-137580570D02*
X241262819Y-137485332D01*
X241262819Y-137485332D02*
X241262819Y-137247237D01*
X241262819Y-137247237D02*
X241310438Y-137104380D01*
X242262819Y-136675808D02*
X241262819Y-136675808D01*
X241262819Y-136675808D02*
X241262819Y-136294856D01*
X241262819Y-136294856D02*
X241310438Y-136199618D01*
X241310438Y-136199618D02*
X241358057Y-136151999D01*
X241358057Y-136151999D02*
X241453295Y-136104380D01*
X241453295Y-136104380D02*
X241596152Y-136104380D01*
X241596152Y-136104380D02*
X241691390Y-136151999D01*
X241691390Y-136151999D02*
X241739009Y-136199618D01*
X241739009Y-136199618D02*
X241786628Y-136294856D01*
X241786628Y-136294856D02*
X241786628Y-136675808D01*
X242262819Y-135675808D02*
X241262819Y-135675808D01*
X193611904Y-149537009D02*
X193278571Y-149537009D01*
X193278571Y-150060819D02*
X193278571Y-149060819D01*
X193278571Y-149060819D02*
X193754761Y-149060819D01*
X194278571Y-150060819D02*
X194183333Y-150013200D01*
X194183333Y-150013200D02*
X194135714Y-149917961D01*
X194135714Y-149917961D02*
X194135714Y-149060819D01*
X194659524Y-150060819D02*
X194659524Y-149394152D01*
X194659524Y-149060819D02*
X194611905Y-149108438D01*
X194611905Y-149108438D02*
X194659524Y-149156057D01*
X194659524Y-149156057D02*
X194707143Y-149108438D01*
X194707143Y-149108438D02*
X194659524Y-149060819D01*
X194659524Y-149060819D02*
X194659524Y-149156057D01*
X195135714Y-149394152D02*
X195135714Y-150394152D01*
X195135714Y-149441771D02*
X195230952Y-149394152D01*
X195230952Y-149394152D02*
X195421428Y-149394152D01*
X195421428Y-149394152D02*
X195516666Y-149441771D01*
X195516666Y-149441771D02*
X195564285Y-149489390D01*
X195564285Y-149489390D02*
X195611904Y-149584628D01*
X195611904Y-149584628D02*
X195611904Y-149870342D01*
X195611904Y-149870342D02*
X195564285Y-149965580D01*
X195564285Y-149965580D02*
X195516666Y-150013200D01*
X195516666Y-150013200D02*
X195421428Y-150060819D01*
X195421428Y-150060819D02*
X195230952Y-150060819D01*
X195230952Y-150060819D02*
X195135714Y-150013200D01*
X196373809Y-149537009D02*
X196516666Y-149584628D01*
X196516666Y-149584628D02*
X196564285Y-149632247D01*
X196564285Y-149632247D02*
X196611904Y-149727485D01*
X196611904Y-149727485D02*
X196611904Y-149870342D01*
X196611904Y-149870342D02*
X196564285Y-149965580D01*
X196564285Y-149965580D02*
X196516666Y-150013200D01*
X196516666Y-150013200D02*
X196421428Y-150060819D01*
X196421428Y-150060819D02*
X196040476Y-150060819D01*
X196040476Y-150060819D02*
X196040476Y-149060819D01*
X196040476Y-149060819D02*
X196373809Y-149060819D01*
X196373809Y-149060819D02*
X196469047Y-149108438D01*
X196469047Y-149108438D02*
X196516666Y-149156057D01*
X196516666Y-149156057D02*
X196564285Y-149251295D01*
X196564285Y-149251295D02*
X196564285Y-149346533D01*
X196564285Y-149346533D02*
X196516666Y-149441771D01*
X196516666Y-149441771D02*
X196469047Y-149489390D01*
X196469047Y-149489390D02*
X196373809Y-149537009D01*
X196373809Y-149537009D02*
X196040476Y-149537009D01*
X197469047Y-149394152D02*
X197469047Y-150060819D01*
X197040476Y-149394152D02*
X197040476Y-149917961D01*
X197040476Y-149917961D02*
X197088095Y-150013200D01*
X197088095Y-150013200D02*
X197183333Y-150060819D01*
X197183333Y-150060819D02*
X197326190Y-150060819D01*
X197326190Y-150060819D02*
X197421428Y-150013200D01*
X197421428Y-150013200D02*
X197469047Y-149965580D01*
X197802381Y-149394152D02*
X198183333Y-149394152D01*
X197945238Y-149060819D02*
X197945238Y-149917961D01*
X197945238Y-149917961D02*
X197992857Y-150013200D01*
X197992857Y-150013200D02*
X198088095Y-150060819D01*
X198088095Y-150060819D02*
X198183333Y-150060819D01*
X198373810Y-149394152D02*
X198754762Y-149394152D01*
X198516667Y-149060819D02*
X198516667Y-149917961D01*
X198516667Y-149917961D02*
X198564286Y-150013200D01*
X198564286Y-150013200D02*
X198659524Y-150060819D01*
X198659524Y-150060819D02*
X198754762Y-150060819D01*
X199230953Y-150060819D02*
X199135715Y-150013200D01*
X199135715Y-150013200D02*
X199088096Y-149965580D01*
X199088096Y-149965580D02*
X199040477Y-149870342D01*
X199040477Y-149870342D02*
X199040477Y-149584628D01*
X199040477Y-149584628D02*
X199088096Y-149489390D01*
X199088096Y-149489390D02*
X199135715Y-149441771D01*
X199135715Y-149441771D02*
X199230953Y-149394152D01*
X199230953Y-149394152D02*
X199373810Y-149394152D01*
X199373810Y-149394152D02*
X199469048Y-149441771D01*
X199469048Y-149441771D02*
X199516667Y-149489390D01*
X199516667Y-149489390D02*
X199564286Y-149584628D01*
X199564286Y-149584628D02*
X199564286Y-149870342D01*
X199564286Y-149870342D02*
X199516667Y-149965580D01*
X199516667Y-149965580D02*
X199469048Y-150013200D01*
X199469048Y-150013200D02*
X199373810Y-150060819D01*
X199373810Y-150060819D02*
X199230953Y-150060819D01*
X199992858Y-149394152D02*
X199992858Y-150060819D01*
X199992858Y-149489390D02*
X200040477Y-149441771D01*
X200040477Y-149441771D02*
X200135715Y-149394152D01*
X200135715Y-149394152D02*
X200278572Y-149394152D01*
X200278572Y-149394152D02*
X200373810Y-149441771D01*
X200373810Y-149441771D02*
X200421429Y-149537009D01*
X200421429Y-149537009D02*
X200421429Y-150060819D01*
X240229819Y-157356904D02*
X241039342Y-157356904D01*
X241039342Y-157356904D02*
X241134580Y-157309285D01*
X241134580Y-157309285D02*
X241182200Y-157261666D01*
X241182200Y-157261666D02*
X241229819Y-157166428D01*
X241229819Y-157166428D02*
X241229819Y-156975952D01*
X241229819Y-156975952D02*
X241182200Y-156880714D01*
X241182200Y-156880714D02*
X241134580Y-156833095D01*
X241134580Y-156833095D02*
X241039342Y-156785476D01*
X241039342Y-156785476D02*
X240229819Y-156785476D01*
X241229819Y-155785476D02*
X241229819Y-156356904D01*
X241229819Y-156071190D02*
X240229819Y-156071190D01*
X240229819Y-156071190D02*
X240372676Y-156166428D01*
X240372676Y-156166428D02*
X240467914Y-156261666D01*
X240467914Y-156261666D02*
X240515533Y-156356904D01*
X245953333Y-161109580D02*
X245905714Y-161157200D01*
X245905714Y-161157200D02*
X245762857Y-161204819D01*
X245762857Y-161204819D02*
X245667619Y-161204819D01*
X245667619Y-161204819D02*
X245524762Y-161157200D01*
X245524762Y-161157200D02*
X245429524Y-161061961D01*
X245429524Y-161061961D02*
X245381905Y-160966723D01*
X245381905Y-160966723D02*
X245334286Y-160776247D01*
X245334286Y-160776247D02*
X245334286Y-160633390D01*
X245334286Y-160633390D02*
X245381905Y-160442914D01*
X245381905Y-160442914D02*
X245429524Y-160347676D01*
X245429524Y-160347676D02*
X245524762Y-160252438D01*
X245524762Y-160252438D02*
X245667619Y-160204819D01*
X245667619Y-160204819D02*
X245762857Y-160204819D01*
X245762857Y-160204819D02*
X245905714Y-160252438D01*
X245905714Y-160252438D02*
X245953333Y-160300057D01*
X246905714Y-161204819D02*
X246334286Y-161204819D01*
X246620000Y-161204819D02*
X246620000Y-160204819D01*
X246620000Y-160204819D02*
X246524762Y-160347676D01*
X246524762Y-160347676D02*
X246429524Y-160442914D01*
X246429524Y-160442914D02*
X246334286Y-160490533D01*
D11*
%TO.C,J1*%
X168850000Y-139954000D02*
X168850000Y-147634000D01*
X168850000Y-139954000D02*
X171510000Y-139954000D01*
X168850000Y-147634000D02*
X171510000Y-147634000D01*
X170180000Y-137354000D02*
X171510000Y-137354000D01*
X171510000Y-137354000D02*
X171510000Y-138684000D01*
X171510000Y-139954000D02*
X171510000Y-147634000D01*
%TO.C,J2*%
X228470000Y-141490000D02*
X254130000Y-141490000D01*
X228470000Y-150610000D02*
X228470000Y-141490000D01*
X229770000Y-142800000D02*
X239250000Y-142800000D01*
X229770000Y-149300000D02*
X229770000Y-142800000D01*
X239250000Y-142800000D02*
X239250000Y-141490000D01*
X239250000Y-142800000D02*
X239250000Y-142800000D01*
X243350000Y-141490000D02*
X243350000Y-142800000D01*
X243350000Y-142800000D02*
X252830000Y-142800000D01*
X248420000Y-140100000D02*
X248920000Y-141100000D01*
X248920000Y-141100000D02*
X249420000Y-140100000D01*
X249420000Y-140100000D02*
X248420000Y-140100000D01*
X252830000Y-142800000D02*
X252830000Y-149300000D01*
X252830000Y-149300000D02*
X229770000Y-149300000D01*
X254130000Y-141490000D02*
X254130000Y-150610000D01*
X254130000Y-150610000D02*
X228470000Y-150610000D01*
%TO.C,U2*%
X246250000Y-170040000D02*
X246250000Y-182870000D01*
X246250000Y-172710000D02*
X266830000Y-172710000D01*
X246250000Y-182870000D02*
X248920000Y-182870000D01*
X246250000Y-184140000D02*
X246250000Y-185540000D01*
X246250000Y-185540000D02*
X247650000Y-185540000D01*
X248920000Y-182870000D02*
X248920000Y-185540000D01*
X248920000Y-182870000D02*
X266830000Y-182870000D01*
X248920000Y-185540000D02*
X266830000Y-185540000D01*
X266830000Y-170040000D02*
X246250000Y-170040000D01*
X266830000Y-185540000D02*
X266830000Y-170040000D01*
D12*
%TO.C,J7*%
X167434000Y-127956000D02*
X167434000Y-128456000D01*
X167434000Y-127956000D02*
X167934000Y-127956000D01*
X167434000Y-136156000D02*
X167434000Y-135656000D01*
X167434000Y-136156000D02*
X167934000Y-136156000D01*
X173434000Y-127956000D02*
X172934000Y-127956000D01*
X173434000Y-127956000D02*
X173434000Y-128456000D01*
X173434000Y-136156000D02*
X172934000Y-136156000D01*
X173434000Y-136156000D02*
X173434000Y-135656000D01*
D13*
%TO.C,J3*%
X253492000Y-130429000D02*
X253492000Y-131024995D01*
X253492000Y-133135005D02*
X253492000Y-133564995D01*
X253492000Y-135675005D02*
X253492000Y-136104995D01*
X253492000Y-138215005D02*
X253492000Y-138811000D01*
X253492000Y-138811000D02*
X267335000Y-138811000D01*
X267335000Y-130429000D02*
X253492000Y-130429000D01*
X267335000Y-138811000D02*
X267335000Y-130429000D01*
D14*
X254381000Y-128651000D02*
G75*
G02*
X253619000Y-128651000I-381000J0D01*
G01*
X253619000Y-128651000D02*
G75*
G02*
X254381000Y-128651000I381000J0D01*
G01*
D11*
%TO.C,J11*%
X176470000Y-181550000D02*
X177800000Y-181550000D01*
X176470000Y-182880000D02*
X176470000Y-181550000D01*
X176470000Y-184150000D02*
X179070000Y-184150000D01*
X176470000Y-186750000D02*
X176470000Y-184150000D01*
X176470000Y-186750000D02*
X235010000Y-186750000D01*
X179070000Y-181550000D02*
X235010000Y-181550000D01*
X179070000Y-184150000D02*
X179070000Y-181550000D01*
X235010000Y-186750000D02*
X235010000Y-181550000D01*
%TO.C,Conn2*%
X174990000Y-142030000D02*
X174990000Y-143280000D01*
X175280000Y-142320000D02*
X175280000Y-148290000D01*
X175280000Y-148290000D02*
X182900000Y-148290000D01*
X175290000Y-142330000D02*
X175290000Y-143080000D01*
X175290000Y-143080000D02*
X177090000Y-143080000D01*
X175290000Y-144580000D02*
X176040000Y-144580000D01*
X176040000Y-144580000D02*
X176040000Y-145920000D01*
X176240000Y-142030000D02*
X174990000Y-142030000D01*
X177090000Y-142330000D02*
X175290000Y-142330000D01*
X177090000Y-143080000D02*
X177090000Y-142330000D01*
X178590000Y-142330000D02*
X178590000Y-143080000D01*
X178590000Y-143080000D02*
X179590000Y-143080000D01*
X179090000Y-147530000D02*
X177100000Y-147530000D01*
X179590000Y-142330000D02*
X178590000Y-142330000D01*
X179590000Y-143080000D02*
X179590000Y-142330000D01*
X181090000Y-142330000D02*
X181090000Y-143080000D01*
X181090000Y-143080000D02*
X182890000Y-143080000D01*
X182140000Y-144580000D02*
X182140000Y-147530000D01*
X182140000Y-147530000D02*
X179090000Y-147530000D01*
X182890000Y-142330000D02*
X181090000Y-142330000D01*
X182890000Y-143080000D02*
X182890000Y-142330000D01*
X182890000Y-144580000D02*
X182140000Y-144580000D01*
X182900000Y-142320000D02*
X175280000Y-142320000D01*
X182900000Y-148290000D02*
X182900000Y-142320000D01*
D12*
%TO.C,J8*%
X242618000Y-127702000D02*
X242618000Y-128202000D01*
X242618000Y-127702000D02*
X243118000Y-127702000D01*
X242618000Y-140402000D02*
X242618000Y-139902000D01*
X242618000Y-140402000D02*
X243118000Y-140402000D01*
X248618000Y-127702000D02*
X248118000Y-127702000D01*
X248618000Y-127702000D02*
X248618000Y-128202000D01*
X248618000Y-140402000D02*
X248118000Y-140402000D01*
X248618000Y-140402000D02*
X248618000Y-139902000D01*
D11*
%TO.C,Conn4*%
X192770000Y-142030000D02*
X192770000Y-143280000D01*
X193060000Y-142320000D02*
X193060000Y-148290000D01*
X193060000Y-148290000D02*
X200680000Y-148290000D01*
X193070000Y-142330000D02*
X193070000Y-143080000D01*
X193070000Y-143080000D02*
X194870000Y-143080000D01*
X193070000Y-144580000D02*
X193820000Y-144580000D01*
X193820000Y-144580000D02*
X193820000Y-145920000D01*
X194020000Y-142030000D02*
X192770000Y-142030000D01*
X194870000Y-142330000D02*
X193070000Y-142330000D01*
X194870000Y-143080000D02*
X194870000Y-142330000D01*
X196370000Y-142330000D02*
X196370000Y-143080000D01*
X196370000Y-143080000D02*
X197370000Y-143080000D01*
X196870000Y-147530000D02*
X194880000Y-147530000D01*
X197370000Y-142330000D02*
X196370000Y-142330000D01*
X197370000Y-143080000D02*
X197370000Y-142330000D01*
X198870000Y-142330000D02*
X198870000Y-143080000D01*
X198870000Y-143080000D02*
X200670000Y-143080000D01*
X199920000Y-144580000D02*
X199920000Y-147530000D01*
X199920000Y-147530000D02*
X196870000Y-147530000D01*
X200670000Y-142330000D02*
X198870000Y-142330000D01*
X200670000Y-143080000D02*
X200670000Y-142330000D01*
X200670000Y-144580000D02*
X199920000Y-144580000D01*
X200680000Y-142320000D02*
X193060000Y-142320000D01*
X200680000Y-148290000D02*
X200680000Y-142320000D01*
D15*
%TO.C,U1*%
X169800000Y-153670000D02*
X232540000Y-153670000D01*
X169800000Y-179070000D02*
X169800000Y-153670000D01*
X232540000Y-153670000D02*
X232540000Y-179070000D01*
X232540000Y-179070000D02*
X169800000Y-179070000D01*
D16*
X231242000Y-152654000D02*
G75*
G02*
X231042000Y-152654000I-100000J0D01*
G01*
X231042000Y-152654000D02*
G75*
G02*
X231242000Y-152654000I100000J0D01*
G01*
D11*
%TO.C,J10*%
X176470000Y-133170000D02*
X177800000Y-133170000D01*
X176470000Y-134500000D02*
X176470000Y-133170000D01*
X176470000Y-135770000D02*
X179070000Y-135770000D01*
X176470000Y-138370000D02*
X176470000Y-135770000D01*
X176470000Y-138370000D02*
X240090000Y-138370000D01*
X179070000Y-133170000D02*
X240090000Y-133170000D01*
X179070000Y-135770000D02*
X179070000Y-133170000D01*
X240090000Y-138370000D02*
X240090000Y-133170000D01*
%TO.C,C1*%
X241682500Y-163252500D02*
X242470000Y-163252500D01*
X242076250Y-162858750D02*
X242076250Y-163646250D01*
X242710000Y-162754437D02*
X242710000Y-164040000D01*
X242710000Y-162754437D02*
X243774437Y-161690000D01*
X242710000Y-167445563D02*
X242710000Y-166160000D01*
X242710000Y-167445563D02*
X243774437Y-168510000D01*
X243774437Y-161690000D02*
X249530000Y-161690000D01*
X243774437Y-168510000D02*
X249530000Y-168510000D01*
X249530000Y-161690000D02*
X249530000Y-164040000D01*
X249530000Y-168510000D02*
X249530000Y-166160000D01*
%TD*%
M02*
