%TF.GenerationSoftware,KiCad,Pcbnew,8.0.5*%
%TF.CreationDate,2024-10-09T10:19:28-04:00*%
%TF.ProjectId,Scout_Board,53636f75-745f-4426-9f61-72642e6b6963,rev?*%
%TF.SameCoordinates,Original*%
%TF.FileFunction,Soldermask,Top*%
%TF.FilePolarity,Negative*%
%FSLAX46Y46*%
G04 Gerber Fmt 4.6, Leading zero omitted, Abs format (unit mm)*
G04 Created by KiCad (PCBNEW 8.0.5) date 2024-10-09 10:19:28*
%MOMM*%
%LPD*%
G01*
G04 APERTURE LIST*
G04 Aperture macros list*
%AMRoundRect*
0 Rectangle with rounded corners*
0 $1 Rounding radius*
0 $2 $3 $4 $5 $6 $7 $8 $9 X,Y pos of 4 corners*
0 Add a 4 corners polygon primitive as box body*
4,1,4,$2,$3,$4,$5,$6,$7,$8,$9,$2,$3,0*
0 Add four circle primitives for the rounded corners*
1,1,$1+$1,$2,$3*
1,1,$1+$1,$4,$5*
1,1,$1+$1,$6,$7*
1,1,$1+$1,$8,$9*
0 Add four rect primitives between the rounded corners*
20,1,$1+$1,$2,$3,$4,$5,0*
20,1,$1+$1,$4,$5,$6,$7,0*
20,1,$1+$1,$6,$7,$8,$9,0*
20,1,$1+$1,$8,$9,$2,$3,0*%
G04 Aperture macros list end*
%ADD10R,1.700000X1.700000*%
%ADD11O,1.700000X1.700000*%
%ADD12RoundRect,0.250000X-0.600000X0.600000X-0.600000X-0.600000X0.600000X-0.600000X0.600000X0.600000X0*%
%ADD13C,1.700000*%
%ADD14R,1.600000X1.600000*%
%ADD15O,1.600000X1.600000*%
%ADD16C,2.100000*%
%ADD17C,1.676400*%
%ADD18C,1.200000*%
%ADD19RoundRect,0.250000X-0.600000X-0.750000X0.600000X-0.750000X0.600000X0.750000X-0.600000X0.750000X0*%
%ADD20O,1.700000X2.000000*%
%ADD21RoundRect,0.102000X-0.765000X0.765000X-0.765000X-0.765000X0.765000X-0.765000X0.765000X0.765000X0*%
%ADD22C,1.734000*%
%ADD23RoundRect,0.250000X-1.500000X-0.550000X1.500000X-0.550000X1.500000X0.550000X-1.500000X0.550000X0*%
G04 APERTURE END LIST*
D10*
%TO.C,J1*%
X170180000Y-138684000D03*
D11*
X170180000Y-141224000D03*
X170180000Y-143764000D03*
X170180000Y-146304000D03*
%TD*%
D12*
%TO.C,J2*%
X248920000Y-144780000D03*
D13*
X248920000Y-147320000D03*
X246380000Y-144780000D03*
X246380000Y-147320000D03*
X243840000Y-144780000D03*
X243840000Y-147320000D03*
X241300000Y-144780000D03*
X241300000Y-147320000D03*
X238760000Y-144780000D03*
X238760000Y-147320000D03*
X236220000Y-144780000D03*
X236220000Y-147320000D03*
X233680000Y-144780000D03*
X233680000Y-147320000D03*
%TD*%
D14*
%TO.C,U2*%
X247650000Y-184140000D03*
D15*
X250190000Y-184140000D03*
X252730000Y-184140000D03*
X255270000Y-184140000D03*
X257810000Y-184140000D03*
X260350000Y-184140000D03*
X262890000Y-184140000D03*
X265430000Y-184140000D03*
X265430000Y-171440000D03*
X262890000Y-171440000D03*
X260350000Y-171440000D03*
X257810000Y-171440000D03*
X255270000Y-171440000D03*
X252730000Y-171440000D03*
X250190000Y-171440000D03*
X247650000Y-171440000D03*
%TD*%
D16*
%TO.C,J7*%
X170434000Y-130556000D03*
X170434000Y-133056000D03*
%TD*%
D17*
%TO.C,J3*%
X254000000Y-132080000D03*
X254000000Y-134620000D03*
X254000000Y-137160000D03*
%TD*%
D10*
%TO.C,J11*%
X177800000Y-182880000D03*
D11*
X177800000Y-185420000D03*
X180340000Y-182880000D03*
X180340000Y-185420000D03*
X182880000Y-182880000D03*
X182880000Y-185420000D03*
X185420000Y-182880000D03*
X185420000Y-185420000D03*
X187960000Y-182880000D03*
X187960000Y-185420000D03*
X190500000Y-182880000D03*
X190500000Y-185420000D03*
X193040000Y-182880000D03*
X193040000Y-185420000D03*
X195580000Y-182880000D03*
X195580000Y-185420000D03*
X198120000Y-182880000D03*
X198120000Y-185420000D03*
X200660000Y-182880000D03*
X200660000Y-185420000D03*
X203200000Y-182880000D03*
X203200000Y-185420000D03*
X205740000Y-182880000D03*
X205740000Y-185420000D03*
X208280000Y-182880000D03*
X208280000Y-185420000D03*
X210820000Y-182880000D03*
X210820000Y-185420000D03*
X213360000Y-182880000D03*
X213360000Y-185420000D03*
X215900000Y-182880000D03*
X215900000Y-185420000D03*
X218440000Y-182880000D03*
X218440000Y-185420000D03*
X220980000Y-182880000D03*
X220980000Y-185420000D03*
X223520000Y-182880000D03*
X223520000Y-185420000D03*
X226060000Y-182880000D03*
X226060000Y-185420000D03*
X228600000Y-182880000D03*
X228600000Y-185420000D03*
X231140000Y-182880000D03*
X231140000Y-185420000D03*
X233680000Y-182880000D03*
X233680000Y-185420000D03*
%TD*%
D18*
%TO.C,Conn2*%
X176240000Y-146780000D03*
D19*
X177840000Y-144780000D03*
D20*
X180340000Y-144780000D03*
%TD*%
D16*
%TO.C,J8*%
X245618000Y-137802000D03*
X245618000Y-135302000D03*
X245618000Y-132802000D03*
X245618000Y-130302000D03*
%TD*%
D18*
%TO.C,Conn4*%
X194020000Y-146780000D03*
D19*
X195620000Y-144780000D03*
D20*
X198120000Y-144780000D03*
%TD*%
D21*
%TO.C,U1*%
X231140000Y-154940000D03*
D22*
X228600000Y-154940000D03*
X226060000Y-154940000D03*
X223520000Y-154940000D03*
X220980000Y-154940000D03*
X218440000Y-154940000D03*
X215900000Y-154940000D03*
X213360000Y-154940000D03*
X210820000Y-154940000D03*
X208280000Y-154940000D03*
X205740000Y-154940000D03*
X203200000Y-154940000D03*
X200660000Y-154940000D03*
X198120000Y-154940000D03*
X195580000Y-154940000D03*
X193040000Y-154940000D03*
X190500000Y-154940000D03*
X187960000Y-154940000D03*
X185420000Y-154940000D03*
X182880000Y-154940000D03*
X180340000Y-154940000D03*
X177800000Y-154940000D03*
X231140000Y-177800000D03*
X228600000Y-177800000D03*
X226060000Y-177800000D03*
X223520000Y-177800000D03*
X220980000Y-177800000D03*
X218440000Y-177800000D03*
X215900000Y-177800000D03*
X213360000Y-177800000D03*
X210820000Y-177800000D03*
X208280000Y-177800000D03*
X205740000Y-177800000D03*
X203200000Y-177800000D03*
X200660000Y-177800000D03*
X198120000Y-177800000D03*
X195580000Y-177800000D03*
X193040000Y-177800000D03*
X190500000Y-177800000D03*
X187960000Y-177800000D03*
X185420000Y-177800000D03*
X182880000Y-177800000D03*
X180340000Y-177800000D03*
X177800000Y-177800000D03*
%TD*%
D10*
%TO.C,J10*%
X177800000Y-134500000D03*
D11*
X177800000Y-137040000D03*
X180340000Y-134500000D03*
X180340000Y-137040000D03*
X182880000Y-134500000D03*
X182880000Y-137040000D03*
X185420000Y-134500000D03*
X185420000Y-137040000D03*
X187960000Y-134500000D03*
X187960000Y-137040000D03*
X190500000Y-134500000D03*
X190500000Y-137040000D03*
X193040000Y-134500000D03*
X193040000Y-137040000D03*
X195580000Y-134500000D03*
X195580000Y-137040000D03*
X198120000Y-134500000D03*
X198120000Y-137040000D03*
X200660000Y-134500000D03*
X200660000Y-137040000D03*
X203200000Y-134500000D03*
X203200000Y-137040000D03*
X205740000Y-134500000D03*
X205740000Y-137040000D03*
X208280000Y-134500000D03*
X208280000Y-137040000D03*
X210820000Y-134500000D03*
X210820000Y-137040000D03*
X213360000Y-134500000D03*
X213360000Y-137040000D03*
X215900000Y-134500000D03*
X215900000Y-137040000D03*
X218440000Y-134500000D03*
X218440000Y-137040000D03*
X220980000Y-134500000D03*
X220980000Y-137040000D03*
X223520000Y-134500000D03*
X223520000Y-137040000D03*
X226060000Y-134500000D03*
X226060000Y-137040000D03*
X228600000Y-134500000D03*
X228600000Y-137040000D03*
X231140000Y-134500000D03*
X231140000Y-137040000D03*
X233680000Y-134500000D03*
X233680000Y-137040000D03*
X236220000Y-134500000D03*
X236220000Y-137040000D03*
X238760000Y-134500000D03*
X238760000Y-137040000D03*
%TD*%
D23*
%TO.C,C1*%
X243320000Y-165100000D03*
X248920000Y-165100000D03*
%TD*%
M02*
