%TF.GenerationSoftware,KiCad,Pcbnew,7.0.10*%
%TF.CreationDate,2024-05-27T10:21:38-04:00*%
%TF.ProjectId,Scout_Board,53636f75-745f-4426-9f61-72642e6b6963,rev?*%
%TF.SameCoordinates,Original*%
%TF.FileFunction,Copper,L2,Bot*%
%TF.FilePolarity,Positive*%
%FSLAX46Y46*%
G04 Gerber Fmt 4.6, Leading zero omitted, Abs format (unit mm)*
G04 Created by KiCad (PCBNEW 7.0.10) date 2024-05-27 10:21:38*
%MOMM*%
%LPD*%
G01*
G04 APERTURE LIST*
%TA.AperFunction,ComponentPad*%
%ADD10C,1.244600*%
%TD*%
%TA.AperFunction,ComponentPad*%
%ADD11R,1.700000X1.700000*%
%TD*%
%TA.AperFunction,ComponentPad*%
%ADD12O,1.700000X1.700000*%
%TD*%
%TA.AperFunction,ComponentPad*%
%ADD13R,1.530000X1.530000*%
%TD*%
%TA.AperFunction,ComponentPad*%
%ADD14C,1.530000*%
%TD*%
%TA.AperFunction,ComponentPad*%
%ADD15R,2.800000X2.800000*%
%TD*%
%TA.AperFunction,ComponentPad*%
%ADD16C,2.800000*%
%TD*%
%TA.AperFunction,ComponentPad*%
%ADD17C,1.320800*%
%TD*%
%TA.AperFunction,ComponentPad*%
%ADD18O,4.560000X2.280000*%
%TD*%
%TA.AperFunction,ComponentPad*%
%ADD19O,2.025000X4.050000*%
%TD*%
%TA.AperFunction,ComponentPad*%
%ADD20O,4.050000X2.025000*%
%TD*%
%TA.AperFunction,ComponentPad*%
%ADD21C,0.630000*%
%TD*%
%TA.AperFunction,SMDPad,CuDef*%
%ADD22R,2.600000X3.300000*%
%TD*%
%TA.AperFunction,ViaPad*%
%ADD23C,0.800000*%
%TD*%
%TA.AperFunction,Conductor*%
%ADD24C,0.250000*%
%TD*%
G04 APERTURE END LIST*
D10*
%TO.P,Conn11,1,Pin_1*%
%TO.N,+3.3V*%
X211859999Y-147320000D03*
%TO.P,Conn11,2,Pin_2*%
%TO.N,Button5*%
X213360000Y-147320000D03*
%TD*%
%TO.P,Conn12,1,Pin_1*%
%TO.N,+3.3V*%
X211859999Y-139700000D03*
%TO.P,Conn12,2,Pin_2*%
%TO.N,Button6*%
X213360000Y-139700000D03*
%TD*%
D11*
%TO.P,J6,1,Pin_1*%
%TO.N,GND*%
X222270000Y-154970000D03*
D12*
%TO.P,J6,2,Pin_2*%
X219730000Y-154970000D03*
%TO.P,J6,3,Pin_3*%
X222270000Y-157510000D03*
%TO.P,J6,4,Pin_4*%
X219730000Y-157510000D03*
%TO.P,J6,5,Pin_5*%
X222270000Y-160050000D03*
%TO.P,J6,6,Pin_6*%
X219730000Y-160050000D03*
%TO.P,J6,7,Pin_7*%
X222270000Y-162590000D03*
%TO.P,J6,8,Pin_8*%
X219730000Y-162590000D03*
%TO.P,J6,9,Pin_9*%
X222270000Y-165130000D03*
%TO.P,J6,10,Pin_10*%
X219730000Y-165130000D03*
%TD*%
D13*
%TO.P,U2,J1_1,3V3*%
%TO.N,+3.3V*%
X162014500Y-156970000D03*
D14*
%TO.P,U2,J1_2,3V3*%
X162014500Y-154430000D03*
%TO.P,U2,J1_3,RST*%
%TO.N,unconnected-(U2-RST-PadJ1_3)*%
X162014500Y-151890000D03*
%TO.P,U2,J1_4,GPIO4*%
%TO.N,Conn3*%
X162014500Y-149350000D03*
%TO.P,U2,J1_5,GPIO5*%
%TO.N,Conn4*%
X162014500Y-146810000D03*
%TO.P,U2,J1_6,GPIO6*%
%TO.N,Sw2*%
X162014500Y-144270000D03*
%TO.P,U2,J1_7,GPIO7*%
%TO.N,FlipButton*%
X162014500Y-141730000D03*
%TO.P,U2,J1_8,GPIO15*%
%TO.N,Sw1*%
X162014500Y-139190000D03*
%TO.P,U2,J1_9,GPIO16*%
%TO.N,TxD*%
X162014500Y-136650000D03*
%TO.P,U2,J1_10,GPIO17*%
%TO.N,RxD*%
X162014500Y-134110000D03*
%TO.P,U2,J1_11,GPIO18*%
%TO.N,CaptureButton*%
X162014500Y-131570000D03*
%TO.P,U2,J1_12,GPIO8*%
%TO.N,SBC_Power*%
X162014500Y-129030000D03*
%TO.P,U2,J1_13,GPIO3*%
%TO.N,Conn2*%
X162014500Y-126490000D03*
%TO.P,U2,J1_14,GPIO46*%
%TO.N,unconnected-(U2-GPIO46-PadJ1_14)*%
X162014500Y-123950000D03*
%TO.P,U2,J1_15,GPIO9*%
%TO.N,Button3*%
X162014500Y-121410000D03*
%TO.P,U2,J1_16,GPIO10*%
%TO.N,Button4*%
X162014500Y-118870000D03*
%TO.P,U2,J1_17,GPIO11*%
%TO.N,Button5*%
X162014500Y-116330000D03*
%TO.P,U2,J1_18,GPIO12*%
%TO.N,Button6*%
X162014500Y-113790000D03*
%TO.P,U2,J1_19,GPIO13*%
%TO.N,TopLightsLV*%
X162014500Y-111250000D03*
%TO.P,U2,J1_20,GPIO14*%
%TO.N,BottomLightsLV*%
X162014500Y-108710000D03*
%TO.P,U2,J1_21,5V0*%
%TO.N,+5V*%
X162014500Y-106170000D03*
%TO.P,U2,J1_22,GND*%
%TO.N,GND*%
X162014500Y-103630000D03*
%TO.P,U2,J3_1,GND*%
X139154500Y-156970000D03*
%TO.P,U2,J3_2,U0TXD/GPIO43*%
%TO.N,unconnected-(U2-U0TXD{slash}GPIO43-PadJ3_2)*%
X139154500Y-154430000D03*
%TO.P,U2,J3_3,U0RXD/GPIO44*%
%TO.N,unconnected-(U2-U0RXD{slash}GPIO44-PadJ3_3)*%
X139154500Y-151890000D03*
%TO.P,U2,J3_4,GPIO1*%
%TO.N,unconnected-(U2-GPIO1-PadJ3_4)*%
X139154500Y-149350000D03*
%TO.P,U2,J3_5,GPIO2*%
%TO.N,Conn1*%
X139154500Y-146810000D03*
%TO.P,U2,J3_6,MTMS/GPIO42*%
%TO.N,unconnected-(U2-MTMS{slash}GPIO42-PadJ3_6)*%
X139154500Y-144270000D03*
%TO.P,U2,J3_7,MTDI/GPIO41*%
%TO.N,unconnected-(U2-MTDI{slash}GPIO41-PadJ3_7)*%
X139154500Y-141730000D03*
%TO.P,U2,J3_8,MTDO/GPIO40*%
%TO.N,unconnected-(U2-MTDO{slash}GPIO40-PadJ3_8)*%
X139154500Y-139190000D03*
%TO.P,U2,J3_9,MTCK/GPIO39*%
%TO.N,unconnected-(U2-MTCK{slash}GPIO39-PadJ3_9)*%
X139154500Y-136650000D03*
%TO.P,U2,J3_10,GPIO38*%
%TO.N,unconnected-(U2-GPIO38-PadJ3_10)*%
X139154500Y-134110000D03*
%TO.P,U2,J3_11,GPIO37*%
%TO.N,unconnected-(U2-GPIO37-PadJ3_11)*%
X139154500Y-131570000D03*
%TO.P,U2,J3_12,GPIO36*%
%TO.N,unconnected-(U2-GPIO36-PadJ3_12)*%
X139154500Y-129030000D03*
%TO.P,U2,J3_13,GPIO35*%
%TO.N,IN2*%
X139154500Y-126490000D03*
%TO.P,U2,J3_14,GPIO0*%
%TO.N,unconnected-(U2-GPIO0-PadJ3_14)*%
X139154500Y-123950000D03*
%TO.P,U2,J3_15,GPIO45*%
%TO.N,unconnected-(U2-GPIO45-PadJ3_15)*%
X139154500Y-121410000D03*
%TO.P,U2,J3_16,GPIO48*%
%TO.N,unconnected-(U2-GPIO48-PadJ3_16)*%
X139154500Y-118870000D03*
%TO.P,U2,J3_17,GPIO47*%
%TO.N,unconnected-(U2-GPIO47-PadJ3_17)*%
X139154500Y-116330000D03*
%TO.P,U2,J3_18,GPIO21*%
%TO.N,IN1*%
X139154500Y-113790000D03*
%TO.P,U2,J3_19,USB_D+/GPIO20*%
%TO.N,unconnected-(U2-USB_D+{slash}GPIO20-PadJ3_19)*%
X139154500Y-111250000D03*
%TO.P,U2,J3_20,USB_D-/GPIO19*%
%TO.N,unconnected-(U2-USB_D-{slash}GPIO19-PadJ3_20)*%
X139154500Y-108710000D03*
%TO.P,U2,J3_21,GND*%
%TO.N,GND*%
X139154500Y-106170000D03*
%TO.P,U2,J3_22,GND*%
X139154500Y-103630000D03*
%TD*%
D11*
%TO.P,J5,1,Pin_1*%
%TO.N,+5V*%
X229870000Y-155194000D03*
D12*
%TO.P,J5,2,Pin_2*%
X227330000Y-155194000D03*
%TO.P,J5,3,Pin_3*%
X229870000Y-157734000D03*
%TO.P,J5,4,Pin_4*%
X227330000Y-157734000D03*
%TO.P,J5,5,Pin_5*%
X229870000Y-160274000D03*
%TO.P,J5,6,Pin_6*%
X227330000Y-160274000D03*
%TO.P,J5,7,Pin_7*%
X229870000Y-162814000D03*
%TO.P,J5,8,Pin_8*%
X227330000Y-162814000D03*
%TO.P,J5,9,Pin_9*%
X229870000Y-165354000D03*
%TO.P,J5,10,Pin_10*%
X227330000Y-165354000D03*
%TD*%
D10*
%TO.P,Conn10,1,Pin_1*%
%TO.N,+3.3V*%
X211859999Y-154940000D03*
%TO.P,Conn10,2,Pin_2*%
%TO.N,Button4*%
X213360000Y-154940000D03*
%TD*%
%TO.P,Conn4,1,Pin_1*%
%TO.N,+12V*%
X203200000Y-134088001D03*
%TO.P,Conn4,2,Pin_2*%
%TO.N,Net-(Conn4-Pin_2)*%
X204700001Y-134088001D03*
%TD*%
%TO.P,Conn9,1,Pin_1*%
%TO.N,+3.3V*%
X211859999Y-162560000D03*
%TO.P,Conn9,2,Pin_2*%
%TO.N,Button3*%
X213360000Y-162560000D03*
%TD*%
D11*
%TO.P,J1,1,Pin_1*%
%TO.N,SBC_Power*%
X172466000Y-148844000D03*
%TD*%
D10*
%TO.P,Conn1,1,Pin_1*%
%TO.N,OUT1*%
X203200000Y-127000000D03*
%TO.P,Conn1,2,Pin_2*%
%TO.N,OUT2*%
X204700001Y-127000000D03*
%TD*%
%TO.P,Conn6,1,Pin_1*%
%TO.N,+3.3V*%
X203200000Y-149328001D03*
%TO.P,Conn6,2,Pin_2*%
%TO.N,FlipButton*%
X204700001Y-149328001D03*
%TD*%
D15*
%TO.P,J4,1,Pin_1*%
%TO.N,+5VA*%
X180928000Y-97282000D03*
D16*
%TO.P,J4,2,Pin_2*%
%TO.N,GND*%
X185928000Y-97282000D03*
%TD*%
D17*
%TO.P,Conn7,1,VCC*%
%TO.N,+3.3V*%
X194818000Y-155194000D03*
%TO.P,Conn7,2,RXD*%
%TO.N,RxD*%
X193318001Y-155194000D03*
%TO.P,Conn7,3,TXD*%
%TO.N,TxD*%
X191817999Y-155194000D03*
%TO.P,Conn7,4,GND*%
%TO.N,GND*%
X190317999Y-155194000D03*
%TD*%
D10*
%TO.P,Conn8,1,Pin_1*%
%TO.N,+3.3V*%
X219479999Y-144780000D03*
%TO.P,Conn8,2,Pin_2*%
%TO.N,CaptureButton*%
X220980000Y-144780000D03*
%TD*%
D11*
%TO.P,J2,1,Pin_1*%
%TO.N,Conn1*%
X171958000Y-154432000D03*
D12*
%TO.P,J2,2,Pin_2*%
%TO.N,Conn2*%
X174498000Y-154432000D03*
%TO.P,J2,3,Pin_3*%
%TO.N,Conn3*%
X177038000Y-154432000D03*
%TO.P,J2,4,Pin_4*%
%TO.N,Conn4*%
X179578000Y-154432000D03*
%TD*%
D10*
%TO.P,Conn2,1,Pin_1*%
%TO.N,+3.3V*%
X203200000Y-164568001D03*
%TO.P,Conn2,2,Pin_2*%
%TO.N,Sw2*%
X204700001Y-164568001D03*
%TD*%
D18*
%TO.P,J3,1*%
%TO.N,+12V*%
X226568000Y-98706000D03*
D19*
%TO.P,J3,2*%
%TO.N,GND*%
X221768000Y-95706000D03*
D20*
%TO.P,J3,3*%
X226568000Y-92456000D03*
%TD*%
D10*
%TO.P,Conn3,1,Pin_1*%
%TO.N,+3.3V*%
X203200000Y-156948001D03*
%TO.P,Conn3,2,Pin_2*%
%TO.N,Sw1*%
X204700001Y-156948001D03*
%TD*%
D21*
%TO.P,U1,9*%
%TO.N,GND*%
X168768000Y-92934000D03*
X168768000Y-94234000D03*
X168768000Y-95534000D03*
D22*
X169418000Y-94234000D03*
D21*
X170068000Y-92934000D03*
X170068000Y-94234000D03*
X170068000Y-95534000D03*
%TD*%
D10*
%TO.P,Conn5,1,Pin_1*%
%TO.N,+12V*%
X203200000Y-141708001D03*
%TO.P,Conn5,2,Pin_2*%
%TO.N,Net-(Conn5-Pin_2)*%
X204700001Y-141708001D03*
%TD*%
D23*
%TO.N,GND*%
X137922000Y-100076000D03*
%TO.N,OUT1*%
X174498000Y-94996000D03*
%TO.N,OUT2*%
X174498000Y-92456000D03*
%TO.N,+3.3V*%
X170298214Y-122912962D03*
X189230000Y-161544000D03*
X175006000Y-161290000D03*
X167132000Y-160782000D03*
X182118000Y-161544000D03*
X180340000Y-124968000D03*
X156464000Y-160782000D03*
X174752000Y-122174000D03*
X147828000Y-160020000D03*
%TO.N,Sw1*%
X151130000Y-156972000D03*
X155702000Y-142748000D03*
%TO.N,Net-(Conn4-Pin_2)*%
X189484000Y-109728000D03*
%TO.N,Net-(Conn5-Pin_2)*%
X175260000Y-116078000D03*
%TO.N,FlipButton*%
X153416000Y-164084000D03*
%TO.N,RxD*%
X172720000Y-134874000D03*
%TO.N,TxD*%
X174248653Y-137409347D03*
%TO.N,CaptureButton*%
X163830000Y-163359000D03*
X160020000Y-157734000D03*
%TO.N,Button3*%
X170434000Y-160528000D03*
X174244000Y-164809000D03*
%TO.N,Button4*%
X181610000Y-166624000D03*
X178562000Y-162306000D03*
%TO.N,Button5*%
X188976000Y-167640000D03*
%TO.N,Button6*%
X197104000Y-153416000D03*
%TO.N,TopLightsLV*%
X179324000Y-121666000D03*
%TD*%
D24*
%TO.N,GND*%
X139154500Y-101308500D02*
X137922000Y-100076000D01*
X139154500Y-103630000D02*
X139154500Y-101308500D01*
%TO.N,OUT1*%
X203200000Y-101346000D02*
X199390000Y-97536000D01*
X196850000Y-94996000D02*
X174498000Y-94996000D01*
X199390000Y-97536000D02*
X196850000Y-94996000D01*
X203200000Y-127000000D02*
X203200000Y-101346000D01*
%TO.N,OUT2*%
X176022000Y-93980000D02*
X174498000Y-92456000D01*
X204700001Y-101830001D02*
X196850000Y-93980000D01*
X204700001Y-127000000D02*
X204700001Y-101830001D01*
X196850000Y-93980000D02*
X176022000Y-93980000D01*
%TO.N,Sw1*%
X151130000Y-162823305D02*
X156671695Y-168365000D01*
X213752385Y-146372700D02*
X215207300Y-147827615D01*
X215207300Y-163325177D02*
X210167477Y-168365000D01*
X159260000Y-139190000D02*
X155702000Y-142748000D01*
X162014500Y-139190000D02*
X159260000Y-139190000D01*
X208994987Y-146372700D02*
X213752385Y-146372700D01*
X210167477Y-168365000D02*
X156671695Y-168365000D01*
X207518000Y-147849687D02*
X208994987Y-146372700D01*
X207518000Y-154130002D02*
X207518000Y-147849687D01*
X215207300Y-147827615D02*
X215207300Y-163325177D01*
X151130000Y-156972000D02*
X151130000Y-162823305D01*
X204700001Y-156948001D02*
X207518000Y-154130002D01*
%TO.N,Net-(Conn4-Pin_2)*%
X196342000Y-110998000D02*
X190754000Y-110998000D01*
X204700001Y-134088001D02*
X204700001Y-130532001D01*
X196342000Y-115062000D02*
X196342000Y-110998000D01*
X203962000Y-129794000D02*
X200914000Y-126746000D01*
X200914000Y-126746000D02*
X200914000Y-119634000D01*
X200914000Y-119634000D02*
X196342000Y-115062000D01*
X190754000Y-110998000D02*
X189484000Y-109728000D01*
X204700001Y-130532001D02*
X203962000Y-129794000D01*
%TO.N,Net-(Conn5-Pin_2)*%
X175260000Y-116078000D02*
X196342000Y-116078000D01*
X200152000Y-137160000D02*
X204700001Y-141708001D01*
X196342000Y-116078000D02*
X200152000Y-119888000D01*
X200152000Y-119888000D02*
X200152000Y-137160000D01*
%TO.N,FlipButton*%
X154432000Y-165100000D02*
X155448000Y-164084000D01*
X153416000Y-150328500D02*
X162014500Y-141730000D01*
X153416000Y-164084000D02*
X154432000Y-165100000D01*
X188962701Y-165065301D02*
X204700001Y-149328001D01*
X153416000Y-164084000D02*
X153416000Y-150328500D01*
X174544305Y-164084000D02*
X175525606Y-165065301D01*
X155448000Y-164084000D02*
X174544305Y-164084000D01*
X175525606Y-165065301D02*
X188962701Y-165065301D01*
%TO.N,RxD*%
X171956000Y-134110000D02*
X162014500Y-134110000D01*
X172720000Y-134874000D02*
X171956000Y-134110000D01*
%TO.N,TxD*%
X173489306Y-136650000D02*
X162014500Y-136650000D01*
X174248653Y-137409347D02*
X173489306Y-136650000D01*
%TO.N,CaptureButton*%
X164105000Y-163634000D02*
X174730701Y-163634000D01*
X207678316Y-143510000D02*
X219710000Y-143510000D01*
X202252700Y-148935616D02*
X207678316Y-143510000D01*
X187381086Y-164592000D02*
X202252700Y-149720386D01*
X202252700Y-149720386D02*
X202252700Y-148935616D01*
X175688701Y-164592000D02*
X187381086Y-164592000D01*
X160020000Y-159549000D02*
X163830000Y-163359000D01*
X174730701Y-163634000D02*
X175688701Y-164592000D01*
X163830000Y-163359000D02*
X164105000Y-163634000D01*
X219710000Y-143510000D02*
X220980000Y-144780000D01*
X160020000Y-157734000D02*
X160020000Y-159549000D01*
%TO.N,Button3*%
X174950301Y-165515301D02*
X210404699Y-165515301D01*
X181926802Y-156655198D02*
X181926802Y-141322302D01*
X181926802Y-141322302D02*
X162014500Y-121410000D01*
X210404699Y-165515301D02*
X213360000Y-162560000D01*
X170434000Y-160528000D02*
X170471000Y-160565000D01*
X174244000Y-164809000D02*
X174950301Y-165515301D01*
X170471000Y-160565000D02*
X178017000Y-160565000D01*
X178017000Y-160565000D02*
X181926802Y-156655198D01*
%TO.N,Button4*%
X214307300Y-155887300D02*
X213360000Y-154940000D01*
X162014500Y-118870000D02*
X162014500Y-119850500D01*
X179578000Y-160528000D02*
X179578000Y-161290000D01*
X162014500Y-119850500D02*
X182843000Y-140679000D01*
X181610000Y-166624000D02*
X210635685Y-166624000D01*
X214307300Y-162952385D02*
X214307300Y-155887300D01*
X182843000Y-140679000D02*
X182843000Y-157263000D01*
X179578000Y-161290000D02*
X178562000Y-162306000D01*
X210635685Y-166624000D02*
X214307300Y-162952385D01*
X182843000Y-157263000D02*
X179578000Y-160528000D01*
%TO.N,Button5*%
X214757300Y-163138781D02*
X214757300Y-148717300D01*
X210256081Y-167640000D02*
X214757300Y-163138781D01*
X188976000Y-167640000D02*
X210256081Y-167640000D01*
X214757300Y-148717300D02*
X213360000Y-147320000D01*
%TO.N,Button6*%
X163104500Y-118400500D02*
X163104500Y-114880000D01*
X197104000Y-153416000D02*
X197104000Y-152400000D01*
X197104000Y-152400000D02*
X163104500Y-118400500D01*
X212412700Y-140647300D02*
X213360000Y-139700000D01*
X197104000Y-153116314D02*
X209573014Y-140647300D01*
X163104500Y-114880000D02*
X162014500Y-113790000D01*
X209573014Y-140647300D02*
X212412700Y-140647300D01*
X197104000Y-153416000D02*
X197104000Y-153116314D01*
%TO.N,Conn3*%
X172117000Y-150019000D02*
X171291000Y-150019000D01*
X177038000Y-154432000D02*
X176530000Y-154432000D01*
X171291000Y-149350000D02*
X162014500Y-149350000D01*
X171291000Y-150019000D02*
X171291000Y-149350000D01*
X176530000Y-154432000D02*
X172117000Y-150019000D01*
%TO.N,Conn4*%
X172782000Y-146810000D02*
X162014500Y-146810000D01*
X179578000Y-154178000D02*
X173641000Y-148241000D01*
X173641000Y-147669000D02*
X172782000Y-146810000D01*
X173641000Y-148241000D02*
X173641000Y-147669000D01*
X179578000Y-154432000D02*
X179578000Y-154178000D01*
%TO.N,TopLightsLV*%
X162014500Y-111250000D02*
X168908000Y-111250000D01*
X168908000Y-111250000D02*
X179324000Y-121666000D01*
%TD*%
%TA.AperFunction,Conductor*%
%TO.N,+3.3V*%
G36*
X163302769Y-119483447D02*
G01*
X163305595Y-119486185D01*
X196442181Y-152622771D01*
X196475666Y-152684094D01*
X196478500Y-152710452D01*
X196478500Y-152717312D01*
X196458815Y-152784351D01*
X196446650Y-152800284D01*
X196371466Y-152883784D01*
X196276821Y-153047715D01*
X196276818Y-153047722D01*
X196218824Y-153226210D01*
X196218326Y-153227744D01*
X196198540Y-153416000D01*
X196218326Y-153604256D01*
X196218327Y-153604259D01*
X196276818Y-153784277D01*
X196276821Y-153784284D01*
X196371467Y-153948216D01*
X196483034Y-154072123D01*
X196498129Y-154088888D01*
X196651265Y-154200148D01*
X196656893Y-154203397D01*
X196656176Y-154204637D01*
X196703725Y-154245055D01*
X196724044Y-154311904D01*
X196704997Y-154379127D01*
X196687731Y-154400762D01*
X187158314Y-163930181D01*
X187096991Y-163963666D01*
X187070633Y-163966500D01*
X175999153Y-163966500D01*
X175932114Y-163946815D01*
X175911472Y-163930181D01*
X175581953Y-163600662D01*
X175231504Y-163250212D01*
X175221681Y-163237950D01*
X175221460Y-163238134D01*
X175216487Y-163232122D01*
X175167477Y-163186099D01*
X175164678Y-163183386D01*
X175145178Y-163163885D01*
X175145172Y-163163880D01*
X175141987Y-163161409D01*
X175133135Y-163153848D01*
X175101283Y-163123938D01*
X175101281Y-163123936D01*
X175101278Y-163123935D01*
X175083730Y-163114288D01*
X175067464Y-163103604D01*
X175051633Y-163091324D01*
X175011550Y-163073978D01*
X175001064Y-163068841D01*
X174962795Y-163047803D01*
X174962793Y-163047802D01*
X174943394Y-163042822D01*
X174924982Y-163036518D01*
X174906599Y-163028562D01*
X174906593Y-163028560D01*
X174863461Y-163021729D01*
X174852023Y-163019361D01*
X174809721Y-163008500D01*
X174809720Y-163008500D01*
X174789685Y-163008500D01*
X174770287Y-163006973D01*
X174762863Y-163005797D01*
X174750506Y-163003840D01*
X174750505Y-163003840D01*
X174707026Y-163007950D01*
X174695357Y-163008500D01*
X164739038Y-163008500D01*
X164671999Y-162988815D01*
X164631651Y-162946500D01*
X164617465Y-162921929D01*
X164562533Y-162826784D01*
X164435871Y-162686112D01*
X164435870Y-162686111D01*
X164282734Y-162574851D01*
X164282729Y-162574848D01*
X164109807Y-162497857D01*
X164109802Y-162497855D01*
X163964001Y-162466865D01*
X163924646Y-162458500D01*
X163924645Y-162458500D01*
X163865452Y-162458500D01*
X163798413Y-162438815D01*
X163777771Y-162422181D01*
X160681819Y-159326228D01*
X160648334Y-159264905D01*
X160645500Y-159238547D01*
X160645500Y-158432687D01*
X160665185Y-158365648D01*
X160677350Y-158349715D01*
X160695891Y-158329122D01*
X160752533Y-158266216D01*
X160847179Y-158102284D01*
X160905674Y-157922256D01*
X160925460Y-157734000D01*
X160905674Y-157545744D01*
X160847179Y-157365716D01*
X160752533Y-157201784D01*
X160625871Y-157061112D01*
X160625870Y-157061111D01*
X160472734Y-156949851D01*
X160472729Y-156949848D01*
X160299807Y-156872857D01*
X160299802Y-156872855D01*
X160154001Y-156841865D01*
X160114646Y-156833500D01*
X159925354Y-156833500D01*
X159892897Y-156840398D01*
X159740197Y-156872855D01*
X159740192Y-156872857D01*
X159567270Y-156949848D01*
X159567265Y-156949851D01*
X159414129Y-157061111D01*
X159287466Y-157201785D01*
X159192821Y-157365715D01*
X159192818Y-157365722D01*
X159135671Y-157541605D01*
X159134326Y-157545744D01*
X159114540Y-157734000D01*
X159134326Y-157922256D01*
X159134327Y-157922259D01*
X159192818Y-158102277D01*
X159192821Y-158102284D01*
X159287467Y-158266216D01*
X159330772Y-158314310D01*
X159362650Y-158349715D01*
X159392880Y-158412706D01*
X159394500Y-158432687D01*
X159394500Y-159466255D01*
X159392775Y-159481872D01*
X159393061Y-159481899D01*
X159392326Y-159489665D01*
X159394439Y-159556872D01*
X159394500Y-159560767D01*
X159394500Y-159588357D01*
X159395003Y-159592335D01*
X159395918Y-159603967D01*
X159397290Y-159647624D01*
X159397291Y-159647627D01*
X159402880Y-159666867D01*
X159406824Y-159685911D01*
X159409336Y-159705792D01*
X159425414Y-159746403D01*
X159429197Y-159757452D01*
X159441382Y-159799390D01*
X159450374Y-159814596D01*
X159451580Y-159816634D01*
X159460138Y-159834103D01*
X159467514Y-159852732D01*
X159493181Y-159888060D01*
X159499593Y-159897821D01*
X159521828Y-159935417D01*
X159521833Y-159935424D01*
X159535990Y-159949580D01*
X159548627Y-159964375D01*
X159560406Y-159980587D01*
X159578777Y-159995785D01*
X159594057Y-160008425D01*
X159602698Y-160016288D01*
X162833229Y-163246819D01*
X162866714Y-163308142D01*
X162861730Y-163377834D01*
X162819858Y-163433767D01*
X162754394Y-163458184D01*
X162745548Y-163458500D01*
X155530743Y-163458500D01*
X155515122Y-163456775D01*
X155515096Y-163457061D01*
X155507334Y-163456327D01*
X155507333Y-163456327D01*
X155455974Y-163457941D01*
X155440127Y-163458439D01*
X155436232Y-163458500D01*
X155408647Y-163458500D01*
X155404661Y-163459003D01*
X155393033Y-163459918D01*
X155349373Y-163461290D01*
X155330129Y-163466881D01*
X155311079Y-163470825D01*
X155291211Y-163473334D01*
X155291210Y-163473334D01*
X155250599Y-163489413D01*
X155239554Y-163493194D01*
X155197614Y-163505379D01*
X155197610Y-163505381D01*
X155180366Y-163515579D01*
X155162905Y-163524133D01*
X155144274Y-163531510D01*
X155144262Y-163531517D01*
X155108933Y-163557185D01*
X155099173Y-163563596D01*
X155061580Y-163585829D01*
X155047414Y-163599995D01*
X155032624Y-163612627D01*
X155016414Y-163624404D01*
X155016411Y-163624407D01*
X154988573Y-163658058D01*
X154980711Y-163666697D01*
X154528298Y-164119109D01*
X154466975Y-164152594D01*
X154397283Y-164147610D01*
X154341350Y-164105738D01*
X154317297Y-164044391D01*
X154301674Y-163895744D01*
X154243179Y-163715716D01*
X154148533Y-163551784D01*
X154136013Y-163537879D01*
X154073350Y-163468284D01*
X154043120Y-163405292D01*
X154041500Y-163385312D01*
X154041500Y-150638952D01*
X154061185Y-150571913D01*
X154077819Y-150551271D01*
X157308924Y-147320166D01*
X160540185Y-144088904D01*
X160601506Y-144055421D01*
X160671198Y-144060405D01*
X160727131Y-144102277D01*
X160751548Y-144167741D01*
X160751392Y-144187393D01*
X160744166Y-144269996D01*
X160744166Y-144270001D01*
X160763464Y-144490585D01*
X160763465Y-144490592D01*
X160820775Y-144704475D01*
X160820779Y-144704486D01*
X160855992Y-144780000D01*
X160914358Y-144905167D01*
X161041368Y-145086555D01*
X161197945Y-145243132D01*
X161379333Y-145370142D01*
X161386775Y-145373612D01*
X161502591Y-145427618D01*
X161555031Y-145473790D01*
X161574183Y-145540983D01*
X161553967Y-145607865D01*
X161502591Y-145652382D01*
X161379336Y-145709856D01*
X161379334Y-145709857D01*
X161197944Y-145836868D01*
X161041368Y-145993444D01*
X160914357Y-146174834D01*
X160914356Y-146174836D01*
X160820779Y-146375513D01*
X160820775Y-146375524D01*
X160763465Y-146589407D01*
X160763464Y-146589414D01*
X160744166Y-146809998D01*
X160744166Y-146810001D01*
X160763464Y-147030585D01*
X160763465Y-147030592D01*
X160820775Y-147244475D01*
X160820779Y-147244486D01*
X160909712Y-147435204D01*
X160914358Y-147445167D01*
X161041368Y-147626555D01*
X161197945Y-147783132D01*
X161379333Y-147910142D01*
X161386775Y-147913612D01*
X161502591Y-147967618D01*
X161555031Y-148013790D01*
X161574183Y-148080983D01*
X161553967Y-148147865D01*
X161502591Y-148192382D01*
X161379336Y-148249856D01*
X161379334Y-148249857D01*
X161197944Y-148376868D01*
X161041368Y-148533444D01*
X160914357Y-148714834D01*
X160914356Y-148714836D01*
X160820779Y-148915513D01*
X160820775Y-148915524D01*
X160763465Y-149129407D01*
X160763464Y-149129414D01*
X160744166Y-149349998D01*
X160744166Y-149350001D01*
X160763464Y-149570585D01*
X160763465Y-149570592D01*
X160820775Y-149784475D01*
X160820779Y-149784486D01*
X160907683Y-149970852D01*
X160914358Y-149985167D01*
X161041368Y-150166555D01*
X161197945Y-150323132D01*
X161379333Y-150450142D01*
X161434544Y-150475887D01*
X161502591Y-150507618D01*
X161555031Y-150553790D01*
X161574183Y-150620983D01*
X161553967Y-150687865D01*
X161502591Y-150732382D01*
X161379336Y-150789856D01*
X161379334Y-150789857D01*
X161197944Y-150916868D01*
X161041368Y-151073444D01*
X160914357Y-151254834D01*
X160914356Y-151254836D01*
X160820779Y-151455513D01*
X160820775Y-151455524D01*
X160763465Y-151669407D01*
X160763464Y-151669414D01*
X160744166Y-151889998D01*
X160744166Y-151890001D01*
X160763464Y-152110585D01*
X160763465Y-152110592D01*
X160820775Y-152324475D01*
X160820779Y-152324486D01*
X160914356Y-152525163D01*
X160914358Y-152525167D01*
X161041368Y-152706555D01*
X161197945Y-152863132D01*
X161379333Y-152990142D01*
X161500072Y-153046443D01*
X161580013Y-153083720D01*
X161580015Y-153083720D01*
X161580020Y-153083723D01*
X161793909Y-153141035D01*
X161951474Y-153154820D01*
X162014498Y-153160334D01*
X162014500Y-153160334D01*
X162014502Y-153160334D01*
X162069647Y-153155509D01*
X162235091Y-153141035D01*
X162448980Y-153083723D01*
X162649667Y-152990142D01*
X162831055Y-152863132D01*
X162987632Y-152706555D01*
X163114642Y-152525167D01*
X163208223Y-152324480D01*
X163265535Y-152110591D01*
X163284834Y-151890000D01*
X163265535Y-151669409D01*
X163208223Y-151455520D01*
X163114642Y-151254833D01*
X162987632Y-151073445D01*
X162831055Y-150916868D01*
X162649667Y-150789858D01*
X162526407Y-150732381D01*
X162473968Y-150686210D01*
X162454816Y-150619017D01*
X162475031Y-150552136D01*
X162526408Y-150507618D01*
X162649667Y-150450142D01*
X162831055Y-150323132D01*
X162987632Y-150166555D01*
X163084387Y-150028374D01*
X163138963Y-149984751D01*
X163185961Y-149975500D01*
X170545083Y-149975500D01*
X170612122Y-149995185D01*
X170657877Y-150047989D01*
X170668838Y-150091713D01*
X170671696Y-150137138D01*
X170674222Y-150144914D01*
X170679309Y-150167672D01*
X170680334Y-150175784D01*
X170680335Y-150175790D01*
X170680336Y-150175792D01*
X170700753Y-150227359D01*
X170703390Y-150234685D01*
X170720532Y-150287440D01*
X170724907Y-150294333D01*
X170735503Y-150315129D01*
X170738511Y-150322726D01*
X170738513Y-150322730D01*
X170738514Y-150322732D01*
X170749168Y-150337396D01*
X170771121Y-150367612D01*
X170775498Y-150374053D01*
X170805213Y-150420875D01*
X170805213Y-150420876D01*
X170811164Y-150426464D01*
X170826604Y-150443978D01*
X170831403Y-150450585D01*
X170874146Y-150485945D01*
X170879978Y-150491087D01*
X170920418Y-150529062D01*
X170927578Y-150532998D01*
X170946879Y-150546114D01*
X170953177Y-150551324D01*
X170953178Y-150551324D01*
X170953179Y-150551325D01*
X171003362Y-150574939D01*
X171010305Y-150578477D01*
X171058903Y-150605195D01*
X171058905Y-150605195D01*
X171058908Y-150605197D01*
X171064205Y-150606556D01*
X171066814Y-150607227D01*
X171088776Y-150615132D01*
X171096174Y-150618614D01*
X171150666Y-150629008D01*
X171158263Y-150630707D01*
X171211981Y-150644500D01*
X171220153Y-150644500D01*
X171243385Y-150646696D01*
X171244989Y-150647001D01*
X171251412Y-150648227D01*
X171251413Y-150648226D01*
X171251414Y-150648227D01*
X171306759Y-150644745D01*
X171314545Y-150644500D01*
X171806548Y-150644500D01*
X171873587Y-150664185D01*
X171894229Y-150680819D01*
X174148385Y-152934976D01*
X174181870Y-152996299D01*
X174176886Y-153065991D01*
X174135014Y-153121924D01*
X174092798Y-153142432D01*
X174034342Y-153158095D01*
X174034335Y-153158098D01*
X173820171Y-153257964D01*
X173820169Y-153257965D01*
X173626600Y-153393503D01*
X173504673Y-153515430D01*
X173443350Y-153548914D01*
X173373658Y-153543930D01*
X173317725Y-153502058D01*
X173300810Y-153471081D01*
X173251797Y-153339671D01*
X173251793Y-153339664D01*
X173165547Y-153224455D01*
X173165544Y-153224452D01*
X173050335Y-153138206D01*
X173050328Y-153138202D01*
X172915482Y-153087908D01*
X172915483Y-153087908D01*
X172855883Y-153081501D01*
X172855881Y-153081500D01*
X172855873Y-153081500D01*
X172855864Y-153081500D01*
X171060129Y-153081500D01*
X171060123Y-153081501D01*
X171000516Y-153087908D01*
X170865671Y-153138202D01*
X170865664Y-153138206D01*
X170750455Y-153224452D01*
X170750452Y-153224455D01*
X170664206Y-153339664D01*
X170664202Y-153339671D01*
X170613908Y-153474517D01*
X170607501Y-153534116D01*
X170607500Y-153534135D01*
X170607500Y-155329870D01*
X170607501Y-155329876D01*
X170613908Y-155389483D01*
X170664202Y-155524328D01*
X170664206Y-155524335D01*
X170750452Y-155639544D01*
X170750455Y-155639547D01*
X170865664Y-155725793D01*
X170865671Y-155725797D01*
X171000517Y-155776091D01*
X171000516Y-155776091D01*
X171007444Y-155776835D01*
X171060127Y-155782500D01*
X172855872Y-155782499D01*
X172915483Y-155776091D01*
X173050331Y-155725796D01*
X173165546Y-155639546D01*
X173251796Y-155524331D01*
X173300810Y-155392916D01*
X173342681Y-155336984D01*
X173408145Y-155312566D01*
X173476418Y-155327417D01*
X173504673Y-155348569D01*
X173626599Y-155470495D01*
X173716739Y-155533612D01*
X173820165Y-155606032D01*
X173820167Y-155606033D01*
X173820170Y-155606035D01*
X174034337Y-155705903D01*
X174262592Y-155767063D01*
X174439034Y-155782500D01*
X174497999Y-155787659D01*
X174498000Y-155787659D01*
X174498001Y-155787659D01*
X174556966Y-155782500D01*
X174733408Y-155767063D01*
X174961663Y-155705903D01*
X175175830Y-155606035D01*
X175369401Y-155470495D01*
X175536495Y-155303401D01*
X175666425Y-155117842D01*
X175721002Y-155074217D01*
X175790500Y-155067023D01*
X175852855Y-155098546D01*
X175869575Y-155117842D01*
X175999500Y-155303395D01*
X175999505Y-155303401D01*
X176166599Y-155470495D01*
X176256739Y-155533612D01*
X176360165Y-155606032D01*
X176360167Y-155606033D01*
X176360170Y-155606035D01*
X176574337Y-155705903D01*
X176802592Y-155767063D01*
X176979034Y-155782500D01*
X177037999Y-155787659D01*
X177038000Y-155787659D01*
X177038001Y-155787659D01*
X177096966Y-155782500D01*
X177273408Y-155767063D01*
X177501663Y-155705903D01*
X177715830Y-155606035D01*
X177909401Y-155470495D01*
X178076495Y-155303401D01*
X178206425Y-155117842D01*
X178261002Y-155074217D01*
X178330500Y-155067023D01*
X178392855Y-155098546D01*
X178409575Y-155117842D01*
X178539500Y-155303395D01*
X178539505Y-155303401D01*
X178706599Y-155470495D01*
X178796739Y-155533612D01*
X178900165Y-155606032D01*
X178900167Y-155606033D01*
X178900170Y-155606035D01*
X179114337Y-155705903D01*
X179342592Y-155767063D01*
X179519034Y-155782500D01*
X179577999Y-155787659D01*
X179578000Y-155787659D01*
X179578001Y-155787659D01*
X179636966Y-155782500D01*
X179813408Y-155767063D01*
X180041663Y-155705903D01*
X180255830Y-155606035D01*
X180449401Y-155470495D01*
X180616495Y-155303401D01*
X180752035Y-155109830D01*
X180851903Y-154895663D01*
X180913063Y-154667408D01*
X180933659Y-154432000D01*
X180913063Y-154196592D01*
X180851903Y-153968337D01*
X180752035Y-153754171D01*
X180711372Y-153696097D01*
X180616494Y-153560597D01*
X180449402Y-153393506D01*
X180449395Y-153393501D01*
X180255834Y-153257967D01*
X180255830Y-153257965D01*
X180205743Y-153234609D01*
X180041663Y-153158097D01*
X180041659Y-153158096D01*
X180041655Y-153158094D01*
X179813413Y-153096938D01*
X179813403Y-153096936D01*
X179578001Y-153076341D01*
X179577998Y-153076341D01*
X179435995Y-153088764D01*
X179367495Y-153074997D01*
X179337507Y-153052917D01*
X174302819Y-148018228D01*
X174269334Y-147956905D01*
X174266500Y-147930547D01*
X174266500Y-147751737D01*
X174268224Y-147736123D01*
X174267938Y-147736096D01*
X174268672Y-147728333D01*
X174266561Y-147661143D01*
X174266500Y-147657249D01*
X174266500Y-147629651D01*
X174266500Y-147629650D01*
X174265997Y-147625670D01*
X174265080Y-147614021D01*
X174263709Y-147570374D01*
X174263709Y-147570372D01*
X174258120Y-147551137D01*
X174254174Y-147532084D01*
X174251664Y-147512208D01*
X174235578Y-147471581D01*
X174231803Y-147460554D01*
X174219617Y-147418610D01*
X174209421Y-147401369D01*
X174200860Y-147383893D01*
X174199308Y-147379975D01*
X174193486Y-147365268D01*
X174167809Y-147329926D01*
X174161412Y-147320190D01*
X174139170Y-147282579D01*
X174139167Y-147282576D01*
X174139165Y-147282573D01*
X174125005Y-147268413D01*
X174112370Y-147253620D01*
X174100593Y-147237412D01*
X174066945Y-147209576D01*
X174058304Y-147201713D01*
X173282803Y-146426212D01*
X173272980Y-146413950D01*
X173272759Y-146414134D01*
X173267786Y-146408122D01*
X173218776Y-146362099D01*
X173215977Y-146359386D01*
X173196477Y-146339885D01*
X173196471Y-146339880D01*
X173193286Y-146337409D01*
X173184434Y-146329848D01*
X173152582Y-146299938D01*
X173152580Y-146299936D01*
X173152577Y-146299935D01*
X173135029Y-146290288D01*
X173118763Y-146279604D01*
X173102932Y-146267324D01*
X173062849Y-146249978D01*
X173052363Y-146244841D01*
X173014094Y-146223803D01*
X173014092Y-146223802D01*
X172994693Y-146218822D01*
X172976281Y-146212518D01*
X172957898Y-146204562D01*
X172957892Y-146204560D01*
X172914760Y-146197729D01*
X172903322Y-146195361D01*
X172861020Y-146184500D01*
X172861019Y-146184500D01*
X172840984Y-146184500D01*
X172821586Y-146182973D01*
X172814162Y-146181797D01*
X172801805Y-146179840D01*
X172801804Y-146179840D01*
X172758325Y-146183950D01*
X172746656Y-146184500D01*
X163185961Y-146184500D01*
X163118922Y-146164815D01*
X163084387Y-146131625D01*
X162987632Y-145993445D01*
X162831055Y-145836868D01*
X162649667Y-145709858D01*
X162585320Y-145679853D01*
X162526408Y-145652382D01*
X162473968Y-145606210D01*
X162454816Y-145539017D01*
X162475031Y-145472136D01*
X162526408Y-145427618D01*
X162649667Y-145370142D01*
X162831055Y-145243132D01*
X162987632Y-145086555D01*
X163114642Y-144905167D01*
X163208223Y-144704480D01*
X163265535Y-144490591D01*
X163284834Y-144270000D01*
X163265535Y-144049409D01*
X163208223Y-143835520D01*
X163114642Y-143634833D01*
X162987632Y-143453445D01*
X162831055Y-143296868D01*
X162649667Y-143169858D01*
X162526407Y-143112381D01*
X162473968Y-143066210D01*
X162454816Y-142999017D01*
X162475031Y-142932136D01*
X162526408Y-142887618D01*
X162543088Y-142879840D01*
X162649667Y-142830142D01*
X162831055Y-142703132D01*
X162987632Y-142546555D01*
X163114642Y-142365167D01*
X163208223Y-142164480D01*
X163265535Y-141950591D01*
X163284834Y-141730000D01*
X163265535Y-141509409D01*
X163208223Y-141295520D01*
X163198641Y-141274972D01*
X163150008Y-141170677D01*
X163114642Y-141094833D01*
X162987632Y-140913445D01*
X162831055Y-140756868D01*
X162649667Y-140629858D01*
X162637149Y-140624021D01*
X162526408Y-140572382D01*
X162473968Y-140526210D01*
X162454816Y-140459017D01*
X162475031Y-140392136D01*
X162526408Y-140347618D01*
X162649667Y-140290142D01*
X162831055Y-140163132D01*
X162987632Y-140006555D01*
X163114642Y-139825167D01*
X163208223Y-139624480D01*
X163265535Y-139410591D01*
X163284834Y-139190000D01*
X163265535Y-138969409D01*
X163208223Y-138755520D01*
X163196511Y-138730404D01*
X163153196Y-138637514D01*
X163114642Y-138554833D01*
X162987632Y-138373445D01*
X162831055Y-138216868D01*
X162649667Y-138089858D01*
X162526407Y-138032381D01*
X162473968Y-137986210D01*
X162454816Y-137919017D01*
X162475031Y-137852136D01*
X162526408Y-137807618D01*
X162649667Y-137750142D01*
X162831055Y-137623132D01*
X162987632Y-137466555D01*
X163084387Y-137328374D01*
X163138963Y-137284751D01*
X163185961Y-137275500D01*
X173178853Y-137275500D01*
X173245892Y-137295185D01*
X173266534Y-137311819D01*
X173309692Y-137354977D01*
X173343177Y-137416300D01*
X173345331Y-137429690D01*
X173362979Y-137597603D01*
X173362980Y-137597606D01*
X173421471Y-137777624D01*
X173421474Y-137777631D01*
X173516120Y-137941563D01*
X173557811Y-137987865D01*
X173642782Y-138082235D01*
X173795918Y-138193495D01*
X173795923Y-138193498D01*
X173968845Y-138270489D01*
X173968850Y-138270491D01*
X174154007Y-138309847D01*
X174154008Y-138309847D01*
X174343297Y-138309847D01*
X174343299Y-138309847D01*
X174528456Y-138270491D01*
X174701383Y-138193498D01*
X174854524Y-138082235D01*
X174981186Y-137941563D01*
X175075832Y-137777631D01*
X175134327Y-137597603D01*
X175154113Y-137409347D01*
X175134327Y-137221091D01*
X175075832Y-137041063D01*
X174981186Y-136877131D01*
X174854524Y-136736459D01*
X174854523Y-136736458D01*
X174701387Y-136625198D01*
X174701382Y-136625195D01*
X174528460Y-136548204D01*
X174528455Y-136548202D01*
X174382654Y-136517212D01*
X174343299Y-136508847D01*
X174343298Y-136508847D01*
X174284106Y-136508847D01*
X174217067Y-136489162D01*
X174196425Y-136472528D01*
X173990109Y-136266212D01*
X173980286Y-136253950D01*
X173980065Y-136254134D01*
X173975092Y-136248122D01*
X173926082Y-136202099D01*
X173923283Y-136199386D01*
X173903783Y-136179885D01*
X173903777Y-136179880D01*
X173900592Y-136177409D01*
X173891740Y-136169848D01*
X173859888Y-136139938D01*
X173859886Y-136139936D01*
X173859883Y-136139935D01*
X173842335Y-136130288D01*
X173826069Y-136119604D01*
X173810238Y-136107324D01*
X173770155Y-136089978D01*
X173759669Y-136084841D01*
X173721400Y-136063803D01*
X173721398Y-136063802D01*
X173701999Y-136058822D01*
X173683587Y-136052518D01*
X173665204Y-136044562D01*
X173665198Y-136044560D01*
X173622066Y-136037729D01*
X173610628Y-136035361D01*
X173568326Y-136024500D01*
X173568325Y-136024500D01*
X173548290Y-136024500D01*
X173528892Y-136022973D01*
X173521468Y-136021797D01*
X173509111Y-136019840D01*
X173509110Y-136019840D01*
X173465631Y-136023950D01*
X173453962Y-136024500D01*
X163185961Y-136024500D01*
X163118922Y-136004815D01*
X163084387Y-135971625D01*
X162987632Y-135833445D01*
X162831055Y-135676868D01*
X162649667Y-135549858D01*
X162526407Y-135492381D01*
X162473968Y-135446210D01*
X162454816Y-135379017D01*
X162475031Y-135312136D01*
X162526408Y-135267618D01*
X162649667Y-135210142D01*
X162831055Y-135083132D01*
X162987632Y-134926555D01*
X163084387Y-134788374D01*
X163138963Y-134744751D01*
X163185961Y-134735500D01*
X171645547Y-134735500D01*
X171712586Y-134755185D01*
X171733228Y-134771819D01*
X171781039Y-134819630D01*
X171814524Y-134880953D01*
X171816678Y-134894343D01*
X171834326Y-135062256D01*
X171834327Y-135062259D01*
X171892818Y-135242277D01*
X171892821Y-135242284D01*
X171987467Y-135406216D01*
X172114129Y-135546888D01*
X172267265Y-135658148D01*
X172267270Y-135658151D01*
X172440192Y-135735142D01*
X172440197Y-135735144D01*
X172625354Y-135774500D01*
X172625355Y-135774500D01*
X172814644Y-135774500D01*
X172814646Y-135774500D01*
X172999803Y-135735144D01*
X173172730Y-135658151D01*
X173325871Y-135546888D01*
X173452533Y-135406216D01*
X173547179Y-135242284D01*
X173605674Y-135062256D01*
X173625460Y-134874000D01*
X173605674Y-134685744D01*
X173547179Y-134505716D01*
X173452533Y-134341784D01*
X173325871Y-134201112D01*
X173325870Y-134201111D01*
X173172734Y-134089851D01*
X173172729Y-134089848D01*
X172999807Y-134012857D01*
X172999802Y-134012855D01*
X172854001Y-133981865D01*
X172814646Y-133973500D01*
X172814645Y-133973500D01*
X172755453Y-133973500D01*
X172688414Y-133953815D01*
X172667772Y-133937181D01*
X172456803Y-133726212D01*
X172446980Y-133713950D01*
X172446759Y-133714134D01*
X172441786Y-133708122D01*
X172392776Y-133662099D01*
X172389977Y-133659386D01*
X172370477Y-133639885D01*
X172370471Y-133639880D01*
X172367286Y-133637409D01*
X172358434Y-133629848D01*
X172326582Y-133599938D01*
X172326580Y-133599936D01*
X172326577Y-133599935D01*
X172309029Y-133590288D01*
X172292763Y-133579604D01*
X172276932Y-133567324D01*
X172236849Y-133549978D01*
X172226363Y-133544841D01*
X172188094Y-133523803D01*
X172188092Y-133523802D01*
X172168693Y-133518822D01*
X172150281Y-133512518D01*
X172131898Y-133504562D01*
X172131892Y-133504560D01*
X172088760Y-133497729D01*
X172077322Y-133495361D01*
X172035020Y-133484500D01*
X172035019Y-133484500D01*
X172014984Y-133484500D01*
X171995586Y-133482973D01*
X171988162Y-133481797D01*
X171975805Y-133479840D01*
X171975804Y-133479840D01*
X171932325Y-133483950D01*
X171920656Y-133484500D01*
X163185961Y-133484500D01*
X163118922Y-133464815D01*
X163084387Y-133431625D01*
X162987632Y-133293445D01*
X162831055Y-133136868D01*
X162649667Y-133009858D01*
X162526407Y-132952381D01*
X162473968Y-132906210D01*
X162454816Y-132839017D01*
X162475031Y-132772136D01*
X162526408Y-132727618D01*
X162649667Y-132670142D01*
X162831055Y-132543132D01*
X162987632Y-132386555D01*
X163114642Y-132205167D01*
X163208223Y-132004480D01*
X163265535Y-131790591D01*
X163284834Y-131570000D01*
X163265535Y-131349409D01*
X163208223Y-131135520D01*
X163114642Y-130934833D01*
X162987632Y-130753445D01*
X162831055Y-130596868D01*
X162649667Y-130469858D01*
X162526407Y-130412381D01*
X162473968Y-130366210D01*
X162454816Y-130299017D01*
X162475031Y-130232136D01*
X162526408Y-130187618D01*
X162535945Y-130183171D01*
X162649667Y-130130142D01*
X162831055Y-130003132D01*
X162987632Y-129846555D01*
X163114642Y-129665167D01*
X163208223Y-129464480D01*
X163265535Y-129250591D01*
X163284834Y-129030000D01*
X163265535Y-128809409D01*
X163208223Y-128595520D01*
X163114642Y-128394833D01*
X162987632Y-128213445D01*
X162831055Y-128056868D01*
X162649667Y-127929858D01*
X162585320Y-127899853D01*
X162526408Y-127872382D01*
X162473968Y-127826210D01*
X162454816Y-127759017D01*
X162475031Y-127692136D01*
X162526408Y-127647618D01*
X162649667Y-127590142D01*
X162831055Y-127463132D01*
X162987632Y-127306555D01*
X163114642Y-127125167D01*
X163208223Y-126924480D01*
X163265535Y-126710591D01*
X163284834Y-126490000D01*
X163265535Y-126269409D01*
X163208223Y-126055520D01*
X163114642Y-125854833D01*
X162987632Y-125673445D01*
X162831055Y-125516868D01*
X162649667Y-125389858D01*
X162526407Y-125332381D01*
X162473968Y-125286210D01*
X162454816Y-125219017D01*
X162475031Y-125152136D01*
X162526408Y-125107618D01*
X162649667Y-125050142D01*
X162831055Y-124923132D01*
X162987632Y-124766555D01*
X163114642Y-124585167D01*
X163208223Y-124384480D01*
X163265535Y-124170591D01*
X163284834Y-123950000D01*
X163277607Y-123867394D01*
X163291374Y-123798894D01*
X163339989Y-123748711D01*
X163408017Y-123732778D01*
X163473861Y-123756153D01*
X163488816Y-123768906D01*
X181264983Y-141545073D01*
X181298468Y-141606396D01*
X181301302Y-141632754D01*
X181301302Y-156344745D01*
X181281617Y-156411784D01*
X181264983Y-156432426D01*
X177794228Y-159903181D01*
X177732905Y-159936666D01*
X177706547Y-159939500D01*
X171171063Y-159939500D01*
X171104024Y-159919815D01*
X171078914Y-159898473D01*
X171039871Y-159855112D01*
X171039864Y-159855106D01*
X170886734Y-159743851D01*
X170886729Y-159743848D01*
X170713807Y-159666857D01*
X170713802Y-159666855D01*
X170548796Y-159631783D01*
X170528646Y-159627500D01*
X170339354Y-159627500D01*
X170319204Y-159631783D01*
X170154197Y-159666855D01*
X170154192Y-159666857D01*
X169981270Y-159743848D01*
X169981265Y-159743851D01*
X169828129Y-159855111D01*
X169701466Y-159995785D01*
X169606821Y-160159715D01*
X169606818Y-160159722D01*
X169565979Y-160285413D01*
X169548326Y-160339744D01*
X169528540Y-160528000D01*
X169548326Y-160716256D01*
X169548327Y-160716259D01*
X169606818Y-160896277D01*
X169606821Y-160896284D01*
X169701467Y-161060216D01*
X169820071Y-161191939D01*
X169828129Y-161200888D01*
X169981265Y-161312148D01*
X169981270Y-161312151D01*
X170154192Y-161389142D01*
X170154197Y-161389144D01*
X170339354Y-161428500D01*
X170339355Y-161428500D01*
X170528644Y-161428500D01*
X170528646Y-161428500D01*
X170713803Y-161389144D01*
X170886730Y-161312151D01*
X170965867Y-161254655D01*
X171021574Y-161214182D01*
X171087380Y-161190702D01*
X171094459Y-161190500D01*
X177934257Y-161190500D01*
X177949877Y-161192224D01*
X177949904Y-161191939D01*
X177957660Y-161192671D01*
X177957667Y-161192673D01*
X178024873Y-161190561D01*
X178028768Y-161190500D01*
X178056346Y-161190500D01*
X178056350Y-161190500D01*
X178060324Y-161189997D01*
X178071963Y-161189080D01*
X178115627Y-161187709D01*
X178134869Y-161182117D01*
X178153912Y-161178174D01*
X178173792Y-161175664D01*
X178214401Y-161159585D01*
X178225444Y-161155803D01*
X178267390Y-161143618D01*
X178284629Y-161133422D01*
X178302103Y-161124862D01*
X178320727Y-161117488D01*
X178320727Y-161117487D01*
X178320732Y-161117486D01*
X178356083Y-161091800D01*
X178365814Y-161085408D01*
X178403420Y-161063170D01*
X178417589Y-161048999D01*
X178432379Y-161036368D01*
X178448587Y-161024594D01*
X178476438Y-160990926D01*
X178484279Y-160982309D01*
X178740819Y-160725770D01*
X178802142Y-160692285D01*
X178871834Y-160697269D01*
X178927767Y-160739141D01*
X178952184Y-160804605D01*
X178952500Y-160813451D01*
X178952500Y-160979547D01*
X178932815Y-161046586D01*
X178916181Y-161067228D01*
X178614228Y-161369181D01*
X178552905Y-161402666D01*
X178526547Y-161405500D01*
X178467354Y-161405500D01*
X178439973Y-161411320D01*
X178282197Y-161444855D01*
X178282192Y-161444857D01*
X178109270Y-161521848D01*
X178109265Y-161521851D01*
X177956129Y-161633111D01*
X177829466Y-161773785D01*
X177734821Y-161937715D01*
X177734818Y-161937722D01*
X177676327Y-162117740D01*
X177676326Y-162117744D01*
X177656540Y-162306000D01*
X177676326Y-162494256D01*
X177676327Y-162494259D01*
X177734818Y-162674277D01*
X177734821Y-162674284D01*
X177829467Y-162838216D01*
X177939323Y-162960223D01*
X177956129Y-162978888D01*
X178109265Y-163090148D01*
X178109270Y-163090151D01*
X178282192Y-163167142D01*
X178282197Y-163167144D01*
X178467354Y-163206500D01*
X178467355Y-163206500D01*
X178656644Y-163206500D01*
X178656646Y-163206500D01*
X178841803Y-163167144D01*
X179014730Y-163090151D01*
X179167871Y-162978888D01*
X179294533Y-162838216D01*
X179389179Y-162674284D01*
X179447674Y-162494256D01*
X179465321Y-162326344D01*
X179491904Y-162261734D01*
X179500951Y-162251638D01*
X179961788Y-161790801D01*
X179974042Y-161780986D01*
X179973859Y-161780764D01*
X179979868Y-161775791D01*
X179979877Y-161775786D01*
X180025949Y-161726722D01*
X180028566Y-161724023D01*
X180048120Y-161704471D01*
X180050576Y-161701303D01*
X180058156Y-161692427D01*
X180088062Y-161660582D01*
X180097715Y-161643020D01*
X180108389Y-161626770D01*
X180120673Y-161610936D01*
X180138019Y-161570850D01*
X180143157Y-161560362D01*
X180148027Y-161551505D01*
X180164197Y-161522092D01*
X180169177Y-161502691D01*
X180175478Y-161484288D01*
X180183438Y-161465896D01*
X180190272Y-161422741D01*
X180192635Y-161411331D01*
X180203500Y-161369019D01*
X180203500Y-161348983D01*
X180205027Y-161329582D01*
X180205186Y-161328578D01*
X180208160Y-161309804D01*
X180204050Y-161266324D01*
X180203500Y-161254655D01*
X180203500Y-160838452D01*
X180223185Y-160771413D01*
X180239819Y-160750771D01*
X181725685Y-159264905D01*
X183226788Y-157763801D01*
X183239042Y-157753986D01*
X183238859Y-157753764D01*
X183244868Y-157748791D01*
X183244877Y-157748786D01*
X183290949Y-157699722D01*
X183293566Y-157697023D01*
X183313120Y-157677471D01*
X183315576Y-157674303D01*
X183323156Y-157665427D01*
X183353062Y-157633582D01*
X183362713Y-157616024D01*
X183373396Y-157599761D01*
X183385673Y-157583936D01*
X183403021Y-157543844D01*
X183408151Y-157533371D01*
X183429197Y-157495092D01*
X183434180Y-157475680D01*
X183440481Y-157457280D01*
X183448437Y-157438896D01*
X183455270Y-157395748D01*
X183457633Y-157384338D01*
X183468500Y-157342019D01*
X183468500Y-157321983D01*
X183470027Y-157302582D01*
X183473160Y-157282804D01*
X183469050Y-157239324D01*
X183468500Y-157227655D01*
X183468500Y-155194000D01*
X189152126Y-155194000D01*
X189171976Y-155408228D01*
X189230854Y-155615159D01*
X189230859Y-155615172D01*
X189326750Y-155807746D01*
X189326752Y-155807749D01*
X189326754Y-155807753D01*
X189326757Y-155807757D01*
X189326759Y-155807760D01*
X189360986Y-155853084D01*
X189456408Y-155979444D01*
X189456411Y-155979446D01*
X189456413Y-155979449D01*
X189615401Y-156124385D01*
X189615403Y-156124386D01*
X189615404Y-156124387D01*
X189798325Y-156237647D01*
X189998943Y-156315367D01*
X190210426Y-156354900D01*
X190210428Y-156354900D01*
X190425570Y-156354900D01*
X190425572Y-156354900D01*
X190637055Y-156315367D01*
X190837673Y-156237647D01*
X191002722Y-156135452D01*
X191070082Y-156116897D01*
X191133275Y-156135452D01*
X191298325Y-156237647D01*
X191498943Y-156315367D01*
X191710426Y-156354900D01*
X191710428Y-156354900D01*
X191925570Y-156354900D01*
X191925572Y-156354900D01*
X192137055Y-156315367D01*
X192337673Y-156237647D01*
X192502724Y-156135451D01*
X192570083Y-156116896D01*
X192633275Y-156135451D01*
X192798327Y-156237647D01*
X192998945Y-156315367D01*
X193210428Y-156354900D01*
X193210430Y-156354900D01*
X193425572Y-156354900D01*
X193425574Y-156354900D01*
X193637057Y-156315367D01*
X193837675Y-156237647D01*
X194020596Y-156124387D01*
X194179592Y-155979444D01*
X194309246Y-155807753D01*
X194405145Y-155615162D01*
X194464023Y-155408229D01*
X194483874Y-155194000D01*
X194464023Y-154979771D01*
X194405145Y-154772838D01*
X194385211Y-154732806D01*
X194309249Y-154580253D01*
X194309248Y-154580252D01*
X194309246Y-154580247D01*
X194179592Y-154408556D01*
X194179588Y-154408552D01*
X194179586Y-154408550D01*
X194020598Y-154263614D01*
X193980812Y-154238979D01*
X193837675Y-154150353D01*
X193637057Y-154072633D01*
X193425574Y-154033100D01*
X193210428Y-154033100D01*
X192998945Y-154072633D01*
X192911974Y-154106326D01*
X192798329Y-154150352D01*
X192798323Y-154150354D01*
X192633277Y-154252547D01*
X192565917Y-154271102D01*
X192502723Y-154252547D01*
X192337676Y-154150354D01*
X192337670Y-154150352D01*
X192336261Y-154149806D01*
X192137055Y-154072633D01*
X191925572Y-154033100D01*
X191710426Y-154033100D01*
X191498943Y-154072633D01*
X191411972Y-154106326D01*
X191298327Y-154150352D01*
X191298321Y-154150354D01*
X191133276Y-154252546D01*
X191065915Y-154271101D01*
X191002722Y-154252546D01*
X190837676Y-154150354D01*
X190837670Y-154150352D01*
X190836261Y-154149806D01*
X190637055Y-154072633D01*
X190425572Y-154033100D01*
X190210426Y-154033100D01*
X189998943Y-154072633D01*
X189911972Y-154106326D01*
X189798327Y-154150352D01*
X189798326Y-154150352D01*
X189615401Y-154263614D01*
X189456413Y-154408550D01*
X189456406Y-154408558D01*
X189326759Y-154580239D01*
X189326750Y-154580253D01*
X189230859Y-154772827D01*
X189230854Y-154772840D01*
X189171976Y-154979771D01*
X189152126Y-155193999D01*
X189152126Y-155194000D01*
X183468500Y-155194000D01*
X183468500Y-140761737D01*
X183470223Y-140746120D01*
X183469938Y-140746093D01*
X183470672Y-140738331D01*
X183468561Y-140671144D01*
X183468500Y-140667250D01*
X183468500Y-140639651D01*
X183468500Y-140639650D01*
X183467997Y-140635670D01*
X183467080Y-140624021D01*
X183466567Y-140607690D01*
X183465709Y-140580373D01*
X183460122Y-140561144D01*
X183456174Y-140542084D01*
X183453664Y-140522208D01*
X183437585Y-140481597D01*
X183433804Y-140470552D01*
X183421619Y-140428612D01*
X183411418Y-140411363D01*
X183402860Y-140393894D01*
X183395486Y-140375268D01*
X183395483Y-140375264D01*
X183395483Y-140375263D01*
X183369816Y-140339935D01*
X183363403Y-140330172D01*
X183341781Y-140293612D01*
X183341170Y-140292579D01*
X183341166Y-140292575D01*
X183341163Y-140292571D01*
X183327005Y-140278413D01*
X183314370Y-140263620D01*
X183302593Y-140247412D01*
X183268945Y-140219576D01*
X183260304Y-140211713D01*
X162949070Y-119900479D01*
X162915585Y-119839156D01*
X162920569Y-119769464D01*
X162949070Y-119725117D01*
X162957450Y-119716737D01*
X162987632Y-119686555D01*
X163114642Y-119505167D01*
X163114644Y-119505162D01*
X163116339Y-119502742D01*
X163170916Y-119459118D01*
X163240415Y-119451925D01*
X163302769Y-119483447D01*
G37*
%TD.AperFunction*%
%TA.AperFunction,Conductor*%
G36*
X237872539Y-89476185D02*
G01*
X237918294Y-89528989D01*
X237929500Y-89580500D01*
X237929500Y-169331500D01*
X237909815Y-169398539D01*
X237857011Y-169444294D01*
X237805500Y-169455500D01*
X135554500Y-169455500D01*
X135487461Y-169435815D01*
X135441706Y-169383011D01*
X135430500Y-169331500D01*
X135430500Y-166456004D01*
X136924357Y-166456004D01*
X136932138Y-166549901D01*
X136932562Y-166560142D01*
X136932562Y-166580080D01*
X136935844Y-166599756D01*
X136937110Y-166609918D01*
X136944890Y-166703815D01*
X136944891Y-166703818D01*
X136968025Y-166795173D01*
X136970127Y-166805199D01*
X136973407Y-166824855D01*
X136973409Y-166824862D01*
X136979882Y-166843717D01*
X136982805Y-166853537D01*
X137005935Y-166944874D01*
X137005939Y-166944887D01*
X137043786Y-167031168D01*
X137047510Y-167040713D01*
X137053986Y-167059576D01*
X137053988Y-167059579D01*
X137063479Y-167077118D01*
X137067978Y-167086321D01*
X137105827Y-167172608D01*
X137157362Y-167251488D01*
X137162608Y-167260292D01*
X137172095Y-167277823D01*
X137172099Y-167277829D01*
X137184352Y-167293573D01*
X137190304Y-167301910D01*
X137241834Y-167380782D01*
X137241838Y-167380787D01*
X137305657Y-167450114D01*
X137312275Y-167457927D01*
X137324523Y-167473663D01*
X137334591Y-167482931D01*
X137339195Y-167487170D01*
X137346431Y-167494406D01*
X137383154Y-167534297D01*
X137410257Y-167563739D01*
X137484618Y-167621617D01*
X137492440Y-167628242D01*
X137507098Y-167641736D01*
X137507100Y-167641737D01*
X137507102Y-167641739D01*
X137523803Y-167652650D01*
X137532133Y-167658599D01*
X137606491Y-167716474D01*
X137606495Y-167716476D01*
X137606500Y-167716480D01*
X137649039Y-167739500D01*
X137689368Y-167761325D01*
X137698153Y-167766559D01*
X137714855Y-167777471D01*
X137733138Y-167785490D01*
X137742291Y-167789965D01*
X137825190Y-167834828D01*
X137914340Y-167865433D01*
X137923839Y-167869140D01*
X137942114Y-167877156D01*
X137942121Y-167877159D01*
X137961441Y-167882051D01*
X137971252Y-167884971D01*
X138031334Y-167905597D01*
X138060385Y-167915571D01*
X138093785Y-167921144D01*
X138153336Y-167931081D01*
X138163357Y-167933182D01*
X138182685Y-167938077D01*
X138202577Y-167939725D01*
X138212698Y-167940986D01*
X138305665Y-167956500D01*
X138305666Y-167956500D01*
X138399884Y-167956500D01*
X138410123Y-167956923D01*
X138416649Y-167957464D01*
X138429997Y-167958571D01*
X138430000Y-167958571D01*
X138430003Y-167958571D01*
X138443350Y-167957464D01*
X138449876Y-167956923D01*
X138460116Y-167956500D01*
X138554330Y-167956500D01*
X138554335Y-167956500D01*
X138647304Y-167940986D01*
X138657413Y-167939726D01*
X138677315Y-167938077D01*
X138696661Y-167933177D01*
X138706644Y-167931084D01*
X138799614Y-167915571D01*
X138888776Y-167884961D01*
X138898524Y-167882059D01*
X138917884Y-167877157D01*
X138936158Y-167869141D01*
X138945657Y-167865434D01*
X139034810Y-167834828D01*
X139117717Y-167789960D01*
X139126851Y-167785495D01*
X139145145Y-167777471D01*
X139161867Y-167766545D01*
X139170601Y-167761341D01*
X139253509Y-167716474D01*
X139327919Y-167658558D01*
X139336184Y-167652658D01*
X139352898Y-167641739D01*
X139367580Y-167628222D01*
X139375370Y-167621625D01*
X139449744Y-167563738D01*
X139513575Y-167494398D01*
X139520785Y-167487187D01*
X139535477Y-167473663D01*
X139547741Y-167457905D01*
X139554329Y-167450127D01*
X139618164Y-167380785D01*
X139669720Y-167301872D01*
X139675628Y-167293597D01*
X139687902Y-167277828D01*
X139697399Y-167260277D01*
X139702628Y-167251501D01*
X139754173Y-167172607D01*
X139792032Y-167086297D01*
X139796512Y-167077132D01*
X139806014Y-167059576D01*
X139812501Y-167040677D01*
X139816195Y-167031210D01*
X139854063Y-166944881D01*
X139877199Y-166853517D01*
X139880118Y-166843717D01*
X139886592Y-166824859D01*
X139889878Y-166805164D01*
X139891974Y-166795173D01*
X139915108Y-166703821D01*
X139922892Y-166609872D01*
X139924155Y-166599756D01*
X139927438Y-166580081D01*
X139928048Y-166550504D01*
X139928442Y-166542892D01*
X139935643Y-166456000D01*
X139928443Y-166369111D01*
X139928048Y-166361492D01*
X139927438Y-166331919D01*
X139924154Y-166312239D01*
X139922891Y-166302115D01*
X139915108Y-166208179D01*
X139891973Y-166116823D01*
X139889873Y-166106804D01*
X139886592Y-166087143D01*
X139886591Y-166087137D01*
X139880121Y-166068292D01*
X139877195Y-166058466D01*
X139877193Y-166058460D01*
X139854063Y-165967119D01*
X139854062Y-165967115D01*
X139816212Y-165880828D01*
X139812498Y-165871312D01*
X139806014Y-165852424D01*
X139796518Y-165834876D01*
X139792018Y-165825671D01*
X139754173Y-165739393D01*
X139702633Y-165660504D01*
X139697398Y-165651719D01*
X139687902Y-165634172D01*
X139683727Y-165628808D01*
X139675654Y-165618435D01*
X139669700Y-165610097D01*
X139618166Y-165531218D01*
X139618165Y-165531217D01*
X139618164Y-165531215D01*
X139583565Y-165493630D01*
X139554341Y-165461884D01*
X139547722Y-165454068D01*
X139535478Y-165438338D01*
X139535473Y-165438333D01*
X139520804Y-165424829D01*
X139513558Y-165417583D01*
X139449744Y-165348262D01*
X139412462Y-165319244D01*
X139375379Y-165290381D01*
X139367564Y-165283762D01*
X139352898Y-165270261D01*
X139336205Y-165259355D01*
X139327872Y-165253405D01*
X139253509Y-165195526D01*
X139253508Y-165195525D01*
X139253505Y-165195523D01*
X139253503Y-165195522D01*
X139170639Y-165150679D01*
X139161835Y-165145433D01*
X139145146Y-165134529D01*
X139134820Y-165130000D01*
X139126881Y-165126517D01*
X139117690Y-165122024D01*
X139089075Y-165106538D01*
X139034811Y-165077172D01*
X139034802Y-165077169D01*
X138945683Y-165046574D01*
X138936146Y-165042853D01*
X138917884Y-165034843D01*
X138917880Y-165034842D01*
X138917878Y-165034841D01*
X138898559Y-165029948D01*
X138888744Y-165027026D01*
X138799614Y-164996429D01*
X138706665Y-164980918D01*
X138696640Y-164978816D01*
X138677312Y-164973922D01*
X138657449Y-164972276D01*
X138647283Y-164971009D01*
X138554336Y-164955500D01*
X138554335Y-164955500D01*
X138460105Y-164955500D01*
X138449865Y-164955076D01*
X138443643Y-164954560D01*
X138430003Y-164953430D01*
X138429997Y-164953430D01*
X138416356Y-164954560D01*
X138410134Y-164955076D01*
X138399895Y-164955500D01*
X138305665Y-164955500D01*
X138212715Y-164971009D01*
X138202550Y-164972276D01*
X138182689Y-164973922D01*
X138182683Y-164973923D01*
X138163363Y-164978815D01*
X138153339Y-164980917D01*
X138060382Y-164996429D01*
X137971255Y-165027025D01*
X137961445Y-165029946D01*
X137942126Y-165034839D01*
X137942115Y-165034843D01*
X137923855Y-165042852D01*
X137914316Y-165046574D01*
X137825194Y-165077170D01*
X137825183Y-165077175D01*
X137742315Y-165122021D01*
X137733111Y-165126521D01*
X137714854Y-165134529D01*
X137714845Y-165134534D01*
X137698168Y-165145430D01*
X137689368Y-165150674D01*
X137606492Y-165195524D01*
X137606489Y-165195526D01*
X137532128Y-165253404D01*
X137523794Y-165259355D01*
X137507099Y-165270263D01*
X137492426Y-165283769D01*
X137484615Y-165290384D01*
X137410255Y-165348262D01*
X137346432Y-165417591D01*
X137339190Y-165424833D01*
X137324529Y-165438330D01*
X137324514Y-165438346D01*
X137312271Y-165454074D01*
X137305657Y-165461884D01*
X137241836Y-165531215D01*
X137190302Y-165610092D01*
X137184353Y-165618425D01*
X137172098Y-165634172D01*
X137172094Y-165634178D01*
X137162605Y-165651711D01*
X137157363Y-165660509D01*
X137105828Y-165739390D01*
X137067981Y-165825670D01*
X137063486Y-165834866D01*
X137053985Y-165852424D01*
X137047508Y-165871291D01*
X137043785Y-165880833D01*
X137005936Y-165967122D01*
X136982805Y-166058460D01*
X136979884Y-166068272D01*
X136973408Y-166087139D01*
X136970127Y-166106800D01*
X136968025Y-166116825D01*
X136944891Y-166208178D01*
X136944891Y-166208182D01*
X136937109Y-166302084D01*
X136935844Y-166312239D01*
X136932562Y-166331919D01*
X136932562Y-166351856D01*
X136932138Y-166362096D01*
X136924357Y-166455994D01*
X136924357Y-166456004D01*
X135430500Y-166456004D01*
X135430500Y-100076000D01*
X137016540Y-100076000D01*
X137036326Y-100264256D01*
X137036327Y-100264259D01*
X137094818Y-100444277D01*
X137094821Y-100444284D01*
X137189467Y-100608216D01*
X137316129Y-100748888D01*
X137469265Y-100860148D01*
X137469270Y-100860151D01*
X137642192Y-100937142D01*
X137642197Y-100937144D01*
X137827354Y-100976500D01*
X137886548Y-100976500D01*
X137953587Y-100996185D01*
X137974229Y-101012819D01*
X138492681Y-101531271D01*
X138526166Y-101592594D01*
X138529000Y-101618952D01*
X138529000Y-102458538D01*
X138509315Y-102525577D01*
X138476124Y-102560112D01*
X138337952Y-102656862D01*
X138337941Y-102656871D01*
X138181368Y-102813444D01*
X138054357Y-102994834D01*
X138054356Y-102994836D01*
X137960779Y-103195513D01*
X137960775Y-103195524D01*
X137903465Y-103409407D01*
X137903464Y-103409414D01*
X137884166Y-103629998D01*
X137884166Y-103630001D01*
X137903464Y-103850585D01*
X137903465Y-103850592D01*
X137960775Y-104064475D01*
X137960779Y-104064486D01*
X138054356Y-104265163D01*
X138054358Y-104265167D01*
X138181368Y-104446555D01*
X138337945Y-104603132D01*
X138519333Y-104730142D01*
X138581328Y-104759050D01*
X138642591Y-104787618D01*
X138695031Y-104833790D01*
X138714183Y-104900983D01*
X138693967Y-104967865D01*
X138642591Y-105012382D01*
X138519336Y-105069856D01*
X138519334Y-105069857D01*
X138337944Y-105196868D01*
X138181368Y-105353444D01*
X138054357Y-105534834D01*
X138054356Y-105534836D01*
X137960779Y-105735513D01*
X137960775Y-105735524D01*
X137903465Y-105949407D01*
X137903464Y-105949414D01*
X137884166Y-106169998D01*
X137884166Y-106170001D01*
X137903464Y-106390585D01*
X137903465Y-106390592D01*
X137960775Y-106604475D01*
X137960779Y-106604486D01*
X138054356Y-106805163D01*
X138054358Y-106805167D01*
X138181368Y-106986555D01*
X138337945Y-107143132D01*
X138519333Y-107270142D01*
X138581328Y-107299050D01*
X138642591Y-107327618D01*
X138695031Y-107373790D01*
X138714183Y-107440983D01*
X138693967Y-107507865D01*
X138642591Y-107552382D01*
X138519336Y-107609856D01*
X138519334Y-107609857D01*
X138337944Y-107736868D01*
X138181368Y-107893444D01*
X138054357Y-108074834D01*
X138054356Y-108074836D01*
X137960779Y-108275513D01*
X137960775Y-108275524D01*
X137903465Y-108489407D01*
X137903464Y-108489414D01*
X137884166Y-108709998D01*
X137884166Y-108710001D01*
X137903464Y-108930585D01*
X137903465Y-108930592D01*
X137960775Y-109144475D01*
X137960779Y-109144486D01*
X138054356Y-109345163D01*
X138054358Y-109345167D01*
X138181368Y-109526555D01*
X138337945Y-109683132D01*
X138519333Y-109810142D01*
X138581328Y-109839050D01*
X138642591Y-109867618D01*
X138695031Y-109913790D01*
X138714183Y-109980983D01*
X138693967Y-110047865D01*
X138642591Y-110092382D01*
X138519336Y-110149856D01*
X138519334Y-110149857D01*
X138337944Y-110276868D01*
X138181368Y-110433444D01*
X138054357Y-110614834D01*
X138054356Y-110614836D01*
X137960779Y-110815513D01*
X137960775Y-110815524D01*
X137903465Y-111029407D01*
X137903464Y-111029414D01*
X137884166Y-111249998D01*
X137884166Y-111250001D01*
X137903464Y-111470585D01*
X137903465Y-111470592D01*
X137960775Y-111684475D01*
X137960779Y-111684486D01*
X137990163Y-111747500D01*
X138054358Y-111885167D01*
X138181368Y-112066555D01*
X138337945Y-112223132D01*
X138519333Y-112350142D01*
X138581328Y-112379050D01*
X138642591Y-112407618D01*
X138695031Y-112453790D01*
X138714183Y-112520983D01*
X138693967Y-112587865D01*
X138642591Y-112632382D01*
X138519336Y-112689856D01*
X138519334Y-112689857D01*
X138337944Y-112816868D01*
X138181368Y-112973444D01*
X138054357Y-113154834D01*
X138054356Y-113154836D01*
X137960779Y-113355513D01*
X137960775Y-113355524D01*
X137903465Y-113569407D01*
X137903464Y-113569414D01*
X137884166Y-113789998D01*
X137884166Y-113790001D01*
X137903464Y-114010585D01*
X137903465Y-114010592D01*
X137960775Y-114224475D01*
X137960779Y-114224486D01*
X138048549Y-114412709D01*
X138054358Y-114425167D01*
X138181368Y-114606555D01*
X138337945Y-114763132D01*
X138519333Y-114890142D01*
X138581328Y-114919050D01*
X138642591Y-114947618D01*
X138695031Y-114993790D01*
X138714183Y-115060983D01*
X138693967Y-115127865D01*
X138642591Y-115172382D01*
X138519336Y-115229856D01*
X138519334Y-115229857D01*
X138337944Y-115356868D01*
X138181368Y-115513444D01*
X138054357Y-115694834D01*
X138054356Y-115694836D01*
X137960779Y-115895513D01*
X137960775Y-115895524D01*
X137903465Y-116109407D01*
X137903464Y-116109414D01*
X137884166Y-116329998D01*
X137884166Y-116330001D01*
X137903464Y-116550585D01*
X137903465Y-116550592D01*
X137960775Y-116764475D01*
X137960779Y-116764486D01*
X138042223Y-116939144D01*
X138054358Y-116965167D01*
X138181368Y-117146555D01*
X138337945Y-117303132D01*
X138519333Y-117430142D01*
X138581328Y-117459050D01*
X138642591Y-117487618D01*
X138695031Y-117533790D01*
X138714183Y-117600983D01*
X138693967Y-117667865D01*
X138642591Y-117712382D01*
X138519336Y-117769856D01*
X138519334Y-117769857D01*
X138337944Y-117896868D01*
X138181368Y-118053444D01*
X138054357Y-118234834D01*
X138054356Y-118234836D01*
X137960779Y-118435513D01*
X137960775Y-118435524D01*
X137903465Y-118649407D01*
X137903464Y-118649414D01*
X137884166Y-118869998D01*
X137884166Y-118870001D01*
X137903464Y-119090585D01*
X137903465Y-119090592D01*
X137960775Y-119304475D01*
X137960779Y-119304486D01*
X138050589Y-119497084D01*
X138054358Y-119505167D01*
X138181368Y-119686555D01*
X138337945Y-119843132D01*
X138519333Y-119970142D01*
X138540382Y-119979957D01*
X138642591Y-120027618D01*
X138695031Y-120073790D01*
X138714183Y-120140983D01*
X138693967Y-120207865D01*
X138642591Y-120252382D01*
X138519336Y-120309856D01*
X138519334Y-120309857D01*
X138337944Y-120436868D01*
X138181368Y-120593444D01*
X138054357Y-120774834D01*
X138054356Y-120774836D01*
X137960779Y-120975513D01*
X137960775Y-120975524D01*
X137903465Y-121189407D01*
X137903464Y-121189414D01*
X137884166Y-121409998D01*
X137884166Y-121410001D01*
X137903464Y-121630585D01*
X137903465Y-121630592D01*
X137960775Y-121844475D01*
X137960779Y-121844486D01*
X138049280Y-122034277D01*
X138054358Y-122045167D01*
X138181368Y-122226555D01*
X138337945Y-122383132D01*
X138519333Y-122510142D01*
X138581328Y-122539050D01*
X138642591Y-122567618D01*
X138695031Y-122613790D01*
X138714183Y-122680983D01*
X138693967Y-122747865D01*
X138642591Y-122792382D01*
X138519336Y-122849856D01*
X138519334Y-122849857D01*
X138337944Y-122976868D01*
X138181368Y-123133444D01*
X138054357Y-123314834D01*
X138054356Y-123314836D01*
X137960779Y-123515513D01*
X137960775Y-123515524D01*
X137903465Y-123729407D01*
X137903464Y-123729414D01*
X137884166Y-123949998D01*
X137884166Y-123950001D01*
X137903464Y-124170585D01*
X137903465Y-124170592D01*
X137960775Y-124384475D01*
X137960779Y-124384486D01*
X138054356Y-124585163D01*
X138054358Y-124585167D01*
X138181368Y-124766555D01*
X138337945Y-124923132D01*
X138519333Y-125050142D01*
X138581328Y-125079050D01*
X138642591Y-125107618D01*
X138695031Y-125153790D01*
X138714183Y-125220983D01*
X138693967Y-125287865D01*
X138642591Y-125332382D01*
X138519336Y-125389856D01*
X138519334Y-125389857D01*
X138337944Y-125516868D01*
X138181368Y-125673444D01*
X138054357Y-125854834D01*
X138054356Y-125854836D01*
X137960779Y-126055513D01*
X137960775Y-126055524D01*
X137903465Y-126269407D01*
X137903464Y-126269414D01*
X137884166Y-126489998D01*
X137884166Y-126490001D01*
X137903464Y-126710585D01*
X137903465Y-126710592D01*
X137960775Y-126924475D01*
X137960779Y-126924486D01*
X137995992Y-127000000D01*
X138054358Y-127125167D01*
X138181368Y-127306555D01*
X138337945Y-127463132D01*
X138519333Y-127590142D01*
X138526775Y-127593612D01*
X138642591Y-127647618D01*
X138695031Y-127693790D01*
X138714183Y-127760983D01*
X138693967Y-127827865D01*
X138642591Y-127872382D01*
X138519336Y-127929856D01*
X138519334Y-127929857D01*
X138337944Y-128056868D01*
X138181368Y-128213444D01*
X138054357Y-128394834D01*
X138054356Y-128394836D01*
X137960779Y-128595513D01*
X137960775Y-128595524D01*
X137903465Y-128809407D01*
X137903464Y-128809414D01*
X137884166Y-129029998D01*
X137884166Y-129030001D01*
X137903464Y-129250585D01*
X137903465Y-129250592D01*
X137960775Y-129464475D01*
X137960779Y-129464486D01*
X138054356Y-129665163D01*
X138054358Y-129665167D01*
X138181368Y-129846555D01*
X138337945Y-130003132D01*
X138519333Y-130130142D01*
X138552449Y-130145584D01*
X138642591Y-130187618D01*
X138695031Y-130233790D01*
X138714183Y-130300983D01*
X138693967Y-130367865D01*
X138642591Y-130412382D01*
X138519336Y-130469856D01*
X138519334Y-130469857D01*
X138337944Y-130596868D01*
X138181368Y-130753444D01*
X138054357Y-130934834D01*
X138054356Y-130934836D01*
X137960779Y-131135513D01*
X137960775Y-131135524D01*
X137903465Y-131349407D01*
X137903464Y-131349414D01*
X137884166Y-131569998D01*
X137884166Y-131570001D01*
X137903464Y-131790585D01*
X137903465Y-131790592D01*
X137960775Y-132004475D01*
X137960779Y-132004486D01*
X138054356Y-132205163D01*
X138054358Y-132205167D01*
X138181368Y-132386555D01*
X138337945Y-132543132D01*
X138519333Y-132670142D01*
X138581328Y-132699050D01*
X138642591Y-132727618D01*
X138695031Y-132773790D01*
X138714183Y-132840983D01*
X138693967Y-132907865D01*
X138642591Y-132952382D01*
X138519336Y-133009856D01*
X138519334Y-133009857D01*
X138337944Y-133136868D01*
X138181368Y-133293444D01*
X138054357Y-133474834D01*
X138054356Y-133474836D01*
X137960779Y-133675513D01*
X137960775Y-133675524D01*
X137903465Y-133889407D01*
X137903464Y-133889414D01*
X137884166Y-134109998D01*
X137884166Y-134110001D01*
X137903464Y-134330585D01*
X137903465Y-134330592D01*
X137960775Y-134544475D01*
X137960779Y-134544486D01*
X138026647Y-134685740D01*
X138054358Y-134745167D01*
X138181368Y-134926555D01*
X138337945Y-135083132D01*
X138519333Y-135210142D01*
X138581328Y-135239050D01*
X138642591Y-135267618D01*
X138695031Y-135313790D01*
X138714183Y-135380983D01*
X138693967Y-135447865D01*
X138642591Y-135492382D01*
X138519336Y-135549856D01*
X138519334Y-135549857D01*
X138337944Y-135676868D01*
X138181368Y-135833444D01*
X138054357Y-136014834D01*
X138054356Y-136014836D01*
X137960779Y-136215513D01*
X137960775Y-136215524D01*
X137903465Y-136429407D01*
X137903464Y-136429414D01*
X137884166Y-136649998D01*
X137884166Y-136650001D01*
X137903464Y-136870585D01*
X137903465Y-136870592D01*
X137960775Y-137084475D01*
X137960779Y-137084486D01*
X138024477Y-137221087D01*
X138054358Y-137285167D01*
X138181368Y-137466555D01*
X138337945Y-137623132D01*
X138519333Y-137750142D01*
X138578269Y-137777624D01*
X138642591Y-137807618D01*
X138695031Y-137853790D01*
X138714183Y-137920983D01*
X138693967Y-137987865D01*
X138642591Y-138032382D01*
X138519336Y-138089856D01*
X138519334Y-138089857D01*
X138337944Y-138216868D01*
X138181368Y-138373444D01*
X138054357Y-138554834D01*
X138054356Y-138554836D01*
X137960779Y-138755513D01*
X137960775Y-138755524D01*
X137903465Y-138969407D01*
X137903464Y-138969414D01*
X137884166Y-139189998D01*
X137884166Y-139190001D01*
X137903464Y-139410585D01*
X137903465Y-139410592D01*
X137960775Y-139624475D01*
X137960779Y-139624486D01*
X137995992Y-139700000D01*
X138054358Y-139825167D01*
X138181368Y-140006555D01*
X138337945Y-140163132D01*
X138519333Y-140290142D01*
X138526775Y-140293612D01*
X138642591Y-140347618D01*
X138695031Y-140393790D01*
X138714183Y-140460983D01*
X138693967Y-140527865D01*
X138642591Y-140572382D01*
X138519336Y-140629856D01*
X138519334Y-140629857D01*
X138337944Y-140756868D01*
X138181368Y-140913444D01*
X138054357Y-141094834D01*
X138054356Y-141094836D01*
X137960779Y-141295513D01*
X137960775Y-141295524D01*
X137903465Y-141509407D01*
X137903464Y-141509414D01*
X137884166Y-141729998D01*
X137884166Y-141730001D01*
X137903464Y-141950585D01*
X137903465Y-141950592D01*
X137960775Y-142164475D01*
X137960779Y-142164486D01*
X138054356Y-142365163D01*
X138054358Y-142365167D01*
X138181368Y-142546555D01*
X138337945Y-142703132D01*
X138519333Y-142830142D01*
X138581328Y-142859050D01*
X138642591Y-142887618D01*
X138695031Y-142933790D01*
X138714183Y-143000983D01*
X138693967Y-143067865D01*
X138642591Y-143112382D01*
X138519336Y-143169856D01*
X138519334Y-143169857D01*
X138337944Y-143296868D01*
X138181368Y-143453444D01*
X138054357Y-143634834D01*
X138054356Y-143634836D01*
X137960779Y-143835513D01*
X137960775Y-143835524D01*
X137903465Y-144049407D01*
X137903464Y-144049414D01*
X137884166Y-144269998D01*
X137884166Y-144270001D01*
X137903464Y-144490585D01*
X137903465Y-144490592D01*
X137960775Y-144704475D01*
X137960779Y-144704486D01*
X137995992Y-144780000D01*
X138054358Y-144905167D01*
X138181368Y-145086555D01*
X138337945Y-145243132D01*
X138519333Y-145370142D01*
X138526775Y-145373612D01*
X138642591Y-145427618D01*
X138695031Y-145473790D01*
X138714183Y-145540983D01*
X138693967Y-145607865D01*
X138642591Y-145652382D01*
X138519336Y-145709856D01*
X138519334Y-145709857D01*
X138337944Y-145836868D01*
X138181368Y-145993444D01*
X138054357Y-146174834D01*
X138054356Y-146174836D01*
X137960779Y-146375513D01*
X137960775Y-146375524D01*
X137903465Y-146589407D01*
X137903464Y-146589414D01*
X137884166Y-146809998D01*
X137884166Y-146810001D01*
X137903464Y-147030585D01*
X137903465Y-147030592D01*
X137960775Y-147244475D01*
X137960779Y-147244486D01*
X138049712Y-147435204D01*
X138054358Y-147445167D01*
X138181368Y-147626555D01*
X138337945Y-147783132D01*
X138519333Y-147910142D01*
X138526775Y-147913612D01*
X138642591Y-147967618D01*
X138695031Y-148013790D01*
X138714183Y-148080983D01*
X138693967Y-148147865D01*
X138642591Y-148192382D01*
X138519336Y-148249856D01*
X138519334Y-148249857D01*
X138337944Y-148376868D01*
X138181368Y-148533444D01*
X138054357Y-148714834D01*
X138054356Y-148714836D01*
X137960779Y-148915513D01*
X137960775Y-148915524D01*
X137903465Y-149129407D01*
X137903464Y-149129414D01*
X137884166Y-149349998D01*
X137884166Y-149350001D01*
X137903464Y-149570585D01*
X137903465Y-149570592D01*
X137960775Y-149784475D01*
X137960779Y-149784486D01*
X138047683Y-149970852D01*
X138054358Y-149985167D01*
X138181368Y-150166555D01*
X138337945Y-150323132D01*
X138519333Y-150450142D01*
X138574544Y-150475887D01*
X138642591Y-150507618D01*
X138695031Y-150553790D01*
X138714183Y-150620983D01*
X138693967Y-150687865D01*
X138642591Y-150732382D01*
X138519336Y-150789856D01*
X138519334Y-150789857D01*
X138337944Y-150916868D01*
X138181368Y-151073444D01*
X138054357Y-151254834D01*
X138054356Y-151254836D01*
X137960779Y-151455513D01*
X137960775Y-151455524D01*
X137903465Y-151669407D01*
X137903464Y-151669414D01*
X137884166Y-151889998D01*
X137884166Y-151890001D01*
X137903464Y-152110585D01*
X137903465Y-152110592D01*
X137960775Y-152324475D01*
X137960779Y-152324486D01*
X138054356Y-152525163D01*
X138054358Y-152525167D01*
X138181368Y-152706555D01*
X138337945Y-152863132D01*
X138519333Y-152990142D01*
X138581328Y-153019050D01*
X138642591Y-153047618D01*
X138695031Y-153093790D01*
X138714183Y-153160983D01*
X138693967Y-153227865D01*
X138642591Y-153272382D01*
X138519336Y-153329856D01*
X138519334Y-153329857D01*
X138337944Y-153456868D01*
X138181368Y-153613444D01*
X138054357Y-153794834D01*
X138054356Y-153794836D01*
X137960779Y-153995513D01*
X137960775Y-153995524D01*
X137903465Y-154209407D01*
X137903464Y-154209414D01*
X137884166Y-154429998D01*
X137884166Y-154430001D01*
X137903464Y-154650585D01*
X137903465Y-154650592D01*
X137960775Y-154864475D01*
X137960779Y-154864486D01*
X138054356Y-155065163D01*
X138054358Y-155065167D01*
X138181368Y-155246555D01*
X138337945Y-155403132D01*
X138519333Y-155530142D01*
X138526775Y-155533612D01*
X138642591Y-155587618D01*
X138695031Y-155633790D01*
X138714183Y-155700983D01*
X138693967Y-155767865D01*
X138642591Y-155812382D01*
X138519336Y-155869856D01*
X138519334Y-155869857D01*
X138337944Y-155996868D01*
X138181368Y-156153444D01*
X138054357Y-156334834D01*
X138054356Y-156334836D01*
X137960779Y-156535513D01*
X137960775Y-156535524D01*
X137903465Y-156749407D01*
X137903464Y-156749414D01*
X137884166Y-156969998D01*
X137884166Y-156970001D01*
X137903464Y-157190585D01*
X137903465Y-157190592D01*
X137960775Y-157404475D01*
X137960779Y-157404486D01*
X138025767Y-157543853D01*
X138054358Y-157605167D01*
X138181368Y-157786555D01*
X138337945Y-157943132D01*
X138519333Y-158070142D01*
X138640072Y-158126443D01*
X138720013Y-158163720D01*
X138720015Y-158163720D01*
X138720020Y-158163723D01*
X138933909Y-158221035D01*
X139091474Y-158234820D01*
X139154498Y-158240334D01*
X139154500Y-158240334D01*
X139154502Y-158240334D01*
X139209647Y-158235509D01*
X139375091Y-158221035D01*
X139588980Y-158163723D01*
X139789667Y-158070142D01*
X139971055Y-157943132D01*
X140127632Y-157786555D01*
X140254642Y-157605167D01*
X140348223Y-157404480D01*
X140405535Y-157190591D01*
X140424659Y-156972000D01*
X150224540Y-156972000D01*
X150244326Y-157160256D01*
X150244327Y-157160259D01*
X150302818Y-157340277D01*
X150302821Y-157340284D01*
X150397467Y-157504216D01*
X150423704Y-157533355D01*
X150472650Y-157587715D01*
X150502880Y-157650706D01*
X150504500Y-157670687D01*
X150504500Y-162740560D01*
X150502775Y-162756177D01*
X150503061Y-162756204D01*
X150502326Y-162763970D01*
X150504439Y-162831177D01*
X150504500Y-162835072D01*
X150504500Y-162862662D01*
X150505003Y-162866640D01*
X150505918Y-162878272D01*
X150507290Y-162921929D01*
X150507291Y-162921932D01*
X150512880Y-162941172D01*
X150516824Y-162960216D01*
X150519183Y-162978888D01*
X150519336Y-162980097D01*
X150535414Y-163020708D01*
X150539197Y-163031757D01*
X150549971Y-163068841D01*
X150551382Y-163073695D01*
X150551549Y-163073978D01*
X150561580Y-163090939D01*
X150570138Y-163108408D01*
X150577514Y-163127037D01*
X150603181Y-163162365D01*
X150609593Y-163172126D01*
X150631828Y-163209722D01*
X150631833Y-163209729D01*
X150645990Y-163223885D01*
X150658628Y-163238681D01*
X150670405Y-163254891D01*
X150670406Y-163254892D01*
X150704057Y-163282730D01*
X150712698Y-163290593D01*
X156170892Y-168748788D01*
X156180717Y-168761051D01*
X156180938Y-168760869D01*
X156185906Y-168766874D01*
X156234917Y-168812899D01*
X156237716Y-168815612D01*
X156257217Y-168835114D01*
X156257221Y-168835117D01*
X156257224Y-168835120D01*
X156260397Y-168837581D01*
X156269269Y-168845159D01*
X156301113Y-168875062D01*
X156318671Y-168884714D01*
X156334930Y-168895395D01*
X156350759Y-168907673D01*
X156390850Y-168925021D01*
X156401321Y-168930151D01*
X156423875Y-168942550D01*
X156439597Y-168951194D01*
X156439599Y-168951195D01*
X156439603Y-168951197D01*
X156459011Y-168956180D01*
X156477414Y-168962481D01*
X156495796Y-168970436D01*
X156495797Y-168970436D01*
X156495799Y-168970437D01*
X156538945Y-168977270D01*
X156550367Y-168979636D01*
X156592676Y-168990500D01*
X156612711Y-168990500D01*
X156632109Y-168992026D01*
X156651889Y-168995159D01*
X156651890Y-168995160D01*
X156651890Y-168995159D01*
X156651891Y-168995160D01*
X156695370Y-168991050D01*
X156707039Y-168990500D01*
X210084734Y-168990500D01*
X210100354Y-168992224D01*
X210100381Y-168991939D01*
X210108137Y-168992671D01*
X210108144Y-168992673D01*
X210175350Y-168990561D01*
X210179245Y-168990500D01*
X210206823Y-168990500D01*
X210206827Y-168990500D01*
X210210801Y-168989997D01*
X210222440Y-168989080D01*
X210266104Y-168987709D01*
X210285346Y-168982117D01*
X210304389Y-168978174D01*
X210324269Y-168975664D01*
X210364878Y-168959585D01*
X210375921Y-168955803D01*
X210417867Y-168943618D01*
X210435106Y-168933422D01*
X210452580Y-168924862D01*
X210471204Y-168917488D01*
X210471204Y-168917487D01*
X210471209Y-168917486D01*
X210506560Y-168891800D01*
X210516291Y-168885408D01*
X210553897Y-168863170D01*
X210568066Y-168848999D01*
X210582856Y-168836368D01*
X210599064Y-168824594D01*
X210626915Y-168790926D01*
X210634756Y-168782309D01*
X214287066Y-165130000D01*
X218374341Y-165130000D01*
X218394936Y-165365403D01*
X218394938Y-165365413D01*
X218456094Y-165593655D01*
X218456096Y-165593659D01*
X218456097Y-165593663D01*
X218483169Y-165651719D01*
X218555965Y-165807830D01*
X218555967Y-165807834D01*
X218628452Y-165911352D01*
X218691505Y-166001401D01*
X218858599Y-166168495D01*
X218922573Y-166213290D01*
X219052165Y-166304032D01*
X219052167Y-166304033D01*
X219052170Y-166304035D01*
X219266337Y-166403903D01*
X219494592Y-166465063D01*
X219682918Y-166481539D01*
X219729999Y-166485659D01*
X219730000Y-166485659D01*
X219730001Y-166485659D01*
X219769234Y-166482226D01*
X219965408Y-166465063D01*
X220193663Y-166403903D01*
X220407830Y-166304035D01*
X220601401Y-166168495D01*
X220768495Y-166001401D01*
X220897150Y-165817663D01*
X220898425Y-165815842D01*
X220953002Y-165772217D01*
X221022500Y-165765023D01*
X221084855Y-165796546D01*
X221101575Y-165815842D01*
X221231500Y-166001395D01*
X221231505Y-166001401D01*
X221398599Y-166168495D01*
X221462573Y-166213290D01*
X221592165Y-166304032D01*
X221592167Y-166304033D01*
X221592170Y-166304035D01*
X221806337Y-166403903D01*
X222034592Y-166465063D01*
X222222918Y-166481539D01*
X222269999Y-166485659D01*
X222270000Y-166485659D01*
X222270001Y-166485659D01*
X222309234Y-166482226D01*
X222505408Y-166465063D01*
X222733663Y-166403903D01*
X222947830Y-166304035D01*
X223141401Y-166168495D01*
X223308495Y-166001401D01*
X223444035Y-165807830D01*
X223543903Y-165593663D01*
X223605063Y-165365408D01*
X223606061Y-165354000D01*
X225974341Y-165354000D01*
X225994936Y-165589403D01*
X225994938Y-165589413D01*
X226056094Y-165817655D01*
X226056096Y-165817659D01*
X226056097Y-165817663D01*
X226136004Y-165989023D01*
X226155965Y-166031830D01*
X226155967Y-166031834D01*
X226251659Y-166168495D01*
X226291505Y-166225401D01*
X226458599Y-166392495D01*
X226520359Y-166435740D01*
X226652165Y-166528032D01*
X226652167Y-166528033D01*
X226652170Y-166528035D01*
X226866337Y-166627903D01*
X227094592Y-166689063D01*
X227282918Y-166705539D01*
X227329999Y-166709659D01*
X227330000Y-166709659D01*
X227330001Y-166709659D01*
X227369234Y-166706226D01*
X227565408Y-166689063D01*
X227793663Y-166627903D01*
X228007830Y-166528035D01*
X228201401Y-166392495D01*
X228368495Y-166225401D01*
X228498425Y-166039842D01*
X228553002Y-165996217D01*
X228622500Y-165989023D01*
X228684855Y-166020546D01*
X228701575Y-166039842D01*
X228831500Y-166225395D01*
X228831505Y-166225401D01*
X228998599Y-166392495D01*
X229060359Y-166435740D01*
X229192165Y-166528032D01*
X229192167Y-166528033D01*
X229192170Y-166528035D01*
X229406337Y-166627903D01*
X229634592Y-166689063D01*
X229822918Y-166705539D01*
X229869999Y-166709659D01*
X229870000Y-166709659D01*
X229870001Y-166709659D01*
X229909234Y-166706226D01*
X230105408Y-166689063D01*
X230333663Y-166627903D01*
X230547830Y-166528035D01*
X230650701Y-166456004D01*
X233424357Y-166456004D01*
X233432138Y-166549901D01*
X233432562Y-166560142D01*
X233432562Y-166580080D01*
X233435844Y-166599756D01*
X233437110Y-166609918D01*
X233444890Y-166703815D01*
X233444891Y-166703818D01*
X233468025Y-166795173D01*
X233470127Y-166805199D01*
X233473407Y-166824855D01*
X233473409Y-166824862D01*
X233479882Y-166843717D01*
X233482805Y-166853537D01*
X233505935Y-166944874D01*
X233505939Y-166944887D01*
X233543786Y-167031168D01*
X233547510Y-167040713D01*
X233553986Y-167059576D01*
X233553988Y-167059579D01*
X233563479Y-167077118D01*
X233567978Y-167086321D01*
X233605827Y-167172608D01*
X233657362Y-167251488D01*
X233662608Y-167260292D01*
X233672095Y-167277823D01*
X233672099Y-167277829D01*
X233684352Y-167293573D01*
X233690304Y-167301910D01*
X233741834Y-167380782D01*
X233741838Y-167380787D01*
X233805657Y-167450114D01*
X233812275Y-167457927D01*
X233824523Y-167473663D01*
X233834591Y-167482931D01*
X233839195Y-167487170D01*
X233846431Y-167494406D01*
X233883154Y-167534297D01*
X233910257Y-167563739D01*
X233984618Y-167621617D01*
X233992440Y-167628242D01*
X234007098Y-167641736D01*
X234007100Y-167641737D01*
X234007102Y-167641739D01*
X234023803Y-167652650D01*
X234032133Y-167658599D01*
X234106491Y-167716474D01*
X234106495Y-167716476D01*
X234106500Y-167716480D01*
X234149039Y-167739500D01*
X234189368Y-167761325D01*
X234198153Y-167766559D01*
X234214855Y-167777471D01*
X234233138Y-167785490D01*
X234242291Y-167789965D01*
X234325190Y-167834828D01*
X234414340Y-167865433D01*
X234423839Y-167869140D01*
X234442114Y-167877156D01*
X234442121Y-167877159D01*
X234461441Y-167882051D01*
X234471252Y-167884971D01*
X234531334Y-167905597D01*
X234560385Y-167915571D01*
X234593785Y-167921144D01*
X234653336Y-167931081D01*
X234663357Y-167933182D01*
X234682685Y-167938077D01*
X234702577Y-167939725D01*
X234712698Y-167940986D01*
X234805665Y-167956500D01*
X234805666Y-167956500D01*
X234899884Y-167956500D01*
X234910123Y-167956923D01*
X234916649Y-167957464D01*
X234929997Y-167958571D01*
X234930000Y-167958571D01*
X234930003Y-167958571D01*
X234943350Y-167957464D01*
X234949876Y-167956923D01*
X234960116Y-167956500D01*
X235054330Y-167956500D01*
X235054335Y-167956500D01*
X235147304Y-167940986D01*
X235157413Y-167939726D01*
X235177315Y-167938077D01*
X235196661Y-167933177D01*
X235206644Y-167931084D01*
X235299614Y-167915571D01*
X235388776Y-167884961D01*
X235398524Y-167882059D01*
X235417884Y-167877157D01*
X235436158Y-167869141D01*
X235445657Y-167865434D01*
X235534810Y-167834828D01*
X235617717Y-167789960D01*
X235626851Y-167785495D01*
X235645145Y-167777471D01*
X235661867Y-167766545D01*
X235670601Y-167761341D01*
X235753509Y-167716474D01*
X235827919Y-167658558D01*
X235836184Y-167652658D01*
X235852898Y-167641739D01*
X235867580Y-167628222D01*
X235875370Y-167621625D01*
X235949744Y-167563738D01*
X236013575Y-167494398D01*
X236020785Y-167487187D01*
X236035477Y-167473663D01*
X236047741Y-167457905D01*
X236054329Y-167450127D01*
X236118164Y-167380785D01*
X236169720Y-167301872D01*
X236175628Y-167293597D01*
X236187902Y-167277828D01*
X236197399Y-167260277D01*
X236202628Y-167251501D01*
X236254173Y-167172607D01*
X236292032Y-167086297D01*
X236296512Y-167077132D01*
X236306014Y-167059576D01*
X236312501Y-167040677D01*
X236316195Y-167031210D01*
X236354063Y-166944881D01*
X236377199Y-166853517D01*
X236380118Y-166843717D01*
X236386592Y-166824859D01*
X236389878Y-166805164D01*
X236391974Y-166795173D01*
X236415108Y-166703821D01*
X236422892Y-166609872D01*
X236424155Y-166599756D01*
X236427438Y-166580081D01*
X236428048Y-166550504D01*
X236428442Y-166542892D01*
X236435643Y-166456000D01*
X236428443Y-166369111D01*
X236428048Y-166361492D01*
X236427438Y-166331919D01*
X236424154Y-166312239D01*
X236422891Y-166302115D01*
X236415108Y-166208179D01*
X236391973Y-166116823D01*
X236389873Y-166106804D01*
X236386592Y-166087143D01*
X236386591Y-166087137D01*
X236380121Y-166068292D01*
X236377195Y-166058466D01*
X236377193Y-166058460D01*
X236354063Y-165967119D01*
X236354062Y-165967115D01*
X236316212Y-165880828D01*
X236312498Y-165871312D01*
X236306014Y-165852424D01*
X236296518Y-165834876D01*
X236292018Y-165825671D01*
X236254173Y-165739393D01*
X236202633Y-165660504D01*
X236197398Y-165651719D01*
X236187902Y-165634172D01*
X236183727Y-165628808D01*
X236175654Y-165618435D01*
X236169700Y-165610097D01*
X236118166Y-165531218D01*
X236118165Y-165531217D01*
X236118164Y-165531215D01*
X236083565Y-165493630D01*
X236054341Y-165461884D01*
X236047722Y-165454068D01*
X236035478Y-165438338D01*
X236035473Y-165438333D01*
X236020804Y-165424829D01*
X236013558Y-165417583D01*
X235949744Y-165348262D01*
X235912462Y-165319244D01*
X235875379Y-165290381D01*
X235867564Y-165283762D01*
X235852898Y-165270261D01*
X235836205Y-165259355D01*
X235827872Y-165253405D01*
X235753509Y-165195526D01*
X235753508Y-165195525D01*
X235753505Y-165195523D01*
X235753503Y-165195522D01*
X235670639Y-165150679D01*
X235661835Y-165145433D01*
X235645146Y-165134529D01*
X235634820Y-165130000D01*
X235626881Y-165126517D01*
X235617690Y-165122024D01*
X235589075Y-165106538D01*
X235534811Y-165077172D01*
X235534802Y-165077169D01*
X235445683Y-165046574D01*
X235436146Y-165042853D01*
X235417884Y-165034843D01*
X235417880Y-165034842D01*
X235417878Y-165034841D01*
X235398559Y-165029948D01*
X235388744Y-165027026D01*
X235299614Y-164996429D01*
X235206665Y-164980918D01*
X235196640Y-164978816D01*
X235177312Y-164973922D01*
X235157449Y-164972276D01*
X235147283Y-164971009D01*
X235054336Y-164955500D01*
X235054335Y-164955500D01*
X234960105Y-164955500D01*
X234949865Y-164955076D01*
X234943643Y-164954560D01*
X234930003Y-164953430D01*
X234929997Y-164953430D01*
X234916356Y-164954560D01*
X234910134Y-164955076D01*
X234899895Y-164955500D01*
X234805665Y-164955500D01*
X234712715Y-164971009D01*
X234702550Y-164972276D01*
X234682689Y-164973922D01*
X234682683Y-164973923D01*
X234663363Y-164978815D01*
X234653339Y-164980917D01*
X234560382Y-164996429D01*
X234471255Y-165027025D01*
X234461445Y-165029946D01*
X234442126Y-165034839D01*
X234442115Y-165034843D01*
X234423855Y-165042852D01*
X234414316Y-165046574D01*
X234325194Y-165077170D01*
X234325183Y-165077175D01*
X234242315Y-165122021D01*
X234233111Y-165126521D01*
X234214854Y-165134529D01*
X234214845Y-165134534D01*
X234198168Y-165145430D01*
X234189368Y-165150674D01*
X234106492Y-165195524D01*
X234106489Y-165195526D01*
X234032128Y-165253404D01*
X234023794Y-165259355D01*
X234007099Y-165270263D01*
X233992426Y-165283769D01*
X233984615Y-165290384D01*
X233910255Y-165348262D01*
X233846432Y-165417591D01*
X233839190Y-165424833D01*
X233824529Y-165438330D01*
X233824514Y-165438346D01*
X233812271Y-165454074D01*
X233805657Y-165461884D01*
X233741836Y-165531215D01*
X233690302Y-165610092D01*
X233684353Y-165618425D01*
X233672098Y-165634172D01*
X233672094Y-165634178D01*
X233662605Y-165651711D01*
X233657363Y-165660509D01*
X233605828Y-165739390D01*
X233567981Y-165825670D01*
X233563486Y-165834866D01*
X233553985Y-165852424D01*
X233547508Y-165871291D01*
X233543785Y-165880833D01*
X233505936Y-165967122D01*
X233482805Y-166058460D01*
X233479884Y-166068272D01*
X233473408Y-166087139D01*
X233470127Y-166106800D01*
X233468025Y-166116825D01*
X233444891Y-166208178D01*
X233444891Y-166208182D01*
X233437109Y-166302084D01*
X233435844Y-166312239D01*
X233432562Y-166331919D01*
X233432562Y-166351856D01*
X233432138Y-166362096D01*
X233424357Y-166455994D01*
X233424357Y-166456004D01*
X230650701Y-166456004D01*
X230741401Y-166392495D01*
X230908495Y-166225401D01*
X231044035Y-166031830D01*
X231143903Y-165817663D01*
X231205063Y-165589408D01*
X231225659Y-165354000D01*
X231225552Y-165352782D01*
X231211794Y-165195523D01*
X231205063Y-165118592D01*
X231143903Y-164890337D01*
X231044035Y-164676171D01*
X231038425Y-164668158D01*
X230908494Y-164482597D01*
X230741402Y-164315506D01*
X230741396Y-164315501D01*
X230555842Y-164185575D01*
X230512217Y-164130998D01*
X230505023Y-164061500D01*
X230536546Y-163999145D01*
X230555842Y-163982425D01*
X230578585Y-163966500D01*
X230741401Y-163852495D01*
X230908495Y-163685401D01*
X231044035Y-163491830D01*
X231143903Y-163277663D01*
X231205063Y-163049408D01*
X231225659Y-162814000D01*
X231205063Y-162578592D01*
X231144565Y-162352806D01*
X231143905Y-162350344D01*
X231143904Y-162350343D01*
X231143903Y-162350337D01*
X231044035Y-162136171D01*
X231038425Y-162128158D01*
X230908494Y-161942597D01*
X230741402Y-161775506D01*
X230741396Y-161775501D01*
X230555842Y-161645575D01*
X230512217Y-161590998D01*
X230505023Y-161521500D01*
X230536546Y-161459145D01*
X230555842Y-161442425D01*
X230609497Y-161404855D01*
X230741401Y-161312495D01*
X230908495Y-161145401D01*
X231044035Y-160951830D01*
X231143903Y-160737663D01*
X231205063Y-160509408D01*
X231225659Y-160274000D01*
X231205063Y-160038592D01*
X231150271Y-159834103D01*
X231143905Y-159810344D01*
X231143904Y-159810343D01*
X231143903Y-159810337D01*
X231044035Y-159596171D01*
X231038425Y-159588158D01*
X230908494Y-159402597D01*
X230741402Y-159235506D01*
X230741396Y-159235501D01*
X230555842Y-159105575D01*
X230512217Y-159050998D01*
X230505023Y-158981500D01*
X230536546Y-158919145D01*
X230555842Y-158902425D01*
X230609497Y-158864855D01*
X230741401Y-158772495D01*
X230908495Y-158605401D01*
X231044035Y-158411830D01*
X231143903Y-158197663D01*
X231205063Y-157969408D01*
X231225659Y-157734000D01*
X231205063Y-157498592D01*
X231152543Y-157302582D01*
X231143905Y-157270344D01*
X231143904Y-157270343D01*
X231143903Y-157270337D01*
X231044035Y-157056171D01*
X231038424Y-157048158D01*
X230908496Y-156862600D01*
X230870054Y-156824158D01*
X230786567Y-156740671D01*
X230753084Y-156679351D01*
X230758068Y-156609659D01*
X230799939Y-156553725D01*
X230830915Y-156536810D01*
X230962331Y-156487796D01*
X231077546Y-156401546D01*
X231163796Y-156286331D01*
X231214091Y-156151483D01*
X231220500Y-156091873D01*
X231220499Y-154296128D01*
X231214091Y-154236517D01*
X231212810Y-154233083D01*
X231163797Y-154101671D01*
X231163793Y-154101664D01*
X231077547Y-153986455D01*
X231077544Y-153986452D01*
X230962335Y-153900206D01*
X230962328Y-153900202D01*
X230827482Y-153849908D01*
X230827483Y-153849908D01*
X230767883Y-153843501D01*
X230767881Y-153843500D01*
X230767873Y-153843500D01*
X230767864Y-153843500D01*
X228972129Y-153843500D01*
X228972123Y-153843501D01*
X228912516Y-153849908D01*
X228777671Y-153900202D01*
X228777664Y-153900206D01*
X228662455Y-153986452D01*
X228662452Y-153986455D01*
X228576206Y-154101664D01*
X228576203Y-154101669D01*
X228527189Y-154233083D01*
X228485317Y-154289016D01*
X228419853Y-154313433D01*
X228351580Y-154298581D01*
X228323326Y-154277430D01*
X228201402Y-154155506D01*
X228201395Y-154155501D01*
X228194044Y-154150354D01*
X228124518Y-154101671D01*
X228007834Y-154019967D01*
X228007830Y-154019965D01*
X227991856Y-154012516D01*
X227793663Y-153920097D01*
X227793659Y-153920096D01*
X227793655Y-153920094D01*
X227565413Y-153858938D01*
X227565403Y-153858936D01*
X227330001Y-153838341D01*
X227329999Y-153838341D01*
X227094596Y-153858936D01*
X227094586Y-153858938D01*
X226866344Y-153920094D01*
X226866335Y-153920098D01*
X226652171Y-154019964D01*
X226652169Y-154019965D01*
X226458597Y-154155505D01*
X226291505Y-154322597D01*
X226155965Y-154516169D01*
X226155964Y-154516171D01*
X226056098Y-154730335D01*
X226056094Y-154730344D01*
X225994938Y-154958586D01*
X225994936Y-154958596D01*
X225974341Y-155193999D01*
X225974341Y-155194000D01*
X225994936Y-155429403D01*
X225994938Y-155429413D01*
X226056094Y-155657655D01*
X226056096Y-155657659D01*
X226056097Y-155657663D01*
X226138137Y-155833598D01*
X226155965Y-155871830D01*
X226155967Y-155871834D01*
X226251659Y-156008495D01*
X226289355Y-156062331D01*
X226291501Y-156065395D01*
X226291506Y-156065402D01*
X226458597Y-156232493D01*
X226458603Y-156232498D01*
X226644158Y-156362425D01*
X226687783Y-156417002D01*
X226694977Y-156486500D01*
X226663454Y-156548855D01*
X226644158Y-156565575D01*
X226458597Y-156695505D01*
X226291505Y-156862597D01*
X226155965Y-157056169D01*
X226155964Y-157056171D01*
X226056098Y-157270335D01*
X226056094Y-157270344D01*
X225994938Y-157498586D01*
X225994936Y-157498596D01*
X225974341Y-157733999D01*
X225974341Y-157734000D01*
X225994936Y-157969403D01*
X225994938Y-157969413D01*
X226056094Y-158197655D01*
X226056096Y-158197659D01*
X226056097Y-158197663D01*
X226150703Y-158400546D01*
X226155965Y-158411830D01*
X226155967Y-158411834D01*
X226251659Y-158548495D01*
X226291501Y-158605396D01*
X226291506Y-158605402D01*
X226458597Y-158772493D01*
X226458603Y-158772498D01*
X226644158Y-158902425D01*
X226687783Y-158957002D01*
X226694977Y-159026500D01*
X226663454Y-159088855D01*
X226644158Y-159105575D01*
X226458597Y-159235505D01*
X226291505Y-159402597D01*
X226155965Y-159596169D01*
X226155964Y-159596171D01*
X226056098Y-159810335D01*
X226056094Y-159810344D01*
X225994938Y-160038586D01*
X225994936Y-160038596D01*
X225974341Y-160273999D01*
X225974341Y-160274000D01*
X225994936Y-160509403D01*
X225994938Y-160509413D01*
X226056094Y-160737655D01*
X226056096Y-160737659D01*
X226056097Y-160737663D01*
X226136004Y-160909023D01*
X226155965Y-160951830D01*
X226155967Y-160951834D01*
X226251659Y-161088495D01*
X226291501Y-161145396D01*
X226291506Y-161145402D01*
X226458597Y-161312493D01*
X226458603Y-161312498D01*
X226644158Y-161442425D01*
X226687783Y-161497002D01*
X226694977Y-161566500D01*
X226663454Y-161628855D01*
X226644158Y-161645575D01*
X226458597Y-161775505D01*
X226291505Y-161942597D01*
X226155965Y-162136169D01*
X226155964Y-162136171D01*
X226056098Y-162350335D01*
X226056094Y-162350344D01*
X225994938Y-162578586D01*
X225994936Y-162578596D01*
X225974341Y-162813999D01*
X225974341Y-162814000D01*
X225994936Y-163049403D01*
X225994938Y-163049413D01*
X226056094Y-163277655D01*
X226056096Y-163277659D01*
X226056097Y-163277663D01*
X226140999Y-163459735D01*
X226155965Y-163491830D01*
X226155967Y-163491834D01*
X226251659Y-163628495D01*
X226291501Y-163685396D01*
X226291506Y-163685402D01*
X226458597Y-163852493D01*
X226458603Y-163852498D01*
X226644158Y-163982425D01*
X226687783Y-164037002D01*
X226694977Y-164106500D01*
X226663454Y-164168855D01*
X226644158Y-164185575D01*
X226458597Y-164315505D01*
X226291505Y-164482597D01*
X226155965Y-164676169D01*
X226155964Y-164676171D01*
X226094025Y-164809000D01*
X226057669Y-164886967D01*
X226056098Y-164890335D01*
X226056094Y-164890344D01*
X225994938Y-165118586D01*
X225994936Y-165118596D01*
X225974341Y-165353999D01*
X225974341Y-165354000D01*
X223606061Y-165354000D01*
X223625659Y-165130000D01*
X223605063Y-164894592D01*
X223546538Y-164676171D01*
X223543905Y-164666344D01*
X223543904Y-164666343D01*
X223543903Y-164666337D01*
X223444035Y-164452171D01*
X223438425Y-164444158D01*
X223308494Y-164258597D01*
X223141402Y-164091506D01*
X223141396Y-164091501D01*
X222955842Y-163961575D01*
X222912217Y-163906998D01*
X222905023Y-163837500D01*
X222936546Y-163775145D01*
X222955842Y-163758425D01*
X222978026Y-163742891D01*
X223141401Y-163628495D01*
X223308495Y-163461401D01*
X223444035Y-163267830D01*
X223543903Y-163053663D01*
X223605063Y-162825408D01*
X223625659Y-162590000D01*
X223605063Y-162354592D01*
X223546538Y-162136171D01*
X223543905Y-162126344D01*
X223543904Y-162126343D01*
X223543903Y-162126337D01*
X223444035Y-161912171D01*
X223438425Y-161904158D01*
X223308494Y-161718597D01*
X223141402Y-161551506D01*
X223141396Y-161551501D01*
X222955842Y-161421575D01*
X222912217Y-161366998D01*
X222905023Y-161297500D01*
X222936546Y-161235145D01*
X222955842Y-161218425D01*
X222980887Y-161200888D01*
X223141401Y-161088495D01*
X223308495Y-160921401D01*
X223444035Y-160727830D01*
X223543903Y-160513663D01*
X223605063Y-160285408D01*
X223625659Y-160050000D01*
X223605063Y-159814592D01*
X223546538Y-159596171D01*
X223543905Y-159586344D01*
X223543904Y-159586343D01*
X223543903Y-159586337D01*
X223444035Y-159372171D01*
X223438425Y-159364158D01*
X223308494Y-159178597D01*
X223141402Y-159011506D01*
X223141396Y-159011501D01*
X222955842Y-158881575D01*
X222912217Y-158826998D01*
X222905023Y-158757500D01*
X222936546Y-158695145D01*
X222955842Y-158678425D01*
X223060139Y-158605395D01*
X223141401Y-158548495D01*
X223308495Y-158381401D01*
X223444035Y-158187830D01*
X223543903Y-157973663D01*
X223605063Y-157745408D01*
X223625659Y-157510000D01*
X223605063Y-157274592D01*
X223546538Y-157056171D01*
X223543905Y-157046344D01*
X223543904Y-157046343D01*
X223543903Y-157046337D01*
X223444035Y-156832171D01*
X223438424Y-156824158D01*
X223308496Y-156638600D01*
X223248577Y-156578681D01*
X223186567Y-156516671D01*
X223153084Y-156455351D01*
X223158068Y-156385659D01*
X223199939Y-156329725D01*
X223230915Y-156312810D01*
X223362331Y-156263796D01*
X223477546Y-156177546D01*
X223563796Y-156062331D01*
X223614091Y-155927483D01*
X223620500Y-155867873D01*
X223620499Y-154072128D01*
X223614091Y-154012517D01*
X223612810Y-154009083D01*
X223563797Y-153877671D01*
X223563793Y-153877664D01*
X223477547Y-153762455D01*
X223477544Y-153762452D01*
X223362335Y-153676206D01*
X223362328Y-153676202D01*
X223227482Y-153625908D01*
X223227483Y-153625908D01*
X223167883Y-153619501D01*
X223167881Y-153619500D01*
X223167873Y-153619500D01*
X223167864Y-153619500D01*
X221372129Y-153619500D01*
X221372123Y-153619501D01*
X221312516Y-153625908D01*
X221177671Y-153676202D01*
X221177664Y-153676206D01*
X221062455Y-153762452D01*
X221062452Y-153762455D01*
X220976206Y-153877664D01*
X220976203Y-153877669D01*
X220927189Y-154009083D01*
X220885317Y-154065016D01*
X220819853Y-154089433D01*
X220751580Y-154074581D01*
X220723326Y-154053430D01*
X220601402Y-153931506D01*
X220601395Y-153931501D01*
X220600115Y-153930605D01*
X220524518Y-153877671D01*
X220407834Y-153795967D01*
X220407830Y-153795965D01*
X220382765Y-153784277D01*
X220193663Y-153696097D01*
X220193659Y-153696096D01*
X220193655Y-153696094D01*
X219965413Y-153634938D01*
X219965403Y-153634936D01*
X219730001Y-153614341D01*
X219729999Y-153614341D01*
X219494596Y-153634936D01*
X219494586Y-153634938D01*
X219266344Y-153696094D01*
X219266335Y-153696098D01*
X219052171Y-153795964D01*
X219052169Y-153795965D01*
X218858597Y-153931505D01*
X218691505Y-154098597D01*
X218555965Y-154292169D01*
X218555964Y-154292171D01*
X218456098Y-154506335D01*
X218456094Y-154506344D01*
X218394938Y-154734586D01*
X218394936Y-154734596D01*
X218374341Y-154969999D01*
X218374341Y-154970000D01*
X218394936Y-155205403D01*
X218394938Y-155205413D01*
X218456094Y-155433655D01*
X218456096Y-155433659D01*
X218456097Y-155433663D01*
X218502703Y-155533610D01*
X218555965Y-155647830D01*
X218555967Y-155647834D01*
X218639453Y-155767063D01*
X218690420Y-155839852D01*
X218691501Y-155841395D01*
X218691506Y-155841402D01*
X218858597Y-156008493D01*
X218858603Y-156008498D01*
X219044158Y-156138425D01*
X219087783Y-156193002D01*
X219094977Y-156262500D01*
X219063454Y-156324855D01*
X219044158Y-156341575D01*
X218858597Y-156471505D01*
X218691505Y-156638597D01*
X218555965Y-156832169D01*
X218555964Y-156832171D01*
X218456098Y-157046335D01*
X218456094Y-157046344D01*
X218394938Y-157274586D01*
X218394936Y-157274596D01*
X218374341Y-157509999D01*
X218374341Y-157510000D01*
X218394936Y-157745403D01*
X218394938Y-157745413D01*
X218456094Y-157973655D01*
X218456096Y-157973659D01*
X218456097Y-157973663D01*
X218516071Y-158102277D01*
X218555965Y-158187830D01*
X218555967Y-158187834D01*
X218664281Y-158342521D01*
X218691501Y-158381396D01*
X218691506Y-158381402D01*
X218858597Y-158548493D01*
X218858603Y-158548498D01*
X219044158Y-158678425D01*
X219087783Y-158733002D01*
X219094977Y-158802500D01*
X219063454Y-158864855D01*
X219044158Y-158881575D01*
X218858597Y-159011505D01*
X218691505Y-159178597D01*
X218555965Y-159372169D01*
X218555964Y-159372171D01*
X218456098Y-159586335D01*
X218456094Y-159586344D01*
X218394938Y-159814586D01*
X218394936Y-159814596D01*
X218374341Y-160049999D01*
X218374341Y-160050000D01*
X218394936Y-160285403D01*
X218394938Y-160285413D01*
X218456094Y-160513655D01*
X218456096Y-160513659D01*
X218456097Y-160513663D01*
X218476535Y-160557492D01*
X218555965Y-160727830D01*
X218555967Y-160727834D01*
X218633423Y-160838452D01*
X218691501Y-160921396D01*
X218691506Y-160921402D01*
X218858597Y-161088493D01*
X218858603Y-161088498D01*
X219044158Y-161218425D01*
X219087783Y-161273002D01*
X219094977Y-161342500D01*
X219063454Y-161404855D01*
X219044158Y-161421575D01*
X218858597Y-161551505D01*
X218691505Y-161718597D01*
X218555965Y-161912169D01*
X218555964Y-161912171D01*
X218456098Y-162126335D01*
X218456094Y-162126344D01*
X218394938Y-162354586D01*
X218394936Y-162354596D01*
X218374341Y-162589999D01*
X218374341Y-162590000D01*
X218394936Y-162825403D01*
X218394938Y-162825413D01*
X218456094Y-163053655D01*
X218456096Y-163053659D01*
X218456097Y-163053663D01*
X218542373Y-163238681D01*
X218555965Y-163267830D01*
X218555967Y-163267834D01*
X218652217Y-163405292D01*
X218691501Y-163461396D01*
X218691506Y-163461402D01*
X218858597Y-163628493D01*
X218858603Y-163628498D01*
X219044158Y-163758425D01*
X219087783Y-163813002D01*
X219094977Y-163882500D01*
X219063454Y-163944855D01*
X219044158Y-163961575D01*
X218858597Y-164091505D01*
X218691505Y-164258597D01*
X218555965Y-164452169D01*
X218555964Y-164452171D01*
X218456098Y-164666335D01*
X218456094Y-164666344D01*
X218394938Y-164894586D01*
X218394936Y-164894596D01*
X218374341Y-165129999D01*
X218374341Y-165130000D01*
X214287066Y-165130000D01*
X215591088Y-163825978D01*
X215603342Y-163816163D01*
X215603159Y-163815941D01*
X215609168Y-163810968D01*
X215609177Y-163810963D01*
X215655249Y-163761899D01*
X215657866Y-163759200D01*
X215677420Y-163739648D01*
X215679876Y-163736480D01*
X215687456Y-163727604D01*
X215717362Y-163695759D01*
X215727015Y-163678197D01*
X215737689Y-163661947D01*
X215749973Y-163646113D01*
X215767319Y-163606027D01*
X215772457Y-163595539D01*
X215777796Y-163585829D01*
X215793497Y-163557269D01*
X215798477Y-163537868D01*
X215804778Y-163519465D01*
X215812738Y-163501073D01*
X215819572Y-163457918D01*
X215821935Y-163446508D01*
X215832800Y-163404196D01*
X215832800Y-163384160D01*
X215834327Y-163364759D01*
X215837460Y-163344981D01*
X215833350Y-163301501D01*
X215832800Y-163289832D01*
X215832800Y-147910357D01*
X215834524Y-147894737D01*
X215834239Y-147894710D01*
X215834973Y-147886948D01*
X215832861Y-147819727D01*
X215832800Y-147815833D01*
X215832800Y-147788271D01*
X215832800Y-147788265D01*
X215832296Y-147784283D01*
X215831381Y-147772644D01*
X215831319Y-147770658D01*
X215830010Y-147728988D01*
X215824419Y-147709745D01*
X215820473Y-147690693D01*
X215817964Y-147670823D01*
X215801879Y-147630198D01*
X215798106Y-147619177D01*
X215785918Y-147577225D01*
X215785917Y-147577224D01*
X215785917Y-147577222D01*
X215785916Y-147577221D01*
X215775723Y-147559986D01*
X215767161Y-147542509D01*
X215759787Y-147523884D01*
X215734116Y-147488552D01*
X215727705Y-147478792D01*
X215705470Y-147441195D01*
X215705468Y-147441193D01*
X215705465Y-147441189D01*
X215691306Y-147427030D01*
X215678668Y-147412234D01*
X215670774Y-147401369D01*
X215666894Y-147396028D01*
X215652225Y-147383893D01*
X215633240Y-147368187D01*
X215624599Y-147360324D01*
X214253188Y-145988912D01*
X214243365Y-145976650D01*
X214243144Y-145976834D01*
X214238171Y-145970822D01*
X214189161Y-145924799D01*
X214186362Y-145922086D01*
X214166862Y-145902585D01*
X214166856Y-145902580D01*
X214163671Y-145900109D01*
X214154819Y-145892548D01*
X214122967Y-145862638D01*
X214122965Y-145862636D01*
X214122962Y-145862635D01*
X214105414Y-145852988D01*
X214089148Y-145842304D01*
X214073317Y-145830024D01*
X214033234Y-145812678D01*
X214022748Y-145807541D01*
X213984479Y-145786503D01*
X213984477Y-145786502D01*
X213965078Y-145781522D01*
X213946666Y-145775218D01*
X213928283Y-145767262D01*
X213928277Y-145767260D01*
X213885145Y-145760429D01*
X213873707Y-145758061D01*
X213831405Y-145747200D01*
X213831404Y-145747200D01*
X213811369Y-145747200D01*
X213791971Y-145745673D01*
X213784547Y-145744497D01*
X213772190Y-145742540D01*
X213772189Y-145742540D01*
X213728710Y-145746650D01*
X213717041Y-145747200D01*
X209077725Y-145747200D01*
X209062108Y-145745476D01*
X209062081Y-145745762D01*
X209054319Y-145745027D01*
X208987132Y-145747139D01*
X208983238Y-145747200D01*
X208955637Y-145747200D01*
X208951949Y-145747665D01*
X208951636Y-145747705D01*
X208940018Y-145748618D01*
X208896360Y-145749990D01*
X208896359Y-145749990D01*
X208877116Y-145755581D01*
X208858066Y-145759525D01*
X208838198Y-145762034D01*
X208838197Y-145762034D01*
X208797586Y-145778113D01*
X208786541Y-145781894D01*
X208744601Y-145794079D01*
X208744597Y-145794081D01*
X208727353Y-145804279D01*
X208709892Y-145812833D01*
X208691261Y-145820210D01*
X208691249Y-145820217D01*
X208655920Y-145845885D01*
X208646160Y-145852296D01*
X208608567Y-145874529D01*
X208594401Y-145888695D01*
X208579611Y-145901327D01*
X208563401Y-145913104D01*
X208563398Y-145913107D01*
X208535560Y-145946758D01*
X208527698Y-145955397D01*
X207134208Y-147348886D01*
X207121951Y-147358707D01*
X207122134Y-147358928D01*
X207116122Y-147363901D01*
X207070098Y-147412910D01*
X207067391Y-147415703D01*
X207047889Y-147435204D01*
X207047875Y-147435221D01*
X207045407Y-147438402D01*
X207037843Y-147447257D01*
X207007937Y-147479105D01*
X207007936Y-147479107D01*
X206998284Y-147496663D01*
X206987610Y-147512913D01*
X206975329Y-147528748D01*
X206975324Y-147528755D01*
X206957975Y-147568845D01*
X206952838Y-147579331D01*
X206931803Y-147617593D01*
X206926822Y-147636994D01*
X206920521Y-147655397D01*
X206912562Y-147673789D01*
X206912561Y-147673792D01*
X206905728Y-147716930D01*
X206903360Y-147728361D01*
X206892501Y-147770658D01*
X206892500Y-147770669D01*
X206892500Y-147790703D01*
X206890973Y-147810102D01*
X206887840Y-147829881D01*
X206887840Y-147829882D01*
X206891950Y-147873361D01*
X206892500Y-147885030D01*
X206892500Y-153819548D01*
X206872815Y-153886587D01*
X206856181Y-153907229D01*
X204963296Y-155800113D01*
X204901973Y-155833598D01*
X204852831Y-155834320D01*
X204804044Y-155825201D01*
X204595958Y-155825201D01*
X204391416Y-155863437D01*
X204391413Y-155863437D01*
X204391413Y-155863438D01*
X204197384Y-155938604D01*
X204197378Y-155938607D01*
X204020465Y-156048147D01*
X204020463Y-156048149D01*
X203866692Y-156188329D01*
X203866689Y-156188332D01*
X203741289Y-156354388D01*
X203741284Y-156354396D01*
X203648537Y-156540657D01*
X203641447Y-156565575D01*
X203604481Y-156695501D01*
X203591590Y-156740807D01*
X203572391Y-156948000D01*
X203572391Y-156948001D01*
X203591590Y-157155194D01*
X203591590Y-157155196D01*
X203591591Y-157155199D01*
X203625561Y-157274592D01*
X203648537Y-157355344D01*
X203741284Y-157541605D01*
X203741289Y-157541613D01*
X203742981Y-157543853D01*
X203858623Y-157696989D01*
X203866689Y-157707669D01*
X203866692Y-157707672D01*
X204020463Y-157847852D01*
X204020465Y-157847854D01*
X204197378Y-157957394D01*
X204197384Y-157957397D01*
X204238489Y-157973321D01*
X204391416Y-158032565D01*
X204595958Y-158070801D01*
X204595960Y-158070801D01*
X204804042Y-158070801D01*
X204804044Y-158070801D01*
X205008586Y-158032565D01*
X205202620Y-157957396D01*
X205379538Y-157847853D01*
X205533315Y-157707667D01*
X205658714Y-157541611D01*
X205751466Y-157355341D01*
X205808411Y-157155199D01*
X205827611Y-156948001D01*
X205812372Y-156783550D01*
X205825787Y-156714981D01*
X205848159Y-156684431D01*
X207901788Y-154630803D01*
X207914042Y-154620988D01*
X207913859Y-154620766D01*
X207919868Y-154615793D01*
X207919877Y-154615788D01*
X207965949Y-154566724D01*
X207968566Y-154564025D01*
X207988120Y-154544473D01*
X207990576Y-154541305D01*
X207998156Y-154532429D01*
X208028062Y-154500584D01*
X208037713Y-154483026D01*
X208048396Y-154466763D01*
X208060673Y-154450938D01*
X208078021Y-154410846D01*
X208083151Y-154400373D01*
X208104197Y-154362094D01*
X208109180Y-154342682D01*
X208115481Y-154324282D01*
X208123437Y-154305898D01*
X208130270Y-154262750D01*
X208132633Y-154251340D01*
X208143500Y-154209021D01*
X208143500Y-154188985D01*
X208145027Y-154169584D01*
X208148160Y-154149806D01*
X208144050Y-154106326D01*
X208143500Y-154094657D01*
X208143500Y-148160139D01*
X208163185Y-148093100D01*
X208179819Y-148072458D01*
X209217759Y-147034519D01*
X209279082Y-147001034D01*
X209305440Y-146998200D01*
X212126188Y-146998200D01*
X212193227Y-147017885D01*
X212238982Y-147070689D01*
X212249658Y-147133641D01*
X212240043Y-147237412D01*
X212232390Y-147320000D01*
X212251589Y-147527193D01*
X212251589Y-147527195D01*
X212251590Y-147527198D01*
X212298106Y-147690684D01*
X212308536Y-147727343D01*
X212401283Y-147913604D01*
X212401288Y-147913612D01*
X212442072Y-147967618D01*
X212480290Y-148018228D01*
X212526688Y-148079668D01*
X212526691Y-148079671D01*
X212680462Y-148219851D01*
X212680464Y-148219853D01*
X212857377Y-148329393D01*
X212857383Y-148329396D01*
X212898488Y-148345320D01*
X213051415Y-148404564D01*
X213255957Y-148442800D01*
X213255959Y-148442800D01*
X213464041Y-148442800D01*
X213464043Y-148442800D01*
X213512831Y-148433679D01*
X213582341Y-148440708D01*
X213623296Y-148467886D01*
X214095481Y-148940071D01*
X214128966Y-149001394D01*
X214131800Y-149027752D01*
X214131800Y-153874652D01*
X214112115Y-153941691D01*
X214059311Y-153987446D01*
X213990153Y-153997390D01*
X213942523Y-153980079D01*
X213862622Y-153930606D01*
X213862616Y-153930603D01*
X213708531Y-153870911D01*
X213668585Y-153855436D01*
X213464043Y-153817200D01*
X213255957Y-153817200D01*
X213051415Y-153855436D01*
X213051412Y-153855436D01*
X213051412Y-153855437D01*
X212857383Y-153930603D01*
X212857377Y-153930606D01*
X212680464Y-154040146D01*
X212680462Y-154040148D01*
X212526691Y-154180328D01*
X212526688Y-154180331D01*
X212401288Y-154346387D01*
X212401283Y-154346395D01*
X212308536Y-154532656D01*
X212251589Y-154732806D01*
X212232390Y-154939999D01*
X212232390Y-154940000D01*
X212251589Y-155147193D01*
X212251589Y-155147195D01*
X212251590Y-155147198D01*
X212308535Y-155347340D01*
X212308536Y-155347343D01*
X212401283Y-155533604D01*
X212401288Y-155533612D01*
X212462495Y-155614663D01*
X212487544Y-155647834D01*
X212526688Y-155699668D01*
X212526691Y-155699671D01*
X212680462Y-155839851D01*
X212680464Y-155839853D01*
X212857377Y-155949393D01*
X212857383Y-155949396D01*
X212898488Y-155965320D01*
X213051415Y-156024564D01*
X213255957Y-156062800D01*
X213255959Y-156062800D01*
X213464041Y-156062800D01*
X213464043Y-156062800D01*
X213512831Y-156053679D01*
X213582341Y-156060708D01*
X213623296Y-156087886D01*
X213645481Y-156110071D01*
X213678966Y-156171394D01*
X213681800Y-156197752D01*
X213681800Y-161328578D01*
X213662115Y-161395617D01*
X213609311Y-161441372D01*
X213540153Y-161451316D01*
X213535016Y-161450467D01*
X213486361Y-161441372D01*
X213464043Y-161437200D01*
X213255957Y-161437200D01*
X213051415Y-161475436D01*
X213051412Y-161475436D01*
X213051412Y-161475437D01*
X212857383Y-161550603D01*
X212857377Y-161550606D01*
X212680464Y-161660146D01*
X212680462Y-161660148D01*
X212526691Y-161800328D01*
X212526688Y-161800331D01*
X212401288Y-161966387D01*
X212401283Y-161966395D01*
X212308536Y-162152656D01*
X212308535Y-162152660D01*
X212259117Y-162326349D01*
X212251589Y-162352806D01*
X212232390Y-162559999D01*
X212232390Y-162560000D01*
X212247628Y-162724448D01*
X212234213Y-162793018D01*
X212211838Y-162823570D01*
X210181927Y-164853482D01*
X210120604Y-164886967D01*
X210094246Y-164889801D01*
X205933813Y-164889801D01*
X205866774Y-164870116D01*
X205821019Y-164817312D01*
X205810342Y-164754359D01*
X205816807Y-164684598D01*
X205827611Y-164568001D01*
X205808411Y-164360803D01*
X205751466Y-164160661D01*
X205744967Y-164147610D01*
X205658717Y-163974396D01*
X205658712Y-163974388D01*
X205599320Y-163895740D01*
X205533315Y-163808335D01*
X205533312Y-163808332D01*
X205533309Y-163808329D01*
X205379538Y-163668149D01*
X205379536Y-163668147D01*
X205202623Y-163558607D01*
X205202617Y-163558604D01*
X205024012Y-163489413D01*
X205008586Y-163483437D01*
X204804044Y-163445201D01*
X204595958Y-163445201D01*
X204391416Y-163483437D01*
X204391413Y-163483437D01*
X204391413Y-163483438D01*
X204197384Y-163558604D01*
X204197378Y-163558607D01*
X204020465Y-163668147D01*
X204020463Y-163668149D01*
X203866692Y-163808329D01*
X203866689Y-163808332D01*
X203741289Y-163974388D01*
X203741284Y-163974396D01*
X203648537Y-164160657D01*
X203641447Y-164185575D01*
X203604481Y-164315501D01*
X203591590Y-164360807D01*
X203572391Y-164568000D01*
X203572391Y-164568001D01*
X203583195Y-164684598D01*
X203589660Y-164754359D01*
X203576245Y-164822929D01*
X203527888Y-164873361D01*
X203466189Y-164889801D01*
X190322153Y-164889801D01*
X190255114Y-164870116D01*
X190209359Y-164817312D01*
X190199415Y-164748154D01*
X190228440Y-164684598D01*
X190234472Y-164678120D01*
X197328657Y-157583935D01*
X204436706Y-150475885D01*
X204498027Y-150442402D01*
X204547167Y-150441680D01*
X204595958Y-150450801D01*
X204595959Y-150450801D01*
X204804042Y-150450801D01*
X204804044Y-150450801D01*
X205008586Y-150412565D01*
X205202620Y-150337396D01*
X205379538Y-150227853D01*
X205533315Y-150087667D01*
X205658714Y-149921611D01*
X205751466Y-149735341D01*
X205808411Y-149535199D01*
X205827611Y-149328001D01*
X205808411Y-149120803D01*
X205751466Y-148920661D01*
X205748903Y-148915513D01*
X205658717Y-148734396D01*
X205658712Y-148734388D01*
X205608230Y-148667539D01*
X205533315Y-148568335D01*
X205533312Y-148568332D01*
X205533309Y-148568329D01*
X205379538Y-148428149D01*
X205379536Y-148428147D01*
X205202623Y-148318607D01*
X205202617Y-148318604D01*
X205049693Y-148259362D01*
X205008586Y-148243437D01*
X204804044Y-148205201D01*
X204595958Y-148205201D01*
X204391416Y-148243437D01*
X204391413Y-148243437D01*
X204391413Y-148243438D01*
X204197384Y-148318604D01*
X204197378Y-148318607D01*
X204020465Y-148428147D01*
X204020463Y-148428149D01*
X203866692Y-148568329D01*
X203866689Y-148568332D01*
X203741289Y-148734388D01*
X203741284Y-148734396D01*
X203648537Y-148920657D01*
X203591590Y-149120807D01*
X203572391Y-149328000D01*
X203572391Y-149328001D01*
X203587629Y-149492449D01*
X203574214Y-149561019D01*
X203551839Y-149591571D01*
X203025135Y-150118275D01*
X202963812Y-150151760D01*
X202894120Y-150146776D01*
X202838187Y-150104904D01*
X202813770Y-150039440D01*
X202828622Y-149971167D01*
X202828795Y-149970852D01*
X202838894Y-149952483D01*
X202838897Y-149952478D01*
X202843880Y-149933066D01*
X202850181Y-149914666D01*
X202858137Y-149896282D01*
X202864970Y-149853134D01*
X202867333Y-149841724D01*
X202878200Y-149799405D01*
X202878200Y-149779369D01*
X202879727Y-149759968D01*
X202882860Y-149740190D01*
X202878750Y-149696710D01*
X202878200Y-149685041D01*
X202878200Y-149246068D01*
X202897885Y-149179029D01*
X202914519Y-149158387D01*
X207901087Y-144171819D01*
X207962410Y-144138334D01*
X207988768Y-144135500D01*
X219399548Y-144135500D01*
X219466587Y-144155185D01*
X219487229Y-144171819D01*
X219831838Y-144516429D01*
X219865323Y-144577752D01*
X219867628Y-144615551D01*
X219852390Y-144779999D01*
X219852390Y-144780000D01*
X219871589Y-144987193D01*
X219871589Y-144987195D01*
X219871590Y-144987198D01*
X219928535Y-145187340D01*
X219928536Y-145187343D01*
X220021283Y-145373604D01*
X220021288Y-145373612D01*
X220146688Y-145539668D01*
X220146691Y-145539671D01*
X220300462Y-145679851D01*
X220300464Y-145679853D01*
X220477377Y-145789393D01*
X220477383Y-145789396D01*
X220515801Y-145804279D01*
X220671415Y-145864564D01*
X220875957Y-145902800D01*
X220875959Y-145902800D01*
X221084041Y-145902800D01*
X221084043Y-145902800D01*
X221288585Y-145864564D01*
X221482619Y-145789395D01*
X221659537Y-145679852D01*
X221813314Y-145539666D01*
X221938713Y-145373610D01*
X222031465Y-145187340D01*
X222088410Y-144987198D01*
X222107610Y-144780000D01*
X222088410Y-144572802D01*
X222031465Y-144372660D01*
X221980344Y-144269996D01*
X221938716Y-144186395D01*
X221938711Y-144186387D01*
X221835270Y-144049409D01*
X221813314Y-144020334D01*
X221813311Y-144020331D01*
X221813308Y-144020328D01*
X221659537Y-143880148D01*
X221659535Y-143880146D01*
X221482622Y-143770606D01*
X221482616Y-143770603D01*
X221329692Y-143711361D01*
X221288585Y-143695436D01*
X221084043Y-143657200D01*
X220875957Y-143657200D01*
X220852728Y-143661542D01*
X220827168Y-143666320D01*
X220757653Y-143659288D01*
X220716703Y-143632112D01*
X220210803Y-143126212D01*
X220200980Y-143113950D01*
X220200759Y-143114134D01*
X220195786Y-143108122D01*
X220146776Y-143062099D01*
X220143977Y-143059386D01*
X220124477Y-143039885D01*
X220124471Y-143039880D01*
X220121286Y-143037409D01*
X220112434Y-143029848D01*
X220080582Y-142999938D01*
X220080580Y-142999936D01*
X220080577Y-142999935D01*
X220063029Y-142990288D01*
X220046763Y-142979604D01*
X220030932Y-142967324D01*
X219990849Y-142949978D01*
X219980363Y-142944841D01*
X219942094Y-142923803D01*
X219942092Y-142923802D01*
X219922693Y-142918822D01*
X219904281Y-142912518D01*
X219885898Y-142904562D01*
X219885892Y-142904560D01*
X219842760Y-142897729D01*
X219831322Y-142895361D01*
X219789020Y-142884500D01*
X219789019Y-142884500D01*
X219768984Y-142884500D01*
X219749586Y-142882973D01*
X219742162Y-142881797D01*
X219729805Y-142879840D01*
X219729804Y-142879840D01*
X219686325Y-142883950D01*
X219674656Y-142884500D01*
X208519766Y-142884500D01*
X208452727Y-142864815D01*
X208406972Y-142812011D01*
X208397028Y-142742853D01*
X208426053Y-142679297D01*
X208432085Y-142672819D01*
X209795785Y-141309119D01*
X209857108Y-141275634D01*
X209883466Y-141272800D01*
X212329957Y-141272800D01*
X212345577Y-141274524D01*
X212345604Y-141274239D01*
X212353360Y-141274971D01*
X212353367Y-141274973D01*
X212420573Y-141272861D01*
X212424468Y-141272800D01*
X212452046Y-141272800D01*
X212452050Y-141272800D01*
X212456024Y-141272297D01*
X212467663Y-141271380D01*
X212511327Y-141270009D01*
X212530569Y-141264417D01*
X212549612Y-141260474D01*
X212569492Y-141257964D01*
X212610101Y-141241885D01*
X212621144Y-141238103D01*
X212663090Y-141225918D01*
X212680329Y-141215722D01*
X212697803Y-141207162D01*
X212716427Y-141199788D01*
X212716427Y-141199787D01*
X212716432Y-141199786D01*
X212751783Y-141174100D01*
X212761514Y-141167708D01*
X212799120Y-141145470D01*
X212813289Y-141131299D01*
X212828079Y-141118668D01*
X212844287Y-141106894D01*
X212872138Y-141073226D01*
X212879979Y-141064609D01*
X213096703Y-140847885D01*
X213158024Y-140814402D01*
X213207165Y-140813679D01*
X213255957Y-140822800D01*
X213255959Y-140822800D01*
X213464041Y-140822800D01*
X213464043Y-140822800D01*
X213668585Y-140784564D01*
X213862619Y-140709395D01*
X214039537Y-140599852D01*
X214193314Y-140459666D01*
X214318713Y-140293610D01*
X214411465Y-140107340D01*
X214468410Y-139907198D01*
X214487610Y-139700000D01*
X214468410Y-139492802D01*
X214411465Y-139292660D01*
X214360345Y-139189998D01*
X214318716Y-139106395D01*
X214318711Y-139106387D01*
X214215270Y-138969409D01*
X214193314Y-138940334D01*
X214193311Y-138940331D01*
X214193308Y-138940328D01*
X214039537Y-138800148D01*
X214039535Y-138800146D01*
X213862622Y-138690606D01*
X213862616Y-138690603D01*
X213684442Y-138621579D01*
X213668585Y-138615436D01*
X213464043Y-138577200D01*
X213255957Y-138577200D01*
X213051415Y-138615436D01*
X213051412Y-138615436D01*
X213051412Y-138615437D01*
X212857383Y-138690603D01*
X212857377Y-138690606D01*
X212680464Y-138800146D01*
X212680462Y-138800148D01*
X212526691Y-138940328D01*
X212526688Y-138940331D01*
X212401288Y-139106387D01*
X212401283Y-139106395D01*
X212308536Y-139292656D01*
X212251589Y-139492806D01*
X212232390Y-139699999D01*
X212232390Y-139700000D01*
X212247628Y-139864446D01*
X212234213Y-139933016D01*
X212211842Y-139963564D01*
X212189931Y-139985477D01*
X212128610Y-140018965D01*
X212102246Y-140021800D01*
X209655757Y-140021800D01*
X209640136Y-140020075D01*
X209640109Y-140020361D01*
X209632347Y-140019626D01*
X209565127Y-140021739D01*
X209561233Y-140021800D01*
X209533664Y-140021800D01*
X209529687Y-140022302D01*
X209518056Y-140023217D01*
X209474388Y-140024589D01*
X209474382Y-140024590D01*
X209455140Y-140030180D01*
X209436101Y-140034123D01*
X209416231Y-140036634D01*
X209416217Y-140036637D01*
X209375612Y-140052713D01*
X209364568Y-140056494D01*
X209322628Y-140068679D01*
X209322624Y-140068681D01*
X209305380Y-140078879D01*
X209287919Y-140087433D01*
X209269288Y-140094810D01*
X209269276Y-140094817D01*
X209233947Y-140120485D01*
X209224187Y-140126896D01*
X209186594Y-140149129D01*
X209172428Y-140163295D01*
X209157638Y-140175927D01*
X209141428Y-140187704D01*
X209141425Y-140187707D01*
X209113587Y-140221358D01*
X209105725Y-140229997D01*
X197549837Y-151785885D01*
X197488514Y-151819370D01*
X197418822Y-151814386D01*
X197374475Y-151785885D01*
X180576444Y-134987854D01*
X163766319Y-118177728D01*
X163732834Y-118116405D01*
X163730000Y-118090047D01*
X163730000Y-114962742D01*
X163731724Y-114947122D01*
X163731439Y-114947096D01*
X163732171Y-114939340D01*
X163732173Y-114939333D01*
X163730061Y-114872126D01*
X163730000Y-114868231D01*
X163730000Y-114840654D01*
X163730000Y-114840650D01*
X163729496Y-114836665D01*
X163728580Y-114825021D01*
X163727209Y-114781373D01*
X163721622Y-114762144D01*
X163717674Y-114743084D01*
X163715163Y-114723204D01*
X163699088Y-114682604D01*
X163695304Y-114671552D01*
X163683118Y-114629609D01*
X163683116Y-114629606D01*
X163672923Y-114612371D01*
X163664361Y-114594894D01*
X163656987Y-114576269D01*
X163631316Y-114540937D01*
X163624905Y-114531177D01*
X163602670Y-114493580D01*
X163602668Y-114493578D01*
X163602665Y-114493574D01*
X163588506Y-114479415D01*
X163575868Y-114464619D01*
X163564094Y-114448413D01*
X163535989Y-114425163D01*
X163530440Y-114420572D01*
X163521799Y-114412709D01*
X163285335Y-114176244D01*
X163251850Y-114114921D01*
X163253242Y-114056467D01*
X163265534Y-114010595D01*
X163265534Y-114010594D01*
X163265535Y-114010591D01*
X163284834Y-113790000D01*
X163265535Y-113569409D01*
X163208223Y-113355520D01*
X163114642Y-113154833D01*
X162987632Y-112973445D01*
X162831055Y-112816868D01*
X162649667Y-112689858D01*
X162526407Y-112632381D01*
X162473968Y-112586210D01*
X162454816Y-112519017D01*
X162475031Y-112452136D01*
X162526408Y-112407618D01*
X162649667Y-112350142D01*
X162831055Y-112223132D01*
X162987632Y-112066555D01*
X163084387Y-111928374D01*
X163138963Y-111884751D01*
X163185961Y-111875500D01*
X168597548Y-111875500D01*
X168664587Y-111895185D01*
X168685229Y-111911819D01*
X178385038Y-121611629D01*
X178418523Y-121672952D01*
X178420678Y-121686348D01*
X178428968Y-121765227D01*
X178438326Y-121854256D01*
X178438327Y-121854259D01*
X178496818Y-122034277D01*
X178496821Y-122034284D01*
X178591467Y-122198216D01*
X178616984Y-122226555D01*
X178718129Y-122338888D01*
X178871265Y-122450148D01*
X178871270Y-122450151D01*
X179044192Y-122527142D01*
X179044197Y-122527144D01*
X179229354Y-122566500D01*
X179229355Y-122566500D01*
X179418644Y-122566500D01*
X179418646Y-122566500D01*
X179603803Y-122527144D01*
X179776730Y-122450151D01*
X179929871Y-122338888D01*
X180056533Y-122198216D01*
X180151179Y-122034284D01*
X180209674Y-121854256D01*
X180229460Y-121666000D01*
X180209674Y-121477744D01*
X180151179Y-121297716D01*
X180056533Y-121133784D01*
X179929871Y-120993112D01*
X179929870Y-120993111D01*
X179776734Y-120881851D01*
X179776729Y-120881848D01*
X179603807Y-120804857D01*
X179603802Y-120804855D01*
X179458001Y-120773865D01*
X179418646Y-120765500D01*
X179418645Y-120765500D01*
X179359453Y-120765500D01*
X179292414Y-120745815D01*
X179271772Y-120729181D01*
X175627200Y-117084609D01*
X175593715Y-117023286D01*
X175598699Y-116953594D01*
X175640571Y-116897661D01*
X175664445Y-116883649D01*
X175712730Y-116862151D01*
X175865871Y-116750888D01*
X175868788Y-116747647D01*
X175871600Y-116744526D01*
X175931087Y-116707879D01*
X175963748Y-116703500D01*
X196031548Y-116703500D01*
X196098587Y-116723185D01*
X196119229Y-116739819D01*
X199490181Y-120110771D01*
X199523666Y-120172094D01*
X199526500Y-120198452D01*
X199526500Y-137077255D01*
X199524775Y-137092872D01*
X199525061Y-137092899D01*
X199524326Y-137100665D01*
X199526439Y-137167872D01*
X199526500Y-137171767D01*
X199526500Y-137199357D01*
X199527003Y-137203335D01*
X199527918Y-137214967D01*
X199529290Y-137258624D01*
X199529291Y-137258627D01*
X199534880Y-137277867D01*
X199538824Y-137296911D01*
X199540708Y-137311819D01*
X199541336Y-137316792D01*
X199557414Y-137357403D01*
X199561197Y-137368452D01*
X199573381Y-137410388D01*
X199583580Y-137427634D01*
X199592138Y-137445103D01*
X199599514Y-137463732D01*
X199625181Y-137499060D01*
X199631593Y-137508821D01*
X199653828Y-137546417D01*
X199653833Y-137546424D01*
X199667990Y-137560580D01*
X199680628Y-137575376D01*
X199692405Y-137591586D01*
X199692406Y-137591587D01*
X199726057Y-137619425D01*
X199734698Y-137627288D01*
X202653777Y-140546367D01*
X202687262Y-140607690D01*
X202682278Y-140677382D01*
X202640406Y-140733315D01*
X202631374Y-140739475D01*
X202520461Y-140808150D01*
X202366691Y-140948329D01*
X202366688Y-140948332D01*
X202241288Y-141114388D01*
X202241283Y-141114396D01*
X202148536Y-141300657D01*
X202091589Y-141500807D01*
X202072390Y-141708000D01*
X202072390Y-141708001D01*
X202091589Y-141915194D01*
X202091589Y-141915196D01*
X202091590Y-141915199D01*
X202105432Y-141963848D01*
X202148536Y-142115344D01*
X202241283Y-142301605D01*
X202241288Y-142301613D01*
X202366688Y-142467669D01*
X202366691Y-142467672D01*
X202520462Y-142607852D01*
X202520464Y-142607854D01*
X202697377Y-142717394D01*
X202697383Y-142717397D01*
X202727629Y-142729114D01*
X202891415Y-142792565D01*
X203095957Y-142830801D01*
X203095959Y-142830801D01*
X203304041Y-142830801D01*
X203304043Y-142830801D01*
X203508585Y-142792565D01*
X203702619Y-142717396D01*
X203774613Y-142672819D01*
X203884412Y-142604835D01*
X203885838Y-142607139D01*
X203940346Y-142586402D01*
X204008714Y-142600808D01*
X204015419Y-142605109D01*
X204015589Y-142604835D01*
X204197378Y-142717394D01*
X204197384Y-142717397D01*
X204227630Y-142729114D01*
X204391416Y-142792565D01*
X204595958Y-142830801D01*
X204595960Y-142830801D01*
X204804042Y-142830801D01*
X204804044Y-142830801D01*
X205008586Y-142792565D01*
X205202620Y-142717396D01*
X205379538Y-142607853D01*
X205533315Y-142467667D01*
X205658714Y-142301611D01*
X205751466Y-142115341D01*
X205808411Y-141915199D01*
X205827611Y-141708001D01*
X205808411Y-141500803D01*
X205751466Y-141300661D01*
X205730204Y-141257962D01*
X205658717Y-141114396D01*
X205658712Y-141114388D01*
X205621112Y-141064598D01*
X205533315Y-140948335D01*
X205533312Y-140948332D01*
X205533309Y-140948329D01*
X205379538Y-140808149D01*
X205379536Y-140808147D01*
X205202623Y-140698607D01*
X205202617Y-140698604D01*
X205025181Y-140629866D01*
X205008586Y-140623437D01*
X204804044Y-140585201D01*
X204595958Y-140585201D01*
X204595957Y-140585201D01*
X204547167Y-140594321D01*
X204477652Y-140587289D01*
X204436703Y-140560113D01*
X200813819Y-136937228D01*
X200780334Y-136875905D01*
X200777500Y-136849547D01*
X200777500Y-127793452D01*
X200797185Y-127726413D01*
X200849989Y-127680658D01*
X200919147Y-127670714D01*
X200982703Y-127699739D01*
X200989181Y-127705771D01*
X203550625Y-130267217D01*
X203550655Y-130267245D01*
X204038182Y-130754772D01*
X204071667Y-130816095D01*
X204074501Y-130842453D01*
X204074501Y-133085622D01*
X204054816Y-133152661D01*
X204023786Y-133183288D01*
X204024915Y-133184787D01*
X204024603Y-133185022D01*
X204020444Y-133186587D01*
X204016171Y-133190805D01*
X204015982Y-133190923D01*
X204014638Y-133188771D01*
X203959211Y-133209632D01*
X203890895Y-133194982D01*
X203884570Y-133190910D01*
X203884412Y-133191167D01*
X203702622Y-133078607D01*
X203702616Y-133078604D01*
X203549692Y-133019362D01*
X203508585Y-133003437D01*
X203304043Y-132965201D01*
X203095957Y-132965201D01*
X202891415Y-133003437D01*
X202891412Y-133003437D01*
X202891412Y-133003438D01*
X202697383Y-133078604D01*
X202697377Y-133078607D01*
X202520464Y-133188147D01*
X202520462Y-133188149D01*
X202366691Y-133328329D01*
X202366688Y-133328332D01*
X202241288Y-133494388D01*
X202241283Y-133494396D01*
X202148536Y-133680657D01*
X202091589Y-133880807D01*
X202072390Y-134088000D01*
X202072390Y-134088001D01*
X202091589Y-134295194D01*
X202091589Y-134295196D01*
X202091590Y-134295199D01*
X202101660Y-134330591D01*
X202148536Y-134495344D01*
X202241283Y-134681605D01*
X202241288Y-134681613D01*
X202366688Y-134847669D01*
X202366691Y-134847672D01*
X202520462Y-134987852D01*
X202520464Y-134987854D01*
X202697377Y-135097394D01*
X202697383Y-135097397D01*
X202738488Y-135113321D01*
X202891415Y-135172565D01*
X203095957Y-135210801D01*
X203095959Y-135210801D01*
X203304041Y-135210801D01*
X203304043Y-135210801D01*
X203508585Y-135172565D01*
X203702619Y-135097396D01*
X203759372Y-135062256D01*
X203884412Y-134984835D01*
X203885838Y-134987139D01*
X203940346Y-134966402D01*
X204008714Y-134980808D01*
X204015419Y-134985109D01*
X204015589Y-134984835D01*
X204197378Y-135097394D01*
X204197384Y-135097397D01*
X204238489Y-135113321D01*
X204391416Y-135172565D01*
X204595958Y-135210801D01*
X204595960Y-135210801D01*
X204804042Y-135210801D01*
X204804044Y-135210801D01*
X205008586Y-135172565D01*
X205202620Y-135097396D01*
X205379538Y-134987853D01*
X205533315Y-134847667D01*
X205658714Y-134681611D01*
X205751466Y-134495341D01*
X205808411Y-134295199D01*
X205827611Y-134088001D01*
X205808411Y-133880803D01*
X205751466Y-133680661D01*
X205731159Y-133639880D01*
X205658717Y-133494396D01*
X205658712Y-133494388D01*
X205611315Y-133431624D01*
X205533315Y-133328335D01*
X205533312Y-133328332D01*
X205533309Y-133328329D01*
X205379540Y-133188150D01*
X205374969Y-133184699D01*
X205376543Y-133182614D01*
X205337390Y-133138605D01*
X205325501Y-133085623D01*
X205325501Y-130614743D01*
X205327225Y-130599123D01*
X205326940Y-130599097D01*
X205327672Y-130591341D01*
X205327674Y-130591334D01*
X205325562Y-130524127D01*
X205325501Y-130520232D01*
X205325501Y-130492655D01*
X205325501Y-130492651D01*
X205324997Y-130488666D01*
X205324081Y-130477022D01*
X205323856Y-130469856D01*
X205322710Y-130433374D01*
X205317123Y-130414145D01*
X205313175Y-130395085D01*
X205310665Y-130375209D01*
X205310664Y-130375207D01*
X205310664Y-130375205D01*
X205294589Y-130334605D01*
X205290805Y-130323553D01*
X205278619Y-130281610D01*
X205278617Y-130281607D01*
X205268424Y-130264372D01*
X205259862Y-130246895D01*
X205252488Y-130228270D01*
X205226817Y-130192938D01*
X205220406Y-130183178D01*
X205198171Y-130145581D01*
X205198169Y-130145579D01*
X205198166Y-130145575D01*
X205184007Y-130131416D01*
X205171369Y-130116620D01*
X205159595Y-130100414D01*
X205125941Y-130072573D01*
X205117300Y-130064710D01*
X204374054Y-129321463D01*
X204374035Y-129321445D01*
X203361994Y-128309404D01*
X203328509Y-128248081D01*
X203333493Y-128178389D01*
X203375365Y-128122456D01*
X203426885Y-128099836D01*
X203508585Y-128084564D01*
X203702619Y-128009395D01*
X203831076Y-127929858D01*
X203884412Y-127896834D01*
X203885838Y-127899138D01*
X203940346Y-127878401D01*
X204008714Y-127892807D01*
X204015419Y-127897108D01*
X204015589Y-127896834D01*
X204197378Y-128009393D01*
X204197384Y-128009396D01*
X204238489Y-128025320D01*
X204391416Y-128084564D01*
X204595958Y-128122800D01*
X204595960Y-128122800D01*
X204804042Y-128122800D01*
X204804044Y-128122800D01*
X205008586Y-128084564D01*
X205202620Y-128009395D01*
X205379538Y-127899852D01*
X205533315Y-127759666D01*
X205658714Y-127593610D01*
X205751466Y-127407340D01*
X205808411Y-127207198D01*
X205827611Y-127000000D01*
X205808411Y-126792802D01*
X205751466Y-126592660D01*
X205698808Y-126486909D01*
X205658717Y-126406395D01*
X205658712Y-126406387D01*
X205555271Y-126269409D01*
X205533315Y-126240334D01*
X205533312Y-126240331D01*
X205533309Y-126240328D01*
X205379540Y-126100149D01*
X205374969Y-126096698D01*
X205376543Y-126094613D01*
X205337390Y-126050604D01*
X205325501Y-125997622D01*
X205325501Y-101912743D01*
X205327225Y-101897123D01*
X205326940Y-101897097D01*
X205327672Y-101889341D01*
X205327674Y-101889334D01*
X205325562Y-101822127D01*
X205325501Y-101818232D01*
X205325501Y-101790655D01*
X205325501Y-101790651D01*
X205324997Y-101786666D01*
X205324081Y-101775022D01*
X205322710Y-101731374D01*
X205317123Y-101712145D01*
X205313175Y-101693085D01*
X205310664Y-101673205D01*
X205294589Y-101632605D01*
X205290805Y-101621553D01*
X205278619Y-101579610D01*
X205278617Y-101579607D01*
X205268424Y-101562372D01*
X205259862Y-101544895D01*
X205252488Y-101526270D01*
X205226817Y-101490938D01*
X205220406Y-101481178D01*
X205198171Y-101443581D01*
X205198169Y-101443579D01*
X205198166Y-101443575D01*
X205184007Y-101429416D01*
X205171369Y-101414620D01*
X205159595Y-101398414D01*
X205150919Y-101391237D01*
X205125941Y-101370573D01*
X205117300Y-101362710D01*
X202460591Y-98706000D01*
X223782427Y-98706000D01*
X223802687Y-98963427D01*
X223862964Y-99214500D01*
X223862968Y-99214512D01*
X223961781Y-99453070D01*
X223961783Y-99453074D01*
X223961784Y-99453075D01*
X224096703Y-99673244D01*
X224264404Y-99869596D01*
X224460756Y-100037297D01*
X224680925Y-100172216D01*
X224680927Y-100172216D01*
X224680929Y-100172218D01*
X224755312Y-100203028D01*
X224919490Y-100271033D01*
X225170576Y-100331313D01*
X225363542Y-100346500D01*
X225363548Y-100346500D01*
X227772452Y-100346500D01*
X227772458Y-100346500D01*
X227965424Y-100331313D01*
X228216510Y-100271033D01*
X228455075Y-100172216D01*
X228675244Y-100037297D01*
X228871596Y-99869596D01*
X229039297Y-99673244D01*
X229174216Y-99453075D01*
X229273033Y-99214510D01*
X229333313Y-98963424D01*
X229353573Y-98706000D01*
X229333313Y-98448576D01*
X229273033Y-98197490D01*
X229177864Y-97967731D01*
X229174218Y-97958929D01*
X229134607Y-97894290D01*
X229039297Y-97738756D01*
X228871596Y-97542404D01*
X228675244Y-97374703D01*
X228455075Y-97239784D01*
X228455074Y-97239783D01*
X228455070Y-97239781D01*
X228216512Y-97140968D01*
X228216514Y-97140968D01*
X228216510Y-97140967D01*
X228216506Y-97140966D01*
X228216500Y-97140964D01*
X228045338Y-97099872D01*
X227965424Y-97080687D01*
X227818022Y-97069086D01*
X227772461Y-97065500D01*
X227772458Y-97065500D01*
X225363542Y-97065500D01*
X225363538Y-97065500D01*
X225302790Y-97070281D01*
X225170576Y-97080687D01*
X225170572Y-97080688D01*
X224919499Y-97140964D01*
X224919487Y-97140968D01*
X224680929Y-97239781D01*
X224460755Y-97374703D01*
X224264404Y-97542404D01*
X224096703Y-97738755D01*
X223961781Y-97958929D01*
X223862968Y-98197487D01*
X223862964Y-98197499D01*
X223802687Y-98448572D01*
X223782427Y-98706000D01*
X202460591Y-98706000D01*
X200534070Y-96779479D01*
X220255000Y-96779479D01*
X220269734Y-96961991D01*
X220328195Y-97199174D01*
X220328196Y-97199177D01*
X220423947Y-97423914D01*
X220505682Y-97553167D01*
X220554511Y-97630384D01*
X220716495Y-97813227D01*
X220723322Y-97818801D01*
X220905722Y-97967725D01*
X220905724Y-97967726D01*
X220905731Y-97967731D01*
X221117268Y-98089862D01*
X221117278Y-98089867D01*
X221345688Y-98176492D01*
X221585035Y-98225355D01*
X221651603Y-98228037D01*
X221829113Y-98235191D01*
X221829115Y-98235191D01*
X221829116Y-98235190D01*
X221829121Y-98235191D01*
X222036979Y-98209952D01*
X222071624Y-98205746D01*
X222137762Y-98186588D01*
X222306263Y-98137782D01*
X222526961Y-98033059D01*
X222728003Y-97894290D01*
X222904181Y-97725068D01*
X223050933Y-97529777D01*
X223164457Y-97313475D01*
X223241814Y-97081763D01*
X223281000Y-96840642D01*
X223281000Y-94632531D01*
X223266265Y-94450008D01*
X223207804Y-94212823D01*
X223112053Y-93988086D01*
X222981492Y-93781620D01*
X222981488Y-93781615D01*
X222819504Y-93598772D01*
X222691687Y-93494414D01*
X222630278Y-93444275D01*
X222630275Y-93444273D01*
X222630268Y-93444268D01*
X222418731Y-93322137D01*
X222418721Y-93322132D01*
X222190316Y-93235509D01*
X222190313Y-93235508D01*
X222190312Y-93235508D01*
X222146421Y-93226547D01*
X221950969Y-93186645D01*
X221950961Y-93186644D01*
X221706886Y-93176808D01*
X221706884Y-93176808D01*
X221464375Y-93206253D01*
X221229742Y-93274216D01*
X221229739Y-93274217D01*
X221009037Y-93378941D01*
X220807995Y-93517711D01*
X220807991Y-93517714D01*
X220631818Y-93686933D01*
X220485070Y-93882217D01*
X220485064Y-93882228D01*
X220371543Y-94098522D01*
X220371542Y-94098526D01*
X220294185Y-94330236D01*
X220294185Y-94330237D01*
X220255000Y-94571355D01*
X220255000Y-96779479D01*
X200534070Y-96779479D01*
X197350803Y-93596212D01*
X197340980Y-93583950D01*
X197340759Y-93584134D01*
X197335786Y-93578122D01*
X197286776Y-93532099D01*
X197283977Y-93529386D01*
X197264477Y-93509885D01*
X197264471Y-93509880D01*
X197261286Y-93507409D01*
X197252434Y-93499848D01*
X197220582Y-93469938D01*
X197220580Y-93469936D01*
X197220577Y-93469935D01*
X197203029Y-93460288D01*
X197186763Y-93449604D01*
X197179890Y-93444273D01*
X197170936Y-93437327D01*
X197170935Y-93437326D01*
X197170932Y-93437324D01*
X197130849Y-93419978D01*
X197120363Y-93414841D01*
X197082094Y-93393803D01*
X197082092Y-93393802D01*
X197062693Y-93388822D01*
X197044281Y-93382518D01*
X197025898Y-93374562D01*
X197025892Y-93374560D01*
X196982760Y-93367729D01*
X196971322Y-93365361D01*
X196929020Y-93354500D01*
X196929019Y-93354500D01*
X196908984Y-93354500D01*
X196889586Y-93352973D01*
X196882162Y-93351797D01*
X196869805Y-93349840D01*
X196869804Y-93349840D01*
X196826325Y-93353950D01*
X196814656Y-93354500D01*
X176332453Y-93354500D01*
X176265414Y-93334815D01*
X176244772Y-93318181D01*
X175443706Y-92517115D01*
X224038808Y-92517115D01*
X224068253Y-92759624D01*
X224136216Y-92994257D01*
X224136217Y-92994260D01*
X224240941Y-93214962D01*
X224314916Y-93322133D01*
X224364386Y-93393803D01*
X224379711Y-93416004D01*
X224379714Y-93416008D01*
X224431515Y-93469938D01*
X224548932Y-93592181D01*
X224637318Y-93658599D01*
X224744217Y-93738929D01*
X224744219Y-93738930D01*
X224744223Y-93738933D01*
X224832930Y-93785490D01*
X224960522Y-93852456D01*
X224960524Y-93852456D01*
X224960525Y-93852457D01*
X225049170Y-93882051D01*
X225192236Y-93929814D01*
X225433355Y-93969000D01*
X225433358Y-93969000D01*
X227641460Y-93969000D01*
X227641469Y-93969000D01*
X227823992Y-93954265D01*
X228061177Y-93895804D01*
X228285914Y-93800053D01*
X228492380Y-93669492D01*
X228647465Y-93532099D01*
X228675227Y-93507504D01*
X228685915Y-93494414D01*
X228829725Y-93318278D01*
X228839178Y-93301906D01*
X228951862Y-93106731D01*
X228951863Y-93106728D01*
X228951867Y-93106722D01*
X229038492Y-92878312D01*
X229087355Y-92638965D01*
X229094728Y-92456004D01*
X233424357Y-92456004D01*
X233432138Y-92549901D01*
X233432562Y-92560142D01*
X233432562Y-92580080D01*
X233435844Y-92599756D01*
X233437110Y-92609918D01*
X233444890Y-92703815D01*
X233444891Y-92703818D01*
X233468025Y-92795173D01*
X233470127Y-92805199D01*
X233473407Y-92824855D01*
X233473409Y-92824862D01*
X233479882Y-92843717D01*
X233482805Y-92853537D01*
X233505935Y-92944874D01*
X233505939Y-92944887D01*
X233543786Y-93031168D01*
X233547510Y-93040713D01*
X233553986Y-93059576D01*
X233553988Y-93059579D01*
X233563479Y-93077118D01*
X233567978Y-93086321D01*
X233605827Y-93172608D01*
X233657362Y-93251488D01*
X233662608Y-93260292D01*
X233672095Y-93277823D01*
X233672099Y-93277829D01*
X233684352Y-93293573D01*
X233690304Y-93301910D01*
X233741834Y-93380782D01*
X233741838Y-93380787D01*
X233805657Y-93450114D01*
X233812275Y-93457927D01*
X233824523Y-93473663D01*
X233834591Y-93482931D01*
X233839195Y-93487170D01*
X233846431Y-93494406D01*
X233858408Y-93507416D01*
X233910257Y-93563739D01*
X233984618Y-93621617D01*
X233992440Y-93628242D01*
X234007098Y-93641736D01*
X234007100Y-93641737D01*
X234007102Y-93641739D01*
X234023803Y-93652650D01*
X234032133Y-93658599D01*
X234106491Y-93716474D01*
X234106495Y-93716476D01*
X234106500Y-93716480D01*
X234147995Y-93738935D01*
X234189368Y-93761325D01*
X234198153Y-93766559D01*
X234214855Y-93777471D01*
X234233138Y-93785490D01*
X234242291Y-93789965D01*
X234325190Y-93834828D01*
X234414340Y-93865433D01*
X234423839Y-93869140D01*
X234442114Y-93877156D01*
X234442121Y-93877159D01*
X234461441Y-93882051D01*
X234471252Y-93884971D01*
X234531334Y-93905597D01*
X234560385Y-93915571D01*
X234593785Y-93921144D01*
X234653336Y-93931081D01*
X234663357Y-93933182D01*
X234682685Y-93938077D01*
X234702577Y-93939725D01*
X234712698Y-93940986D01*
X234805665Y-93956500D01*
X234805666Y-93956500D01*
X234899884Y-93956500D01*
X234910123Y-93956923D01*
X234916649Y-93957464D01*
X234929997Y-93958571D01*
X234930000Y-93958571D01*
X234930003Y-93958571D01*
X234943350Y-93957464D01*
X234949876Y-93956923D01*
X234960116Y-93956500D01*
X235054330Y-93956500D01*
X235054335Y-93956500D01*
X235147304Y-93940986D01*
X235157413Y-93939726D01*
X235177315Y-93938077D01*
X235196661Y-93933177D01*
X235206644Y-93931084D01*
X235299614Y-93915571D01*
X235388776Y-93884961D01*
X235398524Y-93882059D01*
X235417884Y-93877157D01*
X235436158Y-93869141D01*
X235445657Y-93865434D01*
X235534810Y-93834828D01*
X235617717Y-93789960D01*
X235626851Y-93785495D01*
X235645145Y-93777471D01*
X235661867Y-93766545D01*
X235670601Y-93761341D01*
X235753509Y-93716474D01*
X235827919Y-93658558D01*
X235836184Y-93652658D01*
X235852898Y-93641739D01*
X235867580Y-93628222D01*
X235875370Y-93621625D01*
X235949744Y-93563738D01*
X236013575Y-93494398D01*
X236020785Y-93487187D01*
X236035477Y-93473663D01*
X236047741Y-93457905D01*
X236054329Y-93450127D01*
X236118164Y-93380785D01*
X236169720Y-93301872D01*
X236175628Y-93293597D01*
X236187902Y-93277828D01*
X236197399Y-93260277D01*
X236202628Y-93251501D01*
X236254173Y-93172607D01*
X236292032Y-93086297D01*
X236296512Y-93077132D01*
X236306014Y-93059576D01*
X236312501Y-93040677D01*
X236316195Y-93031210D01*
X236354063Y-92944881D01*
X236377199Y-92853517D01*
X236380118Y-92843717D01*
X236386592Y-92824859D01*
X236389878Y-92805164D01*
X236391974Y-92795173D01*
X236415108Y-92703821D01*
X236422892Y-92609872D01*
X236424155Y-92599756D01*
X236427438Y-92580081D01*
X236428048Y-92550504D01*
X236428442Y-92542892D01*
X236435643Y-92456000D01*
X236428443Y-92369111D01*
X236428048Y-92361492D01*
X236427438Y-92331919D01*
X236424154Y-92312239D01*
X236422891Y-92302115D01*
X236415108Y-92208179D01*
X236391973Y-92116823D01*
X236389873Y-92106804D01*
X236389872Y-92106800D01*
X236386592Y-92087141D01*
X236385342Y-92083501D01*
X236380121Y-92068292D01*
X236377195Y-92058466D01*
X236377193Y-92058460D01*
X236354063Y-91967119D01*
X236354062Y-91967115D01*
X236316212Y-91880828D01*
X236312498Y-91871312D01*
X236306014Y-91852424D01*
X236296518Y-91834876D01*
X236292018Y-91825671D01*
X236273349Y-91783111D01*
X236254173Y-91739393D01*
X236210046Y-91671851D01*
X236202633Y-91660504D01*
X236197398Y-91651719D01*
X236187902Y-91634172D01*
X236183727Y-91628808D01*
X236175654Y-91618435D01*
X236169700Y-91610097D01*
X236118166Y-91531218D01*
X236118165Y-91531217D01*
X236118164Y-91531215D01*
X236083565Y-91493630D01*
X236054341Y-91461884D01*
X236047722Y-91454068D01*
X236035478Y-91438338D01*
X236035473Y-91438333D01*
X236020804Y-91424829D01*
X236013558Y-91417583D01*
X235949744Y-91348262D01*
X235912462Y-91319244D01*
X235875379Y-91290381D01*
X235867564Y-91283762D01*
X235852898Y-91270261D01*
X235836205Y-91259355D01*
X235827872Y-91253405D01*
X235753509Y-91195526D01*
X235753508Y-91195525D01*
X235753505Y-91195523D01*
X235753503Y-91195522D01*
X235670639Y-91150679D01*
X235661835Y-91145433D01*
X235645146Y-91134529D01*
X235637706Y-91131266D01*
X235626881Y-91126517D01*
X235617690Y-91122024D01*
X235589075Y-91106538D01*
X235534811Y-91077172D01*
X235534802Y-91077169D01*
X235445683Y-91046574D01*
X235436146Y-91042853D01*
X235417884Y-91034843D01*
X235417880Y-91034842D01*
X235417878Y-91034841D01*
X235398559Y-91029948D01*
X235388744Y-91027026D01*
X235299614Y-90996429D01*
X235206665Y-90980918D01*
X235196640Y-90978816D01*
X235177312Y-90973922D01*
X235157449Y-90972276D01*
X235147283Y-90971009D01*
X235054336Y-90955500D01*
X235054335Y-90955500D01*
X234960105Y-90955500D01*
X234949865Y-90955076D01*
X234943643Y-90954560D01*
X234930003Y-90953430D01*
X234929997Y-90953430D01*
X234916356Y-90954560D01*
X234910134Y-90955076D01*
X234899895Y-90955500D01*
X234805665Y-90955500D01*
X234712715Y-90971009D01*
X234702550Y-90972276D01*
X234682689Y-90973922D01*
X234682683Y-90973923D01*
X234663363Y-90978815D01*
X234653339Y-90980917D01*
X234560382Y-90996429D01*
X234471255Y-91027025D01*
X234461445Y-91029946D01*
X234442126Y-91034839D01*
X234442115Y-91034843D01*
X234423855Y-91042852D01*
X234414316Y-91046574D01*
X234325194Y-91077170D01*
X234325183Y-91077175D01*
X234242315Y-91122021D01*
X234233111Y-91126521D01*
X234214854Y-91134529D01*
X234214845Y-91134534D01*
X234198168Y-91145430D01*
X234189368Y-91150674D01*
X234106492Y-91195524D01*
X234106489Y-91195526D01*
X234032128Y-91253404D01*
X234023794Y-91259355D01*
X234007099Y-91270263D01*
X233992426Y-91283769D01*
X233984615Y-91290384D01*
X233910255Y-91348262D01*
X233846432Y-91417591D01*
X233839190Y-91424833D01*
X233824529Y-91438330D01*
X233824514Y-91438346D01*
X233812271Y-91454074D01*
X233805657Y-91461884D01*
X233741836Y-91531215D01*
X233690302Y-91610092D01*
X233684353Y-91618425D01*
X233672098Y-91634172D01*
X233672094Y-91634178D01*
X233662605Y-91651711D01*
X233657363Y-91660509D01*
X233605828Y-91739390D01*
X233567981Y-91825670D01*
X233563486Y-91834866D01*
X233553985Y-91852424D01*
X233547508Y-91871291D01*
X233543785Y-91880833D01*
X233505936Y-91967122D01*
X233482805Y-92058460D01*
X233479884Y-92068272D01*
X233473408Y-92087139D01*
X233470127Y-92106800D01*
X233468025Y-92116825D01*
X233444891Y-92208178D01*
X233444891Y-92208182D01*
X233437109Y-92302084D01*
X233435844Y-92312239D01*
X233432562Y-92331919D01*
X233432562Y-92351856D01*
X233432138Y-92362096D01*
X233424357Y-92455994D01*
X233424357Y-92456004D01*
X229094728Y-92456004D01*
X229097191Y-92394879D01*
X229082397Y-92273038D01*
X229067746Y-92152375D01*
X229014086Y-91967122D01*
X228999782Y-91917737D01*
X228895059Y-91697039D01*
X228863771Y-91651711D01*
X228824527Y-91594856D01*
X228756290Y-91495997D01*
X228756287Y-91495994D01*
X228756285Y-91495991D01*
X228680972Y-91417583D01*
X228587068Y-91319819D01*
X228428509Y-91200669D01*
X228391782Y-91173070D01*
X228391778Y-91173067D01*
X228391777Y-91173067D01*
X228339119Y-91145430D01*
X228175477Y-91059543D01*
X228175473Y-91059542D01*
X227943763Y-90982185D01*
X227702645Y-90943000D01*
X227702642Y-90943000D01*
X225494531Y-90943000D01*
X225494520Y-90943000D01*
X225312008Y-90957734D01*
X225074825Y-91016195D01*
X225074823Y-91016196D01*
X224850086Y-91111947D01*
X224709783Y-91200669D01*
X224643615Y-91242511D01*
X224460772Y-91404495D01*
X224306273Y-91593724D01*
X224306268Y-91593731D01*
X224184137Y-91805268D01*
X224184132Y-91805278D01*
X224097509Y-92033683D01*
X224048645Y-92273030D01*
X224048644Y-92273038D01*
X224038808Y-92517113D01*
X224038808Y-92517115D01*
X175443706Y-92517115D01*
X175436960Y-92510369D01*
X175403475Y-92449046D01*
X175401323Y-92435668D01*
X175383674Y-92267744D01*
X175325179Y-92087716D01*
X175230533Y-91923784D01*
X175103871Y-91783112D01*
X175103870Y-91783111D01*
X174950734Y-91671851D01*
X174950729Y-91671848D01*
X174777807Y-91594857D01*
X174777802Y-91594855D01*
X174632001Y-91563865D01*
X174592646Y-91555500D01*
X174403354Y-91555500D01*
X174370897Y-91562398D01*
X174218197Y-91594855D01*
X174218192Y-91594857D01*
X174045270Y-91671848D01*
X174045265Y-91671851D01*
X173892129Y-91783111D01*
X173765466Y-91923785D01*
X173670821Y-92087715D01*
X173670818Y-92087722D01*
X173612327Y-92267740D01*
X173612326Y-92267744D01*
X173592540Y-92456000D01*
X173612326Y-92644256D01*
X173612327Y-92644259D01*
X173670818Y-92824277D01*
X173670821Y-92824284D01*
X173765467Y-92988216D01*
X173872170Y-93106721D01*
X173892129Y-93128888D01*
X174045265Y-93240148D01*
X174045270Y-93240151D01*
X174218192Y-93317142D01*
X174218197Y-93317144D01*
X174403354Y-93356500D01*
X174462548Y-93356500D01*
X174529587Y-93376185D01*
X174550229Y-93392819D01*
X175316228Y-94158819D01*
X175349713Y-94220142D01*
X175344729Y-94289834D01*
X175302857Y-94345767D01*
X175237393Y-94370184D01*
X175228547Y-94370500D01*
X175201748Y-94370500D01*
X175134709Y-94350815D01*
X175109600Y-94329474D01*
X175103873Y-94323114D01*
X175103869Y-94323110D01*
X174950734Y-94211851D01*
X174950729Y-94211848D01*
X174777807Y-94134857D01*
X174777802Y-94134855D01*
X174606882Y-94098526D01*
X174592646Y-94095500D01*
X174403354Y-94095500D01*
X174389118Y-94098526D01*
X174218197Y-94134855D01*
X174218192Y-94134857D01*
X174045270Y-94211848D01*
X174045265Y-94211851D01*
X173892129Y-94323111D01*
X173765466Y-94463785D01*
X173670821Y-94627715D01*
X173670818Y-94627722D01*
X173612327Y-94807740D01*
X173612326Y-94807744D01*
X173592540Y-94996000D01*
X173612326Y-95184256D01*
X173612327Y-95184259D01*
X173670818Y-95364277D01*
X173670821Y-95364284D01*
X173765467Y-95528216D01*
X173865820Y-95639669D01*
X173892129Y-95668888D01*
X174045265Y-95780148D01*
X174045270Y-95780151D01*
X174218192Y-95857142D01*
X174218197Y-95857144D01*
X174403354Y-95896500D01*
X174403355Y-95896500D01*
X174592644Y-95896500D01*
X174592646Y-95896500D01*
X174777803Y-95857144D01*
X174950730Y-95780151D01*
X175103871Y-95668888D01*
X175106788Y-95665647D01*
X175109600Y-95662526D01*
X175169087Y-95625879D01*
X175201748Y-95621500D01*
X178913351Y-95621500D01*
X178980390Y-95641185D01*
X179026145Y-95693989D01*
X179036089Y-95763147D01*
X179034028Y-95774016D01*
X179033908Y-95774523D01*
X179033303Y-95780151D01*
X179027501Y-95834123D01*
X179027500Y-95834135D01*
X179027500Y-98729870D01*
X179027501Y-98729876D01*
X179033908Y-98789483D01*
X179084202Y-98924328D01*
X179084206Y-98924335D01*
X179170452Y-99039544D01*
X179170455Y-99039547D01*
X179285664Y-99125793D01*
X179285671Y-99125797D01*
X179420517Y-99176091D01*
X179420516Y-99176091D01*
X179427444Y-99176835D01*
X179480127Y-99182500D01*
X182375872Y-99182499D01*
X182435483Y-99176091D01*
X182570331Y-99125796D01*
X182685546Y-99039546D01*
X182771796Y-98924331D01*
X182822091Y-98789483D01*
X182828500Y-98729873D01*
X182828499Y-95834128D01*
X182822091Y-95774517D01*
X182822088Y-95774510D01*
X182821974Y-95774024D01*
X182821995Y-95773625D01*
X182821262Y-95766804D01*
X182822366Y-95766685D01*
X182825710Y-95704254D01*
X182866573Y-95647580D01*
X182931589Y-95621994D01*
X182942649Y-95621500D01*
X184602305Y-95621500D01*
X184669344Y-95641185D01*
X184715099Y-95693989D01*
X184725043Y-95763147D01*
X184696018Y-95826703D01*
X184683505Y-95839215D01*
X184680255Y-95842030D01*
X184488038Y-96034247D01*
X184488028Y-96034259D01*
X184325110Y-96251891D01*
X184325109Y-96251892D01*
X184194830Y-96490480D01*
X184147326Y-96617843D01*
X184099825Y-96745199D01*
X184099824Y-96745202D01*
X184099823Y-96745206D01*
X184042040Y-97010832D01*
X184042039Y-97010839D01*
X184022645Y-97281998D01*
X184022645Y-97282001D01*
X184042039Y-97553160D01*
X184042040Y-97553167D01*
X184079434Y-97725066D01*
X184099825Y-97818801D01*
X184155373Y-97967731D01*
X184194830Y-98073519D01*
X184325109Y-98312107D01*
X184325110Y-98312108D01*
X184325113Y-98312113D01*
X184488029Y-98529742D01*
X184488033Y-98529746D01*
X184488038Y-98529752D01*
X184680247Y-98721961D01*
X184680253Y-98721966D01*
X184680258Y-98721971D01*
X184897887Y-98884887D01*
X184897891Y-98884889D01*
X184897892Y-98884890D01*
X185136481Y-99015169D01*
X185136480Y-99015169D01*
X185136484Y-99015170D01*
X185136487Y-99015172D01*
X185391199Y-99110175D01*
X185656840Y-99167961D01*
X185908605Y-99185967D01*
X185927999Y-99187355D01*
X185928000Y-99187355D01*
X185928001Y-99187355D01*
X185946100Y-99186060D01*
X186199160Y-99167961D01*
X186464801Y-99110175D01*
X186719513Y-99015172D01*
X186719517Y-99015169D01*
X186719519Y-99015169D01*
X186885882Y-98924328D01*
X186958113Y-98884887D01*
X187175742Y-98721971D01*
X187367971Y-98529742D01*
X187530887Y-98312113D01*
X187661172Y-98073513D01*
X187756175Y-97818801D01*
X187813961Y-97553160D01*
X187833355Y-97282000D01*
X187813961Y-97010840D01*
X187756175Y-96745199D01*
X187661172Y-96490487D01*
X187661170Y-96490484D01*
X187661169Y-96490480D01*
X187530890Y-96251892D01*
X187530889Y-96251891D01*
X187530887Y-96251887D01*
X187367971Y-96034258D01*
X187367966Y-96034253D01*
X187367961Y-96034247D01*
X187175744Y-95842030D01*
X187172495Y-95839215D01*
X187134719Y-95780438D01*
X187134717Y-95710569D01*
X187172490Y-95651789D01*
X187236044Y-95622763D01*
X187253695Y-95621500D01*
X196539548Y-95621500D01*
X196606587Y-95641185D01*
X196627229Y-95657819D01*
X198978625Y-98009217D01*
X198978655Y-98009245D01*
X202538181Y-101568771D01*
X202571666Y-101630094D01*
X202574500Y-101656452D01*
X202574500Y-125997622D01*
X202554815Y-126064661D01*
X202523889Y-126095185D01*
X202525032Y-126096698D01*
X202520460Y-126100149D01*
X202366691Y-126240328D01*
X202366688Y-126240331D01*
X202241288Y-126406387D01*
X202241283Y-126406395D01*
X202148535Y-126592658D01*
X202148532Y-126592664D01*
X202094800Y-126781515D01*
X202057521Y-126840609D01*
X201994211Y-126870166D01*
X201924972Y-126860804D01*
X201887853Y-126835262D01*
X201575819Y-126523228D01*
X201542334Y-126461905D01*
X201539500Y-126435547D01*
X201539500Y-119716737D01*
X201541224Y-119701123D01*
X201540938Y-119701096D01*
X201541672Y-119693333D01*
X201539561Y-119626143D01*
X201539500Y-119622249D01*
X201539500Y-119594651D01*
X201539500Y-119594650D01*
X201538997Y-119590670D01*
X201538080Y-119579021D01*
X201536709Y-119535374D01*
X201536709Y-119535372D01*
X201531120Y-119516137D01*
X201527174Y-119497084D01*
X201524664Y-119477208D01*
X201508578Y-119436581D01*
X201504803Y-119425554D01*
X201492617Y-119383610D01*
X201482421Y-119366369D01*
X201473860Y-119348893D01*
X201466486Y-119330269D01*
X201466485Y-119330267D01*
X201447746Y-119304475D01*
X201440809Y-119294926D01*
X201434412Y-119285190D01*
X201412170Y-119247579D01*
X201412167Y-119247576D01*
X201412165Y-119247573D01*
X201398005Y-119233413D01*
X201385370Y-119218620D01*
X201373593Y-119202412D01*
X201339945Y-119174576D01*
X201331304Y-119166713D01*
X197003819Y-114839228D01*
X196970334Y-114777905D01*
X196967500Y-114751547D01*
X196967500Y-111068844D01*
X196969697Y-111045606D01*
X196971227Y-111037586D01*
X196967745Y-110982241D01*
X196967500Y-110974455D01*
X196967500Y-110958650D01*
X196967499Y-110958646D01*
X196965516Y-110942951D01*
X196964788Y-110935260D01*
X196961304Y-110879862D01*
X196958779Y-110872092D01*
X196953687Y-110849314D01*
X196952664Y-110841208D01*
X196932233Y-110789606D01*
X196929608Y-110782315D01*
X196912467Y-110729559D01*
X196908089Y-110722661D01*
X196897495Y-110701868D01*
X196894486Y-110694268D01*
X196894484Y-110694265D01*
X196894483Y-110694263D01*
X196868733Y-110658822D01*
X196861870Y-110649377D01*
X196857501Y-110642947D01*
X196845794Y-110624500D01*
X196827786Y-110596123D01*
X196821833Y-110590533D01*
X196806398Y-110573025D01*
X196801594Y-110566413D01*
X196801591Y-110566411D01*
X196801591Y-110566410D01*
X196758862Y-110531062D01*
X196753018Y-110525910D01*
X196712584Y-110487940D01*
X196712577Y-110487934D01*
X196705415Y-110483997D01*
X196686114Y-110470880D01*
X196679824Y-110465677D01*
X196679823Y-110465676D01*
X196629620Y-110442052D01*
X196622720Y-110438536D01*
X196574092Y-110411803D01*
X196574089Y-110411802D01*
X196574085Y-110411800D01*
X196566174Y-110409769D01*
X196544222Y-110401866D01*
X196536825Y-110398385D01*
X196536821Y-110398384D01*
X196482356Y-110387994D01*
X196474758Y-110386296D01*
X196421023Y-110372500D01*
X196421019Y-110372500D01*
X196412847Y-110372500D01*
X196389615Y-110370304D01*
X196381588Y-110368773D01*
X196381585Y-110368772D01*
X196326241Y-110372255D01*
X196318455Y-110372500D01*
X191064453Y-110372500D01*
X190997414Y-110352815D01*
X190976772Y-110336181D01*
X190422960Y-109782369D01*
X190389475Y-109721046D01*
X190387323Y-109707668D01*
X190369674Y-109539744D01*
X190311179Y-109359716D01*
X190216533Y-109195784D01*
X190089871Y-109055112D01*
X190089870Y-109055111D01*
X189936734Y-108943851D01*
X189936729Y-108943848D01*
X189763807Y-108866857D01*
X189763802Y-108866855D01*
X189618001Y-108835865D01*
X189578646Y-108827500D01*
X189389354Y-108827500D01*
X189356897Y-108834398D01*
X189204197Y-108866855D01*
X189204192Y-108866857D01*
X189031270Y-108943848D01*
X189031265Y-108943851D01*
X188878129Y-109055111D01*
X188751466Y-109195785D01*
X188656821Y-109359715D01*
X188656818Y-109359722D01*
X188602611Y-109526555D01*
X188598326Y-109539744D01*
X188578540Y-109728000D01*
X188598326Y-109916256D01*
X188598327Y-109916259D01*
X188656818Y-110096277D01*
X188656821Y-110096284D01*
X188751467Y-110260216D01*
X188850591Y-110370304D01*
X188878129Y-110400888D01*
X189031265Y-110512148D01*
X189031270Y-110512151D01*
X189204192Y-110589142D01*
X189204197Y-110589144D01*
X189389354Y-110628500D01*
X189448548Y-110628500D01*
X189515587Y-110648185D01*
X189536229Y-110664819D01*
X190253197Y-111381788D01*
X190263022Y-111394051D01*
X190263243Y-111393869D01*
X190268211Y-111399874D01*
X190317222Y-111445899D01*
X190320021Y-111448612D01*
X190339522Y-111468114D01*
X190339526Y-111468117D01*
X190339529Y-111468120D01*
X190342702Y-111470581D01*
X190351574Y-111478159D01*
X190383418Y-111508062D01*
X190400976Y-111517714D01*
X190417235Y-111528395D01*
X190433064Y-111540673D01*
X190473155Y-111558021D01*
X190483626Y-111563151D01*
X190506180Y-111575550D01*
X190521902Y-111584194D01*
X190521904Y-111584195D01*
X190521908Y-111584197D01*
X190541316Y-111589180D01*
X190559719Y-111595481D01*
X190578101Y-111603436D01*
X190578102Y-111603436D01*
X190578104Y-111603437D01*
X190621250Y-111610270D01*
X190632672Y-111612636D01*
X190674981Y-111623500D01*
X190695016Y-111623500D01*
X190714414Y-111625026D01*
X190734194Y-111628159D01*
X190734195Y-111628160D01*
X190734195Y-111628159D01*
X190734196Y-111628160D01*
X190777675Y-111624050D01*
X190789344Y-111623500D01*
X195592500Y-111623500D01*
X195659539Y-111643185D01*
X195705294Y-111695989D01*
X195716500Y-111747500D01*
X195716500Y-114979255D01*
X195714775Y-114994872D01*
X195715061Y-114994899D01*
X195714326Y-115002665D01*
X195716439Y-115069872D01*
X195716500Y-115073767D01*
X195716500Y-115101357D01*
X195717003Y-115105335D01*
X195717918Y-115116967D01*
X195719290Y-115160624D01*
X195719291Y-115160627D01*
X195724880Y-115179867D01*
X195728824Y-115198911D01*
X195731091Y-115216855D01*
X195731336Y-115218792D01*
X195747414Y-115259403D01*
X195751195Y-115270446D01*
X195757995Y-115293849D01*
X195758011Y-115293902D01*
X195757813Y-115363772D01*
X195719872Y-115422443D01*
X195656234Y-115451287D01*
X195638935Y-115452500D01*
X175963748Y-115452500D01*
X175896709Y-115432815D01*
X175871600Y-115411474D01*
X175865873Y-115405114D01*
X175865869Y-115405110D01*
X175712734Y-115293851D01*
X175712729Y-115293848D01*
X175539807Y-115216857D01*
X175539802Y-115216855D01*
X175394001Y-115185865D01*
X175354646Y-115177500D01*
X175165354Y-115177500D01*
X175132897Y-115184398D01*
X174980197Y-115216855D01*
X174980192Y-115216857D01*
X174807270Y-115293848D01*
X174807265Y-115293851D01*
X174654129Y-115405111D01*
X174527466Y-115545785D01*
X174447548Y-115684208D01*
X174396981Y-115732423D01*
X174328374Y-115745647D01*
X174263510Y-115719679D01*
X174252480Y-115709889D01*
X169408803Y-110866212D01*
X169398980Y-110853950D01*
X169398759Y-110854134D01*
X169393786Y-110848122D01*
X169344776Y-110802099D01*
X169341977Y-110799386D01*
X169322477Y-110779885D01*
X169322471Y-110779880D01*
X169319286Y-110777409D01*
X169310434Y-110769848D01*
X169278582Y-110739938D01*
X169278580Y-110739936D01*
X169278577Y-110739935D01*
X169261029Y-110730288D01*
X169244763Y-110719604D01*
X169228932Y-110707324D01*
X169188849Y-110689978D01*
X169178363Y-110684841D01*
X169140094Y-110663803D01*
X169140092Y-110663802D01*
X169120693Y-110658822D01*
X169102281Y-110652518D01*
X169083898Y-110644562D01*
X169083892Y-110644560D01*
X169040760Y-110637729D01*
X169029322Y-110635361D01*
X168987020Y-110624500D01*
X168987019Y-110624500D01*
X168966984Y-110624500D01*
X168947586Y-110622973D01*
X168940162Y-110621797D01*
X168927805Y-110619840D01*
X168927804Y-110619840D01*
X168884325Y-110623950D01*
X168872656Y-110624500D01*
X163185961Y-110624500D01*
X163118922Y-110604815D01*
X163084387Y-110571625D01*
X162987632Y-110433445D01*
X162831055Y-110276868D01*
X162649667Y-110149858D01*
X162526407Y-110092381D01*
X162473968Y-110046210D01*
X162454816Y-109979017D01*
X162475031Y-109912136D01*
X162526408Y-109867618D01*
X162649667Y-109810142D01*
X162831055Y-109683132D01*
X162987632Y-109526555D01*
X163114642Y-109345167D01*
X163208223Y-109144480D01*
X163265535Y-108930591D01*
X163284834Y-108710000D01*
X163265535Y-108489409D01*
X163208223Y-108275520D01*
X163114642Y-108074833D01*
X162987632Y-107893445D01*
X162831055Y-107736868D01*
X162649667Y-107609858D01*
X162526407Y-107552381D01*
X162473968Y-107506210D01*
X162454816Y-107439017D01*
X162475031Y-107372136D01*
X162526408Y-107327618D01*
X162649667Y-107270142D01*
X162831055Y-107143132D01*
X162987632Y-106986555D01*
X163114642Y-106805167D01*
X163208223Y-106604480D01*
X163265535Y-106390591D01*
X163284834Y-106170000D01*
X163265535Y-105949409D01*
X163208223Y-105735520D01*
X163114642Y-105534833D01*
X162987632Y-105353445D01*
X162831055Y-105196868D01*
X162649667Y-105069858D01*
X162526407Y-105012381D01*
X162473968Y-104966210D01*
X162454816Y-104899017D01*
X162475031Y-104832136D01*
X162526408Y-104787618D01*
X162649667Y-104730142D01*
X162831055Y-104603132D01*
X162987632Y-104446555D01*
X163114642Y-104265167D01*
X163208223Y-104064480D01*
X163265535Y-103850591D01*
X163284834Y-103630000D01*
X163265535Y-103409409D01*
X163208223Y-103195520D01*
X163114642Y-102994833D01*
X162987632Y-102813445D01*
X162831055Y-102656868D01*
X162649667Y-102529858D01*
X162649663Y-102529856D01*
X162448986Y-102436279D01*
X162448975Y-102436275D01*
X162235092Y-102378965D01*
X162235085Y-102378964D01*
X162014502Y-102359666D01*
X162014498Y-102359666D01*
X161793914Y-102378964D01*
X161793907Y-102378965D01*
X161580024Y-102436275D01*
X161580013Y-102436279D01*
X161379336Y-102529856D01*
X161379334Y-102529857D01*
X161197944Y-102656868D01*
X161041368Y-102813444D01*
X160914357Y-102994834D01*
X160914356Y-102994836D01*
X160820779Y-103195513D01*
X160820775Y-103195524D01*
X160763465Y-103409407D01*
X160763464Y-103409414D01*
X160744166Y-103629998D01*
X160744166Y-103630001D01*
X160763464Y-103850585D01*
X160763465Y-103850592D01*
X160820775Y-104064475D01*
X160820779Y-104064486D01*
X160914356Y-104265163D01*
X160914358Y-104265167D01*
X161041368Y-104446555D01*
X161197945Y-104603132D01*
X161379333Y-104730142D01*
X161441328Y-104759050D01*
X161502591Y-104787618D01*
X161555031Y-104833790D01*
X161574183Y-104900983D01*
X161553967Y-104967865D01*
X161502591Y-105012382D01*
X161379336Y-105069856D01*
X161379334Y-105069857D01*
X161197944Y-105196868D01*
X161041368Y-105353444D01*
X160914357Y-105534834D01*
X160914356Y-105534836D01*
X160820779Y-105735513D01*
X160820775Y-105735524D01*
X160763465Y-105949407D01*
X160763464Y-105949414D01*
X160744166Y-106169998D01*
X160744166Y-106170001D01*
X160763464Y-106390585D01*
X160763465Y-106390592D01*
X160820775Y-106604475D01*
X160820779Y-106604486D01*
X160914356Y-106805163D01*
X160914358Y-106805167D01*
X161041368Y-106986555D01*
X161197945Y-107143132D01*
X161379333Y-107270142D01*
X161441328Y-107299050D01*
X161502591Y-107327618D01*
X161555031Y-107373790D01*
X161574183Y-107440983D01*
X161553967Y-107507865D01*
X161502591Y-107552382D01*
X161379336Y-107609856D01*
X161379334Y-107609857D01*
X161197944Y-107736868D01*
X161041368Y-107893444D01*
X160914357Y-108074834D01*
X160914356Y-108074836D01*
X160820779Y-108275513D01*
X160820775Y-108275524D01*
X160763465Y-108489407D01*
X160763464Y-108489414D01*
X160744166Y-108709998D01*
X160744166Y-108710001D01*
X160763464Y-108930585D01*
X160763465Y-108930592D01*
X160820775Y-109144475D01*
X160820779Y-109144486D01*
X160914356Y-109345163D01*
X160914358Y-109345167D01*
X161041368Y-109526555D01*
X161197945Y-109683132D01*
X161379333Y-109810142D01*
X161441328Y-109839050D01*
X161502591Y-109867618D01*
X161555031Y-109913790D01*
X161574183Y-109980983D01*
X161553967Y-110047865D01*
X161502591Y-110092382D01*
X161379336Y-110149856D01*
X161379334Y-110149857D01*
X161197944Y-110276868D01*
X161041368Y-110433444D01*
X160914357Y-110614834D01*
X160914356Y-110614836D01*
X160820779Y-110815513D01*
X160820775Y-110815524D01*
X160763465Y-111029407D01*
X160763464Y-111029414D01*
X160744166Y-111249998D01*
X160744166Y-111250001D01*
X160763464Y-111470585D01*
X160763465Y-111470592D01*
X160820775Y-111684475D01*
X160820779Y-111684486D01*
X160850163Y-111747500D01*
X160914358Y-111885167D01*
X161041368Y-112066555D01*
X161197945Y-112223132D01*
X161379333Y-112350142D01*
X161441328Y-112379050D01*
X161502591Y-112407618D01*
X161555031Y-112453790D01*
X161574183Y-112520983D01*
X161553967Y-112587865D01*
X161502591Y-112632382D01*
X161379336Y-112689856D01*
X161379334Y-112689857D01*
X161197944Y-112816868D01*
X161041368Y-112973444D01*
X160914357Y-113154834D01*
X160914356Y-113154836D01*
X160820779Y-113355513D01*
X160820775Y-113355524D01*
X160763465Y-113569407D01*
X160763464Y-113569414D01*
X160744166Y-113789998D01*
X160744166Y-113790001D01*
X160763464Y-114010585D01*
X160763465Y-114010592D01*
X160820775Y-114224475D01*
X160820779Y-114224486D01*
X160908549Y-114412709D01*
X160914358Y-114425167D01*
X161041368Y-114606555D01*
X161197945Y-114763132D01*
X161379333Y-114890142D01*
X161441328Y-114919050D01*
X161502591Y-114947618D01*
X161555031Y-114993790D01*
X161574183Y-115060983D01*
X161553967Y-115127865D01*
X161502591Y-115172382D01*
X161379336Y-115229856D01*
X161379334Y-115229857D01*
X161197944Y-115356868D01*
X161041368Y-115513444D01*
X160914357Y-115694834D01*
X160914356Y-115694836D01*
X160820779Y-115895513D01*
X160820775Y-115895524D01*
X160763465Y-116109407D01*
X160763464Y-116109414D01*
X160744166Y-116329998D01*
X160744166Y-116330001D01*
X160763464Y-116550585D01*
X160763465Y-116550592D01*
X160820775Y-116764475D01*
X160820779Y-116764486D01*
X160902223Y-116939144D01*
X160914358Y-116965167D01*
X161041368Y-117146555D01*
X161197945Y-117303132D01*
X161379333Y-117430142D01*
X161441328Y-117459050D01*
X161502591Y-117487618D01*
X161555031Y-117533790D01*
X161574183Y-117600983D01*
X161553967Y-117667865D01*
X161502591Y-117712382D01*
X161379336Y-117769856D01*
X161379334Y-117769857D01*
X161197944Y-117896868D01*
X161041368Y-118053444D01*
X160914357Y-118234834D01*
X160914356Y-118234836D01*
X160820779Y-118435513D01*
X160820775Y-118435524D01*
X160763465Y-118649407D01*
X160763464Y-118649414D01*
X160744166Y-118869998D01*
X160744166Y-118870001D01*
X160763464Y-119090585D01*
X160763465Y-119090592D01*
X160820775Y-119304475D01*
X160820779Y-119304486D01*
X160910589Y-119497084D01*
X160914358Y-119505167D01*
X160977015Y-119594650D01*
X161041368Y-119686555D01*
X161197944Y-119843131D01*
X161362410Y-119958292D01*
X161406035Y-120012869D01*
X161406579Y-120014221D01*
X161419914Y-120047903D01*
X161423697Y-120058952D01*
X161427527Y-120072136D01*
X161435882Y-120100890D01*
X161441725Y-120110771D01*
X161446080Y-120118134D01*
X161454638Y-120135604D01*
X161458124Y-120144408D01*
X161464503Y-120213986D01*
X161432252Y-120275967D01*
X161395243Y-120302438D01*
X161379335Y-120309856D01*
X161197944Y-120436868D01*
X161041368Y-120593444D01*
X160914357Y-120774834D01*
X160914356Y-120774836D01*
X160820779Y-120975513D01*
X160820775Y-120975524D01*
X160763465Y-121189407D01*
X160763464Y-121189414D01*
X160744166Y-121409998D01*
X160744166Y-121410001D01*
X160763464Y-121630585D01*
X160763465Y-121630592D01*
X160820775Y-121844475D01*
X160820779Y-121844486D01*
X160909280Y-122034277D01*
X160914358Y-122045167D01*
X161041368Y-122226555D01*
X161197945Y-122383132D01*
X161379333Y-122510142D01*
X161441328Y-122539050D01*
X161502591Y-122567618D01*
X161555031Y-122613790D01*
X161574183Y-122680983D01*
X161553967Y-122747865D01*
X161502591Y-122792382D01*
X161379336Y-122849856D01*
X161379334Y-122849857D01*
X161197944Y-122976868D01*
X161041368Y-123133444D01*
X160914357Y-123314834D01*
X160914356Y-123314836D01*
X160820779Y-123515513D01*
X160820775Y-123515524D01*
X160763465Y-123729407D01*
X160763464Y-123729414D01*
X160744166Y-123949998D01*
X160744166Y-123950001D01*
X160763464Y-124170585D01*
X160763465Y-124170592D01*
X160820775Y-124384475D01*
X160820779Y-124384486D01*
X160914356Y-124585163D01*
X160914358Y-124585167D01*
X161041368Y-124766555D01*
X161197945Y-124923132D01*
X161379333Y-125050142D01*
X161441328Y-125079050D01*
X161502591Y-125107618D01*
X161555031Y-125153790D01*
X161574183Y-125220983D01*
X161553967Y-125287865D01*
X161502591Y-125332382D01*
X161379336Y-125389856D01*
X161379334Y-125389857D01*
X161197944Y-125516868D01*
X161041368Y-125673444D01*
X160914357Y-125854834D01*
X160914356Y-125854836D01*
X160820779Y-126055513D01*
X160820775Y-126055524D01*
X160763465Y-126269407D01*
X160763464Y-126269414D01*
X160744166Y-126489998D01*
X160744166Y-126490001D01*
X160763464Y-126710585D01*
X160763465Y-126710592D01*
X160820775Y-126924475D01*
X160820779Y-126924486D01*
X160855992Y-127000000D01*
X160914358Y-127125167D01*
X161041368Y-127306555D01*
X161197945Y-127463132D01*
X161379333Y-127590142D01*
X161386775Y-127593612D01*
X161502591Y-127647618D01*
X161555031Y-127693790D01*
X161574183Y-127760983D01*
X161553967Y-127827865D01*
X161502591Y-127872382D01*
X161379336Y-127929856D01*
X161379334Y-127929857D01*
X161197944Y-128056868D01*
X161041368Y-128213444D01*
X160914357Y-128394834D01*
X160914356Y-128394836D01*
X160820779Y-128595513D01*
X160820775Y-128595524D01*
X160763465Y-128809407D01*
X160763464Y-128809414D01*
X160744166Y-129029998D01*
X160744166Y-129030001D01*
X160763464Y-129250585D01*
X160763465Y-129250592D01*
X160820775Y-129464475D01*
X160820779Y-129464486D01*
X160914356Y-129665163D01*
X160914358Y-129665167D01*
X161041368Y-129846555D01*
X161197945Y-130003132D01*
X161379333Y-130130142D01*
X161412449Y-130145584D01*
X161502591Y-130187618D01*
X161555031Y-130233790D01*
X161574183Y-130300983D01*
X161553967Y-130367865D01*
X161502591Y-130412382D01*
X161379336Y-130469856D01*
X161379334Y-130469857D01*
X161197944Y-130596868D01*
X161041368Y-130753444D01*
X160914357Y-130934834D01*
X160914356Y-130934836D01*
X160820779Y-131135513D01*
X160820775Y-131135524D01*
X160763465Y-131349407D01*
X160763464Y-131349414D01*
X160744166Y-131569998D01*
X160744166Y-131570001D01*
X160763464Y-131790585D01*
X160763465Y-131790592D01*
X160820775Y-132004475D01*
X160820779Y-132004486D01*
X160914356Y-132205163D01*
X160914358Y-132205167D01*
X161041368Y-132386555D01*
X161197945Y-132543132D01*
X161379333Y-132670142D01*
X161441328Y-132699050D01*
X161502591Y-132727618D01*
X161555031Y-132773790D01*
X161574183Y-132840983D01*
X161553967Y-132907865D01*
X161502591Y-132952382D01*
X161379336Y-133009856D01*
X161379334Y-133009857D01*
X161197944Y-133136868D01*
X161041368Y-133293444D01*
X160914357Y-133474834D01*
X160914356Y-133474836D01*
X160820779Y-133675513D01*
X160820775Y-133675524D01*
X160763465Y-133889407D01*
X160763464Y-133889414D01*
X160744166Y-134109998D01*
X160744166Y-134110001D01*
X160763464Y-134330585D01*
X160763465Y-134330592D01*
X160820775Y-134544475D01*
X160820779Y-134544486D01*
X160886647Y-134685740D01*
X160914358Y-134745167D01*
X161041368Y-134926555D01*
X161197945Y-135083132D01*
X161379333Y-135210142D01*
X161441328Y-135239050D01*
X161502591Y-135267618D01*
X161555031Y-135313790D01*
X161574183Y-135380983D01*
X161553967Y-135447865D01*
X161502591Y-135492382D01*
X161379336Y-135549856D01*
X161379334Y-135549857D01*
X161197944Y-135676868D01*
X161041368Y-135833444D01*
X160914357Y-136014834D01*
X160914356Y-136014836D01*
X160820779Y-136215513D01*
X160820775Y-136215524D01*
X160763465Y-136429407D01*
X160763464Y-136429414D01*
X160744166Y-136649998D01*
X160744166Y-136650001D01*
X160763464Y-136870585D01*
X160763465Y-136870592D01*
X160820775Y-137084475D01*
X160820779Y-137084486D01*
X160884477Y-137221087D01*
X160914358Y-137285167D01*
X161041368Y-137466555D01*
X161197945Y-137623132D01*
X161379333Y-137750142D01*
X161438269Y-137777624D01*
X161502591Y-137807618D01*
X161555031Y-137853790D01*
X161574183Y-137920983D01*
X161553967Y-137987865D01*
X161502591Y-138032382D01*
X161379336Y-138089856D01*
X161379334Y-138089857D01*
X161197944Y-138216868D01*
X161041368Y-138373444D01*
X160987291Y-138450673D01*
X160944612Y-138511625D01*
X160890037Y-138555249D01*
X160843039Y-138564500D01*
X159342743Y-138564500D01*
X159327122Y-138562775D01*
X159327096Y-138563061D01*
X159319334Y-138562327D01*
X159319333Y-138562327D01*
X159257109Y-138564282D01*
X159252127Y-138564439D01*
X159248232Y-138564500D01*
X159220647Y-138564500D01*
X159216661Y-138565003D01*
X159205033Y-138565918D01*
X159161373Y-138567290D01*
X159142129Y-138572881D01*
X159123079Y-138576825D01*
X159103211Y-138579334D01*
X159103210Y-138579334D01*
X159062599Y-138595413D01*
X159051554Y-138599194D01*
X159009614Y-138611379D01*
X159009610Y-138611381D01*
X158992366Y-138621579D01*
X158974905Y-138630133D01*
X158956274Y-138637510D01*
X158956262Y-138637517D01*
X158920933Y-138663185D01*
X158911173Y-138669596D01*
X158873580Y-138691829D01*
X158859414Y-138705995D01*
X158844624Y-138718627D01*
X158828414Y-138730404D01*
X158828411Y-138730407D01*
X158800573Y-138764058D01*
X158792711Y-138772697D01*
X155754228Y-141811181D01*
X155692905Y-141844666D01*
X155666547Y-141847500D01*
X155607354Y-141847500D01*
X155574897Y-141854398D01*
X155422197Y-141886855D01*
X155422192Y-141886857D01*
X155249270Y-141963848D01*
X155249265Y-141963851D01*
X155096129Y-142075111D01*
X154969466Y-142215785D01*
X154874821Y-142379715D01*
X154874818Y-142379722D01*
X154846242Y-142467672D01*
X154816326Y-142559744D01*
X154796540Y-142748000D01*
X154816326Y-142936256D01*
X154816327Y-142936259D01*
X154874818Y-143116277D01*
X154874821Y-143116284D01*
X154969467Y-143280216D01*
X154984461Y-143296868D01*
X155096129Y-143420888D01*
X155249265Y-143532148D01*
X155249270Y-143532151D01*
X155422192Y-143609142D01*
X155422197Y-143609144D01*
X155607354Y-143648500D01*
X155607355Y-143648500D01*
X155796644Y-143648500D01*
X155796646Y-143648500D01*
X155981803Y-143609144D01*
X156154730Y-143532151D01*
X156307871Y-143420888D01*
X156434533Y-143280216D01*
X156529179Y-143116284D01*
X156587674Y-142936256D01*
X156605321Y-142768345D01*
X156631905Y-142703732D01*
X156640952Y-142693636D01*
X159482772Y-139851819D01*
X159544095Y-139818334D01*
X159570453Y-139815500D01*
X160843039Y-139815500D01*
X160910078Y-139835185D01*
X160944612Y-139868374D01*
X161041368Y-140006555D01*
X161197945Y-140163132D01*
X161379333Y-140290142D01*
X161386775Y-140293612D01*
X161502591Y-140347618D01*
X161555031Y-140393790D01*
X161574183Y-140460983D01*
X161553967Y-140527865D01*
X161502591Y-140572382D01*
X161379336Y-140629856D01*
X161379334Y-140629857D01*
X161197944Y-140756868D01*
X161041368Y-140913444D01*
X160914357Y-141094834D01*
X160914356Y-141094836D01*
X160820779Y-141295513D01*
X160820775Y-141295524D01*
X160763465Y-141509407D01*
X160763464Y-141509414D01*
X160744166Y-141729998D01*
X160744166Y-141730001D01*
X160763464Y-141950585D01*
X160763466Y-141950596D01*
X160775758Y-141996469D01*
X160774095Y-142066318D01*
X160743664Y-142116243D01*
X153032208Y-149827699D01*
X153019951Y-149837520D01*
X153020134Y-149837741D01*
X153014122Y-149842714D01*
X152968098Y-149891723D01*
X152965391Y-149894516D01*
X152945889Y-149914017D01*
X152945875Y-149914034D01*
X152943407Y-149917215D01*
X152935843Y-149926070D01*
X152905937Y-149957918D01*
X152905936Y-149957920D01*
X152896284Y-149975476D01*
X152885610Y-149991726D01*
X152873329Y-150007561D01*
X152873324Y-150007568D01*
X152855975Y-150047658D01*
X152850838Y-150058144D01*
X152829803Y-150096406D01*
X152824822Y-150115807D01*
X152818521Y-150134210D01*
X152810562Y-150152602D01*
X152810561Y-150152605D01*
X152803728Y-150195743D01*
X152801360Y-150207174D01*
X152790501Y-150249471D01*
X152790500Y-150249482D01*
X152790500Y-150269516D01*
X152788973Y-150288915D01*
X152785840Y-150308694D01*
X152785840Y-150308695D01*
X152789950Y-150352174D01*
X152790500Y-150363843D01*
X152790500Y-163299852D01*
X152770815Y-163366891D01*
X152718011Y-163412646D01*
X152648853Y-163422590D01*
X152585297Y-163393565D01*
X152578819Y-163387533D01*
X151791819Y-162600533D01*
X151758334Y-162539210D01*
X151755500Y-162512852D01*
X151755500Y-157670687D01*
X151775185Y-157603648D01*
X151787350Y-157587715D01*
X151805891Y-157567122D01*
X151862533Y-157504216D01*
X151957179Y-157340284D01*
X152015674Y-157160256D01*
X152035460Y-156972000D01*
X152015674Y-156783744D01*
X151957179Y-156603716D01*
X151862533Y-156439784D01*
X151735871Y-156299112D01*
X151735870Y-156299111D01*
X151582734Y-156187851D01*
X151582729Y-156187848D01*
X151409807Y-156110857D01*
X151409802Y-156110855D01*
X151250917Y-156077084D01*
X151224646Y-156071500D01*
X151035354Y-156071500D01*
X151009083Y-156077084D01*
X150850197Y-156110855D01*
X150850192Y-156110857D01*
X150677270Y-156187848D01*
X150677265Y-156187851D01*
X150524129Y-156299111D01*
X150397466Y-156439785D01*
X150302821Y-156603715D01*
X150302818Y-156603722D01*
X150244327Y-156783740D01*
X150244326Y-156783744D01*
X150224540Y-156972000D01*
X140424659Y-156972000D01*
X140424834Y-156970000D01*
X140405535Y-156749409D01*
X140348223Y-156535520D01*
X140254642Y-156334833D01*
X140127632Y-156153445D01*
X139971055Y-155996868D01*
X139789667Y-155869858D01*
X139725320Y-155839853D01*
X139666408Y-155812382D01*
X139613968Y-155766210D01*
X139594816Y-155699017D01*
X139615031Y-155632136D01*
X139666408Y-155587618D01*
X139789667Y-155530142D01*
X139971055Y-155403132D01*
X140127632Y-155246555D01*
X140254642Y-155065167D01*
X140348223Y-154864480D01*
X140405535Y-154650591D01*
X140424834Y-154430000D01*
X140422957Y-154408550D01*
X140417519Y-154346387D01*
X140405535Y-154209409D01*
X140348223Y-153995520D01*
X140343995Y-153986454D01*
X140280324Y-153849909D01*
X140254642Y-153794833D01*
X140127632Y-153613445D01*
X139971055Y-153456868D01*
X139789667Y-153329858D01*
X139666407Y-153272381D01*
X139613968Y-153226210D01*
X139594816Y-153159017D01*
X139615031Y-153092136D01*
X139666408Y-153047618D01*
X139789667Y-152990142D01*
X139971055Y-152863132D01*
X140127632Y-152706555D01*
X140254642Y-152525167D01*
X140348223Y-152324480D01*
X140405535Y-152110591D01*
X140424834Y-151890000D01*
X140405535Y-151669409D01*
X140348223Y-151455520D01*
X140254642Y-151254833D01*
X140127632Y-151073445D01*
X139971055Y-150916868D01*
X139789667Y-150789858D01*
X139666407Y-150732381D01*
X139613968Y-150686210D01*
X139594816Y-150619017D01*
X139615031Y-150552136D01*
X139666408Y-150507618D01*
X139789667Y-150450142D01*
X139971055Y-150323132D01*
X140127632Y-150166555D01*
X140254642Y-149985167D01*
X140348223Y-149784480D01*
X140405535Y-149570591D01*
X140424834Y-149350000D01*
X140405535Y-149129409D01*
X140348223Y-148915520D01*
X140254642Y-148714833D01*
X140127632Y-148533445D01*
X139971055Y-148376868D01*
X139789667Y-148249858D01*
X139725320Y-148219853D01*
X139666408Y-148192382D01*
X139613968Y-148146210D01*
X139594816Y-148079017D01*
X139615031Y-148012136D01*
X139666408Y-147967618D01*
X139689382Y-147956905D01*
X139789667Y-147910142D01*
X139971055Y-147783132D01*
X140127632Y-147626555D01*
X140254642Y-147445167D01*
X140348223Y-147244480D01*
X140405535Y-147030591D01*
X140424834Y-146810000D01*
X140405535Y-146589409D01*
X140348223Y-146375520D01*
X140341346Y-146360773D01*
X140289682Y-146249978D01*
X140254642Y-146174833D01*
X140127632Y-145993445D01*
X139971055Y-145836868D01*
X139789667Y-145709858D01*
X139725320Y-145679853D01*
X139666408Y-145652382D01*
X139613968Y-145606210D01*
X139594816Y-145539017D01*
X139615031Y-145472136D01*
X139666408Y-145427618D01*
X139789667Y-145370142D01*
X139971055Y-145243132D01*
X140127632Y-145086555D01*
X140254642Y-144905167D01*
X140348223Y-144704480D01*
X140405535Y-144490591D01*
X140424834Y-144270000D01*
X140405535Y-144049409D01*
X140348223Y-143835520D01*
X140254642Y-143634833D01*
X140127632Y-143453445D01*
X139971055Y-143296868D01*
X139789667Y-143169858D01*
X139666407Y-143112381D01*
X139613968Y-143066210D01*
X139594816Y-142999017D01*
X139615031Y-142932136D01*
X139666408Y-142887618D01*
X139683088Y-142879840D01*
X139789667Y-142830142D01*
X139971055Y-142703132D01*
X140127632Y-142546555D01*
X140254642Y-142365167D01*
X140348223Y-142164480D01*
X140405535Y-141950591D01*
X140424834Y-141730000D01*
X140405535Y-141509409D01*
X140348223Y-141295520D01*
X140338641Y-141274972D01*
X140290008Y-141170677D01*
X140254642Y-141094833D01*
X140127632Y-140913445D01*
X139971055Y-140756868D01*
X139789667Y-140629858D01*
X139777149Y-140624021D01*
X139666408Y-140572382D01*
X139613968Y-140526210D01*
X139594816Y-140459017D01*
X139615031Y-140392136D01*
X139666408Y-140347618D01*
X139789667Y-140290142D01*
X139971055Y-140163132D01*
X140127632Y-140006555D01*
X140254642Y-139825167D01*
X140348223Y-139624480D01*
X140405535Y-139410591D01*
X140424834Y-139190000D01*
X140405535Y-138969409D01*
X140348223Y-138755520D01*
X140336511Y-138730404D01*
X140293196Y-138637514D01*
X140254642Y-138554833D01*
X140127632Y-138373445D01*
X139971055Y-138216868D01*
X139789667Y-138089858D01*
X139666407Y-138032381D01*
X139613968Y-137986210D01*
X139594816Y-137919017D01*
X139615031Y-137852136D01*
X139666408Y-137807618D01*
X139789667Y-137750142D01*
X139971055Y-137623132D01*
X140127632Y-137466555D01*
X140254642Y-137285167D01*
X140348223Y-137084480D01*
X140405535Y-136870591D01*
X140424834Y-136650000D01*
X140405535Y-136429409D01*
X140348223Y-136215520D01*
X140341346Y-136200773D01*
X140289682Y-136089978D01*
X140254642Y-136014833D01*
X140127632Y-135833445D01*
X139971055Y-135676868D01*
X139789667Y-135549858D01*
X139666407Y-135492381D01*
X139613968Y-135446210D01*
X139594816Y-135379017D01*
X139615031Y-135312136D01*
X139666408Y-135267618D01*
X139789667Y-135210142D01*
X139971055Y-135083132D01*
X140127632Y-134926555D01*
X140254642Y-134745167D01*
X140348223Y-134544480D01*
X140405535Y-134330591D01*
X140424834Y-134110000D01*
X140405535Y-133889409D01*
X140348223Y-133675520D01*
X140341346Y-133660773D01*
X140289682Y-133549978D01*
X140254642Y-133474833D01*
X140127632Y-133293445D01*
X139971055Y-133136868D01*
X139789667Y-133009858D01*
X139666407Y-132952381D01*
X139613968Y-132906210D01*
X139594816Y-132839017D01*
X139615031Y-132772136D01*
X139666408Y-132727618D01*
X139789667Y-132670142D01*
X139971055Y-132543132D01*
X140127632Y-132386555D01*
X140254642Y-132205167D01*
X140348223Y-132004480D01*
X140405535Y-131790591D01*
X140424834Y-131570000D01*
X140405535Y-131349409D01*
X140348223Y-131135520D01*
X140254642Y-130934833D01*
X140127632Y-130753445D01*
X139971055Y-130596868D01*
X139789667Y-130469858D01*
X139666407Y-130412381D01*
X139613968Y-130366210D01*
X139594816Y-130299017D01*
X139615031Y-130232136D01*
X139666408Y-130187618D01*
X139675945Y-130183171D01*
X139789667Y-130130142D01*
X139971055Y-130003132D01*
X140127632Y-129846555D01*
X140254642Y-129665167D01*
X140348223Y-129464480D01*
X140405535Y-129250591D01*
X140424834Y-129030000D01*
X140405535Y-128809409D01*
X140348223Y-128595520D01*
X140254642Y-128394833D01*
X140127632Y-128213445D01*
X139971055Y-128056868D01*
X139789667Y-127929858D01*
X139725320Y-127899853D01*
X139666408Y-127872382D01*
X139613968Y-127826210D01*
X139594816Y-127759017D01*
X139615031Y-127692136D01*
X139666408Y-127647618D01*
X139789667Y-127590142D01*
X139971055Y-127463132D01*
X140127632Y-127306555D01*
X140254642Y-127125167D01*
X140348223Y-126924480D01*
X140405535Y-126710591D01*
X140424834Y-126490000D01*
X140405535Y-126269409D01*
X140348223Y-126055520D01*
X140254642Y-125854833D01*
X140127632Y-125673445D01*
X139971055Y-125516868D01*
X139789667Y-125389858D01*
X139666407Y-125332381D01*
X139613968Y-125286210D01*
X139594816Y-125219017D01*
X139615031Y-125152136D01*
X139666408Y-125107618D01*
X139789667Y-125050142D01*
X139971055Y-124923132D01*
X140127632Y-124766555D01*
X140254642Y-124585167D01*
X140348223Y-124384480D01*
X140405535Y-124170591D01*
X140424834Y-123950000D01*
X140405535Y-123729409D01*
X140348223Y-123515520D01*
X140254642Y-123314833D01*
X140127632Y-123133445D01*
X139971055Y-122976868D01*
X139789667Y-122849858D01*
X139666407Y-122792381D01*
X139613968Y-122746210D01*
X139594816Y-122679017D01*
X139615031Y-122612136D01*
X139666408Y-122567618D01*
X139668806Y-122566500D01*
X139789667Y-122510142D01*
X139971055Y-122383132D01*
X140127632Y-122226555D01*
X140254642Y-122045167D01*
X140348223Y-121844480D01*
X140405535Y-121630591D01*
X140424834Y-121410000D01*
X140405535Y-121189409D01*
X140348223Y-120975520D01*
X140254642Y-120774833D01*
X140127632Y-120593445D01*
X139971055Y-120436868D01*
X139789667Y-120309858D01*
X139666407Y-120252381D01*
X139613968Y-120206210D01*
X139594816Y-120139017D01*
X139615031Y-120072136D01*
X139666408Y-120027618D01*
X139695138Y-120014221D01*
X139789667Y-119970142D01*
X139971055Y-119843132D01*
X140127632Y-119686555D01*
X140254642Y-119505167D01*
X140348223Y-119304480D01*
X140405535Y-119090591D01*
X140424834Y-118870000D01*
X140405535Y-118649409D01*
X140348223Y-118435520D01*
X140254642Y-118234833D01*
X140127632Y-118053445D01*
X139971055Y-117896868D01*
X139789667Y-117769858D01*
X139666407Y-117712381D01*
X139613968Y-117666210D01*
X139594816Y-117599017D01*
X139615031Y-117532136D01*
X139666408Y-117487618D01*
X139789667Y-117430142D01*
X139971055Y-117303132D01*
X140127632Y-117146555D01*
X140254642Y-116965167D01*
X140348223Y-116764480D01*
X140405535Y-116550591D01*
X140424834Y-116330000D01*
X140405535Y-116109409D01*
X140348223Y-115895520D01*
X140325113Y-115845961D01*
X140272170Y-115732423D01*
X140254642Y-115694833D01*
X140127632Y-115513445D01*
X139971055Y-115356868D01*
X139789667Y-115229858D01*
X139666407Y-115172381D01*
X139613968Y-115126210D01*
X139594816Y-115059017D01*
X139615031Y-114992136D01*
X139666408Y-114947618D01*
X139667472Y-114947122D01*
X139789667Y-114890142D01*
X139971055Y-114763132D01*
X140127632Y-114606555D01*
X140254642Y-114425167D01*
X140348223Y-114224480D01*
X140405535Y-114010591D01*
X140424834Y-113790000D01*
X140405535Y-113569409D01*
X140348223Y-113355520D01*
X140254642Y-113154833D01*
X140127632Y-112973445D01*
X139971055Y-112816868D01*
X139789667Y-112689858D01*
X139666407Y-112632381D01*
X139613968Y-112586210D01*
X139594816Y-112519017D01*
X139615031Y-112452136D01*
X139666408Y-112407618D01*
X139789667Y-112350142D01*
X139971055Y-112223132D01*
X140127632Y-112066555D01*
X140254642Y-111885167D01*
X140348223Y-111684480D01*
X140405535Y-111470591D01*
X140424834Y-111250000D01*
X140405535Y-111029409D01*
X140348223Y-110815520D01*
X140341346Y-110800773D01*
X140289682Y-110689978D01*
X140254642Y-110614833D01*
X140127632Y-110433445D01*
X139971055Y-110276868D01*
X139789667Y-110149858D01*
X139666407Y-110092381D01*
X139613968Y-110046210D01*
X139594816Y-109979017D01*
X139615031Y-109912136D01*
X139666408Y-109867618D01*
X139789667Y-109810142D01*
X139971055Y-109683132D01*
X140127632Y-109526555D01*
X140254642Y-109345167D01*
X140348223Y-109144480D01*
X140405535Y-108930591D01*
X140424834Y-108710000D01*
X140405535Y-108489409D01*
X140348223Y-108275520D01*
X140254642Y-108074833D01*
X140127632Y-107893445D01*
X139971055Y-107736868D01*
X139789667Y-107609858D01*
X139666407Y-107552381D01*
X139613968Y-107506210D01*
X139594816Y-107439017D01*
X139615031Y-107372136D01*
X139666408Y-107327618D01*
X139789667Y-107270142D01*
X139971055Y-107143132D01*
X140127632Y-106986555D01*
X140254642Y-106805167D01*
X140348223Y-106604480D01*
X140405535Y-106390591D01*
X140424834Y-106170000D01*
X140405535Y-105949409D01*
X140348223Y-105735520D01*
X140254642Y-105534833D01*
X140127632Y-105353445D01*
X139971055Y-105196868D01*
X139789667Y-105069858D01*
X139666407Y-105012381D01*
X139613968Y-104966210D01*
X139594816Y-104899017D01*
X139615031Y-104832136D01*
X139666408Y-104787618D01*
X139789667Y-104730142D01*
X139971055Y-104603132D01*
X140127632Y-104446555D01*
X140254642Y-104265167D01*
X140348223Y-104064480D01*
X140405535Y-103850591D01*
X140424834Y-103630000D01*
X140405535Y-103409409D01*
X140348223Y-103195520D01*
X140254642Y-102994833D01*
X140127632Y-102813445D01*
X139971055Y-102656868D01*
X139971050Y-102656864D01*
X139971047Y-102656862D01*
X139832876Y-102560112D01*
X139789251Y-102505535D01*
X139780000Y-102458538D01*
X139780000Y-101391237D01*
X139781724Y-101375623D01*
X139781438Y-101375596D01*
X139782172Y-101367833D01*
X139780061Y-101300644D01*
X139780000Y-101296750D01*
X139780000Y-101269151D01*
X139780000Y-101269150D01*
X139779497Y-101265170D01*
X139778580Y-101253521D01*
X139777209Y-101209873D01*
X139771622Y-101190644D01*
X139767674Y-101171584D01*
X139765164Y-101151708D01*
X139749085Y-101111097D01*
X139745304Y-101100052D01*
X139733119Y-101058112D01*
X139722918Y-101040863D01*
X139714360Y-101023394D01*
X139706986Y-101004768D01*
X139706983Y-101004764D01*
X139706983Y-101004763D01*
X139681316Y-100969435D01*
X139674903Y-100959672D01*
X139652672Y-100922083D01*
X139652670Y-100922079D01*
X139652666Y-100922075D01*
X139652663Y-100922071D01*
X139638505Y-100907913D01*
X139625870Y-100893120D01*
X139614093Y-100876912D01*
X139580445Y-100849076D01*
X139571804Y-100841213D01*
X138860960Y-100130369D01*
X138827475Y-100069046D01*
X138825323Y-100055668D01*
X138807674Y-99887744D01*
X138749179Y-99707716D01*
X138654533Y-99543784D01*
X138527871Y-99403112D01*
X138527870Y-99403111D01*
X138374734Y-99291851D01*
X138374729Y-99291848D01*
X138201807Y-99214857D01*
X138201802Y-99214855D01*
X138019426Y-99176091D01*
X138016646Y-99175500D01*
X137827354Y-99175500D01*
X137824574Y-99176091D01*
X137642197Y-99214855D01*
X137642192Y-99214857D01*
X137469270Y-99291848D01*
X137469265Y-99291851D01*
X137316129Y-99403111D01*
X137189466Y-99543785D01*
X137094821Y-99707715D01*
X137094818Y-99707722D01*
X137036327Y-99887740D01*
X137036326Y-99887744D01*
X137016540Y-100076000D01*
X135430500Y-100076000D01*
X135430500Y-95931870D01*
X167617500Y-95931870D01*
X167617501Y-95931876D01*
X167623908Y-95991483D01*
X167674202Y-96126328D01*
X167674206Y-96126335D01*
X167760452Y-96241544D01*
X167760455Y-96241547D01*
X167875664Y-96327793D01*
X167875671Y-96327797D01*
X168010517Y-96378091D01*
X168010516Y-96378091D01*
X168017444Y-96378835D01*
X168070127Y-96384500D01*
X170765872Y-96384499D01*
X170825483Y-96378091D01*
X170960331Y-96327796D01*
X171075546Y-96241546D01*
X171161796Y-96126331D01*
X171212091Y-95991483D01*
X171218500Y-95931873D01*
X171218499Y-92536128D01*
X171212091Y-92476517D01*
X171204440Y-92456004D01*
X171161797Y-92341671D01*
X171161793Y-92341664D01*
X171075547Y-92226455D01*
X171075544Y-92226452D01*
X170960335Y-92140206D01*
X170960328Y-92140202D01*
X170825482Y-92089908D01*
X170825483Y-92089908D01*
X170765883Y-92083501D01*
X170765881Y-92083500D01*
X170765873Y-92083500D01*
X170765864Y-92083500D01*
X168070129Y-92083500D01*
X168070123Y-92083501D01*
X168010516Y-92089908D01*
X167875671Y-92140202D01*
X167875664Y-92140206D01*
X167760455Y-92226452D01*
X167760452Y-92226455D01*
X167674206Y-92341664D01*
X167674202Y-92341671D01*
X167623908Y-92476517D01*
X167620269Y-92510369D01*
X167617501Y-92536123D01*
X167617500Y-92536135D01*
X167617500Y-95931870D01*
X135430500Y-95931870D01*
X135430500Y-92456004D01*
X136924357Y-92456004D01*
X136932138Y-92549901D01*
X136932562Y-92560142D01*
X136932562Y-92580080D01*
X136935844Y-92599756D01*
X136937110Y-92609918D01*
X136944890Y-92703815D01*
X136944891Y-92703818D01*
X136968025Y-92795173D01*
X136970127Y-92805199D01*
X136973407Y-92824855D01*
X136973409Y-92824862D01*
X136979882Y-92843717D01*
X136982805Y-92853537D01*
X137005935Y-92944874D01*
X137005939Y-92944887D01*
X137043786Y-93031168D01*
X137047510Y-93040713D01*
X137053986Y-93059576D01*
X137053988Y-93059579D01*
X137063479Y-93077118D01*
X137067978Y-93086321D01*
X137105827Y-93172608D01*
X137157362Y-93251488D01*
X137162608Y-93260292D01*
X137172095Y-93277823D01*
X137172099Y-93277829D01*
X137184352Y-93293573D01*
X137190304Y-93301910D01*
X137241834Y-93380782D01*
X137241838Y-93380787D01*
X137305657Y-93450114D01*
X137312275Y-93457927D01*
X137324523Y-93473663D01*
X137334591Y-93482931D01*
X137339195Y-93487170D01*
X137346431Y-93494406D01*
X137358408Y-93507416D01*
X137410257Y-93563739D01*
X137484618Y-93621617D01*
X137492440Y-93628242D01*
X137507098Y-93641736D01*
X137507100Y-93641737D01*
X137507102Y-93641739D01*
X137523803Y-93652650D01*
X137532133Y-93658599D01*
X137606491Y-93716474D01*
X137606495Y-93716476D01*
X137606500Y-93716480D01*
X137647995Y-93738935D01*
X137689368Y-93761325D01*
X137698153Y-93766559D01*
X137714855Y-93777471D01*
X137733138Y-93785490D01*
X137742291Y-93789965D01*
X137825190Y-93834828D01*
X137914340Y-93865433D01*
X137923839Y-93869140D01*
X137942114Y-93877156D01*
X137942121Y-93877159D01*
X137961441Y-93882051D01*
X137971252Y-93884971D01*
X138031334Y-93905597D01*
X138060385Y-93915571D01*
X138093785Y-93921144D01*
X138153336Y-93931081D01*
X138163357Y-93933182D01*
X138182685Y-93938077D01*
X138202577Y-93939725D01*
X138212698Y-93940986D01*
X138305665Y-93956500D01*
X138305666Y-93956500D01*
X138399884Y-93956500D01*
X138410123Y-93956923D01*
X138416649Y-93957464D01*
X138429997Y-93958571D01*
X138430000Y-93958571D01*
X138430003Y-93958571D01*
X138443350Y-93957464D01*
X138449876Y-93956923D01*
X138460116Y-93956500D01*
X138554330Y-93956500D01*
X138554335Y-93956500D01*
X138647304Y-93940986D01*
X138657413Y-93939726D01*
X138677315Y-93938077D01*
X138696661Y-93933177D01*
X138706644Y-93931084D01*
X138799614Y-93915571D01*
X138888776Y-93884961D01*
X138898524Y-93882059D01*
X138917884Y-93877157D01*
X138936158Y-93869141D01*
X138945657Y-93865434D01*
X139034810Y-93834828D01*
X139117717Y-93789960D01*
X139126851Y-93785495D01*
X139145145Y-93777471D01*
X139161867Y-93766545D01*
X139170601Y-93761341D01*
X139253509Y-93716474D01*
X139327919Y-93658558D01*
X139336184Y-93652658D01*
X139352898Y-93641739D01*
X139367580Y-93628222D01*
X139375370Y-93621625D01*
X139449744Y-93563738D01*
X139513575Y-93494398D01*
X139520785Y-93487187D01*
X139535477Y-93473663D01*
X139547741Y-93457905D01*
X139554329Y-93450127D01*
X139618164Y-93380785D01*
X139669720Y-93301872D01*
X139675628Y-93293597D01*
X139687902Y-93277828D01*
X139697399Y-93260277D01*
X139702628Y-93251501D01*
X139754173Y-93172607D01*
X139792032Y-93086297D01*
X139796512Y-93077132D01*
X139806014Y-93059576D01*
X139812501Y-93040677D01*
X139816195Y-93031210D01*
X139854063Y-92944881D01*
X139877199Y-92853517D01*
X139880118Y-92843717D01*
X139886592Y-92824859D01*
X139889878Y-92805164D01*
X139891974Y-92795173D01*
X139915108Y-92703821D01*
X139922892Y-92609872D01*
X139924155Y-92599756D01*
X139927438Y-92580081D01*
X139928048Y-92550504D01*
X139928442Y-92542892D01*
X139935643Y-92456000D01*
X139928443Y-92369111D01*
X139928048Y-92361492D01*
X139927438Y-92331919D01*
X139924154Y-92312239D01*
X139922891Y-92302115D01*
X139915108Y-92208179D01*
X139891973Y-92116823D01*
X139889873Y-92106804D01*
X139889872Y-92106800D01*
X139886592Y-92087141D01*
X139885342Y-92083501D01*
X139880121Y-92068292D01*
X139877195Y-92058466D01*
X139877193Y-92058460D01*
X139854063Y-91967119D01*
X139854062Y-91967115D01*
X139816212Y-91880828D01*
X139812498Y-91871312D01*
X139806014Y-91852424D01*
X139796518Y-91834876D01*
X139792018Y-91825671D01*
X139773349Y-91783111D01*
X139754173Y-91739393D01*
X139710046Y-91671851D01*
X139702633Y-91660504D01*
X139697398Y-91651719D01*
X139687902Y-91634172D01*
X139683727Y-91628808D01*
X139675654Y-91618435D01*
X139669700Y-91610097D01*
X139618166Y-91531218D01*
X139618165Y-91531217D01*
X139618164Y-91531215D01*
X139583565Y-91493630D01*
X139554341Y-91461884D01*
X139547722Y-91454068D01*
X139535478Y-91438338D01*
X139535473Y-91438333D01*
X139520804Y-91424829D01*
X139513558Y-91417583D01*
X139449744Y-91348262D01*
X139412462Y-91319244D01*
X139375379Y-91290381D01*
X139367564Y-91283762D01*
X139352898Y-91270261D01*
X139336205Y-91259355D01*
X139327872Y-91253405D01*
X139253509Y-91195526D01*
X139253508Y-91195525D01*
X139253505Y-91195523D01*
X139253503Y-91195522D01*
X139170639Y-91150679D01*
X139161835Y-91145433D01*
X139145146Y-91134529D01*
X139137706Y-91131266D01*
X139126881Y-91126517D01*
X139117690Y-91122024D01*
X139089075Y-91106538D01*
X139034811Y-91077172D01*
X139034802Y-91077169D01*
X138945683Y-91046574D01*
X138936146Y-91042853D01*
X138917884Y-91034843D01*
X138917880Y-91034842D01*
X138917878Y-91034841D01*
X138898559Y-91029948D01*
X138888744Y-91027026D01*
X138799614Y-90996429D01*
X138706665Y-90980918D01*
X138696640Y-90978816D01*
X138677312Y-90973922D01*
X138657449Y-90972276D01*
X138647283Y-90971009D01*
X138554336Y-90955500D01*
X138554335Y-90955500D01*
X138460105Y-90955500D01*
X138449865Y-90955076D01*
X138443643Y-90954560D01*
X138430003Y-90953430D01*
X138429997Y-90953430D01*
X138416356Y-90954560D01*
X138410134Y-90955076D01*
X138399895Y-90955500D01*
X138305665Y-90955500D01*
X138212715Y-90971009D01*
X138202550Y-90972276D01*
X138182689Y-90973922D01*
X138182683Y-90973923D01*
X138163363Y-90978815D01*
X138153339Y-90980917D01*
X138060382Y-90996429D01*
X137971255Y-91027025D01*
X137961445Y-91029946D01*
X137942126Y-91034839D01*
X137942115Y-91034843D01*
X137923855Y-91042852D01*
X137914316Y-91046574D01*
X137825194Y-91077170D01*
X137825183Y-91077175D01*
X137742315Y-91122021D01*
X137733111Y-91126521D01*
X137714854Y-91134529D01*
X137714845Y-91134534D01*
X137698168Y-91145430D01*
X137689368Y-91150674D01*
X137606492Y-91195524D01*
X137606489Y-91195526D01*
X137532128Y-91253404D01*
X137523794Y-91259355D01*
X137507099Y-91270263D01*
X137492426Y-91283769D01*
X137484615Y-91290384D01*
X137410255Y-91348262D01*
X137346432Y-91417591D01*
X137339190Y-91424833D01*
X137324529Y-91438330D01*
X137324514Y-91438346D01*
X137312271Y-91454074D01*
X137305657Y-91461884D01*
X137241836Y-91531215D01*
X137190302Y-91610092D01*
X137184353Y-91618425D01*
X137172098Y-91634172D01*
X137172094Y-91634178D01*
X137162605Y-91651711D01*
X137157363Y-91660509D01*
X137105828Y-91739390D01*
X137067981Y-91825670D01*
X137063486Y-91834866D01*
X137053985Y-91852424D01*
X137047508Y-91871291D01*
X137043785Y-91880833D01*
X137005936Y-91967122D01*
X136982805Y-92058460D01*
X136979884Y-92068272D01*
X136973408Y-92087139D01*
X136970127Y-92106800D01*
X136968025Y-92116825D01*
X136944891Y-92208178D01*
X136944891Y-92208182D01*
X136937109Y-92302084D01*
X136935844Y-92312239D01*
X136932562Y-92331919D01*
X136932562Y-92351856D01*
X136932138Y-92362096D01*
X136924357Y-92455994D01*
X136924357Y-92456004D01*
X135430500Y-92456004D01*
X135430500Y-89580500D01*
X135450185Y-89513461D01*
X135502989Y-89467706D01*
X135554500Y-89456500D01*
X237805500Y-89456500D01*
X237872539Y-89476185D01*
G37*
%TD.AperFunction*%
%TD*%
M02*
