M48
; DRILL file {KiCad 7.0.10} date Mon May 27 10:21:47 2024
; FORMAT={-:-/ absolute / inch / decimal}
; #@! TF.CreationDate,2024-05-27T10:21:47-04:00
; #@! TF.GenerationSoftware,Kicad,Pcbnew,7.0.10
; #@! TF.FileFunction,Plated,1,2,PTH
FMAT,2
INCH
; #@! TA.AperFunction,Plated,PTH,ComponentDrill
T1C0.0130
; #@! TA.AperFunction,Plated,PTH,ViaDrill
T2C0.0157
; #@! TA.AperFunction,Plated,PTH,ComponentDrill
T3C0.0290
; #@! TA.AperFunction,Plated,PTH,ComponentDrill
T4C0.0299
; #@! TA.AperFunction,Plated,PTH,ComponentDrill
T5C0.0320
; #@! TA.AperFunction,Plated,PTH,ComponentDrill
T6C0.0394
; #@! TA.AperFunction,Plated,PTH,ComponentDrill
T7C0.0402
; #@! TA.AperFunction,Plated,PTH,ComponentDrill
T8C0.0551
%
G90
G05
T1
X6.6444Y-3.6588
X6.6444Y-3.71
X6.6444Y-3.7612
X6.6956Y-3.6588
X6.6956Y-3.71
X6.6956Y-3.7612
T2
X5.43Y-3.94
X5.82Y-6.3
X5.95Y-6.18
X6.04Y-6.46
X6.13Y-5.62
X6.16Y-6.33
X6.3Y-6.21
X6.45Y-6.4315
X6.58Y-6.33
X6.7047Y-4.8391
X6.71Y-6.32
X6.8Y-5.31
X6.86Y-6.4885
X6.8602Y-5.4098
X6.87Y-3.64
X6.87Y-3.74
X6.88Y-4.81
X6.89Y-6.35
X6.9Y-4.57
X7.03Y-6.39
X7.06Y-4.79
X7.1Y-4.92
X7.15Y-6.56
X7.17Y-6.36
X7.44Y-6.6
X7.45Y-6.36
X7.46Y-4.32
X7.76Y-6.04
T3
X8.0Y-5.0
X8.0Y-5.2791
X8.0Y-5.5791
X8.0Y-5.8791
X8.0Y-6.1791
X8.0Y-6.4791
X8.0591Y-5.0
X8.0591Y-5.2791
X8.0591Y-5.5791
X8.0591Y-5.8791
X8.0591Y-6.1791
X8.0591Y-6.4791
X8.3409Y-5.5
X8.3409Y-5.8
X8.3409Y-6.1
X8.3409Y-6.4
X8.4Y-5.5
X8.4Y-5.8
X8.4Y-6.1
X8.4Y-6.4
X8.6409Y-5.7
X8.7Y-5.7
T5
X7.4928Y-6.11
X7.5519Y-6.11
X7.6109Y-6.11
X7.67Y-6.11
T6
X6.77Y-6.08
X6.79Y-5.86
X6.87Y-6.08
X6.97Y-6.08
X7.07Y-6.08
X8.6508Y-6.1012
X8.6508Y-6.2012
X8.6508Y-6.3012
X8.6508Y-6.4012
X8.6508Y-6.5012
X8.7508Y-6.1012
X8.7508Y-6.2012
X8.7508Y-6.3012
X8.7508Y-6.4012
X8.7508Y-6.5012
X8.95Y-6.11
X8.95Y-6.21
X8.95Y-6.31
X8.95Y-6.41
X8.95Y-6.51
X9.05Y-6.11
X9.05Y-6.21
X9.05Y-6.31
X9.05Y-6.41
X9.05Y-6.51
T7
X5.4785Y-4.0799
X5.4785Y-4.1799
X5.4785Y-4.2799
X5.4785Y-4.3799
X5.4785Y-4.4799
X5.4785Y-4.5799
X5.4785Y-4.6799
X5.4785Y-4.7799
X5.4785Y-4.8799
X5.4785Y-4.9799
X5.4785Y-5.0799
X5.4785Y-5.1799
X5.4785Y-5.2799
X5.4785Y-5.3799
X5.4785Y-5.4799
X5.4785Y-5.5799
X5.4785Y-5.6799
X5.4785Y-5.7799
X5.4785Y-5.8799
X5.4785Y-5.9799
X5.4785Y-6.0799
X5.4785Y-6.1799
X6.3785Y-4.0799
X6.3785Y-4.1799
X6.3785Y-4.2799
X6.3785Y-4.3799
X6.3785Y-4.4799
X6.3785Y-4.5799
X6.3785Y-4.6799
X6.3785Y-4.7799
X6.3785Y-4.8799
X6.3785Y-4.9799
X6.3785Y-5.0799
X6.3785Y-5.1799
X6.3785Y-5.2799
X6.3785Y-5.3799
X6.3785Y-5.4799
X6.3785Y-5.5799
X6.3785Y-5.6799
X6.3785Y-5.7799
X6.3785Y-5.8799
X6.3785Y-5.9799
X6.3785Y-6.0799
X6.3785Y-6.1799
T8
X7.1231Y-3.83
X7.32Y-3.83
T4
G00X8.731Y-3.813
M15
G01X8.731Y-3.7229
M16
G05
G00X8.9651Y-3.64
M15
G01X8.8749Y-3.64
M16
G05
T7
G00X8.97Y-3.8861
M15
G01X8.87Y-3.8861
M16
G05
M30
