%TF.GenerationSoftware,KiCad,Pcbnew,7.0.10*%
%TF.CreationDate,2024-05-27T10:21:38-04:00*%
%TF.ProjectId,Scout_Board,53636f75-745f-4426-9f61-72642e6b6963,rev?*%
%TF.SameCoordinates,Original*%
%TF.FileFunction,Legend,Top*%
%TF.FilePolarity,Positive*%
%FSLAX46Y46*%
G04 Gerber Fmt 4.6, Leading zero omitted, Abs format (unit mm)*
G04 Created by KiCad (PCBNEW 7.0.10) date 2024-05-27 10:21:38*
%MOMM*%
%LPD*%
G01*
G04 APERTURE LIST*
%ADD10C,0.150000*%
%ADD11C,0.152400*%
%ADD12C,0.508000*%
%ADD13C,0.120000*%
%ADD14C,0.127000*%
%ADD15C,0.200000*%
%ADD16C,0.100000*%
G04 APERTURE END LIST*
D10*
X179808571Y-110678119D02*
X179808571Y-109678119D01*
X179808571Y-109678119D02*
X180141904Y-110392404D01*
X180141904Y-110392404D02*
X180475237Y-109678119D01*
X180475237Y-109678119D02*
X180475237Y-110678119D01*
X181141904Y-109678119D02*
X181332380Y-109678119D01*
X181332380Y-109678119D02*
X181427618Y-109725738D01*
X181427618Y-109725738D02*
X181522856Y-109820976D01*
X181522856Y-109820976D02*
X181570475Y-110011452D01*
X181570475Y-110011452D02*
X181570475Y-110344785D01*
X181570475Y-110344785D02*
X181522856Y-110535261D01*
X181522856Y-110535261D02*
X181427618Y-110630500D01*
X181427618Y-110630500D02*
X181332380Y-110678119D01*
X181332380Y-110678119D02*
X181141904Y-110678119D01*
X181141904Y-110678119D02*
X181046666Y-110630500D01*
X181046666Y-110630500D02*
X180951428Y-110535261D01*
X180951428Y-110535261D02*
X180903809Y-110344785D01*
X180903809Y-110344785D02*
X180903809Y-110011452D01*
X180903809Y-110011452D02*
X180951428Y-109820976D01*
X180951428Y-109820976D02*
X181046666Y-109725738D01*
X181046666Y-109725738D02*
X181141904Y-109678119D01*
X181951428Y-110630500D02*
X182094285Y-110678119D01*
X182094285Y-110678119D02*
X182332380Y-110678119D01*
X182332380Y-110678119D02*
X182427618Y-110630500D01*
X182427618Y-110630500D02*
X182475237Y-110582880D01*
X182475237Y-110582880D02*
X182522856Y-110487642D01*
X182522856Y-110487642D02*
X182522856Y-110392404D01*
X182522856Y-110392404D02*
X182475237Y-110297166D01*
X182475237Y-110297166D02*
X182427618Y-110249547D01*
X182427618Y-110249547D02*
X182332380Y-110201928D01*
X182332380Y-110201928D02*
X182141904Y-110154309D01*
X182141904Y-110154309D02*
X182046666Y-110106690D01*
X182046666Y-110106690D02*
X181999047Y-110059071D01*
X181999047Y-110059071D02*
X181951428Y-109963833D01*
X181951428Y-109963833D02*
X181951428Y-109868595D01*
X181951428Y-109868595D02*
X181999047Y-109773357D01*
X181999047Y-109773357D02*
X182046666Y-109725738D01*
X182046666Y-109725738D02*
X182141904Y-109678119D01*
X182141904Y-109678119D02*
X182379999Y-109678119D01*
X182379999Y-109678119D02*
X182522856Y-109725738D01*
X183284761Y-110154309D02*
X182951428Y-110154309D01*
X182951428Y-110678119D02*
X182951428Y-109678119D01*
X182951428Y-109678119D02*
X183427618Y-109678119D01*
X183808571Y-110154309D02*
X184141904Y-110154309D01*
X184284761Y-110678119D02*
X183808571Y-110678119D01*
X183808571Y-110678119D02*
X183808571Y-109678119D01*
X183808571Y-109678119D02*
X184284761Y-109678119D01*
X184570476Y-109678119D02*
X185141904Y-109678119D01*
X184856190Y-110678119D02*
X184856190Y-109678119D01*
X185999047Y-110678119D02*
X185427619Y-110678119D01*
X185713333Y-110678119D02*
X185713333Y-109678119D01*
X185713333Y-109678119D02*
X185618095Y-109820976D01*
X185618095Y-109820976D02*
X185522857Y-109916214D01*
X185522857Y-109916214D02*
X185427619Y-109963833D01*
X179070000Y-117679119D02*
X179070000Y-117917214D01*
X178831905Y-117821976D02*
X179070000Y-117917214D01*
X179070000Y-117917214D02*
X179308095Y-117821976D01*
X178927143Y-118107690D02*
X179070000Y-117917214D01*
X179070000Y-117917214D02*
X179212857Y-118107690D01*
X179070000Y-117679119D02*
X179070000Y-117917214D01*
X178831905Y-117821976D02*
X179070000Y-117917214D01*
X179070000Y-117917214D02*
X179308095Y-117821976D01*
X178927143Y-118107690D02*
X179070000Y-117917214D01*
X179070000Y-117917214D02*
X179212857Y-118107690D01*
X210609998Y-147679580D02*
X210562379Y-147727200D01*
X210562379Y-147727200D02*
X210419522Y-147774819D01*
X210419522Y-147774819D02*
X210324284Y-147774819D01*
X210324284Y-147774819D02*
X210181427Y-147727200D01*
X210181427Y-147727200D02*
X210086189Y-147631961D01*
X210086189Y-147631961D02*
X210038570Y-147536723D01*
X210038570Y-147536723D02*
X209990951Y-147346247D01*
X209990951Y-147346247D02*
X209990951Y-147203390D01*
X209990951Y-147203390D02*
X210038570Y-147012914D01*
X210038570Y-147012914D02*
X210086189Y-146917676D01*
X210086189Y-146917676D02*
X210181427Y-146822438D01*
X210181427Y-146822438D02*
X210324284Y-146774819D01*
X210324284Y-146774819D02*
X210419522Y-146774819D01*
X210419522Y-146774819D02*
X210562379Y-146822438D01*
X210562379Y-146822438D02*
X210609998Y-146870057D01*
X211181427Y-147774819D02*
X211086189Y-147727200D01*
X211086189Y-147727200D02*
X211038570Y-147679580D01*
X211038570Y-147679580D02*
X210990951Y-147584342D01*
X210990951Y-147584342D02*
X210990951Y-147298628D01*
X210990951Y-147298628D02*
X211038570Y-147203390D01*
X211038570Y-147203390D02*
X211086189Y-147155771D01*
X211086189Y-147155771D02*
X211181427Y-147108152D01*
X211181427Y-147108152D02*
X211324284Y-147108152D01*
X211324284Y-147108152D02*
X211419522Y-147155771D01*
X211419522Y-147155771D02*
X211467141Y-147203390D01*
X211467141Y-147203390D02*
X211514760Y-147298628D01*
X211514760Y-147298628D02*
X211514760Y-147584342D01*
X211514760Y-147584342D02*
X211467141Y-147679580D01*
X211467141Y-147679580D02*
X211419522Y-147727200D01*
X211419522Y-147727200D02*
X211324284Y-147774819D01*
X211324284Y-147774819D02*
X211181427Y-147774819D01*
X211943332Y-147108152D02*
X211943332Y-147774819D01*
X211943332Y-147203390D02*
X211990951Y-147155771D01*
X211990951Y-147155771D02*
X212086189Y-147108152D01*
X212086189Y-147108152D02*
X212229046Y-147108152D01*
X212229046Y-147108152D02*
X212324284Y-147155771D01*
X212324284Y-147155771D02*
X212371903Y-147251009D01*
X212371903Y-147251009D02*
X212371903Y-147774819D01*
X212848094Y-147108152D02*
X212848094Y-147774819D01*
X212848094Y-147203390D02*
X212895713Y-147155771D01*
X212895713Y-147155771D02*
X212990951Y-147108152D01*
X212990951Y-147108152D02*
X213133808Y-147108152D01*
X213133808Y-147108152D02*
X213229046Y-147155771D01*
X213229046Y-147155771D02*
X213276665Y-147251009D01*
X213276665Y-147251009D02*
X213276665Y-147774819D01*
X214276665Y-147774819D02*
X213705237Y-147774819D01*
X213990951Y-147774819D02*
X213990951Y-146774819D01*
X213990951Y-146774819D02*
X213895713Y-146917676D01*
X213895713Y-146917676D02*
X213800475Y-147012914D01*
X213800475Y-147012914D02*
X213705237Y-147060533D01*
X215229046Y-147774819D02*
X214657618Y-147774819D01*
X214943332Y-147774819D02*
X214943332Y-146774819D01*
X214943332Y-146774819D02*
X214848094Y-146917676D01*
X214848094Y-146917676D02*
X214752856Y-147012914D01*
X214752856Y-147012914D02*
X214657618Y-147060533D01*
X210276665Y-149791009D02*
X210419522Y-149838628D01*
X210419522Y-149838628D02*
X210467141Y-149886247D01*
X210467141Y-149886247D02*
X210514760Y-149981485D01*
X210514760Y-149981485D02*
X210514760Y-150124342D01*
X210514760Y-150124342D02*
X210467141Y-150219580D01*
X210467141Y-150219580D02*
X210419522Y-150267200D01*
X210419522Y-150267200D02*
X210324284Y-150314819D01*
X210324284Y-150314819D02*
X209943332Y-150314819D01*
X209943332Y-150314819D02*
X209943332Y-149314819D01*
X209943332Y-149314819D02*
X210276665Y-149314819D01*
X210276665Y-149314819D02*
X210371903Y-149362438D01*
X210371903Y-149362438D02*
X210419522Y-149410057D01*
X210419522Y-149410057D02*
X210467141Y-149505295D01*
X210467141Y-149505295D02*
X210467141Y-149600533D01*
X210467141Y-149600533D02*
X210419522Y-149695771D01*
X210419522Y-149695771D02*
X210371903Y-149743390D01*
X210371903Y-149743390D02*
X210276665Y-149791009D01*
X210276665Y-149791009D02*
X209943332Y-149791009D01*
X211371903Y-149648152D02*
X211371903Y-150314819D01*
X210943332Y-149648152D02*
X210943332Y-150171961D01*
X210943332Y-150171961D02*
X210990951Y-150267200D01*
X210990951Y-150267200D02*
X211086189Y-150314819D01*
X211086189Y-150314819D02*
X211229046Y-150314819D01*
X211229046Y-150314819D02*
X211324284Y-150267200D01*
X211324284Y-150267200D02*
X211371903Y-150219580D01*
X211705237Y-149648152D02*
X212086189Y-149648152D01*
X211848094Y-149314819D02*
X211848094Y-150171961D01*
X211848094Y-150171961D02*
X211895713Y-150267200D01*
X211895713Y-150267200D02*
X211990951Y-150314819D01*
X211990951Y-150314819D02*
X212086189Y-150314819D01*
X212276666Y-149648152D02*
X212657618Y-149648152D01*
X212419523Y-149314819D02*
X212419523Y-150171961D01*
X212419523Y-150171961D02*
X212467142Y-150267200D01*
X212467142Y-150267200D02*
X212562380Y-150314819D01*
X212562380Y-150314819D02*
X212657618Y-150314819D01*
X213133809Y-150314819D02*
X213038571Y-150267200D01*
X213038571Y-150267200D02*
X212990952Y-150219580D01*
X212990952Y-150219580D02*
X212943333Y-150124342D01*
X212943333Y-150124342D02*
X212943333Y-149838628D01*
X212943333Y-149838628D02*
X212990952Y-149743390D01*
X212990952Y-149743390D02*
X213038571Y-149695771D01*
X213038571Y-149695771D02*
X213133809Y-149648152D01*
X213133809Y-149648152D02*
X213276666Y-149648152D01*
X213276666Y-149648152D02*
X213371904Y-149695771D01*
X213371904Y-149695771D02*
X213419523Y-149743390D01*
X213419523Y-149743390D02*
X213467142Y-149838628D01*
X213467142Y-149838628D02*
X213467142Y-150124342D01*
X213467142Y-150124342D02*
X213419523Y-150219580D01*
X213419523Y-150219580D02*
X213371904Y-150267200D01*
X213371904Y-150267200D02*
X213276666Y-150314819D01*
X213276666Y-150314819D02*
X213133809Y-150314819D01*
X213895714Y-149648152D02*
X213895714Y-150314819D01*
X213895714Y-149743390D02*
X213943333Y-149695771D01*
X213943333Y-149695771D02*
X214038571Y-149648152D01*
X214038571Y-149648152D02*
X214181428Y-149648152D01*
X214181428Y-149648152D02*
X214276666Y-149695771D01*
X214276666Y-149695771D02*
X214324285Y-149791009D01*
X214324285Y-149791009D02*
X214324285Y-150314819D01*
X215276666Y-149314819D02*
X214800476Y-149314819D01*
X214800476Y-149314819D02*
X214752857Y-149791009D01*
X214752857Y-149791009D02*
X214800476Y-149743390D01*
X214800476Y-149743390D02*
X214895714Y-149695771D01*
X214895714Y-149695771D02*
X215133809Y-149695771D01*
X215133809Y-149695771D02*
X215229047Y-149743390D01*
X215229047Y-149743390D02*
X215276666Y-149791009D01*
X215276666Y-149791009D02*
X215324285Y-149886247D01*
X215324285Y-149886247D02*
X215324285Y-150124342D01*
X215324285Y-150124342D02*
X215276666Y-150219580D01*
X215276666Y-150219580D02*
X215229047Y-150267200D01*
X215229047Y-150267200D02*
X215133809Y-150314819D01*
X215133809Y-150314819D02*
X214895714Y-150314819D01*
X214895714Y-150314819D02*
X214800476Y-150267200D01*
X214800476Y-150267200D02*
X214752857Y-150219580D01*
X222420819Y-127761904D02*
X223230342Y-127761904D01*
X223230342Y-127761904D02*
X223325580Y-127714285D01*
X223325580Y-127714285D02*
X223373200Y-127666666D01*
X223373200Y-127666666D02*
X223420819Y-127571428D01*
X223420819Y-127571428D02*
X223420819Y-127380952D01*
X223420819Y-127380952D02*
X223373200Y-127285714D01*
X223373200Y-127285714D02*
X223325580Y-127238095D01*
X223325580Y-127238095D02*
X223230342Y-127190476D01*
X223230342Y-127190476D02*
X222420819Y-127190476D01*
X222754152Y-126285714D02*
X223420819Y-126285714D01*
X222373200Y-126523809D02*
X223087485Y-126761904D01*
X223087485Y-126761904D02*
X223087485Y-126142857D01*
X191178819Y-98551904D02*
X191988342Y-98551904D01*
X191988342Y-98551904D02*
X192083580Y-98504285D01*
X192083580Y-98504285D02*
X192131200Y-98456666D01*
X192131200Y-98456666D02*
X192178819Y-98361428D01*
X192178819Y-98361428D02*
X192178819Y-98170952D01*
X192178819Y-98170952D02*
X192131200Y-98075714D01*
X192131200Y-98075714D02*
X192083580Y-98028095D01*
X192083580Y-98028095D02*
X191988342Y-97980476D01*
X191988342Y-97980476D02*
X191178819Y-97980476D01*
X191178819Y-97599523D02*
X191178819Y-96980476D01*
X191178819Y-96980476D02*
X191559771Y-97313809D01*
X191559771Y-97313809D02*
X191559771Y-97170952D01*
X191559771Y-97170952D02*
X191607390Y-97075714D01*
X191607390Y-97075714D02*
X191655009Y-97028095D01*
X191655009Y-97028095D02*
X191750247Y-96980476D01*
X191750247Y-96980476D02*
X191988342Y-96980476D01*
X191988342Y-96980476D02*
X192083580Y-97028095D01*
X192083580Y-97028095D02*
X192131200Y-97075714D01*
X192131200Y-97075714D02*
X192178819Y-97170952D01*
X192178819Y-97170952D02*
X192178819Y-97456666D01*
X192178819Y-97456666D02*
X192131200Y-97551904D01*
X192131200Y-97551904D02*
X192083580Y-97599523D01*
X188254819Y-119038666D02*
X187778628Y-119371999D01*
X188254819Y-119610094D02*
X187254819Y-119610094D01*
X187254819Y-119610094D02*
X187254819Y-119229142D01*
X187254819Y-119229142D02*
X187302438Y-119133904D01*
X187302438Y-119133904D02*
X187350057Y-119086285D01*
X187350057Y-119086285D02*
X187445295Y-119038666D01*
X187445295Y-119038666D02*
X187588152Y-119038666D01*
X187588152Y-119038666D02*
X187683390Y-119086285D01*
X187683390Y-119086285D02*
X187731009Y-119133904D01*
X187731009Y-119133904D02*
X187778628Y-119229142D01*
X187778628Y-119229142D02*
X187778628Y-119610094D01*
X187254819Y-118133904D02*
X187254819Y-118610094D01*
X187254819Y-118610094D02*
X187731009Y-118657713D01*
X187731009Y-118657713D02*
X187683390Y-118610094D01*
X187683390Y-118610094D02*
X187635771Y-118514856D01*
X187635771Y-118514856D02*
X187635771Y-118276761D01*
X187635771Y-118276761D02*
X187683390Y-118181523D01*
X187683390Y-118181523D02*
X187731009Y-118133904D01*
X187731009Y-118133904D02*
X187826247Y-118086285D01*
X187826247Y-118086285D02*
X188064342Y-118086285D01*
X188064342Y-118086285D02*
X188159580Y-118133904D01*
X188159580Y-118133904D02*
X188207200Y-118181523D01*
X188207200Y-118181523D02*
X188254819Y-118276761D01*
X188254819Y-118276761D02*
X188254819Y-118514856D01*
X188254819Y-118514856D02*
X188207200Y-118610094D01*
X188207200Y-118610094D02*
X188159580Y-118657713D01*
X210609998Y-140059580D02*
X210562379Y-140107200D01*
X210562379Y-140107200D02*
X210419522Y-140154819D01*
X210419522Y-140154819D02*
X210324284Y-140154819D01*
X210324284Y-140154819D02*
X210181427Y-140107200D01*
X210181427Y-140107200D02*
X210086189Y-140011961D01*
X210086189Y-140011961D02*
X210038570Y-139916723D01*
X210038570Y-139916723D02*
X209990951Y-139726247D01*
X209990951Y-139726247D02*
X209990951Y-139583390D01*
X209990951Y-139583390D02*
X210038570Y-139392914D01*
X210038570Y-139392914D02*
X210086189Y-139297676D01*
X210086189Y-139297676D02*
X210181427Y-139202438D01*
X210181427Y-139202438D02*
X210324284Y-139154819D01*
X210324284Y-139154819D02*
X210419522Y-139154819D01*
X210419522Y-139154819D02*
X210562379Y-139202438D01*
X210562379Y-139202438D02*
X210609998Y-139250057D01*
X211181427Y-140154819D02*
X211086189Y-140107200D01*
X211086189Y-140107200D02*
X211038570Y-140059580D01*
X211038570Y-140059580D02*
X210990951Y-139964342D01*
X210990951Y-139964342D02*
X210990951Y-139678628D01*
X210990951Y-139678628D02*
X211038570Y-139583390D01*
X211038570Y-139583390D02*
X211086189Y-139535771D01*
X211086189Y-139535771D02*
X211181427Y-139488152D01*
X211181427Y-139488152D02*
X211324284Y-139488152D01*
X211324284Y-139488152D02*
X211419522Y-139535771D01*
X211419522Y-139535771D02*
X211467141Y-139583390D01*
X211467141Y-139583390D02*
X211514760Y-139678628D01*
X211514760Y-139678628D02*
X211514760Y-139964342D01*
X211514760Y-139964342D02*
X211467141Y-140059580D01*
X211467141Y-140059580D02*
X211419522Y-140107200D01*
X211419522Y-140107200D02*
X211324284Y-140154819D01*
X211324284Y-140154819D02*
X211181427Y-140154819D01*
X211943332Y-139488152D02*
X211943332Y-140154819D01*
X211943332Y-139583390D02*
X211990951Y-139535771D01*
X211990951Y-139535771D02*
X212086189Y-139488152D01*
X212086189Y-139488152D02*
X212229046Y-139488152D01*
X212229046Y-139488152D02*
X212324284Y-139535771D01*
X212324284Y-139535771D02*
X212371903Y-139631009D01*
X212371903Y-139631009D02*
X212371903Y-140154819D01*
X212848094Y-139488152D02*
X212848094Y-140154819D01*
X212848094Y-139583390D02*
X212895713Y-139535771D01*
X212895713Y-139535771D02*
X212990951Y-139488152D01*
X212990951Y-139488152D02*
X213133808Y-139488152D01*
X213133808Y-139488152D02*
X213229046Y-139535771D01*
X213229046Y-139535771D02*
X213276665Y-139631009D01*
X213276665Y-139631009D02*
X213276665Y-140154819D01*
X214276665Y-140154819D02*
X213705237Y-140154819D01*
X213990951Y-140154819D02*
X213990951Y-139154819D01*
X213990951Y-139154819D02*
X213895713Y-139297676D01*
X213895713Y-139297676D02*
X213800475Y-139392914D01*
X213800475Y-139392914D02*
X213705237Y-139440533D01*
X214657618Y-139250057D02*
X214705237Y-139202438D01*
X214705237Y-139202438D02*
X214800475Y-139154819D01*
X214800475Y-139154819D02*
X215038570Y-139154819D01*
X215038570Y-139154819D02*
X215133808Y-139202438D01*
X215133808Y-139202438D02*
X215181427Y-139250057D01*
X215181427Y-139250057D02*
X215229046Y-139345295D01*
X215229046Y-139345295D02*
X215229046Y-139440533D01*
X215229046Y-139440533D02*
X215181427Y-139583390D01*
X215181427Y-139583390D02*
X214609999Y-140154819D01*
X214609999Y-140154819D02*
X215229046Y-140154819D01*
X210276665Y-142171009D02*
X210419522Y-142218628D01*
X210419522Y-142218628D02*
X210467141Y-142266247D01*
X210467141Y-142266247D02*
X210514760Y-142361485D01*
X210514760Y-142361485D02*
X210514760Y-142504342D01*
X210514760Y-142504342D02*
X210467141Y-142599580D01*
X210467141Y-142599580D02*
X210419522Y-142647200D01*
X210419522Y-142647200D02*
X210324284Y-142694819D01*
X210324284Y-142694819D02*
X209943332Y-142694819D01*
X209943332Y-142694819D02*
X209943332Y-141694819D01*
X209943332Y-141694819D02*
X210276665Y-141694819D01*
X210276665Y-141694819D02*
X210371903Y-141742438D01*
X210371903Y-141742438D02*
X210419522Y-141790057D01*
X210419522Y-141790057D02*
X210467141Y-141885295D01*
X210467141Y-141885295D02*
X210467141Y-141980533D01*
X210467141Y-141980533D02*
X210419522Y-142075771D01*
X210419522Y-142075771D02*
X210371903Y-142123390D01*
X210371903Y-142123390D02*
X210276665Y-142171009D01*
X210276665Y-142171009D02*
X209943332Y-142171009D01*
X211371903Y-142028152D02*
X211371903Y-142694819D01*
X210943332Y-142028152D02*
X210943332Y-142551961D01*
X210943332Y-142551961D02*
X210990951Y-142647200D01*
X210990951Y-142647200D02*
X211086189Y-142694819D01*
X211086189Y-142694819D02*
X211229046Y-142694819D01*
X211229046Y-142694819D02*
X211324284Y-142647200D01*
X211324284Y-142647200D02*
X211371903Y-142599580D01*
X211705237Y-142028152D02*
X212086189Y-142028152D01*
X211848094Y-141694819D02*
X211848094Y-142551961D01*
X211848094Y-142551961D02*
X211895713Y-142647200D01*
X211895713Y-142647200D02*
X211990951Y-142694819D01*
X211990951Y-142694819D02*
X212086189Y-142694819D01*
X212276666Y-142028152D02*
X212657618Y-142028152D01*
X212419523Y-141694819D02*
X212419523Y-142551961D01*
X212419523Y-142551961D02*
X212467142Y-142647200D01*
X212467142Y-142647200D02*
X212562380Y-142694819D01*
X212562380Y-142694819D02*
X212657618Y-142694819D01*
X213133809Y-142694819D02*
X213038571Y-142647200D01*
X213038571Y-142647200D02*
X212990952Y-142599580D01*
X212990952Y-142599580D02*
X212943333Y-142504342D01*
X212943333Y-142504342D02*
X212943333Y-142218628D01*
X212943333Y-142218628D02*
X212990952Y-142123390D01*
X212990952Y-142123390D02*
X213038571Y-142075771D01*
X213038571Y-142075771D02*
X213133809Y-142028152D01*
X213133809Y-142028152D02*
X213276666Y-142028152D01*
X213276666Y-142028152D02*
X213371904Y-142075771D01*
X213371904Y-142075771D02*
X213419523Y-142123390D01*
X213419523Y-142123390D02*
X213467142Y-142218628D01*
X213467142Y-142218628D02*
X213467142Y-142504342D01*
X213467142Y-142504342D02*
X213419523Y-142599580D01*
X213419523Y-142599580D02*
X213371904Y-142647200D01*
X213371904Y-142647200D02*
X213276666Y-142694819D01*
X213276666Y-142694819D02*
X213133809Y-142694819D01*
X213895714Y-142028152D02*
X213895714Y-142694819D01*
X213895714Y-142123390D02*
X213943333Y-142075771D01*
X213943333Y-142075771D02*
X214038571Y-142028152D01*
X214038571Y-142028152D02*
X214181428Y-142028152D01*
X214181428Y-142028152D02*
X214276666Y-142075771D01*
X214276666Y-142075771D02*
X214324285Y-142171009D01*
X214324285Y-142171009D02*
X214324285Y-142694819D01*
X215229047Y-141694819D02*
X215038571Y-141694819D01*
X215038571Y-141694819D02*
X214943333Y-141742438D01*
X214943333Y-141742438D02*
X214895714Y-141790057D01*
X214895714Y-141790057D02*
X214800476Y-141932914D01*
X214800476Y-141932914D02*
X214752857Y-142123390D01*
X214752857Y-142123390D02*
X214752857Y-142504342D01*
X214752857Y-142504342D02*
X214800476Y-142599580D01*
X214800476Y-142599580D02*
X214848095Y-142647200D01*
X214848095Y-142647200D02*
X214943333Y-142694819D01*
X214943333Y-142694819D02*
X215133809Y-142694819D01*
X215133809Y-142694819D02*
X215229047Y-142647200D01*
X215229047Y-142647200D02*
X215276666Y-142599580D01*
X215276666Y-142599580D02*
X215324285Y-142504342D01*
X215324285Y-142504342D02*
X215324285Y-142266247D01*
X215324285Y-142266247D02*
X215276666Y-142171009D01*
X215276666Y-142171009D02*
X215229047Y-142123390D01*
X215229047Y-142123390D02*
X215133809Y-142075771D01*
X215133809Y-142075771D02*
X214943333Y-142075771D01*
X214943333Y-142075771D02*
X214848095Y-142123390D01*
X214848095Y-142123390D02*
X214800476Y-142171009D01*
X214800476Y-142171009D02*
X214752857Y-142266247D01*
X218781333Y-149458819D02*
X218448000Y-148982628D01*
X218209905Y-149458819D02*
X218209905Y-148458819D01*
X218209905Y-148458819D02*
X218590857Y-148458819D01*
X218590857Y-148458819D02*
X218686095Y-148506438D01*
X218686095Y-148506438D02*
X218733714Y-148554057D01*
X218733714Y-148554057D02*
X218781333Y-148649295D01*
X218781333Y-148649295D02*
X218781333Y-148792152D01*
X218781333Y-148792152D02*
X218733714Y-148887390D01*
X218733714Y-148887390D02*
X218686095Y-148935009D01*
X218686095Y-148935009D02*
X218590857Y-148982628D01*
X218590857Y-148982628D02*
X218209905Y-148982628D01*
X219114667Y-148458819D02*
X219781333Y-148458819D01*
X219781333Y-148458819D02*
X219352762Y-149458819D01*
X220666666Y-151654819D02*
X220666666Y-152369104D01*
X220666666Y-152369104D02*
X220619047Y-152511961D01*
X220619047Y-152511961D02*
X220523809Y-152607200D01*
X220523809Y-152607200D02*
X220380952Y-152654819D01*
X220380952Y-152654819D02*
X220285714Y-152654819D01*
X221571428Y-151654819D02*
X221380952Y-151654819D01*
X221380952Y-151654819D02*
X221285714Y-151702438D01*
X221285714Y-151702438D02*
X221238095Y-151750057D01*
X221238095Y-151750057D02*
X221142857Y-151892914D01*
X221142857Y-151892914D02*
X221095238Y-152083390D01*
X221095238Y-152083390D02*
X221095238Y-152464342D01*
X221095238Y-152464342D02*
X221142857Y-152559580D01*
X221142857Y-152559580D02*
X221190476Y-152607200D01*
X221190476Y-152607200D02*
X221285714Y-152654819D01*
X221285714Y-152654819D02*
X221476190Y-152654819D01*
X221476190Y-152654819D02*
X221571428Y-152607200D01*
X221571428Y-152607200D02*
X221619047Y-152559580D01*
X221619047Y-152559580D02*
X221666666Y-152464342D01*
X221666666Y-152464342D02*
X221666666Y-152226247D01*
X221666666Y-152226247D02*
X221619047Y-152131009D01*
X221619047Y-152131009D02*
X221571428Y-152083390D01*
X221571428Y-152083390D02*
X221476190Y-152035771D01*
X221476190Y-152035771D02*
X221285714Y-152035771D01*
X221285714Y-152035771D02*
X221190476Y-152083390D01*
X221190476Y-152083390D02*
X221142857Y-152131009D01*
X221142857Y-152131009D02*
X221095238Y-152226247D01*
X175366819Y-123324857D02*
X174890628Y-123658190D01*
X175366819Y-123896285D02*
X174366819Y-123896285D01*
X174366819Y-123896285D02*
X174366819Y-123515333D01*
X174366819Y-123515333D02*
X174414438Y-123420095D01*
X174414438Y-123420095D02*
X174462057Y-123372476D01*
X174462057Y-123372476D02*
X174557295Y-123324857D01*
X174557295Y-123324857D02*
X174700152Y-123324857D01*
X174700152Y-123324857D02*
X174795390Y-123372476D01*
X174795390Y-123372476D02*
X174843009Y-123420095D01*
X174843009Y-123420095D02*
X174890628Y-123515333D01*
X174890628Y-123515333D02*
X174890628Y-123896285D01*
X175366819Y-122372476D02*
X175366819Y-122943904D01*
X175366819Y-122658190D02*
X174366819Y-122658190D01*
X174366819Y-122658190D02*
X174509676Y-122753428D01*
X174509676Y-122753428D02*
X174604914Y-122848666D01*
X174604914Y-122848666D02*
X174652533Y-122943904D01*
X174366819Y-121753428D02*
X174366819Y-121658190D01*
X174366819Y-121658190D02*
X174414438Y-121562952D01*
X174414438Y-121562952D02*
X174462057Y-121515333D01*
X174462057Y-121515333D02*
X174557295Y-121467714D01*
X174557295Y-121467714D02*
X174747771Y-121420095D01*
X174747771Y-121420095D02*
X174985866Y-121420095D01*
X174985866Y-121420095D02*
X175176342Y-121467714D01*
X175176342Y-121467714D02*
X175271580Y-121515333D01*
X175271580Y-121515333D02*
X175319200Y-121562952D01*
X175319200Y-121562952D02*
X175366819Y-121658190D01*
X175366819Y-121658190D02*
X175366819Y-121753428D01*
X175366819Y-121753428D02*
X175319200Y-121848666D01*
X175319200Y-121848666D02*
X175271580Y-121896285D01*
X175271580Y-121896285D02*
X175176342Y-121943904D01*
X175176342Y-121943904D02*
X174985866Y-121991523D01*
X174985866Y-121991523D02*
X174747771Y-121991523D01*
X174747771Y-121991523D02*
X174557295Y-121943904D01*
X174557295Y-121943904D02*
X174462057Y-121896285D01*
X174462057Y-121896285D02*
X174414438Y-121848666D01*
X174414438Y-121848666D02*
X174366819Y-121753428D01*
X159597595Y-159759819D02*
X159597595Y-160569342D01*
X159597595Y-160569342D02*
X159645214Y-160664580D01*
X159645214Y-160664580D02*
X159692833Y-160712200D01*
X159692833Y-160712200D02*
X159788071Y-160759819D01*
X159788071Y-160759819D02*
X159978547Y-160759819D01*
X159978547Y-160759819D02*
X160073785Y-160712200D01*
X160073785Y-160712200D02*
X160121404Y-160664580D01*
X160121404Y-160664580D02*
X160169023Y-160569342D01*
X160169023Y-160569342D02*
X160169023Y-159759819D01*
X160597595Y-159855057D02*
X160645214Y-159807438D01*
X160645214Y-159807438D02*
X160740452Y-159759819D01*
X160740452Y-159759819D02*
X160978547Y-159759819D01*
X160978547Y-159759819D02*
X161073785Y-159807438D01*
X161073785Y-159807438D02*
X161121404Y-159855057D01*
X161121404Y-159855057D02*
X161169023Y-159950295D01*
X161169023Y-159950295D02*
X161169023Y-160045533D01*
X161169023Y-160045533D02*
X161121404Y-160188390D01*
X161121404Y-160188390D02*
X160549976Y-160759819D01*
X160549976Y-160759819D02*
X161169023Y-160759819D01*
X207637142Y-150982819D02*
X207303809Y-150506628D01*
X207065714Y-150982819D02*
X207065714Y-149982819D01*
X207065714Y-149982819D02*
X207446666Y-149982819D01*
X207446666Y-149982819D02*
X207541904Y-150030438D01*
X207541904Y-150030438D02*
X207589523Y-150078057D01*
X207589523Y-150078057D02*
X207637142Y-150173295D01*
X207637142Y-150173295D02*
X207637142Y-150316152D01*
X207637142Y-150316152D02*
X207589523Y-150411390D01*
X207589523Y-150411390D02*
X207541904Y-150459009D01*
X207541904Y-150459009D02*
X207446666Y-150506628D01*
X207446666Y-150506628D02*
X207065714Y-150506628D01*
X208589523Y-150982819D02*
X208018095Y-150982819D01*
X208303809Y-150982819D02*
X208303809Y-149982819D01*
X208303809Y-149982819D02*
X208208571Y-150125676D01*
X208208571Y-150125676D02*
X208113333Y-150220914D01*
X208113333Y-150220914D02*
X208018095Y-150268533D01*
X209446666Y-150316152D02*
X209446666Y-150982819D01*
X209208571Y-149935200D02*
X208970476Y-150649485D01*
X208970476Y-150649485D02*
X209589523Y-150649485D01*
X228266666Y-151878819D02*
X228266666Y-152593104D01*
X228266666Y-152593104D02*
X228219047Y-152735961D01*
X228219047Y-152735961D02*
X228123809Y-152831200D01*
X228123809Y-152831200D02*
X227980952Y-152878819D01*
X227980952Y-152878819D02*
X227885714Y-152878819D01*
X229219047Y-151878819D02*
X228742857Y-151878819D01*
X228742857Y-151878819D02*
X228695238Y-152355009D01*
X228695238Y-152355009D02*
X228742857Y-152307390D01*
X228742857Y-152307390D02*
X228838095Y-152259771D01*
X228838095Y-152259771D02*
X229076190Y-152259771D01*
X229076190Y-152259771D02*
X229171428Y-152307390D01*
X229171428Y-152307390D02*
X229219047Y-152355009D01*
X229219047Y-152355009D02*
X229266666Y-152450247D01*
X229266666Y-152450247D02*
X229266666Y-152688342D01*
X229266666Y-152688342D02*
X229219047Y-152783580D01*
X229219047Y-152783580D02*
X229171428Y-152831200D01*
X229171428Y-152831200D02*
X229076190Y-152878819D01*
X229076190Y-152878819D02*
X228838095Y-152878819D01*
X228838095Y-152878819D02*
X228742857Y-152831200D01*
X228742857Y-152831200D02*
X228695238Y-152783580D01*
X210609998Y-155299580D02*
X210562379Y-155347200D01*
X210562379Y-155347200D02*
X210419522Y-155394819D01*
X210419522Y-155394819D02*
X210324284Y-155394819D01*
X210324284Y-155394819D02*
X210181427Y-155347200D01*
X210181427Y-155347200D02*
X210086189Y-155251961D01*
X210086189Y-155251961D02*
X210038570Y-155156723D01*
X210038570Y-155156723D02*
X209990951Y-154966247D01*
X209990951Y-154966247D02*
X209990951Y-154823390D01*
X209990951Y-154823390D02*
X210038570Y-154632914D01*
X210038570Y-154632914D02*
X210086189Y-154537676D01*
X210086189Y-154537676D02*
X210181427Y-154442438D01*
X210181427Y-154442438D02*
X210324284Y-154394819D01*
X210324284Y-154394819D02*
X210419522Y-154394819D01*
X210419522Y-154394819D02*
X210562379Y-154442438D01*
X210562379Y-154442438D02*
X210609998Y-154490057D01*
X211181427Y-155394819D02*
X211086189Y-155347200D01*
X211086189Y-155347200D02*
X211038570Y-155299580D01*
X211038570Y-155299580D02*
X210990951Y-155204342D01*
X210990951Y-155204342D02*
X210990951Y-154918628D01*
X210990951Y-154918628D02*
X211038570Y-154823390D01*
X211038570Y-154823390D02*
X211086189Y-154775771D01*
X211086189Y-154775771D02*
X211181427Y-154728152D01*
X211181427Y-154728152D02*
X211324284Y-154728152D01*
X211324284Y-154728152D02*
X211419522Y-154775771D01*
X211419522Y-154775771D02*
X211467141Y-154823390D01*
X211467141Y-154823390D02*
X211514760Y-154918628D01*
X211514760Y-154918628D02*
X211514760Y-155204342D01*
X211514760Y-155204342D02*
X211467141Y-155299580D01*
X211467141Y-155299580D02*
X211419522Y-155347200D01*
X211419522Y-155347200D02*
X211324284Y-155394819D01*
X211324284Y-155394819D02*
X211181427Y-155394819D01*
X211943332Y-154728152D02*
X211943332Y-155394819D01*
X211943332Y-154823390D02*
X211990951Y-154775771D01*
X211990951Y-154775771D02*
X212086189Y-154728152D01*
X212086189Y-154728152D02*
X212229046Y-154728152D01*
X212229046Y-154728152D02*
X212324284Y-154775771D01*
X212324284Y-154775771D02*
X212371903Y-154871009D01*
X212371903Y-154871009D02*
X212371903Y-155394819D01*
X212848094Y-154728152D02*
X212848094Y-155394819D01*
X212848094Y-154823390D02*
X212895713Y-154775771D01*
X212895713Y-154775771D02*
X212990951Y-154728152D01*
X212990951Y-154728152D02*
X213133808Y-154728152D01*
X213133808Y-154728152D02*
X213229046Y-154775771D01*
X213229046Y-154775771D02*
X213276665Y-154871009D01*
X213276665Y-154871009D02*
X213276665Y-155394819D01*
X214276665Y-155394819D02*
X213705237Y-155394819D01*
X213990951Y-155394819D02*
X213990951Y-154394819D01*
X213990951Y-154394819D02*
X213895713Y-154537676D01*
X213895713Y-154537676D02*
X213800475Y-154632914D01*
X213800475Y-154632914D02*
X213705237Y-154680533D01*
X214895713Y-154394819D02*
X214990951Y-154394819D01*
X214990951Y-154394819D02*
X215086189Y-154442438D01*
X215086189Y-154442438D02*
X215133808Y-154490057D01*
X215133808Y-154490057D02*
X215181427Y-154585295D01*
X215181427Y-154585295D02*
X215229046Y-154775771D01*
X215229046Y-154775771D02*
X215229046Y-155013866D01*
X215229046Y-155013866D02*
X215181427Y-155204342D01*
X215181427Y-155204342D02*
X215133808Y-155299580D01*
X215133808Y-155299580D02*
X215086189Y-155347200D01*
X215086189Y-155347200D02*
X214990951Y-155394819D01*
X214990951Y-155394819D02*
X214895713Y-155394819D01*
X214895713Y-155394819D02*
X214800475Y-155347200D01*
X214800475Y-155347200D02*
X214752856Y-155299580D01*
X214752856Y-155299580D02*
X214705237Y-155204342D01*
X214705237Y-155204342D02*
X214657618Y-155013866D01*
X214657618Y-155013866D02*
X214657618Y-154775771D01*
X214657618Y-154775771D02*
X214705237Y-154585295D01*
X214705237Y-154585295D02*
X214752856Y-154490057D01*
X214752856Y-154490057D02*
X214800475Y-154442438D01*
X214800475Y-154442438D02*
X214895713Y-154394819D01*
X210276665Y-157411009D02*
X210419522Y-157458628D01*
X210419522Y-157458628D02*
X210467141Y-157506247D01*
X210467141Y-157506247D02*
X210514760Y-157601485D01*
X210514760Y-157601485D02*
X210514760Y-157744342D01*
X210514760Y-157744342D02*
X210467141Y-157839580D01*
X210467141Y-157839580D02*
X210419522Y-157887200D01*
X210419522Y-157887200D02*
X210324284Y-157934819D01*
X210324284Y-157934819D02*
X209943332Y-157934819D01*
X209943332Y-157934819D02*
X209943332Y-156934819D01*
X209943332Y-156934819D02*
X210276665Y-156934819D01*
X210276665Y-156934819D02*
X210371903Y-156982438D01*
X210371903Y-156982438D02*
X210419522Y-157030057D01*
X210419522Y-157030057D02*
X210467141Y-157125295D01*
X210467141Y-157125295D02*
X210467141Y-157220533D01*
X210467141Y-157220533D02*
X210419522Y-157315771D01*
X210419522Y-157315771D02*
X210371903Y-157363390D01*
X210371903Y-157363390D02*
X210276665Y-157411009D01*
X210276665Y-157411009D02*
X209943332Y-157411009D01*
X211371903Y-157268152D02*
X211371903Y-157934819D01*
X210943332Y-157268152D02*
X210943332Y-157791961D01*
X210943332Y-157791961D02*
X210990951Y-157887200D01*
X210990951Y-157887200D02*
X211086189Y-157934819D01*
X211086189Y-157934819D02*
X211229046Y-157934819D01*
X211229046Y-157934819D02*
X211324284Y-157887200D01*
X211324284Y-157887200D02*
X211371903Y-157839580D01*
X211705237Y-157268152D02*
X212086189Y-157268152D01*
X211848094Y-156934819D02*
X211848094Y-157791961D01*
X211848094Y-157791961D02*
X211895713Y-157887200D01*
X211895713Y-157887200D02*
X211990951Y-157934819D01*
X211990951Y-157934819D02*
X212086189Y-157934819D01*
X212276666Y-157268152D02*
X212657618Y-157268152D01*
X212419523Y-156934819D02*
X212419523Y-157791961D01*
X212419523Y-157791961D02*
X212467142Y-157887200D01*
X212467142Y-157887200D02*
X212562380Y-157934819D01*
X212562380Y-157934819D02*
X212657618Y-157934819D01*
X213133809Y-157934819D02*
X213038571Y-157887200D01*
X213038571Y-157887200D02*
X212990952Y-157839580D01*
X212990952Y-157839580D02*
X212943333Y-157744342D01*
X212943333Y-157744342D02*
X212943333Y-157458628D01*
X212943333Y-157458628D02*
X212990952Y-157363390D01*
X212990952Y-157363390D02*
X213038571Y-157315771D01*
X213038571Y-157315771D02*
X213133809Y-157268152D01*
X213133809Y-157268152D02*
X213276666Y-157268152D01*
X213276666Y-157268152D02*
X213371904Y-157315771D01*
X213371904Y-157315771D02*
X213419523Y-157363390D01*
X213419523Y-157363390D02*
X213467142Y-157458628D01*
X213467142Y-157458628D02*
X213467142Y-157744342D01*
X213467142Y-157744342D02*
X213419523Y-157839580D01*
X213419523Y-157839580D02*
X213371904Y-157887200D01*
X213371904Y-157887200D02*
X213276666Y-157934819D01*
X213276666Y-157934819D02*
X213133809Y-157934819D01*
X213895714Y-157268152D02*
X213895714Y-157934819D01*
X213895714Y-157363390D02*
X213943333Y-157315771D01*
X213943333Y-157315771D02*
X214038571Y-157268152D01*
X214038571Y-157268152D02*
X214181428Y-157268152D01*
X214181428Y-157268152D02*
X214276666Y-157315771D01*
X214276666Y-157315771D02*
X214324285Y-157411009D01*
X214324285Y-157411009D02*
X214324285Y-157934819D01*
X215229047Y-157268152D02*
X215229047Y-157934819D01*
X214990952Y-156887200D02*
X214752857Y-157601485D01*
X214752857Y-157601485D02*
X215371904Y-157601485D01*
X202426190Y-134447581D02*
X202378571Y-134495201D01*
X202378571Y-134495201D02*
X202235714Y-134542820D01*
X202235714Y-134542820D02*
X202140476Y-134542820D01*
X202140476Y-134542820D02*
X201997619Y-134495201D01*
X201997619Y-134495201D02*
X201902381Y-134399962D01*
X201902381Y-134399962D02*
X201854762Y-134304724D01*
X201854762Y-134304724D02*
X201807143Y-134114248D01*
X201807143Y-134114248D02*
X201807143Y-133971391D01*
X201807143Y-133971391D02*
X201854762Y-133780915D01*
X201854762Y-133780915D02*
X201902381Y-133685677D01*
X201902381Y-133685677D02*
X201997619Y-133590439D01*
X201997619Y-133590439D02*
X202140476Y-133542820D01*
X202140476Y-133542820D02*
X202235714Y-133542820D01*
X202235714Y-133542820D02*
X202378571Y-133590439D01*
X202378571Y-133590439D02*
X202426190Y-133638058D01*
X202997619Y-134542820D02*
X202902381Y-134495201D01*
X202902381Y-134495201D02*
X202854762Y-134447581D01*
X202854762Y-134447581D02*
X202807143Y-134352343D01*
X202807143Y-134352343D02*
X202807143Y-134066629D01*
X202807143Y-134066629D02*
X202854762Y-133971391D01*
X202854762Y-133971391D02*
X202902381Y-133923772D01*
X202902381Y-133923772D02*
X202997619Y-133876153D01*
X202997619Y-133876153D02*
X203140476Y-133876153D01*
X203140476Y-133876153D02*
X203235714Y-133923772D01*
X203235714Y-133923772D02*
X203283333Y-133971391D01*
X203283333Y-133971391D02*
X203330952Y-134066629D01*
X203330952Y-134066629D02*
X203330952Y-134352343D01*
X203330952Y-134352343D02*
X203283333Y-134447581D01*
X203283333Y-134447581D02*
X203235714Y-134495201D01*
X203235714Y-134495201D02*
X203140476Y-134542820D01*
X203140476Y-134542820D02*
X202997619Y-134542820D01*
X203759524Y-133876153D02*
X203759524Y-134542820D01*
X203759524Y-133971391D02*
X203807143Y-133923772D01*
X203807143Y-133923772D02*
X203902381Y-133876153D01*
X203902381Y-133876153D02*
X204045238Y-133876153D01*
X204045238Y-133876153D02*
X204140476Y-133923772D01*
X204140476Y-133923772D02*
X204188095Y-134019010D01*
X204188095Y-134019010D02*
X204188095Y-134542820D01*
X204664286Y-133876153D02*
X204664286Y-134542820D01*
X204664286Y-133971391D02*
X204711905Y-133923772D01*
X204711905Y-133923772D02*
X204807143Y-133876153D01*
X204807143Y-133876153D02*
X204950000Y-133876153D01*
X204950000Y-133876153D02*
X205045238Y-133923772D01*
X205045238Y-133923772D02*
X205092857Y-134019010D01*
X205092857Y-134019010D02*
X205092857Y-134542820D01*
X205997619Y-133876153D02*
X205997619Y-134542820D01*
X205759524Y-133495201D02*
X205521429Y-134209486D01*
X205521429Y-134209486D02*
X206140476Y-134209486D01*
X200521428Y-136082820D02*
X201092856Y-136082820D01*
X200807142Y-137082820D02*
X200807142Y-136082820D01*
X201569047Y-137082820D02*
X201473809Y-137035201D01*
X201473809Y-137035201D02*
X201426190Y-136987581D01*
X201426190Y-136987581D02*
X201378571Y-136892343D01*
X201378571Y-136892343D02*
X201378571Y-136606629D01*
X201378571Y-136606629D02*
X201426190Y-136511391D01*
X201426190Y-136511391D02*
X201473809Y-136463772D01*
X201473809Y-136463772D02*
X201569047Y-136416153D01*
X201569047Y-136416153D02*
X201711904Y-136416153D01*
X201711904Y-136416153D02*
X201807142Y-136463772D01*
X201807142Y-136463772D02*
X201854761Y-136511391D01*
X201854761Y-136511391D02*
X201902380Y-136606629D01*
X201902380Y-136606629D02*
X201902380Y-136892343D01*
X201902380Y-136892343D02*
X201854761Y-136987581D01*
X201854761Y-136987581D02*
X201807142Y-137035201D01*
X201807142Y-137035201D02*
X201711904Y-137082820D01*
X201711904Y-137082820D02*
X201569047Y-137082820D01*
X202330952Y-136416153D02*
X202330952Y-137416153D01*
X202330952Y-136463772D02*
X202426190Y-136416153D01*
X202426190Y-136416153D02*
X202616666Y-136416153D01*
X202616666Y-136416153D02*
X202711904Y-136463772D01*
X202711904Y-136463772D02*
X202759523Y-136511391D01*
X202759523Y-136511391D02*
X202807142Y-136606629D01*
X202807142Y-136606629D02*
X202807142Y-136892343D01*
X202807142Y-136892343D02*
X202759523Y-136987581D01*
X202759523Y-136987581D02*
X202711904Y-137035201D01*
X202711904Y-137035201D02*
X202616666Y-137082820D01*
X202616666Y-137082820D02*
X202426190Y-137082820D01*
X202426190Y-137082820D02*
X202330952Y-137035201D01*
X203711904Y-137082820D02*
X203235714Y-137082820D01*
X203235714Y-137082820D02*
X203235714Y-136082820D01*
X204045238Y-137082820D02*
X204045238Y-136416153D01*
X204045238Y-136082820D02*
X203997619Y-136130439D01*
X203997619Y-136130439D02*
X204045238Y-136178058D01*
X204045238Y-136178058D02*
X204092857Y-136130439D01*
X204092857Y-136130439D02*
X204045238Y-136082820D01*
X204045238Y-136082820D02*
X204045238Y-136178058D01*
X204949999Y-136416153D02*
X204949999Y-137225677D01*
X204949999Y-137225677D02*
X204902380Y-137320915D01*
X204902380Y-137320915D02*
X204854761Y-137368534D01*
X204854761Y-137368534D02*
X204759523Y-137416153D01*
X204759523Y-137416153D02*
X204616666Y-137416153D01*
X204616666Y-137416153D02*
X204521428Y-137368534D01*
X204949999Y-137035201D02*
X204854761Y-137082820D01*
X204854761Y-137082820D02*
X204664285Y-137082820D01*
X204664285Y-137082820D02*
X204569047Y-137035201D01*
X204569047Y-137035201D02*
X204521428Y-136987581D01*
X204521428Y-136987581D02*
X204473809Y-136892343D01*
X204473809Y-136892343D02*
X204473809Y-136606629D01*
X204473809Y-136606629D02*
X204521428Y-136511391D01*
X204521428Y-136511391D02*
X204569047Y-136463772D01*
X204569047Y-136463772D02*
X204664285Y-136416153D01*
X204664285Y-136416153D02*
X204854761Y-136416153D01*
X204854761Y-136416153D02*
X204949999Y-136463772D01*
X205426190Y-137082820D02*
X205426190Y-136082820D01*
X205854761Y-137082820D02*
X205854761Y-136559010D01*
X205854761Y-136559010D02*
X205807142Y-136463772D01*
X205807142Y-136463772D02*
X205711904Y-136416153D01*
X205711904Y-136416153D02*
X205569047Y-136416153D01*
X205569047Y-136416153D02*
X205473809Y-136463772D01*
X205473809Y-136463772D02*
X205426190Y-136511391D01*
X206188095Y-136416153D02*
X206569047Y-136416153D01*
X206330952Y-136082820D02*
X206330952Y-136939962D01*
X206330952Y-136939962D02*
X206378571Y-137035201D01*
X206378571Y-137035201D02*
X206473809Y-137082820D01*
X206473809Y-137082820D02*
X206569047Y-137082820D01*
X206854762Y-137035201D02*
X206950000Y-137082820D01*
X206950000Y-137082820D02*
X207140476Y-137082820D01*
X207140476Y-137082820D02*
X207235714Y-137035201D01*
X207235714Y-137035201D02*
X207283333Y-136939962D01*
X207283333Y-136939962D02*
X207283333Y-136892343D01*
X207283333Y-136892343D02*
X207235714Y-136797105D01*
X207235714Y-136797105D02*
X207140476Y-136749486D01*
X207140476Y-136749486D02*
X206997619Y-136749486D01*
X206997619Y-136749486D02*
X206902381Y-136701867D01*
X206902381Y-136701867D02*
X206854762Y-136606629D01*
X206854762Y-136606629D02*
X206854762Y-136559010D01*
X206854762Y-136559010D02*
X206902381Y-136463772D01*
X206902381Y-136463772D02*
X206997619Y-136416153D01*
X206997619Y-136416153D02*
X207140476Y-136416153D01*
X207140476Y-136416153D02*
X207235714Y-136463772D01*
X207940819Y-115546094D02*
X206940819Y-115546094D01*
X206940819Y-115546094D02*
X206940819Y-115307999D01*
X206940819Y-115307999D02*
X206988438Y-115165142D01*
X206988438Y-115165142D02*
X207083676Y-115069904D01*
X207083676Y-115069904D02*
X207178914Y-115022285D01*
X207178914Y-115022285D02*
X207369390Y-114974666D01*
X207369390Y-114974666D02*
X207512247Y-114974666D01*
X207512247Y-114974666D02*
X207702723Y-115022285D01*
X207702723Y-115022285D02*
X207797961Y-115069904D01*
X207797961Y-115069904D02*
X207893200Y-115165142D01*
X207893200Y-115165142D02*
X207940819Y-115307999D01*
X207940819Y-115307999D02*
X207940819Y-115546094D01*
X207940819Y-114022285D02*
X207940819Y-114593713D01*
X207940819Y-114307999D02*
X206940819Y-114307999D01*
X206940819Y-114307999D02*
X207083676Y-114403237D01*
X207083676Y-114403237D02*
X207178914Y-114498475D01*
X207178914Y-114498475D02*
X207226533Y-114593713D01*
X198461333Y-168508819D02*
X198128000Y-168032628D01*
X197889905Y-168508819D02*
X197889905Y-167508819D01*
X197889905Y-167508819D02*
X198270857Y-167508819D01*
X198270857Y-167508819D02*
X198366095Y-167556438D01*
X198366095Y-167556438D02*
X198413714Y-167604057D01*
X198413714Y-167604057D02*
X198461333Y-167699295D01*
X198461333Y-167699295D02*
X198461333Y-167842152D01*
X198461333Y-167842152D02*
X198413714Y-167937390D01*
X198413714Y-167937390D02*
X198366095Y-167985009D01*
X198366095Y-167985009D02*
X198270857Y-168032628D01*
X198270857Y-168032628D02*
X197889905Y-168032628D01*
X198842286Y-167604057D02*
X198889905Y-167556438D01*
X198889905Y-167556438D02*
X198985143Y-167508819D01*
X198985143Y-167508819D02*
X199223238Y-167508819D01*
X199223238Y-167508819D02*
X199318476Y-167556438D01*
X199318476Y-167556438D02*
X199366095Y-167604057D01*
X199366095Y-167604057D02*
X199413714Y-167699295D01*
X199413714Y-167699295D02*
X199413714Y-167794533D01*
X199413714Y-167794533D02*
X199366095Y-167937390D01*
X199366095Y-167937390D02*
X198794667Y-168508819D01*
X198794667Y-168508819D02*
X199413714Y-168508819D01*
X211086189Y-162919580D02*
X211038570Y-162967200D01*
X211038570Y-162967200D02*
X210895713Y-163014819D01*
X210895713Y-163014819D02*
X210800475Y-163014819D01*
X210800475Y-163014819D02*
X210657618Y-162967200D01*
X210657618Y-162967200D02*
X210562380Y-162871961D01*
X210562380Y-162871961D02*
X210514761Y-162776723D01*
X210514761Y-162776723D02*
X210467142Y-162586247D01*
X210467142Y-162586247D02*
X210467142Y-162443390D01*
X210467142Y-162443390D02*
X210514761Y-162252914D01*
X210514761Y-162252914D02*
X210562380Y-162157676D01*
X210562380Y-162157676D02*
X210657618Y-162062438D01*
X210657618Y-162062438D02*
X210800475Y-162014819D01*
X210800475Y-162014819D02*
X210895713Y-162014819D01*
X210895713Y-162014819D02*
X211038570Y-162062438D01*
X211038570Y-162062438D02*
X211086189Y-162110057D01*
X211657618Y-163014819D02*
X211562380Y-162967200D01*
X211562380Y-162967200D02*
X211514761Y-162919580D01*
X211514761Y-162919580D02*
X211467142Y-162824342D01*
X211467142Y-162824342D02*
X211467142Y-162538628D01*
X211467142Y-162538628D02*
X211514761Y-162443390D01*
X211514761Y-162443390D02*
X211562380Y-162395771D01*
X211562380Y-162395771D02*
X211657618Y-162348152D01*
X211657618Y-162348152D02*
X211800475Y-162348152D01*
X211800475Y-162348152D02*
X211895713Y-162395771D01*
X211895713Y-162395771D02*
X211943332Y-162443390D01*
X211943332Y-162443390D02*
X211990951Y-162538628D01*
X211990951Y-162538628D02*
X211990951Y-162824342D01*
X211990951Y-162824342D02*
X211943332Y-162919580D01*
X211943332Y-162919580D02*
X211895713Y-162967200D01*
X211895713Y-162967200D02*
X211800475Y-163014819D01*
X211800475Y-163014819D02*
X211657618Y-163014819D01*
X212419523Y-162348152D02*
X212419523Y-163014819D01*
X212419523Y-162443390D02*
X212467142Y-162395771D01*
X212467142Y-162395771D02*
X212562380Y-162348152D01*
X212562380Y-162348152D02*
X212705237Y-162348152D01*
X212705237Y-162348152D02*
X212800475Y-162395771D01*
X212800475Y-162395771D02*
X212848094Y-162491009D01*
X212848094Y-162491009D02*
X212848094Y-163014819D01*
X213324285Y-162348152D02*
X213324285Y-163014819D01*
X213324285Y-162443390D02*
X213371904Y-162395771D01*
X213371904Y-162395771D02*
X213467142Y-162348152D01*
X213467142Y-162348152D02*
X213609999Y-162348152D01*
X213609999Y-162348152D02*
X213705237Y-162395771D01*
X213705237Y-162395771D02*
X213752856Y-162491009D01*
X213752856Y-162491009D02*
X213752856Y-163014819D01*
X214276666Y-163014819D02*
X214467142Y-163014819D01*
X214467142Y-163014819D02*
X214562380Y-162967200D01*
X214562380Y-162967200D02*
X214609999Y-162919580D01*
X214609999Y-162919580D02*
X214705237Y-162776723D01*
X214705237Y-162776723D02*
X214752856Y-162586247D01*
X214752856Y-162586247D02*
X214752856Y-162205295D01*
X214752856Y-162205295D02*
X214705237Y-162110057D01*
X214705237Y-162110057D02*
X214657618Y-162062438D01*
X214657618Y-162062438D02*
X214562380Y-162014819D01*
X214562380Y-162014819D02*
X214371904Y-162014819D01*
X214371904Y-162014819D02*
X214276666Y-162062438D01*
X214276666Y-162062438D02*
X214229047Y-162110057D01*
X214229047Y-162110057D02*
X214181428Y-162205295D01*
X214181428Y-162205295D02*
X214181428Y-162443390D01*
X214181428Y-162443390D02*
X214229047Y-162538628D01*
X214229047Y-162538628D02*
X214276666Y-162586247D01*
X214276666Y-162586247D02*
X214371904Y-162633866D01*
X214371904Y-162633866D02*
X214562380Y-162633866D01*
X214562380Y-162633866D02*
X214657618Y-162586247D01*
X214657618Y-162586247D02*
X214705237Y-162538628D01*
X214705237Y-162538628D02*
X214752856Y-162443390D01*
X210276665Y-165031009D02*
X210419522Y-165078628D01*
X210419522Y-165078628D02*
X210467141Y-165126247D01*
X210467141Y-165126247D02*
X210514760Y-165221485D01*
X210514760Y-165221485D02*
X210514760Y-165364342D01*
X210514760Y-165364342D02*
X210467141Y-165459580D01*
X210467141Y-165459580D02*
X210419522Y-165507200D01*
X210419522Y-165507200D02*
X210324284Y-165554819D01*
X210324284Y-165554819D02*
X209943332Y-165554819D01*
X209943332Y-165554819D02*
X209943332Y-164554819D01*
X209943332Y-164554819D02*
X210276665Y-164554819D01*
X210276665Y-164554819D02*
X210371903Y-164602438D01*
X210371903Y-164602438D02*
X210419522Y-164650057D01*
X210419522Y-164650057D02*
X210467141Y-164745295D01*
X210467141Y-164745295D02*
X210467141Y-164840533D01*
X210467141Y-164840533D02*
X210419522Y-164935771D01*
X210419522Y-164935771D02*
X210371903Y-164983390D01*
X210371903Y-164983390D02*
X210276665Y-165031009D01*
X210276665Y-165031009D02*
X209943332Y-165031009D01*
X211371903Y-164888152D02*
X211371903Y-165554819D01*
X210943332Y-164888152D02*
X210943332Y-165411961D01*
X210943332Y-165411961D02*
X210990951Y-165507200D01*
X210990951Y-165507200D02*
X211086189Y-165554819D01*
X211086189Y-165554819D02*
X211229046Y-165554819D01*
X211229046Y-165554819D02*
X211324284Y-165507200D01*
X211324284Y-165507200D02*
X211371903Y-165459580D01*
X211705237Y-164888152D02*
X212086189Y-164888152D01*
X211848094Y-164554819D02*
X211848094Y-165411961D01*
X211848094Y-165411961D02*
X211895713Y-165507200D01*
X211895713Y-165507200D02*
X211990951Y-165554819D01*
X211990951Y-165554819D02*
X212086189Y-165554819D01*
X212276666Y-164888152D02*
X212657618Y-164888152D01*
X212419523Y-164554819D02*
X212419523Y-165411961D01*
X212419523Y-165411961D02*
X212467142Y-165507200D01*
X212467142Y-165507200D02*
X212562380Y-165554819D01*
X212562380Y-165554819D02*
X212657618Y-165554819D01*
X213133809Y-165554819D02*
X213038571Y-165507200D01*
X213038571Y-165507200D02*
X212990952Y-165459580D01*
X212990952Y-165459580D02*
X212943333Y-165364342D01*
X212943333Y-165364342D02*
X212943333Y-165078628D01*
X212943333Y-165078628D02*
X212990952Y-164983390D01*
X212990952Y-164983390D02*
X213038571Y-164935771D01*
X213038571Y-164935771D02*
X213133809Y-164888152D01*
X213133809Y-164888152D02*
X213276666Y-164888152D01*
X213276666Y-164888152D02*
X213371904Y-164935771D01*
X213371904Y-164935771D02*
X213419523Y-164983390D01*
X213419523Y-164983390D02*
X213467142Y-165078628D01*
X213467142Y-165078628D02*
X213467142Y-165364342D01*
X213467142Y-165364342D02*
X213419523Y-165459580D01*
X213419523Y-165459580D02*
X213371904Y-165507200D01*
X213371904Y-165507200D02*
X213276666Y-165554819D01*
X213276666Y-165554819D02*
X213133809Y-165554819D01*
X213895714Y-164888152D02*
X213895714Y-165554819D01*
X213895714Y-164983390D02*
X213943333Y-164935771D01*
X213943333Y-164935771D02*
X214038571Y-164888152D01*
X214038571Y-164888152D02*
X214181428Y-164888152D01*
X214181428Y-164888152D02*
X214276666Y-164935771D01*
X214276666Y-164935771D02*
X214324285Y-165031009D01*
X214324285Y-165031009D02*
X214324285Y-165554819D01*
X214705238Y-164554819D02*
X215324285Y-164554819D01*
X215324285Y-164554819D02*
X214990952Y-164935771D01*
X214990952Y-164935771D02*
X215133809Y-164935771D01*
X215133809Y-164935771D02*
X215229047Y-164983390D01*
X215229047Y-164983390D02*
X215276666Y-165031009D01*
X215276666Y-165031009D02*
X215324285Y-165126247D01*
X215324285Y-165126247D02*
X215324285Y-165364342D01*
X215324285Y-165364342D02*
X215276666Y-165459580D01*
X215276666Y-165459580D02*
X215229047Y-165507200D01*
X215229047Y-165507200D02*
X215133809Y-165554819D01*
X215133809Y-165554819D02*
X214848095Y-165554819D01*
X214848095Y-165554819D02*
X214752857Y-165507200D01*
X214752857Y-165507200D02*
X214705238Y-165459580D01*
X182158828Y-122920952D02*
X182128352Y-122981904D01*
X182128352Y-122981904D02*
X182067400Y-123042857D01*
X182067400Y-123042857D02*
X181975971Y-123134285D01*
X181975971Y-123134285D02*
X181945495Y-123195238D01*
X181945495Y-123195238D02*
X181945495Y-123256190D01*
X182097876Y-123225714D02*
X182067400Y-123286666D01*
X182067400Y-123286666D02*
X182006447Y-123347619D01*
X182006447Y-123347619D02*
X181884542Y-123378095D01*
X181884542Y-123378095D02*
X181671209Y-123378095D01*
X181671209Y-123378095D02*
X181549304Y-123347619D01*
X181549304Y-123347619D02*
X181488352Y-123286666D01*
X181488352Y-123286666D02*
X181457876Y-123225714D01*
X181457876Y-123225714D02*
X181457876Y-123103809D01*
X181457876Y-123103809D02*
X181488352Y-123042857D01*
X181488352Y-123042857D02*
X181549304Y-122981904D01*
X181549304Y-122981904D02*
X181671209Y-122951428D01*
X181671209Y-122951428D02*
X181884542Y-122951428D01*
X181884542Y-122951428D02*
X182006447Y-122981904D01*
X182006447Y-122981904D02*
X182067400Y-123042857D01*
X182067400Y-123042857D02*
X182097876Y-123103809D01*
X182097876Y-123103809D02*
X182097876Y-123225714D01*
X182097876Y-122341904D02*
X182097876Y-122707619D01*
X182097876Y-122524762D02*
X181457876Y-122524762D01*
X181457876Y-122524762D02*
X181549304Y-122585714D01*
X181549304Y-122585714D02*
X181610257Y-122646666D01*
X181610257Y-122646666D02*
X181640733Y-122707619D01*
X194150333Y-121912580D02*
X194102714Y-121960200D01*
X194102714Y-121960200D02*
X193959857Y-122007819D01*
X193959857Y-122007819D02*
X193864619Y-122007819D01*
X193864619Y-122007819D02*
X193721762Y-121960200D01*
X193721762Y-121960200D02*
X193626524Y-121864961D01*
X193626524Y-121864961D02*
X193578905Y-121769723D01*
X193578905Y-121769723D02*
X193531286Y-121579247D01*
X193531286Y-121579247D02*
X193531286Y-121436390D01*
X193531286Y-121436390D02*
X193578905Y-121245914D01*
X193578905Y-121245914D02*
X193626524Y-121150676D01*
X193626524Y-121150676D02*
X193721762Y-121055438D01*
X193721762Y-121055438D02*
X193864619Y-121007819D01*
X193864619Y-121007819D02*
X193959857Y-121007819D01*
X193959857Y-121007819D02*
X194102714Y-121055438D01*
X194102714Y-121055438D02*
X194150333Y-121103057D01*
X194531286Y-121103057D02*
X194578905Y-121055438D01*
X194578905Y-121055438D02*
X194674143Y-121007819D01*
X194674143Y-121007819D02*
X194912238Y-121007819D01*
X194912238Y-121007819D02*
X195007476Y-121055438D01*
X195007476Y-121055438D02*
X195055095Y-121103057D01*
X195055095Y-121103057D02*
X195102714Y-121198295D01*
X195102714Y-121198295D02*
X195102714Y-121293533D01*
X195102714Y-121293533D02*
X195055095Y-121436390D01*
X195055095Y-121436390D02*
X194483667Y-122007819D01*
X194483667Y-122007819D02*
X195102714Y-122007819D01*
X172132666Y-145968819D02*
X172132666Y-146683104D01*
X172132666Y-146683104D02*
X172085047Y-146825961D01*
X172085047Y-146825961D02*
X171989809Y-146921200D01*
X171989809Y-146921200D02*
X171846952Y-146968819D01*
X171846952Y-146968819D02*
X171751714Y-146968819D01*
X173132666Y-146968819D02*
X172561238Y-146968819D01*
X172846952Y-146968819D02*
X172846952Y-145968819D01*
X172846952Y-145968819D02*
X172751714Y-146111676D01*
X172751714Y-146111676D02*
X172656476Y-146206914D01*
X172656476Y-146206914D02*
X172561238Y-146254533D01*
X159258095Y-160447200D02*
X159400952Y-160494819D01*
X159400952Y-160494819D02*
X159639047Y-160494819D01*
X159639047Y-160494819D02*
X159734285Y-160447200D01*
X159734285Y-160447200D02*
X159781904Y-160399580D01*
X159781904Y-160399580D02*
X159829523Y-160304342D01*
X159829523Y-160304342D02*
X159829523Y-160209104D01*
X159829523Y-160209104D02*
X159781904Y-160113866D01*
X159781904Y-160113866D02*
X159734285Y-160066247D01*
X159734285Y-160066247D02*
X159639047Y-160018628D01*
X159639047Y-160018628D02*
X159448571Y-159971009D01*
X159448571Y-159971009D02*
X159353333Y-159923390D01*
X159353333Y-159923390D02*
X159305714Y-159875771D01*
X159305714Y-159875771D02*
X159258095Y-159780533D01*
X159258095Y-159780533D02*
X159258095Y-159685295D01*
X159258095Y-159685295D02*
X159305714Y-159590057D01*
X159305714Y-159590057D02*
X159353333Y-159542438D01*
X159353333Y-159542438D02*
X159448571Y-159494819D01*
X159448571Y-159494819D02*
X159686666Y-159494819D01*
X159686666Y-159494819D02*
X159829523Y-159542438D01*
X160210476Y-159590057D02*
X160258095Y-159542438D01*
X160258095Y-159542438D02*
X160353333Y-159494819D01*
X160353333Y-159494819D02*
X160591428Y-159494819D01*
X160591428Y-159494819D02*
X160686666Y-159542438D01*
X160686666Y-159542438D02*
X160734285Y-159590057D01*
X160734285Y-159590057D02*
X160781904Y-159685295D01*
X160781904Y-159685295D02*
X160781904Y-159780533D01*
X160781904Y-159780533D02*
X160734285Y-159923390D01*
X160734285Y-159923390D02*
X160162857Y-160494819D01*
X160162857Y-160494819D02*
X160781904Y-160494819D01*
X155519998Y-167289580D02*
X155472379Y-167337200D01*
X155472379Y-167337200D02*
X155329522Y-167384819D01*
X155329522Y-167384819D02*
X155234284Y-167384819D01*
X155234284Y-167384819D02*
X155091427Y-167337200D01*
X155091427Y-167337200D02*
X154996189Y-167241961D01*
X154996189Y-167241961D02*
X154948570Y-167146723D01*
X154948570Y-167146723D02*
X154900951Y-166956247D01*
X154900951Y-166956247D02*
X154900951Y-166813390D01*
X154900951Y-166813390D02*
X154948570Y-166622914D01*
X154948570Y-166622914D02*
X154996189Y-166527676D01*
X154996189Y-166527676D02*
X155091427Y-166432438D01*
X155091427Y-166432438D02*
X155234284Y-166384819D01*
X155234284Y-166384819D02*
X155329522Y-166384819D01*
X155329522Y-166384819D02*
X155472379Y-166432438D01*
X155472379Y-166432438D02*
X155519998Y-166480057D01*
X156377141Y-167384819D02*
X156377141Y-166861009D01*
X156377141Y-166861009D02*
X156329522Y-166765771D01*
X156329522Y-166765771D02*
X156234284Y-166718152D01*
X156234284Y-166718152D02*
X156043808Y-166718152D01*
X156043808Y-166718152D02*
X155948570Y-166765771D01*
X156377141Y-167337200D02*
X156281903Y-167384819D01*
X156281903Y-167384819D02*
X156043808Y-167384819D01*
X156043808Y-167384819D02*
X155948570Y-167337200D01*
X155948570Y-167337200D02*
X155900951Y-167241961D01*
X155900951Y-167241961D02*
X155900951Y-167146723D01*
X155900951Y-167146723D02*
X155948570Y-167051485D01*
X155948570Y-167051485D02*
X156043808Y-167003866D01*
X156043808Y-167003866D02*
X156281903Y-167003866D01*
X156281903Y-167003866D02*
X156377141Y-166956247D01*
X156853332Y-166718152D02*
X156853332Y-167718152D01*
X156853332Y-166765771D02*
X156948570Y-166718152D01*
X156948570Y-166718152D02*
X157139046Y-166718152D01*
X157139046Y-166718152D02*
X157234284Y-166765771D01*
X157234284Y-166765771D02*
X157281903Y-166813390D01*
X157281903Y-166813390D02*
X157329522Y-166908628D01*
X157329522Y-166908628D02*
X157329522Y-167194342D01*
X157329522Y-167194342D02*
X157281903Y-167289580D01*
X157281903Y-167289580D02*
X157234284Y-167337200D01*
X157234284Y-167337200D02*
X157139046Y-167384819D01*
X157139046Y-167384819D02*
X156948570Y-167384819D01*
X156948570Y-167384819D02*
X156853332Y-167337200D01*
X157615237Y-166718152D02*
X157996189Y-166718152D01*
X157758094Y-166384819D02*
X157758094Y-167241961D01*
X157758094Y-167241961D02*
X157805713Y-167337200D01*
X157805713Y-167337200D02*
X157900951Y-167384819D01*
X157900951Y-167384819D02*
X157996189Y-167384819D01*
X158758094Y-166718152D02*
X158758094Y-167384819D01*
X158329523Y-166718152D02*
X158329523Y-167241961D01*
X158329523Y-167241961D02*
X158377142Y-167337200D01*
X158377142Y-167337200D02*
X158472380Y-167384819D01*
X158472380Y-167384819D02*
X158615237Y-167384819D01*
X158615237Y-167384819D02*
X158710475Y-167337200D01*
X158710475Y-167337200D02*
X158758094Y-167289580D01*
X159234285Y-167384819D02*
X159234285Y-166718152D01*
X159234285Y-166908628D02*
X159281904Y-166813390D01*
X159281904Y-166813390D02*
X159329523Y-166765771D01*
X159329523Y-166765771D02*
X159424761Y-166718152D01*
X159424761Y-166718152D02*
X159519999Y-166718152D01*
X160234285Y-167337200D02*
X160139047Y-167384819D01*
X160139047Y-167384819D02*
X159948571Y-167384819D01*
X159948571Y-167384819D02*
X159853333Y-167337200D01*
X159853333Y-167337200D02*
X159805714Y-167241961D01*
X159805714Y-167241961D02*
X159805714Y-166861009D01*
X159805714Y-166861009D02*
X159853333Y-166765771D01*
X159853333Y-166765771D02*
X159948571Y-166718152D01*
X159948571Y-166718152D02*
X160139047Y-166718152D01*
X160139047Y-166718152D02*
X160234285Y-166765771D01*
X160234285Y-166765771D02*
X160281904Y-166861009D01*
X160281904Y-166861009D02*
X160281904Y-166956247D01*
X160281904Y-166956247D02*
X159805714Y-167051485D01*
X161043809Y-166861009D02*
X161186666Y-166908628D01*
X161186666Y-166908628D02*
X161234285Y-166956247D01*
X161234285Y-166956247D02*
X161281904Y-167051485D01*
X161281904Y-167051485D02*
X161281904Y-167194342D01*
X161281904Y-167194342D02*
X161234285Y-167289580D01*
X161234285Y-167289580D02*
X161186666Y-167337200D01*
X161186666Y-167337200D02*
X161091428Y-167384819D01*
X161091428Y-167384819D02*
X160710476Y-167384819D01*
X160710476Y-167384819D02*
X160710476Y-166384819D01*
X160710476Y-166384819D02*
X161043809Y-166384819D01*
X161043809Y-166384819D02*
X161139047Y-166432438D01*
X161139047Y-166432438D02*
X161186666Y-166480057D01*
X161186666Y-166480057D02*
X161234285Y-166575295D01*
X161234285Y-166575295D02*
X161234285Y-166670533D01*
X161234285Y-166670533D02*
X161186666Y-166765771D01*
X161186666Y-166765771D02*
X161139047Y-166813390D01*
X161139047Y-166813390D02*
X161043809Y-166861009D01*
X161043809Y-166861009D02*
X160710476Y-166861009D01*
X162139047Y-166718152D02*
X162139047Y-167384819D01*
X161710476Y-166718152D02*
X161710476Y-167241961D01*
X161710476Y-167241961D02*
X161758095Y-167337200D01*
X161758095Y-167337200D02*
X161853333Y-167384819D01*
X161853333Y-167384819D02*
X161996190Y-167384819D01*
X161996190Y-167384819D02*
X162091428Y-167337200D01*
X162091428Y-167337200D02*
X162139047Y-167289580D01*
X162472381Y-166718152D02*
X162853333Y-166718152D01*
X162615238Y-166384819D02*
X162615238Y-167241961D01*
X162615238Y-167241961D02*
X162662857Y-167337200D01*
X162662857Y-167337200D02*
X162758095Y-167384819D01*
X162758095Y-167384819D02*
X162853333Y-167384819D01*
X163043810Y-166718152D02*
X163424762Y-166718152D01*
X163186667Y-166384819D02*
X163186667Y-167241961D01*
X163186667Y-167241961D02*
X163234286Y-167337200D01*
X163234286Y-167337200D02*
X163329524Y-167384819D01*
X163329524Y-167384819D02*
X163424762Y-167384819D01*
X163900953Y-167384819D02*
X163805715Y-167337200D01*
X163805715Y-167337200D02*
X163758096Y-167289580D01*
X163758096Y-167289580D02*
X163710477Y-167194342D01*
X163710477Y-167194342D02*
X163710477Y-166908628D01*
X163710477Y-166908628D02*
X163758096Y-166813390D01*
X163758096Y-166813390D02*
X163805715Y-166765771D01*
X163805715Y-166765771D02*
X163900953Y-166718152D01*
X163900953Y-166718152D02*
X164043810Y-166718152D01*
X164043810Y-166718152D02*
X164139048Y-166765771D01*
X164139048Y-166765771D02*
X164186667Y-166813390D01*
X164186667Y-166813390D02*
X164234286Y-166908628D01*
X164234286Y-166908628D02*
X164234286Y-167194342D01*
X164234286Y-167194342D02*
X164186667Y-167289580D01*
X164186667Y-167289580D02*
X164139048Y-167337200D01*
X164139048Y-167337200D02*
X164043810Y-167384819D01*
X164043810Y-167384819D02*
X163900953Y-167384819D01*
X164662858Y-166718152D02*
X164662858Y-167384819D01*
X164662858Y-166813390D02*
X164710477Y-166765771D01*
X164710477Y-166765771D02*
X164805715Y-166718152D01*
X164805715Y-166718152D02*
X164948572Y-166718152D01*
X164948572Y-166718152D02*
X165043810Y-166765771D01*
X165043810Y-166765771D02*
X165091429Y-166861009D01*
X165091429Y-166861009D02*
X165091429Y-167384819D01*
X169833095Y-160447200D02*
X169975952Y-160494819D01*
X169975952Y-160494819D02*
X170214047Y-160494819D01*
X170214047Y-160494819D02*
X170309285Y-160447200D01*
X170309285Y-160447200D02*
X170356904Y-160399580D01*
X170356904Y-160399580D02*
X170404523Y-160304342D01*
X170404523Y-160304342D02*
X170404523Y-160209104D01*
X170404523Y-160209104D02*
X170356904Y-160113866D01*
X170356904Y-160113866D02*
X170309285Y-160066247D01*
X170309285Y-160066247D02*
X170214047Y-160018628D01*
X170214047Y-160018628D02*
X170023571Y-159971009D01*
X170023571Y-159971009D02*
X169928333Y-159923390D01*
X169928333Y-159923390D02*
X169880714Y-159875771D01*
X169880714Y-159875771D02*
X169833095Y-159780533D01*
X169833095Y-159780533D02*
X169833095Y-159685295D01*
X169833095Y-159685295D02*
X169880714Y-159590057D01*
X169880714Y-159590057D02*
X169928333Y-159542438D01*
X169928333Y-159542438D02*
X170023571Y-159494819D01*
X170023571Y-159494819D02*
X170261666Y-159494819D01*
X170261666Y-159494819D02*
X170404523Y-159542438D01*
X170737857Y-159494819D02*
X171356904Y-159494819D01*
X171356904Y-159494819D02*
X171023571Y-159875771D01*
X171023571Y-159875771D02*
X171166428Y-159875771D01*
X171166428Y-159875771D02*
X171261666Y-159923390D01*
X171261666Y-159923390D02*
X171309285Y-159971009D01*
X171309285Y-159971009D02*
X171356904Y-160066247D01*
X171356904Y-160066247D02*
X171356904Y-160304342D01*
X171356904Y-160304342D02*
X171309285Y-160399580D01*
X171309285Y-160399580D02*
X171261666Y-160447200D01*
X171261666Y-160447200D02*
X171166428Y-160494819D01*
X171166428Y-160494819D02*
X170880714Y-160494819D01*
X170880714Y-160494819D02*
X170785476Y-160447200D01*
X170785476Y-160447200D02*
X170737857Y-160399580D01*
X168261666Y-166861009D02*
X168404523Y-166908628D01*
X168404523Y-166908628D02*
X168452142Y-166956247D01*
X168452142Y-166956247D02*
X168499761Y-167051485D01*
X168499761Y-167051485D02*
X168499761Y-167194342D01*
X168499761Y-167194342D02*
X168452142Y-167289580D01*
X168452142Y-167289580D02*
X168404523Y-167337200D01*
X168404523Y-167337200D02*
X168309285Y-167384819D01*
X168309285Y-167384819D02*
X167928333Y-167384819D01*
X167928333Y-167384819D02*
X167928333Y-166384819D01*
X167928333Y-166384819D02*
X168261666Y-166384819D01*
X168261666Y-166384819D02*
X168356904Y-166432438D01*
X168356904Y-166432438D02*
X168404523Y-166480057D01*
X168404523Y-166480057D02*
X168452142Y-166575295D01*
X168452142Y-166575295D02*
X168452142Y-166670533D01*
X168452142Y-166670533D02*
X168404523Y-166765771D01*
X168404523Y-166765771D02*
X168356904Y-166813390D01*
X168356904Y-166813390D02*
X168261666Y-166861009D01*
X168261666Y-166861009D02*
X167928333Y-166861009D01*
X169356904Y-166718152D02*
X169356904Y-167384819D01*
X168928333Y-166718152D02*
X168928333Y-167241961D01*
X168928333Y-167241961D02*
X168975952Y-167337200D01*
X168975952Y-167337200D02*
X169071190Y-167384819D01*
X169071190Y-167384819D02*
X169214047Y-167384819D01*
X169214047Y-167384819D02*
X169309285Y-167337200D01*
X169309285Y-167337200D02*
X169356904Y-167289580D01*
X169690238Y-166718152D02*
X170071190Y-166718152D01*
X169833095Y-166384819D02*
X169833095Y-167241961D01*
X169833095Y-167241961D02*
X169880714Y-167337200D01*
X169880714Y-167337200D02*
X169975952Y-167384819D01*
X169975952Y-167384819D02*
X170071190Y-167384819D01*
X170261667Y-166718152D02*
X170642619Y-166718152D01*
X170404524Y-166384819D02*
X170404524Y-167241961D01*
X170404524Y-167241961D02*
X170452143Y-167337200D01*
X170452143Y-167337200D02*
X170547381Y-167384819D01*
X170547381Y-167384819D02*
X170642619Y-167384819D01*
X171118810Y-167384819D02*
X171023572Y-167337200D01*
X171023572Y-167337200D02*
X170975953Y-167289580D01*
X170975953Y-167289580D02*
X170928334Y-167194342D01*
X170928334Y-167194342D02*
X170928334Y-166908628D01*
X170928334Y-166908628D02*
X170975953Y-166813390D01*
X170975953Y-166813390D02*
X171023572Y-166765771D01*
X171023572Y-166765771D02*
X171118810Y-166718152D01*
X171118810Y-166718152D02*
X171261667Y-166718152D01*
X171261667Y-166718152D02*
X171356905Y-166765771D01*
X171356905Y-166765771D02*
X171404524Y-166813390D01*
X171404524Y-166813390D02*
X171452143Y-166908628D01*
X171452143Y-166908628D02*
X171452143Y-167194342D01*
X171452143Y-167194342D02*
X171404524Y-167289580D01*
X171404524Y-167289580D02*
X171356905Y-167337200D01*
X171356905Y-167337200D02*
X171261667Y-167384819D01*
X171261667Y-167384819D02*
X171118810Y-167384819D01*
X171880715Y-166718152D02*
X171880715Y-167384819D01*
X171880715Y-166813390D02*
X171928334Y-166765771D01*
X171928334Y-166765771D02*
X172023572Y-166718152D01*
X172023572Y-166718152D02*
X172166429Y-166718152D01*
X172166429Y-166718152D02*
X172261667Y-166765771D01*
X172261667Y-166765771D02*
X172309286Y-166861009D01*
X172309286Y-166861009D02*
X172309286Y-167384819D01*
X172690239Y-166384819D02*
X173309286Y-166384819D01*
X173309286Y-166384819D02*
X172975953Y-166765771D01*
X172975953Y-166765771D02*
X173118810Y-166765771D01*
X173118810Y-166765771D02*
X173214048Y-166813390D01*
X173214048Y-166813390D02*
X173261667Y-166861009D01*
X173261667Y-166861009D02*
X173309286Y-166956247D01*
X173309286Y-166956247D02*
X173309286Y-167194342D01*
X173309286Y-167194342D02*
X173261667Y-167289580D01*
X173261667Y-167289580D02*
X173214048Y-167337200D01*
X173214048Y-167337200D02*
X173118810Y-167384819D01*
X173118810Y-167384819D02*
X172833096Y-167384819D01*
X172833096Y-167384819D02*
X172737858Y-167337200D01*
X172737858Y-167337200D02*
X172690239Y-167289580D01*
X207740642Y-158602819D02*
X207407309Y-158126628D01*
X207169214Y-158602819D02*
X207169214Y-157602819D01*
X207169214Y-157602819D02*
X207550166Y-157602819D01*
X207550166Y-157602819D02*
X207645404Y-157650438D01*
X207645404Y-157650438D02*
X207693023Y-157698057D01*
X207693023Y-157698057D02*
X207740642Y-157793295D01*
X207740642Y-157793295D02*
X207740642Y-157936152D01*
X207740642Y-157936152D02*
X207693023Y-158031390D01*
X207693023Y-158031390D02*
X207645404Y-158079009D01*
X207645404Y-158079009D02*
X207550166Y-158126628D01*
X207550166Y-158126628D02*
X207169214Y-158126628D01*
X208693023Y-158602819D02*
X208121595Y-158602819D01*
X208407309Y-158602819D02*
X208407309Y-157602819D01*
X208407309Y-157602819D02*
X208312071Y-157745676D01*
X208312071Y-157745676D02*
X208216833Y-157840914D01*
X208216833Y-157840914D02*
X208121595Y-157888533D01*
X209026357Y-157602819D02*
X209645404Y-157602819D01*
X209645404Y-157602819D02*
X209312071Y-157983771D01*
X209312071Y-157983771D02*
X209454928Y-157983771D01*
X209454928Y-157983771D02*
X209550166Y-158031390D01*
X209550166Y-158031390D02*
X209597785Y-158079009D01*
X209597785Y-158079009D02*
X209645404Y-158174247D01*
X209645404Y-158174247D02*
X209645404Y-158412342D01*
X209645404Y-158412342D02*
X209597785Y-158507580D01*
X209597785Y-158507580D02*
X209550166Y-158555200D01*
X209550166Y-158555200D02*
X209454928Y-158602819D01*
X209454928Y-158602819D02*
X209169214Y-158602819D01*
X209169214Y-158602819D02*
X209073976Y-158555200D01*
X209073976Y-158555200D02*
X209026357Y-158507580D01*
X202426190Y-127359580D02*
X202378571Y-127407200D01*
X202378571Y-127407200D02*
X202235714Y-127454819D01*
X202235714Y-127454819D02*
X202140476Y-127454819D01*
X202140476Y-127454819D02*
X201997619Y-127407200D01*
X201997619Y-127407200D02*
X201902381Y-127311961D01*
X201902381Y-127311961D02*
X201854762Y-127216723D01*
X201854762Y-127216723D02*
X201807143Y-127026247D01*
X201807143Y-127026247D02*
X201807143Y-126883390D01*
X201807143Y-126883390D02*
X201854762Y-126692914D01*
X201854762Y-126692914D02*
X201902381Y-126597676D01*
X201902381Y-126597676D02*
X201997619Y-126502438D01*
X201997619Y-126502438D02*
X202140476Y-126454819D01*
X202140476Y-126454819D02*
X202235714Y-126454819D01*
X202235714Y-126454819D02*
X202378571Y-126502438D01*
X202378571Y-126502438D02*
X202426190Y-126550057D01*
X202997619Y-127454819D02*
X202902381Y-127407200D01*
X202902381Y-127407200D02*
X202854762Y-127359580D01*
X202854762Y-127359580D02*
X202807143Y-127264342D01*
X202807143Y-127264342D02*
X202807143Y-126978628D01*
X202807143Y-126978628D02*
X202854762Y-126883390D01*
X202854762Y-126883390D02*
X202902381Y-126835771D01*
X202902381Y-126835771D02*
X202997619Y-126788152D01*
X202997619Y-126788152D02*
X203140476Y-126788152D01*
X203140476Y-126788152D02*
X203235714Y-126835771D01*
X203235714Y-126835771D02*
X203283333Y-126883390D01*
X203283333Y-126883390D02*
X203330952Y-126978628D01*
X203330952Y-126978628D02*
X203330952Y-127264342D01*
X203330952Y-127264342D02*
X203283333Y-127359580D01*
X203283333Y-127359580D02*
X203235714Y-127407200D01*
X203235714Y-127407200D02*
X203140476Y-127454819D01*
X203140476Y-127454819D02*
X202997619Y-127454819D01*
X203759524Y-126788152D02*
X203759524Y-127454819D01*
X203759524Y-126883390D02*
X203807143Y-126835771D01*
X203807143Y-126835771D02*
X203902381Y-126788152D01*
X203902381Y-126788152D02*
X204045238Y-126788152D01*
X204045238Y-126788152D02*
X204140476Y-126835771D01*
X204140476Y-126835771D02*
X204188095Y-126931009D01*
X204188095Y-126931009D02*
X204188095Y-127454819D01*
X204664286Y-126788152D02*
X204664286Y-127454819D01*
X204664286Y-126883390D02*
X204711905Y-126835771D01*
X204711905Y-126835771D02*
X204807143Y-126788152D01*
X204807143Y-126788152D02*
X204950000Y-126788152D01*
X204950000Y-126788152D02*
X205045238Y-126835771D01*
X205045238Y-126835771D02*
X205092857Y-126931009D01*
X205092857Y-126931009D02*
X205092857Y-127454819D01*
X206092857Y-127454819D02*
X205521429Y-127454819D01*
X205807143Y-127454819D02*
X205807143Y-126454819D01*
X205807143Y-126454819D02*
X205711905Y-126597676D01*
X205711905Y-126597676D02*
X205616667Y-126692914D01*
X205616667Y-126692914D02*
X205521429Y-126740533D01*
X199664285Y-129994819D02*
X199664285Y-128994819D01*
X199664285Y-128994819D02*
X199997618Y-129709104D01*
X199997618Y-129709104D02*
X200330951Y-128994819D01*
X200330951Y-128994819D02*
X200330951Y-129994819D01*
X200949999Y-129994819D02*
X200854761Y-129947200D01*
X200854761Y-129947200D02*
X200807142Y-129899580D01*
X200807142Y-129899580D02*
X200759523Y-129804342D01*
X200759523Y-129804342D02*
X200759523Y-129518628D01*
X200759523Y-129518628D02*
X200807142Y-129423390D01*
X200807142Y-129423390D02*
X200854761Y-129375771D01*
X200854761Y-129375771D02*
X200949999Y-129328152D01*
X200949999Y-129328152D02*
X201092856Y-129328152D01*
X201092856Y-129328152D02*
X201188094Y-129375771D01*
X201188094Y-129375771D02*
X201235713Y-129423390D01*
X201235713Y-129423390D02*
X201283332Y-129518628D01*
X201283332Y-129518628D02*
X201283332Y-129804342D01*
X201283332Y-129804342D02*
X201235713Y-129899580D01*
X201235713Y-129899580D02*
X201188094Y-129947200D01*
X201188094Y-129947200D02*
X201092856Y-129994819D01*
X201092856Y-129994819D02*
X200949999Y-129994819D01*
X201569047Y-129328152D02*
X201949999Y-129328152D01*
X201711904Y-128994819D02*
X201711904Y-129851961D01*
X201711904Y-129851961D02*
X201759523Y-129947200D01*
X201759523Y-129947200D02*
X201854761Y-129994819D01*
X201854761Y-129994819D02*
X201949999Y-129994819D01*
X202426190Y-129994819D02*
X202330952Y-129947200D01*
X202330952Y-129947200D02*
X202283333Y-129899580D01*
X202283333Y-129899580D02*
X202235714Y-129804342D01*
X202235714Y-129804342D02*
X202235714Y-129518628D01*
X202235714Y-129518628D02*
X202283333Y-129423390D01*
X202283333Y-129423390D02*
X202330952Y-129375771D01*
X202330952Y-129375771D02*
X202426190Y-129328152D01*
X202426190Y-129328152D02*
X202569047Y-129328152D01*
X202569047Y-129328152D02*
X202664285Y-129375771D01*
X202664285Y-129375771D02*
X202711904Y-129423390D01*
X202711904Y-129423390D02*
X202759523Y-129518628D01*
X202759523Y-129518628D02*
X202759523Y-129804342D01*
X202759523Y-129804342D02*
X202711904Y-129899580D01*
X202711904Y-129899580D02*
X202664285Y-129947200D01*
X202664285Y-129947200D02*
X202569047Y-129994819D01*
X202569047Y-129994819D02*
X202426190Y-129994819D01*
X203188095Y-129994819D02*
X203188095Y-129328152D01*
X203188095Y-129518628D02*
X203235714Y-129423390D01*
X203235714Y-129423390D02*
X203283333Y-129375771D01*
X203283333Y-129375771D02*
X203378571Y-129328152D01*
X203378571Y-129328152D02*
X203473809Y-129328152D01*
X203997619Y-128994819D02*
X204188095Y-128994819D01*
X204188095Y-128994819D02*
X204283333Y-129042438D01*
X204283333Y-129042438D02*
X204378571Y-129137676D01*
X204378571Y-129137676D02*
X204426190Y-129328152D01*
X204426190Y-129328152D02*
X204426190Y-129661485D01*
X204426190Y-129661485D02*
X204378571Y-129851961D01*
X204378571Y-129851961D02*
X204283333Y-129947200D01*
X204283333Y-129947200D02*
X204188095Y-129994819D01*
X204188095Y-129994819D02*
X203997619Y-129994819D01*
X203997619Y-129994819D02*
X203902381Y-129947200D01*
X203902381Y-129947200D02*
X203807143Y-129851961D01*
X203807143Y-129851961D02*
X203759524Y-129661485D01*
X203759524Y-129661485D02*
X203759524Y-129328152D01*
X203759524Y-129328152D02*
X203807143Y-129137676D01*
X203807143Y-129137676D02*
X203902381Y-129042438D01*
X203902381Y-129042438D02*
X203997619Y-128994819D01*
X205283333Y-129328152D02*
X205283333Y-129994819D01*
X204854762Y-129328152D02*
X204854762Y-129851961D01*
X204854762Y-129851961D02*
X204902381Y-129947200D01*
X204902381Y-129947200D02*
X204997619Y-129994819D01*
X204997619Y-129994819D02*
X205140476Y-129994819D01*
X205140476Y-129994819D02*
X205235714Y-129947200D01*
X205235714Y-129947200D02*
X205283333Y-129899580D01*
X205616667Y-129328152D02*
X205997619Y-129328152D01*
X205759524Y-128994819D02*
X205759524Y-129851961D01*
X205759524Y-129851961D02*
X205807143Y-129947200D01*
X205807143Y-129947200D02*
X205902381Y-129994819D01*
X205902381Y-129994819D02*
X205997619Y-129994819D01*
X206330953Y-129328152D02*
X206330953Y-130328152D01*
X206330953Y-129375771D02*
X206426191Y-129328152D01*
X206426191Y-129328152D02*
X206616667Y-129328152D01*
X206616667Y-129328152D02*
X206711905Y-129375771D01*
X206711905Y-129375771D02*
X206759524Y-129423390D01*
X206759524Y-129423390D02*
X206807143Y-129518628D01*
X206807143Y-129518628D02*
X206807143Y-129804342D01*
X206807143Y-129804342D02*
X206759524Y-129899580D01*
X206759524Y-129899580D02*
X206711905Y-129947200D01*
X206711905Y-129947200D02*
X206616667Y-129994819D01*
X206616667Y-129994819D02*
X206426191Y-129994819D01*
X206426191Y-129994819D02*
X206330953Y-129947200D01*
X207664286Y-129328152D02*
X207664286Y-129994819D01*
X207235715Y-129328152D02*
X207235715Y-129851961D01*
X207235715Y-129851961D02*
X207283334Y-129947200D01*
X207283334Y-129947200D02*
X207378572Y-129994819D01*
X207378572Y-129994819D02*
X207521429Y-129994819D01*
X207521429Y-129994819D02*
X207616667Y-129947200D01*
X207616667Y-129947200D02*
X207664286Y-129899580D01*
X207997620Y-129328152D02*
X208378572Y-129328152D01*
X208140477Y-128994819D02*
X208140477Y-129851961D01*
X208140477Y-129851961D02*
X208188096Y-129947200D01*
X208188096Y-129947200D02*
X208283334Y-129994819D01*
X208283334Y-129994819D02*
X208378572Y-129994819D01*
X149098095Y-160447200D02*
X149240952Y-160494819D01*
X149240952Y-160494819D02*
X149479047Y-160494819D01*
X149479047Y-160494819D02*
X149574285Y-160447200D01*
X149574285Y-160447200D02*
X149621904Y-160399580D01*
X149621904Y-160399580D02*
X149669523Y-160304342D01*
X149669523Y-160304342D02*
X149669523Y-160209104D01*
X149669523Y-160209104D02*
X149621904Y-160113866D01*
X149621904Y-160113866D02*
X149574285Y-160066247D01*
X149574285Y-160066247D02*
X149479047Y-160018628D01*
X149479047Y-160018628D02*
X149288571Y-159971009D01*
X149288571Y-159971009D02*
X149193333Y-159923390D01*
X149193333Y-159923390D02*
X149145714Y-159875771D01*
X149145714Y-159875771D02*
X149098095Y-159780533D01*
X149098095Y-159780533D02*
X149098095Y-159685295D01*
X149098095Y-159685295D02*
X149145714Y-159590057D01*
X149145714Y-159590057D02*
X149193333Y-159542438D01*
X149193333Y-159542438D02*
X149288571Y-159494819D01*
X149288571Y-159494819D02*
X149526666Y-159494819D01*
X149526666Y-159494819D02*
X149669523Y-159542438D01*
X150621904Y-160494819D02*
X150050476Y-160494819D01*
X150336190Y-160494819D02*
X150336190Y-159494819D01*
X150336190Y-159494819D02*
X150240952Y-159637676D01*
X150240952Y-159637676D02*
X150145714Y-159732914D01*
X150145714Y-159732914D02*
X150050476Y-159780533D01*
X146621904Y-166861009D02*
X146288571Y-166861009D01*
X146288571Y-167384819D02*
X146288571Y-166384819D01*
X146288571Y-166384819D02*
X146764761Y-166384819D01*
X147288571Y-167384819D02*
X147193333Y-167337200D01*
X147193333Y-167337200D02*
X147145714Y-167241961D01*
X147145714Y-167241961D02*
X147145714Y-166384819D01*
X147669524Y-167384819D02*
X147669524Y-166718152D01*
X147669524Y-166384819D02*
X147621905Y-166432438D01*
X147621905Y-166432438D02*
X147669524Y-166480057D01*
X147669524Y-166480057D02*
X147717143Y-166432438D01*
X147717143Y-166432438D02*
X147669524Y-166384819D01*
X147669524Y-166384819D02*
X147669524Y-166480057D01*
X148145714Y-166718152D02*
X148145714Y-167718152D01*
X148145714Y-166765771D02*
X148240952Y-166718152D01*
X148240952Y-166718152D02*
X148431428Y-166718152D01*
X148431428Y-166718152D02*
X148526666Y-166765771D01*
X148526666Y-166765771D02*
X148574285Y-166813390D01*
X148574285Y-166813390D02*
X148621904Y-166908628D01*
X148621904Y-166908628D02*
X148621904Y-167194342D01*
X148621904Y-167194342D02*
X148574285Y-167289580D01*
X148574285Y-167289580D02*
X148526666Y-167337200D01*
X148526666Y-167337200D02*
X148431428Y-167384819D01*
X148431428Y-167384819D02*
X148240952Y-167384819D01*
X148240952Y-167384819D02*
X148145714Y-167337200D01*
X149383809Y-166861009D02*
X149526666Y-166908628D01*
X149526666Y-166908628D02*
X149574285Y-166956247D01*
X149574285Y-166956247D02*
X149621904Y-167051485D01*
X149621904Y-167051485D02*
X149621904Y-167194342D01*
X149621904Y-167194342D02*
X149574285Y-167289580D01*
X149574285Y-167289580D02*
X149526666Y-167337200D01*
X149526666Y-167337200D02*
X149431428Y-167384819D01*
X149431428Y-167384819D02*
X149050476Y-167384819D01*
X149050476Y-167384819D02*
X149050476Y-166384819D01*
X149050476Y-166384819D02*
X149383809Y-166384819D01*
X149383809Y-166384819D02*
X149479047Y-166432438D01*
X149479047Y-166432438D02*
X149526666Y-166480057D01*
X149526666Y-166480057D02*
X149574285Y-166575295D01*
X149574285Y-166575295D02*
X149574285Y-166670533D01*
X149574285Y-166670533D02*
X149526666Y-166765771D01*
X149526666Y-166765771D02*
X149479047Y-166813390D01*
X149479047Y-166813390D02*
X149383809Y-166861009D01*
X149383809Y-166861009D02*
X149050476Y-166861009D01*
X150479047Y-166718152D02*
X150479047Y-167384819D01*
X150050476Y-166718152D02*
X150050476Y-167241961D01*
X150050476Y-167241961D02*
X150098095Y-167337200D01*
X150098095Y-167337200D02*
X150193333Y-167384819D01*
X150193333Y-167384819D02*
X150336190Y-167384819D01*
X150336190Y-167384819D02*
X150431428Y-167337200D01*
X150431428Y-167337200D02*
X150479047Y-167289580D01*
X150812381Y-166718152D02*
X151193333Y-166718152D01*
X150955238Y-166384819D02*
X150955238Y-167241961D01*
X150955238Y-167241961D02*
X151002857Y-167337200D01*
X151002857Y-167337200D02*
X151098095Y-167384819D01*
X151098095Y-167384819D02*
X151193333Y-167384819D01*
X151383810Y-166718152D02*
X151764762Y-166718152D01*
X151526667Y-166384819D02*
X151526667Y-167241961D01*
X151526667Y-167241961D02*
X151574286Y-167337200D01*
X151574286Y-167337200D02*
X151669524Y-167384819D01*
X151669524Y-167384819D02*
X151764762Y-167384819D01*
X152240953Y-167384819D02*
X152145715Y-167337200D01*
X152145715Y-167337200D02*
X152098096Y-167289580D01*
X152098096Y-167289580D02*
X152050477Y-167194342D01*
X152050477Y-167194342D02*
X152050477Y-166908628D01*
X152050477Y-166908628D02*
X152098096Y-166813390D01*
X152098096Y-166813390D02*
X152145715Y-166765771D01*
X152145715Y-166765771D02*
X152240953Y-166718152D01*
X152240953Y-166718152D02*
X152383810Y-166718152D01*
X152383810Y-166718152D02*
X152479048Y-166765771D01*
X152479048Y-166765771D02*
X152526667Y-166813390D01*
X152526667Y-166813390D02*
X152574286Y-166908628D01*
X152574286Y-166908628D02*
X152574286Y-167194342D01*
X152574286Y-167194342D02*
X152526667Y-167289580D01*
X152526667Y-167289580D02*
X152479048Y-167337200D01*
X152479048Y-167337200D02*
X152383810Y-167384819D01*
X152383810Y-167384819D02*
X152240953Y-167384819D01*
X153002858Y-166718152D02*
X153002858Y-167384819D01*
X153002858Y-166813390D02*
X153050477Y-166765771D01*
X153050477Y-166765771D02*
X153145715Y-166718152D01*
X153145715Y-166718152D02*
X153288572Y-166718152D01*
X153288572Y-166718152D02*
X153383810Y-166765771D01*
X153383810Y-166765771D02*
X153431429Y-166861009D01*
X153431429Y-166861009D02*
X153431429Y-167384819D01*
X168630828Y-122710952D02*
X168600352Y-122771904D01*
X168600352Y-122771904D02*
X168539400Y-122832857D01*
X168539400Y-122832857D02*
X168447971Y-122924285D01*
X168447971Y-122924285D02*
X168417495Y-122985238D01*
X168417495Y-122985238D02*
X168417495Y-123046190D01*
X168569876Y-123015714D02*
X168539400Y-123076666D01*
X168539400Y-123076666D02*
X168478447Y-123137619D01*
X168478447Y-123137619D02*
X168356542Y-123168095D01*
X168356542Y-123168095D02*
X168143209Y-123168095D01*
X168143209Y-123168095D02*
X168021304Y-123137619D01*
X168021304Y-123137619D02*
X167960352Y-123076666D01*
X167960352Y-123076666D02*
X167929876Y-123015714D01*
X167929876Y-123015714D02*
X167929876Y-122893809D01*
X167929876Y-122893809D02*
X167960352Y-122832857D01*
X167960352Y-122832857D02*
X168021304Y-122771904D01*
X168021304Y-122771904D02*
X168143209Y-122741428D01*
X168143209Y-122741428D02*
X168356542Y-122741428D01*
X168356542Y-122741428D02*
X168478447Y-122771904D01*
X168478447Y-122771904D02*
X168539400Y-122832857D01*
X168539400Y-122832857D02*
X168569876Y-122893809D01*
X168569876Y-122893809D02*
X168569876Y-123015714D01*
X167990828Y-122497619D02*
X167960352Y-122467143D01*
X167960352Y-122467143D02*
X167929876Y-122406190D01*
X167929876Y-122406190D02*
X167929876Y-122253809D01*
X167929876Y-122253809D02*
X167960352Y-122192857D01*
X167960352Y-122192857D02*
X167990828Y-122162381D01*
X167990828Y-122162381D02*
X168051780Y-122131904D01*
X168051780Y-122131904D02*
X168112733Y-122131904D01*
X168112733Y-122131904D02*
X168204161Y-122162381D01*
X168204161Y-122162381D02*
X168569876Y-122528095D01*
X168569876Y-122528095D02*
X168569876Y-122131904D01*
X202426190Y-149687581D02*
X202378571Y-149735201D01*
X202378571Y-149735201D02*
X202235714Y-149782820D01*
X202235714Y-149782820D02*
X202140476Y-149782820D01*
X202140476Y-149782820D02*
X201997619Y-149735201D01*
X201997619Y-149735201D02*
X201902381Y-149639962D01*
X201902381Y-149639962D02*
X201854762Y-149544724D01*
X201854762Y-149544724D02*
X201807143Y-149354248D01*
X201807143Y-149354248D02*
X201807143Y-149211391D01*
X201807143Y-149211391D02*
X201854762Y-149020915D01*
X201854762Y-149020915D02*
X201902381Y-148925677D01*
X201902381Y-148925677D02*
X201997619Y-148830439D01*
X201997619Y-148830439D02*
X202140476Y-148782820D01*
X202140476Y-148782820D02*
X202235714Y-148782820D01*
X202235714Y-148782820D02*
X202378571Y-148830439D01*
X202378571Y-148830439D02*
X202426190Y-148878058D01*
X202997619Y-149782820D02*
X202902381Y-149735201D01*
X202902381Y-149735201D02*
X202854762Y-149687581D01*
X202854762Y-149687581D02*
X202807143Y-149592343D01*
X202807143Y-149592343D02*
X202807143Y-149306629D01*
X202807143Y-149306629D02*
X202854762Y-149211391D01*
X202854762Y-149211391D02*
X202902381Y-149163772D01*
X202902381Y-149163772D02*
X202997619Y-149116153D01*
X202997619Y-149116153D02*
X203140476Y-149116153D01*
X203140476Y-149116153D02*
X203235714Y-149163772D01*
X203235714Y-149163772D02*
X203283333Y-149211391D01*
X203283333Y-149211391D02*
X203330952Y-149306629D01*
X203330952Y-149306629D02*
X203330952Y-149592343D01*
X203330952Y-149592343D02*
X203283333Y-149687581D01*
X203283333Y-149687581D02*
X203235714Y-149735201D01*
X203235714Y-149735201D02*
X203140476Y-149782820D01*
X203140476Y-149782820D02*
X202997619Y-149782820D01*
X203759524Y-149116153D02*
X203759524Y-149782820D01*
X203759524Y-149211391D02*
X203807143Y-149163772D01*
X203807143Y-149163772D02*
X203902381Y-149116153D01*
X203902381Y-149116153D02*
X204045238Y-149116153D01*
X204045238Y-149116153D02*
X204140476Y-149163772D01*
X204140476Y-149163772D02*
X204188095Y-149259010D01*
X204188095Y-149259010D02*
X204188095Y-149782820D01*
X204664286Y-149116153D02*
X204664286Y-149782820D01*
X204664286Y-149211391D02*
X204711905Y-149163772D01*
X204711905Y-149163772D02*
X204807143Y-149116153D01*
X204807143Y-149116153D02*
X204950000Y-149116153D01*
X204950000Y-149116153D02*
X205045238Y-149163772D01*
X205045238Y-149163772D02*
X205092857Y-149259010D01*
X205092857Y-149259010D02*
X205092857Y-149782820D01*
X205997619Y-148782820D02*
X205807143Y-148782820D01*
X205807143Y-148782820D02*
X205711905Y-148830439D01*
X205711905Y-148830439D02*
X205664286Y-148878058D01*
X205664286Y-148878058D02*
X205569048Y-149020915D01*
X205569048Y-149020915D02*
X205521429Y-149211391D01*
X205521429Y-149211391D02*
X205521429Y-149592343D01*
X205521429Y-149592343D02*
X205569048Y-149687581D01*
X205569048Y-149687581D02*
X205616667Y-149735201D01*
X205616667Y-149735201D02*
X205711905Y-149782820D01*
X205711905Y-149782820D02*
X205902381Y-149782820D01*
X205902381Y-149782820D02*
X205997619Y-149735201D01*
X205997619Y-149735201D02*
X206045238Y-149687581D01*
X206045238Y-149687581D02*
X206092857Y-149592343D01*
X206092857Y-149592343D02*
X206092857Y-149354248D01*
X206092857Y-149354248D02*
X206045238Y-149259010D01*
X206045238Y-149259010D02*
X205997619Y-149211391D01*
X205997619Y-149211391D02*
X205902381Y-149163772D01*
X205902381Y-149163772D02*
X205711905Y-149163772D01*
X205711905Y-149163772D02*
X205616667Y-149211391D01*
X205616667Y-149211391D02*
X205569048Y-149259010D01*
X205569048Y-149259010D02*
X205521429Y-149354248D01*
X200711904Y-151799010D02*
X200378571Y-151799010D01*
X200378571Y-152322820D02*
X200378571Y-151322820D01*
X200378571Y-151322820D02*
X200854761Y-151322820D01*
X201378571Y-152322820D02*
X201283333Y-152275201D01*
X201283333Y-152275201D02*
X201235714Y-152179962D01*
X201235714Y-152179962D02*
X201235714Y-151322820D01*
X201759524Y-152322820D02*
X201759524Y-151656153D01*
X201759524Y-151322820D02*
X201711905Y-151370439D01*
X201711905Y-151370439D02*
X201759524Y-151418058D01*
X201759524Y-151418058D02*
X201807143Y-151370439D01*
X201807143Y-151370439D02*
X201759524Y-151322820D01*
X201759524Y-151322820D02*
X201759524Y-151418058D01*
X202235714Y-151656153D02*
X202235714Y-152656153D01*
X202235714Y-151703772D02*
X202330952Y-151656153D01*
X202330952Y-151656153D02*
X202521428Y-151656153D01*
X202521428Y-151656153D02*
X202616666Y-151703772D01*
X202616666Y-151703772D02*
X202664285Y-151751391D01*
X202664285Y-151751391D02*
X202711904Y-151846629D01*
X202711904Y-151846629D02*
X202711904Y-152132343D01*
X202711904Y-152132343D02*
X202664285Y-152227581D01*
X202664285Y-152227581D02*
X202616666Y-152275201D01*
X202616666Y-152275201D02*
X202521428Y-152322820D01*
X202521428Y-152322820D02*
X202330952Y-152322820D01*
X202330952Y-152322820D02*
X202235714Y-152275201D01*
X203473809Y-151799010D02*
X203616666Y-151846629D01*
X203616666Y-151846629D02*
X203664285Y-151894248D01*
X203664285Y-151894248D02*
X203711904Y-151989486D01*
X203711904Y-151989486D02*
X203711904Y-152132343D01*
X203711904Y-152132343D02*
X203664285Y-152227581D01*
X203664285Y-152227581D02*
X203616666Y-152275201D01*
X203616666Y-152275201D02*
X203521428Y-152322820D01*
X203521428Y-152322820D02*
X203140476Y-152322820D01*
X203140476Y-152322820D02*
X203140476Y-151322820D01*
X203140476Y-151322820D02*
X203473809Y-151322820D01*
X203473809Y-151322820D02*
X203569047Y-151370439D01*
X203569047Y-151370439D02*
X203616666Y-151418058D01*
X203616666Y-151418058D02*
X203664285Y-151513296D01*
X203664285Y-151513296D02*
X203664285Y-151608534D01*
X203664285Y-151608534D02*
X203616666Y-151703772D01*
X203616666Y-151703772D02*
X203569047Y-151751391D01*
X203569047Y-151751391D02*
X203473809Y-151799010D01*
X203473809Y-151799010D02*
X203140476Y-151799010D01*
X204569047Y-151656153D02*
X204569047Y-152322820D01*
X204140476Y-151656153D02*
X204140476Y-152179962D01*
X204140476Y-152179962D02*
X204188095Y-152275201D01*
X204188095Y-152275201D02*
X204283333Y-152322820D01*
X204283333Y-152322820D02*
X204426190Y-152322820D01*
X204426190Y-152322820D02*
X204521428Y-152275201D01*
X204521428Y-152275201D02*
X204569047Y-152227581D01*
X204902381Y-151656153D02*
X205283333Y-151656153D01*
X205045238Y-151322820D02*
X205045238Y-152179962D01*
X205045238Y-152179962D02*
X205092857Y-152275201D01*
X205092857Y-152275201D02*
X205188095Y-152322820D01*
X205188095Y-152322820D02*
X205283333Y-152322820D01*
X205473810Y-151656153D02*
X205854762Y-151656153D01*
X205616667Y-151322820D02*
X205616667Y-152179962D01*
X205616667Y-152179962D02*
X205664286Y-152275201D01*
X205664286Y-152275201D02*
X205759524Y-152322820D01*
X205759524Y-152322820D02*
X205854762Y-152322820D01*
X206330953Y-152322820D02*
X206235715Y-152275201D01*
X206235715Y-152275201D02*
X206188096Y-152227581D01*
X206188096Y-152227581D02*
X206140477Y-152132343D01*
X206140477Y-152132343D02*
X206140477Y-151846629D01*
X206140477Y-151846629D02*
X206188096Y-151751391D01*
X206188096Y-151751391D02*
X206235715Y-151703772D01*
X206235715Y-151703772D02*
X206330953Y-151656153D01*
X206330953Y-151656153D02*
X206473810Y-151656153D01*
X206473810Y-151656153D02*
X206569048Y-151703772D01*
X206569048Y-151703772D02*
X206616667Y-151751391D01*
X206616667Y-151751391D02*
X206664286Y-151846629D01*
X206664286Y-151846629D02*
X206664286Y-152132343D01*
X206664286Y-152132343D02*
X206616667Y-152227581D01*
X206616667Y-152227581D02*
X206569048Y-152275201D01*
X206569048Y-152275201D02*
X206473810Y-152322820D01*
X206473810Y-152322820D02*
X206330953Y-152322820D01*
X207092858Y-151656153D02*
X207092858Y-152322820D01*
X207092858Y-151751391D02*
X207140477Y-151703772D01*
X207140477Y-151703772D02*
X207235715Y-151656153D01*
X207235715Y-151656153D02*
X207378572Y-151656153D01*
X207378572Y-151656153D02*
X207473810Y-151703772D01*
X207473810Y-151703772D02*
X207521429Y-151799010D01*
X207521429Y-151799010D02*
X207521429Y-152322820D01*
X198715333Y-160634819D02*
X198382000Y-160158628D01*
X198143905Y-160634819D02*
X198143905Y-159634819D01*
X198143905Y-159634819D02*
X198524857Y-159634819D01*
X198524857Y-159634819D02*
X198620095Y-159682438D01*
X198620095Y-159682438D02*
X198667714Y-159730057D01*
X198667714Y-159730057D02*
X198715333Y-159825295D01*
X198715333Y-159825295D02*
X198715333Y-159968152D01*
X198715333Y-159968152D02*
X198667714Y-160063390D01*
X198667714Y-160063390D02*
X198620095Y-160111009D01*
X198620095Y-160111009D02*
X198524857Y-160158628D01*
X198524857Y-160158628D02*
X198143905Y-160158628D01*
X199048667Y-159634819D02*
X199667714Y-159634819D01*
X199667714Y-159634819D02*
X199334381Y-160015771D01*
X199334381Y-160015771D02*
X199477238Y-160015771D01*
X199477238Y-160015771D02*
X199572476Y-160063390D01*
X199572476Y-160063390D02*
X199620095Y-160111009D01*
X199620095Y-160111009D02*
X199667714Y-160206247D01*
X199667714Y-160206247D02*
X199667714Y-160444342D01*
X199667714Y-160444342D02*
X199620095Y-160539580D01*
X199620095Y-160539580D02*
X199572476Y-160587200D01*
X199572476Y-160587200D02*
X199477238Y-160634819D01*
X199477238Y-160634819D02*
X199191524Y-160634819D01*
X199191524Y-160634819D02*
X199096286Y-160587200D01*
X199096286Y-160587200D02*
X199048667Y-160539580D01*
X214717333Y-121159580D02*
X214669714Y-121207200D01*
X214669714Y-121207200D02*
X214526857Y-121254819D01*
X214526857Y-121254819D02*
X214431619Y-121254819D01*
X214431619Y-121254819D02*
X214288762Y-121207200D01*
X214288762Y-121207200D02*
X214193524Y-121111961D01*
X214193524Y-121111961D02*
X214145905Y-121016723D01*
X214145905Y-121016723D02*
X214098286Y-120826247D01*
X214098286Y-120826247D02*
X214098286Y-120683390D01*
X214098286Y-120683390D02*
X214145905Y-120492914D01*
X214145905Y-120492914D02*
X214193524Y-120397676D01*
X214193524Y-120397676D02*
X214288762Y-120302438D01*
X214288762Y-120302438D02*
X214431619Y-120254819D01*
X214431619Y-120254819D02*
X214526857Y-120254819D01*
X214526857Y-120254819D02*
X214669714Y-120302438D01*
X214669714Y-120302438D02*
X214717333Y-120350057D01*
X215574476Y-120254819D02*
X215384000Y-120254819D01*
X215384000Y-120254819D02*
X215288762Y-120302438D01*
X215288762Y-120302438D02*
X215241143Y-120350057D01*
X215241143Y-120350057D02*
X215145905Y-120492914D01*
X215145905Y-120492914D02*
X215098286Y-120683390D01*
X215098286Y-120683390D02*
X215098286Y-121064342D01*
X215098286Y-121064342D02*
X215145905Y-121159580D01*
X215145905Y-121159580D02*
X215193524Y-121207200D01*
X215193524Y-121207200D02*
X215288762Y-121254819D01*
X215288762Y-121254819D02*
X215479238Y-121254819D01*
X215479238Y-121254819D02*
X215574476Y-121207200D01*
X215574476Y-121207200D02*
X215622095Y-121159580D01*
X215622095Y-121159580D02*
X215669714Y-121064342D01*
X215669714Y-121064342D02*
X215669714Y-120826247D01*
X215669714Y-120826247D02*
X215622095Y-120731009D01*
X215622095Y-120731009D02*
X215574476Y-120683390D01*
X215574476Y-120683390D02*
X215479238Y-120635771D01*
X215479238Y-120635771D02*
X215288762Y-120635771D01*
X215288762Y-120635771D02*
X215193524Y-120683390D01*
X215193524Y-120683390D02*
X215145905Y-120731009D01*
X215145905Y-120731009D02*
X215098286Y-120826247D01*
X175554819Y-119038666D02*
X175078628Y-119371999D01*
X175554819Y-119610094D02*
X174554819Y-119610094D01*
X174554819Y-119610094D02*
X174554819Y-119229142D01*
X174554819Y-119229142D02*
X174602438Y-119133904D01*
X174602438Y-119133904D02*
X174650057Y-119086285D01*
X174650057Y-119086285D02*
X174745295Y-119038666D01*
X174745295Y-119038666D02*
X174888152Y-119038666D01*
X174888152Y-119038666D02*
X174983390Y-119086285D01*
X174983390Y-119086285D02*
X175031009Y-119133904D01*
X175031009Y-119133904D02*
X175078628Y-119229142D01*
X175078628Y-119229142D02*
X175078628Y-119610094D01*
X174554819Y-118181523D02*
X174554819Y-118371999D01*
X174554819Y-118371999D02*
X174602438Y-118467237D01*
X174602438Y-118467237D02*
X174650057Y-118514856D01*
X174650057Y-118514856D02*
X174792914Y-118610094D01*
X174792914Y-118610094D02*
X174983390Y-118657713D01*
X174983390Y-118657713D02*
X175364342Y-118657713D01*
X175364342Y-118657713D02*
X175459580Y-118610094D01*
X175459580Y-118610094D02*
X175507200Y-118562475D01*
X175507200Y-118562475D02*
X175554819Y-118467237D01*
X175554819Y-118467237D02*
X175554819Y-118276761D01*
X175554819Y-118276761D02*
X175507200Y-118181523D01*
X175507200Y-118181523D02*
X175459580Y-118133904D01*
X175459580Y-118133904D02*
X175364342Y-118086285D01*
X175364342Y-118086285D02*
X175126247Y-118086285D01*
X175126247Y-118086285D02*
X175031009Y-118133904D01*
X175031009Y-118133904D02*
X174983390Y-118181523D01*
X174983390Y-118181523D02*
X174935771Y-118276761D01*
X174935771Y-118276761D02*
X174935771Y-118467237D01*
X174935771Y-118467237D02*
X174983390Y-118562475D01*
X174983390Y-118562475D02*
X175031009Y-118610094D01*
X175031009Y-118610094D02*
X175126247Y-118657713D01*
X207637142Y-165968819D02*
X207303809Y-165492628D01*
X207065714Y-165968819D02*
X207065714Y-164968819D01*
X207065714Y-164968819D02*
X207446666Y-164968819D01*
X207446666Y-164968819D02*
X207541904Y-165016438D01*
X207541904Y-165016438D02*
X207589523Y-165064057D01*
X207589523Y-165064057D02*
X207637142Y-165159295D01*
X207637142Y-165159295D02*
X207637142Y-165302152D01*
X207637142Y-165302152D02*
X207589523Y-165397390D01*
X207589523Y-165397390D02*
X207541904Y-165445009D01*
X207541904Y-165445009D02*
X207446666Y-165492628D01*
X207446666Y-165492628D02*
X207065714Y-165492628D01*
X208589523Y-165968819D02*
X208018095Y-165968819D01*
X208303809Y-165968819D02*
X208303809Y-164968819D01*
X208303809Y-164968819D02*
X208208571Y-165111676D01*
X208208571Y-165111676D02*
X208113333Y-165206914D01*
X208113333Y-165206914D02*
X208018095Y-165254533D01*
X208970476Y-165064057D02*
X209018095Y-165016438D01*
X209018095Y-165016438D02*
X209113333Y-164968819D01*
X209113333Y-164968819D02*
X209351428Y-164968819D01*
X209351428Y-164968819D02*
X209446666Y-165016438D01*
X209446666Y-165016438D02*
X209494285Y-165064057D01*
X209494285Y-165064057D02*
X209541904Y-165159295D01*
X209541904Y-165159295D02*
X209541904Y-165254533D01*
X209541904Y-165254533D02*
X209494285Y-165397390D01*
X209494285Y-165397390D02*
X208922857Y-165968819D01*
X208922857Y-165968819D02*
X209541904Y-165968819D01*
X197445333Y-109475580D02*
X197397714Y-109523200D01*
X197397714Y-109523200D02*
X197254857Y-109570819D01*
X197254857Y-109570819D02*
X197159619Y-109570819D01*
X197159619Y-109570819D02*
X197016762Y-109523200D01*
X197016762Y-109523200D02*
X196921524Y-109427961D01*
X196921524Y-109427961D02*
X196873905Y-109332723D01*
X196873905Y-109332723D02*
X196826286Y-109142247D01*
X196826286Y-109142247D02*
X196826286Y-108999390D01*
X196826286Y-108999390D02*
X196873905Y-108808914D01*
X196873905Y-108808914D02*
X196921524Y-108713676D01*
X196921524Y-108713676D02*
X197016762Y-108618438D01*
X197016762Y-108618438D02*
X197159619Y-108570819D01*
X197159619Y-108570819D02*
X197254857Y-108570819D01*
X197254857Y-108570819D02*
X197397714Y-108618438D01*
X197397714Y-108618438D02*
X197445333Y-108666057D01*
X197778667Y-108570819D02*
X198397714Y-108570819D01*
X198397714Y-108570819D02*
X198064381Y-108951771D01*
X198064381Y-108951771D02*
X198207238Y-108951771D01*
X198207238Y-108951771D02*
X198302476Y-108999390D01*
X198302476Y-108999390D02*
X198350095Y-109047009D01*
X198350095Y-109047009D02*
X198397714Y-109142247D01*
X198397714Y-109142247D02*
X198397714Y-109380342D01*
X198397714Y-109380342D02*
X198350095Y-109475580D01*
X198350095Y-109475580D02*
X198302476Y-109523200D01*
X198302476Y-109523200D02*
X198207238Y-109570819D01*
X198207238Y-109570819D02*
X197921524Y-109570819D01*
X197921524Y-109570819D02*
X197826286Y-109523200D01*
X197826286Y-109523200D02*
X197778667Y-109475580D01*
X184658095Y-160447200D02*
X184800952Y-160494819D01*
X184800952Y-160494819D02*
X185039047Y-160494819D01*
X185039047Y-160494819D02*
X185134285Y-160447200D01*
X185134285Y-160447200D02*
X185181904Y-160399580D01*
X185181904Y-160399580D02*
X185229523Y-160304342D01*
X185229523Y-160304342D02*
X185229523Y-160209104D01*
X185229523Y-160209104D02*
X185181904Y-160113866D01*
X185181904Y-160113866D02*
X185134285Y-160066247D01*
X185134285Y-160066247D02*
X185039047Y-160018628D01*
X185039047Y-160018628D02*
X184848571Y-159971009D01*
X184848571Y-159971009D02*
X184753333Y-159923390D01*
X184753333Y-159923390D02*
X184705714Y-159875771D01*
X184705714Y-159875771D02*
X184658095Y-159780533D01*
X184658095Y-159780533D02*
X184658095Y-159685295D01*
X184658095Y-159685295D02*
X184705714Y-159590057D01*
X184705714Y-159590057D02*
X184753333Y-159542438D01*
X184753333Y-159542438D02*
X184848571Y-159494819D01*
X184848571Y-159494819D02*
X185086666Y-159494819D01*
X185086666Y-159494819D02*
X185229523Y-159542438D01*
X186134285Y-159494819D02*
X185658095Y-159494819D01*
X185658095Y-159494819D02*
X185610476Y-159971009D01*
X185610476Y-159971009D02*
X185658095Y-159923390D01*
X185658095Y-159923390D02*
X185753333Y-159875771D01*
X185753333Y-159875771D02*
X185991428Y-159875771D01*
X185991428Y-159875771D02*
X186086666Y-159923390D01*
X186086666Y-159923390D02*
X186134285Y-159971009D01*
X186134285Y-159971009D02*
X186181904Y-160066247D01*
X186181904Y-160066247D02*
X186181904Y-160304342D01*
X186181904Y-160304342D02*
X186134285Y-160399580D01*
X186134285Y-160399580D02*
X186086666Y-160447200D01*
X186086666Y-160447200D02*
X185991428Y-160494819D01*
X185991428Y-160494819D02*
X185753333Y-160494819D01*
X185753333Y-160494819D02*
X185658095Y-160447200D01*
X185658095Y-160447200D02*
X185610476Y-160399580D01*
X183086666Y-166861009D02*
X183229523Y-166908628D01*
X183229523Y-166908628D02*
X183277142Y-166956247D01*
X183277142Y-166956247D02*
X183324761Y-167051485D01*
X183324761Y-167051485D02*
X183324761Y-167194342D01*
X183324761Y-167194342D02*
X183277142Y-167289580D01*
X183277142Y-167289580D02*
X183229523Y-167337200D01*
X183229523Y-167337200D02*
X183134285Y-167384819D01*
X183134285Y-167384819D02*
X182753333Y-167384819D01*
X182753333Y-167384819D02*
X182753333Y-166384819D01*
X182753333Y-166384819D02*
X183086666Y-166384819D01*
X183086666Y-166384819D02*
X183181904Y-166432438D01*
X183181904Y-166432438D02*
X183229523Y-166480057D01*
X183229523Y-166480057D02*
X183277142Y-166575295D01*
X183277142Y-166575295D02*
X183277142Y-166670533D01*
X183277142Y-166670533D02*
X183229523Y-166765771D01*
X183229523Y-166765771D02*
X183181904Y-166813390D01*
X183181904Y-166813390D02*
X183086666Y-166861009D01*
X183086666Y-166861009D02*
X182753333Y-166861009D01*
X184181904Y-166718152D02*
X184181904Y-167384819D01*
X183753333Y-166718152D02*
X183753333Y-167241961D01*
X183753333Y-167241961D02*
X183800952Y-167337200D01*
X183800952Y-167337200D02*
X183896190Y-167384819D01*
X183896190Y-167384819D02*
X184039047Y-167384819D01*
X184039047Y-167384819D02*
X184134285Y-167337200D01*
X184134285Y-167337200D02*
X184181904Y-167289580D01*
X184515238Y-166718152D02*
X184896190Y-166718152D01*
X184658095Y-166384819D02*
X184658095Y-167241961D01*
X184658095Y-167241961D02*
X184705714Y-167337200D01*
X184705714Y-167337200D02*
X184800952Y-167384819D01*
X184800952Y-167384819D02*
X184896190Y-167384819D01*
X185086667Y-166718152D02*
X185467619Y-166718152D01*
X185229524Y-166384819D02*
X185229524Y-167241961D01*
X185229524Y-167241961D02*
X185277143Y-167337200D01*
X185277143Y-167337200D02*
X185372381Y-167384819D01*
X185372381Y-167384819D02*
X185467619Y-167384819D01*
X185943810Y-167384819D02*
X185848572Y-167337200D01*
X185848572Y-167337200D02*
X185800953Y-167289580D01*
X185800953Y-167289580D02*
X185753334Y-167194342D01*
X185753334Y-167194342D02*
X185753334Y-166908628D01*
X185753334Y-166908628D02*
X185800953Y-166813390D01*
X185800953Y-166813390D02*
X185848572Y-166765771D01*
X185848572Y-166765771D02*
X185943810Y-166718152D01*
X185943810Y-166718152D02*
X186086667Y-166718152D01*
X186086667Y-166718152D02*
X186181905Y-166765771D01*
X186181905Y-166765771D02*
X186229524Y-166813390D01*
X186229524Y-166813390D02*
X186277143Y-166908628D01*
X186277143Y-166908628D02*
X186277143Y-167194342D01*
X186277143Y-167194342D02*
X186229524Y-167289580D01*
X186229524Y-167289580D02*
X186181905Y-167337200D01*
X186181905Y-167337200D02*
X186086667Y-167384819D01*
X186086667Y-167384819D02*
X185943810Y-167384819D01*
X186705715Y-166718152D02*
X186705715Y-167384819D01*
X186705715Y-166813390D02*
X186753334Y-166765771D01*
X186753334Y-166765771D02*
X186848572Y-166718152D01*
X186848572Y-166718152D02*
X186991429Y-166718152D01*
X186991429Y-166718152D02*
X187086667Y-166765771D01*
X187086667Y-166765771D02*
X187134286Y-166861009D01*
X187134286Y-166861009D02*
X187134286Y-167384819D01*
X188086667Y-166384819D02*
X187610477Y-166384819D01*
X187610477Y-166384819D02*
X187562858Y-166861009D01*
X187562858Y-166861009D02*
X187610477Y-166813390D01*
X187610477Y-166813390D02*
X187705715Y-166765771D01*
X187705715Y-166765771D02*
X187943810Y-166765771D01*
X187943810Y-166765771D02*
X188039048Y-166813390D01*
X188039048Y-166813390D02*
X188086667Y-166861009D01*
X188086667Y-166861009D02*
X188134286Y-166956247D01*
X188134286Y-166956247D02*
X188134286Y-167194342D01*
X188134286Y-167194342D02*
X188086667Y-167289580D01*
X188086667Y-167289580D02*
X188039048Y-167337200D01*
X188039048Y-167337200D02*
X187943810Y-167384819D01*
X187943810Y-167384819D02*
X187705715Y-167384819D01*
X187705715Y-167384819D02*
X187610477Y-167337200D01*
X187610477Y-167337200D02*
X187562858Y-167289580D01*
X183094666Y-89176819D02*
X183094666Y-89891104D01*
X183094666Y-89891104D02*
X183047047Y-90033961D01*
X183047047Y-90033961D02*
X182951809Y-90129200D01*
X182951809Y-90129200D02*
X182808952Y-90176819D01*
X182808952Y-90176819D02*
X182713714Y-90176819D01*
X183999428Y-89510152D02*
X183999428Y-90176819D01*
X183761333Y-89129200D02*
X183523238Y-89843485D01*
X183523238Y-89843485D02*
X184142285Y-89843485D01*
X213955333Y-105068819D02*
X213479143Y-105068819D01*
X213479143Y-105068819D02*
X213479143Y-104068819D01*
X214812476Y-105068819D02*
X214241048Y-105068819D01*
X214526762Y-105068819D02*
X214526762Y-104068819D01*
X214526762Y-104068819D02*
X214431524Y-104211676D01*
X214431524Y-104211676D02*
X214336286Y-104306914D01*
X214336286Y-104306914D02*
X214241048Y-104354533D01*
X191090727Y-157188819D02*
X191662155Y-157188819D01*
X191376441Y-158188819D02*
X191376441Y-157188819D01*
X191852632Y-157188819D02*
X192424060Y-157188819D01*
X192138346Y-158188819D02*
X192138346Y-157188819D01*
X193233584Y-158188819D02*
X192757394Y-158188819D01*
X192757394Y-158188819D02*
X192757394Y-157188819D01*
X186476819Y-122952166D02*
X186000628Y-123285499D01*
X186476819Y-123523594D02*
X185476819Y-123523594D01*
X185476819Y-123523594D02*
X185476819Y-123142642D01*
X185476819Y-123142642D02*
X185524438Y-123047404D01*
X185524438Y-123047404D02*
X185572057Y-122999785D01*
X185572057Y-122999785D02*
X185667295Y-122952166D01*
X185667295Y-122952166D02*
X185810152Y-122952166D01*
X185810152Y-122952166D02*
X185905390Y-122999785D01*
X185905390Y-122999785D02*
X185953009Y-123047404D01*
X185953009Y-123047404D02*
X186000628Y-123142642D01*
X186000628Y-123142642D02*
X186000628Y-123523594D01*
X186476819Y-122475975D02*
X186476819Y-122285499D01*
X186476819Y-122285499D02*
X186429200Y-122190261D01*
X186429200Y-122190261D02*
X186381580Y-122142642D01*
X186381580Y-122142642D02*
X186238723Y-122047404D01*
X186238723Y-122047404D02*
X186048247Y-121999785D01*
X186048247Y-121999785D02*
X185667295Y-121999785D01*
X185667295Y-121999785D02*
X185572057Y-122047404D01*
X185572057Y-122047404D02*
X185524438Y-122095023D01*
X185524438Y-122095023D02*
X185476819Y-122190261D01*
X185476819Y-122190261D02*
X185476819Y-122380737D01*
X185476819Y-122380737D02*
X185524438Y-122475975D01*
X185524438Y-122475975D02*
X185572057Y-122523594D01*
X185572057Y-122523594D02*
X185667295Y-122571213D01*
X185667295Y-122571213D02*
X185905390Y-122571213D01*
X185905390Y-122571213D02*
X186000628Y-122523594D01*
X186000628Y-122523594D02*
X186048247Y-122475975D01*
X186048247Y-122475975D02*
X186095866Y-122380737D01*
X186095866Y-122380737D02*
X186095866Y-122190261D01*
X186095866Y-122190261D02*
X186048247Y-122095023D01*
X186048247Y-122095023D02*
X186000628Y-122047404D01*
X186000628Y-122047404D02*
X185905390Y-121999785D01*
X218706189Y-145139580D02*
X218658570Y-145187200D01*
X218658570Y-145187200D02*
X218515713Y-145234819D01*
X218515713Y-145234819D02*
X218420475Y-145234819D01*
X218420475Y-145234819D02*
X218277618Y-145187200D01*
X218277618Y-145187200D02*
X218182380Y-145091961D01*
X218182380Y-145091961D02*
X218134761Y-144996723D01*
X218134761Y-144996723D02*
X218087142Y-144806247D01*
X218087142Y-144806247D02*
X218087142Y-144663390D01*
X218087142Y-144663390D02*
X218134761Y-144472914D01*
X218134761Y-144472914D02*
X218182380Y-144377676D01*
X218182380Y-144377676D02*
X218277618Y-144282438D01*
X218277618Y-144282438D02*
X218420475Y-144234819D01*
X218420475Y-144234819D02*
X218515713Y-144234819D01*
X218515713Y-144234819D02*
X218658570Y-144282438D01*
X218658570Y-144282438D02*
X218706189Y-144330057D01*
X219277618Y-145234819D02*
X219182380Y-145187200D01*
X219182380Y-145187200D02*
X219134761Y-145139580D01*
X219134761Y-145139580D02*
X219087142Y-145044342D01*
X219087142Y-145044342D02*
X219087142Y-144758628D01*
X219087142Y-144758628D02*
X219134761Y-144663390D01*
X219134761Y-144663390D02*
X219182380Y-144615771D01*
X219182380Y-144615771D02*
X219277618Y-144568152D01*
X219277618Y-144568152D02*
X219420475Y-144568152D01*
X219420475Y-144568152D02*
X219515713Y-144615771D01*
X219515713Y-144615771D02*
X219563332Y-144663390D01*
X219563332Y-144663390D02*
X219610951Y-144758628D01*
X219610951Y-144758628D02*
X219610951Y-145044342D01*
X219610951Y-145044342D02*
X219563332Y-145139580D01*
X219563332Y-145139580D02*
X219515713Y-145187200D01*
X219515713Y-145187200D02*
X219420475Y-145234819D01*
X219420475Y-145234819D02*
X219277618Y-145234819D01*
X220039523Y-144568152D02*
X220039523Y-145234819D01*
X220039523Y-144663390D02*
X220087142Y-144615771D01*
X220087142Y-144615771D02*
X220182380Y-144568152D01*
X220182380Y-144568152D02*
X220325237Y-144568152D01*
X220325237Y-144568152D02*
X220420475Y-144615771D01*
X220420475Y-144615771D02*
X220468094Y-144711009D01*
X220468094Y-144711009D02*
X220468094Y-145234819D01*
X220944285Y-144568152D02*
X220944285Y-145234819D01*
X220944285Y-144663390D02*
X220991904Y-144615771D01*
X220991904Y-144615771D02*
X221087142Y-144568152D01*
X221087142Y-144568152D02*
X221229999Y-144568152D01*
X221229999Y-144568152D02*
X221325237Y-144615771D01*
X221325237Y-144615771D02*
X221372856Y-144711009D01*
X221372856Y-144711009D02*
X221372856Y-145234819D01*
X221991904Y-144663390D02*
X221896666Y-144615771D01*
X221896666Y-144615771D02*
X221849047Y-144568152D01*
X221849047Y-144568152D02*
X221801428Y-144472914D01*
X221801428Y-144472914D02*
X221801428Y-144425295D01*
X221801428Y-144425295D02*
X221849047Y-144330057D01*
X221849047Y-144330057D02*
X221896666Y-144282438D01*
X221896666Y-144282438D02*
X221991904Y-144234819D01*
X221991904Y-144234819D02*
X222182380Y-144234819D01*
X222182380Y-144234819D02*
X222277618Y-144282438D01*
X222277618Y-144282438D02*
X222325237Y-144330057D01*
X222325237Y-144330057D02*
X222372856Y-144425295D01*
X222372856Y-144425295D02*
X222372856Y-144472914D01*
X222372856Y-144472914D02*
X222325237Y-144568152D01*
X222325237Y-144568152D02*
X222277618Y-144615771D01*
X222277618Y-144615771D02*
X222182380Y-144663390D01*
X222182380Y-144663390D02*
X221991904Y-144663390D01*
X221991904Y-144663390D02*
X221896666Y-144711009D01*
X221896666Y-144711009D02*
X221849047Y-144758628D01*
X221849047Y-144758628D02*
X221801428Y-144853866D01*
X221801428Y-144853866D02*
X221801428Y-145044342D01*
X221801428Y-145044342D02*
X221849047Y-145139580D01*
X221849047Y-145139580D02*
X221896666Y-145187200D01*
X221896666Y-145187200D02*
X221991904Y-145234819D01*
X221991904Y-145234819D02*
X222182380Y-145234819D01*
X222182380Y-145234819D02*
X222277618Y-145187200D01*
X222277618Y-145187200D02*
X222325237Y-145139580D01*
X222325237Y-145139580D02*
X222372856Y-145044342D01*
X222372856Y-145044342D02*
X222372856Y-144853866D01*
X222372856Y-144853866D02*
X222325237Y-144758628D01*
X222325237Y-144758628D02*
X222277618Y-144711009D01*
X222277618Y-144711009D02*
X222182380Y-144663390D01*
X215729997Y-147679580D02*
X215682378Y-147727200D01*
X215682378Y-147727200D02*
X215539521Y-147774819D01*
X215539521Y-147774819D02*
X215444283Y-147774819D01*
X215444283Y-147774819D02*
X215301426Y-147727200D01*
X215301426Y-147727200D02*
X215206188Y-147631961D01*
X215206188Y-147631961D02*
X215158569Y-147536723D01*
X215158569Y-147536723D02*
X215110950Y-147346247D01*
X215110950Y-147346247D02*
X215110950Y-147203390D01*
X215110950Y-147203390D02*
X215158569Y-147012914D01*
X215158569Y-147012914D02*
X215206188Y-146917676D01*
X215206188Y-146917676D02*
X215301426Y-146822438D01*
X215301426Y-146822438D02*
X215444283Y-146774819D01*
X215444283Y-146774819D02*
X215539521Y-146774819D01*
X215539521Y-146774819D02*
X215682378Y-146822438D01*
X215682378Y-146822438D02*
X215729997Y-146870057D01*
X216587140Y-147774819D02*
X216587140Y-147251009D01*
X216587140Y-147251009D02*
X216539521Y-147155771D01*
X216539521Y-147155771D02*
X216444283Y-147108152D01*
X216444283Y-147108152D02*
X216253807Y-147108152D01*
X216253807Y-147108152D02*
X216158569Y-147155771D01*
X216587140Y-147727200D02*
X216491902Y-147774819D01*
X216491902Y-147774819D02*
X216253807Y-147774819D01*
X216253807Y-147774819D02*
X216158569Y-147727200D01*
X216158569Y-147727200D02*
X216110950Y-147631961D01*
X216110950Y-147631961D02*
X216110950Y-147536723D01*
X216110950Y-147536723D02*
X216158569Y-147441485D01*
X216158569Y-147441485D02*
X216253807Y-147393866D01*
X216253807Y-147393866D02*
X216491902Y-147393866D01*
X216491902Y-147393866D02*
X216587140Y-147346247D01*
X217063331Y-147108152D02*
X217063331Y-148108152D01*
X217063331Y-147155771D02*
X217158569Y-147108152D01*
X217158569Y-147108152D02*
X217349045Y-147108152D01*
X217349045Y-147108152D02*
X217444283Y-147155771D01*
X217444283Y-147155771D02*
X217491902Y-147203390D01*
X217491902Y-147203390D02*
X217539521Y-147298628D01*
X217539521Y-147298628D02*
X217539521Y-147584342D01*
X217539521Y-147584342D02*
X217491902Y-147679580D01*
X217491902Y-147679580D02*
X217444283Y-147727200D01*
X217444283Y-147727200D02*
X217349045Y-147774819D01*
X217349045Y-147774819D02*
X217158569Y-147774819D01*
X217158569Y-147774819D02*
X217063331Y-147727200D01*
X217825236Y-147108152D02*
X218206188Y-147108152D01*
X217968093Y-146774819D02*
X217968093Y-147631961D01*
X217968093Y-147631961D02*
X218015712Y-147727200D01*
X218015712Y-147727200D02*
X218110950Y-147774819D01*
X218110950Y-147774819D02*
X218206188Y-147774819D01*
X218968093Y-147108152D02*
X218968093Y-147774819D01*
X218539522Y-147108152D02*
X218539522Y-147631961D01*
X218539522Y-147631961D02*
X218587141Y-147727200D01*
X218587141Y-147727200D02*
X218682379Y-147774819D01*
X218682379Y-147774819D02*
X218825236Y-147774819D01*
X218825236Y-147774819D02*
X218920474Y-147727200D01*
X218920474Y-147727200D02*
X218968093Y-147679580D01*
X219444284Y-147774819D02*
X219444284Y-147108152D01*
X219444284Y-147298628D02*
X219491903Y-147203390D01*
X219491903Y-147203390D02*
X219539522Y-147155771D01*
X219539522Y-147155771D02*
X219634760Y-147108152D01*
X219634760Y-147108152D02*
X219729998Y-147108152D01*
X220444284Y-147727200D02*
X220349046Y-147774819D01*
X220349046Y-147774819D02*
X220158570Y-147774819D01*
X220158570Y-147774819D02*
X220063332Y-147727200D01*
X220063332Y-147727200D02*
X220015713Y-147631961D01*
X220015713Y-147631961D02*
X220015713Y-147251009D01*
X220015713Y-147251009D02*
X220063332Y-147155771D01*
X220063332Y-147155771D02*
X220158570Y-147108152D01*
X220158570Y-147108152D02*
X220349046Y-147108152D01*
X220349046Y-147108152D02*
X220444284Y-147155771D01*
X220444284Y-147155771D02*
X220491903Y-147251009D01*
X220491903Y-147251009D02*
X220491903Y-147346247D01*
X220491903Y-147346247D02*
X220015713Y-147441485D01*
X221253808Y-147251009D02*
X221396665Y-147298628D01*
X221396665Y-147298628D02*
X221444284Y-147346247D01*
X221444284Y-147346247D02*
X221491903Y-147441485D01*
X221491903Y-147441485D02*
X221491903Y-147584342D01*
X221491903Y-147584342D02*
X221444284Y-147679580D01*
X221444284Y-147679580D02*
X221396665Y-147727200D01*
X221396665Y-147727200D02*
X221301427Y-147774819D01*
X221301427Y-147774819D02*
X220920475Y-147774819D01*
X220920475Y-147774819D02*
X220920475Y-146774819D01*
X220920475Y-146774819D02*
X221253808Y-146774819D01*
X221253808Y-146774819D02*
X221349046Y-146822438D01*
X221349046Y-146822438D02*
X221396665Y-146870057D01*
X221396665Y-146870057D02*
X221444284Y-146965295D01*
X221444284Y-146965295D02*
X221444284Y-147060533D01*
X221444284Y-147060533D02*
X221396665Y-147155771D01*
X221396665Y-147155771D02*
X221349046Y-147203390D01*
X221349046Y-147203390D02*
X221253808Y-147251009D01*
X221253808Y-147251009D02*
X220920475Y-147251009D01*
X222349046Y-147108152D02*
X222349046Y-147774819D01*
X221920475Y-147108152D02*
X221920475Y-147631961D01*
X221920475Y-147631961D02*
X221968094Y-147727200D01*
X221968094Y-147727200D02*
X222063332Y-147774819D01*
X222063332Y-147774819D02*
X222206189Y-147774819D01*
X222206189Y-147774819D02*
X222301427Y-147727200D01*
X222301427Y-147727200D02*
X222349046Y-147679580D01*
X222682380Y-147108152D02*
X223063332Y-147108152D01*
X222825237Y-146774819D02*
X222825237Y-147631961D01*
X222825237Y-147631961D02*
X222872856Y-147727200D01*
X222872856Y-147727200D02*
X222968094Y-147774819D01*
X222968094Y-147774819D02*
X223063332Y-147774819D01*
X223253809Y-147108152D02*
X223634761Y-147108152D01*
X223396666Y-146774819D02*
X223396666Y-147631961D01*
X223396666Y-147631961D02*
X223444285Y-147727200D01*
X223444285Y-147727200D02*
X223539523Y-147774819D01*
X223539523Y-147774819D02*
X223634761Y-147774819D01*
X224110952Y-147774819D02*
X224015714Y-147727200D01*
X224015714Y-147727200D02*
X223968095Y-147679580D01*
X223968095Y-147679580D02*
X223920476Y-147584342D01*
X223920476Y-147584342D02*
X223920476Y-147298628D01*
X223920476Y-147298628D02*
X223968095Y-147203390D01*
X223968095Y-147203390D02*
X224015714Y-147155771D01*
X224015714Y-147155771D02*
X224110952Y-147108152D01*
X224110952Y-147108152D02*
X224253809Y-147108152D01*
X224253809Y-147108152D02*
X224349047Y-147155771D01*
X224349047Y-147155771D02*
X224396666Y-147203390D01*
X224396666Y-147203390D02*
X224444285Y-147298628D01*
X224444285Y-147298628D02*
X224444285Y-147584342D01*
X224444285Y-147584342D02*
X224396666Y-147679580D01*
X224396666Y-147679580D02*
X224349047Y-147727200D01*
X224349047Y-147727200D02*
X224253809Y-147774819D01*
X224253809Y-147774819D02*
X224110952Y-147774819D01*
X224872857Y-147108152D02*
X224872857Y-147774819D01*
X224872857Y-147203390D02*
X224920476Y-147155771D01*
X224920476Y-147155771D02*
X225015714Y-147108152D01*
X225015714Y-147108152D02*
X225158571Y-147108152D01*
X225158571Y-147108152D02*
X225253809Y-147155771D01*
X225253809Y-147155771D02*
X225301428Y-147251009D01*
X225301428Y-147251009D02*
X225301428Y-147774819D01*
X230211333Y-140209580D02*
X230163714Y-140257200D01*
X230163714Y-140257200D02*
X230020857Y-140304819D01*
X230020857Y-140304819D02*
X229925619Y-140304819D01*
X229925619Y-140304819D02*
X229782762Y-140257200D01*
X229782762Y-140257200D02*
X229687524Y-140161961D01*
X229687524Y-140161961D02*
X229639905Y-140066723D01*
X229639905Y-140066723D02*
X229592286Y-139876247D01*
X229592286Y-139876247D02*
X229592286Y-139733390D01*
X229592286Y-139733390D02*
X229639905Y-139542914D01*
X229639905Y-139542914D02*
X229687524Y-139447676D01*
X229687524Y-139447676D02*
X229782762Y-139352438D01*
X229782762Y-139352438D02*
X229925619Y-139304819D01*
X229925619Y-139304819D02*
X230020857Y-139304819D01*
X230020857Y-139304819D02*
X230163714Y-139352438D01*
X230163714Y-139352438D02*
X230211333Y-139400057D01*
X231116095Y-139304819D02*
X230639905Y-139304819D01*
X230639905Y-139304819D02*
X230592286Y-139781009D01*
X230592286Y-139781009D02*
X230639905Y-139733390D01*
X230639905Y-139733390D02*
X230735143Y-139685771D01*
X230735143Y-139685771D02*
X230973238Y-139685771D01*
X230973238Y-139685771D02*
X231068476Y-139733390D01*
X231068476Y-139733390D02*
X231116095Y-139781009D01*
X231116095Y-139781009D02*
X231163714Y-139876247D01*
X231163714Y-139876247D02*
X231163714Y-140114342D01*
X231163714Y-140114342D02*
X231116095Y-140209580D01*
X231116095Y-140209580D02*
X231068476Y-140257200D01*
X231068476Y-140257200D02*
X230973238Y-140304819D01*
X230973238Y-140304819D02*
X230735143Y-140304819D01*
X230735143Y-140304819D02*
X230639905Y-140257200D01*
X230639905Y-140257200D02*
X230592286Y-140209580D01*
X191863095Y-160447200D02*
X192005952Y-160494819D01*
X192005952Y-160494819D02*
X192244047Y-160494819D01*
X192244047Y-160494819D02*
X192339285Y-160447200D01*
X192339285Y-160447200D02*
X192386904Y-160399580D01*
X192386904Y-160399580D02*
X192434523Y-160304342D01*
X192434523Y-160304342D02*
X192434523Y-160209104D01*
X192434523Y-160209104D02*
X192386904Y-160113866D01*
X192386904Y-160113866D02*
X192339285Y-160066247D01*
X192339285Y-160066247D02*
X192244047Y-160018628D01*
X192244047Y-160018628D02*
X192053571Y-159971009D01*
X192053571Y-159971009D02*
X191958333Y-159923390D01*
X191958333Y-159923390D02*
X191910714Y-159875771D01*
X191910714Y-159875771D02*
X191863095Y-159780533D01*
X191863095Y-159780533D02*
X191863095Y-159685295D01*
X191863095Y-159685295D02*
X191910714Y-159590057D01*
X191910714Y-159590057D02*
X191958333Y-159542438D01*
X191958333Y-159542438D02*
X192053571Y-159494819D01*
X192053571Y-159494819D02*
X192291666Y-159494819D01*
X192291666Y-159494819D02*
X192434523Y-159542438D01*
X193291666Y-159494819D02*
X193101190Y-159494819D01*
X193101190Y-159494819D02*
X193005952Y-159542438D01*
X193005952Y-159542438D02*
X192958333Y-159590057D01*
X192958333Y-159590057D02*
X192863095Y-159732914D01*
X192863095Y-159732914D02*
X192815476Y-159923390D01*
X192815476Y-159923390D02*
X192815476Y-160304342D01*
X192815476Y-160304342D02*
X192863095Y-160399580D01*
X192863095Y-160399580D02*
X192910714Y-160447200D01*
X192910714Y-160447200D02*
X193005952Y-160494819D01*
X193005952Y-160494819D02*
X193196428Y-160494819D01*
X193196428Y-160494819D02*
X193291666Y-160447200D01*
X193291666Y-160447200D02*
X193339285Y-160399580D01*
X193339285Y-160399580D02*
X193386904Y-160304342D01*
X193386904Y-160304342D02*
X193386904Y-160066247D01*
X193386904Y-160066247D02*
X193339285Y-159971009D01*
X193339285Y-159971009D02*
X193291666Y-159923390D01*
X193291666Y-159923390D02*
X193196428Y-159875771D01*
X193196428Y-159875771D02*
X193005952Y-159875771D01*
X193005952Y-159875771D02*
X192910714Y-159923390D01*
X192910714Y-159923390D02*
X192863095Y-159971009D01*
X192863095Y-159971009D02*
X192815476Y-160066247D01*
X190291666Y-166861009D02*
X190434523Y-166908628D01*
X190434523Y-166908628D02*
X190482142Y-166956247D01*
X190482142Y-166956247D02*
X190529761Y-167051485D01*
X190529761Y-167051485D02*
X190529761Y-167194342D01*
X190529761Y-167194342D02*
X190482142Y-167289580D01*
X190482142Y-167289580D02*
X190434523Y-167337200D01*
X190434523Y-167337200D02*
X190339285Y-167384819D01*
X190339285Y-167384819D02*
X189958333Y-167384819D01*
X189958333Y-167384819D02*
X189958333Y-166384819D01*
X189958333Y-166384819D02*
X190291666Y-166384819D01*
X190291666Y-166384819D02*
X190386904Y-166432438D01*
X190386904Y-166432438D02*
X190434523Y-166480057D01*
X190434523Y-166480057D02*
X190482142Y-166575295D01*
X190482142Y-166575295D02*
X190482142Y-166670533D01*
X190482142Y-166670533D02*
X190434523Y-166765771D01*
X190434523Y-166765771D02*
X190386904Y-166813390D01*
X190386904Y-166813390D02*
X190291666Y-166861009D01*
X190291666Y-166861009D02*
X189958333Y-166861009D01*
X191386904Y-166718152D02*
X191386904Y-167384819D01*
X190958333Y-166718152D02*
X190958333Y-167241961D01*
X190958333Y-167241961D02*
X191005952Y-167337200D01*
X191005952Y-167337200D02*
X191101190Y-167384819D01*
X191101190Y-167384819D02*
X191244047Y-167384819D01*
X191244047Y-167384819D02*
X191339285Y-167337200D01*
X191339285Y-167337200D02*
X191386904Y-167289580D01*
X191720238Y-166718152D02*
X192101190Y-166718152D01*
X191863095Y-166384819D02*
X191863095Y-167241961D01*
X191863095Y-167241961D02*
X191910714Y-167337200D01*
X191910714Y-167337200D02*
X192005952Y-167384819D01*
X192005952Y-167384819D02*
X192101190Y-167384819D01*
X192291667Y-166718152D02*
X192672619Y-166718152D01*
X192434524Y-166384819D02*
X192434524Y-167241961D01*
X192434524Y-167241961D02*
X192482143Y-167337200D01*
X192482143Y-167337200D02*
X192577381Y-167384819D01*
X192577381Y-167384819D02*
X192672619Y-167384819D01*
X193148810Y-167384819D02*
X193053572Y-167337200D01*
X193053572Y-167337200D02*
X193005953Y-167289580D01*
X193005953Y-167289580D02*
X192958334Y-167194342D01*
X192958334Y-167194342D02*
X192958334Y-166908628D01*
X192958334Y-166908628D02*
X193005953Y-166813390D01*
X193005953Y-166813390D02*
X193053572Y-166765771D01*
X193053572Y-166765771D02*
X193148810Y-166718152D01*
X193148810Y-166718152D02*
X193291667Y-166718152D01*
X193291667Y-166718152D02*
X193386905Y-166765771D01*
X193386905Y-166765771D02*
X193434524Y-166813390D01*
X193434524Y-166813390D02*
X193482143Y-166908628D01*
X193482143Y-166908628D02*
X193482143Y-167194342D01*
X193482143Y-167194342D02*
X193434524Y-167289580D01*
X193434524Y-167289580D02*
X193386905Y-167337200D01*
X193386905Y-167337200D02*
X193291667Y-167384819D01*
X193291667Y-167384819D02*
X193148810Y-167384819D01*
X193910715Y-166718152D02*
X193910715Y-167384819D01*
X193910715Y-166813390D02*
X193958334Y-166765771D01*
X193958334Y-166765771D02*
X194053572Y-166718152D01*
X194053572Y-166718152D02*
X194196429Y-166718152D01*
X194196429Y-166718152D02*
X194291667Y-166765771D01*
X194291667Y-166765771D02*
X194339286Y-166861009D01*
X194339286Y-166861009D02*
X194339286Y-167384819D01*
X195244048Y-166384819D02*
X195053572Y-166384819D01*
X195053572Y-166384819D02*
X194958334Y-166432438D01*
X194958334Y-166432438D02*
X194910715Y-166480057D01*
X194910715Y-166480057D02*
X194815477Y-166622914D01*
X194815477Y-166622914D02*
X194767858Y-166813390D01*
X194767858Y-166813390D02*
X194767858Y-167194342D01*
X194767858Y-167194342D02*
X194815477Y-167289580D01*
X194815477Y-167289580D02*
X194863096Y-167337200D01*
X194863096Y-167337200D02*
X194958334Y-167384819D01*
X194958334Y-167384819D02*
X195148810Y-167384819D01*
X195148810Y-167384819D02*
X195244048Y-167337200D01*
X195244048Y-167337200D02*
X195291667Y-167289580D01*
X195291667Y-167289580D02*
X195339286Y-167194342D01*
X195339286Y-167194342D02*
X195339286Y-166956247D01*
X195339286Y-166956247D02*
X195291667Y-166861009D01*
X195291667Y-166861009D02*
X195244048Y-166813390D01*
X195244048Y-166813390D02*
X195148810Y-166765771D01*
X195148810Y-166765771D02*
X194958334Y-166765771D01*
X194958334Y-166765771D02*
X194863096Y-166813390D01*
X194863096Y-166813390D02*
X194815477Y-166861009D01*
X194815477Y-166861009D02*
X194767858Y-166956247D01*
X168642819Y-154765333D02*
X169357104Y-154765333D01*
X169357104Y-154765333D02*
X169499961Y-154812952D01*
X169499961Y-154812952D02*
X169595200Y-154908190D01*
X169595200Y-154908190D02*
X169642819Y-155051047D01*
X169642819Y-155051047D02*
X169642819Y-155146285D01*
X168738057Y-154336761D02*
X168690438Y-154289142D01*
X168690438Y-154289142D02*
X168642819Y-154193904D01*
X168642819Y-154193904D02*
X168642819Y-153955809D01*
X168642819Y-153955809D02*
X168690438Y-153860571D01*
X168690438Y-153860571D02*
X168738057Y-153812952D01*
X168738057Y-153812952D02*
X168833295Y-153765333D01*
X168833295Y-153765333D02*
X168928533Y-153765333D01*
X168928533Y-153765333D02*
X169071390Y-153812952D01*
X169071390Y-153812952D02*
X169642819Y-154384380D01*
X169642819Y-154384380D02*
X169642819Y-153765333D01*
X202426190Y-164927581D02*
X202378571Y-164975201D01*
X202378571Y-164975201D02*
X202235714Y-165022820D01*
X202235714Y-165022820D02*
X202140476Y-165022820D01*
X202140476Y-165022820D02*
X201997619Y-164975201D01*
X201997619Y-164975201D02*
X201902381Y-164879962D01*
X201902381Y-164879962D02*
X201854762Y-164784724D01*
X201854762Y-164784724D02*
X201807143Y-164594248D01*
X201807143Y-164594248D02*
X201807143Y-164451391D01*
X201807143Y-164451391D02*
X201854762Y-164260915D01*
X201854762Y-164260915D02*
X201902381Y-164165677D01*
X201902381Y-164165677D02*
X201997619Y-164070439D01*
X201997619Y-164070439D02*
X202140476Y-164022820D01*
X202140476Y-164022820D02*
X202235714Y-164022820D01*
X202235714Y-164022820D02*
X202378571Y-164070439D01*
X202378571Y-164070439D02*
X202426190Y-164118058D01*
X202997619Y-165022820D02*
X202902381Y-164975201D01*
X202902381Y-164975201D02*
X202854762Y-164927581D01*
X202854762Y-164927581D02*
X202807143Y-164832343D01*
X202807143Y-164832343D02*
X202807143Y-164546629D01*
X202807143Y-164546629D02*
X202854762Y-164451391D01*
X202854762Y-164451391D02*
X202902381Y-164403772D01*
X202902381Y-164403772D02*
X202997619Y-164356153D01*
X202997619Y-164356153D02*
X203140476Y-164356153D01*
X203140476Y-164356153D02*
X203235714Y-164403772D01*
X203235714Y-164403772D02*
X203283333Y-164451391D01*
X203283333Y-164451391D02*
X203330952Y-164546629D01*
X203330952Y-164546629D02*
X203330952Y-164832343D01*
X203330952Y-164832343D02*
X203283333Y-164927581D01*
X203283333Y-164927581D02*
X203235714Y-164975201D01*
X203235714Y-164975201D02*
X203140476Y-165022820D01*
X203140476Y-165022820D02*
X202997619Y-165022820D01*
X203759524Y-164356153D02*
X203759524Y-165022820D01*
X203759524Y-164451391D02*
X203807143Y-164403772D01*
X203807143Y-164403772D02*
X203902381Y-164356153D01*
X203902381Y-164356153D02*
X204045238Y-164356153D01*
X204045238Y-164356153D02*
X204140476Y-164403772D01*
X204140476Y-164403772D02*
X204188095Y-164499010D01*
X204188095Y-164499010D02*
X204188095Y-165022820D01*
X204664286Y-164356153D02*
X204664286Y-165022820D01*
X204664286Y-164451391D02*
X204711905Y-164403772D01*
X204711905Y-164403772D02*
X204807143Y-164356153D01*
X204807143Y-164356153D02*
X204950000Y-164356153D01*
X204950000Y-164356153D02*
X205045238Y-164403772D01*
X205045238Y-164403772D02*
X205092857Y-164499010D01*
X205092857Y-164499010D02*
X205092857Y-165022820D01*
X205521429Y-164118058D02*
X205569048Y-164070439D01*
X205569048Y-164070439D02*
X205664286Y-164022820D01*
X205664286Y-164022820D02*
X205902381Y-164022820D01*
X205902381Y-164022820D02*
X205997619Y-164070439D01*
X205997619Y-164070439D02*
X206045238Y-164118058D01*
X206045238Y-164118058D02*
X206092857Y-164213296D01*
X206092857Y-164213296D02*
X206092857Y-164308534D01*
X206092857Y-164308534D02*
X206045238Y-164451391D01*
X206045238Y-164451391D02*
X205473810Y-165022820D01*
X205473810Y-165022820D02*
X206092857Y-165022820D01*
X200878571Y-167515201D02*
X201021428Y-167562820D01*
X201021428Y-167562820D02*
X201259523Y-167562820D01*
X201259523Y-167562820D02*
X201354761Y-167515201D01*
X201354761Y-167515201D02*
X201402380Y-167467581D01*
X201402380Y-167467581D02*
X201449999Y-167372343D01*
X201449999Y-167372343D02*
X201449999Y-167277105D01*
X201449999Y-167277105D02*
X201402380Y-167181867D01*
X201402380Y-167181867D02*
X201354761Y-167134248D01*
X201354761Y-167134248D02*
X201259523Y-167086629D01*
X201259523Y-167086629D02*
X201069047Y-167039010D01*
X201069047Y-167039010D02*
X200973809Y-166991391D01*
X200973809Y-166991391D02*
X200926190Y-166943772D01*
X200926190Y-166943772D02*
X200878571Y-166848534D01*
X200878571Y-166848534D02*
X200878571Y-166753296D01*
X200878571Y-166753296D02*
X200926190Y-166658058D01*
X200926190Y-166658058D02*
X200973809Y-166610439D01*
X200973809Y-166610439D02*
X201069047Y-166562820D01*
X201069047Y-166562820D02*
X201307142Y-166562820D01*
X201307142Y-166562820D02*
X201449999Y-166610439D01*
X201783333Y-166896153D02*
X201973809Y-167562820D01*
X201973809Y-167562820D02*
X202164285Y-167086629D01*
X202164285Y-167086629D02*
X202354761Y-167562820D01*
X202354761Y-167562820D02*
X202545237Y-166896153D01*
X202926190Y-167562820D02*
X202926190Y-166896153D01*
X202926190Y-166562820D02*
X202878571Y-166610439D01*
X202878571Y-166610439D02*
X202926190Y-166658058D01*
X202926190Y-166658058D02*
X202973809Y-166610439D01*
X202973809Y-166610439D02*
X202926190Y-166562820D01*
X202926190Y-166562820D02*
X202926190Y-166658058D01*
X203259523Y-166896153D02*
X203640475Y-166896153D01*
X203402380Y-166562820D02*
X203402380Y-167419962D01*
X203402380Y-167419962D02*
X203449999Y-167515201D01*
X203449999Y-167515201D02*
X203545237Y-167562820D01*
X203545237Y-167562820D02*
X203640475Y-167562820D01*
X204402380Y-167515201D02*
X204307142Y-167562820D01*
X204307142Y-167562820D02*
X204116666Y-167562820D01*
X204116666Y-167562820D02*
X204021428Y-167515201D01*
X204021428Y-167515201D02*
X203973809Y-167467581D01*
X203973809Y-167467581D02*
X203926190Y-167372343D01*
X203926190Y-167372343D02*
X203926190Y-167086629D01*
X203926190Y-167086629D02*
X203973809Y-166991391D01*
X203973809Y-166991391D02*
X204021428Y-166943772D01*
X204021428Y-166943772D02*
X204116666Y-166896153D01*
X204116666Y-166896153D02*
X204307142Y-166896153D01*
X204307142Y-166896153D02*
X204402380Y-166943772D01*
X204830952Y-167562820D02*
X204830952Y-166562820D01*
X205259523Y-167562820D02*
X205259523Y-167039010D01*
X205259523Y-167039010D02*
X205211904Y-166943772D01*
X205211904Y-166943772D02*
X205116666Y-166896153D01*
X205116666Y-166896153D02*
X204973809Y-166896153D01*
X204973809Y-166896153D02*
X204878571Y-166943772D01*
X204878571Y-166943772D02*
X204830952Y-166991391D01*
X206450000Y-166658058D02*
X206497619Y-166610439D01*
X206497619Y-166610439D02*
X206592857Y-166562820D01*
X206592857Y-166562820D02*
X206830952Y-166562820D01*
X206830952Y-166562820D02*
X206926190Y-166610439D01*
X206926190Y-166610439D02*
X206973809Y-166658058D01*
X206973809Y-166658058D02*
X207021428Y-166753296D01*
X207021428Y-166753296D02*
X207021428Y-166848534D01*
X207021428Y-166848534D02*
X206973809Y-166991391D01*
X206973809Y-166991391D02*
X206402381Y-167562820D01*
X206402381Y-167562820D02*
X207021428Y-167562820D01*
X177453095Y-160447200D02*
X177595952Y-160494819D01*
X177595952Y-160494819D02*
X177834047Y-160494819D01*
X177834047Y-160494819D02*
X177929285Y-160447200D01*
X177929285Y-160447200D02*
X177976904Y-160399580D01*
X177976904Y-160399580D02*
X178024523Y-160304342D01*
X178024523Y-160304342D02*
X178024523Y-160209104D01*
X178024523Y-160209104D02*
X177976904Y-160113866D01*
X177976904Y-160113866D02*
X177929285Y-160066247D01*
X177929285Y-160066247D02*
X177834047Y-160018628D01*
X177834047Y-160018628D02*
X177643571Y-159971009D01*
X177643571Y-159971009D02*
X177548333Y-159923390D01*
X177548333Y-159923390D02*
X177500714Y-159875771D01*
X177500714Y-159875771D02*
X177453095Y-159780533D01*
X177453095Y-159780533D02*
X177453095Y-159685295D01*
X177453095Y-159685295D02*
X177500714Y-159590057D01*
X177500714Y-159590057D02*
X177548333Y-159542438D01*
X177548333Y-159542438D02*
X177643571Y-159494819D01*
X177643571Y-159494819D02*
X177881666Y-159494819D01*
X177881666Y-159494819D02*
X178024523Y-159542438D01*
X178881666Y-159828152D02*
X178881666Y-160494819D01*
X178643571Y-159447200D02*
X178405476Y-160161485D01*
X178405476Y-160161485D02*
X179024523Y-160161485D01*
X175881666Y-166861009D02*
X176024523Y-166908628D01*
X176024523Y-166908628D02*
X176072142Y-166956247D01*
X176072142Y-166956247D02*
X176119761Y-167051485D01*
X176119761Y-167051485D02*
X176119761Y-167194342D01*
X176119761Y-167194342D02*
X176072142Y-167289580D01*
X176072142Y-167289580D02*
X176024523Y-167337200D01*
X176024523Y-167337200D02*
X175929285Y-167384819D01*
X175929285Y-167384819D02*
X175548333Y-167384819D01*
X175548333Y-167384819D02*
X175548333Y-166384819D01*
X175548333Y-166384819D02*
X175881666Y-166384819D01*
X175881666Y-166384819D02*
X175976904Y-166432438D01*
X175976904Y-166432438D02*
X176024523Y-166480057D01*
X176024523Y-166480057D02*
X176072142Y-166575295D01*
X176072142Y-166575295D02*
X176072142Y-166670533D01*
X176072142Y-166670533D02*
X176024523Y-166765771D01*
X176024523Y-166765771D02*
X175976904Y-166813390D01*
X175976904Y-166813390D02*
X175881666Y-166861009D01*
X175881666Y-166861009D02*
X175548333Y-166861009D01*
X176976904Y-166718152D02*
X176976904Y-167384819D01*
X176548333Y-166718152D02*
X176548333Y-167241961D01*
X176548333Y-167241961D02*
X176595952Y-167337200D01*
X176595952Y-167337200D02*
X176691190Y-167384819D01*
X176691190Y-167384819D02*
X176834047Y-167384819D01*
X176834047Y-167384819D02*
X176929285Y-167337200D01*
X176929285Y-167337200D02*
X176976904Y-167289580D01*
X177310238Y-166718152D02*
X177691190Y-166718152D01*
X177453095Y-166384819D02*
X177453095Y-167241961D01*
X177453095Y-167241961D02*
X177500714Y-167337200D01*
X177500714Y-167337200D02*
X177595952Y-167384819D01*
X177595952Y-167384819D02*
X177691190Y-167384819D01*
X177881667Y-166718152D02*
X178262619Y-166718152D01*
X178024524Y-166384819D02*
X178024524Y-167241961D01*
X178024524Y-167241961D02*
X178072143Y-167337200D01*
X178072143Y-167337200D02*
X178167381Y-167384819D01*
X178167381Y-167384819D02*
X178262619Y-167384819D01*
X178738810Y-167384819D02*
X178643572Y-167337200D01*
X178643572Y-167337200D02*
X178595953Y-167289580D01*
X178595953Y-167289580D02*
X178548334Y-167194342D01*
X178548334Y-167194342D02*
X178548334Y-166908628D01*
X178548334Y-166908628D02*
X178595953Y-166813390D01*
X178595953Y-166813390D02*
X178643572Y-166765771D01*
X178643572Y-166765771D02*
X178738810Y-166718152D01*
X178738810Y-166718152D02*
X178881667Y-166718152D01*
X178881667Y-166718152D02*
X178976905Y-166765771D01*
X178976905Y-166765771D02*
X179024524Y-166813390D01*
X179024524Y-166813390D02*
X179072143Y-166908628D01*
X179072143Y-166908628D02*
X179072143Y-167194342D01*
X179072143Y-167194342D02*
X179024524Y-167289580D01*
X179024524Y-167289580D02*
X178976905Y-167337200D01*
X178976905Y-167337200D02*
X178881667Y-167384819D01*
X178881667Y-167384819D02*
X178738810Y-167384819D01*
X179500715Y-166718152D02*
X179500715Y-167384819D01*
X179500715Y-166813390D02*
X179548334Y-166765771D01*
X179548334Y-166765771D02*
X179643572Y-166718152D01*
X179643572Y-166718152D02*
X179786429Y-166718152D01*
X179786429Y-166718152D02*
X179881667Y-166765771D01*
X179881667Y-166765771D02*
X179929286Y-166861009D01*
X179929286Y-166861009D02*
X179929286Y-167384819D01*
X180834048Y-166718152D02*
X180834048Y-167384819D01*
X180595953Y-166337200D02*
X180357858Y-167051485D01*
X180357858Y-167051485D02*
X180976905Y-167051485D01*
X171302819Y-99480666D02*
X170826628Y-99813999D01*
X171302819Y-100052094D02*
X170302819Y-100052094D01*
X170302819Y-100052094D02*
X170302819Y-99671142D01*
X170302819Y-99671142D02*
X170350438Y-99575904D01*
X170350438Y-99575904D02*
X170398057Y-99528285D01*
X170398057Y-99528285D02*
X170493295Y-99480666D01*
X170493295Y-99480666D02*
X170636152Y-99480666D01*
X170636152Y-99480666D02*
X170731390Y-99528285D01*
X170731390Y-99528285D02*
X170779009Y-99575904D01*
X170779009Y-99575904D02*
X170826628Y-99671142D01*
X170826628Y-99671142D02*
X170826628Y-100052094D01*
X171302819Y-98528285D02*
X171302819Y-99099713D01*
X171302819Y-98813999D02*
X170302819Y-98813999D01*
X170302819Y-98813999D02*
X170445676Y-98909237D01*
X170445676Y-98909237D02*
X170540914Y-99004475D01*
X170540914Y-99004475D02*
X170588533Y-99099713D01*
X227559666Y-102045819D02*
X227559666Y-102760104D01*
X227559666Y-102760104D02*
X227512047Y-102902961D01*
X227512047Y-102902961D02*
X227416809Y-102998200D01*
X227416809Y-102998200D02*
X227273952Y-103045819D01*
X227273952Y-103045819D02*
X227178714Y-103045819D01*
X227940619Y-102045819D02*
X228559666Y-102045819D01*
X228559666Y-102045819D02*
X228226333Y-102426771D01*
X228226333Y-102426771D02*
X228369190Y-102426771D01*
X228369190Y-102426771D02*
X228464428Y-102474390D01*
X228464428Y-102474390D02*
X228512047Y-102522009D01*
X228512047Y-102522009D02*
X228559666Y-102617247D01*
X228559666Y-102617247D02*
X228559666Y-102855342D01*
X228559666Y-102855342D02*
X228512047Y-102950580D01*
X228512047Y-102950580D02*
X228464428Y-102998200D01*
X228464428Y-102998200D02*
X228369190Y-103045819D01*
X228369190Y-103045819D02*
X228083476Y-103045819D01*
X228083476Y-103045819D02*
X227988238Y-102998200D01*
X227988238Y-102998200D02*
X227940619Y-102950580D01*
X206757580Y-97448666D02*
X206805200Y-97496285D01*
X206805200Y-97496285D02*
X206852819Y-97639142D01*
X206852819Y-97639142D02*
X206852819Y-97734380D01*
X206852819Y-97734380D02*
X206805200Y-97877237D01*
X206805200Y-97877237D02*
X206709961Y-97972475D01*
X206709961Y-97972475D02*
X206614723Y-98020094D01*
X206614723Y-98020094D02*
X206424247Y-98067713D01*
X206424247Y-98067713D02*
X206281390Y-98067713D01*
X206281390Y-98067713D02*
X206090914Y-98020094D01*
X206090914Y-98020094D02*
X205995676Y-97972475D01*
X205995676Y-97972475D02*
X205900438Y-97877237D01*
X205900438Y-97877237D02*
X205852819Y-97734380D01*
X205852819Y-97734380D02*
X205852819Y-97639142D01*
X205852819Y-97639142D02*
X205900438Y-97496285D01*
X205900438Y-97496285D02*
X205948057Y-97448666D01*
X206186152Y-96591523D02*
X206852819Y-96591523D01*
X205805200Y-96829618D02*
X206519485Y-97067713D01*
X206519485Y-97067713D02*
X206519485Y-96448666D01*
X166918819Y-123324857D02*
X166442628Y-123658190D01*
X166918819Y-123896285D02*
X165918819Y-123896285D01*
X165918819Y-123896285D02*
X165918819Y-123515333D01*
X165918819Y-123515333D02*
X165966438Y-123420095D01*
X165966438Y-123420095D02*
X166014057Y-123372476D01*
X166014057Y-123372476D02*
X166109295Y-123324857D01*
X166109295Y-123324857D02*
X166252152Y-123324857D01*
X166252152Y-123324857D02*
X166347390Y-123372476D01*
X166347390Y-123372476D02*
X166395009Y-123420095D01*
X166395009Y-123420095D02*
X166442628Y-123515333D01*
X166442628Y-123515333D02*
X166442628Y-123896285D01*
X166918819Y-122372476D02*
X166918819Y-122943904D01*
X166918819Y-122658190D02*
X165918819Y-122658190D01*
X165918819Y-122658190D02*
X166061676Y-122753428D01*
X166061676Y-122753428D02*
X166156914Y-122848666D01*
X166156914Y-122848666D02*
X166204533Y-122943904D01*
X166918819Y-121420095D02*
X166918819Y-121991523D01*
X166918819Y-121705809D02*
X165918819Y-121705809D01*
X165918819Y-121705809D02*
X166061676Y-121801047D01*
X166061676Y-121801047D02*
X166156914Y-121896285D01*
X166156914Y-121896285D02*
X166204533Y-121991523D01*
X202426190Y-157307581D02*
X202378571Y-157355201D01*
X202378571Y-157355201D02*
X202235714Y-157402820D01*
X202235714Y-157402820D02*
X202140476Y-157402820D01*
X202140476Y-157402820D02*
X201997619Y-157355201D01*
X201997619Y-157355201D02*
X201902381Y-157259962D01*
X201902381Y-157259962D02*
X201854762Y-157164724D01*
X201854762Y-157164724D02*
X201807143Y-156974248D01*
X201807143Y-156974248D02*
X201807143Y-156831391D01*
X201807143Y-156831391D02*
X201854762Y-156640915D01*
X201854762Y-156640915D02*
X201902381Y-156545677D01*
X201902381Y-156545677D02*
X201997619Y-156450439D01*
X201997619Y-156450439D02*
X202140476Y-156402820D01*
X202140476Y-156402820D02*
X202235714Y-156402820D01*
X202235714Y-156402820D02*
X202378571Y-156450439D01*
X202378571Y-156450439D02*
X202426190Y-156498058D01*
X202997619Y-157402820D02*
X202902381Y-157355201D01*
X202902381Y-157355201D02*
X202854762Y-157307581D01*
X202854762Y-157307581D02*
X202807143Y-157212343D01*
X202807143Y-157212343D02*
X202807143Y-156926629D01*
X202807143Y-156926629D02*
X202854762Y-156831391D01*
X202854762Y-156831391D02*
X202902381Y-156783772D01*
X202902381Y-156783772D02*
X202997619Y-156736153D01*
X202997619Y-156736153D02*
X203140476Y-156736153D01*
X203140476Y-156736153D02*
X203235714Y-156783772D01*
X203235714Y-156783772D02*
X203283333Y-156831391D01*
X203283333Y-156831391D02*
X203330952Y-156926629D01*
X203330952Y-156926629D02*
X203330952Y-157212343D01*
X203330952Y-157212343D02*
X203283333Y-157307581D01*
X203283333Y-157307581D02*
X203235714Y-157355201D01*
X203235714Y-157355201D02*
X203140476Y-157402820D01*
X203140476Y-157402820D02*
X202997619Y-157402820D01*
X203759524Y-156736153D02*
X203759524Y-157402820D01*
X203759524Y-156831391D02*
X203807143Y-156783772D01*
X203807143Y-156783772D02*
X203902381Y-156736153D01*
X203902381Y-156736153D02*
X204045238Y-156736153D01*
X204045238Y-156736153D02*
X204140476Y-156783772D01*
X204140476Y-156783772D02*
X204188095Y-156879010D01*
X204188095Y-156879010D02*
X204188095Y-157402820D01*
X204664286Y-156736153D02*
X204664286Y-157402820D01*
X204664286Y-156831391D02*
X204711905Y-156783772D01*
X204711905Y-156783772D02*
X204807143Y-156736153D01*
X204807143Y-156736153D02*
X204950000Y-156736153D01*
X204950000Y-156736153D02*
X205045238Y-156783772D01*
X205045238Y-156783772D02*
X205092857Y-156879010D01*
X205092857Y-156879010D02*
X205092857Y-157402820D01*
X205473810Y-156402820D02*
X206092857Y-156402820D01*
X206092857Y-156402820D02*
X205759524Y-156783772D01*
X205759524Y-156783772D02*
X205902381Y-156783772D01*
X205902381Y-156783772D02*
X205997619Y-156831391D01*
X205997619Y-156831391D02*
X206045238Y-156879010D01*
X206045238Y-156879010D02*
X206092857Y-156974248D01*
X206092857Y-156974248D02*
X206092857Y-157212343D01*
X206092857Y-157212343D02*
X206045238Y-157307581D01*
X206045238Y-157307581D02*
X205997619Y-157355201D01*
X205997619Y-157355201D02*
X205902381Y-157402820D01*
X205902381Y-157402820D02*
X205616667Y-157402820D01*
X205616667Y-157402820D02*
X205521429Y-157355201D01*
X205521429Y-157355201D02*
X205473810Y-157307581D01*
X200878571Y-159895201D02*
X201021428Y-159942820D01*
X201021428Y-159942820D02*
X201259523Y-159942820D01*
X201259523Y-159942820D02*
X201354761Y-159895201D01*
X201354761Y-159895201D02*
X201402380Y-159847581D01*
X201402380Y-159847581D02*
X201449999Y-159752343D01*
X201449999Y-159752343D02*
X201449999Y-159657105D01*
X201449999Y-159657105D02*
X201402380Y-159561867D01*
X201402380Y-159561867D02*
X201354761Y-159514248D01*
X201354761Y-159514248D02*
X201259523Y-159466629D01*
X201259523Y-159466629D02*
X201069047Y-159419010D01*
X201069047Y-159419010D02*
X200973809Y-159371391D01*
X200973809Y-159371391D02*
X200926190Y-159323772D01*
X200926190Y-159323772D02*
X200878571Y-159228534D01*
X200878571Y-159228534D02*
X200878571Y-159133296D01*
X200878571Y-159133296D02*
X200926190Y-159038058D01*
X200926190Y-159038058D02*
X200973809Y-158990439D01*
X200973809Y-158990439D02*
X201069047Y-158942820D01*
X201069047Y-158942820D02*
X201307142Y-158942820D01*
X201307142Y-158942820D02*
X201449999Y-158990439D01*
X201783333Y-159276153D02*
X201973809Y-159942820D01*
X201973809Y-159942820D02*
X202164285Y-159466629D01*
X202164285Y-159466629D02*
X202354761Y-159942820D01*
X202354761Y-159942820D02*
X202545237Y-159276153D01*
X202926190Y-159942820D02*
X202926190Y-159276153D01*
X202926190Y-158942820D02*
X202878571Y-158990439D01*
X202878571Y-158990439D02*
X202926190Y-159038058D01*
X202926190Y-159038058D02*
X202973809Y-158990439D01*
X202973809Y-158990439D02*
X202926190Y-158942820D01*
X202926190Y-158942820D02*
X202926190Y-159038058D01*
X203259523Y-159276153D02*
X203640475Y-159276153D01*
X203402380Y-158942820D02*
X203402380Y-159799962D01*
X203402380Y-159799962D02*
X203449999Y-159895201D01*
X203449999Y-159895201D02*
X203545237Y-159942820D01*
X203545237Y-159942820D02*
X203640475Y-159942820D01*
X204402380Y-159895201D02*
X204307142Y-159942820D01*
X204307142Y-159942820D02*
X204116666Y-159942820D01*
X204116666Y-159942820D02*
X204021428Y-159895201D01*
X204021428Y-159895201D02*
X203973809Y-159847581D01*
X203973809Y-159847581D02*
X203926190Y-159752343D01*
X203926190Y-159752343D02*
X203926190Y-159466629D01*
X203926190Y-159466629D02*
X203973809Y-159371391D01*
X203973809Y-159371391D02*
X204021428Y-159323772D01*
X204021428Y-159323772D02*
X204116666Y-159276153D01*
X204116666Y-159276153D02*
X204307142Y-159276153D01*
X204307142Y-159276153D02*
X204402380Y-159323772D01*
X204830952Y-159942820D02*
X204830952Y-158942820D01*
X205259523Y-159942820D02*
X205259523Y-159419010D01*
X205259523Y-159419010D02*
X205211904Y-159323772D01*
X205211904Y-159323772D02*
X205116666Y-159276153D01*
X205116666Y-159276153D02*
X204973809Y-159276153D01*
X204973809Y-159276153D02*
X204878571Y-159323772D01*
X204878571Y-159323772D02*
X204830952Y-159371391D01*
X207021428Y-159942820D02*
X206450000Y-159942820D01*
X206735714Y-159942820D02*
X206735714Y-158942820D01*
X206735714Y-158942820D02*
X206640476Y-159085677D01*
X206640476Y-159085677D02*
X206545238Y-159180915D01*
X206545238Y-159180915D02*
X206450000Y-159228534D01*
X168656095Y-90188819D02*
X168656095Y-90998342D01*
X168656095Y-90998342D02*
X168703714Y-91093580D01*
X168703714Y-91093580D02*
X168751333Y-91141200D01*
X168751333Y-91141200D02*
X168846571Y-91188819D01*
X168846571Y-91188819D02*
X169037047Y-91188819D01*
X169037047Y-91188819D02*
X169132285Y-91141200D01*
X169132285Y-91141200D02*
X169179904Y-91093580D01*
X169179904Y-91093580D02*
X169227523Y-90998342D01*
X169227523Y-90998342D02*
X169227523Y-90188819D01*
X170227523Y-91188819D02*
X169656095Y-91188819D01*
X169941809Y-91188819D02*
X169941809Y-90188819D01*
X169941809Y-90188819D02*
X169846571Y-90331676D01*
X169846571Y-90331676D02*
X169751333Y-90426914D01*
X169751333Y-90426914D02*
X169656095Y-90474533D01*
X229131905Y-137392819D02*
X229131905Y-136392819D01*
X229131905Y-136392819D02*
X229370000Y-136392819D01*
X229370000Y-136392819D02*
X229512857Y-136440438D01*
X229512857Y-136440438D02*
X229608095Y-136535676D01*
X229608095Y-136535676D02*
X229655714Y-136630914D01*
X229655714Y-136630914D02*
X229703333Y-136821390D01*
X229703333Y-136821390D02*
X229703333Y-136964247D01*
X229703333Y-136964247D02*
X229655714Y-137154723D01*
X229655714Y-137154723D02*
X229608095Y-137249961D01*
X229608095Y-137249961D02*
X229512857Y-137345200D01*
X229512857Y-137345200D02*
X229370000Y-137392819D01*
X229370000Y-137392819D02*
X229131905Y-137392819D01*
X230084286Y-136488057D02*
X230131905Y-136440438D01*
X230131905Y-136440438D02*
X230227143Y-136392819D01*
X230227143Y-136392819D02*
X230465238Y-136392819D01*
X230465238Y-136392819D02*
X230560476Y-136440438D01*
X230560476Y-136440438D02*
X230608095Y-136488057D01*
X230608095Y-136488057D02*
X230655714Y-136583295D01*
X230655714Y-136583295D02*
X230655714Y-136678533D01*
X230655714Y-136678533D02*
X230608095Y-136821390D01*
X230608095Y-136821390D02*
X230036667Y-137392819D01*
X230036667Y-137392819D02*
X230655714Y-137392819D01*
X202426190Y-142067581D02*
X202378571Y-142115201D01*
X202378571Y-142115201D02*
X202235714Y-142162820D01*
X202235714Y-142162820D02*
X202140476Y-142162820D01*
X202140476Y-142162820D02*
X201997619Y-142115201D01*
X201997619Y-142115201D02*
X201902381Y-142019962D01*
X201902381Y-142019962D02*
X201854762Y-141924724D01*
X201854762Y-141924724D02*
X201807143Y-141734248D01*
X201807143Y-141734248D02*
X201807143Y-141591391D01*
X201807143Y-141591391D02*
X201854762Y-141400915D01*
X201854762Y-141400915D02*
X201902381Y-141305677D01*
X201902381Y-141305677D02*
X201997619Y-141210439D01*
X201997619Y-141210439D02*
X202140476Y-141162820D01*
X202140476Y-141162820D02*
X202235714Y-141162820D01*
X202235714Y-141162820D02*
X202378571Y-141210439D01*
X202378571Y-141210439D02*
X202426190Y-141258058D01*
X202997619Y-142162820D02*
X202902381Y-142115201D01*
X202902381Y-142115201D02*
X202854762Y-142067581D01*
X202854762Y-142067581D02*
X202807143Y-141972343D01*
X202807143Y-141972343D02*
X202807143Y-141686629D01*
X202807143Y-141686629D02*
X202854762Y-141591391D01*
X202854762Y-141591391D02*
X202902381Y-141543772D01*
X202902381Y-141543772D02*
X202997619Y-141496153D01*
X202997619Y-141496153D02*
X203140476Y-141496153D01*
X203140476Y-141496153D02*
X203235714Y-141543772D01*
X203235714Y-141543772D02*
X203283333Y-141591391D01*
X203283333Y-141591391D02*
X203330952Y-141686629D01*
X203330952Y-141686629D02*
X203330952Y-141972343D01*
X203330952Y-141972343D02*
X203283333Y-142067581D01*
X203283333Y-142067581D02*
X203235714Y-142115201D01*
X203235714Y-142115201D02*
X203140476Y-142162820D01*
X203140476Y-142162820D02*
X202997619Y-142162820D01*
X203759524Y-141496153D02*
X203759524Y-142162820D01*
X203759524Y-141591391D02*
X203807143Y-141543772D01*
X203807143Y-141543772D02*
X203902381Y-141496153D01*
X203902381Y-141496153D02*
X204045238Y-141496153D01*
X204045238Y-141496153D02*
X204140476Y-141543772D01*
X204140476Y-141543772D02*
X204188095Y-141639010D01*
X204188095Y-141639010D02*
X204188095Y-142162820D01*
X204664286Y-141496153D02*
X204664286Y-142162820D01*
X204664286Y-141591391D02*
X204711905Y-141543772D01*
X204711905Y-141543772D02*
X204807143Y-141496153D01*
X204807143Y-141496153D02*
X204950000Y-141496153D01*
X204950000Y-141496153D02*
X205045238Y-141543772D01*
X205045238Y-141543772D02*
X205092857Y-141639010D01*
X205092857Y-141639010D02*
X205092857Y-142162820D01*
X206045238Y-141162820D02*
X205569048Y-141162820D01*
X205569048Y-141162820D02*
X205521429Y-141639010D01*
X205521429Y-141639010D02*
X205569048Y-141591391D01*
X205569048Y-141591391D02*
X205664286Y-141543772D01*
X205664286Y-141543772D02*
X205902381Y-141543772D01*
X205902381Y-141543772D02*
X205997619Y-141591391D01*
X205997619Y-141591391D02*
X206045238Y-141639010D01*
X206045238Y-141639010D02*
X206092857Y-141734248D01*
X206092857Y-141734248D02*
X206092857Y-141972343D01*
X206092857Y-141972343D02*
X206045238Y-142067581D01*
X206045238Y-142067581D02*
X205997619Y-142115201D01*
X205997619Y-142115201D02*
X205902381Y-142162820D01*
X205902381Y-142162820D02*
X205664286Y-142162820D01*
X205664286Y-142162820D02*
X205569048Y-142115201D01*
X205569048Y-142115201D02*
X205521429Y-142067581D01*
X199640475Y-144179010D02*
X199783332Y-144226629D01*
X199783332Y-144226629D02*
X199830951Y-144274248D01*
X199830951Y-144274248D02*
X199878570Y-144369486D01*
X199878570Y-144369486D02*
X199878570Y-144512343D01*
X199878570Y-144512343D02*
X199830951Y-144607581D01*
X199830951Y-144607581D02*
X199783332Y-144655201D01*
X199783332Y-144655201D02*
X199688094Y-144702820D01*
X199688094Y-144702820D02*
X199307142Y-144702820D01*
X199307142Y-144702820D02*
X199307142Y-143702820D01*
X199307142Y-143702820D02*
X199640475Y-143702820D01*
X199640475Y-143702820D02*
X199735713Y-143750439D01*
X199735713Y-143750439D02*
X199783332Y-143798058D01*
X199783332Y-143798058D02*
X199830951Y-143893296D01*
X199830951Y-143893296D02*
X199830951Y-143988534D01*
X199830951Y-143988534D02*
X199783332Y-144083772D01*
X199783332Y-144083772D02*
X199735713Y-144131391D01*
X199735713Y-144131391D02*
X199640475Y-144179010D01*
X199640475Y-144179010D02*
X199307142Y-144179010D01*
X200449999Y-144702820D02*
X200354761Y-144655201D01*
X200354761Y-144655201D02*
X200307142Y-144607581D01*
X200307142Y-144607581D02*
X200259523Y-144512343D01*
X200259523Y-144512343D02*
X200259523Y-144226629D01*
X200259523Y-144226629D02*
X200307142Y-144131391D01*
X200307142Y-144131391D02*
X200354761Y-144083772D01*
X200354761Y-144083772D02*
X200449999Y-144036153D01*
X200449999Y-144036153D02*
X200592856Y-144036153D01*
X200592856Y-144036153D02*
X200688094Y-144083772D01*
X200688094Y-144083772D02*
X200735713Y-144131391D01*
X200735713Y-144131391D02*
X200783332Y-144226629D01*
X200783332Y-144226629D02*
X200783332Y-144512343D01*
X200783332Y-144512343D02*
X200735713Y-144607581D01*
X200735713Y-144607581D02*
X200688094Y-144655201D01*
X200688094Y-144655201D02*
X200592856Y-144702820D01*
X200592856Y-144702820D02*
X200449999Y-144702820D01*
X201069047Y-144036153D02*
X201449999Y-144036153D01*
X201211904Y-143702820D02*
X201211904Y-144559962D01*
X201211904Y-144559962D02*
X201259523Y-144655201D01*
X201259523Y-144655201D02*
X201354761Y-144702820D01*
X201354761Y-144702820D02*
X201449999Y-144702820D01*
X201640476Y-144036153D02*
X202021428Y-144036153D01*
X201783333Y-143702820D02*
X201783333Y-144559962D01*
X201783333Y-144559962D02*
X201830952Y-144655201D01*
X201830952Y-144655201D02*
X201926190Y-144702820D01*
X201926190Y-144702820D02*
X202021428Y-144702820D01*
X202497619Y-144702820D02*
X202402381Y-144655201D01*
X202402381Y-144655201D02*
X202354762Y-144607581D01*
X202354762Y-144607581D02*
X202307143Y-144512343D01*
X202307143Y-144512343D02*
X202307143Y-144226629D01*
X202307143Y-144226629D02*
X202354762Y-144131391D01*
X202354762Y-144131391D02*
X202402381Y-144083772D01*
X202402381Y-144083772D02*
X202497619Y-144036153D01*
X202497619Y-144036153D02*
X202640476Y-144036153D01*
X202640476Y-144036153D02*
X202735714Y-144083772D01*
X202735714Y-144083772D02*
X202783333Y-144131391D01*
X202783333Y-144131391D02*
X202830952Y-144226629D01*
X202830952Y-144226629D02*
X202830952Y-144512343D01*
X202830952Y-144512343D02*
X202783333Y-144607581D01*
X202783333Y-144607581D02*
X202735714Y-144655201D01*
X202735714Y-144655201D02*
X202640476Y-144702820D01*
X202640476Y-144702820D02*
X202497619Y-144702820D01*
X203259524Y-144702820D02*
X203259524Y-144036153D01*
X203259524Y-144131391D02*
X203307143Y-144083772D01*
X203307143Y-144083772D02*
X203402381Y-144036153D01*
X203402381Y-144036153D02*
X203545238Y-144036153D01*
X203545238Y-144036153D02*
X203640476Y-144083772D01*
X203640476Y-144083772D02*
X203688095Y-144179010D01*
X203688095Y-144179010D02*
X203688095Y-144702820D01*
X203688095Y-144179010D02*
X203735714Y-144083772D01*
X203735714Y-144083772D02*
X203830952Y-144036153D01*
X203830952Y-144036153D02*
X203973809Y-144036153D01*
X203973809Y-144036153D02*
X204069048Y-144083772D01*
X204069048Y-144083772D02*
X204116667Y-144179010D01*
X204116667Y-144179010D02*
X204116667Y-144702820D01*
X205069047Y-144702820D02*
X204592857Y-144702820D01*
X204592857Y-144702820D02*
X204592857Y-143702820D01*
X205402381Y-144702820D02*
X205402381Y-144036153D01*
X205402381Y-143702820D02*
X205354762Y-143750439D01*
X205354762Y-143750439D02*
X205402381Y-143798058D01*
X205402381Y-143798058D02*
X205450000Y-143750439D01*
X205450000Y-143750439D02*
X205402381Y-143702820D01*
X205402381Y-143702820D02*
X205402381Y-143798058D01*
X206307142Y-144036153D02*
X206307142Y-144845677D01*
X206307142Y-144845677D02*
X206259523Y-144940915D01*
X206259523Y-144940915D02*
X206211904Y-144988534D01*
X206211904Y-144988534D02*
X206116666Y-145036153D01*
X206116666Y-145036153D02*
X205973809Y-145036153D01*
X205973809Y-145036153D02*
X205878571Y-144988534D01*
X206307142Y-144655201D02*
X206211904Y-144702820D01*
X206211904Y-144702820D02*
X206021428Y-144702820D01*
X206021428Y-144702820D02*
X205926190Y-144655201D01*
X205926190Y-144655201D02*
X205878571Y-144607581D01*
X205878571Y-144607581D02*
X205830952Y-144512343D01*
X205830952Y-144512343D02*
X205830952Y-144226629D01*
X205830952Y-144226629D02*
X205878571Y-144131391D01*
X205878571Y-144131391D02*
X205926190Y-144083772D01*
X205926190Y-144083772D02*
X206021428Y-144036153D01*
X206021428Y-144036153D02*
X206211904Y-144036153D01*
X206211904Y-144036153D02*
X206307142Y-144083772D01*
X206783333Y-144702820D02*
X206783333Y-143702820D01*
X207211904Y-144702820D02*
X207211904Y-144179010D01*
X207211904Y-144179010D02*
X207164285Y-144083772D01*
X207164285Y-144083772D02*
X207069047Y-144036153D01*
X207069047Y-144036153D02*
X206926190Y-144036153D01*
X206926190Y-144036153D02*
X206830952Y-144083772D01*
X206830952Y-144083772D02*
X206783333Y-144131391D01*
X207545238Y-144036153D02*
X207926190Y-144036153D01*
X207688095Y-143702820D02*
X207688095Y-144559962D01*
X207688095Y-144559962D02*
X207735714Y-144655201D01*
X207735714Y-144655201D02*
X207830952Y-144702820D01*
X207830952Y-144702820D02*
X207926190Y-144702820D01*
X208211905Y-144655201D02*
X208307143Y-144702820D01*
X208307143Y-144702820D02*
X208497619Y-144702820D01*
X208497619Y-144702820D02*
X208592857Y-144655201D01*
X208592857Y-144655201D02*
X208640476Y-144559962D01*
X208640476Y-144559962D02*
X208640476Y-144512343D01*
X208640476Y-144512343D02*
X208592857Y-144417105D01*
X208592857Y-144417105D02*
X208497619Y-144369486D01*
X208497619Y-144369486D02*
X208354762Y-144369486D01*
X208354762Y-144369486D02*
X208259524Y-144321867D01*
X208259524Y-144321867D02*
X208211905Y-144226629D01*
X208211905Y-144226629D02*
X208211905Y-144179010D01*
X208211905Y-144179010D02*
X208259524Y-144083772D01*
X208259524Y-144083772D02*
X208354762Y-144036153D01*
X208354762Y-144036153D02*
X208497619Y-144036153D01*
X208497619Y-144036153D02*
X208592857Y-144083772D01*
X175017580Y-99480666D02*
X175065200Y-99528285D01*
X175065200Y-99528285D02*
X175112819Y-99671142D01*
X175112819Y-99671142D02*
X175112819Y-99766380D01*
X175112819Y-99766380D02*
X175065200Y-99909237D01*
X175065200Y-99909237D02*
X174969961Y-100004475D01*
X174969961Y-100004475D02*
X174874723Y-100052094D01*
X174874723Y-100052094D02*
X174684247Y-100099713D01*
X174684247Y-100099713D02*
X174541390Y-100099713D01*
X174541390Y-100099713D02*
X174350914Y-100052094D01*
X174350914Y-100052094D02*
X174255676Y-100004475D01*
X174255676Y-100004475D02*
X174160438Y-99909237D01*
X174160438Y-99909237D02*
X174112819Y-99766380D01*
X174112819Y-99766380D02*
X174112819Y-99671142D01*
X174112819Y-99671142D02*
X174160438Y-99528285D01*
X174160438Y-99528285D02*
X174208057Y-99480666D01*
X175112819Y-98528285D02*
X175112819Y-99099713D01*
X175112819Y-98813999D02*
X174112819Y-98813999D01*
X174112819Y-98813999D02*
X174255676Y-98909237D01*
X174255676Y-98909237D02*
X174350914Y-99004475D01*
X174350914Y-99004475D02*
X174398533Y-99099713D01*
X229195333Y-104306819D02*
X228719143Y-104306819D01*
X228719143Y-104306819D02*
X228719143Y-103306819D01*
X229481048Y-103402057D02*
X229528667Y-103354438D01*
X229528667Y-103354438D02*
X229623905Y-103306819D01*
X229623905Y-103306819D02*
X229862000Y-103306819D01*
X229862000Y-103306819D02*
X229957238Y-103354438D01*
X229957238Y-103354438D02*
X230004857Y-103402057D01*
X230004857Y-103402057D02*
X230052476Y-103497295D01*
X230052476Y-103497295D02*
X230052476Y-103592533D01*
X230052476Y-103592533D02*
X230004857Y-103735390D01*
X230004857Y-103735390D02*
X229433429Y-104306819D01*
X229433429Y-104306819D02*
X230052476Y-104306819D01*
X198969333Y-152760819D02*
X198636000Y-152284628D01*
X198397905Y-152760819D02*
X198397905Y-151760819D01*
X198397905Y-151760819D02*
X198778857Y-151760819D01*
X198778857Y-151760819D02*
X198874095Y-151808438D01*
X198874095Y-151808438D02*
X198921714Y-151856057D01*
X198921714Y-151856057D02*
X198969333Y-151951295D01*
X198969333Y-151951295D02*
X198969333Y-152094152D01*
X198969333Y-152094152D02*
X198921714Y-152189390D01*
X198921714Y-152189390D02*
X198874095Y-152237009D01*
X198874095Y-152237009D02*
X198778857Y-152284628D01*
X198778857Y-152284628D02*
X198397905Y-152284628D01*
X199826476Y-152094152D02*
X199826476Y-152760819D01*
X199588381Y-151713200D02*
X199350286Y-152427485D01*
X199350286Y-152427485D02*
X199969333Y-152427485D01*
X167616571Y-110589219D02*
X167616571Y-109589219D01*
X167616571Y-109589219D02*
X167949904Y-110303504D01*
X167949904Y-110303504D02*
X168283237Y-109589219D01*
X168283237Y-109589219D02*
X168283237Y-110589219D01*
X168949904Y-109589219D02*
X169140380Y-109589219D01*
X169140380Y-109589219D02*
X169235618Y-109636838D01*
X169235618Y-109636838D02*
X169330856Y-109732076D01*
X169330856Y-109732076D02*
X169378475Y-109922552D01*
X169378475Y-109922552D02*
X169378475Y-110255885D01*
X169378475Y-110255885D02*
X169330856Y-110446361D01*
X169330856Y-110446361D02*
X169235618Y-110541600D01*
X169235618Y-110541600D02*
X169140380Y-110589219D01*
X169140380Y-110589219D02*
X168949904Y-110589219D01*
X168949904Y-110589219D02*
X168854666Y-110541600D01*
X168854666Y-110541600D02*
X168759428Y-110446361D01*
X168759428Y-110446361D02*
X168711809Y-110255885D01*
X168711809Y-110255885D02*
X168711809Y-109922552D01*
X168711809Y-109922552D02*
X168759428Y-109732076D01*
X168759428Y-109732076D02*
X168854666Y-109636838D01*
X168854666Y-109636838D02*
X168949904Y-109589219D01*
X169759428Y-110541600D02*
X169902285Y-110589219D01*
X169902285Y-110589219D02*
X170140380Y-110589219D01*
X170140380Y-110589219D02*
X170235618Y-110541600D01*
X170235618Y-110541600D02*
X170283237Y-110493980D01*
X170283237Y-110493980D02*
X170330856Y-110398742D01*
X170330856Y-110398742D02*
X170330856Y-110303504D01*
X170330856Y-110303504D02*
X170283237Y-110208266D01*
X170283237Y-110208266D02*
X170235618Y-110160647D01*
X170235618Y-110160647D02*
X170140380Y-110113028D01*
X170140380Y-110113028D02*
X169949904Y-110065409D01*
X169949904Y-110065409D02*
X169854666Y-110017790D01*
X169854666Y-110017790D02*
X169807047Y-109970171D01*
X169807047Y-109970171D02*
X169759428Y-109874933D01*
X169759428Y-109874933D02*
X169759428Y-109779695D01*
X169759428Y-109779695D02*
X169807047Y-109684457D01*
X169807047Y-109684457D02*
X169854666Y-109636838D01*
X169854666Y-109636838D02*
X169949904Y-109589219D01*
X169949904Y-109589219D02*
X170187999Y-109589219D01*
X170187999Y-109589219D02*
X170330856Y-109636838D01*
X171092761Y-110065409D02*
X170759428Y-110065409D01*
X170759428Y-110589219D02*
X170759428Y-109589219D01*
X170759428Y-109589219D02*
X171235618Y-109589219D01*
X171616571Y-110065409D02*
X171949904Y-110065409D01*
X172092761Y-110589219D02*
X171616571Y-110589219D01*
X171616571Y-110589219D02*
X171616571Y-109589219D01*
X171616571Y-109589219D02*
X172092761Y-109589219D01*
X172378476Y-109589219D02*
X172949904Y-109589219D01*
X172664190Y-110589219D02*
X172664190Y-109589219D01*
X173235619Y-109684457D02*
X173283238Y-109636838D01*
X173283238Y-109636838D02*
X173378476Y-109589219D01*
X173378476Y-109589219D02*
X173616571Y-109589219D01*
X173616571Y-109589219D02*
X173711809Y-109636838D01*
X173711809Y-109636838D02*
X173759428Y-109684457D01*
X173759428Y-109684457D02*
X173807047Y-109779695D01*
X173807047Y-109779695D02*
X173807047Y-109874933D01*
X173807047Y-109874933D02*
X173759428Y-110017790D01*
X173759428Y-110017790D02*
X173188000Y-110589219D01*
X173188000Y-110589219D02*
X173807047Y-110589219D01*
X166878000Y-117590219D02*
X166878000Y-117828314D01*
X166639905Y-117733076D02*
X166878000Y-117828314D01*
X166878000Y-117828314D02*
X167116095Y-117733076D01*
X166735143Y-118018790D02*
X166878000Y-117828314D01*
X166878000Y-117828314D02*
X167020857Y-118018790D01*
X166878000Y-117590219D02*
X166878000Y-117828314D01*
X166639905Y-117733076D02*
X166878000Y-117828314D01*
X166878000Y-117828314D02*
X167116095Y-117733076D01*
X166735143Y-118018790D02*
X166878000Y-117828314D01*
X166878000Y-117828314D02*
X167020857Y-118018790D01*
X207637142Y-143108819D02*
X207303809Y-142632628D01*
X207065714Y-143108819D02*
X207065714Y-142108819D01*
X207065714Y-142108819D02*
X207446666Y-142108819D01*
X207446666Y-142108819D02*
X207541904Y-142156438D01*
X207541904Y-142156438D02*
X207589523Y-142204057D01*
X207589523Y-142204057D02*
X207637142Y-142299295D01*
X207637142Y-142299295D02*
X207637142Y-142442152D01*
X207637142Y-142442152D02*
X207589523Y-142537390D01*
X207589523Y-142537390D02*
X207541904Y-142585009D01*
X207541904Y-142585009D02*
X207446666Y-142632628D01*
X207446666Y-142632628D02*
X207065714Y-142632628D01*
X208589523Y-143108819D02*
X208018095Y-143108819D01*
X208303809Y-143108819D02*
X208303809Y-142108819D01*
X208303809Y-142108819D02*
X208208571Y-142251676D01*
X208208571Y-142251676D02*
X208113333Y-142346914D01*
X208113333Y-142346914D02*
X208018095Y-142394533D01*
X209494285Y-142108819D02*
X209018095Y-142108819D01*
X209018095Y-142108819D02*
X208970476Y-142585009D01*
X208970476Y-142585009D02*
X209018095Y-142537390D01*
X209018095Y-142537390D02*
X209113333Y-142489771D01*
X209113333Y-142489771D02*
X209351428Y-142489771D01*
X209351428Y-142489771D02*
X209446666Y-142537390D01*
X209446666Y-142537390D02*
X209494285Y-142585009D01*
X209494285Y-142585009D02*
X209541904Y-142680247D01*
X209541904Y-142680247D02*
X209541904Y-142918342D01*
X209541904Y-142918342D02*
X209494285Y-143013580D01*
X209494285Y-143013580D02*
X209446666Y-143061200D01*
X209446666Y-143061200D02*
X209351428Y-143108819D01*
X209351428Y-143108819D02*
X209113333Y-143108819D01*
X209113333Y-143108819D02*
X209018095Y-143061200D01*
X209018095Y-143061200D02*
X208970476Y-143013580D01*
X179618819Y-122952166D02*
X179142628Y-123285499D01*
X179618819Y-123523594D02*
X178618819Y-123523594D01*
X178618819Y-123523594D02*
X178618819Y-123142642D01*
X178618819Y-123142642D02*
X178666438Y-123047404D01*
X178666438Y-123047404D02*
X178714057Y-122999785D01*
X178714057Y-122999785D02*
X178809295Y-122952166D01*
X178809295Y-122952166D02*
X178952152Y-122952166D01*
X178952152Y-122952166D02*
X179047390Y-122999785D01*
X179047390Y-122999785D02*
X179095009Y-123047404D01*
X179095009Y-123047404D02*
X179142628Y-123142642D01*
X179142628Y-123142642D02*
X179142628Y-123523594D01*
X179047390Y-122380737D02*
X178999771Y-122475975D01*
X178999771Y-122475975D02*
X178952152Y-122523594D01*
X178952152Y-122523594D02*
X178856914Y-122571213D01*
X178856914Y-122571213D02*
X178809295Y-122571213D01*
X178809295Y-122571213D02*
X178714057Y-122523594D01*
X178714057Y-122523594D02*
X178666438Y-122475975D01*
X178666438Y-122475975D02*
X178618819Y-122380737D01*
X178618819Y-122380737D02*
X178618819Y-122190261D01*
X178618819Y-122190261D02*
X178666438Y-122095023D01*
X178666438Y-122095023D02*
X178714057Y-122047404D01*
X178714057Y-122047404D02*
X178809295Y-121999785D01*
X178809295Y-121999785D02*
X178856914Y-121999785D01*
X178856914Y-121999785D02*
X178952152Y-122047404D01*
X178952152Y-122047404D02*
X178999771Y-122095023D01*
X178999771Y-122095023D02*
X179047390Y-122190261D01*
X179047390Y-122190261D02*
X179047390Y-122380737D01*
X179047390Y-122380737D02*
X179095009Y-122475975D01*
X179095009Y-122475975D02*
X179142628Y-122523594D01*
X179142628Y-122523594D02*
X179237866Y-122571213D01*
X179237866Y-122571213D02*
X179428342Y-122571213D01*
X179428342Y-122571213D02*
X179523580Y-122523594D01*
X179523580Y-122523594D02*
X179571200Y-122475975D01*
X179571200Y-122475975D02*
X179618819Y-122380737D01*
X179618819Y-122380737D02*
X179618819Y-122190261D01*
X179618819Y-122190261D02*
X179571200Y-122095023D01*
X179571200Y-122095023D02*
X179523580Y-122047404D01*
X179523580Y-122047404D02*
X179428342Y-121999785D01*
X179428342Y-121999785D02*
X179237866Y-121999785D01*
X179237866Y-121999785D02*
X179142628Y-122047404D01*
X179142628Y-122047404D02*
X179095009Y-122095023D01*
X179095009Y-122095023D02*
X179047390Y-122190261D01*
D11*
%TO.C,MOSFET1*%
X179844700Y-115658900D02*
X179844700Y-116116100D01*
X180835300Y-115658900D02*
X180835300Y-116116100D01*
X182054500Y-115559840D02*
X182054500Y-116954300D01*
X182054500Y-116954300D02*
X183705500Y-116954300D01*
X183705500Y-116954300D02*
X183705500Y-115559840D01*
X184924700Y-115658900D02*
X184924700Y-116116100D01*
X185915300Y-115658900D02*
X185915300Y-116116100D01*
%TO.C,Conn11*%
X210235099Y-144993000D02*
X210235099Y-148752200D01*
X210235099Y-148752200D02*
X214984899Y-148752200D01*
X214984899Y-144993000D02*
X210235099Y-144993000D01*
X214984899Y-148752200D02*
X214984899Y-144993000D01*
D12*
X208838099Y-147320000D02*
G75*
G03*
X208076099Y-147320000I-381000J0D01*
G01*
X208076099Y-147320000D02*
G75*
G03*
X208838099Y-147320000I381000J0D01*
G01*
D13*
%TO.C,U4*%
X224416000Y-131825000D02*
X225366000Y-131825000D01*
X225366000Y-131825000D02*
X225366000Y-136950000D01*
X233866000Y-131825000D02*
X233866000Y-132925000D01*
X234816000Y-131825000D02*
X233866000Y-131825000D01*
X224416000Y-130325000D02*
X224416000Y-131825000D01*
X234816000Y-130325000D02*
X234816000Y-131825000D01*
%TO.C,U3*%
X193174000Y-102615000D02*
X194124000Y-102615000D01*
X194124000Y-102615000D02*
X194124000Y-107740000D01*
X202624000Y-102615000D02*
X202624000Y-103715000D01*
X203574000Y-102615000D02*
X202624000Y-102615000D01*
X193174000Y-101115000D02*
X193174000Y-102615000D01*
X203574000Y-101115000D02*
X203574000Y-102615000D01*
%TO.C,R5*%
X188707500Y-119126724D02*
X188707500Y-118617276D01*
X189752500Y-119126724D02*
X189752500Y-118617276D01*
D11*
%TO.C,Conn12*%
X210235099Y-137373000D02*
X210235099Y-141132200D01*
X210235099Y-141132200D02*
X214984899Y-141132200D01*
X214984899Y-137373000D02*
X210235099Y-137373000D01*
X214984899Y-141132200D02*
X214984899Y-137373000D01*
D12*
X208838099Y-139700000D02*
G75*
G03*
X208076099Y-139700000I-381000J0D01*
G01*
X208076099Y-139700000D02*
G75*
G03*
X208838099Y-139700000I381000J0D01*
G01*
D13*
%TO.C,R7*%
X219202724Y-148096500D02*
X218693276Y-148096500D01*
X219202724Y-147051500D02*
X218693276Y-147051500D01*
%TO.C,J6*%
X218400000Y-153640000D02*
X218400000Y-166460000D01*
X218400000Y-153640000D02*
X221000000Y-153640000D01*
X218400000Y-166460000D02*
X223600000Y-166460000D01*
X221000000Y-153640000D02*
X221000000Y-156240000D01*
X221000000Y-156240000D02*
X223600000Y-156240000D01*
X222270000Y-153640000D02*
X223600000Y-153640000D01*
X223600000Y-153640000D02*
X223600000Y-154970000D01*
X223600000Y-156240000D02*
X223600000Y-166460000D01*
%TO.C,R10*%
X174004500Y-122427276D02*
X174004500Y-122936724D01*
X172959500Y-122427276D02*
X172959500Y-122936724D01*
D14*
%TO.C,U2*%
X163284500Y-158370000D02*
X137884500Y-158370000D01*
X163284500Y-95630000D02*
X163284500Y-158370000D01*
X137884500Y-158370000D02*
X137884500Y-95630000D01*
X137884500Y-95630000D02*
X163284500Y-95630000D01*
D15*
X164400500Y-156972000D02*
G75*
G03*
X164200500Y-156972000I-100000J0D01*
G01*
X164200500Y-156972000D02*
G75*
G03*
X164400500Y-156972000I100000J0D01*
G01*
D13*
%TO.C,R14*%
X208534724Y-149620500D02*
X208025276Y-149620500D01*
X208534724Y-148575500D02*
X208025276Y-148575500D01*
%TO.C,J5*%
X226000000Y-153864000D02*
X226000000Y-166684000D01*
X226000000Y-153864000D02*
X228600000Y-153864000D01*
X226000000Y-166684000D02*
X231200000Y-166684000D01*
X228600000Y-153864000D02*
X228600000Y-156464000D01*
X228600000Y-156464000D02*
X231200000Y-156464000D01*
X229870000Y-153864000D02*
X231200000Y-153864000D01*
X231200000Y-153864000D02*
X231200000Y-155194000D01*
X231200000Y-156464000D02*
X231200000Y-166684000D01*
D11*
%TO.C,Conn10*%
X210235099Y-152613000D02*
X210235099Y-156372200D01*
X210235099Y-156372200D02*
X214984899Y-156372200D01*
X214984899Y-152613000D02*
X210235099Y-152613000D01*
X214984899Y-156372200D02*
X214984899Y-152613000D01*
D12*
X208838099Y-154940000D02*
G75*
G03*
X208076099Y-154940000I-381000J0D01*
G01*
X208076099Y-154940000D02*
G75*
G03*
X208838099Y-154940000I381000J0D01*
G01*
D11*
%TO.C,Conn4*%
X201575100Y-131761001D02*
X201575100Y-135520201D01*
X201575100Y-135520201D02*
X206324900Y-135520201D01*
X206324900Y-131761001D02*
X201575100Y-131761001D01*
X206324900Y-135520201D02*
X206324900Y-131761001D01*
D12*
X200178100Y-134088001D02*
G75*
G03*
X199416100Y-134088001I-381000J0D01*
G01*
X199416100Y-134088001D02*
G75*
G03*
X200178100Y-134088001I381000J0D01*
G01*
D13*
%TO.C,D1*%
X206486000Y-112448000D02*
X204486000Y-112448000D01*
X206486000Y-112448000D02*
X206486000Y-116458000D01*
X204486000Y-112448000D02*
X204486000Y-116458000D01*
%TO.C,R2*%
X198882724Y-167146500D02*
X198373276Y-167146500D01*
X198882724Y-166101500D02*
X198373276Y-166101500D01*
D11*
%TO.C,Conn9*%
X210235099Y-160233000D02*
X210235099Y-163992200D01*
X210235099Y-163992200D02*
X214984899Y-163992200D01*
X214984899Y-160233000D02*
X210235099Y-160233000D01*
X214984899Y-163992200D02*
X214984899Y-160233000D01*
D12*
X208838099Y-162560000D02*
G75*
G03*
X208076099Y-162560000I-381000J0D01*
G01*
X208076099Y-162560000D02*
G75*
G03*
X208838099Y-162560000I381000J0D01*
G01*
D14*
%TO.C,Q1*%
X182646000Y-123542000D02*
X182646000Y-122242000D01*
X185786000Y-123542000D02*
X185786000Y-122242000D01*
X182646000Y-122242000D02*
X183596000Y-122242000D01*
X185786000Y-122242000D02*
X184836000Y-122242000D01*
D15*
X183016000Y-125142000D02*
G75*
G03*
X182816000Y-125142000I-100000J0D01*
G01*
X182816000Y-125142000D02*
G75*
G03*
X183016000Y-125142000I100000J0D01*
G01*
D14*
%TO.C,C2*%
X190542000Y-123938000D02*
X190542000Y-125118000D01*
X190542000Y-127358000D02*
X190542000Y-128538000D01*
X190542000Y-128538000D02*
X191542000Y-129538000D01*
X191542000Y-122938000D02*
X190542000Y-123938000D01*
X191542000Y-129538000D02*
X197142000Y-129538000D01*
X197142000Y-122938000D02*
X191542000Y-122938000D01*
X197142000Y-125118000D02*
X197142000Y-122938000D01*
X197142000Y-129538000D02*
X197142000Y-127358000D01*
D15*
X189792000Y-124888000D02*
G75*
G03*
X189592000Y-124888000I-100000J0D01*
G01*
X189592000Y-124888000D02*
G75*
G03*
X189792000Y-124888000I100000J0D01*
G01*
D13*
%TO.C,J1*%
X171136000Y-147514000D02*
X172466000Y-147514000D01*
X171136000Y-148844000D02*
X171136000Y-147514000D01*
X171136000Y-150114000D02*
X171136000Y-150174000D01*
X171136000Y-150114000D02*
X173796000Y-150114000D01*
X171136000Y-150174000D02*
X173796000Y-150174000D01*
X173796000Y-150114000D02*
X173796000Y-150174000D01*
D16*
%TO.C,S2*%
X157620000Y-163350000D02*
X157620000Y-162750000D01*
X157620000Y-163350000D02*
X157620000Y-163950000D01*
X160020000Y-160950000D02*
X159420000Y-160950000D01*
X160020000Y-160950000D02*
X160620000Y-160950000D01*
X160020000Y-165750000D02*
X159420000Y-165750000D01*
X160020000Y-165750000D02*
X160620000Y-165750000D01*
X162420000Y-163350000D02*
X162420000Y-162750000D01*
X162420000Y-163350000D02*
X162420000Y-163950000D01*
%TO.C,S3*%
X168195000Y-163350000D02*
X168195000Y-162750000D01*
X168195000Y-163350000D02*
X168195000Y-163950000D01*
X170595000Y-160950000D02*
X169995000Y-160950000D01*
X170595000Y-160950000D02*
X171195000Y-160950000D01*
X170595000Y-165750000D02*
X169995000Y-165750000D01*
X170595000Y-165750000D02*
X171195000Y-165750000D01*
X172995000Y-163350000D02*
X172995000Y-162750000D01*
X172995000Y-163350000D02*
X172995000Y-163950000D01*
D13*
%TO.C,R13*%
X208638224Y-157240500D02*
X208128776Y-157240500D01*
X208638224Y-156195500D02*
X208128776Y-156195500D01*
D11*
%TO.C,Conn1*%
X201575100Y-124673000D02*
X201575100Y-128432200D01*
X201575100Y-128432200D02*
X206324900Y-128432200D01*
X206324900Y-124673000D02*
X201575100Y-124673000D01*
X206324900Y-128432200D02*
X206324900Y-124673000D01*
D12*
X200178100Y-127000000D02*
G75*
G03*
X199416100Y-127000000I-381000J0D01*
G01*
X199416100Y-127000000D02*
G75*
G03*
X200178100Y-127000000I381000J0D01*
G01*
D16*
%TO.C,S1*%
X147460000Y-163350000D02*
X147460000Y-162750000D01*
X147460000Y-163350000D02*
X147460000Y-163950000D01*
X149860000Y-160950000D02*
X149260000Y-160950000D01*
X149860000Y-160950000D02*
X150460000Y-160950000D01*
X149860000Y-165750000D02*
X149260000Y-165750000D01*
X149860000Y-165750000D02*
X150460000Y-165750000D01*
X152260000Y-163350000D02*
X152260000Y-162750000D01*
X152260000Y-163350000D02*
X152260000Y-163950000D01*
D14*
%TO.C,Q2*%
X169118000Y-123332000D02*
X169118000Y-122032000D01*
X172258000Y-123332000D02*
X172258000Y-122032000D01*
X169118000Y-122032000D02*
X170068000Y-122032000D01*
X172258000Y-122032000D02*
X171308000Y-122032000D01*
D15*
X169488000Y-124932000D02*
G75*
G03*
X169288000Y-124932000I-100000J0D01*
G01*
X169288000Y-124932000D02*
G75*
G03*
X169488000Y-124932000I100000J0D01*
G01*
D11*
%TO.C,Conn6*%
X201575100Y-147001001D02*
X201575100Y-150760201D01*
X201575100Y-150760201D02*
X206324900Y-150760201D01*
X206324900Y-147001001D02*
X201575100Y-147001001D01*
X206324900Y-150760201D02*
X206324900Y-147001001D01*
D12*
X200178100Y-149328001D02*
G75*
G03*
X199416100Y-149328001I-381000J0D01*
G01*
X199416100Y-149328001D02*
G75*
G03*
X200178100Y-149328001I381000J0D01*
G01*
D13*
%TO.C,R3*%
X199136724Y-159272500D02*
X198627276Y-159272500D01*
X199136724Y-158227500D02*
X198627276Y-158227500D01*
%TO.C,C6*%
X208134000Y-124240000D02*
X209384000Y-124240000D01*
X208759000Y-123615000D02*
X208759000Y-124865000D01*
X209624000Y-122804437D02*
X209624000Y-125490000D01*
X209624000Y-122804437D02*
X210688437Y-121740000D01*
X209624000Y-131195563D02*
X209624000Y-128510000D01*
X209624000Y-131195563D02*
X210688437Y-132260000D01*
X210688437Y-121740000D02*
X220144000Y-121740000D01*
X210688437Y-132260000D02*
X220144000Y-132260000D01*
X220144000Y-121740000D02*
X220144000Y-125490000D01*
X220144000Y-132260000D02*
X220144000Y-128510000D01*
%TO.C,R6*%
X176007500Y-119126724D02*
X176007500Y-118617276D01*
X177052500Y-119126724D02*
X177052500Y-118617276D01*
%TO.C,R12*%
X208534724Y-164606500D02*
X208025276Y-164606500D01*
X208534724Y-163561500D02*
X208025276Y-163561500D01*
%TO.C,C3*%
X190862000Y-112556000D02*
X192112000Y-112556000D01*
X191487000Y-111931000D02*
X191487000Y-113181000D01*
X192352000Y-111120437D02*
X192352000Y-113806000D01*
X192352000Y-111120437D02*
X193416437Y-110056000D01*
X192352000Y-119511563D02*
X192352000Y-116826000D01*
X192352000Y-119511563D02*
X193416437Y-120576000D01*
X193416437Y-110056000D02*
X202872000Y-110056000D01*
X193416437Y-120576000D02*
X202872000Y-120576000D01*
X202872000Y-110056000D02*
X202872000Y-113806000D01*
X202872000Y-120576000D02*
X202872000Y-116826000D01*
D16*
%TO.C,S5*%
X183020000Y-163350000D02*
X183020000Y-162750000D01*
X183020000Y-163350000D02*
X183020000Y-163950000D01*
X185420000Y-160950000D02*
X184820000Y-160950000D01*
X185420000Y-160950000D02*
X186020000Y-160950000D01*
X185420000Y-165750000D02*
X184820000Y-165750000D01*
X185420000Y-165750000D02*
X186020000Y-165750000D01*
X187820000Y-163350000D02*
X187820000Y-162750000D01*
X187820000Y-163350000D02*
X187820000Y-163950000D01*
D13*
%TO.C,J4*%
X178128000Y-99342000D02*
X178128000Y-101582000D01*
X178128000Y-101582000D02*
X180128000Y-101582000D01*
X178368000Y-90722000D02*
X178368000Y-101342000D01*
X178368000Y-90722000D02*
X188488000Y-90722000D01*
X178368000Y-94282000D02*
X188488000Y-94282000D01*
X178368000Y-95282000D02*
X188488000Y-95282000D01*
X178368000Y-99282000D02*
X188488000Y-99282000D01*
X178368000Y-101342000D02*
X188488000Y-101342000D01*
X184628000Y-98365000D02*
X184578000Y-98415000D01*
X184820000Y-98607000D02*
X184796000Y-98632000D01*
X187061000Y-95932000D02*
X187036000Y-95956000D01*
X187278000Y-96149000D02*
X187229000Y-96199000D01*
X188488000Y-90722000D02*
X188488000Y-101342000D01*
X179289001Y-96586000D02*
G75*
G03*
X179288795Y-97977516I1638994J-696001D01*
G01*
X181624000Y-95643001D02*
G75*
G03*
X180232484Y-95642795I-696001J-1638994D01*
G01*
X180232000Y-98920999D02*
G75*
G03*
X180958814Y-99062389I695998J1638985D01*
G01*
X180928000Y-99062000D02*
G75*
G03*
X181623501Y-98920499I0J1780002D01*
G01*
X182567000Y-97978000D02*
G75*
G03*
X182567205Y-96586484I-1639000J696000D01*
G01*
X187708000Y-97282000D02*
G75*
G03*
X184148000Y-97282000I-1780000J0D01*
G01*
X184148000Y-97282000D02*
G75*
G03*
X187708000Y-97282000I1780000J0D01*
G01*
%TO.C,L1*%
X207822000Y-105714000D02*
X220422000Y-105714000D01*
X207822000Y-108714000D02*
X207822000Y-105714000D01*
X207822000Y-118314000D02*
X207822000Y-115314000D01*
X220422000Y-105714000D02*
X220422000Y-108714000D01*
X220422000Y-115314000D02*
X220422000Y-118314000D01*
X220422000Y-118314000D02*
X207822000Y-118314000D01*
D11*
%TO.C,Conn7*%
X188644208Y-152867000D02*
X188644208Y-156677000D01*
X188644208Y-156677000D02*
X196442008Y-156677000D01*
X196442008Y-152867000D02*
X188644208Y-152867000D01*
X196442008Y-156677000D02*
X196442008Y-152867000D01*
D12*
X197458008Y-155194000D02*
G75*
G03*
X196696008Y-155194000I-381000J0D01*
G01*
X196696008Y-155194000D02*
G75*
G03*
X197458008Y-155194000I381000J0D01*
G01*
D13*
%TO.C,R9*%
X186929500Y-123040224D02*
X186929500Y-122530776D01*
X187974500Y-123040224D02*
X187974500Y-122530776D01*
D11*
%TO.C,Conn8*%
X217855099Y-142453000D02*
X217855099Y-146212200D01*
X217855099Y-146212200D02*
X222604899Y-146212200D01*
X222604899Y-142453000D02*
X217855099Y-142453000D01*
X222604899Y-146212200D02*
X222604899Y-142453000D01*
D12*
X216458099Y-144780000D02*
G75*
G03*
X215696099Y-144780000I-381000J0D01*
G01*
X215696099Y-144780000D02*
G75*
G03*
X216458099Y-144780000I381000J0D01*
G01*
D13*
%TO.C,C5*%
X223628000Y-143290000D02*
X224878000Y-143290000D01*
X224253000Y-142665000D02*
X224253000Y-143915000D01*
X225118000Y-141854437D02*
X225118000Y-144540000D01*
X225118000Y-141854437D02*
X226182437Y-140790000D01*
X225118000Y-150245563D02*
X225118000Y-147560000D01*
X225118000Y-150245563D02*
X226182437Y-151310000D01*
X226182437Y-140790000D02*
X235638000Y-140790000D01*
X226182437Y-151310000D02*
X235638000Y-151310000D01*
X235638000Y-140790000D02*
X235638000Y-144540000D01*
X235638000Y-151310000D02*
X235638000Y-147560000D01*
D16*
%TO.C,S6*%
X190225000Y-163350000D02*
X190225000Y-162750000D01*
X190225000Y-163350000D02*
X190225000Y-163950000D01*
X192625000Y-160950000D02*
X192025000Y-160950000D01*
X192625000Y-160950000D02*
X193225000Y-160950000D01*
X192625000Y-165750000D02*
X192025000Y-165750000D01*
X192625000Y-165750000D02*
X193225000Y-165750000D01*
X195025000Y-163350000D02*
X195025000Y-162750000D01*
X195025000Y-163350000D02*
X195025000Y-163950000D01*
D13*
%TO.C,J2*%
X173228000Y-155762000D02*
X180908000Y-155762000D01*
X173228000Y-155762000D02*
X173228000Y-153102000D01*
X180908000Y-155762000D02*
X180908000Y-153102000D01*
X170628000Y-154432000D02*
X170628000Y-153102000D01*
X170628000Y-153102000D02*
X171958000Y-153102000D01*
X173228000Y-153102000D02*
X180908000Y-153102000D01*
D11*
%TO.C,Conn2*%
X201575100Y-162241001D02*
X201575100Y-166000201D01*
X201575100Y-166000201D02*
X206324900Y-166000201D01*
X206324900Y-162241001D02*
X201575100Y-162241001D01*
X206324900Y-166000201D02*
X206324900Y-162241001D01*
D12*
X200178100Y-164568001D02*
G75*
G03*
X199416100Y-164568001I-381000J0D01*
G01*
X199416100Y-164568001D02*
G75*
G03*
X200178100Y-164568001I381000J0D01*
G01*
D16*
%TO.C,S4*%
X175815000Y-163350000D02*
X175815000Y-162750000D01*
X175815000Y-163350000D02*
X175815000Y-163950000D01*
X178215000Y-160950000D02*
X177615000Y-160950000D01*
X178215000Y-160950000D02*
X178815000Y-160950000D01*
X178215000Y-165750000D02*
X177615000Y-165750000D01*
X178215000Y-165750000D02*
X178815000Y-165750000D01*
X180615000Y-163350000D02*
X180615000Y-162750000D01*
X180615000Y-163350000D02*
X180615000Y-163950000D01*
D13*
%TO.C,R1*%
X169940500Y-99059276D02*
X169940500Y-99568724D01*
X168895500Y-99059276D02*
X168895500Y-99568724D01*
D14*
%TO.C,J3*%
X231068000Y-99466000D02*
X231068000Y-84966000D01*
X231068000Y-84966000D02*
X222068000Y-84966000D01*
X229168000Y-99466000D02*
X231068000Y-99466000D01*
X222068000Y-99466000D02*
X223968000Y-99466000D01*
X222068000Y-98051000D02*
X222068000Y-99466000D01*
X222068000Y-84966000D02*
X222068000Y-93361000D01*
D13*
%TO.C,C4*%
X209838000Y-104032000D02*
X209838000Y-102782000D01*
X209213000Y-103407000D02*
X210463000Y-103407000D01*
X208402437Y-102542000D02*
X211088000Y-102542000D01*
X208402437Y-102542000D02*
X207338000Y-101477563D01*
X216793563Y-102542000D02*
X214108000Y-102542000D01*
X216793563Y-102542000D02*
X217858000Y-101477563D01*
X207338000Y-101477563D02*
X207338000Y-92022000D01*
X217858000Y-101477563D02*
X217858000Y-92022000D01*
X207338000Y-92022000D02*
X211088000Y-92022000D01*
X217858000Y-92022000D02*
X214108000Y-92022000D01*
%TO.C,R11*%
X167371500Y-122936724D02*
X167371500Y-122427276D01*
X168416500Y-122936724D02*
X168416500Y-122427276D01*
D11*
%TO.C,Conn3*%
X201575100Y-154621001D02*
X201575100Y-158380201D01*
X201575100Y-158380201D02*
X206324900Y-158380201D01*
X206324900Y-154621001D02*
X201575100Y-154621001D01*
X206324900Y-158380201D02*
X206324900Y-154621001D01*
D12*
X200178100Y-156948001D02*
G75*
G03*
X199416100Y-156948001I-381000J0D01*
G01*
X199416100Y-156948001D02*
G75*
G03*
X200178100Y-156948001I381000J0D01*
G01*
D10*
%TO.C,U1*%
X167343000Y-91659000D02*
X167343000Y-91709000D01*
X167343000Y-91659000D02*
X171493000Y-91659000D01*
X167343000Y-91709000D02*
X165943000Y-91709000D01*
X167343000Y-96809000D02*
X167343000Y-96664000D01*
X167343000Y-96809000D02*
X171493000Y-96809000D01*
X171493000Y-91659000D02*
X171493000Y-91804000D01*
X171493000Y-96809000D02*
X171493000Y-96664000D01*
D13*
%TO.C,D2*%
X227510000Y-137938000D02*
X227510000Y-139938000D01*
X227510000Y-137938000D02*
X231520000Y-137938000D01*
X227510000Y-139938000D02*
X231520000Y-139938000D01*
D11*
%TO.C,Conn5*%
X201575100Y-139381001D02*
X201575100Y-143140201D01*
X201575100Y-143140201D02*
X206324900Y-143140201D01*
X206324900Y-139381001D02*
X201575100Y-139381001D01*
X206324900Y-143140201D02*
X206324900Y-139381001D01*
D12*
X200178100Y-141708001D02*
G75*
G03*
X199416100Y-141708001I-381000J0D01*
G01*
X199416100Y-141708001D02*
G75*
G03*
X200178100Y-141708001I381000J0D01*
G01*
D13*
%TO.C,C1*%
X173738000Y-99167733D02*
X173738000Y-99460267D01*
X172718000Y-99167733D02*
X172718000Y-99460267D01*
%TO.C,L2*%
X223062000Y-104952000D02*
X235662000Y-104952000D01*
X223062000Y-107952000D02*
X223062000Y-104952000D01*
X223062000Y-117552000D02*
X223062000Y-114552000D01*
X235662000Y-104952000D02*
X235662000Y-107952000D01*
X235662000Y-114552000D02*
X235662000Y-117552000D01*
X235662000Y-117552000D02*
X223062000Y-117552000D01*
%TO.C,R4*%
X199390724Y-151398500D02*
X198881276Y-151398500D01*
X199390724Y-150353500D02*
X198881276Y-150353500D01*
D11*
%TO.C,MOSFET2*%
X167652700Y-115570000D02*
X167652700Y-116027200D01*
X168643300Y-115570000D02*
X168643300Y-116027200D01*
X169862500Y-115470940D02*
X169862500Y-116865400D01*
X169862500Y-116865400D02*
X171513500Y-116865400D01*
X171513500Y-116865400D02*
X171513500Y-115470940D01*
X172732700Y-115570000D02*
X172732700Y-116027200D01*
X173723300Y-115570000D02*
X173723300Y-116027200D01*
D13*
%TO.C,R15*%
X208534724Y-141746500D02*
X208025276Y-141746500D01*
X208534724Y-140701500D02*
X208025276Y-140701500D01*
%TO.C,R8*%
X180071500Y-123040224D02*
X180071500Y-122530776D01*
X181116500Y-123040224D02*
X181116500Y-122530776D01*
%TD*%
M02*
