%TF.GenerationSoftware,KiCad,Pcbnew,7.0.10*%
%TF.CreationDate,2024-05-27T10:21:38-04:00*%
%TF.ProjectId,Scout_Board,53636f75-745f-4426-9f61-72642e6b6963,rev?*%
%TF.SameCoordinates,Original*%
%TF.FileFunction,Soldermask,Top*%
%TF.FilePolarity,Negative*%
%FSLAX46Y46*%
G04 Gerber Fmt 4.6, Leading zero omitted, Abs format (unit mm)*
G04 Created by KiCad (PCBNEW 7.0.10) date 2024-05-27 10:21:38*
%MOMM*%
%LPD*%
G01*
G04 APERTURE LIST*
G04 Aperture macros list*
%AMRoundRect*
0 Rectangle with rounded corners*
0 $1 Rounding radius*
0 $2 $3 $4 $5 $6 $7 $8 $9 X,Y pos of 4 corners*
0 Add a 4 corners polygon primitive as box body*
4,1,4,$2,$3,$4,$5,$6,$7,$8,$9,$2,$3,0*
0 Add four circle primitives for the rounded corners*
1,1,$1+$1,$2,$3*
1,1,$1+$1,$4,$5*
1,1,$1+$1,$6,$7*
1,1,$1+$1,$8,$9*
0 Add four rect primitives between the rounded corners*
20,1,$1+$1,$2,$3,$4,$5,0*
20,1,$1+$1,$4,$5,$6,$7,0*
20,1,$1+$1,$6,$7,$8,$9,0*
20,1,$1+$1,$8,$9,$2,$3,0*%
G04 Aperture macros list end*
%ADD10R,1.041400X3.505200*%
%ADD11R,10.718800X12.014200*%
%ADD12C,1.244600*%
%ADD13RoundRect,0.250000X0.300000X-2.050000X0.300000X2.050000X-0.300000X2.050000X-0.300000X-2.050000X0*%
%ADD14RoundRect,0.250002X5.149998X-4.449998X5.149998X4.449998X-5.149998X4.449998X-5.149998X-4.449998X0*%
%ADD15RoundRect,0.237500X0.237500X-0.250000X0.237500X0.250000X-0.237500X0.250000X-0.237500X-0.250000X0*%
%ADD16RoundRect,0.237500X0.250000X0.237500X-0.250000X0.237500X-0.250000X-0.237500X0.250000X-0.237500X0*%
%ADD17R,1.700000X1.700000*%
%ADD18O,1.700000X1.700000*%
%ADD19RoundRect,0.237500X-0.237500X0.250000X-0.237500X-0.250000X0.237500X-0.250000X0.237500X0.250000X0*%
%ADD20RoundRect,0.102000X0.765000X0.765000X-0.765000X0.765000X-0.765000X-0.765000X0.765000X-0.765000X0*%
%ADD21C,1.734000*%
%ADD22RoundRect,0.225000X-0.375000X0.225000X-0.375000X-0.225000X0.375000X-0.225000X0.375000X0.225000X0*%
%ADD23RoundRect,0.100500X0.301500X-0.616500X0.301500X0.616500X-0.301500X0.616500X-0.301500X-0.616500X0*%
%ADD24RoundRect,0.102000X-1.600000X-0.800000X1.600000X-0.800000X1.600000X0.800000X-1.600000X0.800000X0*%
%ADD25R,0.200000X1.100000*%
%ADD26R,0.500000X0.700000*%
%ADD27RoundRect,0.250000X-1.750000X-1.000000X1.750000X-1.000000X1.750000X1.000000X-1.750000X1.000000X0*%
%ADD28R,2.800000X2.800000*%
%ADD29C,2.800000*%
%ADD30R,2.900000X5.400000*%
%ADD31C,1.320800*%
%ADD32O,4.764000X2.484000*%
%ADD33O,2.229000X4.254000*%
%ADD34O,4.254000X2.229000*%
%ADD35RoundRect,0.250000X1.000000X-1.750000X1.000000X1.750000X-1.000000X1.750000X-1.000000X-1.750000X0*%
%ADD36R,2.400000X3.100000*%
%ADD37RoundRect,0.070000X-1.100000X-0.250000X1.100000X-0.250000X1.100000X0.250000X-1.100000X0.250000X0*%
%ADD38C,0.770000*%
%ADD39RoundRect,0.225000X-0.225000X-0.375000X0.225000X-0.375000X0.225000X0.375000X-0.225000X0.375000X0*%
%ADD40RoundRect,0.237500X-0.237500X0.300000X-0.237500X-0.300000X0.237500X-0.300000X0.237500X0.300000X0*%
G04 APERTURE END LIST*
D10*
%TO.C,MOSFET1*%
X180340000Y-118224300D03*
D11*
X182880000Y-109220000D03*
D10*
X185420000Y-118224300D03*
%TD*%
D12*
%TO.C,Conn11*%
X211859999Y-147320000D03*
X213360000Y-147320000D03*
%TD*%
D13*
%TO.C,U4*%
X226216000Y-134650000D03*
X227916000Y-134650000D03*
X229616000Y-134650000D03*
D14*
X229616000Y-125500000D03*
D13*
X231316000Y-134650000D03*
X233016000Y-134650000D03*
%TD*%
%TO.C,U3*%
X194974000Y-105440000D03*
X196674000Y-105440000D03*
X198374000Y-105440000D03*
D14*
X198374000Y-96290000D03*
D13*
X200074000Y-105440000D03*
X201774000Y-105440000D03*
%TD*%
D15*
%TO.C,R5*%
X189230000Y-119784500D03*
X189230000Y-117959500D03*
%TD*%
D12*
%TO.C,Conn12*%
X211859999Y-139700000D03*
X213360000Y-139700000D03*
%TD*%
D16*
%TO.C,R7*%
X219860500Y-147574000D03*
X218035500Y-147574000D03*
%TD*%
D17*
%TO.C,J6*%
X222270000Y-154970000D03*
D18*
X219730000Y-154970000D03*
X222270000Y-157510000D03*
X219730000Y-157510000D03*
X222270000Y-160050000D03*
X219730000Y-160050000D03*
X222270000Y-162590000D03*
X219730000Y-162590000D03*
X222270000Y-165130000D03*
X219730000Y-165130000D03*
%TD*%
D19*
%TO.C,R10*%
X173482000Y-121769500D03*
X173482000Y-123594500D03*
%TD*%
D20*
%TO.C,U2*%
X162014500Y-156970000D03*
D21*
X162014500Y-154430000D03*
X162014500Y-151890000D03*
X162014500Y-149350000D03*
X162014500Y-146810000D03*
X162014500Y-144270000D03*
X162014500Y-141730000D03*
X162014500Y-139190000D03*
X162014500Y-136650000D03*
X162014500Y-134110000D03*
X162014500Y-131570000D03*
X162014500Y-129030000D03*
X162014500Y-126490000D03*
X162014500Y-123950000D03*
X162014500Y-121410000D03*
X162014500Y-118870000D03*
X162014500Y-116330000D03*
X162014500Y-113790000D03*
X162014500Y-111250000D03*
X162014500Y-108710000D03*
X162014500Y-106170000D03*
X162014500Y-103630000D03*
X139154500Y-156970000D03*
X139154500Y-154430000D03*
X139154500Y-151890000D03*
X139154500Y-149350000D03*
X139154500Y-146810000D03*
X139154500Y-144270000D03*
X139154500Y-141730000D03*
X139154500Y-139190000D03*
X139154500Y-136650000D03*
X139154500Y-134110000D03*
X139154500Y-131570000D03*
X139154500Y-129030000D03*
X139154500Y-126490000D03*
X139154500Y-123950000D03*
X139154500Y-121410000D03*
X139154500Y-118870000D03*
X139154500Y-116330000D03*
X139154500Y-113790000D03*
X139154500Y-111250000D03*
X139154500Y-108710000D03*
X139154500Y-106170000D03*
X139154500Y-103630000D03*
%TD*%
D16*
%TO.C,R14*%
X209192500Y-149098000D03*
X207367500Y-149098000D03*
%TD*%
D17*
%TO.C,J5*%
X229870000Y-155194000D03*
D18*
X227330000Y-155194000D03*
X229870000Y-157734000D03*
X227330000Y-157734000D03*
X229870000Y-160274000D03*
X227330000Y-160274000D03*
X229870000Y-162814000D03*
X227330000Y-162814000D03*
X229870000Y-165354000D03*
X227330000Y-165354000D03*
%TD*%
D12*
%TO.C,Conn10*%
X211859999Y-154940000D03*
X213360000Y-154940000D03*
%TD*%
%TO.C,Conn4*%
X203200000Y-134088001D03*
X204700001Y-134088001D03*
%TD*%
D22*
%TO.C,D1*%
X205486000Y-113158000D03*
X205486000Y-116458000D03*
%TD*%
D16*
%TO.C,R2*%
X199540500Y-166624000D03*
X197715500Y-166624000D03*
%TD*%
D12*
%TO.C,Conn9*%
X211859999Y-162560000D03*
X213360000Y-162560000D03*
%TD*%
D23*
%TO.C,Q1*%
X183266000Y-123952000D03*
X185166000Y-123952000D03*
X184216000Y-121832000D03*
%TD*%
D24*
%TO.C,C2*%
X191342000Y-126238000D03*
X196342000Y-126238000D03*
%TD*%
D17*
%TO.C,J1*%
X172466000Y-148844000D03*
%TD*%
D25*
%TO.C,S2*%
X157545000Y-161600000D03*
D26*
X157895000Y-161600000D03*
X162145000Y-161600000D03*
D25*
X162495000Y-161600000D03*
X157545000Y-165100000D03*
D26*
X157895000Y-165100000D03*
X162145000Y-165100000D03*
D25*
X162495000Y-165100000D03*
%TD*%
%TO.C,S3*%
X168120000Y-161600000D03*
D26*
X168470000Y-161600000D03*
X172720000Y-161600000D03*
D25*
X173070000Y-161600000D03*
X168120000Y-165100000D03*
D26*
X168470000Y-165100000D03*
X172720000Y-165100000D03*
D25*
X173070000Y-165100000D03*
%TD*%
D16*
%TO.C,R13*%
X209296000Y-156718000D03*
X207471000Y-156718000D03*
%TD*%
D12*
%TO.C,Conn1*%
X203200000Y-127000000D03*
X204700001Y-127000000D03*
%TD*%
D25*
%TO.C,S1*%
X147385000Y-161600000D03*
D26*
X147735000Y-161600000D03*
X151985000Y-161600000D03*
D25*
X152335000Y-161600000D03*
X147385000Y-165100000D03*
D26*
X147735000Y-165100000D03*
X151985000Y-165100000D03*
D25*
X152335000Y-165100000D03*
%TD*%
D23*
%TO.C,Q2*%
X169738000Y-123742000D03*
X171638000Y-123742000D03*
X170688000Y-121622000D03*
%TD*%
D12*
%TO.C,Conn6*%
X203200000Y-149328001D03*
X204700001Y-149328001D03*
%TD*%
D16*
%TO.C,R3*%
X199794500Y-158750000D03*
X197969500Y-158750000D03*
%TD*%
D27*
%TO.C,C6*%
X210884000Y-127000000D03*
X218884000Y-127000000D03*
%TD*%
D15*
%TO.C,R6*%
X176530000Y-119784500D03*
X176530000Y-117959500D03*
%TD*%
D16*
%TO.C,R12*%
X209192500Y-164084000D03*
X207367500Y-164084000D03*
%TD*%
D27*
%TO.C,C3*%
X193612000Y-115316000D03*
X201612000Y-115316000D03*
%TD*%
D25*
%TO.C,S5*%
X182945000Y-161600000D03*
D26*
X183295000Y-161600000D03*
X187545000Y-161600000D03*
D25*
X187895000Y-161600000D03*
X182945000Y-165100000D03*
D26*
X183295000Y-165100000D03*
X187545000Y-165100000D03*
D25*
X187895000Y-165100000D03*
%TD*%
D28*
%TO.C,J4*%
X180928000Y-97282000D03*
D29*
X185928000Y-97282000D03*
%TD*%
D30*
%TO.C,L1*%
X209172000Y-112014000D03*
X219072000Y-112014000D03*
%TD*%
D31*
%TO.C,Conn7*%
X194818000Y-155194000D03*
X193318001Y-155194000D03*
X191817999Y-155194000D03*
X190317999Y-155194000D03*
%TD*%
D15*
%TO.C,R9*%
X187452000Y-123698000D03*
X187452000Y-121873000D03*
%TD*%
D12*
%TO.C,Conn8*%
X219479999Y-144780000D03*
X220980000Y-144780000D03*
%TD*%
D27*
%TO.C,C5*%
X226378000Y-146050000D03*
X234378000Y-146050000D03*
%TD*%
D25*
%TO.C,S6*%
X190150000Y-161600000D03*
D26*
X190500000Y-161600000D03*
X194750000Y-161600000D03*
D25*
X195100000Y-161600000D03*
X190150000Y-165100000D03*
D26*
X190500000Y-165100000D03*
X194750000Y-165100000D03*
D25*
X195100000Y-165100000D03*
%TD*%
D17*
%TO.C,J2*%
X171958000Y-154432000D03*
D18*
X174498000Y-154432000D03*
X177038000Y-154432000D03*
X179578000Y-154432000D03*
%TD*%
D12*
%TO.C,Conn2*%
X203200000Y-164568001D03*
X204700001Y-164568001D03*
%TD*%
D25*
%TO.C,S4*%
X175740000Y-161600000D03*
D26*
X176090000Y-161600000D03*
X180340000Y-161600000D03*
D25*
X180690000Y-161600000D03*
X175740000Y-165100000D03*
D26*
X176090000Y-165100000D03*
X180340000Y-165100000D03*
D25*
X180690000Y-165100000D03*
%TD*%
D19*
%TO.C,R1*%
X169418000Y-98401500D03*
X169418000Y-100226500D03*
%TD*%
D32*
%TO.C,J3*%
X226568000Y-98706000D03*
D33*
X221768000Y-95706000D03*
D34*
X226568000Y-92456000D03*
%TD*%
D35*
%TO.C,C4*%
X212598000Y-101282000D03*
X212598000Y-93282000D03*
%TD*%
D15*
%TO.C,R11*%
X167894000Y-123594500D03*
X167894000Y-121769500D03*
%TD*%
D12*
%TO.C,Conn3*%
X203200000Y-156948001D03*
X204700001Y-156948001D03*
%TD*%
D36*
%TO.C,U1*%
X169418000Y-94234000D03*
D37*
X166543000Y-92329000D03*
X166543000Y-93599000D03*
X166543000Y-94869000D03*
X166543000Y-96139000D03*
X172293000Y-96139000D03*
X172293000Y-94869000D03*
X172293000Y-93599000D03*
X172293000Y-92329000D03*
D38*
X168768000Y-92934000D03*
X168768000Y-94234000D03*
X168768000Y-95534000D03*
X170068000Y-92934000D03*
X170068000Y-94234000D03*
X170068000Y-95534000D03*
%TD*%
D39*
%TO.C,D2*%
X228220000Y-138938000D03*
X231520000Y-138938000D03*
%TD*%
D12*
%TO.C,Conn5*%
X203200000Y-141708001D03*
X204700001Y-141708001D03*
%TD*%
D40*
%TO.C,C1*%
X173228000Y-98451500D03*
X173228000Y-100176500D03*
%TD*%
D30*
%TO.C,L2*%
X224412000Y-111252000D03*
X234312000Y-111252000D03*
%TD*%
D16*
%TO.C,R4*%
X200048500Y-150876000D03*
X198223500Y-150876000D03*
%TD*%
D10*
%TO.C,MOSFET2*%
X168148000Y-118135400D03*
D11*
X170688000Y-109131100D03*
D10*
X173228000Y-118135400D03*
%TD*%
D16*
%TO.C,R15*%
X209192500Y-141224000D03*
X207367500Y-141224000D03*
%TD*%
D15*
%TO.C,R8*%
X180594000Y-123698000D03*
X180594000Y-121873000D03*
%TD*%
M02*
