%TF.GenerationSoftware,KiCad,Pcbnew,8.0.3*%
%TF.CreationDate,2024-11-27T14:38:23-05:00*%
%TF.ProjectId,Scout_Board,53636f75-745f-4426-9f61-72642e6b6963,rev?*%
%TF.SameCoordinates,Original*%
%TF.FileFunction,Soldermask,Top*%
%TF.FilePolarity,Negative*%
%FSLAX46Y46*%
G04 Gerber Fmt 4.6, Leading zero omitted, Abs format (unit mm)*
G04 Created by KiCad (PCBNEW 8.0.3) date 2024-11-27 14:38:23*
%MOMM*%
%LPD*%
G01*
G04 APERTURE LIST*
G04 Aperture macros list*
%AMRoundRect*
0 Rectangle with rounded corners*
0 $1 Rounding radius*
0 $2 $3 $4 $5 $6 $7 $8 $9 X,Y pos of 4 corners*
0 Add a 4 corners polygon primitive as box body*
4,1,4,$2,$3,$4,$5,$6,$7,$8,$9,$2,$3,0*
0 Add four circle primitives for the rounded corners*
1,1,$1+$1,$2,$3*
1,1,$1+$1,$4,$5*
1,1,$1+$1,$6,$7*
1,1,$1+$1,$8,$9*
0 Add four rect primitives between the rounded corners*
20,1,$1+$1,$2,$3,$4,$5,0*
20,1,$1+$1,$4,$5,$6,$7,0*
20,1,$1+$1,$6,$7,$8,$9,0*
20,1,$1+$1,$8,$9,$2,$3,0*%
G04 Aperture macros list end*
%ADD10C,1.400000*%
%ADD11RoundRect,0.250000X-0.600000X0.600000X-0.600000X-0.600000X0.600000X-0.600000X0.600000X0.600000X0*%
%ADD12C,1.700000*%
%ADD13R,1.600000X1.600000*%
%ADD14O,1.600000X1.600000*%
%ADD15C,1.200000*%
%ADD16RoundRect,0.250000X0.750000X-0.600000X0.750000X0.600000X-0.750000X0.600000X-0.750000X-0.600000X0*%
%ADD17O,2.000000X1.700000*%
%ADD18C,1.676400*%
%ADD19RoundRect,0.250000X-0.600000X-0.750000X0.600000X-0.750000X0.600000X0.750000X-0.600000X0.750000X0*%
%ADD20O,1.700000X2.000000*%
%ADD21R,1.700000X1.700000*%
%ADD22O,1.700000X1.700000*%
%ADD23RoundRect,0.250000X-0.600000X-0.725000X0.600000X-0.725000X0.600000X0.725000X-0.600000X0.725000X0*%
%ADD24O,1.700000X1.950000*%
%ADD25RoundRect,0.102000X-0.765000X0.765000X-0.765000X-0.765000X0.765000X-0.765000X0.765000X0.765000X0*%
%ADD26C,1.734000*%
%ADD27RoundRect,0.250000X-1.500000X-0.550000X1.500000X-0.550000X1.500000X0.550000X-1.500000X0.550000X0*%
%ADD28R,1.524000X1.524000*%
%ADD29C,1.524000*%
G04 APERTURE END LIST*
D10*
%TO.C,JP1*%
X258826000Y-186436000D03*
X261366000Y-186436000D03*
%TD*%
D11*
%TO.C,J2*%
X248920000Y-144780000D03*
D12*
X248920000Y-147320000D03*
X246380000Y-144780000D03*
X246380000Y-147320000D03*
X243840000Y-144780000D03*
X243840000Y-147320000D03*
X241300000Y-144780000D03*
X241300000Y-147320000D03*
X238760000Y-144780000D03*
X238760000Y-147320000D03*
X236220000Y-144780000D03*
X236220000Y-147320000D03*
X233680000Y-144780000D03*
X233680000Y-147320000D03*
%TD*%
D13*
%TO.C,U2*%
X247650000Y-182626000D03*
D14*
X250190000Y-182626000D03*
X252730000Y-182626000D03*
X255270000Y-182626000D03*
X257810000Y-182626000D03*
X260350000Y-182626000D03*
X262890000Y-182626000D03*
X265430000Y-182626000D03*
X265430000Y-169926000D03*
X262890000Y-169926000D03*
X260350000Y-169926000D03*
X257810000Y-169926000D03*
X255270000Y-169926000D03*
X252730000Y-169926000D03*
X250190000Y-169926000D03*
X247650000Y-169926000D03*
%TD*%
D15*
%TO.C,J7*%
X254730000Y-138212000D03*
D16*
X252730000Y-136612000D03*
D17*
X252730000Y-134112000D03*
%TD*%
D18*
%TO.C,J3*%
X255249100Y-153160900D03*
X255249100Y-155700900D03*
X255249100Y-158240900D03*
%TD*%
D15*
%TO.C,Conn2*%
X177510000Y-145510000D03*
D19*
X179110000Y-143510000D03*
D20*
X181610000Y-143510000D03*
%TD*%
D21*
%TO.C,J9*%
X171196000Y-142748000D03*
D22*
X168656000Y-142748000D03*
X171196000Y-145288000D03*
X168656000Y-145288000D03*
X171196000Y-147828000D03*
X168656000Y-147828000D03*
X171196000Y-150368000D03*
X168656000Y-150368000D03*
%TD*%
D21*
%TO.C,J6*%
X257080000Y-146000000D03*
D22*
X257080000Y-148540000D03*
X259620000Y-146000000D03*
X259620000Y-148540000D03*
X262160000Y-146000000D03*
X262160000Y-148540000D03*
X264700000Y-146000000D03*
X264700000Y-148540000D03*
X267240000Y-146000000D03*
X267240000Y-148540000D03*
%TD*%
D15*
%TO.C,J8*%
X207736000Y-147034000D03*
D23*
X209336000Y-145034000D03*
D24*
X211836000Y-145034000D03*
X214336000Y-145034000D03*
X216836000Y-145034000D03*
%TD*%
D21*
%TO.C,J5*%
X267240000Y-130840000D03*
D22*
X264700000Y-130840000D03*
X267240000Y-133380000D03*
X264700000Y-133380000D03*
X267240000Y-135920000D03*
X264700000Y-135920000D03*
X267240000Y-138460000D03*
X264700000Y-138460000D03*
X267240000Y-141000000D03*
X264700000Y-141000000D03*
%TD*%
D15*
%TO.C,Conn4*%
X194020000Y-146780000D03*
D19*
X195620000Y-144780000D03*
D20*
X198120000Y-144780000D03*
%TD*%
D25*
%TO.C,U1*%
X231140000Y-154940000D03*
D26*
X228600000Y-154940000D03*
X226060000Y-154940000D03*
X223520000Y-154940000D03*
X220980000Y-154940000D03*
X218440000Y-154940000D03*
X215900000Y-154940000D03*
X213360000Y-154940000D03*
X210820000Y-154940000D03*
X208280000Y-154940000D03*
X205740000Y-154940000D03*
X203200000Y-154940000D03*
X200660000Y-154940000D03*
X198120000Y-154940000D03*
X195580000Y-154940000D03*
X193040000Y-154940000D03*
X190500000Y-154940000D03*
X187960000Y-154940000D03*
X185420000Y-154940000D03*
X182880000Y-154940000D03*
X180340000Y-154940000D03*
X177800000Y-154940000D03*
X231140000Y-177800000D03*
X228600000Y-177800000D03*
X226060000Y-177800000D03*
X223520000Y-177800000D03*
X220980000Y-177800000D03*
X218440000Y-177800000D03*
X215900000Y-177800000D03*
X213360000Y-177800000D03*
X210820000Y-177800000D03*
X208280000Y-177800000D03*
X205740000Y-177800000D03*
X203200000Y-177800000D03*
X200660000Y-177800000D03*
X198120000Y-177800000D03*
X195580000Y-177800000D03*
X193040000Y-177800000D03*
X190500000Y-177800000D03*
X187960000Y-177800000D03*
X185420000Y-177800000D03*
X182880000Y-177800000D03*
X180340000Y-177800000D03*
X177800000Y-177800000D03*
%TD*%
D27*
%TO.C,C1*%
X243326000Y-163322000D03*
X248926000Y-163322000D03*
%TD*%
D28*
%TO.C,J11*%
X233680000Y-182880000D03*
D29*
X233680000Y-185420000D03*
X231140000Y-182880000D03*
X231140000Y-185420000D03*
X228600000Y-182880000D03*
X228600000Y-185420000D03*
X226060000Y-182880000D03*
X226060000Y-185420000D03*
X223520000Y-182880000D03*
X223520000Y-185420000D03*
X220980000Y-182880000D03*
X220980000Y-185420000D03*
X218440000Y-182880000D03*
X218440000Y-185420000D03*
X215900000Y-182880000D03*
X215900000Y-185420000D03*
X213360000Y-182880000D03*
X213360000Y-185420000D03*
X210820000Y-182880000D03*
X210820000Y-185420000D03*
X208280000Y-182880000D03*
X208280000Y-185420000D03*
X205740000Y-182880000D03*
X205740000Y-185420000D03*
X203200000Y-182880000D03*
X203200000Y-185420000D03*
X200660000Y-182880000D03*
X200660000Y-185420000D03*
X198120000Y-182880000D03*
X198120000Y-185420000D03*
X195580000Y-182880000D03*
X195580000Y-185420000D03*
X193040000Y-182880000D03*
X193040000Y-185420000D03*
X190500000Y-182880000D03*
X190500000Y-185420000D03*
X187960000Y-182880000D03*
X187960000Y-185420000D03*
X185420000Y-182880000D03*
X185420000Y-185420000D03*
X182880000Y-182880000D03*
X182880000Y-185420000D03*
X180340000Y-182880000D03*
X180340000Y-185420000D03*
X177800000Y-182880000D03*
X177800000Y-185420000D03*
%TD*%
%TO.C,J10*%
X233680000Y-134620000D03*
X233680000Y-137160000D03*
X231140000Y-134620000D03*
X231140000Y-137160000D03*
X228600000Y-134620000D03*
X228600000Y-137160000D03*
X226060000Y-134620000D03*
X226060000Y-137160000D03*
X223520000Y-134620000D03*
X223520000Y-137160000D03*
X220980000Y-134620000D03*
X220980000Y-137160000D03*
X218440000Y-134620000D03*
X218440000Y-137160000D03*
X215900000Y-134620000D03*
X215900000Y-137160000D03*
X213360000Y-134620000D03*
X213360000Y-137160000D03*
X210820000Y-134620000D03*
X210820000Y-137160000D03*
X208280000Y-134620000D03*
X208280000Y-137160000D03*
X205740000Y-134620000D03*
X205740000Y-137160000D03*
X203200000Y-134620000D03*
X203200000Y-137160000D03*
X200660000Y-134620000D03*
X200660000Y-137160000D03*
X198120000Y-134620000D03*
X198120000Y-137160000D03*
X195580000Y-134620000D03*
X195580000Y-137160000D03*
X193040000Y-134620000D03*
X193040000Y-137160000D03*
X190500000Y-134620000D03*
X190500000Y-137160000D03*
X187960000Y-134620000D03*
X187960000Y-137160000D03*
X185420000Y-134620000D03*
X185420000Y-137160000D03*
X182880000Y-134620000D03*
X182880000Y-137160000D03*
X180340000Y-134620000D03*
X180340000Y-137160000D03*
X177800000Y-134620000D03*
X177800000Y-137160000D03*
D28*
X238760000Y-134620000D03*
D29*
X238760000Y-137160000D03*
X236220000Y-134620000D03*
X236220000Y-137160000D03*
%TD*%
M02*
