M48
; DRILL file {KiCad 8.0.3} date 2024-11-27T14:38:23-0500
; FORMAT={-:-/ absolute / inch / decimal}
; #@! TF.CreationDate,2024-11-27T14:38:23-05:00
; #@! TF.GenerationSoftware,Kicad,Pcbnew,8.0.3
; #@! TF.FileFunction,Plated,1,4,PTH
FMAT,2
INCH
; #@! TA.AperFunction,Plated,PTH,ViaDrill
T1C0.0157
; #@! TA.AperFunction,Plated,PTH,ComponentDrill
T2C0.0300
; #@! TA.AperFunction,Plated,PTH,ComponentDrill
T3C0.0315
; #@! TA.AperFunction,Plated,PTH,ComponentDrill
T4C0.0374
; #@! TA.AperFunction,Plated,PTH,ComponentDrill
T5C0.0394
; #@! TA.AperFunction,Plated,PTH,ComponentDrill
T6C0.0402
; #@! TA.AperFunction,Plated,PTH,ComponentDrill
T7C0.0460
%
G90
G05
T1
X6.95Y-5.93
X7.2Y-6.01
X7.37Y-5.77
X8.45Y-6.46
X8.5167Y-6.7145
X8.61Y-6.67
X8.75Y-6.7183
X8.8409Y-6.7125
X8.9748Y-6.7483
X9.06Y-6.75
X9.07Y-6.01
X9.27Y-5.99
T2
X7.0Y-5.3
X7.0Y-5.4
X7.0Y-7.2
X7.0Y-7.3
X7.1Y-5.3
X7.1Y-5.4
X7.1Y-7.2
X7.1Y-7.3
X7.2Y-5.3
X7.2Y-5.4
X7.2Y-7.2
X7.2Y-7.3
X7.3Y-5.3
X7.3Y-5.4
X7.3Y-7.2
X7.3Y-7.3
X7.4Y-5.3
X7.4Y-5.4
X7.4Y-7.2
X7.4Y-7.3
X7.5Y-5.3
X7.5Y-5.4
X7.5Y-7.2
X7.5Y-7.3
X7.6Y-5.3
X7.6Y-5.4
X7.6Y-7.2
X7.6Y-7.3
X7.7Y-5.3
X7.7Y-5.4
X7.7Y-7.2
X7.7Y-7.3
X7.8Y-5.3
X7.8Y-5.4
X7.8Y-7.2
X7.8Y-7.3
X7.9Y-5.3
X7.9Y-5.4
X7.9Y-7.2
X7.9Y-7.3
X8.0Y-5.3
X8.0Y-5.4
X8.0Y-7.2
X8.0Y-7.3
X8.1Y-5.3
X8.1Y-5.4
X8.1Y-7.2
X8.1Y-7.3
X8.2Y-5.3
X8.2Y-5.4
X8.2Y-7.2
X8.2Y-7.3
X8.3Y-5.3
X8.3Y-5.4
X8.3Y-7.2
X8.3Y-7.3
X8.4Y-5.3
X8.4Y-5.4
X8.4Y-7.2
X8.4Y-7.3
X8.5Y-5.3
X8.5Y-5.4
X8.5Y-7.2
X8.5Y-7.3
X8.6Y-5.3
X8.6Y-5.4
X8.6Y-7.2
X8.6Y-7.3
X8.7Y-5.3
X8.7Y-5.4
X8.7Y-7.2
X8.7Y-7.3
X8.8Y-5.3
X8.8Y-5.4
X8.8Y-7.2
X8.8Y-7.3
X8.9Y-5.3
X8.9Y-5.4
X8.9Y-7.2
X8.9Y-7.3
X9.0Y-5.3
X9.0Y-5.4
X9.0Y-7.2
X9.0Y-7.3
X9.1Y-5.3
X9.1Y-5.4
X9.1Y-7.2
X9.1Y-7.3
X9.2Y-5.3
X9.2Y-5.4
X9.2Y-7.2
X9.2Y-7.3
X9.3Y-5.3
X9.3Y-5.4
X9.4Y-5.3
X9.4Y-5.4
T3
X9.75Y-6.69
X9.75Y-7.19
X9.85Y-6.69
X9.85Y-7.19
X9.95Y-6.69
X9.95Y-7.19
X10.05Y-6.69
X10.05Y-7.19
X10.15Y-6.69
X10.15Y-7.19
X10.19Y-7.34
X10.25Y-6.69
X10.25Y-7.19
X10.29Y-7.34
X10.35Y-6.69
X10.35Y-7.19
X10.45Y-6.69
X10.45Y-7.19
T4
X8.2416Y-5.71
X8.34Y-5.71
X8.4384Y-5.71
X8.5369Y-5.71
T5
X6.64Y-5.62
X6.64Y-5.72
X6.64Y-5.82
X6.64Y-5.92
X6.74Y-5.62
X6.74Y-5.72
X6.74Y-5.82
X6.74Y-5.92
X7.0516Y-5.65
X7.15Y-5.65
X7.7016Y-5.7
X7.8Y-5.7
X9.2Y-5.7
X9.2Y-5.8
X9.3Y-5.7
X9.3Y-5.8
X9.4Y-5.7
X9.4Y-5.8
X9.5Y-5.7
X9.5Y-5.8
X9.6Y-5.7
X9.6Y-5.8
X9.7Y-5.7
X9.7Y-5.8
X9.8Y-5.7
X9.8Y-5.8
X9.95Y-5.28
X9.95Y-5.3784
X10.1213Y-5.748
X10.1213Y-5.848
X10.2213Y-5.748
X10.2213Y-5.848
X10.3213Y-5.748
X10.3213Y-5.848
X10.4213Y-5.1512
X10.4213Y-5.2512
X10.4213Y-5.3512
X10.4213Y-5.4512
X10.4213Y-5.5512
X10.4213Y-5.748
X10.4213Y-5.848
X10.5213Y-5.1512
X10.5213Y-5.2512
X10.5213Y-5.3512
X10.5213Y-5.4512
X10.5213Y-5.5512
X10.5213Y-5.748
X10.5213Y-5.848
T6
X7.0Y-6.1
X7.0Y-7.0
X7.1Y-6.1
X7.1Y-7.0
X7.2Y-6.1
X7.2Y-7.0
X7.3Y-6.1
X7.3Y-7.0
X7.4Y-6.1
X7.4Y-7.0
X7.5Y-6.1
X7.5Y-7.0
X7.6Y-6.1
X7.6Y-7.0
X7.7Y-6.1
X7.7Y-7.0
X7.8Y-6.1
X7.8Y-7.0
X7.9Y-6.1
X7.9Y-7.0
X8.0Y-6.1
X8.0Y-7.0
X8.1Y-6.1
X8.1Y-7.0
X8.2Y-6.1
X8.2Y-7.0
X8.3Y-6.1
X8.3Y-7.0
X8.4Y-6.1
X8.4Y-7.0
X8.5Y-6.1
X8.5Y-7.0
X8.6Y-6.1
X8.6Y-7.0
X8.7Y-6.1
X8.7Y-7.0
X8.8Y-6.1
X8.8Y-7.0
X8.9Y-6.1
X8.9Y-7.0
X9.0Y-6.1
X9.0Y-7.0
X9.1Y-6.1
X9.1Y-7.0
T7
X10.0492Y-6.03
X10.0492Y-6.13
X10.0492Y-6.23
M30
