%TF.GenerationSoftware,KiCad,Pcbnew,8.0.3*%
%TF.CreationDate,2024-11-05T15:41:53-05:00*%
%TF.ProjectId,Scout_Board,53636f75-745f-4426-9f61-72642e6b6963,rev?*%
%TF.SameCoordinates,Original*%
%TF.FileFunction,Legend,Top*%
%TF.FilePolarity,Positive*%
%FSLAX46Y46*%
G04 Gerber Fmt 4.6, Leading zero omitted, Abs format (unit mm)*
G04 Created by KiCad (PCBNEW 8.0.3) date 2024-11-05 15:41:53*
%MOMM*%
%LPD*%
G01*
G04 APERTURE LIST*
G04 Aperture macros list*
%AMRoundRect*
0 Rectangle with rounded corners*
0 $1 Rounding radius*
0 $2 $3 $4 $5 $6 $7 $8 $9 X,Y pos of 4 corners*
0 Add a 4 corners polygon primitive as box body*
4,1,4,$2,$3,$4,$5,$6,$7,$8,$9,$2,$3,0*
0 Add four circle primitives for the rounded corners*
1,1,$1+$1,$2,$3*
1,1,$1+$1,$4,$5*
1,1,$1+$1,$6,$7*
1,1,$1+$1,$8,$9*
0 Add four rect primitives between the rounded corners*
20,1,$1+$1,$2,$3,$4,$5,0*
20,1,$1+$1,$4,$5,$6,$7,0*
20,1,$1+$1,$6,$7,$8,$9,0*
20,1,$1+$1,$8,$9,$2,$3,0*%
G04 Aperture macros list end*
%ADD10C,0.150000*%
%ADD11C,0.120000*%
%ADD12C,0.152400*%
%ADD13C,0.508000*%
%ADD14C,0.127000*%
%ADD15C,0.200000*%
%ADD16C,0.100000*%
%ADD17C,1.400000*%
%ADD18RoundRect,0.250000X-0.600000X0.600000X-0.600000X-0.600000X0.600000X-0.600000X0.600000X0.600000X0*%
%ADD19C,1.700000*%
%ADD20R,1.600000X1.600000*%
%ADD21O,1.600000X1.600000*%
%ADD22C,1.200000*%
%ADD23RoundRect,0.250000X0.750000X-0.600000X0.750000X0.600000X-0.750000X0.600000X-0.750000X-0.600000X0*%
%ADD24O,2.000000X1.700000*%
%ADD25C,1.676400*%
%ADD26RoundRect,0.250000X-0.600000X-0.750000X0.600000X-0.750000X0.600000X0.750000X-0.600000X0.750000X0*%
%ADD27O,1.700000X2.000000*%
%ADD28R,1.700000X1.700000*%
%ADD29O,1.700000X1.700000*%
%ADD30RoundRect,0.250000X-0.600000X-0.725000X0.600000X-0.725000X0.600000X0.725000X-0.600000X0.725000X0*%
%ADD31O,1.700000X1.950000*%
%ADD32RoundRect,0.102000X-0.765000X0.765000X-0.765000X-0.765000X0.765000X-0.765000X0.765000X0.765000X0*%
%ADD33C,1.734000*%
%ADD34RoundRect,0.250000X-1.500000X-0.550000X1.500000X-0.550000X1.500000X0.550000X-1.500000X0.550000X0*%
%ADD35R,1.524000X1.524000*%
%ADD36C,1.524000*%
G04 APERTURE END LIST*
D10*
X170180000Y-158496000D02*
X178054000Y-158496000D01*
X178054000Y-167132000D01*
X170180000Y-167132000D01*
X170180000Y-158496000D01*
X173104180Y-149736398D02*
X173104180Y-149926874D01*
X173104180Y-149926874D02*
X173151800Y-150022112D01*
X173151800Y-150022112D02*
X173199419Y-150069731D01*
X173199419Y-150069731D02*
X173342276Y-150164969D01*
X173342276Y-150164969D02*
X173532752Y-150212588D01*
X173532752Y-150212588D02*
X173913704Y-150212588D01*
X173913704Y-150212588D02*
X174008942Y-150164969D01*
X174008942Y-150164969D02*
X174056561Y-150117350D01*
X174056561Y-150117350D02*
X174104180Y-150022112D01*
X174104180Y-150022112D02*
X174104180Y-149831636D01*
X174104180Y-149831636D02*
X174056561Y-149736398D01*
X174056561Y-149736398D02*
X174008942Y-149688779D01*
X174008942Y-149688779D02*
X173913704Y-149641160D01*
X173913704Y-149641160D02*
X173675609Y-149641160D01*
X173675609Y-149641160D02*
X173580371Y-149688779D01*
X173580371Y-149688779D02*
X173532752Y-149736398D01*
X173532752Y-149736398D02*
X173485133Y-149831636D01*
X173485133Y-149831636D02*
X173485133Y-150022112D01*
X173485133Y-150022112D02*
X173532752Y-150117350D01*
X173532752Y-150117350D02*
X173580371Y-150164969D01*
X173580371Y-150164969D02*
X173675609Y-150212588D01*
X238334779Y-139046009D02*
X238668112Y-139046009D01*
X238810969Y-139569819D02*
X238334779Y-139569819D01*
X238334779Y-139569819D02*
X238334779Y-138569819D01*
X238334779Y-138569819D02*
X238810969Y-138569819D01*
X239191922Y-138665057D02*
X239239541Y-138617438D01*
X239239541Y-138617438D02*
X239334779Y-138569819D01*
X239334779Y-138569819D02*
X239572874Y-138569819D01*
X239572874Y-138569819D02*
X239668112Y-138617438D01*
X239668112Y-138617438D02*
X239715731Y-138665057D01*
X239715731Y-138665057D02*
X239763350Y-138760295D01*
X239763350Y-138760295D02*
X239763350Y-138855533D01*
X239763350Y-138855533D02*
X239715731Y-138998390D01*
X239715731Y-138998390D02*
X239144303Y-139569819D01*
X239144303Y-139569819D02*
X239763350Y-139569819D01*
X247504009Y-187369220D02*
X247504009Y-187035887D01*
X248027819Y-186893030D02*
X248027819Y-187369220D01*
X248027819Y-187369220D02*
X247027819Y-187369220D01*
X247027819Y-187369220D02*
X247027819Y-186893030D01*
X248027819Y-186464458D02*
X247027819Y-186464458D01*
X247027819Y-186464458D02*
X248027819Y-185893030D01*
X248027819Y-185893030D02*
X247027819Y-185893030D01*
X233461160Y-186925057D02*
X233508779Y-186877438D01*
X233508779Y-186877438D02*
X233604017Y-186829819D01*
X233604017Y-186829819D02*
X233842112Y-186829819D01*
X233842112Y-186829819D02*
X233937350Y-186877438D01*
X233937350Y-186877438D02*
X233984969Y-186925057D01*
X233984969Y-186925057D02*
X234032588Y-187020295D01*
X234032588Y-187020295D02*
X234032588Y-187115533D01*
X234032588Y-187115533D02*
X233984969Y-187258390D01*
X233984969Y-187258390D02*
X233413541Y-187829819D01*
X233413541Y-187829819D02*
X234032588Y-187829819D01*
X252526969Y-152539819D02*
X252050779Y-152539819D01*
X252050779Y-152539819D02*
X252003160Y-153016009D01*
X252003160Y-153016009D02*
X252050779Y-152968390D01*
X252050779Y-152968390D02*
X252146017Y-152920771D01*
X252146017Y-152920771D02*
X252384112Y-152920771D01*
X252384112Y-152920771D02*
X252479350Y-152968390D01*
X252479350Y-152968390D02*
X252526969Y-153016009D01*
X252526969Y-153016009D02*
X252574588Y-153111247D01*
X252574588Y-153111247D02*
X252574588Y-153349342D01*
X252574588Y-153349342D02*
X252526969Y-153444580D01*
X252526969Y-153444580D02*
X252479350Y-153492200D01*
X252479350Y-153492200D02*
X252384112Y-153539819D01*
X252384112Y-153539819D02*
X252146017Y-153539819D01*
X252146017Y-153539819D02*
X252050779Y-153492200D01*
X252050779Y-153492200D02*
X252003160Y-153444580D01*
X252860303Y-152539819D02*
X253193636Y-153539819D01*
X253193636Y-153539819D02*
X253526969Y-152539819D01*
X165827152Y-142744649D02*
X166493819Y-142744649D01*
X165446200Y-142982744D02*
X166160485Y-143220839D01*
X166160485Y-143220839D02*
X166160485Y-142601792D01*
X165493819Y-142316077D02*
X165493819Y-141649411D01*
X165493819Y-141649411D02*
X166493819Y-142077982D01*
X165827152Y-145284649D02*
X166493819Y-145284649D01*
X165446200Y-145522744D02*
X166160485Y-145760839D01*
X166160485Y-145760839D02*
X166160485Y-145141792D01*
X165922390Y-144617982D02*
X165874771Y-144713220D01*
X165874771Y-144713220D02*
X165827152Y-144760839D01*
X165827152Y-144760839D02*
X165731914Y-144808458D01*
X165731914Y-144808458D02*
X165684295Y-144808458D01*
X165684295Y-144808458D02*
X165589057Y-144760839D01*
X165589057Y-144760839D02*
X165541438Y-144713220D01*
X165541438Y-144713220D02*
X165493819Y-144617982D01*
X165493819Y-144617982D02*
X165493819Y-144427506D01*
X165493819Y-144427506D02*
X165541438Y-144332268D01*
X165541438Y-144332268D02*
X165589057Y-144284649D01*
X165589057Y-144284649D02*
X165684295Y-144237030D01*
X165684295Y-144237030D02*
X165731914Y-144237030D01*
X165731914Y-144237030D02*
X165827152Y-144284649D01*
X165827152Y-144284649D02*
X165874771Y-144332268D01*
X165874771Y-144332268D02*
X165922390Y-144427506D01*
X165922390Y-144427506D02*
X165922390Y-144617982D01*
X165922390Y-144617982D02*
X165970009Y-144713220D01*
X165970009Y-144713220D02*
X166017628Y-144760839D01*
X166017628Y-144760839D02*
X166112866Y-144808458D01*
X166112866Y-144808458D02*
X166303342Y-144808458D01*
X166303342Y-144808458D02*
X166398580Y-144760839D01*
X166398580Y-144760839D02*
X166446200Y-144713220D01*
X166446200Y-144713220D02*
X166493819Y-144617982D01*
X166493819Y-144617982D02*
X166493819Y-144427506D01*
X166493819Y-144427506D02*
X166446200Y-144332268D01*
X166446200Y-144332268D02*
X166398580Y-144284649D01*
X166398580Y-144284649D02*
X166303342Y-144237030D01*
X166303342Y-144237030D02*
X166112866Y-144237030D01*
X166112866Y-144237030D02*
X166017628Y-144284649D01*
X166017628Y-144284649D02*
X165970009Y-144332268D01*
X165970009Y-144332268D02*
X165922390Y-144427506D01*
X171397826Y-162445819D02*
X171397826Y-163255342D01*
X171397826Y-163255342D02*
X171469255Y-163350580D01*
X171469255Y-163350580D02*
X171540684Y-163398200D01*
X171540684Y-163398200D02*
X171683541Y-163445819D01*
X171683541Y-163445819D02*
X171969255Y-163445819D01*
X171969255Y-163445819D02*
X172112112Y-163398200D01*
X172112112Y-163398200D02*
X172183541Y-163350580D01*
X172183541Y-163350580D02*
X172254969Y-163255342D01*
X172254969Y-163255342D02*
X172254969Y-162445819D01*
X172897827Y-163160104D02*
X173612113Y-163160104D01*
X172754970Y-163445819D02*
X173254970Y-162445819D01*
X173254970Y-162445819D02*
X173754970Y-163445819D01*
X175112112Y-163445819D02*
X174612112Y-162969628D01*
X174254969Y-163445819D02*
X174254969Y-162445819D01*
X174254969Y-162445819D02*
X174826398Y-162445819D01*
X174826398Y-162445819D02*
X174969255Y-162493438D01*
X174969255Y-162493438D02*
X175040684Y-162541057D01*
X175040684Y-162541057D02*
X175112112Y-162636295D01*
X175112112Y-162636295D02*
X175112112Y-162779152D01*
X175112112Y-162779152D02*
X175040684Y-162874390D01*
X175040684Y-162874390D02*
X174969255Y-162922009D01*
X174969255Y-162922009D02*
X174826398Y-162969628D01*
X174826398Y-162969628D02*
X174254969Y-162969628D01*
X175540684Y-162445819D02*
X176397827Y-162445819D01*
X175969255Y-163445819D02*
X175969255Y-162445819D01*
X177549350Y-180813152D02*
X177549350Y-181479819D01*
X177311255Y-180432200D02*
X177073160Y-181146485D01*
X177073160Y-181146485D02*
X177692207Y-181146485D01*
X178549350Y-180479819D02*
X178073160Y-180479819D01*
X178073160Y-180479819D02*
X178025541Y-180956009D01*
X178025541Y-180956009D02*
X178073160Y-180908390D01*
X178073160Y-180908390D02*
X178168398Y-180860771D01*
X178168398Y-180860771D02*
X178406493Y-180860771D01*
X178406493Y-180860771D02*
X178501731Y-180908390D01*
X178501731Y-180908390D02*
X178549350Y-180956009D01*
X178549350Y-180956009D02*
X178596969Y-181051247D01*
X178596969Y-181051247D02*
X178596969Y-181289342D01*
X178596969Y-181289342D02*
X178549350Y-181384580D01*
X178549350Y-181384580D02*
X178501731Y-181432200D01*
X178501731Y-181432200D02*
X178406493Y-181479819D01*
X178406493Y-181479819D02*
X178168398Y-181479819D01*
X178168398Y-181479819D02*
X178073160Y-181432200D01*
X178073160Y-181432200D02*
X178025541Y-181384580D01*
X234032588Y-181225819D02*
X233461160Y-181225819D01*
X233746874Y-181225819D02*
X233746874Y-180225819D01*
X233746874Y-180225819D02*
X233651636Y-180368676D01*
X233651636Y-180368676D02*
X233556398Y-180463914D01*
X233556398Y-180463914D02*
X233461160Y-180511533D01*
X251558588Y-155127438D02*
X251463350Y-155079819D01*
X251463350Y-155079819D02*
X251320493Y-155079819D01*
X251320493Y-155079819D02*
X251177636Y-155127438D01*
X251177636Y-155127438D02*
X251082398Y-155222676D01*
X251082398Y-155222676D02*
X251034779Y-155317914D01*
X251034779Y-155317914D02*
X250987160Y-155508390D01*
X250987160Y-155508390D02*
X250987160Y-155651247D01*
X250987160Y-155651247D02*
X251034779Y-155841723D01*
X251034779Y-155841723D02*
X251082398Y-155936961D01*
X251082398Y-155936961D02*
X251177636Y-156032200D01*
X251177636Y-156032200D02*
X251320493Y-156079819D01*
X251320493Y-156079819D02*
X251415731Y-156079819D01*
X251415731Y-156079819D02*
X251558588Y-156032200D01*
X251558588Y-156032200D02*
X251606207Y-155984580D01*
X251606207Y-155984580D02*
X251606207Y-155651247D01*
X251606207Y-155651247D02*
X251415731Y-155651247D01*
X252034779Y-155413152D02*
X252034779Y-156079819D01*
X252034779Y-155508390D02*
X252082398Y-155460771D01*
X252082398Y-155460771D02*
X252177636Y-155413152D01*
X252177636Y-155413152D02*
X252320493Y-155413152D01*
X252320493Y-155413152D02*
X252415731Y-155460771D01*
X252415731Y-155460771D02*
X252463350Y-155556009D01*
X252463350Y-155556009D02*
X252463350Y-156079819D01*
X253368112Y-156079819D02*
X253368112Y-155079819D01*
X253368112Y-156032200D02*
X253272874Y-156079819D01*
X253272874Y-156079819D02*
X253082398Y-156079819D01*
X253082398Y-156079819D02*
X252987160Y-156032200D01*
X252987160Y-156032200D02*
X252939541Y-155984580D01*
X252939541Y-155984580D02*
X252891922Y-155889342D01*
X252891922Y-155889342D02*
X252891922Y-155603628D01*
X252891922Y-155603628D02*
X252939541Y-155508390D01*
X252939541Y-155508390D02*
X252987160Y-155460771D01*
X252987160Y-155460771D02*
X253082398Y-155413152D01*
X253082398Y-155413152D02*
X253272874Y-155413152D01*
X253272874Y-155413152D02*
X253368112Y-155460771D01*
X165493819Y-150888458D02*
X165493819Y-150269411D01*
X165493819Y-150269411D02*
X165874771Y-150602744D01*
X165874771Y-150602744D02*
X165874771Y-150459887D01*
X165874771Y-150459887D02*
X165922390Y-150364649D01*
X165922390Y-150364649D02*
X165970009Y-150317030D01*
X165970009Y-150317030D02*
X166065247Y-150269411D01*
X166065247Y-150269411D02*
X166303342Y-150269411D01*
X166303342Y-150269411D02*
X166398580Y-150317030D01*
X166398580Y-150317030D02*
X166446200Y-150364649D01*
X166446200Y-150364649D02*
X166493819Y-150459887D01*
X166493819Y-150459887D02*
X166493819Y-150745601D01*
X166493819Y-150745601D02*
X166446200Y-150840839D01*
X166446200Y-150840839D02*
X166398580Y-150888458D01*
X165493819Y-149364649D02*
X165493819Y-149840839D01*
X165493819Y-149840839D02*
X165970009Y-149888458D01*
X165970009Y-149888458D02*
X165922390Y-149840839D01*
X165922390Y-149840839D02*
X165874771Y-149745601D01*
X165874771Y-149745601D02*
X165874771Y-149507506D01*
X165874771Y-149507506D02*
X165922390Y-149412268D01*
X165922390Y-149412268D02*
X165970009Y-149364649D01*
X165970009Y-149364649D02*
X166065247Y-149317030D01*
X166065247Y-149317030D02*
X166303342Y-149317030D01*
X166303342Y-149317030D02*
X166398580Y-149364649D01*
X166398580Y-149364649D02*
X166446200Y-149412268D01*
X166446200Y-149412268D02*
X166493819Y-149507506D01*
X166493819Y-149507506D02*
X166493819Y-149745601D01*
X166493819Y-149745601D02*
X166446200Y-149840839D01*
X166446200Y-149840839D02*
X166398580Y-149888458D01*
X165827152Y-147824649D02*
X166493819Y-147824649D01*
X165446200Y-148062744D02*
X166160485Y-148300839D01*
X166160485Y-148300839D02*
X166160485Y-147681792D01*
X165493819Y-146824649D02*
X165493819Y-147300839D01*
X165493819Y-147300839D02*
X165970009Y-147348458D01*
X165970009Y-147348458D02*
X165922390Y-147300839D01*
X165922390Y-147300839D02*
X165874771Y-147205601D01*
X165874771Y-147205601D02*
X165874771Y-146967506D01*
X165874771Y-146967506D02*
X165922390Y-146872268D01*
X165922390Y-146872268D02*
X165970009Y-146824649D01*
X165970009Y-146824649D02*
X166065247Y-146777030D01*
X166065247Y-146777030D02*
X166303342Y-146777030D01*
X166303342Y-146777030D02*
X166398580Y-146824649D01*
X166398580Y-146824649D02*
X166446200Y-146872268D01*
X166446200Y-146872268D02*
X166493819Y-146967506D01*
X166493819Y-146967506D02*
X166493819Y-147205601D01*
X166493819Y-147205601D02*
X166446200Y-147300839D01*
X166446200Y-147300839D02*
X166398580Y-147348458D01*
X235794779Y-139046009D02*
X236128112Y-139046009D01*
X236270969Y-139569819D02*
X235794779Y-139569819D01*
X235794779Y-139569819D02*
X235794779Y-138569819D01*
X235794779Y-138569819D02*
X236270969Y-138569819D01*
X237128112Y-138903152D02*
X237128112Y-139569819D01*
X236890017Y-138522200D02*
X236651922Y-139236485D01*
X236651922Y-139236485D02*
X237270969Y-139236485D01*
X235794779Y-132442009D02*
X236128112Y-132442009D01*
X236270969Y-132965819D02*
X235794779Y-132965819D01*
X235794779Y-132965819D02*
X235794779Y-131965819D01*
X235794779Y-131965819D02*
X236270969Y-131965819D01*
X236604303Y-131965819D02*
X237223350Y-131965819D01*
X237223350Y-131965819D02*
X236890017Y-132346771D01*
X236890017Y-132346771D02*
X237032874Y-132346771D01*
X237032874Y-132346771D02*
X237128112Y-132394390D01*
X237128112Y-132394390D02*
X237175731Y-132442009D01*
X237175731Y-132442009D02*
X237223350Y-132537247D01*
X237223350Y-132537247D02*
X237223350Y-132775342D01*
X237223350Y-132775342D02*
X237175731Y-132870580D01*
X237175731Y-132870580D02*
X237128112Y-132918200D01*
X237128112Y-132918200D02*
X237032874Y-132965819D01*
X237032874Y-132965819D02*
X236747160Y-132965819D01*
X236747160Y-132965819D02*
X236651922Y-132918200D01*
X236651922Y-132918200D02*
X236604303Y-132870580D01*
X173104180Y-144878588D02*
X173104180Y-144307160D01*
X173104180Y-144592874D02*
X174104180Y-144592874D01*
X174104180Y-144592874D02*
X173961323Y-144497636D01*
X173961323Y-144497636D02*
X173866085Y-144402398D01*
X173866085Y-144402398D02*
X173818466Y-144307160D01*
X173104180Y-145830969D02*
X173104180Y-145259541D01*
X173104180Y-145545255D02*
X174104180Y-145545255D01*
X174104180Y-145545255D02*
X173961323Y-145450017D01*
X173961323Y-145450017D02*
X173866085Y-145354779D01*
X173866085Y-145354779D02*
X173818466Y-145259541D01*
X233461160Y-138665057D02*
X233508779Y-138617438D01*
X233508779Y-138617438D02*
X233604017Y-138569819D01*
X233604017Y-138569819D02*
X233842112Y-138569819D01*
X233842112Y-138569819D02*
X233937350Y-138617438D01*
X233937350Y-138617438D02*
X233984969Y-138665057D01*
X233984969Y-138665057D02*
X234032588Y-138760295D01*
X234032588Y-138760295D02*
X234032588Y-138855533D01*
X234032588Y-138855533D02*
X233984969Y-138998390D01*
X233984969Y-138998390D02*
X233413541Y-139569819D01*
X233413541Y-139569819D02*
X234032588Y-139569819D01*
X238080779Y-132442009D02*
X238414112Y-132442009D01*
X238556969Y-132965819D02*
X238080779Y-132965819D01*
X238080779Y-132965819D02*
X238080779Y-131965819D01*
X238080779Y-131965819D02*
X238556969Y-131965819D01*
X239509350Y-132965819D02*
X238937922Y-132965819D01*
X239223636Y-132965819D02*
X239223636Y-131965819D01*
X239223636Y-131965819D02*
X239128398Y-132108676D01*
X239128398Y-132108676D02*
X239033160Y-132203914D01*
X239033160Y-132203914D02*
X238937922Y-132251533D01*
X234032588Y-132965819D02*
X233461160Y-132965819D01*
X233746874Y-132965819D02*
X233746874Y-131965819D01*
X233746874Y-131965819D02*
X233651636Y-132108676D01*
X233651636Y-132108676D02*
X233556398Y-132203914D01*
X233556398Y-132203914D02*
X233461160Y-132251533D01*
X173104180Y-142338588D02*
X173104180Y-141767160D01*
X173104180Y-142052874D02*
X174104180Y-142052874D01*
X174104180Y-142052874D02*
X173961323Y-141957636D01*
X173961323Y-141957636D02*
X173866085Y-141862398D01*
X173866085Y-141862398D02*
X173818466Y-141767160D01*
X174008942Y-142719541D02*
X174056561Y-142767160D01*
X174056561Y-142767160D02*
X174104180Y-142862398D01*
X174104180Y-142862398D02*
X174104180Y-143100493D01*
X174104180Y-143100493D02*
X174056561Y-143195731D01*
X174056561Y-143195731D02*
X174008942Y-143243350D01*
X174008942Y-143243350D02*
X173913704Y-143290969D01*
X173913704Y-143290969D02*
X173818466Y-143290969D01*
X173818466Y-143290969D02*
X173675609Y-143243350D01*
X173675609Y-143243350D02*
X173104180Y-142671922D01*
X173104180Y-142671922D02*
X173104180Y-143290969D01*
X177549350Y-139157152D02*
X177549350Y-139823819D01*
X177311255Y-138776200D02*
X177073160Y-139490485D01*
X177073160Y-139490485D02*
X177692207Y-139490485D01*
X178501731Y-138823819D02*
X178311255Y-138823819D01*
X178311255Y-138823819D02*
X178216017Y-138871438D01*
X178216017Y-138871438D02*
X178168398Y-138919057D01*
X178168398Y-138919057D02*
X178073160Y-139061914D01*
X178073160Y-139061914D02*
X178025541Y-139252390D01*
X178025541Y-139252390D02*
X178025541Y-139633342D01*
X178025541Y-139633342D02*
X178073160Y-139728580D01*
X178073160Y-139728580D02*
X178120779Y-139776200D01*
X178120779Y-139776200D02*
X178216017Y-139823819D01*
X178216017Y-139823819D02*
X178406493Y-139823819D01*
X178406493Y-139823819D02*
X178501731Y-139776200D01*
X178501731Y-139776200D02*
X178549350Y-139728580D01*
X178549350Y-139728580D02*
X178596969Y-139633342D01*
X178596969Y-139633342D02*
X178596969Y-139395247D01*
X178596969Y-139395247D02*
X178549350Y-139300009D01*
X178549350Y-139300009D02*
X178501731Y-139252390D01*
X178501731Y-139252390D02*
X178406493Y-139204771D01*
X178406493Y-139204771D02*
X178216017Y-139204771D01*
X178216017Y-139204771D02*
X178120779Y-139252390D01*
X178120779Y-139252390D02*
X178073160Y-139300009D01*
X178073160Y-139300009D02*
X178025541Y-139395247D01*
X177549350Y-132299152D02*
X177549350Y-132965819D01*
X177311255Y-131918200D02*
X177073160Y-132632485D01*
X177073160Y-132632485D02*
X177692207Y-132632485D01*
X178549350Y-131965819D02*
X178073160Y-131965819D01*
X178073160Y-131965819D02*
X178025541Y-132442009D01*
X178025541Y-132442009D02*
X178073160Y-132394390D01*
X178073160Y-132394390D02*
X178168398Y-132346771D01*
X178168398Y-132346771D02*
X178406493Y-132346771D01*
X178406493Y-132346771D02*
X178501731Y-132394390D01*
X178501731Y-132394390D02*
X178549350Y-132442009D01*
X178549350Y-132442009D02*
X178596969Y-132537247D01*
X178596969Y-132537247D02*
X178596969Y-132775342D01*
X178596969Y-132775342D02*
X178549350Y-132870580D01*
X178549350Y-132870580D02*
X178501731Y-132918200D01*
X178501731Y-132918200D02*
X178406493Y-132965819D01*
X178406493Y-132965819D02*
X178168398Y-132965819D01*
X178168398Y-132965819D02*
X178073160Y-132918200D01*
X178073160Y-132918200D02*
X178025541Y-132870580D01*
X251558588Y-158619819D02*
X250987160Y-158619819D01*
X251272874Y-158619819D02*
X251272874Y-157619819D01*
X251272874Y-157619819D02*
X251177636Y-157762676D01*
X251177636Y-157762676D02*
X251082398Y-157857914D01*
X251082398Y-157857914D02*
X250987160Y-157905533D01*
X251939541Y-157715057D02*
X251987160Y-157667438D01*
X251987160Y-157667438D02*
X252082398Y-157619819D01*
X252082398Y-157619819D02*
X252320493Y-157619819D01*
X252320493Y-157619819D02*
X252415731Y-157667438D01*
X252415731Y-157667438D02*
X252463350Y-157715057D01*
X252463350Y-157715057D02*
X252510969Y-157810295D01*
X252510969Y-157810295D02*
X252510969Y-157905533D01*
X252510969Y-157905533D02*
X252463350Y-158048390D01*
X252463350Y-158048390D02*
X251891922Y-158619819D01*
X251891922Y-158619819D02*
X252510969Y-158619819D01*
X252796684Y-157619819D02*
X253130017Y-158619819D01*
X253130017Y-158619819D02*
X253463350Y-157619819D01*
X173104180Y-147418588D02*
X173104180Y-146847160D01*
X173104180Y-147132874D02*
X174104180Y-147132874D01*
X174104180Y-147132874D02*
X173961323Y-147037636D01*
X173961323Y-147037636D02*
X173866085Y-146942398D01*
X173866085Y-146942398D02*
X173818466Y-146847160D01*
X174104180Y-148037636D02*
X174104180Y-148132874D01*
X174104180Y-148132874D02*
X174056561Y-148228112D01*
X174056561Y-148228112D02*
X174008942Y-148275731D01*
X174008942Y-148275731D02*
X173913704Y-148323350D01*
X173913704Y-148323350D02*
X173723228Y-148370969D01*
X173723228Y-148370969D02*
X173485133Y-148370969D01*
X173485133Y-148370969D02*
X173294657Y-148323350D01*
X173294657Y-148323350D02*
X173199419Y-148275731D01*
X173199419Y-148275731D02*
X173151800Y-148228112D01*
X173151800Y-148228112D02*
X173104180Y-148132874D01*
X173104180Y-148132874D02*
X173104180Y-148037636D01*
X173104180Y-148037636D02*
X173151800Y-147942398D01*
X173151800Y-147942398D02*
X173199419Y-147894779D01*
X173199419Y-147894779D02*
X173294657Y-147847160D01*
X173294657Y-147847160D02*
X173485133Y-147799541D01*
X173485133Y-147799541D02*
X173723228Y-147799541D01*
X173723228Y-147799541D02*
X173913704Y-147847160D01*
X173913704Y-147847160D02*
X174008942Y-147894779D01*
X174008942Y-147894779D02*
X174056561Y-147942398D01*
X174056561Y-147942398D02*
X174104180Y-148037636D01*
X266061819Y-187623220D02*
X265061819Y-187623220D01*
X265061819Y-187623220D02*
X265061819Y-187385125D01*
X265061819Y-187385125D02*
X265109438Y-187242268D01*
X265109438Y-187242268D02*
X265204676Y-187147030D01*
X265204676Y-187147030D02*
X265299914Y-187099411D01*
X265299914Y-187099411D02*
X265490390Y-187051792D01*
X265490390Y-187051792D02*
X265633247Y-187051792D01*
X265633247Y-187051792D02*
X265823723Y-187099411D01*
X265823723Y-187099411D02*
X265918961Y-187147030D01*
X265918961Y-187147030D02*
X266014200Y-187242268D01*
X266014200Y-187242268D02*
X266061819Y-187385125D01*
X266061819Y-187385125D02*
X266061819Y-187623220D01*
X266061819Y-186623220D02*
X265061819Y-186623220D01*
X266061819Y-185575602D02*
X265585628Y-185908935D01*
X266061819Y-186147030D02*
X265061819Y-186147030D01*
X265061819Y-186147030D02*
X265061819Y-185766078D01*
X265061819Y-185766078D02*
X265109438Y-185670840D01*
X265109438Y-185670840D02*
X265157057Y-185623221D01*
X265157057Y-185623221D02*
X265252295Y-185575602D01*
X265252295Y-185575602D02*
X265395152Y-185575602D01*
X265395152Y-185575602D02*
X265490390Y-185623221D01*
X265490390Y-185623221D02*
X265538009Y-185670840D01*
X265538009Y-185670840D02*
X265585628Y-185766078D01*
X265585628Y-185766078D02*
X265585628Y-186147030D01*
X177549350Y-187163152D02*
X177549350Y-187829819D01*
X177311255Y-186782200D02*
X177073160Y-187496485D01*
X177073160Y-187496485D02*
X177692207Y-187496485D01*
X178501731Y-186829819D02*
X178311255Y-186829819D01*
X178311255Y-186829819D02*
X178216017Y-186877438D01*
X178216017Y-186877438D02*
X178168398Y-186925057D01*
X178168398Y-186925057D02*
X178073160Y-187067914D01*
X178073160Y-187067914D02*
X178025541Y-187258390D01*
X178025541Y-187258390D02*
X178025541Y-187639342D01*
X178025541Y-187639342D02*
X178073160Y-187734580D01*
X178073160Y-187734580D02*
X178120779Y-187782200D01*
X178120779Y-187782200D02*
X178216017Y-187829819D01*
X178216017Y-187829819D02*
X178406493Y-187829819D01*
X178406493Y-187829819D02*
X178501731Y-187782200D01*
X178501731Y-187782200D02*
X178549350Y-187734580D01*
X178549350Y-187734580D02*
X178596969Y-187639342D01*
X178596969Y-187639342D02*
X178596969Y-187401247D01*
X178596969Y-187401247D02*
X178549350Y-187306009D01*
X178549350Y-187306009D02*
X178501731Y-187258390D01*
X178501731Y-187258390D02*
X178406493Y-187210771D01*
X178406493Y-187210771D02*
X178216017Y-187210771D01*
X178216017Y-187210771D02*
X178120779Y-187258390D01*
X178120779Y-187258390D02*
X178073160Y-187306009D01*
X178073160Y-187306009D02*
X178025541Y-187401247D01*
X259292666Y-183890819D02*
X259292666Y-184605104D01*
X259292666Y-184605104D02*
X259245047Y-184747961D01*
X259245047Y-184747961D02*
X259149809Y-184843200D01*
X259149809Y-184843200D02*
X259006952Y-184890819D01*
X259006952Y-184890819D02*
X258911714Y-184890819D01*
X259768857Y-184890819D02*
X259768857Y-183890819D01*
X259768857Y-183890819D02*
X260149809Y-183890819D01*
X260149809Y-183890819D02*
X260245047Y-183938438D01*
X260245047Y-183938438D02*
X260292666Y-183986057D01*
X260292666Y-183986057D02*
X260340285Y-184081295D01*
X260340285Y-184081295D02*
X260340285Y-184224152D01*
X260340285Y-184224152D02*
X260292666Y-184319390D01*
X260292666Y-184319390D02*
X260245047Y-184367009D01*
X260245047Y-184367009D02*
X260149809Y-184414628D01*
X260149809Y-184414628D02*
X259768857Y-184414628D01*
X261292666Y-184890819D02*
X260721238Y-184890819D01*
X261006952Y-184890819D02*
X261006952Y-183890819D01*
X261006952Y-183890819D02*
X260911714Y-184033676D01*
X260911714Y-184033676D02*
X260816476Y-184128914D01*
X260816476Y-184128914D02*
X260721238Y-184176533D01*
X230044666Y-148302819D02*
X230044666Y-149017104D01*
X230044666Y-149017104D02*
X229997047Y-149159961D01*
X229997047Y-149159961D02*
X229901809Y-149255200D01*
X229901809Y-149255200D02*
X229758952Y-149302819D01*
X229758952Y-149302819D02*
X229663714Y-149302819D01*
X230473238Y-148398057D02*
X230520857Y-148350438D01*
X230520857Y-148350438D02*
X230616095Y-148302819D01*
X230616095Y-148302819D02*
X230854190Y-148302819D01*
X230854190Y-148302819D02*
X230949428Y-148350438D01*
X230949428Y-148350438D02*
X230997047Y-148398057D01*
X230997047Y-148398057D02*
X231044666Y-148493295D01*
X231044666Y-148493295D02*
X231044666Y-148588533D01*
X231044666Y-148588533D02*
X230997047Y-148731390D01*
X230997047Y-148731390D02*
X230425619Y-149302819D01*
X230425619Y-149302819D02*
X231044666Y-149302819D01*
X244564819Y-177037904D02*
X245374342Y-177037904D01*
X245374342Y-177037904D02*
X245469580Y-176990285D01*
X245469580Y-176990285D02*
X245517200Y-176942666D01*
X245517200Y-176942666D02*
X245564819Y-176847428D01*
X245564819Y-176847428D02*
X245564819Y-176656952D01*
X245564819Y-176656952D02*
X245517200Y-176561714D01*
X245517200Y-176561714D02*
X245469580Y-176514095D01*
X245469580Y-176514095D02*
X245374342Y-176466476D01*
X245374342Y-176466476D02*
X244564819Y-176466476D01*
X244660057Y-176037904D02*
X244612438Y-175990285D01*
X244612438Y-175990285D02*
X244564819Y-175895047D01*
X244564819Y-175895047D02*
X244564819Y-175656952D01*
X244564819Y-175656952D02*
X244612438Y-175561714D01*
X244612438Y-175561714D02*
X244660057Y-175514095D01*
X244660057Y-175514095D02*
X244755295Y-175466476D01*
X244755295Y-175466476D02*
X244850533Y-175466476D01*
X244850533Y-175466476D02*
X244993390Y-175514095D01*
X244993390Y-175514095D02*
X245564819Y-176085523D01*
X245564819Y-176085523D02*
X245564819Y-175466476D01*
X248634819Y-135695333D02*
X249349104Y-135695333D01*
X249349104Y-135695333D02*
X249491961Y-135742952D01*
X249491961Y-135742952D02*
X249587200Y-135838190D01*
X249587200Y-135838190D02*
X249634819Y-135981047D01*
X249634819Y-135981047D02*
X249634819Y-136076285D01*
X248634819Y-135314380D02*
X248634819Y-134647714D01*
X248634819Y-134647714D02*
X249634819Y-135076285D01*
X257784819Y-136338189D02*
X256784819Y-136338189D01*
X256880057Y-135909618D02*
X256832438Y-135861999D01*
X256832438Y-135861999D02*
X256784819Y-135766761D01*
X256784819Y-135766761D02*
X256784819Y-135528666D01*
X256784819Y-135528666D02*
X256832438Y-135433428D01*
X256832438Y-135433428D02*
X256880057Y-135385809D01*
X256880057Y-135385809D02*
X256975295Y-135338190D01*
X256975295Y-135338190D02*
X257070533Y-135338190D01*
X257070533Y-135338190D02*
X257213390Y-135385809D01*
X257213390Y-135385809D02*
X257784819Y-135957237D01*
X257784819Y-135957237D02*
X257784819Y-135338190D01*
X257689580Y-134338190D02*
X257737200Y-134385809D01*
X257737200Y-134385809D02*
X257784819Y-134528666D01*
X257784819Y-134528666D02*
X257784819Y-134623904D01*
X257784819Y-134623904D02*
X257737200Y-134766761D01*
X257737200Y-134766761D02*
X257641961Y-134861999D01*
X257641961Y-134861999D02*
X257546723Y-134909618D01*
X257546723Y-134909618D02*
X257356247Y-134957237D01*
X257356247Y-134957237D02*
X257213390Y-134957237D01*
X257213390Y-134957237D02*
X257022914Y-134909618D01*
X257022914Y-134909618D02*
X256927676Y-134861999D01*
X256927676Y-134861999D02*
X256832438Y-134766761D01*
X256832438Y-134766761D02*
X256784819Y-134623904D01*
X256784819Y-134623904D02*
X256784819Y-134528666D01*
X256784819Y-134528666D02*
X256832438Y-134385809D01*
X256832438Y-134385809D02*
X256880057Y-134338190D01*
X255794280Y-155367566D02*
X255079995Y-155367566D01*
X255079995Y-155367566D02*
X254937138Y-155319947D01*
X254937138Y-155319947D02*
X254841900Y-155224709D01*
X254841900Y-155224709D02*
X254794280Y-155081852D01*
X254794280Y-155081852D02*
X254794280Y-154986614D01*
X255794280Y-155748519D02*
X255794280Y-156367566D01*
X255794280Y-156367566D02*
X255413328Y-156034233D01*
X255413328Y-156034233D02*
X255413328Y-156177090D01*
X255413328Y-156177090D02*
X255365709Y-156272328D01*
X255365709Y-156272328D02*
X255318090Y-156319947D01*
X255318090Y-156319947D02*
X255222852Y-156367566D01*
X255222852Y-156367566D02*
X254984757Y-156367566D01*
X254984757Y-156367566D02*
X254889519Y-156319947D01*
X254889519Y-156319947D02*
X254841900Y-156272328D01*
X254841900Y-156272328D02*
X254794280Y-156177090D01*
X254794280Y-156177090D02*
X254794280Y-155891376D01*
X254794280Y-155891376D02*
X254841900Y-155796138D01*
X254841900Y-155796138D02*
X254889519Y-155748519D01*
X176093998Y-148695580D02*
X176046379Y-148743200D01*
X176046379Y-148743200D02*
X175903522Y-148790819D01*
X175903522Y-148790819D02*
X175808284Y-148790819D01*
X175808284Y-148790819D02*
X175665427Y-148743200D01*
X175665427Y-148743200D02*
X175570189Y-148647961D01*
X175570189Y-148647961D02*
X175522570Y-148552723D01*
X175522570Y-148552723D02*
X175474951Y-148362247D01*
X175474951Y-148362247D02*
X175474951Y-148219390D01*
X175474951Y-148219390D02*
X175522570Y-148028914D01*
X175522570Y-148028914D02*
X175570189Y-147933676D01*
X175570189Y-147933676D02*
X175665427Y-147838438D01*
X175665427Y-147838438D02*
X175808284Y-147790819D01*
X175808284Y-147790819D02*
X175903522Y-147790819D01*
X175903522Y-147790819D02*
X176046379Y-147838438D01*
X176046379Y-147838438D02*
X176093998Y-147886057D01*
X176951141Y-148790819D02*
X176951141Y-148267009D01*
X176951141Y-148267009D02*
X176903522Y-148171771D01*
X176903522Y-148171771D02*
X176808284Y-148124152D01*
X176808284Y-148124152D02*
X176617808Y-148124152D01*
X176617808Y-148124152D02*
X176522570Y-148171771D01*
X176951141Y-148743200D02*
X176855903Y-148790819D01*
X176855903Y-148790819D02*
X176617808Y-148790819D01*
X176617808Y-148790819D02*
X176522570Y-148743200D01*
X176522570Y-148743200D02*
X176474951Y-148647961D01*
X176474951Y-148647961D02*
X176474951Y-148552723D01*
X176474951Y-148552723D02*
X176522570Y-148457485D01*
X176522570Y-148457485D02*
X176617808Y-148409866D01*
X176617808Y-148409866D02*
X176855903Y-148409866D01*
X176855903Y-148409866D02*
X176951141Y-148362247D01*
X177427332Y-148124152D02*
X177427332Y-149124152D01*
X177427332Y-148171771D02*
X177522570Y-148124152D01*
X177522570Y-148124152D02*
X177713046Y-148124152D01*
X177713046Y-148124152D02*
X177808284Y-148171771D01*
X177808284Y-148171771D02*
X177855903Y-148219390D01*
X177855903Y-148219390D02*
X177903522Y-148314628D01*
X177903522Y-148314628D02*
X177903522Y-148600342D01*
X177903522Y-148600342D02*
X177855903Y-148695580D01*
X177855903Y-148695580D02*
X177808284Y-148743200D01*
X177808284Y-148743200D02*
X177713046Y-148790819D01*
X177713046Y-148790819D02*
X177522570Y-148790819D01*
X177522570Y-148790819D02*
X177427332Y-148743200D01*
X178189237Y-148124152D02*
X178570189Y-148124152D01*
X178332094Y-147790819D02*
X178332094Y-148647961D01*
X178332094Y-148647961D02*
X178379713Y-148743200D01*
X178379713Y-148743200D02*
X178474951Y-148790819D01*
X178474951Y-148790819D02*
X178570189Y-148790819D01*
X179332094Y-148124152D02*
X179332094Y-148790819D01*
X178903523Y-148124152D02*
X178903523Y-148647961D01*
X178903523Y-148647961D02*
X178951142Y-148743200D01*
X178951142Y-148743200D02*
X179046380Y-148790819D01*
X179046380Y-148790819D02*
X179189237Y-148790819D01*
X179189237Y-148790819D02*
X179284475Y-148743200D01*
X179284475Y-148743200D02*
X179332094Y-148695580D01*
X179808285Y-148790819D02*
X179808285Y-148124152D01*
X179808285Y-148314628D02*
X179855904Y-148219390D01*
X179855904Y-148219390D02*
X179903523Y-148171771D01*
X179903523Y-148171771D02*
X179998761Y-148124152D01*
X179998761Y-148124152D02*
X180093999Y-148124152D01*
X180808285Y-148743200D02*
X180713047Y-148790819D01*
X180713047Y-148790819D02*
X180522571Y-148790819D01*
X180522571Y-148790819D02*
X180427333Y-148743200D01*
X180427333Y-148743200D02*
X180379714Y-148647961D01*
X180379714Y-148647961D02*
X180379714Y-148267009D01*
X180379714Y-148267009D02*
X180427333Y-148171771D01*
X180427333Y-148171771D02*
X180522571Y-148124152D01*
X180522571Y-148124152D02*
X180713047Y-148124152D01*
X180713047Y-148124152D02*
X180808285Y-148171771D01*
X180808285Y-148171771D02*
X180855904Y-148267009D01*
X180855904Y-148267009D02*
X180855904Y-148362247D01*
X180855904Y-148362247D02*
X180379714Y-148457485D01*
X181617809Y-148267009D02*
X181760666Y-148314628D01*
X181760666Y-148314628D02*
X181808285Y-148362247D01*
X181808285Y-148362247D02*
X181855904Y-148457485D01*
X181855904Y-148457485D02*
X181855904Y-148600342D01*
X181855904Y-148600342D02*
X181808285Y-148695580D01*
X181808285Y-148695580D02*
X181760666Y-148743200D01*
X181760666Y-148743200D02*
X181665428Y-148790819D01*
X181665428Y-148790819D02*
X181284476Y-148790819D01*
X181284476Y-148790819D02*
X181284476Y-147790819D01*
X181284476Y-147790819D02*
X181617809Y-147790819D01*
X181617809Y-147790819D02*
X181713047Y-147838438D01*
X181713047Y-147838438D02*
X181760666Y-147886057D01*
X181760666Y-147886057D02*
X181808285Y-147981295D01*
X181808285Y-147981295D02*
X181808285Y-148076533D01*
X181808285Y-148076533D02*
X181760666Y-148171771D01*
X181760666Y-148171771D02*
X181713047Y-148219390D01*
X181713047Y-148219390D02*
X181617809Y-148267009D01*
X181617809Y-148267009D02*
X181284476Y-148267009D01*
X182713047Y-148124152D02*
X182713047Y-148790819D01*
X182284476Y-148124152D02*
X182284476Y-148647961D01*
X182284476Y-148647961D02*
X182332095Y-148743200D01*
X182332095Y-148743200D02*
X182427333Y-148790819D01*
X182427333Y-148790819D02*
X182570190Y-148790819D01*
X182570190Y-148790819D02*
X182665428Y-148743200D01*
X182665428Y-148743200D02*
X182713047Y-148695580D01*
X183046381Y-148124152D02*
X183427333Y-148124152D01*
X183189238Y-147790819D02*
X183189238Y-148647961D01*
X183189238Y-148647961D02*
X183236857Y-148743200D01*
X183236857Y-148743200D02*
X183332095Y-148790819D01*
X183332095Y-148790819D02*
X183427333Y-148790819D01*
X183617810Y-148124152D02*
X183998762Y-148124152D01*
X183760667Y-147790819D02*
X183760667Y-148647961D01*
X183760667Y-148647961D02*
X183808286Y-148743200D01*
X183808286Y-148743200D02*
X183903524Y-148790819D01*
X183903524Y-148790819D02*
X183998762Y-148790819D01*
X184474953Y-148790819D02*
X184379715Y-148743200D01*
X184379715Y-148743200D02*
X184332096Y-148695580D01*
X184332096Y-148695580D02*
X184284477Y-148600342D01*
X184284477Y-148600342D02*
X184284477Y-148314628D01*
X184284477Y-148314628D02*
X184332096Y-148219390D01*
X184332096Y-148219390D02*
X184379715Y-148171771D01*
X184379715Y-148171771D02*
X184474953Y-148124152D01*
X184474953Y-148124152D02*
X184617810Y-148124152D01*
X184617810Y-148124152D02*
X184713048Y-148171771D01*
X184713048Y-148171771D02*
X184760667Y-148219390D01*
X184760667Y-148219390D02*
X184808286Y-148314628D01*
X184808286Y-148314628D02*
X184808286Y-148600342D01*
X184808286Y-148600342D02*
X184760667Y-148695580D01*
X184760667Y-148695580D02*
X184713048Y-148743200D01*
X184713048Y-148743200D02*
X184617810Y-148790819D01*
X184617810Y-148790819D02*
X184474953Y-148790819D01*
X185236858Y-148124152D02*
X185236858Y-148790819D01*
X185236858Y-148219390D02*
X185284477Y-148171771D01*
X185284477Y-148171771D02*
X185379715Y-148124152D01*
X185379715Y-148124152D02*
X185522572Y-148124152D01*
X185522572Y-148124152D02*
X185617810Y-148171771D01*
X185617810Y-148171771D02*
X185665429Y-148267009D01*
X185665429Y-148267009D02*
X185665429Y-148790819D01*
X169592666Y-139432819D02*
X169592666Y-140147104D01*
X169592666Y-140147104D02*
X169545047Y-140289961D01*
X169545047Y-140289961D02*
X169449809Y-140385200D01*
X169449809Y-140385200D02*
X169306952Y-140432819D01*
X169306952Y-140432819D02*
X169211714Y-140432819D01*
X170116476Y-140432819D02*
X170306952Y-140432819D01*
X170306952Y-140432819D02*
X170402190Y-140385200D01*
X170402190Y-140385200D02*
X170449809Y-140337580D01*
X170449809Y-140337580D02*
X170545047Y-140194723D01*
X170545047Y-140194723D02*
X170592666Y-140004247D01*
X170592666Y-140004247D02*
X170592666Y-139623295D01*
X170592666Y-139623295D02*
X170545047Y-139528057D01*
X170545047Y-139528057D02*
X170497428Y-139480438D01*
X170497428Y-139480438D02*
X170402190Y-139432819D01*
X170402190Y-139432819D02*
X170211714Y-139432819D01*
X170211714Y-139432819D02*
X170116476Y-139480438D01*
X170116476Y-139480438D02*
X170068857Y-139528057D01*
X170068857Y-139528057D02*
X170021238Y-139623295D01*
X170021238Y-139623295D02*
X170021238Y-139861390D01*
X170021238Y-139861390D02*
X170068857Y-139956628D01*
X170068857Y-139956628D02*
X170116476Y-140004247D01*
X170116476Y-140004247D02*
X170211714Y-140051866D01*
X170211714Y-140051866D02*
X170402190Y-140051866D01*
X170402190Y-140051866D02*
X170497428Y-140004247D01*
X170497428Y-140004247D02*
X170545047Y-139956628D01*
X170545047Y-139956628D02*
X170592666Y-139861390D01*
X253764819Y-147603333D02*
X254479104Y-147603333D01*
X254479104Y-147603333D02*
X254621961Y-147650952D01*
X254621961Y-147650952D02*
X254717200Y-147746190D01*
X254717200Y-147746190D02*
X254764819Y-147889047D01*
X254764819Y-147889047D02*
X254764819Y-147984285D01*
X253764819Y-146698571D02*
X253764819Y-146889047D01*
X253764819Y-146889047D02*
X253812438Y-146984285D01*
X253812438Y-146984285D02*
X253860057Y-147031904D01*
X253860057Y-147031904D02*
X254002914Y-147127142D01*
X254002914Y-147127142D02*
X254193390Y-147174761D01*
X254193390Y-147174761D02*
X254574342Y-147174761D01*
X254574342Y-147174761D02*
X254669580Y-147127142D01*
X254669580Y-147127142D02*
X254717200Y-147079523D01*
X254717200Y-147079523D02*
X254764819Y-146984285D01*
X254764819Y-146984285D02*
X254764819Y-146793809D01*
X254764819Y-146793809D02*
X254717200Y-146698571D01*
X254717200Y-146698571D02*
X254669580Y-146650952D01*
X254669580Y-146650952D02*
X254574342Y-146603333D01*
X254574342Y-146603333D02*
X254336247Y-146603333D01*
X254336247Y-146603333D02*
X254241009Y-146650952D01*
X254241009Y-146650952D02*
X254193390Y-146698571D01*
X254193390Y-146698571D02*
X254145771Y-146793809D01*
X254145771Y-146793809D02*
X254145771Y-146984285D01*
X254145771Y-146984285D02*
X254193390Y-147079523D01*
X254193390Y-147079523D02*
X254241009Y-147127142D01*
X254241009Y-147127142D02*
X254336247Y-147174761D01*
X257302095Y-143012438D02*
X257206857Y-142964819D01*
X257206857Y-142964819D02*
X257064000Y-142964819D01*
X257064000Y-142964819D02*
X256921143Y-143012438D01*
X256921143Y-143012438D02*
X256825905Y-143107676D01*
X256825905Y-143107676D02*
X256778286Y-143202914D01*
X256778286Y-143202914D02*
X256730667Y-143393390D01*
X256730667Y-143393390D02*
X256730667Y-143536247D01*
X256730667Y-143536247D02*
X256778286Y-143726723D01*
X256778286Y-143726723D02*
X256825905Y-143821961D01*
X256825905Y-143821961D02*
X256921143Y-143917200D01*
X256921143Y-143917200D02*
X257064000Y-143964819D01*
X257064000Y-143964819D02*
X257159238Y-143964819D01*
X257159238Y-143964819D02*
X257302095Y-143917200D01*
X257302095Y-143917200D02*
X257349714Y-143869580D01*
X257349714Y-143869580D02*
X257349714Y-143536247D01*
X257349714Y-143536247D02*
X257159238Y-143536247D01*
X257778286Y-143964819D02*
X257778286Y-142964819D01*
X257778286Y-142964819D02*
X258349714Y-143964819D01*
X258349714Y-143964819D02*
X258349714Y-142964819D01*
X258825905Y-143964819D02*
X258825905Y-142964819D01*
X258825905Y-142964819D02*
X259064000Y-142964819D01*
X259064000Y-142964819D02*
X259206857Y-143012438D01*
X259206857Y-143012438D02*
X259302095Y-143107676D01*
X259302095Y-143107676D02*
X259349714Y-143202914D01*
X259349714Y-143202914D02*
X259397333Y-143393390D01*
X259397333Y-143393390D02*
X259397333Y-143536247D01*
X259397333Y-143536247D02*
X259349714Y-143726723D01*
X259349714Y-143726723D02*
X259302095Y-143821961D01*
X259302095Y-143821961D02*
X259206857Y-143917200D01*
X259206857Y-143917200D02*
X259064000Y-143964819D01*
X259064000Y-143964819D02*
X258825905Y-143964819D01*
X212752666Y-140938819D02*
X212752666Y-141653104D01*
X212752666Y-141653104D02*
X212705047Y-141795961D01*
X212705047Y-141795961D02*
X212609809Y-141891200D01*
X212609809Y-141891200D02*
X212466952Y-141938819D01*
X212466952Y-141938819D02*
X212371714Y-141938819D01*
X213371714Y-141367390D02*
X213276476Y-141319771D01*
X213276476Y-141319771D02*
X213228857Y-141272152D01*
X213228857Y-141272152D02*
X213181238Y-141176914D01*
X213181238Y-141176914D02*
X213181238Y-141129295D01*
X213181238Y-141129295D02*
X213228857Y-141034057D01*
X213228857Y-141034057D02*
X213276476Y-140986438D01*
X213276476Y-140986438D02*
X213371714Y-140938819D01*
X213371714Y-140938819D02*
X213562190Y-140938819D01*
X213562190Y-140938819D02*
X213657428Y-140986438D01*
X213657428Y-140986438D02*
X213705047Y-141034057D01*
X213705047Y-141034057D02*
X213752666Y-141129295D01*
X213752666Y-141129295D02*
X213752666Y-141176914D01*
X213752666Y-141176914D02*
X213705047Y-141272152D01*
X213705047Y-141272152D02*
X213657428Y-141319771D01*
X213657428Y-141319771D02*
X213562190Y-141367390D01*
X213562190Y-141367390D02*
X213371714Y-141367390D01*
X213371714Y-141367390D02*
X213276476Y-141415009D01*
X213276476Y-141415009D02*
X213228857Y-141462628D01*
X213228857Y-141462628D02*
X213181238Y-141557866D01*
X213181238Y-141557866D02*
X213181238Y-141748342D01*
X213181238Y-141748342D02*
X213228857Y-141843580D01*
X213228857Y-141843580D02*
X213276476Y-141891200D01*
X213276476Y-141891200D02*
X213371714Y-141938819D01*
X213371714Y-141938819D02*
X213562190Y-141938819D01*
X213562190Y-141938819D02*
X213657428Y-141891200D01*
X213657428Y-141891200D02*
X213705047Y-141843580D01*
X213705047Y-141843580D02*
X213752666Y-141748342D01*
X213752666Y-141748342D02*
X213752666Y-141557866D01*
X213752666Y-141557866D02*
X213705047Y-141462628D01*
X213705047Y-141462628D02*
X213657428Y-141415009D01*
X213657428Y-141415009D02*
X213562190Y-141367390D01*
X212062191Y-150041200D02*
X212205048Y-150088819D01*
X212205048Y-150088819D02*
X212443143Y-150088819D01*
X212443143Y-150088819D02*
X212538381Y-150041200D01*
X212538381Y-150041200D02*
X212586000Y-149993580D01*
X212586000Y-149993580D02*
X212633619Y-149898342D01*
X212633619Y-149898342D02*
X212633619Y-149803104D01*
X212633619Y-149803104D02*
X212586000Y-149707866D01*
X212586000Y-149707866D02*
X212538381Y-149660247D01*
X212538381Y-149660247D02*
X212443143Y-149612628D01*
X212443143Y-149612628D02*
X212252667Y-149565009D01*
X212252667Y-149565009D02*
X212157429Y-149517390D01*
X212157429Y-149517390D02*
X212109810Y-149469771D01*
X212109810Y-149469771D02*
X212062191Y-149374533D01*
X212062191Y-149374533D02*
X212062191Y-149279295D01*
X212062191Y-149279295D02*
X212109810Y-149184057D01*
X212109810Y-149184057D02*
X212157429Y-149136438D01*
X212157429Y-149136438D02*
X212252667Y-149088819D01*
X212252667Y-149088819D02*
X212490762Y-149088819D01*
X212490762Y-149088819D02*
X212633619Y-149136438D01*
X213062191Y-150088819D02*
X213062191Y-149088819D01*
X213062191Y-149088819D02*
X213443143Y-149088819D01*
X213443143Y-149088819D02*
X213538381Y-149136438D01*
X213538381Y-149136438D02*
X213586000Y-149184057D01*
X213586000Y-149184057D02*
X213633619Y-149279295D01*
X213633619Y-149279295D02*
X213633619Y-149422152D01*
X213633619Y-149422152D02*
X213586000Y-149517390D01*
X213586000Y-149517390D02*
X213538381Y-149565009D01*
X213538381Y-149565009D02*
X213443143Y-149612628D01*
X213443143Y-149612628D02*
X213062191Y-149612628D01*
X214062191Y-150088819D02*
X214062191Y-149088819D01*
X265636666Y-127524819D02*
X265636666Y-128239104D01*
X265636666Y-128239104D02*
X265589047Y-128381961D01*
X265589047Y-128381961D02*
X265493809Y-128477200D01*
X265493809Y-128477200D02*
X265350952Y-128524819D01*
X265350952Y-128524819D02*
X265255714Y-128524819D01*
X266589047Y-127524819D02*
X266112857Y-127524819D01*
X266112857Y-127524819D02*
X266065238Y-128001009D01*
X266065238Y-128001009D02*
X266112857Y-127953390D01*
X266112857Y-127953390D02*
X266208095Y-127905771D01*
X266208095Y-127905771D02*
X266446190Y-127905771D01*
X266446190Y-127905771D02*
X266541428Y-127953390D01*
X266541428Y-127953390D02*
X266589047Y-128001009D01*
X266589047Y-128001009D02*
X266636666Y-128096247D01*
X266636666Y-128096247D02*
X266636666Y-128334342D01*
X266636666Y-128334342D02*
X266589047Y-128429580D01*
X266589047Y-128429580D02*
X266541428Y-128477200D01*
X266541428Y-128477200D02*
X266446190Y-128524819D01*
X266446190Y-128524819D02*
X266208095Y-128524819D01*
X266208095Y-128524819D02*
X266112857Y-128477200D01*
X266112857Y-128477200D02*
X266065238Y-128429580D01*
X261836819Y-137604476D02*
X261836819Y-138080666D01*
X261836819Y-138080666D02*
X262313009Y-138128285D01*
X262313009Y-138128285D02*
X262265390Y-138080666D01*
X262265390Y-138080666D02*
X262217771Y-137985428D01*
X262217771Y-137985428D02*
X262217771Y-137747333D01*
X262217771Y-137747333D02*
X262265390Y-137652095D01*
X262265390Y-137652095D02*
X262313009Y-137604476D01*
X262313009Y-137604476D02*
X262408247Y-137556857D01*
X262408247Y-137556857D02*
X262646342Y-137556857D01*
X262646342Y-137556857D02*
X262741580Y-137604476D01*
X262741580Y-137604476D02*
X262789200Y-137652095D01*
X262789200Y-137652095D02*
X262836819Y-137747333D01*
X262836819Y-137747333D02*
X262836819Y-137985428D01*
X262836819Y-137985428D02*
X262789200Y-138080666D01*
X262789200Y-138080666D02*
X262741580Y-138128285D01*
X261836819Y-137271142D02*
X262836819Y-136937809D01*
X262836819Y-136937809D02*
X261836819Y-136604476D01*
X193611904Y-149537009D02*
X193278571Y-149537009D01*
X193278571Y-150060819D02*
X193278571Y-149060819D01*
X193278571Y-149060819D02*
X193754761Y-149060819D01*
X194278571Y-150060819D02*
X194183333Y-150013200D01*
X194183333Y-150013200D02*
X194135714Y-149917961D01*
X194135714Y-149917961D02*
X194135714Y-149060819D01*
X194659524Y-150060819D02*
X194659524Y-149394152D01*
X194659524Y-149060819D02*
X194611905Y-149108438D01*
X194611905Y-149108438D02*
X194659524Y-149156057D01*
X194659524Y-149156057D02*
X194707143Y-149108438D01*
X194707143Y-149108438D02*
X194659524Y-149060819D01*
X194659524Y-149060819D02*
X194659524Y-149156057D01*
X195135714Y-149394152D02*
X195135714Y-150394152D01*
X195135714Y-149441771D02*
X195230952Y-149394152D01*
X195230952Y-149394152D02*
X195421428Y-149394152D01*
X195421428Y-149394152D02*
X195516666Y-149441771D01*
X195516666Y-149441771D02*
X195564285Y-149489390D01*
X195564285Y-149489390D02*
X195611904Y-149584628D01*
X195611904Y-149584628D02*
X195611904Y-149870342D01*
X195611904Y-149870342D02*
X195564285Y-149965580D01*
X195564285Y-149965580D02*
X195516666Y-150013200D01*
X195516666Y-150013200D02*
X195421428Y-150060819D01*
X195421428Y-150060819D02*
X195230952Y-150060819D01*
X195230952Y-150060819D02*
X195135714Y-150013200D01*
X196373809Y-149537009D02*
X196516666Y-149584628D01*
X196516666Y-149584628D02*
X196564285Y-149632247D01*
X196564285Y-149632247D02*
X196611904Y-149727485D01*
X196611904Y-149727485D02*
X196611904Y-149870342D01*
X196611904Y-149870342D02*
X196564285Y-149965580D01*
X196564285Y-149965580D02*
X196516666Y-150013200D01*
X196516666Y-150013200D02*
X196421428Y-150060819D01*
X196421428Y-150060819D02*
X196040476Y-150060819D01*
X196040476Y-150060819D02*
X196040476Y-149060819D01*
X196040476Y-149060819D02*
X196373809Y-149060819D01*
X196373809Y-149060819D02*
X196469047Y-149108438D01*
X196469047Y-149108438D02*
X196516666Y-149156057D01*
X196516666Y-149156057D02*
X196564285Y-149251295D01*
X196564285Y-149251295D02*
X196564285Y-149346533D01*
X196564285Y-149346533D02*
X196516666Y-149441771D01*
X196516666Y-149441771D02*
X196469047Y-149489390D01*
X196469047Y-149489390D02*
X196373809Y-149537009D01*
X196373809Y-149537009D02*
X196040476Y-149537009D01*
X197469047Y-149394152D02*
X197469047Y-150060819D01*
X197040476Y-149394152D02*
X197040476Y-149917961D01*
X197040476Y-149917961D02*
X197088095Y-150013200D01*
X197088095Y-150013200D02*
X197183333Y-150060819D01*
X197183333Y-150060819D02*
X197326190Y-150060819D01*
X197326190Y-150060819D02*
X197421428Y-150013200D01*
X197421428Y-150013200D02*
X197469047Y-149965580D01*
X197802381Y-149394152D02*
X198183333Y-149394152D01*
X197945238Y-149060819D02*
X197945238Y-149917961D01*
X197945238Y-149917961D02*
X197992857Y-150013200D01*
X197992857Y-150013200D02*
X198088095Y-150060819D01*
X198088095Y-150060819D02*
X198183333Y-150060819D01*
X198373810Y-149394152D02*
X198754762Y-149394152D01*
X198516667Y-149060819D02*
X198516667Y-149917961D01*
X198516667Y-149917961D02*
X198564286Y-150013200D01*
X198564286Y-150013200D02*
X198659524Y-150060819D01*
X198659524Y-150060819D02*
X198754762Y-150060819D01*
X199230953Y-150060819D02*
X199135715Y-150013200D01*
X199135715Y-150013200D02*
X199088096Y-149965580D01*
X199088096Y-149965580D02*
X199040477Y-149870342D01*
X199040477Y-149870342D02*
X199040477Y-149584628D01*
X199040477Y-149584628D02*
X199088096Y-149489390D01*
X199088096Y-149489390D02*
X199135715Y-149441771D01*
X199135715Y-149441771D02*
X199230953Y-149394152D01*
X199230953Y-149394152D02*
X199373810Y-149394152D01*
X199373810Y-149394152D02*
X199469048Y-149441771D01*
X199469048Y-149441771D02*
X199516667Y-149489390D01*
X199516667Y-149489390D02*
X199564286Y-149584628D01*
X199564286Y-149584628D02*
X199564286Y-149870342D01*
X199564286Y-149870342D02*
X199516667Y-149965580D01*
X199516667Y-149965580D02*
X199469048Y-150013200D01*
X199469048Y-150013200D02*
X199373810Y-150060819D01*
X199373810Y-150060819D02*
X199230953Y-150060819D01*
X199992858Y-149394152D02*
X199992858Y-150060819D01*
X199992858Y-149489390D02*
X200040477Y-149441771D01*
X200040477Y-149441771D02*
X200135715Y-149394152D01*
X200135715Y-149394152D02*
X200278572Y-149394152D01*
X200278572Y-149394152D02*
X200373810Y-149441771D01*
X200373810Y-149441771D02*
X200421429Y-149537009D01*
X200421429Y-149537009D02*
X200421429Y-150060819D01*
X240229819Y-157356904D02*
X241039342Y-157356904D01*
X241039342Y-157356904D02*
X241134580Y-157309285D01*
X241134580Y-157309285D02*
X241182200Y-157261666D01*
X241182200Y-157261666D02*
X241229819Y-157166428D01*
X241229819Y-157166428D02*
X241229819Y-156975952D01*
X241229819Y-156975952D02*
X241182200Y-156880714D01*
X241182200Y-156880714D02*
X241134580Y-156833095D01*
X241134580Y-156833095D02*
X241039342Y-156785476D01*
X241039342Y-156785476D02*
X240229819Y-156785476D01*
X241229819Y-155785476D02*
X241229819Y-156356904D01*
X241229819Y-156071190D02*
X240229819Y-156071190D01*
X240229819Y-156071190D02*
X240372676Y-156166428D01*
X240372676Y-156166428D02*
X240467914Y-156261666D01*
X240467914Y-156261666D02*
X240515533Y-156356904D01*
X245959333Y-159331580D02*
X245911714Y-159379200D01*
X245911714Y-159379200D02*
X245768857Y-159426819D01*
X245768857Y-159426819D02*
X245673619Y-159426819D01*
X245673619Y-159426819D02*
X245530762Y-159379200D01*
X245530762Y-159379200D02*
X245435524Y-159283961D01*
X245435524Y-159283961D02*
X245387905Y-159188723D01*
X245387905Y-159188723D02*
X245340286Y-158998247D01*
X245340286Y-158998247D02*
X245340286Y-158855390D01*
X245340286Y-158855390D02*
X245387905Y-158664914D01*
X245387905Y-158664914D02*
X245435524Y-158569676D01*
X245435524Y-158569676D02*
X245530762Y-158474438D01*
X245530762Y-158474438D02*
X245673619Y-158426819D01*
X245673619Y-158426819D02*
X245768857Y-158426819D01*
X245768857Y-158426819D02*
X245911714Y-158474438D01*
X245911714Y-158474438D02*
X245959333Y-158522057D01*
X246911714Y-159426819D02*
X246340286Y-159426819D01*
X246626000Y-159426819D02*
X246626000Y-158426819D01*
X246626000Y-158426819D02*
X246530762Y-158569676D01*
X246530762Y-158569676D02*
X246435524Y-158664914D01*
X246435524Y-158664914D02*
X246340286Y-158712533D01*
%TO.C,JP1*%
X257796000Y-186036000D02*
X258296000Y-185536000D01*
X257796000Y-186836000D02*
X257796000Y-186036000D01*
X258296000Y-185536000D02*
X261896000Y-185536000D01*
X258296000Y-187336000D02*
X257796000Y-186836000D01*
X261896000Y-185536000D02*
X262396000Y-186036000D01*
X261896000Y-187336000D02*
X258296000Y-187336000D01*
X262396000Y-186036000D02*
X262396000Y-186836000D01*
X262396000Y-186836000D02*
X261896000Y-187336000D01*
D11*
%TO.C,J2*%
X228470000Y-141490000D02*
X254130000Y-141490000D01*
X228470000Y-150610000D02*
X228470000Y-141490000D01*
X229770000Y-142800000D02*
X239250000Y-142800000D01*
X229770000Y-149300000D02*
X229770000Y-142800000D01*
X239250000Y-142800000D02*
X239250000Y-141490000D01*
X239250000Y-142800000D02*
X239250000Y-142800000D01*
X243350000Y-141490000D02*
X243350000Y-142800000D01*
X243350000Y-142800000D02*
X252830000Y-142800000D01*
X248420000Y-140100000D02*
X248920000Y-141100000D01*
X248920000Y-141100000D02*
X249420000Y-140100000D01*
X249420000Y-140100000D02*
X248420000Y-140100000D01*
X252830000Y-142800000D02*
X252830000Y-149300000D01*
X252830000Y-149300000D02*
X229770000Y-149300000D01*
X254130000Y-141490000D02*
X254130000Y-150610000D01*
X254130000Y-150610000D02*
X228470000Y-150610000D01*
%TO.C,U2*%
X246250000Y-168526000D02*
X246250000Y-181356000D01*
X246250000Y-171196000D02*
X266830000Y-171196000D01*
X246250000Y-181356000D02*
X248920000Y-181356000D01*
X246250000Y-182626000D02*
X246250000Y-184026000D01*
X246250000Y-184026000D02*
X247650000Y-184026000D01*
X248920000Y-181356000D02*
X248920000Y-184026000D01*
X248920000Y-181356000D02*
X266830000Y-181356000D01*
X248920000Y-184026000D02*
X266830000Y-184026000D01*
X266830000Y-168526000D02*
X246250000Y-168526000D01*
X266830000Y-184026000D02*
X266830000Y-168526000D01*
%TO.C,J7*%
X249980000Y-138212000D02*
X249980000Y-139462000D01*
X249980000Y-139462000D02*
X251230000Y-139462000D01*
X250270000Y-131552000D02*
X250270000Y-139172000D01*
X250270000Y-139172000D02*
X256240000Y-139172000D01*
X250280000Y-131562000D02*
X250280000Y-133362000D01*
X250280000Y-133362000D02*
X251030000Y-133362000D01*
X250280000Y-134862000D02*
X250280000Y-135862000D01*
X250280000Y-135862000D02*
X251030000Y-135862000D01*
X250280000Y-137362000D02*
X250280000Y-139162000D01*
X250280000Y-139162000D02*
X251030000Y-139162000D01*
X251030000Y-131562000D02*
X250280000Y-131562000D01*
X251030000Y-133362000D02*
X251030000Y-131562000D01*
X251030000Y-134862000D02*
X250280000Y-134862000D01*
X251030000Y-135862000D02*
X251030000Y-134862000D01*
X251030000Y-137362000D02*
X250280000Y-137362000D01*
X251030000Y-139162000D02*
X251030000Y-137362000D01*
X252530000Y-131562000D02*
X252530000Y-132312000D01*
X252530000Y-132312000D02*
X255480000Y-132312000D01*
X252530000Y-138412000D02*
X253870000Y-138412000D01*
X252530000Y-139162000D02*
X252530000Y-138412000D01*
X255480000Y-132312000D02*
X255480000Y-135362000D01*
X255480000Y-135362000D02*
X255480000Y-137352000D01*
X256240000Y-131552000D02*
X250270000Y-131552000D01*
X256240000Y-139172000D02*
X256240000Y-131552000D01*
D12*
%TO.C,J3*%
X254741100Y-151509900D02*
X254741100Y-152105895D01*
X254741100Y-154215905D02*
X254741100Y-154645895D01*
X254741100Y-156755905D02*
X254741100Y-157185895D01*
X254741100Y-159295905D02*
X254741100Y-159891900D01*
X254741100Y-159891900D02*
X268584100Y-159891900D01*
X268584100Y-151509900D02*
X254741100Y-151509900D01*
X268584100Y-159891900D02*
X268584100Y-151509900D01*
D13*
X255630100Y-149731900D02*
G75*
G02*
X254868100Y-149731900I-381000J0D01*
G01*
X254868100Y-149731900D02*
G75*
G02*
X255630100Y-149731900I381000J0D01*
G01*
D11*
%TO.C,Conn2*%
X176260000Y-140760000D02*
X176260000Y-142010000D01*
X176550000Y-141050000D02*
X176550000Y-147020000D01*
X176550000Y-147020000D02*
X184170000Y-147020000D01*
X176560000Y-141060000D02*
X176560000Y-141810000D01*
X176560000Y-141810000D02*
X178360000Y-141810000D01*
X176560000Y-143310000D02*
X177310000Y-143310000D01*
X177310000Y-143310000D02*
X177310000Y-144650000D01*
X177510000Y-140760000D02*
X176260000Y-140760000D01*
X178360000Y-141060000D02*
X176560000Y-141060000D01*
X178360000Y-141810000D02*
X178360000Y-141060000D01*
X179860000Y-141060000D02*
X179860000Y-141810000D01*
X179860000Y-141810000D02*
X180860000Y-141810000D01*
X180360000Y-146260000D02*
X178370000Y-146260000D01*
X180860000Y-141060000D02*
X179860000Y-141060000D01*
X180860000Y-141810000D02*
X180860000Y-141060000D01*
X182360000Y-141060000D02*
X182360000Y-141810000D01*
X182360000Y-141810000D02*
X184160000Y-141810000D01*
X183410000Y-143310000D02*
X183410000Y-146260000D01*
X183410000Y-146260000D02*
X180360000Y-146260000D01*
X184160000Y-141060000D02*
X182360000Y-141060000D01*
X184160000Y-141810000D02*
X184160000Y-141060000D01*
X184160000Y-143310000D02*
X183410000Y-143310000D01*
X184170000Y-141050000D02*
X176550000Y-141050000D01*
X184170000Y-147020000D02*
X184170000Y-141050000D01*
%TO.C,J9*%
X167326000Y-141418000D02*
X167326000Y-151698000D01*
X167326000Y-141418000D02*
X169926000Y-141418000D01*
X167326000Y-151698000D02*
X172526000Y-151698000D01*
X169926000Y-141418000D02*
X169926000Y-144018000D01*
X169926000Y-144018000D02*
X172526000Y-144018000D01*
X171196000Y-141418000D02*
X172526000Y-141418000D01*
X172526000Y-141418000D02*
X172526000Y-142748000D01*
X172526000Y-144018000D02*
X172526000Y-151698000D01*
%TO.C,J6*%
X255750000Y-144670000D02*
X257080000Y-144670000D01*
X255750000Y-146000000D02*
X255750000Y-144670000D01*
X255750000Y-147270000D02*
X258350000Y-147270000D01*
X255750000Y-149870000D02*
X255750000Y-147270000D01*
X255750000Y-149870000D02*
X268570000Y-149870000D01*
X258350000Y-144670000D02*
X268570000Y-144670000D01*
X258350000Y-147270000D02*
X258350000Y-144670000D01*
X268570000Y-149870000D02*
X268570000Y-144670000D01*
%TO.C,J8*%
X206486000Y-142284000D02*
X206486000Y-143534000D01*
X206776000Y-142574000D02*
X206776000Y-148544000D01*
X206776000Y-148544000D02*
X219396000Y-148544000D01*
X206786000Y-142584000D02*
X206786000Y-143334000D01*
X206786000Y-143334000D02*
X208586000Y-143334000D01*
X206786000Y-144834000D02*
X207536000Y-144834000D01*
X207536000Y-144834000D02*
X207536000Y-146174000D01*
X207736000Y-142284000D02*
X206486000Y-142284000D01*
X208586000Y-142584000D02*
X206786000Y-142584000D01*
X208586000Y-143334000D02*
X208586000Y-142584000D01*
X210086000Y-142584000D02*
X210086000Y-143334000D01*
X210086000Y-143334000D02*
X216086000Y-143334000D01*
X213086000Y-147784000D02*
X208596000Y-147784000D01*
X216086000Y-142584000D02*
X210086000Y-142584000D01*
X216086000Y-143334000D02*
X216086000Y-142584000D01*
X217586000Y-142584000D02*
X217586000Y-143334000D01*
X217586000Y-143334000D02*
X219386000Y-143334000D01*
X218636000Y-144834000D02*
X218636000Y-147784000D01*
X218636000Y-147784000D02*
X213086000Y-147784000D01*
X219386000Y-142584000D02*
X217586000Y-142584000D01*
X219386000Y-143334000D02*
X219386000Y-142584000D01*
X219386000Y-144834000D02*
X218636000Y-144834000D01*
X219396000Y-142574000D02*
X206776000Y-142574000D01*
X219396000Y-148544000D02*
X219396000Y-142574000D01*
%TO.C,J5*%
X263370000Y-129510000D02*
X263370000Y-142330000D01*
X263370000Y-129510000D02*
X265970000Y-129510000D01*
X263370000Y-142330000D02*
X268570000Y-142330000D01*
X265970000Y-129510000D02*
X265970000Y-132110000D01*
X265970000Y-132110000D02*
X268570000Y-132110000D01*
X267240000Y-129510000D02*
X268570000Y-129510000D01*
X268570000Y-129510000D02*
X268570000Y-130840000D01*
X268570000Y-132110000D02*
X268570000Y-142330000D01*
%TO.C,Conn4*%
X192770000Y-142030000D02*
X192770000Y-143280000D01*
X193060000Y-142320000D02*
X193060000Y-148290000D01*
X193060000Y-148290000D02*
X200680000Y-148290000D01*
X193070000Y-142330000D02*
X193070000Y-143080000D01*
X193070000Y-143080000D02*
X194870000Y-143080000D01*
X193070000Y-144580000D02*
X193820000Y-144580000D01*
X193820000Y-144580000D02*
X193820000Y-145920000D01*
X194020000Y-142030000D02*
X192770000Y-142030000D01*
X194870000Y-142330000D02*
X193070000Y-142330000D01*
X194870000Y-143080000D02*
X194870000Y-142330000D01*
X196370000Y-142330000D02*
X196370000Y-143080000D01*
X196370000Y-143080000D02*
X197370000Y-143080000D01*
X196870000Y-147530000D02*
X194880000Y-147530000D01*
X197370000Y-142330000D02*
X196370000Y-142330000D01*
X197370000Y-143080000D02*
X197370000Y-142330000D01*
X198870000Y-142330000D02*
X198870000Y-143080000D01*
X198870000Y-143080000D02*
X200670000Y-143080000D01*
X199920000Y-144580000D02*
X199920000Y-147530000D01*
X199920000Y-147530000D02*
X196870000Y-147530000D01*
X200670000Y-142330000D02*
X198870000Y-142330000D01*
X200670000Y-143080000D02*
X200670000Y-142330000D01*
X200670000Y-144580000D02*
X199920000Y-144580000D01*
X200680000Y-142320000D02*
X193060000Y-142320000D01*
X200680000Y-148290000D02*
X200680000Y-142320000D01*
D14*
%TO.C,U1*%
X169800000Y-153670000D02*
X232540000Y-153670000D01*
X169800000Y-179070000D02*
X169800000Y-153670000D01*
X232540000Y-153670000D02*
X232540000Y-179070000D01*
X232540000Y-179070000D02*
X169800000Y-179070000D01*
D15*
X231242000Y-152654000D02*
G75*
G02*
X231042000Y-152654000I-100000J0D01*
G01*
X231042000Y-152654000D02*
G75*
G02*
X231242000Y-152654000I100000J0D01*
G01*
D11*
%TO.C,C1*%
X241688500Y-161474500D02*
X242476000Y-161474500D01*
X242082250Y-161080750D02*
X242082250Y-161868250D01*
X242716000Y-160976437D02*
X242716000Y-162262000D01*
X242716000Y-160976437D02*
X243780437Y-159912000D01*
X242716000Y-165667563D02*
X242716000Y-164382000D01*
X242716000Y-165667563D02*
X243780437Y-166732000D01*
X243780437Y-159912000D02*
X249536000Y-159912000D01*
X243780437Y-166732000D02*
X249536000Y-166732000D01*
X249536000Y-159912000D02*
X249536000Y-162262000D01*
X249536000Y-166732000D02*
X249536000Y-164382000D01*
%TO.C,J11*%
D16*
X176530000Y-181610000D02*
X234950000Y-181610000D01*
X234950000Y-186690000D01*
X176530000Y-186690000D01*
X176530000Y-181610000D01*
%TO.C,J10*%
X234950000Y-133350000D02*
X234950000Y-138430000D01*
X176530000Y-133350000D02*
X240030000Y-133350000D01*
X240030000Y-138430000D01*
X176530000Y-138430000D01*
X176530000Y-133350000D01*
%TD*%
%LPC*%
D17*
%TO.C,JP1*%
X258826000Y-186436000D03*
X261366000Y-186436000D03*
%TD*%
D18*
%TO.C,J2*%
X248920000Y-144780000D03*
D19*
X248920000Y-147320000D03*
X246380000Y-144780000D03*
X246380000Y-147320000D03*
X243840000Y-144780000D03*
X243840000Y-147320000D03*
X241300000Y-144780000D03*
X241300000Y-147320000D03*
X238760000Y-144780000D03*
X238760000Y-147320000D03*
X236220000Y-144780000D03*
X236220000Y-147320000D03*
X233680000Y-144780000D03*
X233680000Y-147320000D03*
%TD*%
D20*
%TO.C,U2*%
X247650000Y-182626000D03*
D21*
X250190000Y-182626000D03*
X252730000Y-182626000D03*
X255270000Y-182626000D03*
X257810000Y-182626000D03*
X260350000Y-182626000D03*
X262890000Y-182626000D03*
X265430000Y-182626000D03*
X265430000Y-169926000D03*
X262890000Y-169926000D03*
X260350000Y-169926000D03*
X257810000Y-169926000D03*
X255270000Y-169926000D03*
X252730000Y-169926000D03*
X250190000Y-169926000D03*
X247650000Y-169926000D03*
%TD*%
D22*
%TO.C,J7*%
X254730000Y-138212000D03*
D23*
X252730000Y-136612000D03*
D24*
X252730000Y-134112000D03*
%TD*%
D25*
%TO.C,J3*%
X255249100Y-153160900D03*
X255249100Y-155700900D03*
X255249100Y-158240900D03*
%TD*%
D22*
%TO.C,Conn2*%
X177510000Y-145510000D03*
D26*
X179110000Y-143510000D03*
D27*
X181610000Y-143510000D03*
%TD*%
D28*
%TO.C,J9*%
X171196000Y-142748000D03*
D29*
X168656000Y-142748000D03*
X171196000Y-145288000D03*
X168656000Y-145288000D03*
X171196000Y-147828000D03*
X168656000Y-147828000D03*
X171196000Y-150368000D03*
X168656000Y-150368000D03*
%TD*%
D28*
%TO.C,J6*%
X257080000Y-146000000D03*
D29*
X257080000Y-148540000D03*
X259620000Y-146000000D03*
X259620000Y-148540000D03*
X262160000Y-146000000D03*
X262160000Y-148540000D03*
X264700000Y-146000000D03*
X264700000Y-148540000D03*
X267240000Y-146000000D03*
X267240000Y-148540000D03*
%TD*%
D22*
%TO.C,J8*%
X207736000Y-147034000D03*
D30*
X209336000Y-145034000D03*
D31*
X211836000Y-145034000D03*
X214336000Y-145034000D03*
X216836000Y-145034000D03*
%TD*%
D28*
%TO.C,J5*%
X267240000Y-130840000D03*
D29*
X264700000Y-130840000D03*
X267240000Y-133380000D03*
X264700000Y-133380000D03*
X267240000Y-135920000D03*
X264700000Y-135920000D03*
X267240000Y-138460000D03*
X264700000Y-138460000D03*
X267240000Y-141000000D03*
X264700000Y-141000000D03*
%TD*%
D22*
%TO.C,Conn4*%
X194020000Y-146780000D03*
D26*
X195620000Y-144780000D03*
D27*
X198120000Y-144780000D03*
%TD*%
D32*
%TO.C,U1*%
X231140000Y-154940000D03*
D33*
X228600000Y-154940000D03*
X226060000Y-154940000D03*
X223520000Y-154940000D03*
X220980000Y-154940000D03*
X218440000Y-154940000D03*
X215900000Y-154940000D03*
X213360000Y-154940000D03*
X210820000Y-154940000D03*
X208280000Y-154940000D03*
X205740000Y-154940000D03*
X203200000Y-154940000D03*
X200660000Y-154940000D03*
X198120000Y-154940000D03*
X195580000Y-154940000D03*
X193040000Y-154940000D03*
X190500000Y-154940000D03*
X187960000Y-154940000D03*
X185420000Y-154940000D03*
X182880000Y-154940000D03*
X180340000Y-154940000D03*
X177800000Y-154940000D03*
X231140000Y-177800000D03*
X228600000Y-177800000D03*
X226060000Y-177800000D03*
X223520000Y-177800000D03*
X220980000Y-177800000D03*
X218440000Y-177800000D03*
X215900000Y-177800000D03*
X213360000Y-177800000D03*
X210820000Y-177800000D03*
X208280000Y-177800000D03*
X205740000Y-177800000D03*
X203200000Y-177800000D03*
X200660000Y-177800000D03*
X198120000Y-177800000D03*
X195580000Y-177800000D03*
X193040000Y-177800000D03*
X190500000Y-177800000D03*
X187960000Y-177800000D03*
X185420000Y-177800000D03*
X182880000Y-177800000D03*
X180340000Y-177800000D03*
X177800000Y-177800000D03*
%TD*%
D34*
%TO.C,C1*%
X243326000Y-163322000D03*
X248926000Y-163322000D03*
%TD*%
D35*
%TO.C,J11*%
X233680000Y-182880000D03*
D36*
X233680000Y-185420000D03*
X231140000Y-182880000D03*
X231140000Y-185420000D03*
X228600000Y-182880000D03*
X228600000Y-185420000D03*
X226060000Y-182880000D03*
X226060000Y-185420000D03*
X223520000Y-182880000D03*
X223520000Y-185420000D03*
X220980000Y-182880000D03*
X220980000Y-185420000D03*
X218440000Y-182880000D03*
X218440000Y-185420000D03*
X215900000Y-182880000D03*
X215900000Y-185420000D03*
X213360000Y-182880000D03*
X213360000Y-185420000D03*
X210820000Y-182880000D03*
X210820000Y-185420000D03*
X208280000Y-182880000D03*
X208280000Y-185420000D03*
X205740000Y-182880000D03*
X205740000Y-185420000D03*
X203200000Y-182880000D03*
X203200000Y-185420000D03*
X200660000Y-182880000D03*
X200660000Y-185420000D03*
X198120000Y-182880000D03*
X198120000Y-185420000D03*
X195580000Y-182880000D03*
X195580000Y-185420000D03*
X193040000Y-182880000D03*
X193040000Y-185420000D03*
X190500000Y-182880000D03*
X190500000Y-185420000D03*
X187960000Y-182880000D03*
X187960000Y-185420000D03*
X185420000Y-182880000D03*
X185420000Y-185420000D03*
X182880000Y-182880000D03*
X182880000Y-185420000D03*
X180340000Y-182880000D03*
X180340000Y-185420000D03*
X177800000Y-182880000D03*
X177800000Y-185420000D03*
%TD*%
%TO.C,J10*%
X233680000Y-134620000D03*
X233680000Y-137160000D03*
X231140000Y-134620000D03*
X231140000Y-137160000D03*
X228600000Y-134620000D03*
X228600000Y-137160000D03*
X226060000Y-134620000D03*
X226060000Y-137160000D03*
X223520000Y-134620000D03*
X223520000Y-137160000D03*
X220980000Y-134620000D03*
X220980000Y-137160000D03*
X218440000Y-134620000D03*
X218440000Y-137160000D03*
X215900000Y-134620000D03*
X215900000Y-137160000D03*
X213360000Y-134620000D03*
X213360000Y-137160000D03*
X210820000Y-134620000D03*
X210820000Y-137160000D03*
X208280000Y-134620000D03*
X208280000Y-137160000D03*
X205740000Y-134620000D03*
X205740000Y-137160000D03*
X203200000Y-134620000D03*
X203200000Y-137160000D03*
X200660000Y-134620000D03*
X200660000Y-137160000D03*
X198120000Y-134620000D03*
X198120000Y-137160000D03*
X195580000Y-134620000D03*
X195580000Y-137160000D03*
X193040000Y-134620000D03*
X193040000Y-137160000D03*
X190500000Y-134620000D03*
X190500000Y-137160000D03*
X187960000Y-134620000D03*
X187960000Y-137160000D03*
X185420000Y-134620000D03*
X185420000Y-137160000D03*
X182880000Y-134620000D03*
X182880000Y-137160000D03*
X180340000Y-134620000D03*
X180340000Y-137160000D03*
X177800000Y-134620000D03*
X177800000Y-137160000D03*
D35*
X238760000Y-134620000D03*
D36*
X238760000Y-137160000D03*
X236220000Y-134620000D03*
X236220000Y-137160000D03*
%TD*%
%LPD*%
M02*
